<svg xmlns="http://www.w3.org/2000/svg" xmlns:xlink="http://www.w3.org/1999/xlink" viewBox="0 0 435.04 229.97" xml:space="preserve">
  <style>
    .st0{fill:none}.st1{fill:#0c3958}.st4{fill:#fff}.st40,.st41,.st5{fill:none;stroke:#0c3958;stroke-width:.25;stroke-miterlimit:10}.st40{stroke-dasharray:11.591,11.591}.st41{stroke-dasharray:12.712,12.712}
  </style>
  <g id="Board_4"/>
  <g id="Board_3_-_English"/>
  <g id="Board_3">
    <g id="Coin_Flip"/>
  </g>
  <g id="Board_2_-_English"/>
  <g id="Board_2"/>
  <g id="Board_1_-_English">
    <path class="st0" d="M168.62 197.77h58.88v29.66h-58.88z"/>
    <path class="st1" d="M172.59 207.05c.47 0 .91-.1 1.3-.29s.7-.46.93-.8.34-.73.34-1.16c0-1.07-.5-1.61-1.49-1.61-.22 0-.47.03-.74.1-.27.06-.5.14-.7.22l-.27-.19.49-3.6h2.85l.1-.19h.62l-.18 1.03h-2.65l-.46 2.33c.18-.09.41-.18.69-.25s.56-.11.84-.11c.64 0 1.14.18 1.51.54s.55.88.55 1.57c0 .53-.15 1.01-.46 1.46-.3.45-.73.8-1.29 1.07-.55.27-1.18.4-1.89.4-.29 0-.52-.02-.7-.07v-.48c.2.02.4.03.61.03m5.66-1.89c-.42-.59-.63-1.35-.63-2.29 0-.65.12-1.23.36-1.71.24-.49.57-.87.98-1.12.41-.26.87-.39 1.36-.39.87 0 1.5.28 1.9.83.4.56.6 1.32.6 2.29 0 .65-.11 1.22-.34 1.71s-.55.88-.95 1.16-.85.41-1.35.41c-.87 0-1.51-.3-1.93-.89m3.44-2.29c0-.87-.11-1.53-.33-2s-.6-.7-1.12-.7c-.51 0-.89.22-1.14.67s-.37 1.08-.37 1.9c0 .85.12 1.53.35 2.04.24.51.61.77 1.12.77 1-.01 1.49-.9 1.49-2.68m2.99 2.29c-.42-.59-.63-1.35-.63-2.29 0-.65.12-1.23.36-1.71.24-.49.57-.87.98-1.12.41-.26.87-.39 1.36-.39.87 0 1.5.28 1.9.83.4.56.6 1.32.6 2.29 0 .65-.11 1.22-.34 1.71s-.55.88-.95 1.16-.85.41-1.35.41c-.87 0-1.51-.3-1.93-.89m3.44-2.29c0-.87-.11-1.53-.33-2s-.6-.7-1.12-.7c-.51 0-.89.22-1.14.67s-.37 1.08-.37 1.9c0 .85.12 1.53.35 2.04.24.51.61.77 1.12.77 1-.01 1.49-.9 1.49-2.68m9.61 1.67c-.23.47-.57.84-1 1.12-.43.27-.94.41-1.52.41-.16 0-.33-.01-.52-.04s-.34-.06-.45-.1l.03.84v1.01l1.04.11v.49h-2.79v-.49l.72-.11v-6.6l-.73-.18v-.54l1.42-.18h.02l.21.18v.59c.2-.22.45-.41.75-.56s.63-.23 1-.23c.39 0 .75.1 1.08.29s.59.49.79.9.3.92.3 1.54c0 .57-.11 1.08-.35 1.55m-2.95-3.42c-.22.11-.39.22-.51.35v3.77c.05.08.17.15.35.22.19.06.4.09.62.09.51 0 .93-.2 1.25-.61s.48-1.02.48-1.84c0-.72-.14-1.26-.42-1.61s-.63-.53-1.06-.53c-.25 0-.49.05-.71.16m4.79 4.16c-.42-.53-.63-1.23-.63-2.11q0-.87.33-1.53t.93-1.02 1.35-.36c.62 0 1.1.17 1.44.52s.52.83.54 1.48c0 .41-.02.72-.07.93h-3.44c.01.66.17 1.19.46 1.59s.71.6 1.25.6c.27 0 .54-.05.83-.15s.52-.21.68-.34l.19.44c-.19.2-.48.37-.86.52s-.77.22-1.16.22c-.8 0-1.42-.26-1.84-.79m2.86-2.63c.02-.14.03-.28.03-.43q-.015-.645-.27-1.02c-.18-.25-.46-.38-.83-.38q-.585 0-.93.42c-.23.28-.36.75-.4 1.41zm2.33-1.04c.25-.44.57-.77.98-1s.83-.35 1.29-.35c.84 0 1.47.27 1.9.8s.64 1.23.64 2.1c0 .61-.12 1.13-.37 1.57s-.57.77-.98 1-.83.34-1.29.34c-.84 0-1.47-.27-1.9-.8s-.63-1.23-.63-2.1q-.015-.9.36-1.56m3.28 3.32c.25-.38.37-.94.37-1.69 0-.74-.11-1.33-.34-1.76s-.59-.65-1.09-.65c-.46 0-.81.19-1.06.57s-.38.94-.38 1.69c0 .74.12 1.33.35 1.76s.6.65 1.09.65c.46 0 .82-.19 1.06-.57m7.49-.39c-.23.47-.57.84-1 1.12-.43.27-.94.41-1.52.41-.16 0-.33-.01-.52-.04s-.34-.06-.45-.1l.03.84v1.01l1.04.11v.49h-2.79v-.49l.72-.11v-6.6l-.73-.18v-.54l1.42-.18h.02l.21.18v.59c.2-.22.45-.41.75-.56s.63-.23 1-.23c.39 0 .75.1 1.08.29s.59.49.79.9.3.92.3 1.54c0 .57-.12 1.08-.35 1.55m-2.95-3.42c-.22.11-.39.22-.51.35v3.77c.05.08.17.15.35.22.19.06.4.09.62.09.51 0 .93-.2 1.25-.61s.48-1.02.48-1.84c0-.72-.14-1.26-.42-1.61s-.63-.53-1.06-.53c-.25 0-.49.05-.71.16m4.9-2.62-.81-.11v-.43l1.61-.19h.02l.22.15v7.47l.85.08v.49h-2.7v-.49l.81-.09zm3.22 6.78c-.42-.53-.63-1.23-.63-2.11q0-.87.33-1.53t.93-1.02 1.35-.36c.62 0 1.1.17 1.44.52s.52.83.54 1.48c0 .41-.02.72-.07.93h-3.44c.01.66.17 1.19.46 1.59s.71.6 1.25.6c.27 0 .54-.05.83-.15s.52-.21.68-.34l.19.44c-.19.2-.48.37-.86.52s-.77.22-1.16.22c-.8 0-1.42-.26-1.84-.79m2.86-2.63c.02-.14.03-.28.03-.43q-.015-.645-.27-1.02c-.18-.25-.46-.38-.83-.38q-.585 0-.93.42c-.23.28-.36.75-.4 1.41z"/>
    <path class="st0" d="M2.82 197.77h96.36v14.83H2.82z"/>
    <path class="st1" d="M21.76 200.8c-.14.05-.36.12-.66.19s-.54.12-.73.15l-.1-.56c.34-.07.69-.2 1.04-.37.36-.17.65-.36.9-.57h.01l.61.1v5.64l1.24.09v.49h-3.6v-.49l1.29-.09zm4.79 3.99c.15.22.22.51.22.88 0 .38-.06.75-.18 1.1q-.18.525-.45.9c-.18.25-.36.43-.53.53h-.01l-.34-.24v-.11c.13-.11.27-.34.4-.7.14-.36.21-.69.21-1.01 0-.1-.02-.18-.06-.25s-.09-.14-.17-.23c-.09-.1-.16-.19-.21-.28a.7.7 0 0 1-.07-.35.565.565 0 0 1 .59-.58H26c.22.01.41.12.55.34m2.33.38c-.42-.59-.63-1.35-.63-2.29 0-.65.12-1.23.36-1.71.24-.49.57-.87.98-1.12.41-.26.87-.39 1.36-.39.87 0 1.5.28 1.9.83.4.56.6 1.32.6 2.29 0 .65-.11 1.22-.34 1.71s-.55.88-.95 1.16c-.4.27-.85.41-1.35.41-.87-.01-1.51-.31-1.93-.89m3.45-2.3c0-.87-.11-1.53-.33-2s-.6-.7-1.12-.7c-.51 0-.89.22-1.14.67s-.37 1.08-.37 1.9c0 .85.12 1.53.35 2.04.24.51.61.77 1.12.77.99-.01 1.49-.9 1.49-2.68m2.98 2.3c-.42-.59-.63-1.35-.63-2.29 0-.65.12-1.23.36-1.71.24-.49.57-.87.98-1.12.41-.26.87-.39 1.36-.39.87 0 1.5.28 1.9.83.4.56.6 1.32.6 2.29 0 .65-.11 1.22-.34 1.71s-.55.88-.95 1.16-.85.41-1.35.41c-.87-.01-1.51-.31-1.93-.89m3.45-2.3c0-.87-.11-1.53-.33-2s-.6-.7-1.12-.7c-.51 0-.89.22-1.14.67s-.37 1.08-.37 1.9c0 .85.12 1.53.35 2.04.24.51.61.77 1.12.77.99-.01 1.49-.9 1.49-2.68m2.98 2.3c-.42-.59-.63-1.35-.63-2.29 0-.65.12-1.23.36-1.71.24-.49.57-.87.98-1.12.41-.26.87-.39 1.36-.39.87 0 1.5.28 1.9.83.4.56.6 1.32.6 2.29 0 .65-.11 1.22-.34 1.71s-.55.88-.95 1.16-.85.41-1.35.41c-.87-.01-1.51-.31-1.93-.89m3.44-2.3c0-.87-.11-1.53-.33-2s-.6-.7-1.12-.7c-.51 0-.89.22-1.14.67s-.37 1.08-.37 1.9c0 .85.12 1.53.35 2.04.24.51.61.77 1.12.77 1-.01 1.49-.9 1.49-2.68m9.61 1.67c-.23.47-.57.84-1 1.12-.43.27-.94.41-1.52.41-.16 0-.33-.01-.52-.04s-.34-.06-.45-.1l.03.84v1.01l1.04.11v.49h-2.79v-.49l.72-.11v-6.6l-.73-.18v-.54l1.42-.18h.02l.21.18v.59c.2-.22.45-.41.75-.56s.63-.23 1-.23c.39 0 .75.1 1.08.29s.59.49.79.9.3.92.3 1.54c0 .57-.11 1.09-.35 1.55m-2.95-3.42c-.22.11-.39.22-.51.35v3.77c.05.08.17.15.35.22.19.06.4.09.62.09.51 0 .93-.2 1.25-.61s.48-1.02.48-1.84c0-.72-.14-1.26-.42-1.61s-.63-.53-1.06-.53c-.25 0-.49.05-.71.16m4.79 4.16c-.42-.53-.63-1.23-.63-2.11q0-.87.33-1.53t.93-1.02 1.35-.36c.62 0 1.1.17 1.44.52s.52.83.54 1.48c0 .41-.02.72-.07.93h-3.44c.01.66.17 1.19.46 1.59s.71.6 1.25.6c.27 0 .54-.05.83-.15s.52-.21.68-.34l.19.44c-.19.2-.48.37-.86.52s-.77.22-1.16.22c-.8 0-1.42-.26-1.84-.79m2.86-2.63c.02-.14.03-.28.03-.43q-.015-.645-.27-1.02c-.18-.25-.46-.38-.83-.38q-.585 0-.93.42c-.23.28-.36.75-.4 1.41zm2.33-1.04c.25-.44.57-.77.98-1s.83-.35 1.29-.35c.84 0 1.47.27 1.9.8s.64 1.23.64 2.1c0 .61-.12 1.13-.37 1.57s-.57.77-.98 1-.83.34-1.29.34c-.84 0-1.47-.27-1.9-.8s-.63-1.23-.63-2.1c-.01-.6.12-1.12.36-1.56m3.28 3.32c.25-.38.37-.94.37-1.69 0-.74-.11-1.33-.34-1.76s-.59-.65-1.09-.65c-.46 0-.81.19-1.06.57s-.38.94-.38 1.69c0 .74.12 1.33.35 1.76s.6.65 1.09.65c.46 0 .82-.19 1.06-.57m7.49-.39c-.23.47-.57.84-1 1.12-.43.27-.94.41-1.52.41-.16 0-.33-.01-.52-.04s-.34-.06-.45-.1l.03.84v1.01l1.04.11v.49h-2.79v-.49l.72-.11v-6.6l-.73-.18v-.54l1.42-.18h.02l.21.18v.59c.2-.22.45-.41.75-.56s.63-.23 1-.23c.39 0 .75.1 1.08.29s.59.49.79.9.3.92.3 1.54c0 .57-.11 1.09-.35 1.55m-2.95-3.42c-.22.11-.39.22-.51.35v3.77c.05.08.17.15.35.22.19.06.4.09.62.09.51 0 .93-.2 1.25-.61s.48-1.02.48-1.84c0-.72-.14-1.26-.42-1.61s-.63-.53-1.06-.53c-.25 0-.49.05-.71.16m4.9-2.62-.81-.11v-.43l1.61-.19h.02l.22.15v7.47l.85.08v.49h-2.7v-.49l.81-.09zm3.22 6.78c-.42-.53-.63-1.23-.63-2.11q0-.87.33-1.53t.93-1.02 1.35-.36c.62 0 1.1.17 1.44.52s.52.83.54 1.48c0 .41-.02.72-.07.93h-3.44c.01.66.17 1.19.46 1.59s.71.6 1.25.6c.27 0 .54-.05.83-.15s.52-.21.68-.34l.19.44c-.19.2-.48.37-.86.52s-.77.22-1.16.22c-.8 0-1.42-.26-1.84-.79m2.86-2.63c.02-.14.03-.28.03-.43q-.015-.645-.27-1.02c-.18-.25-.46-.38-.83-.38q-.585 0-.93.42c-.23.28-.36.75-.4 1.41z"/>
    <path class="st0" d="M247.89 197.77h58.88v29.66h-58.88z"/>
    <path class="st1" d="M251.86 207.05c.47 0 .91-.1 1.3-.29s.7-.46.93-.8.34-.73.34-1.16c0-1.07-.5-1.61-1.49-1.61-.22 0-.47.03-.74.1-.27.06-.5.14-.7.22l-.27-.19.49-3.6h2.85l.1-.19h.62l-.18 1.03h-2.65l-.46 2.33c.18-.09.41-.18.69-.25s.56-.11.84-.11c.64 0 1.14.18 1.51.54s.55.88.55 1.57c0 .53-.15 1.01-.46 1.46-.3.45-.73.8-1.29 1.07-.55.27-1.18.4-1.89.4-.29 0-.52-.02-.7-.07v-.48c.2.02.4.03.61.03m5.65-1.89c-.42-.59-.63-1.35-.63-2.29 0-.65.12-1.23.36-1.71.24-.49.57-.87.98-1.12.41-.26.87-.39 1.36-.39.87 0 1.5.28 1.9.83.4.56.6 1.32.6 2.29 0 .65-.11 1.22-.34 1.71s-.55.88-.95 1.16-.85.41-1.35.41c-.86 0-1.5-.3-1.93-.89m3.45-2.29c0-.87-.11-1.53-.33-2s-.6-.7-1.12-.7c-.51 0-.89.22-1.14.67s-.37 1.08-.37 1.9c0 .85.12 1.53.35 2.04.24.51.61.77 1.12.77.99-.01 1.49-.9 1.49-2.68m2.98 2.29c-.42-.59-.63-1.35-.63-2.29 0-.65.12-1.23.36-1.71.24-.49.57-.87.98-1.12.41-.26.87-.39 1.36-.39.87 0 1.5.28 1.9.83.4.56.6 1.32.6 2.29 0 .65-.11 1.22-.34 1.71s-.55.88-.95 1.16-.85.41-1.35.41c-.86 0-1.5-.3-1.93-.89m3.45-2.29c0-.87-.11-1.53-.33-2s-.6-.7-1.12-.7c-.51 0-.89.22-1.14.67s-.37 1.08-.37 1.9c0 .85.12 1.53.35 2.04.24.51.61.77 1.12.77.99-.01 1.49-.9 1.49-2.68m9.61 1.67c-.23.47-.57.84-1 1.12-.43.27-.94.41-1.52.41-.16 0-.33-.01-.52-.04s-.34-.06-.45-.1l.03.84v1.01l1.04.11v.49h-2.79v-.49l.72-.11v-6.6l-.73-.18v-.54l1.42-.18h.02l.21.18v.59c.2-.22.45-.41.75-.56s.63-.23 1-.23c.39 0 .75.1 1.08.29s.59.49.79.9.3.92.3 1.54c0 .57-.12 1.08-.35 1.55m-2.95-3.42c-.22.11-.39.22-.51.35v3.77c.05.08.17.15.35.22.19.06.4.09.62.09.51 0 .93-.2 1.25-.61s.48-1.02.48-1.84c0-.72-.14-1.26-.42-1.61s-.63-.53-1.06-.53c-.25 0-.49.05-.71.16m4.78 4.16c-.42-.53-.63-1.23-.63-2.11q0-.87.33-1.53t.93-1.02 1.35-.36c.62 0 1.1.17 1.44.52s.52.83.54 1.48c0 .41-.02.72-.07.93h-3.44c.01.66.17 1.19.46 1.59s.71.6 1.25.6c.27 0 .54-.05.83-.15s.52-.21.68-.34l.19.44c-.19.2-.48.37-.86.52s-.77.22-1.16.22c-.8 0-1.41-.26-1.84-.79m2.87-2.63c.02-.14.03-.28.03-.43q-.015-.645-.27-1.02c-.18-.25-.46-.38-.83-.38q-.585 0-.93.42c-.23.28-.36.75-.4 1.41zm2.33-1.04c.25-.44.57-.77.98-1s.83-.35 1.29-.35c.84 0 1.47.27 1.9.8q.63.795.63 2.1c0 .61-.12 1.13-.37 1.57s-.57.77-.97 1-.83.34-1.29.34c-.84 0-1.47-.27-1.9-.8s-.63-1.23-.63-2.1q-.015-.9.36-1.56m3.28 3.32c.25-.38.37-.94.37-1.69 0-.74-.11-1.33-.34-1.76s-.59-.65-1.09-.65c-.46 0-.81.19-1.06.57s-.38.94-.38 1.69c0 .74.12 1.33.35 1.76s.6.65 1.09.65c.46 0 .81-.19 1.06-.57m7.49-.39c-.23.47-.57.84-1 1.12-.43.27-.94.41-1.52.41-.16 0-.33-.01-.52-.04s-.34-.06-.45-.1l.03.84v1.01l1.04.11v.49h-2.79v-.49l.72-.11v-6.6l-.73-.18v-.54l1.42-.18h.02l.21.18v.59c.2-.22.45-.41.75-.56s.63-.23 1-.23c.39 0 .75.1 1.08.29s.59.49.79.9.3.92.3 1.54c0 .57-.12 1.08-.35 1.55m-2.95-3.42c-.22.11-.39.22-.51.35v3.77c.05.08.17.15.36.22s.4.09.62.09c.51 0 .93-.2 1.25-.61s.47-1.02.47-1.84c0-.72-.14-1.26-.42-1.61s-.63-.53-1.06-.53c-.26 0-.49.05-.71.16m4.9-2.62-.81-.11v-.43l1.61-.19h.02l.22.15v7.47l.85.08v.49h-2.7v-.49l.81-.09zm3.21 6.78c-.42-.53-.63-1.23-.63-2.11q0-.87.33-1.53c.33-.66.53-.78.92-1.02.4-.24.85-.36 1.36-.36.62 0 1.1.17 1.44.52.34.34.53.83.54 1.48 0 .41-.02.72-.07.93h-3.44c.01.66.17 1.19.46 1.59s.71.6 1.25.6c.27 0 .54-.05.83-.15s.52-.21.68-.34l.19.44c-.19.2-.48.37-.86.52s-.77.22-1.16.22c-.8 0-1.41-.26-1.84-.79m2.87-2.63c.02-.14.03-.28.03-.43-.01-.43-.1-.77-.28-1.02s-.46-.38-.83-.38c-.39 0-.7.14-.92.42-.23.28-.36.75-.4 1.41z"/>
    <path class="st0" d="M333.93 103.77h85.47v29.66h-85.47z"/>
    <path d="M341.25 110.14c.75-.36 1.7-.55 2.86-.57v-.34c0-.38-.04-.67-.12-.89a.83.83 0 0 0-.41-.47c-.2-.1-.47-.15-.83-.15-.41 0-.77.06-1.1.17-.32.12-.65.26-.97.43l-.3-.62c.1-.09.3-.2.58-.35.28-.14.6-.27.97-.38s.74-.17 1.1-.17c.57 0 1.02.08 1.35.23.33.16.57.41.71.75s.22.8.22 1.38v3.85h.71v.53c-.16.04-.36.08-.61.12-.24.04-.46.06-.64.06-.22 0-.38-.03-.46-.1s-.12-.22-.12-.45v-.4c-.24.24-.53.46-.88.66s-.74.3-1.18.3c-.58 0-1.05-.17-1.43-.5s-.57-.81-.57-1.43c-.01-.75.36-1.31 1.12-1.66m2.11 2.58c.27-.13.52-.28.74-.46v-2.06c-.87 0-1.53.13-1.97.4s-.67.62-.67 1.05.11.75.32.95.5.31.86.31c.21 0 .45-.06.72-.19m2.94-5.78h2.78v.56l-.85.16 1.21 3.46.5 1.52.43-1.48 1.21-3.5-.82-.16v-.56h2.44v.56l-.62.16-2.32 6.04h-1.02l-2.41-6.04-.54-.16v-.56zm8.1 5.84c-.51-.63-.76-1.48-.76-2.53 0-.7.13-1.31.4-1.84.26-.53.63-.94 1.11-1.22.48-.29 1.02-.43 1.63-.43.74 0 1.32.21 1.73.62s.63 1 .65 1.77c0 .49-.03.86-.08 1.12h-4.13c.02.79.2 1.43.55 1.91s.85.73 1.5.73c.32 0 .65-.06 1-.17.35-.12.62-.25.81-.41l.23.53c-.23.24-.58.45-1.03.62-.46.18-.92.26-1.39.26q-1.455-.015-2.22-.96m3.44-3.16c.02-.17.04-.34.04-.52q-.015-.78-.33-1.23c-.21-.3-.55-.45-1-.45-.46 0-.83.17-1.11.5-.28.34-.43.9-.47 1.69h2.87zm2.38 3.39.9-.07v-5.08l-.86-.22V107l1.66-.22h.02l.26.22v.22l-.04.94h.04c.08-.14.22-.31.43-.53s.48-.41.8-.59c.33-.18.68-.27 1.07-.27.16 0 .29.02.4.06v1.34a.9.9 0 0 0-.27-.11c-.12-.04-.26-.05-.41-.05-.66 0-1.28.2-1.85.61v4.32l1.52.1v.58h-3.67zm6.6-2.87c.75-.36 1.7-.55 2.86-.57v-.34c0-.38-.04-.67-.12-.89s-.22-.37-.41-.47-.47-.15-.83-.15c-.41 0-.77.06-1.1.17-.32.12-.65.26-.97.43l-.3-.62c.1-.09.3-.2.58-.35s.6-.27.97-.38.74-.17 1.1-.17c.57 0 1.02.08 1.35.23.33.16.57.41.71.75s.22.8.22 1.38v3.85h.71v.53c-.16.04-.36.08-.61.12s-.46.06-.64.06c-.22 0-.38-.03-.46-.1s-.12-.22-.12-.45v-.4c-.24.24-.53.46-.88.66s-.74.3-1.18.3c-.58 0-1.05-.17-1.43-.5s-.57-.81-.57-1.43c-.01-.75.37-1.31 1.12-1.66m2.11 2.58c.27-.13.52-.28.74-.46v-2.06c-.87 0-1.53.13-1.97.4s-.67.62-.67 1.05.11.75.32.95.5.31.86.31c.21 0 .45-.06.72-.19m4.13 3.63c-.46-.32-.69-.77-.69-1.34 0-.35.11-.68.33-.97.22-.3.48-.52.79-.67-.37-.21-.55-.54-.55-1.01 0-.29.08-.56.25-.82s.39-.45.66-.59c-.4-.18-.71-.43-.92-.76s-.32-.72-.32-1.16c0-.46.13-.87.39-1.21s.6-.61 1.03-.79.88-.28 1.36-.28c.81 0 1.44.17 1.9.5.12-.12.3-.24.55-.35s.51-.17.79-.17h.41v1.06h-1.32c.19.3.29.64.29 1.03 0 .47-.12.89-.35 1.25-.24.36-.56.65-.98.85s-.89.3-1.42.3c-.34 0-.65-.04-.92-.11a2 2 0 0 0-.28.37c-.07.14-.11.27-.11.4 0 .29.1.49.29.59.19.11.54.16 1.03.16h1.36c.78 0 1.35.15 1.73.44s.56.72.56 1.26c0 .46-.16.87-.49 1.25s-.77.68-1.33.9-1.16.33-1.81.33c-1.02.03-1.77-.13-2.23-.46m3.45-.38c.35-.12.63-.29.85-.52s.32-.49.32-.8c0-.36-.1-.62-.29-.79s-.56-.25-1.12-.25h-1.42c-.32 0-.57-.02-.76-.06-.33.36-.49.76-.49 1.21s.14.79.41 1.02.73.35 1.38.35c.4.01.77-.05 1.12-.16m.23-7.02c0-.54-.12-.93-.35-1.18-.24-.25-.59-.38-1.06-.38-.44 0-.79.12-1.04.37s-.38.63-.38 1.17c0 .5.12.9.37 1.2s.61.44 1.11.44q1.35 0 1.35-1.62m3.7 3.83c-.51-.63-.76-1.48-.76-2.53 0-.7.13-1.31.4-1.84.26-.53.63-.94 1.11-1.22.48-.29 1.02-.43 1.63-.43.74 0 1.32.21 1.73.62s.63 1 .65 1.77c0 .49-.03.86-.08 1.12h-4.13c.02.79.2 1.43.55 1.91s.85.73 1.5.73c.32 0 .65-.06 1-.17.35-.12.62-.25.81-.41l.23.53c-.23.24-.58.45-1.03.62-.46.18-.92.26-1.39.26q-1.455-.015-2.22-.96m3.44-3.16c.02-.17.04-.34.04-.52q-.015-.78-.33-1.23c-.21-.3-.55-.45-1-.45-.46 0-.83.17-1.11.5-.28.34-.43.9-.47 1.69h2.87zm10.85.57h-4.85v-.88h4.85zm6.04 4.72c.57 0 1.09-.12 1.56-.35s.84-.55 1.12-.96c.27-.41.41-.87.41-1.39 0-1.29-.6-1.93-1.79-1.93-.26 0-.56.04-.88.11-.32.08-.61.17-.85.27l-.32-.23.59-4.32h3.42l.12-.23h.74l-.22 1.24h-3.18l-.55 2.8c.22-.11.49-.21.83-.3s.67-.13 1.01-.13c.77 0 1.37.22 1.81.65s.66 1.06.66 1.88a3 3 0 0 1-.55 1.75c-.36.54-.88.96-1.54 1.28s-1.42.48-2.27.48c-.34 0-.62-.03-.84-.08v-.58c.22.02.46.04.72.04m6.78-2.27c-.51-.71-.76-1.62-.76-2.74 0-.78.14-1.47.43-2.06s.68-1.04 1.18-1.35 1.04-.47 1.63-.47c1.04 0 1.8.33 2.28 1s.72 1.58.72 2.74c0 .78-.14 1.46-.41 2.06-.28.6-.66 1.06-1.14 1.39s-1.03.49-1.63.49c-1.02.01-1.79-.35-2.3-1.06m4.14-2.75c0-1.04-.13-1.84-.4-2.4q-.405-.84-1.35-.84c-.62 0-1.07.27-1.37.8s-.44 1.29-.44 2.29c0 1.02.14 1.83.43 2.44.28.61.73.92 1.35.92 1.18-.01 1.78-1.07 1.78-3.21" style="fill:#da671d"/>
    <path class="st0" d="M172.77 9.62h129.47v19.92H172.77z"/>
    <path class="st1" d="m201.78 11.69-1.4-.18v-.75h4.41v.75l-1.4.18v9.33l1.4.16v.72h-4.4v-.73l1.38-.15v-9.33zm5.41 3.04-1.08-.27v-.81l2.15-.27h.04l.31.27v.63l-.02.36c.36-.32.83-.61 1.43-.87.59-.26 1.15-.39 1.69-.39.63 0 1.12.12 1.46.36.35.24.59.61.73 1.1s.21 1.16.21 2v4.2l1.05.1v.75h-3.56v-.73l.93-.12v-4.21c0-.59-.04-1.05-.12-1.39s-.23-.58-.45-.75-.54-.25-.96-.25c-.36 0-.75.09-1.15.27-.41.18-.78.39-1.1.63v5.69l1.02.14v.73h-3.54v-.73l.95-.14v-6.3zm9.99 6.15c-.64-.79-.95-1.85-.95-3.17 0-.87.17-1.63.5-2.29s.79-1.17 1.39-1.53 1.27-.54 2.03-.54c.93 0 1.65.26 2.17.77.51.52.79 1.25.82 2.21 0 .61-.04 1.08-.1 1.4h-5.16c.02.99.25 1.79.69 2.39s1.06.91 1.88.91c.4 0 .82-.07 1.25-.22s.77-.32 1.01-.52l.29.66q-.435.45-1.29.78c-.855.33-1.15.33-1.74.33-1.24.01-2.16-.39-2.79-1.18m4.29-3.94c.03-.21.04-.43.04-.65-.01-.65-.15-1.16-.41-1.54s-.68-.56-1.25-.56c-.58 0-1.04.21-1.39.63s-.54 1.12-.59 2.12zm6.96 7.89 1.67-.17v-2.41l.04-1.23c-.3.3-.66.55-1.09.75-.42.2-.89.3-1.4.3-.59 0-1.14-.15-1.64-.46s-.9-.77-1.2-1.4c-.3-.62-.45-1.4-.45-2.32 0-.85.17-1.62.52-2.31s.85-1.23 1.51-1.64c.65-.4 1.43-.6 2.32-.6q.87 0 1.83.27l.82-.23.29.25v11.02l1.04.15v.71h-4.26zm.9-4.01c.32-.17.57-.35.76-.55v-5.69c-.06-.12-.24-.23-.54-.32s-.62-.14-.96-.14c-.76 0-1.37.3-1.84.91s-.7 1.53-.7 2.77c0 1.07.21 1.88.62 2.44.42.55.95.83 1.6.83.39-.01.74-.09 1.06-.25m10.42 1.06c-.13-.11-.2-.29-.2-.54v-.51c-.33.33-.74.62-1.24.87s-.99.38-1.49.38q-1.395 0-1.98-.75c-.39-.5-.58-1.33-.58-2.48V14.5l-.84-.24v-.66l2.1-.19h.01l.29.18v5.15c0 .58.04 1.03.13 1.36q.12.48.45.72c.21.16.53.23.94.23.4 0 .77-.08 1.12-.25s.65-.37.92-.6v-5.69l-1.08-.24v-.66l2.28-.19h.02l.35.18v7.56h.9l-.02.68c-.28.07-.52.12-.73.17-.21.04-.44.06-.71.06-.3-.03-.5-.09-.64-.19m4.69-4.3c.94-.44 2.13-.68 3.57-.71v-.42q0-.705-.15-1.11c-.15-.405-.27-.47-.52-.59s-.59-.19-1.04-.19c-.51 0-.97.07-1.37.22s-.81.32-1.21.53l-.38-.78c.13-.11.37-.25.72-.44s.75-.34 1.21-.48.92-.21 1.38-.21c.71 0 1.27.1 1.69.29.41.19.71.51.89.94s.27 1 .27 1.73v4.81h.89v.66c-.2.05-.45.1-.76.15s-.57.07-.8.07c-.28 0-.47-.04-.57-.13-.1-.08-.15-.27-.15-.56v-.5c-.3.3-.67.58-1.1.83-.44.25-.93.38-1.48.38-.72 0-1.32-.21-1.79-.62-.48-.42-.71-1.01-.71-1.79 0-.95.47-1.64 1.41-2.08m2.64 3.23q.51-.24.93-.57v-2.58c-1.09 0-1.91.17-2.47.5-.56.34-.83.77-.83 1.31s.13.94.4 1.19.62.38 1.07.38c.26.01.56-.07.9-.23m5.46-10.1-1.21-.17V9.9l2.42-.29h.03l.33.23v11.21l1.27.12v.73h-4.05v-.73l1.21-.14zm5.07 4.02-1.14-.27v-.79l2.32-.29h.03l.34.27v7.4l1.2.12v.73h-3.98v-.73l1.22-.14v-6.3zm-.12-2.92q-.24-.27-.24-.69c0-.32.1-.58.29-.79.2-.21.46-.31.8-.31q.51 0 .75.27t.24.69c0 .34-.1.61-.29.81s-.47.3-.82.3h-.02c-.31-.01-.55-.1-.71-.28m5.23 9.85c-.28-.26-.42-.7-.42-1.33v-5.76h-1.08v-.67c.05-.01.19-.05.42-.11s.39-.11.47-.16c.16-.09.28-.27.38-.54.08-.19.17-.5.28-.92s.18-.67.2-.75h.88l.03 2.16h2.5v.99h-2.5v4.6c0 .57.02.97.05 1.2s.11.38.23.45c.11.07.31.1.59.1.27 0 .57-.03.89-.1.33-.07.58-.14.76-.23l.23.68c-.24.18-.63.35-1.16.52-.54.17-1.02.25-1.46.25-.58.01-1.01-.12-1.29-.38m5.53 3.95a1 1 0 0 1-.35-.09v-1.31c.06.04.18.07.35.09s.34.03.5.03c.48 0 .9-.17 1.27-.5.36-.34.72-.98 1.06-1.93h-.72l-2.85-7.42-.69-.2v-.71h3.61v.71l-1.15.18 1.47 4.42.69 2.19.65-2.2 1.33-4.41-1.01-.18v-.71h3.02v.71l-.75.18c-1.47 4.5-2.33 7.06-2.59 7.67-.34.86-.65 1.53-.93 2.02q-.42.72-.99 1.11c-.57.39-.85.38-1.41.38-.18 0-.34-.01-.51-.03"/>
    <path class="st0" d="M3.63 9.62h94.74v19.92H3.63z"/>
    <path class="st1" d="m22.21 11.69-1.23-.18v-.75h7.63l.21 2.33h-.85l-.44-1.46-3.72-.09v4.23l2.5-.05.21-1.24h.83v3.45h-.83l-.21-1.29-2.5-.04v4.47l4.23-.15.79-1.89.89.27-.44 2.61h-8.33v-.73l1.25-.15v-9.34zm12.52 13.14 1.67-.17v-2.41l.04-1.23c-.3.3-.66.55-1.09.75-.42.2-.89.3-1.4.3-.59 0-1.14-.15-1.64-.46s-.9-.77-1.2-1.4c-.3-.62-.45-1.4-.45-2.32 0-.85.17-1.62.52-2.31s.85-1.23 1.51-1.64c.65-.4 1.43-.6 2.32-.6q.87 0 1.83.27l.82-.23.29.25v11.02l1.04.15v.71h-4.26zm.9-4.01c.32-.17.57-.35.76-.55v-5.69c-.06-.12-.24-.23-.54-.32s-.62-.14-.96-.14c-.76 0-1.37.3-1.84.91s-.7 1.53-.7 2.77c0 1.07.21 1.88.62 2.44.42.55.95.83 1.6.83.39-.01.74-.09 1.06-.25m10.42 1.06c-.13-.11-.2-.29-.2-.54v-.51c-.33.33-.74.62-1.24.87s-.99.38-1.49.38q-1.395 0-1.98-.75c-.39-.5-.58-1.33-.58-2.48V14.5l-.84-.24v-.66l2.1-.19h.01l.29.18v5.15c0 .58.04 1.03.13 1.36q.12.48.45.72c.21.16.53.23.94.23.4 0 .77-.08 1.12-.25s.65-.37.92-.6v-5.69l-1.08-.24v-.66l2.28-.19h.02l.35.18v7.56h.9l-.02.68c-.28.07-.52.12-.73.17-.21.04-.44.06-.71.06-.3-.03-.51-.09-.64-.19m4.69-4.3c.94-.44 2.13-.68 3.57-.71v-.42q0-.705-.15-1.11c-.15-.405-.27-.47-.52-.59s-.59-.19-1.04-.19c-.51 0-.97.07-1.37.22s-.81.32-1.21.53l-.38-.78c.13-.11.37-.25.72-.44s.75-.34 1.21-.48.92-.21 1.38-.21c.71 0 1.27.1 1.69.29.41.19.71.51.89.94s.27 1 .27 1.73v4.81h.89v.66c-.2.05-.45.1-.76.15s-.57.07-.8.07c-.28 0-.47-.04-.57-.13-.1-.08-.15-.27-.15-.56v-.5c-.3.3-.67.58-1.1.83-.44.25-.93.38-1.48.38-.72 0-1.32-.21-1.79-.62-.48-.42-.71-1.01-.71-1.79-.01-.95.47-1.64 1.41-2.08m2.64 3.23q.51-.24.93-.57v-2.58c-1.09 0-1.91.17-2.47.5-.56.34-.83.77-.83 1.31s.13.94.4 1.19.62.38 1.07.38c.26.01.55-.07.9-.23m5.46-10.1-1.21-.17V9.9l2.42-.29h.03l.33.23v11.21l1.27.12v.73h-4.05v-.73l1.21-.14zm5.07 4.02-1.14-.27v-.79l2.32-.29h.03l.34.27v7.4l1.2.12v.73h-3.98v-.73l1.22-.14v-6.3zm-.12-2.92q-.24-.27-.24-.69c0-.32.1-.58.29-.79.2-.21.46-.31.8-.31q.51 0 .75.27t.24.69c0 .34-.1.61-.29.81s-.47.3-.82.3h-.02c-.31-.01-.56-.1-.71-.28m5.23 9.85c-.28-.26-.42-.7-.42-1.33v-5.76h-1.08v-.67c.05-.01.19-.05.42-.11s.39-.11.47-.16c.16-.09.28-.27.38-.54.08-.19.17-.5.28-.92s.18-.67.2-.75h.88l.03 2.16h2.5v.99h-2.5v4.6c0 .57.02.97.05 1.2s.11.38.23.45c.11.07.31.1.59.1.27 0 .57-.03.89-.1.33-.07.58-.14.76-.23l.23.68c-.24.18-.63.35-1.16.52-.54.17-1.02.25-1.46.25-.58.01-1.01-.12-1.29-.38m5.53 3.95a1 1 0 0 1-.35-.09v-1.31c.06.04.18.07.35.09s.34.03.5.03c.48 0 .9-.17 1.27-.5.36-.34.72-.98 1.06-1.93h-.72l-2.85-7.42-.69-.2v-.71h3.61v.71l-1.15.18 1.47 4.42.69 2.19.65-2.2 1.33-4.41-1.01-.18v-.71h3.02v.71l-.75.18c-1.47 4.5-2.33 7.06-2.59 7.67-.34.86-.65 1.53-.93 2.02q-.42.72-.99 1.11c-.57.39-.85.38-1.41.38q-.27 0-.51-.03"/>
  </g>
  <g id="Board_1">
    <path class="st0" d="M273.33 167.44h58.88v16.38h-58.88z"/>
    <path d="M296.7 177.3c.77-.68 1.38-1.37 1.84-2.09.45-.72.68-1.4.68-2.04 0-.55-.16-.99-.49-1.31s-.8-.49-1.41-.49c-.57 0-1.06.11-1.47.34s-.79.5-1.14.83l-.48-.67c.35-.41.85-.78 1.5-1.12.65-.33 1.34-.5 2.08-.5.7 0 1.29.13 1.77.38.48.26.83.59 1.07 1 .23.41.34.86.34 1.35 0 .99-.48 2.01-1.42 3.05-.95 1.04-2.14 1.98-3.57 2.81l4.65-.35.52-1.29.77.15-.39 2.37h-7.15l-.23-.63c.92-.52 1.76-1.11 2.53-1.79m7.61 1.23c-.63-.89-.95-2.03-.95-3.43 0-.98.18-1.84.54-2.57.36-.74.85-1.3 1.47-1.69s1.3-.58 2.04-.58c1.3 0 2.25.42 2.85 1.25s.9 1.98.9 3.43c0 .97-.17 1.83-.52 2.57s-.82 1.32-1.42 1.73c-.61.41-1.28.61-2.03.61q-1.92.015-2.88-1.32m5.17-3.44c0-1.3-.17-2.3-.5-3s-.9-1.05-1.69-1.05c-.77 0-1.34.33-1.71 1s-.55 1.62-.55 2.86c0 1.27.18 2.29.53 3.05s.92 1.15 1.69 1.15c1.49-.01 2.23-1.34 2.23-4.01" style="fill:#a2c617"/>
    <path style="fill:none;stroke:#da671d;stroke-width:.5;stroke-miterlimit:10" d="M425.57 118.56H164.79"/>
    <defs>
      <path id="XMLID_3_" d="m314.31 125.07-1.65-3.45c-5.35-11.14-10.03-20.09-13.96-27.17l-5.67-10.27c-3.11-5.01-6.5-4.66-9.6-4.66h-.65v-3.4c4.84-2.5 8.16-7.55 8.16-13.38 0-8.31-6.74-15.05-15.05-15.05-1.93 0-3.77.36-5.46 1.02a14.8 14.8 0 0 0-3.72 2.11c-.22.13-.45.27-.67.4-4.05 2.43-5.62 8.89-6.03 10.93-2.61 12.82-10.09 12.09-10.09 12.09s1.13.43 9.91 2.56c3.75.91 7.51 1.22 10.6 1.28v1.43h-4.63v.09c-4.25.45-8.19 2.57-10.81 6.01-5.85 7.66-6.9 18.67-7.06 23.49 0 .07-.02.13-.02.19v.49c-.02 1.1 0 1.74 0 1.74v19.58c0 2.62 1.97 4.92 4.59 5.11 2.87.2 5.29-2.09 5.29-4.93v-22c0-.21-.04-.4-.06-.6.52-11.05 4.64-14.48 4.64-14.48v88.52c0 3.68 3.01 6.69 6.69 6.69s6.69-3.01 6.69-6.69l.1-30.43 1.72.01h2.26v30.76c0 3.2 2.36 6.01 5.54 6.32 3.66.36 6.77-2.54 6.77-6.13V152.3h14.66c2.43 0 3.94-3.18 2.73-5.73l-14.62-30.67-3.31-9c-.18-5.75.25-6.59.25-6.59l13.44 29.08a4.54 4.54 0 0 0 6.03 2.12l.89-.43c2.22-1.06 3.17-3.77 2.1-6.01"/>
    </defs>
    <use xlink:href="#XMLID_3_" style="overflow:visible;fill:#0c3958"/>
    <clipPath id="XMLID_00000147934655339898518090000018429793329270568345_">
      <use xlink:href="#XMLID_3_" style="overflow:visible"/>
    </clipPath>
    <linearGradient id="SVGID_1_" gradientUnits="userSpaceOnUse" x1="281.561" y1="190.62" x2="281.561" y2="46.555">
      <stop offset="0" style="stop-color:#cee1ac"/>
      <stop offset=".094" style="stop-color:#c6dc99"/>
      <stop offset=".302" style="stop-color:#b6d270"/>
      <stop offset=".503" style="stop-color:#a9ca4e"/>
      <stop offset=".691" style="stop-color:#9ec536"/>
      <stop offset=".862" style="stop-color:#97c226"/>
      <stop offset="1" style="stop-color:#95c11f"/>
    </linearGradient>
    <path style="clip-path:url(#XMLID_00000147934655339898518090000018429793329270568345_);fill:url(#SVGID_1_)" d="M230.31 46.56h102.5v144.06h-102.5z"/>
    <path style="clip-path:url(#XMLID_00000147934655339898518090000018429793329270568345_);fill:#0c3958" d="M240.35 47.69h73.96v113.39h-73.96z"/>
    <defs>
      <path id="XMLID_2_" d="m83.99 125.12-1.65-3.45c-5.35-11.14-10.03-20.09-13.96-27.17l-5.67-10.27c-3.11-5.01-6.5-4.66-9.6-4.66h-.65v-3.4c4.84-2.5 8.16-7.55 8.16-13.38 0-8.31-6.74-15.05-15.05-15.05-1.93 0-3.77.36-5.46 1.02a14.8 14.8 0 0 0-3.72 2.11c-.22.13-.45.27-.67.4-4.05 2.43-5.62 8.89-6.03 10.93C27.08 75.02 19.6 74.29 19.6 74.29s1.13.43 9.91 2.56c3.75.91 7.51 1.22 10.6 1.28v1.43h-4.63v.09c-4.25.45-8.19 2.57-10.81 6.01-5.85 7.66-6.9 18.67-7.06 23.49 0 .07-.02.13-.02.19v.49c-.02 1.1 0 1.74 0 1.74v19.58c0 2.62 1.97 4.92 4.59 5.11 2.87.2 5.29-2.09 5.29-4.93v-22c0-.21-.04-.4-.06-.6.52-11.05 4.64-14.48 4.64-14.48v88.52c0 3.68 3.01 6.69 6.69 6.69s6.69-3.01 6.69-6.69l.1-30.43 1.72.01h2.26v30.76c0 3.2 2.36 6.01 5.54 6.32 3.66.36 6.77-2.54 6.77-6.13v-30.95h14.66c2.43 0 3.94-3.18 2.73-5.73l-14.62-30.67-3.31-9c-.18-5.75.25-6.59.25-6.59l13.44 29.08a4.54 4.54 0 0 0 6.03 2.12l.89-.43c2.23-1.06 3.18-3.78 2.1-6.01"/>
    </defs>
    <use xlink:href="#XMLID_2_" style="overflow:visible;fill:#0c3958"/>
    <clipPath id="XMLID_00000103253714111991840000000009271409908617404316_">
      <use xlink:href="#XMLID_2_" style="overflow:visible"/>
    </clipPath>
    <linearGradient id="SVGID_00000016755017349258370410000011347507102698872211_" gradientUnits="userSpaceOnUse" x1="51.248" y1="190.664" x2="51.248" y2="46.599">
      <stop offset="0" style="stop-color:#cee1ac"/>
      <stop offset=".094" style="stop-color:#c6dc99"/>
      <stop offset=".302" style="stop-color:#b6d270"/>
      <stop offset=".503" style="stop-color:#a9ca4e"/>
      <stop offset=".691" style="stop-color:#9ec536"/>
      <stop offset=".862" style="stop-color:#97c226"/>
      <stop offset="1" style="stop-color:#95c11f"/>
    </linearGradient>
    <path style="clip-path:url(#XMLID_00000103253714111991840000000009271409908617404316_);fill:url(#SVGID_00000016755017349258370410000011347507102698872211_)" d="M0 46.6h102.5v144.06H0z"/>
    <path style="clip-path:url(#XMLID_00000103253714111991840000000009271409908617404316_);fill:#0c3958" d="M10.9 47.73h80v77.98h-80z"/>
    <path class="st0" d="M21.56 129.35h58.88v16.38H21.56z"/>
    <path class="st4" d="M47.64 141.64h-4.98l-.39-.67c.59-1.12 1.31-2.6 2.17-4.45.86-1.84 1.63-3.54 2.31-5.08h.39l1.2.65-4.05 7.8-.6.92 3.94-.21.06-2.93 1.27-.1v2.96l2.12-.1v1.23h-2.12v2.42h-1.33v-2.44zm6.05 1.63c.71 0 1.36-.15 1.95-.43.59-.29 1.06-.69 1.4-1.2s.51-1.09.51-1.74c0-1.61-.75-2.41-2.23-2.41-.33 0-.7.05-1.1.14-.41.1-.76.21-1.06.34l-.4-.29.73-5.4h4.27l.15-.29h.93l-.27 1.54h-3.98l-.69 3.5c.27-.14.61-.26 1.04-.38.42-.11.84-.17 1.26-.17.96 0 1.71.27 2.27.81.55.54.82 1.33.82 2.35 0 .79-.23 1.52-.68 2.19-.46.67-1.1 1.21-1.93 1.6s-1.77.6-2.83.6c-.43 0-.78-.04-1.05-.1v-.72c.27.05.57.06.89.06"/>
    <path class="st5" d="M321.31 210.76v6h-6"/>
    <path class="st40" d="M303.72 216.76h-133.3"/>
    <path class="st5" d="M164.63 216.76h-6v-6"/>
    <path class="st41" d="M158.63 198.05V51.86"/>
    <path class="st5" d="M158.63 45.5v-6h6"/>
    <path class="st40" d="M176.22 39.5h133.3"/>
    <path class="st5" d="M315.31 39.5h6v6"/>
    <path class="st41" d="M321.31 58.22V204.4"/>
    <defs>
      <path id="XMLID_1_" d="m235.04 125.12-1.65-3.45c-5.35-11.14-10.03-20.09-13.96-27.17l-5.67-10.27c-3.11-5.01-6.5-4.66-9.6-4.66h-.65v-3.4c4.84-2.5 8.16-7.55 8.16-13.38 0-8.31-6.74-15.05-15.05-15.05-1.93 0-3.77.36-5.46 1.02a14.8 14.8 0 0 0-3.72 2.11c-.22.13-.45.27-.67.4-4.05 2.43-5.62 8.89-6.03 10.93-2.61 12.82-10.09 12.09-10.09 12.09s1.13.43 9.91 2.56c3.75.91 7.51 1.22 10.6 1.28v1.43h-4.63v.09c-4.25.45-8.19 2.57-10.81 6.01-5.85 7.66-6.9 18.67-7.06 23.49 0 .07-.02.13-.02.19v.49c-.02 1.1 0 1.74 0 1.74v19.58c0 2.62 1.97 4.92 4.59 5.11 2.87.2 5.29-2.09 5.29-4.93v-22c0-.21-.04-.4-.06-.6.52-11.05 4.64-14.48 4.64-14.48v88.52c0 3.68 3.01 6.69 6.69 6.69s6.69-3.01 6.69-6.69l.1-30.43 1.72.01h2.26v30.76c0 3.2 2.36 6.01 5.54 6.32 3.66.36 6.77-2.54 6.77-6.13v-30.95h14.66c2.43 0 3.94-3.18 2.73-5.73l-14.62-30.67-3.31-9c-.18-5.75.25-6.59.25-6.59l13.44 29.08a4.54 4.54 0 0 0 6.03 2.12l.89-.43c2.22-1.06 3.17-3.78 2.1-6.01"/>
    </defs>
    <use xlink:href="#XMLID_1_" style="overflow:visible;fill:#0c3958"/>
    <clipPath id="XMLID_00000119803686730256034880000001138910988753444255_">
      <use xlink:href="#XMLID_1_" style="overflow:visible"/>
    </clipPath>
    <linearGradient id="SVGID_00000150785258690978557870000005715669974789589392_" gradientUnits="userSpaceOnUse" x1="202.294" y1="190.664" x2="202.294" y2="46.599">
      <stop offset="0" style="stop-color:#cee1ac"/>
      <stop offset=".094" style="stop-color:#c6dc99"/>
      <stop offset=".302" style="stop-color:#b6d270"/>
      <stop offset=".503" style="stop-color:#a9ca4e"/>
      <stop offset=".691" style="stop-color:#9ec536"/>
      <stop offset=".862" style="stop-color:#97c226"/>
      <stop offset="1" style="stop-color:#95c11f"/>
    </linearGradient>
    <path style="clip-path:url(#XMLID_00000119803686730256034880000001138910988753444255_);fill:url(#SVGID_00000150785258690978557870000005715669974789589392_)" d="M151.05 46.6h102.5v144.06h-102.5z"/>
    <path style="clip-path:url(#XMLID_00000119803686730256034880000001138910988753444255_);fill:#0c3958" d="M161.52 47.73h73.96v28.35h-73.96z"/>
    <path class="st0" d="M170.62 110.37h58.88v16.38h-58.88z"/>
    <path class="st4" d="M192.05 118.26c.38-.5.96-.93 1.73-1.27-.59-.38-1.05-.78-1.37-1.21s-.48-.96-.48-1.6c0-.59.16-1.1.47-1.52s.73-.75 1.25-.97q.78-.33 1.68-.33c.97 0 1.75.22 2.34.67s.88 1.05.88 1.8c0 .57-.17 1.1-.52 1.58-.35.49-.84.91-1.49 1.27.8.45 1.42.91 1.86 1.37s.66 1.03.66 1.71c0 .61-.18 1.14-.53 1.6s-.83.81-1.42 1.06-1.23.38-1.92.38c-.64 0-1.24-.1-1.81-.3-.56-.2-1.03-.52-1.39-.95-.36-.44-.54-.98-.54-1.64.02-.59.21-1.14.6-1.65m5.12.87c-.21-.27-.47-.51-.79-.71s-.75-.44-1.3-.72q-.42-.21-.63-.33-.705.36-1.14.96c-.435.6-.44.83-.44 1.29 0 .74.22 1.33.65 1.76s1.03.65 1.78.65c.36 0 .71-.08 1.04-.24s.61-.39.82-.69.32-.64.32-1.02c0-.35-.1-.67-.31-.95m-3.53-4.32q.33.42.81.72t1.38.78c.45-.24.81-.54 1.06-.91q.39-.555.39-1.2c0-.66-.18-1.18-.54-1.55-.36-.38-.85-.56-1.46-.56-.55 0-1.02.16-1.4.48-.39.32-.58.75-.58 1.29.01.35.12.67.34.95m8.23 6.65c-.63-.89-.95-2.03-.95-3.43 0-.98.18-1.84.54-2.57.36-.74.85-1.3 1.47-1.69s1.3-.58 2.04-.58c1.3 0 2.25.42 2.85 1.25s.9 1.98.9 3.43c0 .97-.17 1.83-.52 2.57-.34.75-.82 1.32-1.42 1.73-.61.41-1.28.61-2.03.61-1.29.01-2.24-.44-2.88-1.32m5.17-3.44c0-1.3-.17-2.3-.5-3s-.9-1.05-1.69-1.05c-.77 0-1.34.33-1.71 1s-.55 1.62-.55 2.86c0 1.27.18 2.29.53 3.05s.92 1.15 1.69 1.15c1.48-.01 2.23-1.34 2.23-4.01"/>
  </g>
</svg>
