<svg xmlns="http://www.w3.org/2000/svg" xmlns:xlink="http://www.w3.org/1999/xlink" viewBox="0 0 435.04 229.97" xml:space="preserve">
  <style>
    .st0{fill:none}.st1{fill:#0c3958}.st4{fill:#fff}.st39,.st40,.st5{fill:none;stroke:#0c3958;stroke-width:.25;stroke-miterlimit:10}.st39{stroke-dasharray:11.591,11.591}.st40{stroke-dasharray:12.712,12.712}
  </style>
  <g id="Board_4"/>
  <g id="Board_3">
    <g id="Coin_Flip"/>
  </g>
  <g id="Board_3_-_Spanish"/>
  <g id="Board_2"/>
  <g id="Board_2_-_Spanish">
    <g id="comma_to_period"/>
  </g>
  <g id="Board_1">
    <path class="st0" d="M273.33 167.44h58.88v16.38h-58.88z"/>
    <path d="M296.7 177.3c.77-.68 1.38-1.37 1.84-2.09.45-.72.68-1.4.68-2.04 0-.55-.16-.99-.49-1.31s-.8-.49-1.41-.49c-.57 0-1.06.11-1.47.34s-.79.5-1.14.83l-.48-.67c.35-.41.85-.78 1.5-1.12.65-.33 1.34-.5 2.08-.5.7 0 1.29.13 1.77.38.48.26.83.59 1.07 1 .23.41.34.86.34 1.35 0 .99-.48 2.01-1.42 3.05-.95 1.04-2.14 1.98-3.57 2.81l4.65-.35.52-1.29.77.15-.39 2.37h-7.15l-.23-.63c.92-.52 1.76-1.11 2.53-1.79m7.61 1.23c-.63-.89-.95-2.03-.95-3.43 0-.98.18-1.84.54-2.57.36-.74.85-1.3 1.47-1.69s1.3-.58 2.04-.58c1.3 0 2.25.42 2.85 1.25s.9 1.98.9 3.43c0 .97-.17 1.83-.52 2.57s-.82 1.32-1.42 1.73c-.61.41-1.28.61-2.03.61q-1.92.015-2.88-1.32m5.17-3.44c0-1.3-.17-2.3-.5-3s-.9-1.05-1.69-1.05c-.77 0-1.34.33-1.71 1s-.55 1.62-.55 2.86c0 1.27.18 2.29.53 3.05s.92 1.15 1.69 1.15c1.49-.01 2.23-1.34 2.23-4.01" style="fill:#a2c617"/>
    <path style="fill:none;stroke:#da671d;stroke-width:.5;stroke-miterlimit:10" d="M425.57 118.56H164.79"/>
    <defs>
      <path id="XMLID_3_" d="m314.31 125.07-1.65-3.45c-5.35-11.14-10.03-20.09-13.96-27.17l-5.67-10.27c-3.11-5.01-6.5-4.66-9.6-4.66h-.65v-3.4c4.84-2.5 8.16-7.55 8.16-13.38 0-8.31-6.74-15.05-15.05-15.05-1.93 0-3.77.36-5.46 1.02a14.8 14.8 0 0 0-3.72 2.11c-.22.13-.45.27-.67.4-4.05 2.43-5.62 8.89-6.03 10.93-2.61 12.82-10.09 12.09-10.09 12.09s1.13.43 9.91 2.56c3.75.91 7.51 1.22 10.6 1.28v1.43h-4.63v.09c-4.25.45-8.19 2.57-10.81 6.01-5.85 7.66-6.9 18.67-7.06 23.49 0 .07-.02.13-.02.19v.49c-.02 1.1 0 1.74 0 1.74v19.58c0 2.62 1.97 4.92 4.59 5.11 2.87.2 5.29-2.09 5.29-4.93v-22c0-.21-.04-.4-.06-.6.52-11.05 4.64-14.48 4.64-14.48v88.52c0 3.68 3.01 6.69 6.69 6.69s6.69-3.01 6.69-6.69l.1-30.43 1.72.01h2.26v30.76c0 3.2 2.36 6.01 5.54 6.32 3.66.36 6.77-2.54 6.77-6.13V152.3h14.66c2.43 0 3.94-3.18 2.73-5.73l-14.62-30.67-3.31-9c-.18-5.75.25-6.59.25-6.59l13.44 29.08a4.54 4.54 0 0 0 6.03 2.12l.89-.43c2.22-1.06 3.17-3.77 2.1-6.01"/>
    </defs>
    <use xlink:href="#XMLID_3_" style="overflow:visible;fill:#0c3958"/>
    <clipPath id="XMLID_00000124857311941685198340000012992044058239251893_">
      <use xlink:href="#XMLID_3_" style="overflow:visible"/>
    </clipPath>
    <linearGradient id="SVGID_1_" gradientUnits="userSpaceOnUse" x1="281.561" y1="190.62" x2="281.561" y2="46.555">
      <stop offset="0" style="stop-color:#cee1ac"/>
      <stop offset=".094" style="stop-color:#c6dc99"/>
      <stop offset=".302" style="stop-color:#b6d270"/>
      <stop offset=".503" style="stop-color:#a9ca4e"/>
      <stop offset=".691" style="stop-color:#9ec536"/>
      <stop offset=".862" style="stop-color:#97c226"/>
      <stop offset="1" style="stop-color:#95c11f"/>
    </linearGradient>
    <path style="clip-path:url(#XMLID_00000124857311941685198340000012992044058239251893_);fill:url(#SVGID_1_)" d="M230.31 46.56h102.5v144.06h-102.5z"/>
    <path style="clip-path:url(#XMLID_00000124857311941685198340000012992044058239251893_);fill:#0c3958" d="M240.35 47.69h73.96v113.39h-73.96z"/>
    <defs>
      <path id="XMLID_2_" d="m83.99 125.12-1.65-3.45c-5.35-11.14-10.03-20.09-13.96-27.17l-5.67-10.27c-3.11-5.01-6.5-4.66-9.6-4.66h-.65v-3.4c4.84-2.5 8.16-7.55 8.16-13.38 0-8.31-6.74-15.05-15.05-15.05-1.93 0-3.77.36-5.46 1.02a14.8 14.8 0 0 0-3.72 2.11c-.22.13-.45.27-.67.4-4.05 2.43-5.62 8.89-6.03 10.93C27.08 75.02 19.6 74.29 19.6 74.29s1.13.43 9.91 2.56c3.75.91 7.51 1.22 10.6 1.28v1.43h-4.63v.09c-4.25.45-8.19 2.57-10.81 6.01-5.85 7.66-6.9 18.67-7.06 23.49 0 .07-.02.13-.02.19v.49c-.02 1.1 0 1.74 0 1.74v19.58c0 2.62 1.97 4.92 4.59 5.11 2.87.2 5.29-2.09 5.29-4.93v-22c0-.21-.04-.4-.06-.6.52-11.05 4.64-14.48 4.64-14.48v88.52c0 3.68 3.01 6.69 6.69 6.69s6.69-3.01 6.69-6.69l.1-30.43 1.72.01h2.26v30.76c0 3.2 2.36 6.01 5.54 6.32 3.66.36 6.77-2.54 6.77-6.13v-30.95h14.66c2.43 0 3.94-3.18 2.73-5.73l-14.62-30.67-3.31-9c-.18-5.75.25-6.59.25-6.59l13.44 29.08a4.54 4.54 0 0 0 6.03 2.12l.89-.43c2.23-1.06 3.18-3.78 2.1-6.01"/>
    </defs>
    <use xlink:href="#XMLID_2_" style="overflow:visible;fill:#0c3958"/>
    <clipPath id="XMLID_00000147939679543390461900000012734086340149857414_">
      <use xlink:href="#XMLID_2_" style="overflow:visible"/>
    </clipPath>
    <linearGradient id="SVGID_00000061466390972221451660000011889078931443029681_" gradientUnits="userSpaceOnUse" x1="51.248" y1="190.664" x2="51.248" y2="46.599">
      <stop offset="0" style="stop-color:#cee1ac"/>
      <stop offset=".094" style="stop-color:#c6dc99"/>
      <stop offset=".302" style="stop-color:#b6d270"/>
      <stop offset=".503" style="stop-color:#a9ca4e"/>
      <stop offset=".691" style="stop-color:#9ec536"/>
      <stop offset=".862" style="stop-color:#97c226"/>
      <stop offset="1" style="stop-color:#95c11f"/>
    </linearGradient>
    <path style="clip-path:url(#XMLID_00000147939679543390461900000012734086340149857414_);fill:url(#SVGID_00000061466390972221451660000011889078931443029681_)" d="M0 46.6h102.5v144.06H0z"/>
    <path style="clip-path:url(#XMLID_00000147939679543390461900000012734086340149857414_);fill:#0c3958" d="M10.9 47.73h80v77.98h-80z"/>
    <path class="st0" d="M21.56 129.35h58.88v16.38H21.56z"/>
    <path class="st4" d="M47.64 141.64h-4.98l-.39-.67c.59-1.12 1.31-2.6 2.17-4.45.86-1.84 1.63-3.54 2.31-5.08h.39l1.2.65-4.05 7.8-.6.92 3.94-.21.06-2.93 1.27-.1v2.96l2.12-.1v1.23h-2.12v2.42h-1.33v-2.44zm6.05 1.63c.71 0 1.36-.15 1.95-.43.59-.29 1.06-.69 1.4-1.2s.51-1.09.51-1.74c0-1.61-.75-2.41-2.23-2.41-.33 0-.7.05-1.1.14-.41.1-.76.21-1.06.34l-.4-.29.73-5.4h4.27l.15-.29h.93l-.27 1.54h-3.98l-.69 3.5c.27-.14.61-.26 1.04-.38.42-.11.84-.17 1.26-.17.96 0 1.71.27 2.27.81.55.54.82 1.33.82 2.35 0 .79-.23 1.52-.68 2.19-.46.67-1.1 1.21-1.93 1.6s-1.77.6-2.83.6c-.43 0-.78-.04-1.05-.1v-.72c.27.05.57.06.89.06"/>
    <path class="st5" d="M321.31 210.76v6h-6"/>
    <path class="st39" d="M303.72 216.76h-133.3"/>
    <path class="st5" d="M164.63 216.76h-6v-6"/>
    <path class="st40" d="M158.63 198.05V51.86"/>
    <path class="st5" d="M158.63 45.5v-6h6"/>
    <path class="st39" d="M176.22 39.5h133.3"/>
    <path class="st5" d="M315.31 39.5h6v6"/>
    <path class="st40" d="M321.31 58.22V204.4"/>
    <defs>
      <path id="XMLID_1_" d="m235.04 125.12-1.65-3.45c-5.35-11.14-10.03-20.09-13.96-27.17l-5.67-10.27c-3.11-5.01-6.5-4.66-9.6-4.66h-.65v-3.4c4.84-2.5 8.16-7.55 8.16-13.38 0-8.31-6.74-15.05-15.05-15.05-1.93 0-3.77.36-5.46 1.02a14.8 14.8 0 0 0-3.72 2.11c-.22.13-.45.27-.67.4-4.05 2.43-5.62 8.89-6.03 10.93-2.61 12.82-10.09 12.09-10.09 12.09s1.13.43 9.91 2.56c3.75.91 7.51 1.22 10.6 1.28v1.43h-4.63v.09c-4.25.45-8.19 2.57-10.81 6.01-5.85 7.66-6.9 18.67-7.06 23.49 0 .07-.02.13-.02.19v.49c-.02 1.1 0 1.74 0 1.74v19.58c0 2.62 1.97 4.92 4.59 5.11 2.87.2 5.29-2.09 5.29-4.93v-22c0-.21-.04-.4-.06-.6.52-11.05 4.64-14.48 4.64-14.48v88.52c0 3.68 3.01 6.69 6.69 6.69s6.69-3.01 6.69-6.69l.1-30.43 1.72.01h2.26v30.76c0 3.2 2.36 6.01 5.54 6.32 3.66.36 6.77-2.54 6.77-6.13v-30.95h14.66c2.43 0 3.94-3.18 2.73-5.73l-14.62-30.67-3.31-9c-.18-5.75.25-6.59.25-6.59l13.44 29.08a4.54 4.54 0 0 0 6.03 2.12l.89-.43c2.22-1.06 3.17-3.78 2.1-6.01"/>
    </defs>
    <use xlink:href="#XMLID_1_" style="overflow:visible;fill:#0c3958"/>
    <clipPath id="XMLID_00000074401705199772598270000001456208058511464880_">
      <use xlink:href="#XMLID_1_" style="overflow:visible"/>
    </clipPath>
    <linearGradient id="SVGID_00000106836414926969343610000013556473905369024394_" gradientUnits="userSpaceOnUse" x1="202.294" y1="190.664" x2="202.294" y2="46.599">
      <stop offset="0" style="stop-color:#cee1ac"/>
      <stop offset=".094" style="stop-color:#c6dc99"/>
      <stop offset=".302" style="stop-color:#b6d270"/>
      <stop offset=".503" style="stop-color:#a9ca4e"/>
      <stop offset=".691" style="stop-color:#9ec536"/>
      <stop offset=".862" style="stop-color:#97c226"/>
      <stop offset="1" style="stop-color:#95c11f"/>
    </linearGradient>
    <path style="clip-path:url(#XMLID_00000074401705199772598270000001456208058511464880_);fill:url(#SVGID_00000106836414926969343610000013556473905369024394_)" d="M151.05 46.6h102.5v144.06h-102.5z"/>
    <path style="clip-path:url(#XMLID_00000074401705199772598270000001456208058511464880_);fill:#0c3958" d="M161.52 47.73h73.96v28.35h-73.96z"/>
    <path class="st0" d="M170.62 110.37h58.88v16.38h-58.88z"/>
    <path class="st4" d="M192.05 118.26c.38-.5.96-.93 1.73-1.27-.59-.38-1.05-.78-1.37-1.21s-.48-.96-.48-1.6c0-.59.16-1.1.47-1.52s.73-.75 1.25-.97q.78-.33 1.68-.33c.97 0 1.75.22 2.34.67s.88 1.05.88 1.8c0 .57-.17 1.1-.52 1.58-.35.49-.84.91-1.49 1.27.8.45 1.42.91 1.86 1.37s.66 1.03.66 1.71c0 .61-.18 1.14-.53 1.6s-.83.81-1.42 1.06-1.23.38-1.92.38c-.64 0-1.24-.1-1.81-.3-.56-.2-1.03-.52-1.39-.95-.36-.44-.54-.98-.54-1.64.02-.59.21-1.14.6-1.65m5.12.87c-.21-.27-.47-.51-.79-.71s-.75-.44-1.3-.72q-.42-.21-.63-.33-.705.36-1.14.96c-.435.6-.44.83-.44 1.29 0 .74.22 1.33.65 1.76s1.03.65 1.78.65c.36 0 .71-.08 1.04-.24s.61-.39.82-.69.32-.64.32-1.02c0-.35-.1-.67-.31-.95m-3.53-4.32q.33.42.81.72t1.38.78c.45-.24.81-.54 1.06-.91q.39-.555.39-1.2c0-.66-.18-1.18-.54-1.55-.36-.38-.85-.56-1.46-.56-.55 0-1.02.16-1.4.48-.39.32-.58.75-.58 1.29.01.35.12.67.34.95m8.23 6.65c-.63-.89-.95-2.03-.95-3.43 0-.98.18-1.84.54-2.57.36-.74.85-1.3 1.47-1.69s1.3-.58 2.04-.58c1.3 0 2.25.42 2.85 1.25s.9 1.98.9 3.43c0 .97-.17 1.83-.52 2.57-.34.75-.82 1.32-1.42 1.73-.61.41-1.28.61-2.03.61-1.29.01-2.24-.44-2.88-1.32m5.17-3.44c0-1.3-.17-2.3-.5-3s-.9-1.05-1.69-1.05c-.77 0-1.34.33-1.71 1s-.55 1.62-.55 2.86c0 1.27.18 2.29.53 3.05s.92 1.15 1.69 1.15c1.48-.01 2.23-1.34 2.23-4.01"/>
  </g>
  <g id="Board_1_-_Spanish">
    <path class="st0" d="M152.08 197.77h91.96v29.66h-91.96z"/>
    <path class="st1" d="M166.65 207.05c.47 0 .91-.1 1.3-.29s.7-.46.93-.8.34-.73.34-1.16c0-1.07-.5-1.61-1.49-1.61-.22 0-.47.03-.74.1-.27.06-.5.14-.7.22l-.27-.19.49-3.6h2.85l.1-.19h.62l-.18 1.03h-2.65l-.46 2.33c.18-.09.41-.18.69-.25s.56-.11.84-.11c.64 0 1.14.18 1.51.54s.55.88.55 1.57c0 .53-.15 1.01-.46 1.46-.3.45-.73.8-1.29 1.07-.55.27-1.18.4-1.89.4-.29 0-.52-.02-.7-.07v-.48c.2.02.4.03.61.03m5.66-1.88c-.42-.59-.63-1.35-.63-2.29 0-.65.12-1.23.36-1.71.24-.49.57-.87.98-1.12.41-.26.87-.39 1.36-.39.87 0 1.5.28 1.9.83.4.56.6 1.32.6 2.29 0 .65-.11 1.22-.34 1.71s-.55.88-.95 1.16-.85.41-1.35.41c-.87-.01-1.51-.31-1.93-.89m3.44-2.3c0-.87-.11-1.53-.33-2s-.6-.7-1.12-.7c-.51 0-.89.22-1.14.67s-.37 1.08-.37 1.9c0 .85.12 1.53.35 2.04.24.51.61.77 1.12.77 1-.01 1.49-.9 1.49-2.68m2.99 2.3c-.42-.59-.63-1.35-.63-2.29 0-.65.12-1.23.36-1.71.24-.49.57-.87.98-1.12.41-.26.87-.39 1.36-.39.87 0 1.5.28 1.9.83.4.56.6 1.32.6 2.29 0 .65-.11 1.22-.34 1.71s-.55.88-.95 1.16-.85.41-1.35.41c-.87-.01-1.51-.31-1.93-.89m3.44-2.3c0-.87-.11-1.53-.33-2s-.6-.7-1.12-.7c-.51 0-.89.22-1.14.67s-.37 1.08-.37 1.9c0 .85.12 1.53.35 2.04.24.51.61.77 1.12.77 1-.01 1.49-.9 1.49-2.68m9.61 1.67c-.23.47-.57.84-1 1.12-.43.27-.94.41-1.52.41-.16 0-.33-.01-.52-.04s-.34-.06-.45-.1l.03.84v1.01l1.04.11v.49h-2.79v-.49l.72-.11v-6.6l-.73-.18v-.54l1.42-.18h.02l.21.18v.59c.2-.22.45-.41.75-.56s.63-.23 1-.23c.39 0 .75.1 1.08.29s.59.49.79.9.3.92.3 1.54c0 .57-.11 1.09-.35 1.55m-2.95-3.42c-.22.11-.39.22-.51.35v3.77c.05.08.17.15.35.22.19.06.4.09.62.09.51 0 .93-.2 1.25-.61s.48-1.02.48-1.84c0-.72-.14-1.26-.42-1.61s-.63-.53-1.06-.53c-.25 0-.49.05-.71.16m4.79 4.16c-.42-.53-.63-1.23-.63-2.11q0-.87.33-1.53t.93-1.02 1.35-.36c.62 0 1.1.17 1.44.52s.52.83.54 1.48c0 .41-.02.72-.07.93h-3.44c.01.66.17 1.19.46 1.59s.71.6 1.25.6c.27 0 .54-.05.83-.15s.52-.21.68-.34l.19.44c-.19.2-.48.37-.86.52s-.77.22-1.16.22c-.8 0-1.42-.26-1.84-.79m2.86-2.63c.02-.14.03-.28.03-.43q-.015-.645-.27-1.02c-.18-.25-.46-.38-.83-.38q-.585 0-.93.42c-.23.28-.36.75-.4 1.41zm1.98 2.82.75-.06v-4.23l-.72-.18v-.54l1.38-.18h.02l.22.18v.18l-.03.78h.03c.07-.11.19-.26.36-.44s.4-.35.67-.5.57-.23.89-.23c.13 0 .24.02.33.05v1.12a1 1 0 0 0-.23-.1c-.1-.03-.22-.04-.35-.04-.55 0-1.07.17-1.54.51v3.6l1.27.08v.48h-3.06v-.48zm5.49-.31c.07.1.21.19.43.27s.44.12.69.12c.38 0 .66-.07.84-.22s.27-.35.27-.61c0-.18-.06-.34-.17-.47s-.27-.25-.48-.35c-.2-.1-.5-.23-.88-.38-.51-.19-.89-.43-1.12-.69-.24-.27-.35-.62-.35-1.07 0-.29.09-.55.27-.77s.42-.39.73-.51.65-.19 1.03-.19c.31 0 .58.02.81.07s.42.09.56.14.23.08.28.09v1.24h-.61l-.2-.74c-.04-.08-.15-.15-.32-.21a1.8 1.8 0 0 0-.58-.08c-.3 0-.54.07-.73.2a.63.63 0 0 0-.27.54c0 .2.05.36.15.5.1.13.22.23.36.31.15.08.35.17.6.28l.2.08c.37.15.68.29.91.42s.43.31.59.52c.16.22.23.48.23.8 0 .49-.19.89-.58 1.18-.38.29-.91.44-1.57.44-.33 0-.67-.04-1.03-.13s-.65-.18-.88-.27v-1.28h.65zm4.49-3.55c.25-.44.57-.77.98-1s.83-.35 1.29-.35c.84 0 1.47.27 1.9.8s.64 1.23.64 2.1c0 .61-.12 1.13-.37 1.57s-.57.77-.98 1-.83.34-1.29.34c-.84 0-1.47-.27-1.9-.8s-.63-1.23-.63-2.1c-.01-.6.12-1.12.36-1.56m3.28 3.32c.25-.38.37-.94.37-1.69 0-.74-.11-1.33-.34-1.76s-.59-.65-1.09-.65c-.46 0-.81.19-1.06.57s-.38.94-.38 1.69c0 .74.12 1.33.35 1.76s.6.65 1.09.65c.46 0 .82-.19 1.06-.57m3.03-3.75-.72-.18v-.54l1.43-.18h.03l.21.18v.42l-.01.24c.24-.21.56-.41.95-.58s.77-.26 1.13-.26c.42 0 .75.08.98.24s.39.4.48.73.14.77.14 1.33v2.8l.7.07v.5h-2.37v-.49l.62-.08v-2.81c0-.39-.03-.7-.08-.93-.05-.22-.15-.39-.3-.5s-.36-.17-.64-.17c-.24 0-.5.06-.77.18s-.52.26-.73.42v3.79l.68.09v.49h-2.36v-.49l.63-.09zm6.98 1.9c.63-.3 1.42-.46 2.38-.48v-.28c0-.31-.03-.56-.1-.74a.75.75 0 0 0-.34-.4c-.16-.08-.4-.12-.7-.12-.34 0-.65.05-.92.15s-.54.21-.8.35l-.25-.52c.09-.07.25-.17.48-.29s.5-.23.81-.32.61-.14.92-.14c.47 0 .85.06 1.12.19.28.13.48.34.59.62.12.29.18.67.18 1.15v3.21h.59v.44c-.13.03-.3.07-.5.1s-.38.05-.54.05c-.19 0-.31-.03-.38-.08-.07-.06-.1-.18-.1-.38v-.33c-.2.2-.44.38-.73.55s-.62.25-.98.25q-.72 0-1.2-.42c-.32-.28-.47-.67-.47-1.19 0-.62.31-1.08.94-1.37m1.76 2.15c.23-.11.43-.23.62-.38v-1.72c-.73 0-1.27.11-1.65.33-.37.22-.56.52-.56.88s.09.62.27.79.42.26.71.26c.18 0 .39-.05.61-.16m3.84-.07c.07.1.21.19.43.27s.44.12.69.12c.38 0 .66-.07.84-.22s.27-.35.27-.61c0-.18-.06-.34-.17-.47s-.27-.25-.48-.35c-.2-.1-.5-.23-.88-.38-.51-.19-.89-.43-1.12-.69-.24-.27-.35-.62-.35-1.07 0-.29.09-.55.27-.77s.42-.39.73-.51.65-.19 1.03-.19c.31 0 .58.02.81.07s.42.09.56.14.23.08.28.09v1.24h-.61l-.2-.74c-.04-.08-.15-.15-.32-.21a1.8 1.8 0 0 0-.58-.08c-.3 0-.54.07-.73.2a.63.63 0 0 0-.27.54c0 .2.05.36.15.5.1.13.22.23.36.31.15.08.35.17.6.28l.2.08c.37.15.68.29.91.42s.43.31.59.52c.16.22.23.48.23.8 0 .49-.19.89-.58 1.18-.38.29-.91.44-1.57.44-.33 0-.67-.04-1.03-.13s-.65-.18-.88-.27v-1.28h.65z"/>
    <path class="st0" d="M2.82 197.77h96.36v14.83H2.82z"/>
    <path class="st1" d="M15.82 200.8c-.14.05-.36.12-.66.19s-.54.12-.73.15l-.1-.56c.34-.07.69-.2 1.04-.37.36-.17.65-.36.9-.57h.01l.61.1v5.64l1.24.09v.49h-3.6v-.49l1.29-.09zm4.8 3.99c.15.22.22.51.22.88 0 .38-.06.75-.18 1.1q-.18.525-.45.9c-.18.25-.36.43-.53.53h-.01l-.34-.24v-.11c.13-.11.27-.34.4-.7.14-.36.21-.69.21-1.01 0-.1-.02-.18-.06-.25s-.09-.14-.17-.23c-.09-.1-.16-.19-.21-.28a.7.7 0 0 1-.07-.35.565.565 0 0 1 .59-.58h.05c.21.01.4.12.55.34m2.32.38c-.42-.59-.63-1.35-.63-2.29 0-.65.12-1.23.36-1.71.24-.49.57-.87.98-1.12.41-.26.87-.39 1.36-.39.87 0 1.5.28 1.9.83.4.56.6 1.32.6 2.29 0 .65-.11 1.22-.34 1.71s-.55.88-.95 1.16-.85.41-1.35.41c-.87-.01-1.51-.31-1.93-.89m3.45-2.3c0-.87-.11-1.53-.33-2s-.6-.7-1.12-.7c-.51 0-.89.22-1.14.67s-.37 1.08-.37 1.9c0 .85.12 1.53.35 2.04.24.51.61.77 1.12.77.99-.01 1.49-.9 1.49-2.68m2.98 2.3c-.42-.59-.63-1.35-.63-2.29 0-.65.12-1.23.36-1.71.24-.49.57-.87.98-1.12.41-.26.87-.39 1.36-.39.87 0 1.5.28 1.9.83.4.56.6 1.32.6 2.29 0 .65-.11 1.22-.34 1.71s-.55.88-.95 1.16-.85.41-1.35.41c-.87-.01-1.51-.31-1.93-.89m3.45-2.3c0-.87-.11-1.53-.33-2s-.6-.7-1.13-.7c-.51 0-.89.22-1.14.67s-.37 1.08-.37 1.9c0 .85.12 1.53.35 2.04.24.51.61.77 1.12.77 1-.01 1.5-.9 1.5-2.68m2.98 2.3c-.42-.59-.63-1.35-.63-2.29 0-.65.12-1.23.36-1.71.24-.49.57-.87.98-1.12.41-.26.87-.39 1.36-.39.87 0 1.5.28 1.9.83.4.56.6 1.32.6 2.29 0 .65-.11 1.22-.34 1.71s-.55.88-.95 1.16-.85.41-1.35.41c-.87-.01-1.51-.31-1.93-.89m3.45-2.3c0-.87-.11-1.53-.33-2s-.6-.7-1.12-.7c-.51 0-.89.22-1.14.67s-.37 1.08-.37 1.9c0 .85.12 1.53.35 2.04.24.51.61.77 1.12.77.99-.01 1.49-.9 1.49-2.68m9.6 1.67c-.23.47-.57.84-1 1.12-.43.27-.94.41-1.52.41-.16 0-.33-.01-.52-.04s-.34-.06-.45-.1l.03.84v1.01l1.04.11v.49h-2.79v-.49l.72-.11v-6.6l-.73-.18v-.54l1.42-.18h.02l.21.18v.59c.2-.22.45-.41.75-.56s.63-.23 1-.23c.39 0 .75.1 1.08.29s.59.49.79.9.3.92.3 1.54c0 .57-.11 1.09-.35 1.55m-2.95-3.42c-.22.11-.39.22-.51.35v3.77c.05.08.17.15.35.22.19.06.4.09.62.09.51 0 .93-.2 1.25-.61s.48-1.02.48-1.84c0-.72-.14-1.26-.42-1.61s-.63-.53-1.06-.53c-.25 0-.49.05-.71.16m4.79 4.16c-.42-.53-.63-1.23-.63-2.11q0-.87.33-1.53t.93-1.02 1.35-.36c.62 0 1.1.17 1.44.52s.52.83.54 1.48c0 .41-.02.72-.07.93h-3.44c.01.66.17 1.19.46 1.59s.71.6 1.25.6c.27 0 .54-.05.83-.15s.52-.21.68-.34l.19.44c-.19.2-.48.37-.86.52s-.77.22-1.16.22c-.8 0-1.42-.26-1.84-.79m2.86-2.63c.02-.14.03-.28.03-.43q-.015-.645-.27-1.02c-.18-.25-.46-.38-.83-.38q-.585 0-.93.42c-.23.28-.36.75-.4 1.41zm1.98 2.82.75-.06v-4.23l-.72-.18v-.54l1.38-.18h.02l.22.18v.18l-.03.78h.03c.07-.11.19-.26.36-.44s.4-.35.67-.5.57-.23.89-.23c.13 0 .24.02.33.05v1.12a1 1 0 0 0-.23-.1c-.1-.03-.22-.04-.35-.04-.55 0-1.07.17-1.54.51v3.6l1.27.08v.48h-3.06v-.48zm5.49-.31c.07.1.21.19.43.27s.44.12.69.12c.38 0 .66-.07.84-.22s.27-.35.27-.61c0-.18-.06-.34-.17-.47s-.27-.25-.48-.35c-.2-.1-.5-.23-.88-.38-.51-.19-.89-.43-1.12-.69-.24-.27-.35-.62-.35-1.07 0-.29.09-.55.27-.77s.42-.39.73-.51.65-.19 1.03-.19c.31 0 .58.02.81.07s.42.09.56.14.23.08.28.09v1.24h-.63l-.2-.74c-.04-.08-.15-.15-.32-.21a1.8 1.8 0 0 0-.58-.08c-.3 0-.54.07-.73.2a.63.63 0 0 0-.27.54c0 .2.05.36.15.5.1.13.22.23.36.31.15.08.35.17.6.28l.2.08c.37.15.68.29.91.42s.43.31.59.52c.16.22.23.48.23.8 0 .49-.19.89-.58 1.18-.38.29-.91.44-1.57.44-.33 0-.67-.04-1.03-.13s-.65-.18-.88-.27v-1.28h.65zm4.49-3.55c.25-.44.57-.77.98-1s.83-.35 1.29-.35c.84 0 1.47.27 1.9.8s.64 1.23.64 2.1c0 .61-.12 1.13-.37 1.57s-.57.77-.98 1-.83.34-1.29.34c-.84 0-1.47-.27-1.9-.8s-.63-1.23-.63-2.1c-.01-.6.12-1.12.36-1.56m3.28 3.32c.25-.38.37-.94.37-1.69 0-.74-.11-1.33-.34-1.76s-.59-.65-1.09-.65c-.46 0-.81.19-1.06.57s-.38.94-.38 1.69c0 .74.12 1.33.35 1.76s.6.65 1.09.65c.46 0 .82-.19 1.06-.57m3.03-3.75-.72-.18v-.54l1.43-.18h.03l.21.18v.42l-.01.24c.24-.21.56-.41.95-.58s.77-.26 1.13-.26c.42 0 .75.08.98.24s.39.4.48.73.14.77.14 1.33v2.8l.7.07v.5h-2.37v-.49l.62-.08v-2.81c0-.39-.03-.7-.08-.93-.05-.22-.15-.39-.3-.5s-.36-.17-.64-.17c-.24 0-.5.06-.77.18s-.52.26-.73.42v3.79l.68.09v.49h-2.36v-.49l.63-.09zm6.98 1.9c.63-.3 1.42-.46 2.38-.48v-.28c0-.31-.03-.56-.1-.74a.75.75 0 0 0-.34-.4c-.16-.08-.4-.12-.7-.12-.34 0-.65.05-.92.15s-.54.21-.8.35l-.25-.52c.09-.07.25-.17.48-.29s.5-.23.81-.32.61-.14.92-.14c.47 0 .85.06 1.12.19.28.13.48.34.59.62.12.29.18.67.18 1.15v3.21h.59v.44c-.13.03-.3.07-.5.1s-.38.05-.54.05c-.19 0-.31-.03-.38-.08-.07-.06-.1-.18-.1-.38v-.33c-.2.2-.44.38-.73.55s-.62.25-.98.25q-.72 0-1.2-.42c-.32-.28-.47-.67-.47-1.19 0-.62.32-1.08.94-1.37m1.76 2.15c.23-.11.43-.23.62-.38v-1.72c-.73 0-1.27.11-1.65.33-.37.22-.56.52-.56.88s.09.62.27.79.42.26.71.26c.19 0 .39-.05.61-.16m3.84-.07c.07.1.21.19.43.27s.44.12.69.12c.38 0 .66-.07.84-.22s.27-.35.27-.61c0-.18-.06-.34-.17-.47s-.27-.25-.48-.35c-.2-.1-.5-.23-.88-.38-.51-.19-.89-.43-1.12-.69-.24-.27-.35-.62-.35-1.07 0-.29.09-.55.27-.77s.42-.39.73-.51.65-.19 1.03-.19c.31 0 .58.02.81.07s.42.09.56.14.23.08.28.09v1.24h-.61l-.2-.74c-.04-.08-.15-.15-.32-.21a1.8 1.8 0 0 0-.58-.08c-.3 0-.54.07-.73.2a.63.63 0 0 0-.27.54c0 .2.05.36.15.5.1.13.22.23.36.31.15.08.35.17.6.28l.2.08c.37.15.68.29.91.42s.43.31.59.52c.16.22.23.48.23.8 0 .49-.19.89-.58 1.18-.38.29-.91.44-1.57.44-.33 0-.67-.04-1.03-.13s-.65-.18-.88-.27v-1.28h.65z"/>
    <path class="st0" d="M230.41 197.77h93.83v29.66h-93.83z"/>
    <path class="st1" d="M245.92 207.05c.47 0 .91-.1 1.3-.29s.7-.46.93-.8.34-.73.34-1.16c0-1.07-.5-1.61-1.49-1.61-.22 0-.47.03-.74.1-.27.06-.5.14-.7.22l-.27-.19.49-3.6h2.85l.1-.19h.62l-.18 1.03h-2.65l-.46 2.33c.18-.09.41-.18.69-.25s.56-.11.84-.11c.64 0 1.14.18 1.51.54s.55.88.55 1.57c0 .53-.15 1.01-.46 1.46-.3.45-.73.8-1.29 1.07-.55.27-1.18.4-1.89.4-.29 0-.52-.02-.7-.07v-.48c.2.02.4.03.61.03m5.65-1.88c-.42-.59-.63-1.35-.63-2.29 0-.65.12-1.23.36-1.71.24-.49.57-.87.98-1.12.41-.26.87-.39 1.36-.39.87 0 1.5.28 1.9.83.4.56.6 1.32.6 2.29 0 .65-.11 1.22-.34 1.71-.23.5-.55.88-.95 1.16s-.85.41-1.35.41c-.86-.01-1.5-.31-1.93-.89m3.45-2.3c0-.87-.11-1.53-.33-2s-.6-.7-1.12-.7c-.51 0-.89.22-1.14.67s-.37 1.08-.37 1.9c0 .85.12 1.53.35 2.04.24.51.61.77 1.12.77.99-.01 1.49-.9 1.49-2.68m2.98 2.3c-.42-.59-.63-1.35-.63-2.29 0-.65.12-1.23.36-1.71.24-.49.57-.87.98-1.12.41-.26.87-.39 1.36-.39.87 0 1.5.28 1.9.83.4.56.6 1.32.6 2.29 0 .65-.11 1.22-.34 1.71s-.55.88-.95 1.16-.85.41-1.35.41c-.86-.01-1.5-.31-1.93-.89m3.45-2.3c0-.87-.11-1.53-.33-2s-.6-.7-1.12-.7c-.51 0-.89.22-1.14.67s-.37 1.08-.37 1.9c0 .85.12 1.53.35 2.04.24.51.61.77 1.12.77.99-.01 1.49-.9 1.49-2.68m9.61 1.67c-.23.47-.57.84-1 1.12-.43.27-.94.41-1.52.41-.16 0-.33-.01-.52-.04s-.34-.06-.45-.1l.03.84v1.01l1.04.11v.49h-2.79v-.49l.72-.11v-6.6l-.73-.18v-.54l1.42-.18h.02l.21.18v.59c.2-.22.45-.41.75-.56s.63-.23 1-.23c.39 0 .75.1 1.08.29s.59.49.79.9.3.92.3 1.54c0 .57-.12 1.09-.35 1.55m-2.95-3.42c-.22.11-.39.22-.51.35v3.77c.05.08.17.15.35.22.19.06.4.09.62.09.51 0 .93-.2 1.25-.61s.48-1.02.48-1.84c0-.72-.14-1.26-.42-1.61s-.63-.53-1.06-.53c-.25 0-.49.05-.71.16m4.78 4.16c-.42-.53-.63-1.23-.63-2.11q0-.87.33-1.53t.93-1.02 1.35-.36c.62 0 1.1.17 1.44.52s.52.83.54 1.48c0 .41-.02.72-.07.93h-3.44c.01.66.17 1.19.46 1.59s.71.6 1.25.6c.27 0 .54-.05.83-.15s.52-.21.68-.34l.19.44c-.19.2-.48.37-.86.52s-.77.22-1.16.22c-.8 0-1.41-.26-1.84-.79m2.87-2.63c.02-.14.03-.28.03-.43q-.015-.645-.27-1.02c-.18-.25-.46-.38-.83-.38q-.585 0-.93.42c-.23.28-.36.75-.4 1.41zm1.98 2.82.75-.06v-4.23l-.72-.18v-.54l1.38-.18h.02l.22.18v.18l-.03.78h.03c.07-.11.19-.26.36-.44s.4-.35.67-.5.57-.23.89-.23c.13 0 .24.02.33.05v1.12a1 1 0 0 0-.23-.1c-.1-.03-.22-.04-.35-.04-.55 0-1.07.17-1.54.51v3.6l1.27.08v.48h-3.06v-.48zm5.49-.31c.07.1.21.19.43.27s.44.12.69.12c.38 0 .66-.07.84-.22s.27-.35.27-.61c0-.18-.06-.34-.17-.47s-.27-.25-.48-.35c-.2-.1-.5-.23-.88-.38-.51-.19-.89-.43-1.12-.69-.24-.27-.35-.62-.35-1.07 0-.29.09-.55.27-.77s.42-.39.73-.51.65-.19 1.03-.19c.31 0 .58.02.81.07s.42.09.56.14.23.08.28.09v1.24h-.61l-.2-.74c-.04-.08-.15-.15-.32-.21a1.8 1.8 0 0 0-.58-.08c-.3 0-.54.07-.73.2a.63.63 0 0 0-.27.54c0 .2.05.36.15.5.1.13.22.23.36.31.15.08.35.17.6.28l.2.08c.37.15.68.29.91.42s.43.31.59.52c.16.22.24.48.24.8 0 .49-.19.89-.58 1.18-.38.29-.91.44-1.57.44-.33 0-.67-.04-1.03-.13s-.65-.18-.88-.27v-1.28h.65zm4.49-3.55c.25-.44.57-.77.97-1s.83-.35 1.29-.35c.84 0 1.47.27 1.9.8q.63.795.63 2.1c0 .61-.12 1.13-.37 1.57s-.57.77-.97 1-.83.34-1.29.34c-.84 0-1.47-.27-1.9-.8q-.63-.795-.63-2.1c0-.6.12-1.12.37-1.56m3.28 3.32c.25-.38.37-.94.37-1.69 0-.74-.11-1.33-.34-1.76s-.59-.65-1.09-.65c-.46 0-.81.19-1.06.57s-.38.94-.38 1.69c0 .74.12 1.33.35 1.76s.6.65 1.09.65c.46 0 .81-.19 1.06-.57m3.03-3.75-.72-.18v-.54l1.43-.18h.03l.21.18v.42l-.01.24c.24-.21.56-.41.95-.58s.77-.26 1.13-.26c.42 0 .75.08.97.24.23.16.39.4.49.73.09.33.14.77.14 1.33v2.8l.7.07v.5h-2.37v-.49l.62-.08v-2.81c0-.39-.03-.7-.08-.93-.05-.22-.15-.39-.3-.5s-.36-.17-.64-.17c-.24 0-.5.06-.77.18s-.52.26-.73.42v3.79l.68.09v.49h-2.36v-.49l.63-.09zm6.98 1.9c.63-.3 1.42-.46 2.38-.48v-.28c0-.31-.03-.56-.1-.74s-.18-.31-.34-.4-.39-.12-.7-.12c-.34 0-.64.05-.92.15-.27.1-.54.21-.8.35l-.25-.52c.09-.07.25-.17.48-.29s.5-.23.81-.32.61-.14.92-.14c.47 0 .85.06 1.12.19s.48.34.59.62c.12.29.18.67.18 1.15v3.21h.59v.44c-.13.03-.3.07-.5.1s-.38.05-.54.05c-.19 0-.31-.03-.38-.08-.07-.06-.1-.18-.1-.38v-.33c-.2.2-.44.38-.73.55s-.62.25-.99.25q-.72 0-1.2-.42c-.32-.28-.47-.67-.47-1.19.01-.62.32-1.08.95-1.37m1.76 2.15c.23-.11.43-.23.62-.38v-1.72q-1.095 0-1.65.33c-.37.22-.55.52-.55.88s.09.62.26.79c.18.17.42.26.71.26.18 0 .38-.05.61-.16m3.84-.07q.105.15.42.27.33.12.69.12c.38 0 .66-.07.84-.22s.27-.35.27-.61c0-.18-.06-.34-.17-.47s-.27-.25-.47-.35-.5-.23-.88-.38c-.51-.19-.89-.43-1.12-.69-.24-.27-.36-.62-.36-1.07 0-.29.09-.55.27-.77s.42-.39.73-.51.66-.19 1.04-.19c.31 0 .58.02.8.07.23.05.42.09.56.14s.23.08.28.09v1.24h-.61l-.2-.74c-.04-.08-.15-.15-.32-.21a1.8 1.8 0 0 0-.58-.08c-.3 0-.54.07-.72.2s-.28.31-.28.54c0 .2.05.36.15.5.1.13.22.23.36.31.15.08.35.17.6.28l.2.08c.37.15.68.29.91.42s.43.31.59.52c.16.22.23.48.23.8 0 .49-.19.89-.58 1.18-.38.29-.91.44-1.57.44-.33 0-.67-.04-1.03-.13s-.65-.18-.88-.27v-1.28h.65z"/>
    <path class="st0" d="M319.84 103.77H433.5v29.66H319.84z"/>
    <path d="M340.48 111.9c-.28.56-.68 1.01-1.2 1.34s-1.13.49-1.82.49c-.19 0-.4-.02-.62-.05q-.33-.045-.54-.12l.04 1.01v1.21l1.25.13v.59h-3.35v-.59l.86-.13v-7.92l-.88-.22V107l1.7-.22h.02l.25.22v.71c.24-.26.54-.49.89-.67.36-.18.75-.28 1.19-.28.47 0 .91.12 1.3.35.4.23.71.59.95 1.08s.36 1.1.36 1.85c.02.67-.12 1.29-.4 1.86m-3.54-4.11c-.26.13-.47.27-.61.42v4.52c.06.1.2.18.43.26s.48.11.75.11c.62 0 1.11-.24 1.49-.73s.57-1.22.57-2.21c0-.86-.17-1.51-.5-1.93s-.76-.64-1.28-.64c-.3.01-.59.07-.85.2m5.03 5.22.9-.07v-5.08l-.86-.22V107l1.66-.22h.02l.26.22v.22l-.04.94h.04c.08-.14.22-.31.43-.53s.48-.41.8-.59c.33-.18.68-.27 1.07-.27.16 0 .29.02.4.06v1.34a.9.9 0 0 0-.27-.11c-.12-.04-.26-.05-.41-.05-.66 0-1.28.2-1.85.61v4.32l1.52.1v.58h-3.67zm5.91-4.63c.3-.53.69-.93 1.17-1.21s1-.41 1.55-.41c1.01 0 1.77.32 2.27.96.51.64.76 1.48.76 2.52 0 .73-.15 1.36-.44 1.88a3.07 3.07 0 0 1-2.72 1.61c-1.01 0-1.77-.32-2.27-.96-.51-.64-.76-1.48-.76-2.52 0-.72.15-1.34.44-1.87m3.94 3.98c.3-.46.44-1.13.44-2.03 0-.89-.14-1.59-.41-2.11s-.71-.78-1.31-.78c-.55 0-.98.23-1.28.68s-.45 1.13-.45 2.03c0 .89.14 1.59.42 2.11s.72.78 1.31.78c.56.01.98-.22 1.28-.68m2.9.65.73-.11v-5.04l-.86-.22V107l1.72-.22.22.16.07.48-.01.38c.28-.26.66-.49 1.15-.7s.92-.32 1.3-.32c.43 0 .78.07 1.04.22.26.14.46.37.6.67.26-.22.61-.42 1.07-.61s.89-.28 1.29-.28c.5 0 .88.09 1.16.28s.48.48.59.88c.12.4.17.93.17 1.59v3.37l.86.11v.59h-2.86v-.59l.74-.11v-3.34c0-.46-.03-.83-.1-1.11s-.2-.48-.38-.62c-.19-.14-.46-.2-.81-.2-.26 0-.54.06-.84.17-.3.12-.55.25-.76.41.07.31.11.76.11 1.33v3.35l.85.11v.59h-2.9V113l.79-.11v-3.36c0-.48-.03-.85-.09-1.12-.06-.26-.17-.46-.34-.59s-.42-.2-.77-.2c-.29 0-.59.07-.92.22s-.61.31-.85.5v4.55l.8.11v.59h-2.8v-.58zm12.69-.23c-.51-.63-.76-1.48-.76-2.53 0-.7.13-1.31.4-1.84.26-.53.63-.94 1.11-1.22.48-.29 1.02-.43 1.63-.43.74 0 1.32.21 1.73.62s.63 1 .65 1.77c0 .49-.03.86-.08 1.12h-4.13c.02.79.2 1.43.55 1.91s.85.73 1.5.73c.32 0 .65-.06 1-.17.35-.12.62-.25.81-.41l.23.53c-.23.24-.58.45-1.03.62-.46.18-.92.26-1.39.26q-1.455-.015-2.22-.96m3.44-3.16c.02-.17.04-.34.04-.52q-.015-.78-.33-1.23c-.21-.3-.55-.45-1-.45-.46 0-.83.17-1.11.5-.28.34-.43.9-.47 1.69h2.87zm3.62 3.75c-.4-.24-.72-.61-.95-1.1-.24-.5-.35-1.11-.35-1.84q0-1.02.42-1.86c.28-.56.68-1 1.21-1.33.52-.32 1.14-.49 1.85-.49.41 0 .78.04 1.12.13v-2.24l-1.22-.14v-.52l2.16-.22h.04l.26.19v9.02h.7v.55c-.26.06-.48.1-.67.13s-.39.05-.59.05-.36-.04-.44-.11c-.09-.07-.13-.22-.13-.46v-.38c-.22.27-.52.5-.88.68s-.76.28-1.18.28c-.51.02-.95-.1-1.35-.34m2.68-.7c.27-.14.48-.3.61-.49v-4.39c-.06-.1-.21-.18-.45-.26a2.4 2.4 0 0 0-.75-.11c-.62 0-1.12.24-1.49.71s-.56 1.21-.56 2.2c0 .86.16 1.5.49 1.92s.75.62 1.27.62c.32.01.61-.06.88-.2m4.44-4.81-.91-.22V107l1.86-.23h.02l.28.22v5.92l.96.1v.59h-3.18v-.59l.97-.11zm-.1-2.34c-.13-.14-.19-.33-.19-.55 0-.26.08-.47.23-.64s.37-.25.64-.25.47.07.6.22.19.33.19.55c0 .27-.08.49-.23.65-.16.16-.37.24-.65.24h-.01c-.26 0-.45-.07-.58-.22m3.6 2.86c.3-.53.69-.93 1.17-1.21s1-.41 1.55-.41c1.01 0 1.77.32 2.27.96s.76 1.48.76 2.52c0 .73-.15 1.36-.44 1.88a3.07 3.07 0 0 1-2.72 1.61c-1.01 0-1.77-.32-2.27-.96-.51-.64-.76-1.48-.76-2.52 0-.72.15-1.34.44-1.87m3.94 3.98c.3-.46.44-1.13.44-2.03 0-.89-.14-1.59-.41-2.11s-.71-.78-1.31-.78c-.55 0-.98.23-1.28.68-.3.46-.45 1.13-.45 2.03 0 .89.14 1.59.42 2.11s.72.78 1.31.78c.56.01.98-.22 1.28-.68m11.41-2.17h-4.85v-.88h4.85zm6.04 4.72c.57 0 1.09-.12 1.56-.35s.84-.55 1.12-.96c.27-.41.41-.87.41-1.39 0-1.29-.6-1.93-1.79-1.93-.26 0-.56.04-.88.11-.32.08-.61.17-.85.27l-.32-.23.59-4.32h3.42l.12-.23h.74l-.22 1.24h-3.18l-.55 2.8c.22-.11.49-.21.83-.3s.67-.13 1.01-.13c.77 0 1.37.22 1.81.65s.66 1.06.66 1.88a3 3 0 0 1-.55 1.75c-.36.54-.88.96-1.54 1.28s-1.42.48-2.27.48c-.34 0-.62-.03-.84-.08v-.58c.22.02.46.04.72.04m6.78-2.27c-.51-.71-.76-1.62-.76-2.74 0-.78.14-1.47.43-2.06s.68-1.04 1.18-1.35 1.04-.47 1.63-.47c1.04 0 1.8.33 2.28 1s.72 1.58.72 2.74c0 .78-.14 1.46-.41 2.06-.28.6-.66 1.06-1.14 1.39s-1.03.49-1.63.49c-1.02.01-1.79-.35-2.3-1.06m4.14-2.75c0-1.04-.13-1.84-.4-2.4q-.405-.84-1.35-.84c-.62 0-1.07.27-1.37.8s-.44 1.29-.44 2.29c0 1.02.14 1.83.43 2.44.28.61.73.92 1.35.92 1.18-.01 1.78-1.07 1.78-3.21" style="fill:#da671d"/>
    <path class="st0" d="M172.77 9.62h129.47v19.92H172.77z"/>
    <path class="st1" d="m193.87 11.69-1.17-.18v-.75h1.96c.31 0 .75-.02 1.33-.06s1.02-.06 1.31-.06c1.86 0 3.24.47 4.15 1.4.9.94 1.36 2.25 1.36 3.94 0 1.18-.23 2.23-.7 3.14-.47.92-1.12 1.63-1.96 2.14s-1.81.77-2.9.77q-.36 0-1.23-.06-.9-.06-1.35-.06h-2.06v-.73l1.25-.15v-9.34zm2.94 9.49h.45c.75-.01 1.41-.2 1.99-.57.57-.37 1.02-.92 1.34-1.66s.48-1.63.48-2.68c0-1.58-.34-2.78-1.03-3.6s-1.72-1.23-3.1-1.23c-.29 0-.63.02-1.03.06-.17.03-.32.04-.45.04v9.51c.35.1.8.13 1.35.13m8.1-.3c-.64-.79-.95-1.85-.95-3.17 0-.87.17-1.63.5-2.29s.79-1.17 1.39-1.53 1.27-.54 2.03-.54c.93 0 1.65.26 2.17.77.51.52.79 1.25.82 2.21 0 .61-.04 1.08-.1 1.4h-5.16c.02.99.25 1.79.69 2.39s1.06.91 1.88.91c.4 0 .82-.07 1.25-.22s.77-.32 1.01-.52l.29.66q-.435.45-1.29.78c-.855.33-1.15.33-1.74.33-1.24.01-2.16-.39-2.79-1.18m4.29-3.94c.03-.21.04-.43.04-.65-.01-.65-.15-1.16-.41-1.54s-.68-.56-1.25-.56c-.58 0-1.04.21-1.39.63s-.54 1.12-.59 2.12zm4.34 3.76c.1.15.31.29.64.41.32.12.67.18 1.03.18q.855 0 1.26-.33c.27-.22.4-.53.4-.92 0-.27-.08-.5-.25-.71-.17-.2-.41-.38-.71-.53-.31-.15-.74-.34-1.31-.56-.77-.29-1.33-.64-1.69-1.04-.35-.4-.53-.94-.53-1.6 0-.44.13-.83.4-1.16s.63-.59 1.1-.77.98-.28 1.55-.28c.46 0 .86.04 1.21.1.35.07.62.14.83.21s.35.12.42.13v1.86h-.91l-.3-1.11c-.06-.12-.22-.22-.48-.31-.26-.08-.55-.13-.87-.13-.45 0-.81.1-1.09.3s-.41.47-.41.81c0 .3.07.55.22.74.14.2.33.35.55.47q.33.18.9.42l.3.12c.56.22 1.01.43 1.36.63s.64.46.88.79c.23.33.35.72.35 1.19 0 .74-.29 1.33-.86 1.77-.58.44-1.36.66-2.36.66-.49 0-1-.07-1.54-.2s-.97-.27-1.31-.41v-1.92h.97zm7.35-5.97-1.14-.27v-.79l2.32-.29h.03l.34.27v7.4l1.2.12v.73h-3.98v-.73l1.22-.14v-6.3zm-.12-2.92q-.24-.27-.24-.69c0-.32.1-.58.29-.79.2-.21.46-.31.8-.31q.51 0 .75.27t.24.69c0 .34-.1.61-.29.81s-.47.3-.82.3h-.02c-.31-.01-.55-.1-.71-.28m4.75 13.54c-.58-.4-.86-.96-.86-1.67 0-.44.14-.85.41-1.21.27-.37.6-.65.98-.84q-.69-.39-.69-1.26c0-.36.1-.7.31-1.02s.49-.56.83-.73c-.5-.22-.88-.54-1.15-.95s-.4-.89-.4-1.46c0-.58.16-1.08.49-1.51s.75-.76 1.29-.99 1.1-.34 1.7-.34q1.515 0 2.37.63c.15-.15.38-.29.69-.44q.465-.21.99-.21h.51v1.32h-1.65q.36.555.36 1.29c0 .59-.15 1.11-.44 1.57-.3.46-.71.81-1.23 1.06-.53.25-1.12.38-1.78.38-.43 0-.81-.04-1.15-.13-.14.14-.25.29-.35.46-.09.17-.13.33-.13.5 0 .36.12.61.36.74.24.14.67.2 1.29.2h1.69c.97 0 1.69.19 2.16.56s.71.89.71 1.57c0 .57-.21 1.09-.62 1.57-.41.47-.96.85-1.66 1.12s-1.45.41-2.26.41c-1.27-.02-2.2-.22-2.77-.62m4.3-.48c.43-.15.79-.36 1.06-.65.27-.28.41-.62.41-1 0-.45-.12-.78-.36-.98-.24-.21-.7-.31-1.39-.31h-1.77c-.4 0-.72-.02-.95-.07-.41.45-.61.95-.61 1.52 0 .56.17.98.51 1.27s.92.44 1.73.44c.47-.01.94-.08 1.37-.22m.29-8.77c0-.67-.15-1.16-.44-1.48-.29-.31-.74-.47-1.33-.47-.55 0-.99.15-1.31.46s-.48.79-.48 1.46c0 .63.15 1.13.46 1.5.3.37.77.56 1.39.56 1.14-.01 1.71-.68 1.71-2.03m9.91 5.78c-.13-.11-.2-.29-.2-.54v-.51c-.33.33-.74.62-1.24.87s-.99.38-1.49.38q-1.395 0-1.98-.75c-.39-.5-.58-1.33-.58-2.48V14.5l-.84-.24v-.66l2.1-.19h.01l.29.18v5.15c0 .58.04 1.03.13 1.36q.12.48.45.72c.21.16.53.23.94.23.4 0 .77-.08 1.12-.25s.65-.37.92-.6v-5.69l-1.08-.24v-.66l2.28-.19h.02l.35.18v7.56h.9l-.02.68c-.28.07-.52.12-.73.17-.21.04-.44.06-.71.06-.3-.03-.5-.09-.64-.19m4.69-4.3c.94-.44 2.13-.68 3.57-.71v-.42q0-.705-.15-1.11c-.15-.405-.27-.47-.52-.59s-.59-.19-1.04-.19c-.51 0-.97.07-1.37.22s-.81.32-1.21.53l-.38-.78c.13-.11.37-.25.72-.44s.75-.34 1.21-.48.92-.21 1.38-.21c.71 0 1.27.1 1.69.29.41.19.71.51.89.94s.27 1 .27 1.73v4.81h.89v.66c-.2.05-.45.1-.76.15s-.57.07-.8.07c-.28 0-.47-.04-.57-.13-.1-.08-.15-.27-.15-.56v-.5c-.3.3-.67.58-1.1.83-.44.25-.93.38-1.48.38-.72 0-1.32-.21-1.79-.62-.48-.42-.71-1.01-.71-1.79 0-.95.47-1.64 1.41-2.08m2.64 3.23q.51-.24.93-.57v-2.58c-1.09 0-1.91.17-2.47.5-.56.34-.83.77-.83 1.31s.13.94.4 1.19.62.38 1.07.38c.26.01.56-.07.9-.23m5.46-10.1-1.21-.17V9.9l2.42-.29h.03l.33.23v11.21l1.27.12v.73h-4.05v-.73l1.21-.14zm5.49 10.91c-.5-.3-.9-.76-1.19-1.38s-.44-1.38-.44-2.29c0-.85.17-1.62.52-2.33.35-.7.85-1.25 1.51-1.66.65-.41 1.43-.61 2.32-.61.51 0 .98.05 1.4.17v-2.81l-1.53-.18v-.64l2.7-.27h.04l.33.24v11.28h.87v.69c-.32.07-.6.12-.83.17s-.48.06-.74.06-.44-.04-.55-.13-.17-.28-.17-.57v-.48c-.28.34-.65.62-1.1.85s-.95.35-1.48.35a3.26 3.26 0 0 1-1.66-.46m3.34-.88c.34-.17.6-.38.77-.61v-5.49c-.08-.12-.27-.23-.56-.32s-.61-.14-.94-.14c-.78 0-1.4.3-1.87.89-.46.6-.7 1.51-.7 2.75 0 1.08.2 1.88.61 2.4q.615.78 1.59.78c.4 0 .76-.08 1.1-.26m5.79-3.16c.94-.44 2.13-.68 3.57-.71v-.42q0-.705-.15-1.11c-.15-.405-.27-.47-.52-.59s-.59-.19-1.04-.19c-.51 0-.97.07-1.37.22s-.81.32-1.21.53l-.38-.78c.13-.11.37-.25.72-.44s.75-.34 1.21-.48.92-.21 1.38-.21c.71 0 1.27.1 1.69.29.41.19.71.51.89.94s.27 1 .27 1.73v4.81h.89v.66c-.2.05-.45.1-.76.15s-.57.07-.8.07c-.28 0-.47-.04-.57-.13-.1-.08-.15-.27-.15-.56v-.5c-.3.3-.67.58-1.1.83-.44.25-.93.38-1.48.38-.72 0-1.32-.21-1.79-.62-.48-.42-.71-1.01-.71-1.79 0-.95.47-1.64 1.41-2.08m2.64 3.23q.51-.24.93-.57v-2.58c-1.09 0-1.91.17-2.47.5-.56.34-.83.77-.83 1.31s.13.94.4 1.19.62.38 1.07.38c.26.01.56-.07.9-.23m5.96.81c-.5-.3-.9-.76-1.19-1.38s-.44-1.38-.44-2.29c0-.85.17-1.62.52-2.33.35-.7.85-1.25 1.51-1.66.65-.41 1.43-.61 2.32-.61.51 0 .98.05 1.4.17v-2.81l-1.53-.18v-.64l2.7-.27h.04l.33.24v11.28h.87v.69c-.32.07-.6.12-.83.17s-.48.06-.74.06-.44-.04-.55-.13-.17-.28-.17-.57v-.48c-.28.34-.65.62-1.1.85s-.95.35-1.48.35a3.26 3.26 0 0 1-1.66-.46m3.34-.88c.34-.17.6-.38.77-.61v-5.49c-.08-.12-.27-.23-.56-.32s-.61-.14-.94-.14c-.78 0-1.4.3-1.87.89-.46.6-.7 1.51-.7 2.75 0 1.08.2 1.88.61 2.4q.615.78 1.59.78c.4 0 .76-.08 1.1-.26"/>
    <path class="st0" d="M3.63 9.62h94.74v19.92H3.63z"/>
    <path class="st1" d="m20.67 11.69-1.4-.18v-.75h4.41v.75l-1.4.18v9.33l1.4.16v.72h-4.4v-.73l1.38-.15v-9.33zm5.32 13.66c-.58-.4-.86-.96-.86-1.67 0-.44.14-.85.41-1.21.27-.37.6-.65.98-.84q-.69-.39-.69-1.26c0-.36.1-.7.31-1.02s.49-.56.83-.73c-.5-.22-.88-.54-1.15-.95s-.4-.89-.4-1.46c0-.58.16-1.08.49-1.51s.75-.76 1.29-.99 1.1-.34 1.7-.34q1.515 0 2.37.63c.15-.15.38-.29.69-.44q.465-.21.99-.21h.51v1.32h-1.65q.36.555.36 1.29c0 .59-.15 1.11-.44 1.57-.3.46-.71.81-1.23 1.06-.53.25-1.12.38-1.78.38-.43 0-.81-.04-1.15-.13-.14.14-.25.29-.35.46-.09.17-.13.33-.13.5 0 .36.12.61.36.74.24.14.67.2 1.29.2h1.69c.97 0 1.69.19 2.16.56s.71.89.71 1.57c0 .57-.21 1.09-.62 1.57-.41.47-.96.85-1.66 1.12s-1.45.41-2.26.41c-1.27-.02-2.2-.22-2.77-.62m4.3-.48c.43-.15.79-.36 1.06-.65.27-.28.41-.62.41-1 0-.45-.12-.78-.36-.98-.24-.21-.7-.31-1.39-.31h-1.77c-.4 0-.72-.02-.95-.07-.41.45-.61.95-.61 1.52 0 .56.17.98.51 1.27s.92.44 1.73.44c.47-.01.94-.08 1.37-.22m.29-8.77c0-.67-.15-1.16-.44-1.48-.29-.31-.74-.47-1.33-.47-.55 0-.99.15-1.31.46s-.48.79-.48 1.46c0 .63.15 1.13.46 1.5.3.37.77.56 1.39.56 1.14-.01 1.71-.68 1.71-2.03m9.91 5.78c-.13-.11-.2-.29-.2-.54v-.51c-.33.33-.74.62-1.24.87s-.99.38-1.49.38q-1.395 0-1.98-.75c-.39-.5-.58-1.33-.58-2.48V14.5l-.84-.24v-.66l2.1-.19h.01l.29.18v5.15c0 .58.04 1.03.13 1.36q.12.48.45.72c.21.16.53.23.94.23.4 0 .77-.08 1.12-.25s.65-.37.92-.6v-5.69l-1.08-.24v-.66l2.28-.19h.02l.35.18v7.56h.9l-.02.68c-.28.07-.52.12-.73.17-.21.04-.44.06-.71.06-.3-.03-.5-.09-.64-.19m4.69-4.3c.94-.44 2.13-.68 3.57-.71v-.42q0-.705-.15-1.11c-.15-.405-.27-.47-.52-.59s-.59-.19-1.04-.19c-.51 0-.97.07-1.37.22s-.81.32-1.21.53l-.38-.78c.13-.11.37-.25.72-.44s.75-.34 1.21-.48.92-.21 1.38-.21c.71 0 1.27.1 1.69.29.41.19.71.51.89.94s.27 1 .27 1.73v4.81h.89v.66c-.2.05-.45.1-.76.15s-.57.07-.8.07c-.28 0-.47-.04-.57-.13-.1-.08-.15-.27-.15-.56v-.5c-.3.3-.67.58-1.1.83-.44.25-.93.38-1.48.38-.72 0-1.32-.21-1.79-.62-.48-.42-.71-1.01-.71-1.79 0-.95.47-1.64 1.41-2.08m2.64 3.23q.51-.24.93-.57v-2.58c-1.09 0-1.91.17-2.47.5-.56.34-.83.77-.83 1.31s.13.94.4 1.19.62.38 1.07.38c.26.01.56-.07.9-.23m5.46-10.1-1.21-.17V9.9l2.42-.29h.03l.33.23v11.21l1.27.12v.73h-4.05v-.73l1.21-.14zm5.49 10.91c-.5-.3-.9-.76-1.19-1.38s-.44-1.38-.44-2.29c0-.85.17-1.62.52-2.33.35-.7.85-1.25 1.51-1.66.65-.41 1.43-.61 2.32-.61.51 0 .98.05 1.4.17v-2.81l-1.53-.18v-.64l2.7-.27h.04l.33.24v11.28h.87v.69c-.32.07-.6.12-.83.17s-.48.06-.74.06-.44-.04-.55-.13c-.13-.1-.18-.29-.18-.58v-.48c-.28.34-.65.62-1.1.85s-.95.35-1.48.35q-.9 0-1.65-.45m3.34-.88c.34-.17.6-.38.77-.61v-5.49c-.08-.12-.27-.23-.56-.32s-.61-.14-.94-.14c-.78 0-1.4.3-1.87.89-.46.6-.7 1.51-.7 2.75 0 1.08.2 1.88.61 2.4q.615.78 1.59.78c.4 0 .76-.08 1.1-.26m5.79-3.16c.94-.44 2.13-.68 3.57-.71v-.42q0-.705-.15-1.11c-.15-.405-.27-.47-.52-.59s-.59-.19-1.04-.19c-.51 0-.97.07-1.37.22s-.81.32-1.21.53l-.38-.78c.13-.11.37-.25.72-.44s.75-.34 1.21-.48.92-.21 1.38-.21c.71 0 1.27.1 1.69.29.41.19.71.51.89.94s.27 1 .27 1.73v4.81h.89v.66c-.2.05-.45.1-.76.15s-.57.07-.8.07c-.28 0-.47-.04-.57-.13-.1-.08-.15-.27-.15-.56v-.5c-.3.3-.67.58-1.1.83-.44.25-.93.38-1.48.38-.72 0-1.32-.21-1.79-.62-.48-.42-.71-1.01-.71-1.79 0-.95.47-1.64 1.41-2.08m2.64 3.23q.51-.24.93-.57v-2.58c-1.09 0-1.91.17-2.47.5-.56.34-.83.77-.83 1.31s.13.94.4 1.19.62.38 1.07.38c.26.01.56-.07.9-.23m5.96.81c-.5-.3-.9-.76-1.19-1.38s-.44-1.38-.44-2.29c0-.85.17-1.62.52-2.33.35-.7.85-1.25 1.51-1.66.65-.41 1.43-.61 2.32-.61.51 0 .98.05 1.4.17v-2.81l-1.53-.18v-.64l2.7-.27h.04l.33.24v11.28h.87v.69c-.32.07-.6.12-.83.17s-.48.06-.74.06-.44-.04-.55-.13-.17-.28-.17-.57v-.48c-.28.34-.65.62-1.1.85s-.95.35-1.48.35a3.26 3.26 0 0 1-1.66-.46m3.34-.88c.34-.17.6-.38.77-.61v-5.49c-.08-.12-.27-.23-.56-.32s-.61-.14-.94-.14c-.78 0-1.4.3-1.87.89-.46.6-.7 1.51-.7 2.75 0 1.08.2 1.88.61 2.4.42.52.95.78 1.6.78.39 0 .75-.08 1.09-.26"/>
  </g>
</svg>
