<svg xmlns="http://www.w3.org/2000/svg" xmlns:xlink="http://www.w3.org/1999/xlink" viewBox="0 0 551.35 194.49" xml:space="preserve">
  <style>
    .st0{fill:none}.st1{fill:#0c3958}.st2{fill:#8dbe22}.st4{fill:#fff}.st22,.st30,.st31{fill:none;stroke:#0c3958;stroke-width:.5;stroke-miterlimit:10}.st30{stroke-dasharray:12.1682,12.1682}.st31{stroke-dasharray:11.0508,11.0508}
  </style>
  <g id="Board_4"/>
  <g id="Board_3">
    <g id="Coin_Flip"/>
  </g>
  <g id="Board_3_-_English"/>
  <g id="Board_2">
    <defs>
      <path id="XMLID_5_" transform="rotate(-180 90.053 106.183)" d="M19.19 71.64h141.73v69.09H19.19z"/>
    </defs>
    <use xlink:href="#XMLID_5_" style="overflow:visible;fill:#8dbe22"/>
    <clipPath id="XMLID_00000046317536480904405090000012148911624052055220_">
      <use xlink:href="#XMLID_5_" style="overflow:visible"/>
    </clipPath>
    <path style="clip-path:url(#XMLID_00000046317536480904405090000012148911624052055220_);fill:#9ba0b3" d="M57.45 63.98h103.46v81.05H57.45z"/>
    <defs>
      <path id="XMLID_6_" d="M26.17 78.41v55.55h127.77V78.41zm110.08 48.6H100.4c5.68-4.17 9.46-11.85 9.46-20.44 0-9.13-4.26-17.06-10.56-21.23h36.95c0 5.56 5.19 12.6 10.74 12.6v20.37c-5.55.01-10.74 3.15-10.74 8.7M33.11 97.95c5.56 0 10.55-7.04 10.55-12.6H79.3c-6.3 4.17-10.56 12.1-10.56 21.23 0 8.58 3.77 16.27 9.46 20.44H43.67c0-5.56-5-8.7-10.55-8.7V97.95z"/>
    </defs>
    <use xlink:href="#XMLID_6_" style="overflow:visible;fill:#419c35"/>
    <clipPath id="XMLID_00000034786399361211308670000012605775629620825758_">
      <use xlink:href="#XMLID_6_" style="overflow:visible"/>
    </clipPath>
    <path style="clip-path:url(#XMLID_00000034786399361211308670000012605775629620825758_);fill:#0c3958" d="M57.45 72h103.46v69.88H57.45z"/>
    <path class="st4" d="M96.69 99.75c-.2-.22-.5-.46-.89-.72s-.84-.5-1.36-.74c-.52-.23-1.08-.44-1.7-.6-.62-.17-1.25-.27-1.9-.32v6.95l.64.13c1.21.29 2.3.62 3.28.97.98.36 1.8.8 2.47 1.31.67.52 1.19 1.15 1.56 1.9s.55 1.66.55 2.74c0 1.19-.21 2.2-.64 3.04s-1.01 1.54-1.76 2.1-1.62.98-2.62 1.26q-1.5.42-3.21.45v3.53h-1.75v-3.59c-1.61-.11-3.15-.43-4.6-.96a14.6 14.6 0 0 1-4-2.2l1.71-3.23c.25.27.6.56 1.08.87.47.31 1.02.62 1.65.91s1.32.55 2.07.77 1.53.38 2.34.47v-6.95c-.13-.04-.28-.08-.42-.12-.15-.03-.28-.07-.42-.12-1.19-.31-2.22-.64-3.11-.99-.88-.35-1.62-.77-2.2-1.26a4.9 4.9 0 0 1-1.33-1.73q-.45-.99-.45-2.4c0-1.1.19-2.07.57-2.92s.92-1.58 1.61-2.2 1.51-1.1 2.44-1.44c.93-.35 1.95-.57 3.07-.65v-3.39h1.75V94c1.46.09 2.8.38 4.03.87s2.32 1.09 3.26 1.78zm-11.09.87c0 .94.33 1.65.99 2.12s1.66.88 3.01 1.24v-6.62c-1.37.07-2.37.39-3.02.96s-.98 1.34-.98 2.3m9.71 11.16c0-.99-.39-1.73-1.18-2.23-.78-.5-1.88-.96-3.29-1.36v6.65c1.43-.02 2.54-.29 3.31-.81s1.16-1.27 1.16-2.25m28.2-5.6c0 3 2.43 5.43 5.43 5.43s5.43-2.43 5.43-5.43-2.43-5.43-5.43-5.43c-3 .01-5.43 2.44-5.43 5.43m-66.92 0c0 3-2.43 5.43-5.43 5.43s-5.43-2.43-5.43-5.43 2.43-5.43 5.43-5.43c3.01.01 5.43 2.44 5.43 5.43"/>
    <path class="st0" d="M43.89 148.52h87.42v19.43H43.89z"/>
    <path class="st2" d="M66.32 159.98c-.56.55-1.37.87-2.41.96l-.02 1.76h-1.05l.01-1.74c-.59-.04-1.16-.13-1.7-.27-.55-.14-.95-.27-1.21-.39l.1-2.57h.94l.31 1.86c.45.38 1.13.57 2.06.57.73 0 1.28-.16 1.66-.48s.56-.79.56-1.41c0-.36-.11-.68-.32-.95-.22-.27-.49-.52-.83-.73s-.79-.46-1.37-.76q-.09-.06-.27-.15c-.62-.32-1.12-.62-1.5-.92-.38-.29-.68-.64-.9-1.04-.22-.41-.33-.89-.33-1.45 0-.73.28-1.34.83-1.83.56-.49 1.27-.78 2.15-.88v-1.65h1.06v1.63c.8.04 1.61.23 2.43.56l-.07 2.4h-.92l-.35-1.74c-.15-.13-.35-.23-.61-.32-.25-.08-.55-.12-.89-.12-.62 0-1.13.14-1.53.41s-.6.69-.6 1.25q0 .585.33 1.02c.22.29.48.53.77.71s.73.43 1.31.74c.82.46 1.42.82 1.81 1.09.39.26.71.59.97.97.25.38.38.85.38 1.4.05.84-.23 1.52-.8 2.07m4.93-6.91c-.21.08-.54.18-.99.29s-.82.19-1.1.23l-.15-.84c.51-.11 1.03-.29 1.57-.56.54-.26.98-.54 1.34-.85h.01l.92.15v8.46l1.86.14v.73h-5.4v-.73l1.94-.14zm5.37 10.1c-.28-.04-.52-.08-.71-.13v-.86c.33.1.73.15 1.19.15.79 0 1.47-.12 2.05-.38q.855-.375 1.32-1.02c.3-.43.46-.9.46-1.41 0-.68-.21-1.21-.62-1.58s-1.05-.57-1.91-.58l-.46.12c-.33.1-.49.14-.48.13l-.25-.79c.42-.08.81-.2 1.19-.36.62-.26 1.12-.61 1.5-1.04.38-.44.57-.9.57-1.39 0-.57-.17-.99-.5-1.25-.34-.26-.76-.4-1.28-.4-.45 0-.88.08-1.3.24s-.77.35-1.07.58l-.4-.68c.28-.28.73-.55 1.34-.82.62-.26 1.24-.4 1.88-.4.91 0 1.64.2 2.21.59.56.4.84 1 .84 1.81 0 .71-.28 1.36-.84 1.94s-1.23 1-2 1.27c.1-.01.24-.01.42-.01q.885 0 1.56.33c.675.33.8.52 1.04.89s.37.8.37 1.27c0 .73-.22 1.38-.66 1.96s-1.06 1.03-1.87 1.36c-.8.33-1.74.49-2.8.49-.25.02-.51 0-.79-.03m10.23-4.13c.22.33.33.77.33 1.33q0 .855-.27 1.65c-.18.53-.4.98-.67 1.36s-.54.64-.8.79h-.01l-.51-.36v-.17c.2-.16.4-.51.61-1.04.21-.54.31-1.04.31-1.52a.8.8 0 0 0-.08-.37c-.06-.09-.14-.21-.26-.34-.14-.15-.25-.29-.31-.42a1.1 1.1 0 0 1-.11-.53c0-.26.08-.47.25-.63s.37-.24.62-.24h.08c.32.01.6.17.82.49m3.92 3.4c.71 0 1.36-.14 1.95-.43s1.06-.69 1.4-1.2.51-1.09.51-1.74c0-1.61-.75-2.41-2.23-2.41-.33 0-.7.05-1.1.14-.41.1-.76.21-1.06.34l-.4-.29.73-5.4h4.27l.15-.29h.93l-.27 1.54h-3.98l-.69 3.5c.27-.14.61-.26 1.04-.38.42-.11.84-.17 1.26-.17.96 0 1.71.27 2.27.81.55.54.82 1.33.82 2.36 0 .79-.23 1.52-.68 2.19-.46.67-1.1 1.21-1.93 1.61s-1.77.6-2.83.6c-.43 0-.78-.04-1.05-.1v-.72c.27.03.57.04.89.04m8.48-2.83c-.63-.88-.95-2.03-.95-3.43 0-.98.18-1.84.54-2.57.36-.74.85-1.3 1.47-1.69s1.3-.58 2.04-.58c1.3 0 2.25.42 2.85 1.25s.9 1.98.9 3.43c0 .97-.17 1.83-.52 2.57-.34.75-.82 1.32-1.42 1.73-.61.41-1.28.61-2.03.61q-1.935.015-2.88-1.32m5.17-3.44c0-1.3-.17-2.3-.5-3s-.9-1.05-1.69-1.05c-.77 0-1.34.33-1.71 1s-.55 1.62-.55 2.86c0 1.27.18 2.29.53 3.05s.92 1.15 1.69 1.15c1.48 0 2.23-1.34 2.23-4.01m4.47 3.44c-.63-.88-.95-2.03-.95-3.43 0-.98.18-1.84.54-2.57.36-.74.85-1.3 1.47-1.69s1.3-.58 2.04-.58c1.3 0 2.25.42 2.85 1.25s.9 1.98.9 3.43c0 .97-.17 1.83-.52 2.57-.34.75-.82 1.32-1.42 1.73-.61.41-1.28.61-2.03.61q-1.92.015-2.88-1.32m5.17-3.44c0-1.3-.17-2.3-.5-3s-.9-1.05-1.69-1.05c-.77 0-1.34.33-1.71 1s-.55 1.62-.55 2.86c0 1.27.18 2.29.53 3.05s.92 1.15 1.69 1.15c1.49 0 2.23-1.34 2.23-4.01"/>
    <path class="st22" d="M535.44 170.24v6h-6"/>
    <path class="st30" d="M517.27 176.24H206.98"/>
    <path class="st22" d="M200.9 176.24h-6v-6"/>
    <path class="st31" d="M194.9 159.19V54.2"/>
    <path class="st22" d="M194.9 48.68v-6h6"/>
    <path class="st30" d="M213.07 42.68h310.29"/>
    <path class="st22" d="M529.44 42.68h6v6"/>
    <path class="st31" d="M535.44 59.73v104.98"/>
    <defs>
      <path id="XMLID_10_" transform="rotate(-180 277.169 106.232)" d="M206.3 71.69h141.73v69.09H206.3z"/>
    </defs>
    <use xlink:href="#XMLID_10_" style="overflow:visible;fill:#8dbe22"/>
    <clipPath id="XMLID_00000130639279513602578290000013464924933026029479_">
      <use xlink:href="#XMLID_10_" style="overflow:visible"/>
    </clipPath>
    <path style="clip-path:url(#XMLID_00000130639279513602578290000013464924933026029479_);fill:#9ba0b3" d="M234.65 59.62h113.39v88.82H234.65z"/>
    <defs>
      <path id="XMLID_9_" d="M213.28 78.46v55.55h127.77V78.46zm110.09 48.6h-35.85c5.68-4.17 9.46-11.85 9.46-20.44 0-9.13-4.26-17.06-10.56-21.23h36.95c0 5.56 5.19 12.6 10.74 12.6v20.37c-5.56 0-10.74 3.15-10.74 8.7M220.23 98c5.56 0 10.55-7.04 10.55-12.6h35.64c-6.3 4.17-10.56 12.1-10.56 21.23 0 8.58 3.77 16.27 9.46 20.44h-34.53c0-5.56-5-8.7-10.55-8.7V98z"/>
    </defs>
    <use xlink:href="#XMLID_9_" style="overflow:visible;fill:#419c35"/>
    <clipPath id="XMLID_00000147219175676782780050000017142006071499158973_">
      <use xlink:href="#XMLID_9_" style="overflow:visible"/>
    </clipPath>
    <path style="clip-path:url(#XMLID_00000147219175676782780050000017142006071499158973_);fill:#0c3958" d="M234.65 67.94h113.39v76.59H234.65z"/>
    <path class="st4" d="M283.81 99.8c-.2-.22-.5-.46-.89-.72s-.84-.5-1.36-.74c-.52-.23-1.08-.44-1.7-.6-.62-.17-1.25-.27-1.9-.32v6.95l.64.13c1.21.29 2.3.62 3.28.97.98.36 1.8.8 2.47 1.31.67.52 1.19 1.15 1.56 1.9s.55 1.66.55 2.74c0 1.19-.21 2.2-.64 3.04s-1.01 1.54-1.76 2.1-1.62.98-2.62 1.26q-1.5.42-3.21.45v3.53h-1.75v-3.59c-1.61-.11-3.15-.43-4.6-.96a14.6 14.6 0 0 1-4-2.2l1.71-3.23c.25.27.6.56 1.08.87.47.31 1.02.62 1.65.91s1.32.55 2.07.77 1.53.38 2.34.47v-6.95c-.13-.04-.28-.08-.42-.12-.15-.03-.28-.07-.42-.12-1.19-.31-2.22-.64-3.11-.99-.88-.35-1.62-.77-2.2-1.26a4.9 4.9 0 0 1-1.33-1.73q-.45-.99-.45-2.4c0-1.1.19-2.07.57-2.92s.92-1.58 1.61-2.2 1.51-1.1 2.44-1.44c.93-.35 1.95-.57 3.07-.65v-3.39h1.75v3.39c1.46.09 2.8.38 4.03.87s2.32 1.09 3.26 1.78zm-11.09.87c0 .94.33 1.65.99 2.12s1.66.88 3.01 1.24v-6.62c-1.37.07-2.37.39-3.02.96-.66.57-.98 1.34-.98 2.3m9.71 11.16c0-.99-.39-1.73-1.18-2.23-.78-.5-1.88-.96-3.29-1.36v6.65c1.43-.02 2.54-.29 3.31-.81s1.16-1.27 1.16-2.25m28.2-5.6c0 3 2.43 5.43 5.43 5.43s5.43-2.43 5.43-5.43-2.43-5.43-5.43-5.43c-3 .01-5.43 2.44-5.43 5.43m-66.92 0c0 3-2.43 5.43-5.43 5.43s-5.43-2.43-5.43-5.43 2.43-5.43 5.43-5.43c3 .01 5.43 2.44 5.43 5.43"/>
    <path class="st0" d="M233.46 148.57h87.42V168h-87.42z"/>
    <path class="st2" d="M254.9 160.03c-.56.55-1.37.87-2.41.96l-.02 1.76h-1.05l.01-1.74c-.59-.04-1.16-.13-1.7-.27-.55-.14-.95-.27-1.21-.39l.1-2.57h.94l.31 1.86c.45.38 1.13.57 2.06.57.73 0 1.28-.16 1.66-.48s.56-.79.56-1.41c0-.36-.11-.68-.32-.95-.22-.27-.49-.52-.83-.73s-.79-.46-1.37-.76q-.09-.06-.27-.15c-.62-.32-1.12-.62-1.5-.92-.38-.29-.68-.64-.9-1.04-.22-.41-.33-.89-.33-1.45 0-.73.28-1.34.83-1.83.56-.49 1.27-.78 2.15-.88v-1.65h1.06v1.63c.8.04 1.61.23 2.43.56l-.07 2.4h-.92l-.35-1.74c-.15-.13-.35-.23-.61-.32-.25-.08-.55-.12-.89-.12-.62 0-1.13.14-1.53.41s-.6.69-.6 1.25q0 .585.33 1.02c.22.29.48.53.77.71s.73.43 1.31.74c.82.46 1.42.82 1.81 1.09.39.26.71.59.97.97.25.38.38.85.38 1.4.05.84-.23 1.52-.8 2.07m4.93-6.92c-.21.08-.54.18-.99.29s-.82.19-1.1.23l-.15-.84c.51-.11 1.03-.29 1.57-.56.54-.26.98-.54 1.34-.85h.01l.92.15v8.46l1.86.14v.73h-5.4v-.73l1.94-.14zm5.66 6.55c-.63-.88-.95-2.03-.95-3.43 0-.98.18-1.84.54-2.57.36-.74.85-1.3 1.47-1.69s1.3-.58 2.04-.58c1.3 0 2.25.42 2.85 1.25s.9 1.98.9 3.43c0 .97-.17 1.83-.52 2.57-.34.75-.82 1.32-1.42 1.73-.61.41-1.28.61-2.03.61-1.29.01-2.24-.43-2.88-1.32m5.17-3.44c0-1.3-.17-2.3-.5-3s-.9-1.05-1.69-1.05c-.77 0-1.34.33-1.71 1s-.55 1.62-.55 2.86c0 1.27.18 2.29.53 3.05s.92 1.15 1.69 1.15c1.48-.01 2.23-1.34 2.23-4.01m6.01 2.87c.22.33.33.77.33 1.33q0 .855-.27 1.65c-.18.53-.4.98-.67 1.36s-.54.64-.8.79h-.01l-.51-.36v-.17c.2-.16.4-.51.61-1.04.21-.54.31-1.04.31-1.52a.8.8 0 0 0-.08-.37c-.06-.09-.14-.21-.26-.34-.14-.15-.25-.29-.31-.42a1.1 1.1 0 0 1-.11-.53c0-.26.08-.47.25-.63s.37-.24.62-.24h.08c.32 0 .6.17.82.49m3.49.57c-.63-.88-.95-2.03-.95-3.43 0-.98.18-1.84.54-2.57.36-.74.85-1.3 1.47-1.69s1.3-.58 2.04-.58c1.3 0 2.25.42 2.85 1.25s.9 1.98.9 3.43c0 .97-.17 1.83-.52 2.57s-.82 1.32-1.42 1.73c-.61.41-1.28.61-2.03.61-1.29.01-2.24-.43-2.88-1.32m5.17-3.44c0-1.3-.17-2.3-.5-3s-.9-1.05-1.69-1.05c-.77 0-1.34.33-1.71 1s-.55 1.62-.55 2.86c0 1.27.18 2.29.53 3.05s.92 1.15 1.69 1.15c1.48-.01 2.23-1.34 2.23-4.01m4.48 3.44c-.63-.88-.95-2.03-.95-3.43 0-.98.18-1.84.54-2.57s.85-1.3 1.47-1.69 1.3-.58 2.04-.58c1.3 0 2.25.42 2.85 1.25s.9 1.98.9 3.43c0 .97-.17 1.83-.52 2.57-.34.75-.82 1.32-1.42 1.73s-1.28.61-2.03.61q-1.935.015-2.88-1.32m5.16-3.44c0-1.3-.17-2.3-.5-3s-.9-1.05-1.69-1.05c-.77 0-1.34.33-1.71 1s-.55 1.62-.55 2.86c0 1.27.18 2.29.53 3.05.36.76.92 1.15 1.69 1.15 1.49-.01 2.23-1.34 2.23-4.01m4.48 3.44c-.63-.88-.95-2.03-.95-3.43 0-.98.18-1.84.54-2.57.36-.74.85-1.3 1.47-1.69s1.3-.58 2.04-.58c1.3 0 2.25.42 2.85 1.25s.9 1.98.9 3.43c0 .97-.17 1.83-.52 2.57s-.82 1.32-1.42 1.73c-.61.41-1.28.61-2.03.61-1.29.01-2.24-.43-2.88-1.32m5.17-3.44c0-1.3-.17-2.3-.5-3s-.9-1.05-1.69-1.05c-.77 0-1.34.33-1.71 1s-.55 1.62-.55 2.86c0 1.27.18 2.29.53 3.05s.92 1.15 1.69 1.15c1.48-.01 2.23-1.34 2.23-4.01"/>
    <path class="st0" d="M405.46 148.57h87.42V168h-87.42z"/>
    <path class="st2" d="M425.75 160.03c-.57.55-1.37.87-2.41.96l-.02 1.76h-1.05l.01-1.74c-.59-.04-1.16-.13-1.7-.27s-.95-.27-1.21-.39l.1-2.57h.95l.31 1.86c.45.38 1.13.57 2.06.57.73 0 1.28-.16 1.66-.48s.56-.79.56-1.41c0-.36-.11-.68-.32-.95-.22-.27-.49-.52-.83-.73s-.79-.46-1.37-.76q-.09-.06-.27-.15c-.62-.32-1.12-.62-1.5-.92s-.68-.64-.9-1.04c-.22-.41-.33-.89-.33-1.45 0-.73.28-1.34.83-1.83s1.27-.78 2.15-.88v-1.65h1.07v1.63c.8.04 1.61.23 2.43.56l-.08 2.4h-.92l-.34-1.74c-.15-.13-.35-.23-.61-.32-.25-.08-.55-.12-.89-.12-.62 0-1.13.14-1.53.41s-.6.69-.6 1.25q0 .585.33 1.02c.22.29.48.53.77.71s.73.43 1.31.74c.82.46 1.42.82 1.81 1.09.39.26.71.59.97.97s.38.85.38 1.4c.02.84-.26 1.52-.82 2.07m4.41 2.46c.71 0 1.36-.14 1.95-.43s1.05-.69 1.39-1.2.51-1.09.51-1.74c0-1.61-.75-2.41-2.24-2.41-.33 0-.7.05-1.1.14-.41.1-.76.21-1.06.34l-.4-.29.73-5.4h4.28l.15-.29h.93l-.27 1.54h-3.97l-.69 3.5c.27-.14.62-.26 1.04-.38s.84-.17 1.26-.17c.96 0 1.71.27 2.27.81.55.54.82 1.33.82 2.36 0 .79-.23 1.52-.68 2.19-.46.67-1.1 1.21-1.93 1.61s-1.78.6-2.83.6c-.43 0-.78-.04-1.05-.1v-.72c.27.02.57.04.89.04m8.48-2.83c-.63-.88-.95-2.03-.95-3.43 0-.98.18-1.84.54-2.57s.85-1.3 1.47-1.69 1.3-.58 2.04-.58c1.3 0 2.25.42 2.85 1.25s.9 1.98.9 3.43c0 .97-.17 1.83-.52 2.57-.34.75-.82 1.32-1.42 1.73s-1.28.61-2.03.61q-1.92.015-2.88-1.32m5.17-3.44c0-1.3-.17-2.3-.5-3s-.9-1.05-1.69-1.05c-.77 0-1.34.33-1.71 1s-.55 1.62-.55 2.86c0 1.27.18 2.29.53 3.05.36.76.92 1.15 1.69 1.15 1.49-.01 2.23-1.34 2.23-4.01m6.02 2.87c.22.33.33.77.33 1.33q0 .855-.27 1.65c-.18.53-.41.98-.67 1.36-.27.38-.54.64-.8.79h-.01l-.51-.36v-.17c.2-.16.4-.51.61-1.04.21-.54.31-1.04.31-1.52a.8.8 0 0 0-.08-.37c-.05-.09-.14-.21-.26-.34-.14-.15-.25-.29-.32-.42s-.11-.31-.11-.53c0-.26.08-.47.25-.63s.37-.24.62-.24h.08c.33 0 .61.17.83.49m3.48.57c-.63-.88-.95-2.03-.95-3.43 0-.98.18-1.84.54-2.57s.85-1.3 1.47-1.69 1.3-.58 2.04-.58c1.3 0 2.25.42 2.85 1.25s.9 1.98.9 3.43c0 .97-.17 1.83-.52 2.57-.34.75-.82 1.32-1.42 1.73s-1.28.61-2.03.61q-1.92.015-2.88-1.32m5.17-3.44c0-1.3-.17-2.3-.5-3s-.9-1.05-1.69-1.05c-.77 0-1.34.33-1.71 1s-.55 1.62-.55 2.86c0 1.27.18 2.29.53 3.05.36.76.92 1.15 1.69 1.15 1.49-.01 2.23-1.34 2.23-4.01m4.48 3.44c-.63-.88-.95-2.03-.95-3.43 0-.98.18-1.84.54-2.57.36-.74.85-1.3 1.47-1.69s1.3-.58 2.04-.58c1.3 0 2.25.42 2.85 1.25s.9 1.98.9 3.43c0 .97-.17 1.83-.52 2.57s-.82 1.32-1.42 1.73c-.61.41-1.28.61-2.03.61q-1.935.015-2.88-1.32m5.17-3.44c0-1.3-.17-2.3-.5-3s-.9-1.05-1.69-1.05c-.77 0-1.34.33-1.71 1s-.55 1.62-.55 2.86c0 1.27.18 2.29.53 3.05s.92 1.15 1.69 1.15c1.48-.01 2.23-1.34 2.23-4.01m4.47 3.44c-.63-.88-.95-2.03-.95-3.43 0-.98.18-1.84.54-2.57s.85-1.3 1.47-1.69 1.3-.58 2.04-.58c1.3 0 2.25.42 2.85 1.25s.9 1.98.9 3.43c0 .97-.17 1.83-.52 2.57-.34.75-.82 1.32-1.42 1.73s-1.28.61-2.03.61q-1.92.015-2.88-1.32m5.17-3.44c0-1.3-.17-2.3-.5-3s-.9-1.05-1.69-1.05c-.77 0-1.34.33-1.71 1s-.55 1.62-.55 2.86c0 1.27.18 2.29.53 3.05.36.76.92 1.15 1.69 1.15 1.49-.01 2.23-1.34 2.23-4.01m42.264-15.446h-141.73v-69.09h141.73z"/>
    <path d="M385.28 78.46v55.55h127.77V78.46zm110.09 48.6h-35.85c5.68-4.17 9.46-11.85 9.46-20.44 0-9.13-4.26-17.06-10.56-21.23h36.95c0 5.56 5.19 12.6 10.74 12.6v20.37c-5.56 0-10.74 3.15-10.74 8.7M392.23 98c5.56 0 10.55-7.04 10.55-12.6h35.64c-6.3 4.17-10.56 12.1-10.56 21.23 0 8.58 3.77 16.27 9.46 20.44h-34.53c0-5.56-5-8.7-10.55-8.7V98z" style="fill:#419c35"/>
    <path class="st4" d="M455.8 99.8c-.2-.22-.5-.46-.89-.72s-.85-.5-1.36-.74c-.52-.23-1.08-.44-1.7-.6-.62-.17-1.25-.27-1.9-.32v6.95l.64.13c1.21.29 2.3.62 3.28.97.98.36 1.8.8 2.47 1.31.67.52 1.19 1.15 1.56 1.9s.55 1.66.55 2.74c0 1.19-.21 2.2-.64 3.04s-1.01 1.54-1.76 2.1-1.62.98-2.62 1.26q-1.5.42-3.21.45v3.53h-1.75v-3.59c-1.61-.11-3.15-.43-4.6-.96a14.6 14.6 0 0 1-4-2.2l1.71-3.23c.25.27.6.56 1.08.87.47.31 1.02.62 1.65.91s1.32.55 2.07.77 1.53.38 2.34.47v-6.95c-.13-.04-.28-.08-.42-.12-.15-.03-.28-.07-.42-.12-1.19-.31-2.22-.64-3.11-.99-.88-.35-1.62-.77-2.2-1.26a4.9 4.9 0 0 1-1.33-1.73q-.45-.99-.45-2.4c0-1.1.19-2.07.57-2.92s.92-1.58 1.61-2.2 1.51-1.1 2.44-1.44c.93-.35 1.95-.57 3.07-.65v-3.39h1.75v3.39c1.46.09 2.8.38 4.03.87s2.32 1.09 3.26 1.78zm-11.08.87c0 .94.33 1.65.99 2.12s1.66.88 3.01 1.24v-6.62c-1.37.07-2.37.39-3.02.96-.66.57-.98 1.34-.98 2.3m9.71 11.16c0-.99-.39-1.73-1.18-2.23-.78-.5-1.88-.96-3.29-1.36v6.65c1.43-.02 2.54-.29 3.31-.81s1.16-1.27 1.16-2.25m28.33-6.84a5.437 5.437 0 0 0 6.53 6.53c1.99-.44 3.6-2.05 4.05-4.05a5.437 5.437 0 0 0-6.53-6.53c-2 .45-3.6 2.06-4.05 4.05m-67.19 0a5.437 5.437 0 0 1-6.53 6.53c-1.99-.44-3.6-2.05-4.05-4.05a5.437 5.437 0 0 1 6.53-6.53c2 .45 3.61 2.06 4.05 4.05"/>
  </g>
  <g id="Board_2_-_Spanish">
    <path class="st0" d="M400.99 52.37h96.36V67.2h-96.36z"/>
    <path class="st1" d="M411.48 63.5c.57 0 1.09-.12 1.56-.35s.84-.55 1.12-.96c.27-.41.41-.87.41-1.39 0-1.29-.6-1.93-1.79-1.93-.26 0-.56.04-.88.11s-.61.17-.85.27l-.32-.23.59-4.32h3.42l.12-.23h.74l-.22 1.24h-3.18l-.55 2.8c.22-.11.49-.21.83-.3s.67-.13 1.01-.13c.77 0 1.37.22 1.81.65s.66 1.06.66 1.88a3 3 0 0 1-.55 1.75c-.36.54-.88.96-1.54 1.28s-1.42.48-2.27.48c-.34 0-.62-.03-.84-.08v-.58c.22.03.46.04.72.04m6.78-2.26c-.51-.71-.76-1.62-.76-2.74 0-.78.14-1.47.43-2.06s.68-1.04 1.18-1.35 1.04-.47 1.63-.47c1.04 0 1.8.33 2.28 1s.72 1.58.72 2.74c0 .78-.14 1.46-.41 2.06-.28.6-.66 1.06-1.14 1.39s-1.03.49-1.63.49c-1.02 0-1.79-.35-2.3-1.06m4.14-2.75c0-1.04-.13-1.84-.4-2.4q-.405-.84-1.35-.84c-.62 0-1.07.27-1.37.8s-.44 1.29-.44 2.29c0 1.02.14 1.83.43 2.44.28.61.73.92 1.35.92 1.18-.01 1.78-1.08 1.78-3.21m3.58 2.75c-.51-.71-.76-1.62-.76-2.74 0-.78.14-1.47.43-2.06s.68-1.04 1.18-1.35 1.04-.47 1.63-.47c1.04 0 1.8.33 2.28 1s.72 1.58.72 2.74c0 .78-.14 1.46-.41 2.06-.28.6-.66 1.06-1.14 1.39s-1.03.49-1.63.49c-1.03 0-1.79-.35-2.3-1.06m4.13-2.75c0-1.04-.13-1.84-.4-2.4q-.405-.84-1.35-.84c-.62 0-1.07.27-1.37.8s-.44 1.29-.44 2.29c0 1.02.14 1.83.43 2.44.28.61.73.92 1.35.92 1.19-.01 1.78-1.08 1.78-3.21m11.53 2.01c-.28.56-.68 1.01-1.2 1.34s-1.13.49-1.82.49c-.19 0-.4-.02-.62-.05q-.33-.045-.54-.12l.04 1.01v1.21l1.25.13v.59h-3.35v-.59l.86-.13v-7.92l-.88-.22v-.64l1.7-.22h.02l.25.22v.71c.24-.26.54-.49.89-.67.36-.18.75-.28 1.19-.28.47 0 .91.12 1.3.35.4.23.71.59.95 1.08s.36 1.1.36 1.85c.02.67-.12 1.29-.4 1.86m-3.54-4.11c-.26.13-.47.27-.61.42v4.52c.06.1.2.18.43.26s.48.11.75.11c.62 0 1.11-.24 1.49-.73s.57-1.22.57-2.21c0-.86-.17-1.51-.5-1.93s-.76-.64-1.28-.64c-.3.01-.58.07-.85.2m5.74 4.99c-.51-.63-.76-1.48-.76-2.53 0-.7.13-1.31.4-1.84.26-.53.63-.94 1.11-1.22.48-.29 1.02-.43 1.63-.43.74 0 1.32.21 1.73.62s.63 1 .65 1.77c0 .49-.03.86-.08 1.12h-4.13c.02.79.2 1.43.55 1.91s.85.73 1.5.73c.32 0 .65-.06 1-.17.35-.12.62-.25.81-.41l.23.53c-.23.24-.58.45-1.03.62-.46.18-.92.26-1.39.26q-1.455-.015-2.22-.96m3.44-3.16c.02-.17.04-.34.04-.52q-.015-.78-.33-1.23c-.21-.3-.55-.45-1-.45-.46 0-.83.17-1.11.5-.28.34-.43.9-.47 1.69h2.87zm2.38 3.39.9-.07v-5.08l-.86-.22v-.64l1.66-.22h.02l.26.22v.22l-.04.94h.04c.08-.14.22-.31.43-.53s.48-.41.8-.59c.33-.18.68-.27 1.07-.27.16 0 .29.02.4.06v1.34a.9.9 0 0 0-.27-.11c-.12-.04-.26-.05-.41-.05-.66 0-1.28.2-1.85.61v4.32l1.52.1v.58h-3.67zm6.59-.37c.08.12.25.23.51.32.26.1.53.14.82.14.46 0 .79-.09 1.01-.26s.32-.42.32-.73c0-.22-.07-.4-.2-.56-.14-.16-.33-.3-.57-.43s-.59-.27-1.05-.45c-.62-.23-1.07-.51-1.35-.83s-.43-.75-.43-1.28c0-.35.11-.66.32-.92s.5-.47.88-.62.79-.22 1.24-.22c.37 0 .69.03.97.08.28.06.5.11.67.17s.28.09.34.11v1.49H459l-.24-.89c-.05-.1-.18-.18-.38-.25s-.44-.1-.7-.1q-.54 0-.87.24c-.22.16-.33.38-.33.65 0 .24.06.44.17.59.12.16.26.28.44.38s.42.21.72.34l.24.1c.45.18.81.34 1.09.5s.51.37.7.63.28.58.28.95c0 .59-.23 1.06-.69 1.42s-1.09.53-1.89.53c-.39 0-.8-.05-1.23-.16q-.645-.165-1.05-.33V60.3h.78zm5.38-4.26c.3-.53.69-.93 1.17-1.21s1-.41 1.55-.41c1.01 0 1.77.32 2.27.96s.76 1.48.76 2.52c0 .73-.15 1.36-.44 1.88a3.07 3.07 0 0 1-2.72 1.61c-1.01 0-1.77-.32-2.27-.96-.51-.64-.76-1.48-.76-2.52 0-.72.15-1.35.44-1.87m3.94 3.98c.3-.46.44-1.13.44-2.03 0-.89-.14-1.59-.41-2.11s-.71-.78-1.31-.78c-.55 0-.98.23-1.28.68-.3.46-.45 1.13-.45 2.03 0 .89.14 1.59.42 2.11s.72.78 1.31.78c.56 0 .99-.22 1.28-.68m3.64-4.5-.86-.22v-.64l1.72-.22h.04l.25.22v.5l-.01.29c.29-.26.67-.49 1.14-.7s.92-.31 1.36-.31c.5 0 .89.1 1.17.29s.47.49.58.88.17.93.17 1.6v3.36l.84.08v.6h-2.84v-.59l.74-.1v-3.37c0-.47-.03-.84-.1-1.11q-.09-.405-.36-.6c-.18-.13-.43-.2-.77-.2-.29 0-.6.07-.92.22s-.62.31-.88.5v4.55l.82.11v.59h-2.83v-.59l.76-.11v-5.03zm8.37 2.27c.75-.36 1.7-.55 2.86-.57v-.34c0-.38-.04-.67-.12-.89a.83.83 0 0 0-.41-.47c-.2-.1-.47-.15-.83-.15-.41 0-.77.06-1.1.17-.32.12-.65.26-.97.43l-.3-.62c.1-.09.3-.2.58-.35.28-.14.6-.27.97-.38s.74-.17 1.1-.17c.57 0 1.02.08 1.35.23.33.16.57.41.71.75s.22.8.22 1.38v3.85h.71v.53c-.16.04-.36.08-.61.12-.24.04-.46.06-.64.06-.22 0-.38-.03-.46-.1s-.12-.22-.12-.45v-.4c-.24.24-.53.46-.88.66s-.74.3-1.18.3c-.58 0-1.05-.17-1.43-.5s-.57-.81-.57-1.43c0-.75.37-1.3 1.12-1.66m2.11 2.59c.27-.13.52-.28.74-.46V58.8c-.87 0-1.53.13-1.97.4s-.67.62-.67 1.05.11.75.32.95.5.31.86.31c.21 0 .45-.06.72-.19m4.61-.08c.08.12.25.23.51.32.26.1.53.14.82.14.46 0 .79-.09 1.01-.26s.32-.42.32-.73c0-.22-.07-.4-.2-.56-.14-.16-.33-.3-.57-.43s-.59-.27-1.05-.45c-.62-.23-1.07-.51-1.35-.83s-.43-.75-.43-1.28c0-.35.11-.66.32-.92s.5-.47.88-.62.79-.22 1.24-.22c.37 0 .69.03.97.08.28.06.5.11.67.17s.28.09.34.11v1.49h-.73l-.24-.89c-.05-.1-.18-.18-.38-.25s-.44-.1-.7-.1q-.54 0-.87.24c-.22.16-.33.38-.33.65 0 .24.06.44.17.59.12.16.26.28.44.38s.42.21.72.34l.24.1c.45.18.81.34 1.09.5s.51.37.7.63.28.58.28.95c0 .59-.23 1.06-.69 1.42s-1.09.53-1.89.53c-.39 0-.8-.05-1.23-.16q-.645-.165-1.05-.33V60.3h.78z"/>
    <path class="st0" d="M228.99 52.37h96.36V67.2h-96.36z"/>
    <path class="st1" d="M239.48 63.5c.57 0 1.09-.12 1.56-.35s.84-.55 1.12-.96.41-.87.41-1.39c0-1.29-.6-1.93-1.79-1.93-.26 0-.56.04-.88.11-.32.08-.61.17-.85.27l-.32-.23.59-4.32h3.42l.12-.23h.74l-.22 1.24h-3.18l-.55 2.8c.22-.11.49-.21.83-.3s.67-.13 1.01-.13c.77 0 1.37.22 1.81.65s.66 1.06.66 1.88a3 3 0 0 1-.55 1.75c-.36.54-.88.96-1.54 1.28s-1.42.48-2.27.48c-.34 0-.62-.03-.84-.08v-.58c.22.03.46.04.72.04m6.78-2.26c-.51-.71-.76-1.62-.76-2.74 0-.78.14-1.47.43-2.06s.68-1.04 1.18-1.35 1.04-.47 1.63-.47c1.04 0 1.8.33 2.28 1s.72 1.58.72 2.74c0 .78-.14 1.46-.41 2.06-.28.6-.66 1.06-1.14 1.39s-1.03.49-1.63.49c-1.02 0-1.79-.35-2.3-1.06m4.14-2.75c0-1.04-.13-1.84-.4-2.4s-.72-.84-1.35-.84c-.62 0-1.07.27-1.37.8s-.44 1.29-.44 2.29c0 1.02.14 1.83.43 2.44.28.61.73.92 1.35.92 1.18-.01 1.78-1.08 1.78-3.21m3.58 2.75c-.51-.71-.76-1.62-.76-2.74 0-.78.14-1.47.43-2.06s.68-1.04 1.18-1.35 1.04-.47 1.63-.47c1.04 0 1.8.33 2.28 1s.72 1.58.72 2.74c0 .78-.14 1.46-.41 2.06-.28.6-.66 1.06-1.14 1.39s-1.03.49-1.63.49c-1.03 0-1.79-.35-2.3-1.06m4.13-2.75c0-1.04-.13-1.84-.4-2.4s-.72-.84-1.35-.84c-.62 0-1.07.27-1.37.8s-.44 1.29-.44 2.29c0 1.02.14 1.83.43 2.44.28.61.73.92 1.35.92 1.19-.01 1.78-1.08 1.78-3.21m11.53 2.01c-.28.56-.68 1.01-1.2 1.34s-1.13.49-1.82.49c-.19 0-.4-.02-.62-.05q-.33-.045-.54-.12l.04 1.01v1.21l1.25.13v.59h-3.35v-.59l.86-.13v-7.92l-.88-.22v-.64l1.7-.22h.02l.25.22v.71c.24-.26.54-.49.89-.67.36-.18.75-.28 1.19-.28.47 0 .91.12 1.3.35.4.23.71.59.95 1.08s.36 1.1.36 1.85c.03.67-.12 1.29-.4 1.86m-3.54-4.11c-.26.13-.47.27-.61.42v4.52c.06.1.2.18.43.26s.48.11.75.11c.62 0 1.11-.24 1.49-.73s.57-1.22.57-2.21c0-.86-.17-1.51-.5-1.93s-.76-.64-1.28-.64c-.3.01-.58.07-.85.2m5.75 4.99c-.51-.63-.76-1.48-.76-2.53 0-.7.13-1.31.4-1.84.26-.53.63-.94 1.11-1.22.48-.29 1.02-.43 1.63-.43.74 0 1.32.21 1.73.62s.63 1 .65 1.77c0 .49-.03.86-.08 1.12h-4.13c.02.79.2 1.43.55 1.91s.85.73 1.5.73c.32 0 .65-.06 1-.17.35-.12.62-.25.81-.41l.23.53c-.23.24-.58.45-1.03.62-.46.18-.92.26-1.39.26-.98-.01-1.71-.33-2.22-.96m3.43-3.16c.02-.17.04-.34.04-.52q-.015-.78-.33-1.23c-.21-.3-.55-.45-1-.45-.46 0-.83.17-1.11.5s-.43.9-.47 1.69h2.87zm2.38 3.39.9-.07v-5.08l-.86-.22v-.64l1.66-.22h.02l.26.22v.22l-.04.94h.04c.08-.14.22-.31.43-.53s.48-.41.8-.59c.33-.18.68-.27 1.07-.27.16 0 .29.02.4.06v1.34a.9.9 0 0 0-.27-.11c-.12-.04-.26-.05-.41-.05-.66 0-1.28.2-1.85.61v4.32l1.52.1v.58h-3.67zm6.59-.37c.08.12.25.23.51.32.26.1.53.14.82.14.46 0 .79-.09 1.01-.26.22-.18.32-.42.32-.73 0-.22-.07-.4-.2-.56-.14-.16-.33-.3-.57-.43s-.59-.27-1.05-.45c-.62-.23-1.07-.51-1.35-.83s-.43-.75-.43-1.28c0-.35.11-.66.32-.92s.5-.47.88-.62.79-.22 1.24-.22c.37 0 .69.03.97.08.28.06.5.11.67.17s.28.09.34.11v1.49H287l-.24-.89c-.05-.1-.18-.18-.38-.25s-.44-.1-.7-.1q-.54 0-.87.24c-.22.16-.33.38-.33.65 0 .24.06.44.17.59.12.16.26.28.44.38s.42.21.72.34l.24.1c.45.18.81.34 1.09.5s.51.37.7.63.28.58.28.95c0 .59-.23 1.06-.69 1.42s-1.09.53-1.89.53c-.39 0-.8-.05-1.23-.16q-.645-.165-1.05-.33V60.3h.78zm5.39-4.26c.3-.53.69-.93 1.17-1.21s1-.41 1.55-.41c1.01 0 1.77.32 2.27.96.51.64.76 1.48.76 2.52 0 .73-.15 1.36-.44 1.88a3.07 3.07 0 0 1-2.72 1.61c-1.01 0-1.77-.32-2.27-.96-.51-.64-.76-1.48-.76-2.52-.01-.72.14-1.35.44-1.87m3.93 3.98c.3-.46.44-1.13.44-2.03 0-.89-.14-1.59-.41-2.11s-.71-.78-1.31-.78c-.55 0-.98.23-1.28.68s-.45 1.13-.45 2.03c0 .89.14 1.59.42 2.11s.72.78 1.31.78c.56 0 .99-.22 1.28-.68m3.64-4.5-.86-.22v-.64l1.72-.22h.04l.25.22v.5l-.01.29c.29-.26.67-.49 1.14-.7s.92-.31 1.36-.31c.5 0 .89.1 1.17.29s.47.49.58.88c.11.4.17.93.17 1.6v3.36l.84.08v.6h-2.84v-.59l.74-.1v-3.37c0-.47-.03-.84-.1-1.11q-.09-.405-.36-.6c-.18-.13-.43-.2-.77-.2-.29 0-.6.07-.92.22s-.62.31-.88.5v4.55l.82.11v.59h-2.83v-.59l.76-.11v-5.03zm8.37 2.27c.75-.36 1.7-.55 2.86-.57v-.34c0-.38-.04-.67-.12-.89s-.22-.37-.41-.47-.47-.15-.83-.15c-.41 0-.77.06-1.1.17-.32.12-.65.26-.97.43l-.3-.62c.1-.09.3-.2.58-.35s.6-.27.97-.38.74-.17 1.1-.17c.57 0 1.02.08 1.35.23.33.16.57.41.71.75s.22.8.22 1.38v3.85h.71v.53c-.16.04-.36.08-.61.12s-.46.06-.64.06c-.22 0-.38-.03-.46-.1s-.12-.22-.12-.45v-.4c-.24.24-.53.46-.88.66s-.74.3-1.18.3c-.58 0-1.05-.17-1.43-.5s-.57-.81-.57-1.43c0-.75.37-1.3 1.12-1.66m2.12 2.59c.27-.13.52-.28.74-.46V58.8c-.87 0-1.53.13-1.97.4s-.67.62-.67 1.05.11.75.32.95.5.31.86.31c.2 0 .44-.06.72-.19m4.6-.08c.08.12.25.23.51.32.26.1.53.14.82.14.46 0 .79-.09 1.01-.26.22-.18.32-.42.32-.73 0-.22-.07-.4-.2-.56-.14-.16-.33-.3-.57-.43s-.59-.27-1.05-.45c-.62-.23-1.07-.51-1.35-.83s-.43-.75-.43-1.28c0-.35.11-.66.32-.92s.5-.47.88-.62.79-.22 1.24-.22c.37 0 .69.03.97.08.28.06.5.11.67.17s.28.09.34.11v1.49h-.73l-.24-.89c-.05-.1-.18-.18-.38-.25s-.44-.1-.7-.1q-.54 0-.87.24c-.22.16-.33.38-.33.65 0 .24.06.44.17.59.12.16.26.28.44.38s.42.21.72.34l.24.1c.45.18.81.34 1.09.5s.51.37.7.63.28.58.28.95c0 .59-.23 1.06-.69 1.42s-1.09.53-1.89.53c-.39 0-.8-.05-1.23-.16q-.645-.165-1.05-.33V60.3h.78z"/>
    <path class="st0" d="M302.58 15.4h119.19v19.92H302.58z"/>
    <path class="st1" d="m318.53 17.47-1.17-.18v-.75h1.96c.31 0 .75-.02 1.33-.06s1.01-.06 1.3-.06c1.86 0 3.24.47 4.15 1.4s1.36 2.25 1.36 3.94c0 1.18-.23 2.23-.7 3.14-.46.92-1.12 1.63-1.96 2.14s-1.81.77-2.9.77q-.36 0-1.23-.06-.9-.06-1.35-.06h-2.05v-.73l1.25-.15v-9.34zm2.94 9.49h.45c.75-.01 1.41-.2 1.99-.57s1.02-.92 1.34-1.66.48-1.63.48-2.68c0-1.58-.34-2.78-1.03-3.6-.68-.82-1.72-1.23-3.1-1.23-.29 0-.63.02-1.03.06-.17.03-.32.04-.45.04v9.51c.35.09.8.13 1.35.13m8.1-.3c-.63-.79-.95-1.85-.95-3.17 0-.87.17-1.63.5-2.29s.79-1.17 1.39-1.53 1.27-.54 2.03-.54c.93 0 1.65.26 2.17.77s.79 1.25.82 2.21c0 .61-.04 1.08-.1 1.4h-5.16c.02.99.25 1.79.69 2.39s1.06.91 1.88.91c.4 0 .82-.07 1.25-.22.44-.15.77-.32 1.01-.52l.29.66q-.435.45-1.29.78t-1.74.33c-1.24.01-2.16-.39-2.79-1.18m4.29-3.94c.03-.21.04-.43.04-.65-.01-.65-.15-1.16-.41-1.54s-.68-.56-1.25-.56c-.58 0-1.04.21-1.39.63s-.54 1.12-.59 2.12zm4.34 3.76c.1.15.31.29.64.41s.67.18 1.03.18q.855 0 1.26-.33c.27-.22.4-.53.4-.92 0-.27-.08-.5-.25-.71s-.41-.38-.71-.53c-.31-.15-.74-.34-1.31-.56-.77-.29-1.33-.64-1.69-1.04s-.53-.94-.53-1.6c0-.44.13-.83.4-1.16s.63-.59 1.1-.77.98-.28 1.55-.28c.46 0 .86.04 1.21.1s.62.14.83.21.35.12.42.13v1.86h-.91l-.3-1.11c-.06-.12-.22-.22-.48-.31-.26-.08-.55-.13-.87-.13-.45 0-.81.1-1.09.3a.96.96 0 0 0-.41.81c0 .3.07.55.22.74.14.2.33.35.55.47s.52.26.9.42l.3.12c.56.22 1.01.43 1.37.63.35.2.64.46.88.79s.35.72.35 1.19c0 .74-.29 1.33-.86 1.77-.58.44-1.36.66-2.36.66-.49 0-1-.07-1.54-.2s-.97-.27-1.31-.41v-1.92h.97zm7.35-5.97-1.14-.27v-.79l2.33-.29h.03l.34.27v7.4l1.2.12v.73h-3.98v-.73l1.22-.14zm-.12-2.92q-.24-.27-.24-.69c0-.32.1-.58.29-.79.2-.21.46-.31.8-.31s.59.09.75.27q.24.27.24.69c0 .34-.1.61-.29.81s-.47.3-.82.3h-.01c-.32-.01-.56-.1-.72-.28m4.75 13.54c-.58-.4-.86-.96-.86-1.67 0-.44.14-.85.41-1.21.28-.37.6-.65.98-.84q-.69-.39-.69-1.26c0-.36.1-.7.31-1.02s.49-.56.83-.73c-.5-.22-.88-.54-1.15-.95-.26-.41-.4-.89-.4-1.46 0-.58.16-1.08.49-1.51s.75-.76 1.29-.99 1.1-.34 1.7-.34q1.515 0 2.37.63c.15-.15.38-.29.69-.44s.64-.21.99-.21h.51v1.32H356q.36.555.36 1.29c0 .59-.15 1.11-.44 1.57s-.71.81-1.23 1.06c-.53.25-1.12.38-1.78.38-.43 0-.81-.04-1.15-.13-.14.14-.25.29-.35.46-.09.17-.13.33-.13.5 0 .36.12.61.36.74.24.14.67.2 1.29.2h1.69c.97 0 1.69.19 2.16.56s.71.89.71 1.57c0 .57-.21 1.09-.62 1.57-.41.47-.96.85-1.66 1.12s-1.45.41-2.26.41c-1.27-.02-2.2-.22-2.77-.62m4.3-.48c.43-.15.79-.36 1.06-.65.27-.28.41-.62.41-1 0-.45-.12-.78-.36-.98-.24-.21-.7-.31-1.39-.31h-1.77c-.4 0-.72-.02-.95-.07-.41.45-.62.95-.62 1.52 0 .56.17.98.51 1.27s.92.44 1.73.44c.48-.01.95-.08 1.38-.22m.29-8.77c0-.67-.15-1.16-.44-1.48-.29-.31-.74-.47-1.33-.47-.55 0-.99.15-1.31.46s-.48.79-.48 1.46c0 .63.15 1.13.46 1.5s.77.56 1.39.56c1.14-.01 1.71-.68 1.71-2.03m9.91 5.77c-.13-.11-.2-.29-.2-.54v-.51c-.33.33-.74.62-1.24.87s-.99.38-1.49.38q-1.395 0-1.98-.75c-.585-.75-.58-1.33-.58-2.48v-4.35l-.84-.24v-.66l2.1-.19h.01l.29.18v5.15c0 .58.04 1.03.13 1.36q.12.48.45.72c.21.16.53.23.94.23.4 0 .77-.08 1.12-.25s.65-.37.92-.6v-5.69l-1.08-.24v-.66l2.28-.19h.02l.34.18v7.56h.9l-.02.68c-.28.07-.52.12-.73.17-.21.04-.44.06-.71.06-.29-.02-.49-.08-.63-.19m4.69-4.29c.94-.44 2.13-.68 3.57-.71v-.42q0-.705-.15-1.11c-.1-.27-.27-.47-.52-.59s-.59-.19-1.04-.19c-.51 0-.97.07-1.37.22s-.81.32-1.21.53l-.38-.78c.13-.11.37-.25.72-.44.35-.18.75-.34 1.21-.48s.92-.21 1.38-.21c.71 0 1.27.1 1.69.29.41.19.71.51.89.94s.27 1 .27 1.73v4.81h.88v.66c-.2.05-.45.1-.76.15s-.57.07-.8.07c-.28 0-.47-.04-.57-.13s-.15-.27-.15-.56v-.5c-.3.3-.67.58-1.1.83-.44.25-.93.38-1.48.38-.72 0-1.32-.21-1.79-.62s-.71-1.01-.71-1.79c.01-.95.48-1.64 1.42-2.08m2.64 3.23q.51-.24.93-.57v-2.58c-1.09 0-1.91.17-2.47.5-.55.34-.83.77-.83 1.31s.13.94.4 1.19c.26.25.62.38 1.07.38.26.01.56-.07.9-.23m5.46-10.1-1.21-.17v-.65l2.42-.29h.03l.33.23v11.21l1.28.12v.73h-4.05v-.73l1.21-.14V16.49zm5.49 10.91c-.5-.3-.9-.76-1.19-1.38s-.44-1.38-.44-2.29c0-.85.17-1.62.53-2.33.35-.7.85-1.25 1.51-1.66.65-.41 1.43-.61 2.32-.61.51 0 .97.05 1.39.17v-2.81l-1.53-.18v-.65l2.7-.27h.04l.33.24v11.28h.87v.69c-.32.07-.6.12-.83.17-.24.04-.48.06-.74.06s-.44-.04-.55-.13-.17-.28-.17-.57v-.48c-.28.34-.65.62-1.1.85s-.95.35-1.48.35c-.61 0-1.16-.15-1.66-.45m3.34-.88c.34-.17.59-.38.76-.61v-5.49c-.08-.12-.27-.23-.56-.32s-.61-.14-.94-.14c-.78 0-1.4.3-1.87.89-.46.6-.7 1.51-.7 2.75 0 1.08.2 1.88.61 2.4q.615.78 1.59.78c.41 0 .77-.08 1.11-.26m5.79-3.16c.94-.44 2.13-.68 3.57-.71v-.42q0-.705-.15-1.11c-.1-.27-.27-.47-.52-.59s-.59-.19-1.04-.19c-.51 0-.97.07-1.37.22s-.81.32-1.21.53l-.37-.79c.13-.11.37-.25.72-.44.35-.18.75-.34 1.21-.48s.92-.21 1.38-.21c.71 0 1.27.1 1.69.29s.71.51.89.94.27 1 .27 1.73v4.81h.89v.66c-.2.05-.45.1-.76.15-.3.05-.57.07-.8.07-.28 0-.47-.04-.57-.13-.1-.08-.15-.27-.15-.56v-.5c-.3.3-.67.58-1.1.83s-.93.38-1.48.38c-.72 0-1.32-.21-1.79-.62-.48-.42-.71-1.01-.71-1.79-.01-.94.46-1.63 1.4-2.07m2.64 3.23q.51-.24.93-.57v-2.58c-1.09 0-1.91.17-2.47.5-.56.34-.83.77-.83 1.31s.13.94.4 1.19.62.38 1.07.38c.26.01.56-.07.9-.23m5.96.81c-.5-.3-.9-.76-1.19-1.38s-.44-1.38-.44-2.29c0-.85.17-1.62.52-2.33.35-.7.85-1.25 1.51-1.66s1.43-.61 2.32-.61c.51 0 .98.05 1.4.17v-2.81l-1.53-.18v-.65l2.7-.27h.04l.33.24v11.28h.87v.69c-.32.07-.6.12-.83.17-.23.04-.48.06-.74.06s-.45-.04-.55-.13c-.11-.09-.17-.28-.17-.57v-.48c-.28.34-.65.62-1.1.85s-.95.35-1.48.35c-.61 0-1.16-.15-1.66-.45m3.34-.88c.34-.17.6-.38.77-.61v-5.49c-.08-.12-.27-.23-.56-.32s-.61-.14-.94-.14c-.78 0-1.4.3-1.87.89-.46.6-.7 1.51-.7 2.75 0 1.08.21 1.88.62 2.4q.615.78 1.59.78c.39 0 .75-.08 1.09-.26"/>
    <path class="st0" d="M34.15 15.4h94.74v19.92H34.15z"/>
    <path class="st1" d="m51.19 17.47-1.4-.18v-.75h4.41v.75l-1.39.18v9.33l1.39.16v.72h-4.39v-.73l1.38-.15zm5.32 13.66c-.58-.4-.86-.96-.86-1.67 0-.44.14-.85.41-1.21.27-.37.6-.65.98-.84q-.69-.39-.69-1.26c0-.36.11-.7.32-1.02s.49-.56.83-.73c-.5-.22-.88-.54-1.15-.95s-.4-.89-.4-1.46c0-.58.16-1.08.49-1.51s.75-.76 1.29-.99 1.1-.34 1.7-.34q1.515 0 2.37.63c.15-.15.38-.29.69-.44q.465-.21.99-.21h.51v1.32h-1.65q.36.555.36 1.29c0 .59-.15 1.11-.44 1.57-.3.46-.71.81-1.23 1.06s-1.12.38-1.78.38c-.43 0-.82-.04-1.16-.13-.14.14-.25.29-.34.46s-.13.33-.13.5c0 .36.12.61.36.74.24.14.67.2 1.29.2h1.7c.97 0 1.69.19 2.16.56s.71.89.71 1.57c0 .57-.21 1.09-.62 1.57-.41.47-.96.85-1.66 1.12s-1.45.41-2.26.41c-1.29-.02-2.22-.22-2.79-.62m4.3-.48c.43-.15.79-.36 1.06-.65.27-.28.41-.62.41-1 0-.45-.12-.78-.36-.98s-.71-.31-1.39-.31h-1.77c-.4 0-.71-.02-.95-.07-.41.45-.61.95-.61 1.52 0 .56.17.98.51 1.27s.92.44 1.72.44c.48-.01.95-.08 1.38-.22m.29-8.77c0-.67-.15-1.16-.44-1.48-.29-.31-.74-.47-1.33-.47-.55 0-.99.15-1.3.46-.32.31-.48.79-.48 1.46 0 .63.15 1.13.46 1.5.3.37.77.56 1.39.56 1.13-.01 1.7-.68 1.7-2.03m9.91 5.77c-.13-.11-.2-.29-.2-.54v-.51c-.33.33-.74.62-1.24.87s-.99.38-1.49.38q-1.395 0-1.98-.75c-.39-.5-.58-1.33-.58-2.48v-4.35l-.84-.24v-.66l2.1-.19h.01l.29.18v5.15c0 .58.04 1.03.13 1.36.08.32.24.56.45.72s.53.23.94.23c.4 0 .78-.08 1.12-.25s.66-.37.92-.6v-5.69l-1.08-.24v-.66l2.28-.19h.01l.35.18v7.56h.9l-.01.68c-.28.07-.52.12-.73.17-.21.04-.44.06-.71.06-.3-.02-.51-.08-.64-.19m4.69-4.29c.94-.44 2.13-.68 3.57-.71v-.42q0-.705-.15-1.11c-.1-.27-.27-.47-.52-.59s-.59-.19-1.04-.19c-.51 0-.97.07-1.37.22s-.81.32-1.21.53l-.38-.79c.13-.11.37-.25.72-.44.35-.18.75-.34 1.21-.48s.92-.21 1.38-.21c.71 0 1.27.1 1.69.29s.71.51.89.94.27 1 .27 1.73v4.81h.89v.66c-.2.05-.45.1-.76.15-.3.05-.57.07-.8.07-.28 0-.47-.04-.57-.13-.1-.08-.15-.27-.15-.56v-.5c-.3.3-.67.58-1.1.83s-.93.38-1.48.38c-.72 0-1.32-.21-1.79-.62-.48-.42-.71-1.01-.71-1.79q0-1.41 1.41-2.07m2.64 3.23q.51-.24.93-.57v-2.58c-1.09 0-1.91.17-2.47.5-.56.34-.83.77-.83 1.31s.13.94.4 1.19.62.38 1.07.38c.26.01.56-.07.9-.23m5.46-10.1-1.21-.17v-.65L85 15.4h.03l.33.23v11.21l1.27.12v.73h-4.05v-.73l1.21-.14V16.49zm5.49 10.91c-.5-.3-.9-.76-1.19-1.38s-.44-1.38-.44-2.29c0-.85.17-1.62.52-2.33.35-.7.85-1.25 1.51-1.66s1.43-.61 2.32-.61c.51 0 .98.05 1.4.17v-2.81l-1.53-.18v-.65l2.7-.27h.04l.33.24v11.28h.87v.69c-.32.07-.6.12-.83.17-.23.04-.48.06-.74.06s-.45-.04-.55-.13c-.11-.09-.17-.28-.17-.57v-.48c-.28.34-.65.62-1.1.85s-.95.35-1.48.35c-.61 0-1.16-.15-1.66-.45m3.34-.88c.34-.17.6-.38.77-.61v-5.49c-.08-.12-.27-.23-.56-.32s-.61-.14-.94-.14c-.78 0-1.4.3-1.87.89-.46.6-.7 1.51-.7 2.75 0 1.08.21 1.88.62 2.4q.615.78 1.59.78c.39 0 .75-.08 1.09-.26m5.79-3.16c.94-.44 2.13-.68 3.57-.71v-.42q0-.705-.15-1.11c-.1-.27-.27-.47-.52-.59s-.59-.19-1.04-.19c-.51 0-.97.07-1.37.22s-.81.32-1.21.53l-.38-.78c.13-.11.37-.25.72-.44.35-.18.75-.34 1.21-.48s.92-.21 1.38-.21c.71 0 1.27.1 1.69.29.41.19.71.51.89.94s.27 1 .27 1.73v4.81h.88v.66c-.2.05-.45.1-.76.15s-.57.07-.8.07c-.28 0-.47-.04-.57-.13s-.15-.27-.15-.56v-.5c-.3.3-.67.58-1.1.83-.44.25-.93.38-1.48.38-.72 0-1.32-.21-1.79-.62S97 26.22 97 25.44c.01-.95.48-1.64 1.42-2.08m2.64 3.23q.51-.24.93-.57v-2.58c-1.09 0-1.91.17-2.47.5-.55.34-.83.77-.83 1.31s.13.94.4 1.19c.26.25.62.38 1.07.38.26.01.56-.07.9-.23m5.96.81c-.5-.3-.9-.76-1.19-1.38s-.44-1.38-.44-2.29c0-.85.17-1.62.53-2.33.35-.7.85-1.25 1.51-1.66.65-.41 1.43-.61 2.32-.61.51 0 .97.05 1.39.17v-2.81l-1.53-.18v-.65l2.7-.27h.04l.33.24v11.28h.87v.69c-.32.07-.6.12-.83.17-.24.04-.48.06-.74.06s-.44-.04-.55-.13-.17-.28-.17-.57v-.48c-.28.34-.65.62-1.1.85s-.95.35-1.48.35c-.61 0-1.16-.15-1.66-.45m3.34-.88c.34-.17.59-.38.76-.61v-5.49c-.08-.12-.27-.23-.56-.32s-.61-.14-.94-.14c-.78 0-1.4.3-1.87.89-.46.6-.7 1.51-.7 2.75 0 1.08.2 1.88.61 2.4q.615.78 1.59.78c.41 0 .77-.08 1.11-.26"/>
    <path class="st0" d="M37.42 52.32h96.36v14.83H37.42z"/>
    <path class="st1" d="M43.96 55.96c-.17.06-.43.14-.79.23s-.65.15-.88.18l-.12-.67c.41-.09.83-.24 1.25-.44.43-.21.79-.44 1.07-.68h.01l.73.12v6.77l1.49.11v.59H42.4v-.59l1.55-.11v-5.51zm7.38 5.23c-.51-.71-.76-1.62-.76-2.74 0-.78.14-1.47.43-2.06s.68-1.04 1.18-1.35 1.04-.47 1.63-.47c1.04 0 1.8.33 2.28 1s.72 1.58.72 2.74c0 .78-.14 1.46-.41 2.06-.28.6-.66 1.06-1.14 1.39s-1.03.49-1.63.49c-1.03.01-1.8-.35-2.3-1.06m4.13-2.75c0-1.04-.13-1.84-.4-2.4s-.72-.84-1.35-.84c-.62 0-1.07.27-1.37.8s-.44 1.29-.44 2.29c0 1.02.14 1.83.43 2.44.28.61.73.92 1.35.92 1.18-.01 1.78-1.07 1.78-3.21m3.58 2.75c-.51-.71-.76-1.62-.76-2.74 0-.78.14-1.47.43-2.06s.68-1.04 1.18-1.35 1.04-.47 1.63-.47c1.04 0 1.8.33 2.28 1s.72 1.58.72 2.74c0 .78-.14 1.46-.41 2.06-.28.6-.66 1.06-1.14 1.39s-1.03.49-1.63.49c-1.02.01-1.79-.35-2.3-1.06m4.14-2.75c0-1.04-.13-1.84-.4-2.4s-.72-.84-1.35-.84c-.62 0-1.07.27-1.37.8s-.44 1.29-.44 2.29c0 1.02.14 1.83.43 2.44.28.61.73.92 1.35.92 1.18-.01 1.78-1.07 1.78-3.21m3.58 2.75c-.51-.71-.76-1.62-.76-2.74 0-.78.14-1.47.43-2.06s.68-1.04 1.18-1.35 1.04-.47 1.63-.47c1.04 0 1.8.33 2.28 1s.72 1.58.72 2.74c0 .78-.14 1.46-.41 2.06-.28.6-.66 1.06-1.14 1.39s-1.03.49-1.63.49c-1.03.01-1.79-.35-2.3-1.06m4.13-2.75c0-1.04-.13-1.84-.4-2.4s-.72-.84-1.35-.84c-.62 0-1.07.27-1.37.8s-.44 1.29-.44 2.29c0 1.02.14 1.83.43 2.44.28.61.73.92 1.35.92 1.19-.01 1.78-1.07 1.78-3.21m11.53 2.01c-.28.56-.68 1.01-1.2 1.34s-1.13.49-1.82.49c-.19 0-.4-.02-.62-.05q-.33-.045-.54-.12l.04 1.01v1.21l1.25.13v.59h-3.35v-.59l.86-.13v-7.92l-.88-.22v-.65l1.7-.22h.02l.25.22v.71c.24-.26.54-.49.89-.67.36-.18.75-.28 1.19-.28.47 0 .91.12 1.3.35.4.23.71.59.95 1.08s.36 1.1.36 1.85c.02.68-.12 1.31-.4 1.87m-3.54-4.11c-.26.13-.47.27-.61.42v4.52c.06.1.2.18.43.26s.48.11.75.11c.62 0 1.11-.24 1.49-.73s.57-1.22.57-2.21c0-.86-.17-1.51-.5-1.93s-.76-.64-1.28-.64c-.3.01-.58.07-.85.2m5.75 4.99c-.51-.63-.76-1.48-.76-2.53 0-.7.13-1.31.4-1.84.26-.53.63-.94 1.11-1.22.48-.29 1.02-.43 1.63-.43.74 0 1.32.21 1.73.62s.63 1 .65 1.77c0 .49-.03.86-.08 1.12h-4.13c.02.79.2 1.43.55 1.91s.85.73 1.5.73c.32 0 .65-.06 1-.17.35-.12.62-.25.81-.41l.23.53c-.23.24-.58.45-1.03.62-.46.18-.92.26-1.39.26q-1.47-.015-2.22-.96m3.43-3.15c.02-.17.04-.34.04-.52q-.015-.78-.33-1.23c-.21-.3-.55-.45-1-.45-.46 0-.83.17-1.11.5s-.43.9-.47 1.69h2.87zm2.38 3.38.9-.07v-5.08l-.86-.22v-.65l1.66-.22h.02l.26.22v.22l-.04.94h.04c.08-.14.22-.31.43-.53s.48-.41.8-.59c.33-.18.68-.27 1.07-.27.16 0 .29.02.4.06v1.34a.9.9 0 0 0-.27-.11c-.12-.04-.26-.05-.41-.05-.66 0-1.28.2-1.85.61v4.32l1.52.1v.58h-3.67zm6.59-.37c.08.12.25.23.51.32.26.1.53.14.82.14.46 0 .79-.09 1.01-.26.22-.18.32-.42.32-.73 0-.22-.07-.4-.2-.56-.14-.16-.33-.3-.57-.43s-.59-.27-1.05-.45c-.62-.23-1.07-.51-1.35-.83s-.43-.75-.43-1.28c0-.35.11-.66.32-.92s.5-.47.88-.62.79-.22 1.24-.22c.37 0 .69.03.97.08.28.06.5.11.67.17s.28.09.34.11v1.49h-.73l-.24-.89c-.05-.1-.18-.18-.38-.25s-.44-.1-.7-.1q-.54 0-.87.24c-.22.16-.33.38-.33.65 0 .24.06.44.17.59.12.16.26.28.44.38s.42.21.72.34l.24.1c.45.18.81.34 1.09.5s.51.37.7.63.28.58.28.95c0 .59-.23 1.06-.69 1.42s-1.09.53-1.89.53c-.39 0-.8-.05-1.23-.16q-.645-.165-1.05-.33v-1.54h.78zm5.39-4.26c.3-.53.69-.93 1.17-1.21s1-.41 1.55-.41c1.01 0 1.77.32 2.27.96.51.64.76 1.48.76 2.52 0 .73-.15 1.36-.44 1.88s-.69.93-1.17 1.2-1 .41-1.55.41c-1.01 0-1.77-.32-2.27-.96-.51-.64-.76-1.48-.76-2.52-.01-.72.14-1.34.44-1.87m3.93 3.98c.3-.46.44-1.13.44-2.03 0-.89-.14-1.59-.41-2.11s-.71-.78-1.31-.78c-.55 0-.98.23-1.28.68-.3.46-.45 1.13-.45 2.03 0 .89.14 1.59.42 2.11s.72.78 1.31.78c.56.01.99-.22 1.28-.68m3.64-4.5-.86-.22v-.65l1.72-.22h.04l.25.22v.5l-.01.29c.29-.26.67-.49 1.14-.7s.92-.31 1.36-.31c.5 0 .89.1 1.17.29s.47.49.58.88c.11.4.17.93.17 1.6v3.36l.84.08v.6h-2.84v-.59l.74-.1v-3.37c0-.47-.03-.84-.1-1.11q-.09-.405-.36-.6c-.18-.13-.43-.2-.77-.2-.29 0-.6.07-.92.22s-.62.31-.88.5v4.55l.82.11v.59h-2.83v-.59l.76-.11v-5.02zm8.37 2.28c.75-.36 1.7-.55 2.86-.57v-.34c0-.38-.04-.67-.12-.89a.83.83 0 0 0-.41-.47c-.2-.1-.47-.15-.83-.15-.41 0-.77.06-1.1.17-.32.12-.65.26-.97.43l-.3-.62c.1-.09.3-.2.58-.35.28-.14.6-.27.97-.38s.74-.17 1.1-.17c.57 0 1.02.08 1.35.23.33.16.57.41.71.75s.22.8.22 1.38v3.85h.71v.53c-.16.04-.36.08-.61.12-.24.04-.46.06-.64.06-.22 0-.38-.03-.46-.1s-.12-.22-.12-.45v-.4c-.24.24-.53.46-.88.66s-.74.3-1.18.3c-.58 0-1.05-.17-1.43-.5s-.57-.81-.57-1.43c0-.75.37-1.31 1.12-1.66m2.12 2.58c.27-.13.52-.28.74-.46v-2.06c-.87 0-1.53.13-1.97.4s-.67.62-.67 1.05.11.75.32.95.5.31.86.31c.2 0 .44-.06.72-.19m4.6-.08c.08.12.25.23.51.32.26.1.53.14.82.14.46 0 .79-.09 1.01-.26.22-.18.32-.42.32-.73 0-.22-.07-.4-.2-.56-.14-.16-.33-.3-.57-.43s-.59-.27-1.05-.45c-.62-.23-1.07-.51-1.35-.83s-.43-.75-.43-1.28c0-.35.11-.66.32-.92s.5-.47.88-.62.79-.22 1.24-.22c.37 0 .69.03.97.08.28.06.5.11.67.17s.28.09.34.11v1.49h-.73l-.24-.89c-.05-.1-.18-.18-.38-.25s-.44-.1-.7-.1q-.54 0-.87.24c-.22.16-.33.38-.33.65 0 .24.06.44.17.59.12.16.26.28.44.38s.42.21.72.34l.24.1c.45.18.81.34 1.09.5s.51.37.7.63.28.58.28.95c0 .59-.23 1.06-.69 1.42-.46.35-1.09.53-1.89.53-.39 0-.8-.05-1.23-.16q-.645-.165-1.05-.33v-1.54h.78z"/>
    <g id="comma_to_empty">
      <circle class="st4" cx="85.97" cy="161.5" r="2.04"/>
      <path class="st4" d="M85.97 160.46a1.04 1.04 0 1 1 .002 2.078 1.04 1.04 0 0 1-.002-2.078m0-2c-1.68 0-3.04 1.37-3.04 3.04s1.37 3.04 3.04 3.04 3.04-1.37 3.04-3.04-1.36-3.04-3.04-3.04m189.43 4.86c-1.13 0-2.04-.92-2.04-2.04 0-1.13.92-2.04 2.04-2.04s2.04.92 2.04 2.04c.01 1.12-.91 2.04-2.04 2.04"/>
      <path class="st4" d="M275.4 160.23a1.04 1.04 0 1 1 .002 2.078 1.04 1.04 0 0 1-.002-2.078m0-2c-1.68 0-3.04 1.37-3.04 3.04s1.37 3.04 3.04 3.04c1.68 0 3.04-1.37 3.04-3.04s-1.36-3.04-3.04-3.04m173.47 5.21c-1.13 0-2.04-.92-2.04-2.04 0-1.13.92-2.04 2.04-2.04s2.04.92 2.04 2.04c0 1.13-.91 2.04-2.04 2.04"/>
      <path class="st4" d="M448.87 160.36a1.04 1.04 0 1 1 .002 2.078 1.04 1.04 0 0 1-.002-2.078m0-2c-1.68 0-3.04 1.37-3.04 3.04s1.37 3.04 3.04 3.04c1.68 0 3.04-1.37 3.04-3.04s-1.36-3.04-3.04-3.04"/>
    </g>
  </g>
  <g id="Board_1"/>
  <g id="Board_1_-_Spanish"/>
</svg>
