<svg xmlns="http://www.w3.org/2000/svg" xmlns:xlink="http://www.w3.org/1999/xlink" viewBox="0 0 562.06 274.78" xml:space="preserve">
  <style>
    .st0{fill:none}.st1{fill:#0c3958}.st4{fill:#fff}.st16{fill:#a2c617}.st23{fill:#878787}.st24,.st25,.st26{fill:none;stroke:#0c3958;stroke-width:.5;stroke-miterlimit:10}.st25{stroke-dasharray:12.1996,12.1996}.st26{stroke-dasharray:12.3923,12.3923}.st27{fill:#676766}
  </style>
  <g id="Board_4"/>
  <g id="Board_3_-_German">
    <path class="st0" d="M24.28 12.49h172.15v19.92H24.28z"/>
    <path class="st1" d="M47.64 24.8q-.615-.135-1.35-.36c-.3-.11-.52-.17-.67-.18l.12-2.72h.96l.26 1.95c.17.16.45.3.83.43.38.12.81.19 1.27.19.76 0 1.34-.17 1.73-.51s.59-.81.59-1.41c0-.39-.11-.72-.32-1.01-.22-.28-.5-.52-.85-.72-.36-.2-.84-.43-1.46-.7-.56-.25-1.05-.51-1.46-.77s-.77-.61-1.08-1.04-.46-.96-.46-1.57c0-.55.15-1.04.44-1.48.29-.43.72-.78 1.27-1.03s1.2-.38 1.94-.38c.46 0 .87.04 1.22.11s.76.16 1.21.29c.2.07.37.12.51.13l-.09 2.52h-.92l-.3-1.84c-.1-.1-.31-.19-.62-.29-.31-.09-.66-.13-1.03-.13-.69 0-1.21.15-1.57.43-.35.29-.53.71-.53 1.26 0 .4.11.74.32 1.01s.48.5.8.69q.48.285 1.53.78.975.465 1.59.84c.41.25.76.58 1.06.98s.44.89.44 1.45c0 .53-.15 1.04-.44 1.53s-.75.89-1.35 1.21-1.34.47-2.2.47c-.52.01-.98-.04-1.39-.13m7.8-7.2-1.14-.27v-.79l2.32-.29h.03l.35.27v7.39l1.2.12v.74h-3.98v-.74l1.22-.14zm-.12-2.92q-.24-.27-.24-.69c0-.32.1-.59.29-.79.2-.21.46-.32.8-.32q.51 0 .75.27t.24.69c0 .34-.1.61-.29.81s-.47.3-.82.3h-.02c-.31 0-.55-.09-.71-.27m4.25 3.73c.32-.67.8-1.2 1.44-1.6s1.4-.59 2.29-.59q.645 0 1.11.12t1.11.33l-.06 2.31h-.98l-.33-1.53q-.09-.42-1.14-.42c-.7 0-1.25.28-1.66.85-.41.56-.61 1.37-.61 2.41 0 1.18.23 2.08.68 2.69s1.05.92 1.78.92c.42 0 .82-.06 1.19-.19s.7-.29.97-.46l.29.6c-.27.28-.67.53-1.19.76s-1.06.34-1.6.34c-.82 0-1.51-.18-2.08-.55-.56-.37-.99-.88-1.27-1.52-.28-.65-.43-1.38-.43-2.2 0-.85.16-1.6.49-2.27m8.2-4.83-1.26-.17v-.64l2.44-.29h.03l.33.22v3.48l-.06 1.27c.32-.29.76-.56 1.32-.83a4 4 0 0 1 1.69-.39q.945 0 1.47.36c.35.24.59.61.73 1.1.14.5.21 1.16.21 2v4.18l1.05.14v.74h-3.58v-.74l.97-.14v-4.2c0-.59-.04-1.05-.12-1.39q-.12-.495-.45-.75c-.22-.17-.55-.25-.99-.25-.36 0-.74.09-1.15.27s-.77.39-1.08.63v5.68l1.04.14v.74h-3.5V24l.9-.12v-10.3zm9.99 10.17c-.64-.79-.95-1.84-.95-3.17 0-.87.17-1.63.5-2.29s.79-1.17 1.39-1.53 1.27-.54 2.03-.54c.93 0 1.65.26 2.17.77.51.51.79 1.25.82 2.21 0 .61-.04 1.08-.1 1.4h-5.16c.02.99.25 1.79.69 2.39s1.06.91 1.88.91c.4 0 .82-.07 1.25-.22s.77-.32 1.01-.52l.29.66q-.435.45-1.29.78t-1.74.33c-1.23.01-2.15-.39-2.79-1.18m4.3-3.94c.03-.21.04-.43.04-.65-.01-.65-.15-1.16-.41-1.54s-.68-.56-1.25-.56c-.58 0-1.04.21-1.39.63s-.54 1.12-.59 2.12zm2.97 4.23 1.12-.09V17.6l-1.08-.27v-.81l2.07-.27h.03l.33.27v.27l-.05 1.17h.05q.15-.255.54-.66c.26-.27.59-.52 1-.74s.85-.34 1.33-.34c.2 0 .36.03.5.08v1.68c-.07-.05-.18-.1-.34-.14-.15-.04-.33-.07-.52-.07-.83 0-1.6.26-2.31.77v5.4l1.9.12v.72h-4.59v-.74zm7.76-.29c-.64-.79-.95-1.84-.95-3.17 0-.87.17-1.63.5-2.29s.79-1.17 1.39-1.53 1.27-.54 2.03-.54c.93 0 1.65.26 2.17.77.51.51.79 1.25.82 2.21 0 .61-.04 1.08-.1 1.4h-5.16c.02.99.25 1.79.69 2.39s1.06.91 1.88.91c.4 0 .82-.07 1.25-.22s.77-.32 1.01-.52l.29.66q-.435.45-1.29.78t-1.74.33c-1.23.01-2.15-.39-2.79-1.18m4.3-3.94c.03-.21.04-.43.04-.65-.01-.65-.15-1.16-.41-1.54s-.68-.56-1.25-.56c-.58 0-1.04.21-1.39.63s-.54 1.12-.59 2.12zm4.33 3.76c.1.15.31.29.64.41.32.12.67.18 1.03.18q.855 0 1.26-.33c.27-.22.4-.53.4-.92 0-.27-.08-.5-.25-.71-.17-.2-.41-.38-.71-.53-.31-.16-.74-.34-1.31-.56-.77-.29-1.33-.64-1.69-1.04-.35-.4-.53-.94-.53-1.6 0-.44.13-.82.4-1.15s.63-.59 1.1-.77c.46-.18.98-.28 1.55-.28.46 0 .86.04 1.21.11s.62.14.83.21.35.12.42.13v1.86h-.91l-.3-1.11c-.06-.12-.22-.22-.48-.31-.26-.08-.55-.13-.87-.13-.45 0-.81.1-1.09.3s-.41.47-.41.81c0 .3.07.55.22.74.14.2.33.35.55.47q.33.18.9.42l.3.12c.56.22 1.01.43 1.36.63s.64.46.88.79.35.72.35 1.19c0 .74-.29 1.33-.86 1.77-.58.44-1.36.66-2.36.66-.49 0-1-.07-1.54-.2s-.97-.27-1.31-.41V22.4h.97zm11-9.01-1.23-.18v-.75h7.63l.21 2.33h-.85l-.44-1.46-3.72-.09v4.23l2.5-.05.21-1.25h.83v3.45h-.83l-.21-1.29-2.5-.04v4.47l4.23-.15.79-1.89.89.27-.44 2.61h-8.33v-.74l1.25-.15v-9.32zm8.53 9.48 1.12-.09V17.6l-1.07-.27v-.81l2.07-.27h.03l.33.27v.27l-.05 1.17h.05q.15-.255.54-.66c.26-.27.59-.52 1-.74s.85-.34 1.33-.34c.2 0 .36.03.5.08v1.68c-.07-.05-.18-.1-.34-.14-.15-.04-.33-.07-.52-.07-.83 0-1.6.26-2.31.77v5.4l1.9.12v.72h-4.59v-.74zm7.65 4.17c-.58-.4-.86-.96-.86-1.67 0-.44.14-.85.41-1.21.27-.37.6-.65.98-.84q-.69-.39-.69-1.26c0-.36.1-.7.31-1.02s.49-.57.83-.74c-.5-.22-.88-.54-1.15-.95s-.4-.89-.4-1.46c0-.58.16-1.08.49-1.51s.75-.76 1.29-.99 1.1-.35 1.7-.35q1.515 0 2.37.63c.15-.15.38-.29.69-.44q.465-.21.99-.21h.51v1.32h-1.65q.36.555.36 1.29c0 .59-.15 1.11-.44 1.57-.3.46-.71.81-1.23 1.06-.53.25-1.12.38-1.78.38-.43 0-.81-.04-1.15-.13-.14.14-.25.29-.35.46-.09.17-.13.33-.13.49 0 .36.12.61.36.74.24.14.67.2 1.29.2h1.69c.97 0 1.69.19 2.16.55.47.37.71.89.71 1.58 0 .57-.21 1.09-.62 1.57s-.96.85-1.66 1.12c-.7.28-1.45.41-2.26.41-1.27.02-2.2-.18-2.77-.59m4.3-.48c.43-.15.79-.36 1.06-.65.27-.28.41-.62.41-1 0-.45-.12-.78-.36-.98-.24-.21-.7-.31-1.39-.31h-1.77c-.4 0-.72-.03-.95-.07-.41.45-.61.95-.61 1.51s.17.99.51 1.27c.34.29.92.44 1.73.44.47.01.94-.06 1.37-.21m.29-8.76c0-.67-.15-1.16-.44-1.48-.29-.31-.74-.47-1.33-.47-.55 0-.99.15-1.31.46s-.48.79-.48 1.46c0 .63.15 1.13.46 1.5.3.37.77.56 1.39.56 1.14-.01 1.71-.68 1.71-2.03m4.63 4.78c-.64-.79-.95-1.84-.95-3.17 0-.87.17-1.63.5-2.29s.79-1.17 1.39-1.53 1.27-.54 2.03-.54c.93 0 1.65.26 2.17.77.51.51.79 1.25.82 2.21 0 .61-.04 1.08-.1 1.4h-5.16c.02.99.25 1.79.69 2.39s1.06.91 1.88.91c.4 0 .82-.07 1.25-.22s.77-.32 1.01-.52l.29.66q-.435.45-1.29.78t-1.74.33c-1.23.01-2.15-.39-2.79-1.18m4.3-3.94c.03-.21.04-.43.04-.65-.01-.65-.15-1.16-.41-1.54s-.68-.56-1.25-.56c-.58 0-1.04.21-1.39.63s-.54 1.12-.59 2.12zm2.23-7.04 2.4-.29h.03l.35.22v4.52c.3-.29.66-.53 1.07-.72.42-.19.88-.29 1.39-.29.6 0 1.15.15 1.64.44s.89.74 1.19 1.35c.29.61.44 1.38.44 2.31 0 .86-.18 1.64-.53 2.34s-.86 1.25-1.52 1.66-1.42.62-2.29.62c-.69 0-1.32-.07-1.89-.2s-.92-.26-1.03-.37v-10.8l-1.23-.17v-.62zm3.57 4.78c-.33.17-.59.37-.79.59v5.52c.06.14.23.25.52.34.28.09.61.13.97.13q1.155 0 1.86-.93c.47-.62.71-1.52.71-2.71 0-1.07-.21-1.87-.61-2.4-.41-.53-.94-.79-1.59-.79-.4-.01-.75.07-1.07.25m7.14.05-1.08-.27v-.81l2.15-.27h.04l.31.27v.63l-.02.36c.36-.32.83-.61 1.43-.87.59-.26 1.15-.39 1.69-.39.63 0 1.12.12 1.46.36.35.24.59.61.73 1.1.14.5.21 1.16.21 2v4.2l1.05.11v.75h-3.56v-.74l.93-.12V19.7c0-.59-.04-1.05-.12-1.39s-.23-.58-.45-.75-.54-.25-.96-.25c-.36 0-.75.09-1.15.27-.41.18-.78.39-1.1.63v5.68l1.02.14v.74h-3.54v-.74l.95-.14V17.6zm10.23 0-1.14-.27v-.79l2.32-.29h.03l.34.27v7.39l1.2.12v.74h-3.98v-.74l1.22-.14V17.6zm-.12-2.92q-.24-.27-.24-.69c0-.32.1-.59.29-.79.2-.21.46-.32.8-.32q.51 0 .75.27t.24.69c0 .34-.1.61-.29.81s-.47.3-.82.3h-.02c-.31 0-.55-.09-.71-.27m5.34 8.89c.1.15.31.29.64.41.32.12.67.18 1.03.18q.855 0 1.26-.33c.27-.22.4-.53.4-.92 0-.27-.08-.5-.25-.71-.17-.2-.41-.38-.71-.53-.31-.16-.74-.34-1.31-.56-.77-.29-1.33-.64-1.69-1.04-.35-.4-.53-.94-.53-1.6 0-.44.13-.82.4-1.15s.63-.59 1.1-.77c.46-.18.98-.28 1.55-.28.46 0 .86.04 1.21.11s.62.14.83.21.35.12.42.13v1.86h-.91l-.3-1.11c-.06-.12-.22-.22-.48-.31-.26-.08-.55-.13-.87-.13-.45 0-.81.1-1.09.3s-.41.47-.41.81c0 .3.07.55.22.74.14.2.33.35.55.47q.33.18.9.42l.3.12c.56.22 1.01.43 1.36.63s.64.46.88.79.35.72.35 1.19c0 .74-.29 1.33-.86 1.77-.58.44-1.36.66-2.36.66-.49 0-1-.07-1.54-.2s-.97-.27-1.31-.41V22.4h.97z"/>
    <path class="st0" d="M263.72 12.25h233.39v17.67H263.72z"/>
    <path class="st1" d="m324.92 23.8 1.25-.15v-9.33l-1.17-.2v-.73h1.96q.42 0 1.14-.06.75-.06 1.17-.06c1.47 0 2.52.24 3.14.71.62.48.94 1.22.94 2.24 0 .71-.2 1.36-.59 1.95-.4.59-.94.99-1.63 1.2.32.17.62.46.89.88.28.42.61.99 1.01 1.73.31.56.55.97.71 1.23.17.26.32.4.47.43l.58.15v.73h-2.07c-.16 0-.34-.17-.54-.52-.2-.34-.46-.88-.79-1.6-.36-.79-.67-1.42-.94-1.88s-.53-.76-.79-.89c-1.07 0-1.71 0-1.9-.01v4.02l1.48.15v.73h-4.33v-.72zm6.15-5.6c.37-.42.55-1.04.55-1.88 0-.73-.19-1.29-.56-1.67s-1.02-.58-1.94-.58q-.48 0-.96.06-.3.03-.39.03v4.65c.15.01.46.01.93.01h.86c.63.01 1.14-.2 1.51-.62m5.56-.84-1.14-.27v-.79l2.33-.29h.03l.34.27v7.4l1.2.12v.73h-3.98v-.73l1.22-.14zm-.12-2.92q-.24-.27-.24-.69c0-.32.1-.58.29-.79.2-.21.46-.31.8-.31s.59.09.75.27q.24.27.24.69c0 .34-.1.61-.29.81s-.47.3-.82.3h-.01c-.32-.01-.56-.1-.72-.28m5.34 8.89c.1.15.31.29.64.41.32.12.67.18 1.03.18q.855 0 1.26-.33c.27-.22.41-.53.41-.92 0-.27-.08-.5-.25-.71-.17-.2-.41-.38-.71-.53s-.74-.34-1.31-.56c-.77-.29-1.33-.64-1.69-1.04s-.53-.94-.53-1.6c0-.44.13-.83.4-1.16.26-.33.63-.59 1.09-.77s.98-.28 1.55-.28c.46 0 .86.04 1.21.11s.62.14.83.21.35.12.42.13v1.86h-.92l-.3-1.11c-.06-.12-.22-.22-.48-.31s-.55-.13-.87-.13c-.45 0-.81.1-1.09.3s-.41.47-.41.81c0 .3.07.55.22.74.14.2.33.35.55.47q.33.18.9.42l.3.12c.56.22 1.01.43 1.36.63s.64.46.88.79c.23.33.35.72.35 1.19 0 .74-.29 1.33-.86 1.77-.58.44-1.36.66-2.36.66-.49 0-1-.07-1.54-.2s-.97-.27-1.31-.41v-1.92h.97zm6.98-9.99-1.17-.17v-.65l2.38-.29h.02l.33.23v7.33l-.03.88 3.46-3.58-1.12-.21v-.69h3.63v.69l-1.18.21-2.21 2.15 2.85 4.42.93.12v.73h-3.64v-.71l.95-.14-2.12-3.48-1.54 1.53.03.76v1.18l1.07.14v.73h-3.57v-.72l.95-.14V13.34zm9.61 6.86c.94-.45 2.13-.68 3.57-.71v-.42q0-.705-.15-1.11c-.1-.27-.27-.47-.52-.59s-.59-.19-1.04-.19c-.51 0-.97.07-1.37.22-.41.14-.81.32-1.21.53l-.38-.78c.13-.11.37-.25.72-.43s.75-.34 1.21-.48q.69-.21 1.38-.21c.71 0 1.27.1 1.69.29s.71.51.89.94.27 1 .27 1.72v4.82h.89v.66c-.2.05-.45.1-.76.15s-.57.08-.8.08c-.28 0-.47-.04-.57-.13-.1-.08-.15-.27-.15-.56v-.5c-.3.3-.67.58-1.1.83s-.93.38-1.48.38c-.72 0-1.32-.21-1.79-.62-.48-.42-.71-1.01-.71-1.79 0-.96.47-1.65 1.41-2.1m2.64 3.24q.51-.24.93-.57v-2.58c-1.09 0-1.91.17-2.47.5s-.83.77-.83 1.31.13.94.4 1.19.62.38 1.07.38c.26.01.56-.07.9-.23m5.27-6.08-1.08-.27v-.81l2.14-.27h.04l.32.27v.63l-.02.36c.36-.32.83-.61 1.43-.87.59-.26 1.15-.39 1.69-.39.63 0 1.12.12 1.46.36s.59.61.73 1.1c.14.5.21 1.16.21 2v4.2l1.05.1v.75h-3.55v-.72l.93-.12v-4.21c0-.59-.04-1.05-.12-1.39s-.23-.58-.45-.75-.54-.25-.96-.25c-.36 0-.75.09-1.15.27-.41.18-.78.39-1.1.63v5.68l1.02.14v.73h-3.54v-.73l.95-.14zm10.35 6.93c-.28-.26-.42-.7-.42-1.33V17.2h-1.08v-.67c.05-.01.19-.04.42-.11.23-.06.38-.11.46-.16.16-.09.29-.27.38-.54.08-.19.17-.5.29-.92s.17-.67.2-.75h.88l.03 2.16h2.5v.99h-2.5v4.61c0 .57.02.97.05 1.2.04.23.11.38.23.45.11.07.31.11.59.11.27 0 .57-.04.89-.11.33-.07.58-.14.76-.22l.23.67c-.24.18-.63.36-1.16.53s-1.02.25-1.46.25c-.59-.01-1.02-.14-1.29-.4m5.73-.78c-.63-.79-.95-1.85-.95-3.17 0-.87.17-1.63.5-2.29s.79-1.17 1.39-1.53 1.27-.54 2.03-.54c.93 0 1.65.26 2.17.77.51.52.79 1.25.82 2.21 0 .61-.04 1.08-.1 1.39h-5.16c.02.99.25 1.79.69 2.39.44.61 1.06.91 1.88.91.4 0 .82-.07 1.25-.22.44-.15.77-.32 1.01-.52l.29.66q-.435.45-1.29.78t-1.74.33c-1.23.02-2.15-.38-2.79-1.17m4.3-3.94c.03-.21.04-.42.04-.64-.01-.65-.15-1.16-.41-1.54s-.68-.56-1.25-.56c-.58 0-1.04.21-1.39.63s-.54 1.12-.59 2.12h3.6zm4.33 3.76c.1.15.31.29.64.41s.67.18 1.03.18q.855 0 1.26-.33c.27-.22.4-.53.4-.92 0-.27-.08-.5-.25-.71s-.41-.38-.71-.53c-.31-.15-.74-.34-1.31-.56-.77-.29-1.33-.64-1.69-1.04-.36-.41-.53-.94-.53-1.6 0-.44.13-.83.4-1.16s.63-.59 1.1-.77c.46-.18.98-.28 1.55-.28.46 0 .86.04 1.21.11.34.07.62.14.83.21s.35.12.42.13v1.86h-.91l-.3-1.11c-.06-.12-.22-.22-.48-.31-.26-.08-.55-.13-.87-.13-.45 0-.81.1-1.09.3a.96.96 0 0 0-.41.81c0 .3.07.55.22.74.14.2.33.35.55.47s.52.26.9.42l.3.12c.56.22 1.01.43 1.37.63.35.2.64.46.88.79s.35.72.35 1.19c0 .74-.29 1.33-.86 1.77-.58.44-1.36.66-2.36.66-.49 0-1-.07-1.54-.2s-.97-.27-1.31-.41v-1.92h.97zm12.02 1.23q-.615-.135-1.35-.36c-.3-.11-.52-.17-.67-.18l.12-2.71h.96l.25 1.95c.17.16.45.3.83.43s.81.19 1.27.19c.76 0 1.34-.17 1.73-.51s.59-.81.59-1.41c0-.39-.11-.72-.32-1s-.5-.52-.85-.72c-.36-.2-.84-.44-1.46-.71-.56-.25-1.05-.5-1.46-.76-.42-.26-.77-.61-1.08-1.04-.3-.43-.46-.96-.46-1.57 0-.55.15-1.04.44-1.48s.72-.78 1.28-1.03c.55-.25 1.2-.38 1.94-.38.46 0 .87.04 1.22.1.35.07.76.17 1.21.29.2.07.37.12.51.13l-.09 2.52h-.92l-.3-1.84c-.1-.1-.31-.2-.62-.29-.32-.09-.66-.13-1.03-.13-.69 0-1.21.14-1.57.43-.35.29-.53.71-.53 1.26 0 .4.11.74.32 1 .21.27.48.5.8.69q.48.285 1.53.78.975.465 1.59.84c.615.375.76.58 1.06.98s.44.89.44 1.45c0 .53-.15 1.04-.44 1.53s-.75.89-1.35 1.21-1.34.47-2.2.47c-.51.01-.98-.04-1.39-.13m14.22-2.15c-.35.71-.85 1.26-1.5 1.67s-1.41.62-2.28.62q-.36 0-.78-.06c-.42-.06-.5-.09-.67-.15l.04 1.26v1.52l1.56.17v.73h-4.18v-.73l1.08-.17v-9.9l-1.09-.27v-.81l2.13-.27h.03l.31.27v.88c.3-.33.67-.61 1.12-.84s.94-.34 1.49-.34c.59 0 1.13.15 1.63.43.5.29.89.74 1.19 1.35q.45.915.45 2.31c-.01.85-.18 1.62-.53 2.33m-4.43-5.14c-.33.16-.58.33-.76.53v5.65c.07.12.25.23.53.32.29.09.6.14.94.14.77 0 1.39-.3 1.87-.91.47-.61.71-1.53.71-2.76 0-1.08-.21-1.88-.62-2.42-.42-.53-.95-.79-1.6-.79-.38 0-.74.08-1.07.24m7.43.09-1.14-.27v-.79l2.33-.29h.03l.34.27v7.4l1.2.12v.73h-3.98v-.73l1.22-.14zm-.12-2.92q-.24-.27-.24-.69c0-.32.1-.58.29-.79.2-.21.46-.31.8-.31s.59.09.75.27q.24.27.24.69c0 .34-.1.61-.29.81s-.47.3-.82.3h-.01c-.32-.01-.56-.1-.72-.28m4.87 9.07c-.63-.79-.95-1.85-.95-3.17 0-.87.17-1.63.5-2.29s.79-1.17 1.39-1.53 1.27-.54 2.03-.54c.93 0 1.65.26 2.17.77.51.52.79 1.25.82 2.21 0 .61-.04 1.08-.1 1.39h-5.16c.02.99.25 1.79.69 2.39.44.61 1.06.91 1.88.91.4 0 .82-.07 1.25-.22.44-.15.77-.32 1.01-.52l.29.66q-.435.45-1.29.78t-1.74.33c-1.24.02-2.16-.38-2.79-1.17m4.29-3.94c.03-.21.04-.42.04-.64-.01-.65-.15-1.16-.41-1.54s-.68-.56-1.25-.56c-.58 0-1.04.21-1.39.63s-.54 1.12-.59 2.12h3.6zm4.04-6.23-1.21-.17v-.65l2.42-.29h.03l.33.23v11.21l1.27.12v.73h-4.05v-.72l1.21-.14z"/>
  </g>
  <g id="Board_3">
    <defs>
      <path id="XMLID_11_" d="m97.04 178.06-1.41-2.94c-4.57-9.51-8.56-17.15-11.92-23.2l-4.84-8.77c-2.65-4.27-5.54-3.98-8.19-3.98h-.55v-2.9a12.83 12.83 0 0 0 6.96-11.42c0-7.1-5.75-12.85-12.85-12.85-1.64 0-3.22.31-4.66.87-1.15.45-2.21 1.06-3.18 1.8-.19.11-.38.23-.57.34-3.46 2.08-4.8 7.59-5.15 9.33-2.23 10.95-8.62 10.32-8.62 10.32s.97.36 8.46 2.19c3.2.78 6.41 1.04 9.05 1.1v1.22h-3.96v.08c-3.63.38-6.99 2.2-9.22 5.13-4.99 6.54-5.89 15.94-6.03 20.05 0 .06-.02.11-.02.16v.42c-.02.94 0 1.48 0 1.48v16.72c0 2.24 1.68 4.2 3.91 4.36 2.45.17 4.52-1.79 4.52-4.21v-18.78c0-.18-.03-.34-.05-.51.45-9.43 3.97-12.36 3.97-12.36v75.56c0 3.14 2.57 5.71 5.71 5.71s5.71-2.57 5.71-5.71l.08-25.98 1.47.01h1.93v26.26c0 2.73 2.01 5.13 4.73 5.39 3.12.31 5.78-2.17 5.78-5.23V201.3h12.52c2.07 0 3.37-2.72 2.33-4.89l-12.48-26.18-2.82-7.68c-.16-4.91.21-5.63.21-5.63l11.47 24.83c.92 1.91 3.23 2.72 5.15 1.81l.76-.36c1.9-.91 2.72-3.23 1.8-5.14"/>
    </defs>
    <use xlink:href="#XMLID_11_" style="overflow:visible;fill:#0c3958"/>
    <clipPath id="XMLID_00000011746265577371044760000009310455476790387352_">
      <use xlink:href="#XMLID_11_" style="overflow:visible"/>
    </clipPath>
    <linearGradient id="SVGID_1_" gradientUnits="userSpaceOnUse" x1="69.086" y1="234.018" x2="69.086" y2="111.033">
      <stop offset="0" style="stop-color:#cee1ac"/>
      <stop offset=".094" style="stop-color:#c6dc99"/>
      <stop offset=".302" style="stop-color:#b6d270"/>
      <stop offset=".503" style="stop-color:#a9ca4e"/>
      <stop offset=".691" style="stop-color:#9ec536"/>
      <stop offset=".862" style="stop-color:#97c226"/>
      <stop offset="1" style="stop-color:#95c11f"/>
    </linearGradient>
    <path style="clip-path:url(#XMLID_00000011746265577371044760000009310455476790387352_);fill:url(#SVGID_1_)" d="M25.34 111.03h87.5v122.98h-87.5z"/>
    <path style="clip-path:url(#XMLID_00000011746265577371044760000009310455476790387352_);fill:#0c3958" d="M34.65 112h68.3v66.57h-68.3z"/>
    <path class="st0" d="M43.75 181.68h50.27v13.98H43.75z"/>
    <path class="st4" d="M66.01 192.17h-4.25l-.33-.58c.5-.96 1.12-2.22 1.86-3.8.73-1.58 1.39-3.02 1.97-4.33h.33l1.02.55-3.46 6.66-.51.78 3.37-.18.05-2.5 1.09-.09v2.52l1.81-.09v1.05h-1.81v2.06h-1.14zm5.16 1.39c.61 0 1.16-.12 1.66-.37s.9-.59 1.19-1.02c.29-.44.44-.93.44-1.49 0-1.37-.64-2.06-1.91-2.06-.28 0-.6.04-.94.12-.35.08-.65.18-.9.29l-.35-.24.63-4.61h3.65l.13-.24h.79l-.23 1.32h-3.39l-.59 2.98c.23-.12.52-.23.88-.32s.72-.14 1.08-.14c.82 0 1.46.23 1.93.69s.7 1.13.7 2.01c0 .67-.19 1.3-.58 1.87s-.94 1.03-1.65 1.37-1.52.51-2.42.51q-.555 0-.9-.09v-.61q.375.03.78.03"/>
    <defs>
      <path id="XMLID_12_" d="m169.61 178.06-1.41-2.94c-4.57-9.51-8.56-17.15-11.92-23.2l-4.84-8.77c-2.65-4.27-5.54-3.98-8.19-3.98h-.55v-2.9a12.83 12.83 0 0 0 6.96-11.42c0-7.1-5.75-12.85-12.85-12.85-1.64 0-3.22.31-4.66.87-1.15.45-2.21 1.06-3.18 1.8-.19.11-.38.23-.57.34-3.46 2.08-4.8 7.59-5.15 9.33-2.23 10.95-8.62 10.32-8.62 10.32s.97.36 8.46 2.19c3.2.78 6.41 1.04 9.05 1.1v1.22h-3.96v.08c-3.63.38-6.99 2.2-9.22 5.13-4.99 6.54-5.89 15.94-6.03 20.05 0 .06-.02.11-.02.16v.42c-.02.94 0 1.48 0 1.48v16.72c0 2.24 1.68 4.2 3.91 4.36 2.45.17 4.52-1.79 4.52-4.21v-18.78c0-.18-.03-.34-.05-.51.45-9.43 3.97-12.36 3.97-12.36v75.56c0 3.14 2.57 5.71 5.71 5.71s5.71-2.57 5.71-5.71l.08-25.98 1.47.01h1.93v26.26c0 2.73 2.01 5.13 4.73 5.39 3.12.31 5.78-2.17 5.78-5.23V201.3h12.52c2.07 0 3.37-2.72 2.33-4.89l-12.48-26.18-2.82-7.68c-.16-4.91.21-5.63.21-5.63l11.47 24.83c.92 1.91 3.23 2.72 5.15 1.81l.76-.36c1.9-.91 2.72-3.23 1.8-5.14"/>
    </defs>
    <use xlink:href="#XMLID_12_" style="overflow:visible;fill:#0c3958"/>
    <clipPath id="XMLID_00000034064188734937542180000013387285267621581725_">
      <use xlink:href="#XMLID_12_" style="overflow:visible"/>
    </clipPath>
    <linearGradient id="SVGID_00000014595947700479064110000016519195783386254003_" gradientUnits="userSpaceOnUse" x1="141.654" y1="234.018" x2="141.654" y2="111.033">
      <stop offset="0" style="stop-color:#cee1ac"/>
      <stop offset=".094" style="stop-color:#c6dc99"/>
      <stop offset=".302" style="stop-color:#b6d270"/>
      <stop offset=".503" style="stop-color:#a9ca4e"/>
      <stop offset=".691" style="stop-color:#9ec536"/>
      <stop offset=".862" style="stop-color:#97c226"/>
      <stop offset="1" style="stop-color:#95c11f"/>
    </linearGradient>
    <path style="clip-path:url(#XMLID_00000034064188734937542180000013387285267621581725_);fill:url(#SVGID_00000014595947700479064110000016519195783386254003_)" d="M97.9 111.03h87.5v122.98H97.9z"/>
    <path style="clip-path:url(#XMLID_00000034064188734937542180000013387285267621581725_);fill:#0c3958" d="M107.21 112h68.3v66.57h-68.3z"/>
    <path class="st0" d="M116.31 181.68h50.27v13.98h-50.27z"/>
    <path class="st4" d="M138.58 192.17h-4.25l-.33-.58c.5-.96 1.12-2.22 1.86-3.8.73-1.58 1.39-3.02 1.97-4.33h.33l1.02.55-3.46 6.66-.51.78 3.37-.18.05-2.5 1.09-.09v2.52l1.81-.09v1.05h-1.81v2.06h-1.14zm5.16 1.39c.61 0 1.16-.12 1.66-.37s.9-.59 1.19-1.02c.29-.44.44-.93.44-1.49 0-1.37-.64-2.06-1.91-2.06-.28 0-.6.04-.94.12-.35.08-.65.18-.9.29l-.35-.24.63-4.61h3.65l.13-.24h.79l-.23 1.32h-3.39l-.59 2.98c.23-.12.52-.23.88-.32s.72-.14 1.08-.14c.82 0 1.46.23 1.93.69s.7 1.13.7 2.01c0 .67-.19 1.3-.58 1.87s-.94 1.03-1.65 1.37-1.52.51-2.42.51q-.555 0-.9-.09v-.61q.375.03.78.03"/>
    <defs>
      <path id="XMLID_8_" d="m297.35 177.69-1.41-2.95c-4.57-9.52-8.57-17.18-11.93-23.23l-4.84-8.78c-2.66-4.28-5.55-3.98-8.21-3.98h-.55v-2.91c4.14-2.14 6.97-6.46 6.97-11.44 0-7.11-5.76-12.87-12.87-12.87-1.65 0-3.22.31-4.67.87a13 13 0 0 0-3.18 1.8c-.19.11-.38.23-.57.34-3.46 2.08-4.8 7.6-5.16 9.34-2.23 10.96-8.63 10.34-8.63 10.34s.97.36 8.47 2.19c3.2.78 6.42 1.05 9.06 1.1v1.22h-3.96v.08c-3.63.38-7 2.2-9.24 5.13-5 6.55-5.89 15.96-6.04 20.08 0 .06-.02.11-.02.16v.42c-.02.94 0 1.49 0 1.49v16.74c0 2.24 1.68 4.21 3.92 4.37a4.23 4.23 0 0 0 4.52-4.21v-18.8c0-.18-.03-.34-.05-.51.45-9.44 3.97-12.38 3.97-12.38v75.67c0 3.14 2.57 5.72 5.72 5.72 3.14 0 5.72-2.57 5.72-5.72l.08-26.01 1.47.01h1.93v26.29c0 2.73 2.02 5.13 4.74 5.4 3.13.31 5.79-2.17 5.79-5.24v-26.46h12.53c2.07 0 3.37-2.72 2.33-4.9l-12.49-26.22-2.83-7.7c-.16-4.92.21-5.63.21-5.63l11.49 24.86c.92 1.91 3.24 2.73 5.15 1.81l.76-.36c1.92-.9 2.74-3.22 1.82-5.13"/>
    </defs>
    <use xlink:href="#XMLID_8_" style="overflow:visible;fill:#0c3958"/>
    <clipPath id="XMLID_00000044147982766885138320000001486798671511619462_">
      <use xlink:href="#XMLID_8_" style="overflow:visible"/>
    </clipPath>
    <linearGradient id="SVGID_00000045588471656092516690000005730440813133405570_" gradientUnits="userSpaceOnUse" x1="269.359" y1="233.719" x2="269.359" y2="110.569">
      <stop offset="0" style="stop-color:#cee1ac"/>
      <stop offset=".094" style="stop-color:#c6dc99"/>
      <stop offset=".302" style="stop-color:#b6d270"/>
      <stop offset=".503" style="stop-color:#a9ca4e"/>
      <stop offset=".691" style="stop-color:#9ec536"/>
      <stop offset=".862" style="stop-color:#97c226"/>
      <stop offset="1" style="stop-color:#95c11f"/>
    </linearGradient>
    <path style="clip-path:url(#XMLID_00000044147982766885138320000001486798671511619462_);fill:url(#SVGID_00000045588471656092516690000005730440813133405570_)" d="M225.55 110.57h87.62v123.15h-87.62z"/>
    <path style="clip-path:url(#XMLID_00000044147982766885138320000001486798671511619462_);fill:#0c3958" d="M234.51 111.54h63.22v24.23h-63.22z"/>
    <path class="st0" d="M330.08 213.87h50.33v14h-50.33z"/>
    <path class="st16" d="M350.06 222.3c.66-.58 1.18-1.17 1.57-1.79s.58-1.2.58-1.74c0-.47-.14-.84-.42-1.12s-.68-.42-1.21-.42c-.49 0-.91.1-1.26.29s-.68.43-.97.71l-.41-.58c.3-.35.73-.67 1.28-.96.56-.29 1.15-.43 1.78-.43.6 0 1.1.11 1.51.33s.71.5.91.85.29.74.29 1.15c0 .85-.41 1.72-1.22 2.61s-1.83 1.7-3.05 2.4l3.97-.29.45-1.1.65.13-.33 2.03h-6.12l-.19-.54c.81-.45 1.53-.96 2.19-1.53m6.51 1.05c-.54-.76-.81-1.73-.81-2.93 0-.84.15-1.57.46-2.2s.73-1.11 1.26-1.44 1.11-.5 1.74-.5c1.11 0 1.92.36 2.44 1.07s.77 1.69.77 2.93c0 .83-.15 1.56-.44 2.2s-.7 1.13-1.22 1.48-1.1.53-1.74.53q-1.65-.015-2.46-1.14m4.42-2.94c0-1.11-.14-1.97-.43-2.56s-.77-.9-1.44-.9c-.66 0-1.15.28-1.46.85s-.47 1.38-.47 2.44c0 1.09.15 1.96.46 2.61.3.65.78.98 1.44.98 1.26 0 1.9-1.14 1.9-3.42"/>
    <path class="st0" d="M242.28 165.08h50.33v14h-50.33z"/>
    <path class="st4" d="M260.6 171.83c.33-.43.82-.79 1.48-1.08-.5-.33-.89-.67-1.17-1.03s-.41-.82-.41-1.37c0-.5.13-.94.4-1.3s.63-.64 1.07-.83.92-.28 1.44-.28c.83 0 1.5.19 2 .58.5.38.76.9.76 1.54 0 .49-.15.94-.44 1.35s-.72.78-1.28 1.08q1.02.57 1.59 1.17c.38.39.56.88.56 1.46 0 .52-.15.98-.46 1.37-.3.39-.71.69-1.21.9s-1.05.32-1.64.32c-.55 0-1.06-.08-1.55-.26s-.88-.44-1.19-.81-.46-.84-.46-1.4q.015-.765.51-1.41m4.38.74c-.18-.24-.4-.44-.67-.61s-.64-.38-1.11-.62c-.24-.12-.42-.21-.54-.28-.4.21-.73.48-.97.82-.25.34-.37.71-.37 1.1 0 .63.19 1.13.56 1.51.37.37.88.56 1.52.56.31 0 .6-.07.89-.21s.52-.33.7-.59q.27-.39.27-.87c-.02-.3-.11-.57-.28-.81m-3.02-3.7c.19.24.42.44.69.62.27.17.67.39 1.18.67.38-.21.69-.47.91-.78s.33-.66.33-1.03c0-.56-.15-1.01-.46-1.33s-.72-.48-1.24-.48c-.47 0-.87.14-1.2.41s-.49.64-.49 1.1c0 .31.09.58.28.82m7.04 5.69c-.54-.76-.81-1.73-.81-2.93 0-.84.15-1.57.46-2.2q.465-.945 1.26-1.44c.53-.33 1.11-.5 1.74-.5 1.11 0 1.92.36 2.44 1.07.51.71.77 1.69.77 2.93 0 .83-.15 1.56-.44 2.2s-.7 1.13-1.22 1.48-1.1.53-1.74.53q-1.65 0-2.46-1.14m4.41-2.94c0-1.11-.14-1.97-.43-2.56q-.435-.9-1.44-.9c-.66 0-1.15.28-1.46.85-.32.57-.47 1.38-.47 2.44 0 1.09.15 1.96.46 2.61s.78.98 1.44.98c1.27 0 1.9-1.14 1.9-3.42"/>
    <defs>
      <path id="XMLID_7_" d="m365.11 177.65-1.41-2.94c-4.57-9.52-8.57-17.18-11.93-23.23l-4.84-8.78c-2.66-4.28-5.55-3.98-8.21-3.98h-.55v-2.91c4.14-2.14 6.97-6.46 6.97-11.44 0-7.11-5.76-12.87-12.87-12.87-1.65 0-3.22.31-4.67.87a13 13 0 0 0-3.18 1.8c-.19.11-.38.23-.57.34-3.46 2.08-4.8 7.6-5.16 9.34-2.23 10.96-8.63 10.34-8.63 10.34s.97.36 8.47 2.19c3.2.78 6.42 1.05 9.06 1.1v1.22h-3.96v.08c-3.63.38-7 2.2-9.24 5.13-5 6.55-5.89 15.96-6.04 20.08 0 .06-.02.11-.02.16v.42c-.02.94 0 1.49 0 1.49v16.74c0 2.24 1.68 4.21 3.92 4.37a4.23 4.23 0 0 0 4.52-4.21v-18.8c0-.18-.03-.34-.05-.51.45-9.44 3.97-12.38 3.97-12.38v75.67c0 3.14 2.57 5.72 5.72 5.72 3.14 0 5.72-2.57 5.72-5.72l.08-26.01 1.47.01h1.93v26.29c0 2.73 2.02 5.13 4.74 5.4 3.13.31 5.79-2.17 5.79-5.24v-26.46h12.53c2.07 0 3.37-2.72 2.33-4.9l-12.49-26.22-2.83-7.7c-.16-4.92.21-5.63.21-5.63l11.49 24.86c.92 1.91 3.24 2.73 5.15 1.81l.76-.36a3.856 3.856 0 0 0 1.82-5.14"/>
    </defs>
    <use xlink:href="#XMLID_7_" style="overflow:visible;fill:#0c3958"/>
    <clipPath id="XMLID_00000183225331284325023810000001010355169622589837_">
      <use xlink:href="#XMLID_7_" style="overflow:visible"/>
    </clipPath>
    <linearGradient id="SVGID_00000096040498213189062040000001253194864279755167_" gradientUnits="userSpaceOnUse" x1="337.118" y1="233.681" x2="337.118" y2="110.532">
      <stop offset="0" style="stop-color:#cee1ac"/>
      <stop offset=".094" style="stop-color:#c6dc99"/>
      <stop offset=".302" style="stop-color:#b6d270"/>
      <stop offset=".503" style="stop-color:#a9ca4e"/>
      <stop offset=".691" style="stop-color:#9ec536"/>
      <stop offset=".862" style="stop-color:#97c226"/>
      <stop offset="1" style="stop-color:#95c11f"/>
    </linearGradient>
    <path style="clip-path:url(#XMLID_00000183225331284325023810000001010355169622589837_);fill:url(#SVGID_00000096040498213189062040000001253194864279755167_)" d="M293.31 110.53h87.62v123.15h-87.62z"/>
    <path style="clip-path:url(#XMLID_00000183225331284325023810000001010355169622589837_);fill:#0c3958" d="M301.89 111.5h63.22v96.92h-63.22z"/>
    <defs>
      <path id="XMLID_14_" d="m536.46 175.44-1.41-2.94c-4.57-9.52-8.57-17.18-11.93-23.23l-4.84-8.78c-2.66-4.28-5.55-3.98-8.21-3.98h-.55v-2.91c4.14-2.14 6.97-6.46 6.97-11.44 0-7.11-5.76-12.87-12.87-12.87-1.65 0-3.22.31-4.67.87a13 13 0 0 0-3.18 1.8c-.19.11-.38.23-.57.34-3.46 2.08-4.8 7.6-5.16 9.34-2.23 10.96-8.63 10.34-8.63 10.34s.97.36 8.47 2.19c3.2.78 6.42 1.05 9.06 1.1v1.22h-3.96v.08c-3.63.38-7 2.2-9.24 5.13-5 6.55-5.89 15.96-6.04 20.08 0 .06-.02.11-.02.16v.42c-.02.94 0 1.49 0 1.49v16.74c0 2.24 1.68 4.21 3.92 4.37a4.23 4.23 0 0 0 4.52-4.21v-18.8c0-.18-.03-.34-.05-.51.45-9.44 3.97-12.38 3.97-12.38v75.67c0 3.14 2.57 5.72 5.72 5.72 3.14 0 5.72-2.57 5.72-5.72l.08-26.01 1.47.01h1.93v26.29c0 2.73 2.02 5.13 4.74 5.4 3.13.31 5.79-2.17 5.79-5.24v-26.46h12.53c2.07 0 3.37-2.72 2.33-4.9l-12.49-26.22-2.83-7.7c-.16-4.92.21-5.63.21-5.63l11.49 24.86c.92 1.91 3.24 2.73 5.15 1.81l.76-.36a3.845 3.845 0 0 0 1.82-5.14"/>
    </defs>
    <use xlink:href="#XMLID_14_" style="overflow:visible;fill:#0c3958"/>
    <clipPath id="XMLID_00000144326530703449880310000005059335702429251720_">
      <use xlink:href="#XMLID_14_" style="overflow:visible"/>
    </clipPath>
    <linearGradient id="SVGID_00000126286127771644659980000009129322961037396407_" gradientUnits="userSpaceOnUse" x1="508.47" y1="231.474" x2="508.47" y2="108.324">
      <stop offset="0" style="stop-color:#cee1ac"/>
      <stop offset=".094" style="stop-color:#c6dc99"/>
      <stop offset=".302" style="stop-color:#b6d270"/>
      <stop offset=".503" style="stop-color:#a9ca4e"/>
      <stop offset=".691" style="stop-color:#9ec536"/>
      <stop offset=".862" style="stop-color:#97c226"/>
      <stop offset="1" style="stop-color:#95c11f"/>
    </linearGradient>
    <path style="clip-path:url(#XMLID_00000144326530703449880310000005059335702429251720_);fill:url(#SVGID_00000126286127771644659980000009129322961037396407_)" d="M464.66 108.32h87.62v123.15h-87.62z"/>
    <path style="clip-path:url(#XMLID_00000144326530703449880310000005059335702429251720_);fill:#0c3958" d="M473.62 109.29h63.22v24.23h-63.22z"/>
    <path class="st0" d="M481.4 162.83h50.33v14H481.4z"/>
    <path class="st4" d="M499.71 169.58c.33-.43.82-.79 1.48-1.08-.5-.33-.89-.67-1.17-1.03s-.41-.82-.41-1.37c0-.5.13-.94.4-1.3s.63-.64 1.07-.83.92-.28 1.44-.28c.83 0 1.5.19 2 .58.5.38.76.9.76 1.54 0 .49-.15.94-.44 1.35s-.72.78-1.28 1.08q1.02.57 1.59 1.17c.38.39.56.88.56 1.46 0 .52-.15.98-.46 1.37-.3.39-.71.69-1.21.9s-1.05.32-1.64.32c-.55 0-1.06-.08-1.55-.26-.48-.17-.88-.44-1.19-.81s-.46-.84-.46-1.4c.01-.51.18-.97.51-1.41m4.38.75c-.18-.24-.4-.44-.67-.61s-.64-.38-1.11-.62c-.24-.12-.42-.21-.54-.28-.4.21-.73.48-.97.82s-.37.71-.37 1.1c0 .63.19 1.13.56 1.51.37.37.88.56 1.52.56.31 0 .6-.07.89-.21s.52-.33.7-.59q.27-.39.27-.87c-.01-.3-.1-.58-.28-.81m-3.02-3.7c.19.24.42.44.69.62s.67.39 1.18.67c.38-.21.69-.47.91-.78.22-.32.33-.66.33-1.03 0-.56-.15-1.01-.46-1.33s-.72-.48-1.24-.48c-.47 0-.87.14-1.2.41s-.49.64-.49 1.1c0 .31.09.58.28.82m7.04 5.69c-.54-.76-.81-1.73-.81-2.93 0-.84.15-1.57.46-2.2s.73-1.11 1.26-1.44 1.11-.5 1.74-.5c1.11 0 1.92.36 2.44 1.07s.77 1.69.77 2.93c0 .83-.15 1.56-.44 2.2s-.7 1.13-1.22 1.48-1.1.53-1.74.53q-1.65-.015-2.46-1.14m4.41-2.95c0-1.11-.14-1.97-.43-2.56q-.435-.9-1.44-.9c-.66 0-1.15.28-1.46.85-.32.57-.47 1.38-.47 2.44 0 1.09.15 1.96.46 2.61.3.65.78.98 1.44.98 1.27.01 1.9-1.13 1.9-3.42"/>
    <path class="st0" d="M435.67 211.66H486v14h-50.33z"/>
    <path class="st16" d="M455.65 220.09c.66-.58 1.18-1.17 1.57-1.79s.58-1.2.58-1.74c0-.47-.14-.84-.42-1.12s-.68-.42-1.21-.42c-.49 0-.91.1-1.26.29s-.68.43-.97.71l-.41-.58c.3-.35.73-.67 1.28-.96.56-.29 1.15-.43 1.78-.43.6 0 1.1.11 1.51.33s.71.5.91.85.29.74.29 1.15c0 .85-.41 1.72-1.22 2.61s-1.83 1.7-3.05 2.4l3.97-.29.45-1.1.65.13-.33 2.03h-6.12l-.19-.54q1.215-.66 2.19-1.53m6.51 1.05c-.54-.76-.81-1.73-.81-2.93 0-.84.15-1.57.46-2.2s.73-1.11 1.26-1.44 1.11-.5 1.74-.5c1.11 0 1.92.36 2.44 1.07s.77 1.69.77 2.93c0 .83-.15 1.56-.44 2.2s-.7 1.13-1.22 1.48-1.1.53-1.74.53q-1.65 0-2.46-1.14m4.42-2.94c0-1.11-.14-1.97-.43-2.56s-.77-.9-1.44-.9c-.66 0-1.15.28-1.46.85s-.47 1.38-.47 2.44c0 1.09.15 1.96.46 2.61.3.65.78.98 1.44.98 1.26 0 1.9-1.14 1.9-3.42"/>
    <defs>
      <path id="XMLID_13_" d="m470.7 175.44-1.41-2.94c-4.57-9.52-8.57-17.18-11.93-23.23l-4.84-8.78c-2.66-4.28-5.55-3.98-8.21-3.98h-.55v-2.91c4.14-2.14 6.97-6.46 6.97-11.44 0-7.11-5.76-12.87-12.87-12.87-1.65 0-3.22.31-4.67.87a13 13 0 0 0-3.18 1.8c-.19.11-.38.23-.57.34-3.46 2.08-4.8 7.6-5.16 9.34-2.23 10.96-8.63 10.34-8.63 10.34s.97.36 8.47 2.19c3.2.78 6.42 1.05 9.06 1.1v1.22h-3.96v.08c-3.63.38-7 2.2-9.24 5.13-5 6.55-5.89 15.96-6.04 20.08 0 .06-.02.11-.02.16v.42c-.02.94 0 1.49 0 1.49v16.74c0 2.24 1.68 4.21 3.92 4.37a4.23 4.23 0 0 0 4.52-4.21v-18.8c0-.18-.03-.34-.05-.51.45-9.44 3.97-12.38 3.97-12.38v75.67c0 3.14 2.57 5.72 5.72 5.72 3.14 0 5.72-2.57 5.72-5.72l.08-26.01 1.47.01h1.93v26.29c0 2.73 2.02 5.13 4.74 5.4 3.13.31 5.79-2.17 5.79-5.24v-26.46h12.53c2.07 0 3.37-2.72 2.33-4.9L454.1 167.6l-2.83-7.7c-.16-4.92.21-5.63.21-5.63l11.49 24.86c.92 1.91 3.24 2.73 5.15 1.81l.76-.36a3.845 3.845 0 0 0 1.82-5.14"/>
    </defs>
    <use xlink:href="#XMLID_13_" style="overflow:visible;fill:#0c3958"/>
    <clipPath id="XMLID_00000089558658096295329530000004626999924416370100_">
      <use xlink:href="#XMLID_13_" style="overflow:visible"/>
    </clipPath>
    <linearGradient id="SVGID_00000179633794199477017840000011265503085277840295_" gradientUnits="userSpaceOnUse" x1="442.711" y1="231.474" x2="442.711" y2="108.324">
      <stop offset="0" style="stop-color:#cee1ac"/>
      <stop offset=".094" style="stop-color:#c6dc99"/>
      <stop offset=".302" style="stop-color:#b6d270"/>
      <stop offset=".503" style="stop-color:#a9ca4e"/>
      <stop offset=".691" style="stop-color:#9ec536"/>
      <stop offset=".862" style="stop-color:#97c226"/>
      <stop offset="1" style="stop-color:#95c11f"/>
    </linearGradient>
    <path style="clip-path:url(#XMLID_00000089558658096295329530000004626999924416370100_);fill:url(#SVGID_00000179633794199477017840000011265503085277840295_)" d="M398.9 108.32h87.62v123.15H398.9z"/>
    <path style="clip-path:url(#XMLID_00000089558658096295329530000004626999924416370100_);fill:#0c3958" d="M407.48 109.29h63.22v96.92h-63.22z"/>
    <path class="st0" d="M40.93 240.44h49.25v14.83H40.93z"/>
    <path class="st1" d="M55.98 241.28h1.32l2.92 8.28.74.12v.59h-3.17v-.59l1-.12-.56-1.78h-3.5l-.56 1.78 1.03.12v.59h-2.84v-.59l.74-.12zm.75 1.92-.3-1.06-.29 1.08-1.21 3.85h3.06zm4.05-2.54 1.92-.23h.02l.28.18v3.61c.24-.23.53-.42.86-.58.33-.15.7-.23 1.11-.23.48 0 .92.12 1.31.35s.71.59.95 1.08.35 1.1.35 1.85c0 .69-.14 1.31-.43 1.87-.28.56-.69 1-1.22 1.33s-1.14.49-1.84.49c-.55 0-1.06-.05-1.51-.16s-.73-.21-.83-.29v-8.64l-.98-.13v-.5zm2.85 3.83c-.26.14-.47.3-.63.47v4.42c.05.11.19.2.41.27s.49.1.77.1c.62 0 1.11-.25 1.49-.74s.56-1.22.56-2.17c0-.86-.16-1.5-.49-1.92s-.75-.64-1.27-.64q-.45 0-.84.21m5.73 4.96c-.51-.63-.76-1.48-.76-2.53 0-.7.13-1.31.4-1.84.26-.53.63-.94 1.11-1.22s1.02-.43 1.63-.43c.74 0 1.32.21 1.73.62s.63 1 .65 1.77c0 .49-.03.86-.08 1.12h-4.13c.02.79.2 1.43.55 1.91s.85.73 1.5.73c.32 0 .65-.06 1-.17s.62-.25.81-.41l.23.53c-.23.24-.58.45-1.03.62-.46.18-.92.26-1.39.26q-1.455-.015-2.22-.96m3.44-3.16c.02-.17.04-.34.04-.52q-.015-.78-.33-1.23c-.21-.3-.55-.45-1-.45-.46 0-.83.17-1.11.5s-.43.9-.47 1.69h2.87zm3.23-4.98-.97-.13v-.52l1.93-.23h.02l.26.18v8.96l1.02.1v.59h-3.24v-.59l.97-.11v-8.25z"/>
    <path class="st0" d="M114.63 240.44h49.25v14.83h-49.25z"/>
    <path class="st1" d="m127.03 242.09-.98-.14v-.6h1.62c.27 0 .62-.02 1.03-.05.38-.03.67-.05.85-.05 1.1 0 1.89.17 2.37.52s.71.85.71 1.51c0 .57-.16 1.06-.49 1.46-.33.41-.78.66-1.34.77.77-.02 1.37.16 1.81.54s.66.89.66 1.54c0 .81-.29 1.47-.86 1.98s-1.52.77-2.84.77c-.29 0-.56-.01-.83-.04-.62-.02-1-.04-1.12-.04h-1.6v-.59l1-.12v-7.46zm1.96 3.21h.66c.56 0 .98-.16 1.27-.47s.43-.76.43-1.33c0-.56-.14-.97-.43-1.23s-.78-.39-1.48-.39c-.29 0-.58.02-.89.05l-.25.02v3.34c.11 0 .34.01.69.01m.56 4.39c.81 0 1.39-.17 1.76-.5.36-.33.55-.81.55-1.43s-.16-1.06-.47-1.34q-.48-.42-1.53-.42c-.82 0-1.33.01-1.55.02v3.58c.18.06.59.09 1.24.09m5.43-.24c-.51-.63-.76-1.48-.76-2.53 0-.7.13-1.31.4-1.84.26-.53.63-.94 1.11-1.22s1.02-.43 1.63-.43c.74 0 1.32.21 1.73.62s.63 1 .65 1.77c0 .49-.03.86-.08 1.12h-4.13c.02.79.2 1.43.55 1.91s.85.73 1.5.73c.32 0 .65-.06 1-.17s.62-.25.81-.41l.23.53c-.23.24-.58.45-1.03.62-.46.18-.92.26-1.39.26q-1.455-.015-2.22-.96m3.44-3.16c.02-.17.04-.34.04-.52q-.015-.78-.33-1.23c-.21-.3-.55-.45-1-.45-.46 0-.83.17-1.11.5s-.43.9-.47 1.69h2.87zm3.38 3.78c-.22-.21-.34-.56-.34-1.07v-4.61h-.86v-.54c.04-.01.15-.04.34-.08s.31-.09.37-.13c.13-.07.23-.22.3-.43.06-.15.14-.4.23-.73s.14-.54.16-.6h.71l.02 1.73h2v.79h-2v3.68c0 .46.01.78.04.96q.045.27.18.36c.09.06.25.08.47.08s.45-.03.71-.08c.26-.06.46-.12.61-.18l.18.54q-.285.21-.93.42c-.43.14-.82.2-1.17.2-.45 0-.79-.1-1.02-.31m4.5-8.76-1.01-.13v-.52l1.96-.23h.02l.26.18v2.78l-.05 1.02c.26-.23.61-.45 1.06-.66s.9-.31 1.36-.31c.5 0 .9.1 1.18.29s.48.49.59.88c.11.4.17.93.17 1.6v3.35l.84.11v.59h-2.87v-.59l.78-.11v-3.36c0-.47-.03-.84-.1-1.11q-.09-.405-.36-.6c-.18-.13-.44-.2-.79-.2-.29 0-.6.07-.92.22-.33.14-.62.31-.86.5v4.55l.83.11v.59h-2.8v-.59l.72-.1v-8.26z"/>
    <path class="st0" d="M242.99 240.54h49.25v14.83h-49.25z"/>
    <path class="st1" d="M258.04 241.37h1.32l2.92 8.28.74.12v.59h-3.17v-.59l1-.12-.56-1.78h-3.5l-.56 1.78 1.03.12v.59h-2.84v-.59l.74-.12zm.75 1.92-.3-1.06-.29 1.08-1.21 3.85h3.06zm4.05-2.53 1.92-.23h.02l.28.18v3.61c.24-.23.53-.42.86-.58.33-.15.7-.23 1.11-.23.48 0 .92.12 1.31.35s.71.59.95 1.08.35 1.1.35 1.85c0 .69-.14 1.31-.43 1.87-.28.56-.69 1-1.22 1.33s-1.14.49-1.84.49c-.55 0-1.06-.05-1.51-.16s-.73-.21-.83-.29v-8.64l-.98-.13v-.5zm2.85 3.82c-.26.14-.47.3-.63.47v4.42c.05.11.19.2.41.27.23.07.49.1.77.1.62 0 1.11-.25 1.49-.74s.56-1.22.56-2.17c0-.86-.16-1.5-.49-1.92s-.75-.64-1.27-.64q-.45 0-.84.21m5.73 4.97c-.51-.63-.76-1.48-.76-2.53 0-.7.13-1.31.4-1.84.26-.53.63-.94 1.11-1.22.48-.29 1.02-.43 1.63-.43.74 0 1.32.21 1.73.62s.63 1 .65 1.77c0 .49-.03.86-.08 1.12h-4.13c.02.79.2 1.43.55 1.91s.85.73 1.5.73c.32 0 .65-.06 1-.17.35-.12.62-.25.81-.41l.23.53c-.23.24-.58.45-1.03.62-.46.18-.92.26-1.39.26-.97-.02-1.71-.33-2.22-.96m3.44-3.16c.02-.17.04-.34.04-.52q-.015-.78-.33-1.23c-.21-.3-.55-.45-1-.45-.46 0-.83.17-1.11.5s-.43.9-.47 1.69h2.87zm3.23-4.98-.97-.13v-.52l1.93-.23h.02l.26.18v8.96l1.02.1v.59h-3.24v-.59l.97-.11v-8.25z"/>
    <path class="st0" d="M309.35 240.54h49.25v14.83h-49.25z"/>
    <path class="st1" d="m321.75 242.19-.98-.14v-.6h1.62c.27 0 .62-.02 1.03-.05.38-.03.67-.05.85-.05 1.1 0 1.89.17 2.37.52.48.34.71.85.71 1.51 0 .57-.16 1.06-.49 1.46-.33.41-.78.66-1.34.77.77-.02 1.37.16 1.81.54s.66.89.66 1.54c0 .81-.29 1.47-.86 1.98s-1.52.77-2.84.77c-.29 0-.56-.01-.83-.04-.62-.02-1-.04-1.12-.04h-1.6v-.59l1-.12v-7.46zm1.96 3.2h.66c.56 0 .98-.16 1.27-.47s.43-.76.43-1.33c0-.56-.14-.97-.43-1.23s-.78-.39-1.48-.39c-.29 0-.58.02-.89.05l-.25.02v3.34c.12.01.35.01.69.01m.56 4.4c.81 0 1.39-.17 1.76-.5.36-.33.55-.81.55-1.43s-.16-1.06-.47-1.34q-.48-.42-1.53-.42c-.82 0-1.33.01-1.55.02v3.58c.18.05.6.09 1.24.09m5.43-.24c-.51-.63-.76-1.48-.76-2.53 0-.7.13-1.31.4-1.84.26-.53.63-.94 1.11-1.22.48-.29 1.02-.43 1.63-.43.74 0 1.32.21 1.73.62s.63 1 .65 1.77c0 .49-.03.86-.08 1.12h-4.13c.02.79.2 1.43.55 1.91s.85.73 1.5.73c.32 0 .65-.06 1-.17.35-.12.62-.25.81-.41l.23.53c-.23.24-.58.45-1.03.62s-.92.26-1.39.26c-.97-.02-1.71-.33-2.22-.96m3.44-3.16c.02-.17.04-.34.04-.52q-.015-.78-.33-1.23c-.21-.3-.55-.45-1-.45-.46 0-.83.17-1.11.5-.28.34-.43.9-.47 1.69h2.87zm3.39 3.78c-.22-.21-.34-.56-.34-1.07v-4.61h-.86v-.54c.04-.01.15-.04.34-.08.18-.05.31-.09.37-.13.13-.07.23-.21.3-.43.06-.15.14-.4.23-.73s.14-.54.16-.6h.71l.02 1.73h2v.79h-2v3.68c0 .46.01.78.04.96s.09.3.18.36.25.08.47.08.45-.03.71-.08.46-.12.61-.18l.18.54q-.285.21-.93.42c-.43.13-.82.2-1.17.2-.46 0-.8-.1-1.02-.31m4.5-8.76-1.01-.13v-.52l1.96-.23h.02l.26.18v2.78l-.05 1.02c.26-.23.61-.45 1.06-.66s.9-.31 1.36-.31c.5 0 .9.1 1.18.29s.48.49.59.88c.11.4.17.93.17 1.6v3.35l.84.11v.59h-2.87v-.59l.78-.11v-3.36c0-.47-.03-.84-.1-1.11q-.09-.405-.36-.6c-.18-.13-.44-.2-.79-.2-.29 0-.6.07-.92.22-.33.14-.62.31-.86.5v4.55l.83.11v.59h-2.8v-.59l.72-.1v-8.26z"/>
    <path class="st0" d="M417.27 240.54h49.25v14.83h-49.25z"/>
    <path class="st1" d="M432.32 241.37h1.32l2.92 8.28.74.12v.59h-3.17v-.59l1-.12-.56-1.78h-3.5l-.56 1.78 1.03.12v.59h-2.84v-.59l.74-.12zm.76 1.92-.3-1.06-.29 1.08-1.21 3.85h3.06zm4.04-2.53 1.92-.23h.02l.28.18v3.61c.24-.23.53-.42.86-.58s.7-.23 1.11-.23c.48 0 .92.12 1.31.35.4.23.71.59.95 1.08s.35 1.1.35 1.85c0 .69-.14 1.31-.43 1.87s-.69 1-1.22 1.33-1.14.49-1.84.49c-.55 0-1.06-.05-1.51-.16s-.73-.21-.83-.29v-8.64l-.98-.13v-.5zm2.85 3.82c-.26.14-.47.3-.63.47v4.42c.05.11.19.2.41.27.23.07.49.1.77.1.62 0 1.11-.25 1.49-.74s.56-1.22.56-2.17c0-.86-.16-1.5-.49-1.92s-.75-.64-1.27-.64q-.45 0-.84.21m5.74 4.97c-.51-.63-.76-1.48-.76-2.53 0-.7.13-1.31.4-1.84s.63-.94 1.11-1.22c.48-.29 1.02-.43 1.63-.43.74 0 1.32.21 1.73.62s.63 1 .65 1.77c0 .49-.03.86-.08 1.12h-4.13c.02.79.2 1.43.55 1.91s.85.73 1.5.73c.32 0 .65-.06 1-.17.35-.12.62-.25.81-.41l.23.53c-.23.24-.58.45-1.03.62s-.92.26-1.39.26c-.98-.02-1.71-.33-2.22-.96m3.44-3.16c.02-.17.04-.34.04-.52q-.015-.78-.33-1.23c-.21-.3-.55-.45-1-.45-.46 0-.83.17-1.11.5-.28.34-.43.9-.47 1.69h2.87zm3.22-4.98-.97-.13v-.52l1.93-.23h.02l.26.18v8.96l1.02.1v.59h-3.24v-.59l.97-.11v-8.25z"/>
    <path class="st0" d="M483.64 240.54h49.25v14.83h-49.25z"/>
    <path class="st1" d="m496.04 242.19-.98-.14v-.6h1.62c.27 0 .62-.02 1.03-.05.38-.03.67-.05.85-.05 1.1 0 1.89.17 2.37.52.48.34.71.85.71 1.51 0 .57-.16 1.06-.49 1.46s-.78.66-1.34.77c.77-.02 1.37.16 1.81.54s.66.89.66 1.54c0 .81-.29 1.47-.86 1.98s-1.52.77-2.84.77c-.29 0-.56-.01-.83-.04-.62-.02-1-.04-1.12-.04h-1.6v-.59l1-.12v-7.46zm1.96 3.2h.66c.56 0 .98-.16 1.27-.47s.43-.76.43-1.33c0-.56-.14-.97-.43-1.23s-.78-.39-1.48-.39c-.29 0-.58.02-.89.05l-.25.02v3.34c.11.01.34.01.69.01m.56 4.4c.81 0 1.39-.17 1.76-.5s.55-.81.55-1.43-.16-1.06-.47-1.34q-.48-.42-1.53-.42c-.82 0-1.33.01-1.55.02v3.58c.18.05.59.09 1.24.09m5.43-.24c-.51-.63-.76-1.48-.76-2.53 0-.7.13-1.31.4-1.84s.63-.94 1.11-1.22c.48-.29 1.02-.43 1.63-.43.74 0 1.32.21 1.73.62s.63 1 .65 1.77c0 .49-.03.86-.08 1.12h-4.13c.02.79.2 1.43.55 1.91s.85.73 1.5.73c.32 0 .65-.06 1-.17.35-.12.62-.25.81-.41l.23.53c-.23.24-.58.45-1.03.62-.46.18-.92.26-1.39.26-.97-.02-1.71-.33-2.22-.96m3.44-3.16c.02-.17.04-.34.04-.52q-.015-.78-.33-1.23c-.21-.3-.55-.45-1-.45-.46 0-.83.17-1.11.5-.28.34-.43.9-.47 1.69h2.87zm3.38 3.78c-.22-.21-.34-.56-.34-1.07v-4.61h-.86v-.54c.04-.01.15-.04.34-.08.18-.05.31-.09.37-.13.13-.07.23-.21.3-.43.06-.15.14-.4.23-.73s.14-.54.16-.6h.71l.02 1.73h2v.79h-2v3.68c0 .46.01.78.04.96q.045.27.18.36c.135.09.25.08.47.08s.45-.03.71-.08c.26-.06.46-.12.61-.18l.18.54q-.285.21-.93.42c-.43.13-.82.2-1.17.2-.45 0-.79-.1-1.02-.31m4.5-8.76-1.01-.13v-.52l1.96-.23h.02l.26.18v2.78l-.05 1.02c.26-.23.61-.45 1.06-.66s.9-.31 1.36-.31c.5 0 .9.1 1.18.29s.48.49.59.88.17.93.17 1.6v3.35l.84.11v.59h-2.87v-.59l.78-.11v-3.36c0-.47-.03-.84-.1-1.11q-.09-.405-.36-.6c-.27-.195-.44-.2-.79-.2-.29 0-.6.07-.92.22-.33.14-.62.31-.86.5v4.55l.83.11v.59h-2.8v-.59l.72-.1v-8.26z"/>
    <path class="st23" d="M85.37 53.8c-.22.08-.58.19-1.06.3s-.87.2-1.17.24l-.16-.9c.54-.12 1.1-.31 1.67-.59s1.05-.58 1.43-.91h.02l.98.16v9.02l1.98.14v.78H83.3v-.78l2.06-.14V53.8zm6.04 6.99q-1.02-1.41-1.02-3.66c0-1.04.19-1.96.58-2.74.38-.78.91-1.38 1.57-1.8s1.39-.62 2.18-.62c1.39 0 2.4.45 3.04 1.34s.96 2.11.96 3.66c0 1.04-.18 1.95-.55 2.74s-.87 1.41-1.52 1.85-1.37.66-2.17.66c-1.37-.02-2.39-.49-3.07-1.43m5.51-3.68c0-1.39-.18-2.45-.54-3.2s-.96-1.12-1.8-1.12c-.82 0-1.43.36-1.82 1.06s-.59 1.73-.59 3.05c0 1.35.19 2.44.57 3.26s.98 1.22 1.8 1.22c1.59.01 2.38-1.42 2.38-4.27m4.78 3.68q-1.02-1.41-1.02-3.66c0-1.04.19-1.96.58-2.74.38-.78.91-1.38 1.57-1.8s1.39-.62 2.18-.62c1.39 0 2.4.45 3.04 1.34s.96 2.11.96 3.66c0 1.04-.18 1.95-.55 2.74s-.87 1.41-1.52 1.85-1.37.66-2.17.66c-1.37-.02-2.39-.49-3.07-1.43m5.51-3.68c0-1.39-.18-2.45-.54-3.2s-.96-1.12-1.8-1.12c-.82 0-1.43.36-1.82 1.06s-.59 1.73-.59 3.05c0 1.35.19 2.44.57 3.26s.98 1.22 1.8 1.22c1.59.01 2.38-1.42 2.38-4.27m4.96-.63c-.44-.29-.77-.69-1-1.18s-.34-1.04-.34-1.63c0-.7.14-1.31.42-1.82q.42-.765 1.14-1.17c.72-.405 1-.4 1.57-.4.97 0 1.69.3 2.16.91s.7 1.4.7 2.38c0 .69-.14 1.29-.43 1.8s-.67.89-1.14 1.15q-.705.39-1.56.39c-.57.01-1.08-.14-1.52-.43m2.79-1.05c.27-.44.4-1.04.4-1.79s-.13-1.35-.38-1.82c-.25-.46-.62-.7-1.11-.7-.5 0-.89.22-1.15.66s-.4 1.04-.4 1.81c0 .69.13 1.28.38 1.77.26.49.62.73 1.1.73.5 0 .89-.22 1.16-.66m5.24-5.39h1.22l-5.12 12.02h-1.22zm.83 11.26a2.86 2.86 0 0 1-.99-1.18c-.23-.5-.34-1.04-.34-1.64 0-.69.14-1.3.42-1.81s.66-.9 1.14-1.18c.48-.27 1-.41 1.57-.41.95 0 1.66.31 2.14.92.47.61.71 1.41.71 2.38 0 .69-.14 1.29-.43 1.8s-.67.89-1.14 1.16c-.48.27-.99.4-1.56.4-.59 0-1.09-.15-1.52-.44m2.77-1.07c.28-.44.42-1.03.42-1.79 0-.75-.13-1.35-.38-1.82-.25-.46-.62-.7-1.11-.7-.5 0-.89.22-1.16.66s-.41 1.04-.41 1.8c0 .7.13 1.3.38 1.78.26.48.62.72 1.09.72.51.01.9-.21 1.17-.65"/>
    <path class="st0" d="M453.74 49.41h49.25v14.83h-49.25z"/>
    <path class="st23" d="M462.63 64.26c.76 0 1.45-.15 2.08-.46s1.13-.74 1.49-1.28.54-1.16.54-1.86c0-1.72-.79-2.58-2.38-2.58-.35 0-.74.05-1.18.15-.43.1-.81.22-1.13.36l-.43-.3.78-5.76h4.56l.16-.3h.99l-.29 1.65h-4.24l-.74 3.73c.29-.15.66-.28 1.1-.4.45-.12.9-.18 1.34-.18 1.02 0 1.83.29 2.42.86.59.58.88 1.41.88 2.51 0 .84-.24 1.62-.73 2.34-.49.71-1.17 1.29-2.06 1.71-.89.43-1.89.64-3.02.64-.46 0-.83-.04-1.12-.11v-.77c.32.03.64.05.98.05m9.05-3.02q-1.02-1.41-1.02-3.66c0-1.04.19-1.96.58-2.74s.91-1.38 1.57-1.8 1.39-.62 2.18-.62c1.39 0 2.4.45 3.04 1.34q.96 1.335.96 3.66c0 1.03-.18 1.95-.55 2.74s-.87 1.41-1.52 1.85-1.37.66-2.17.66c-1.37-.01-2.39-.49-3.07-1.43m5.52-3.67c0-1.39-.18-2.45-.54-3.2s-.96-1.12-1.8-1.12c-.82 0-1.43.35-1.82 1.06s-.59 1.73-.59 3.05c0 1.35.19 2.44.57 3.26s.98 1.22 1.8 1.22c1.58 0 2.38-1.42 2.38-4.27m4.96-.63a2.75 2.75 0 0 1-1-1.18c-.23-.49-.34-1.03-.34-1.63 0-.7.14-1.31.42-1.82q.42-.765 1.14-1.17c.48-.27 1-.4 1.57-.4.97 0 1.69.3 2.16.91s.7 1.4.7 2.38c0 .69-.14 1.29-.43 1.8s-.67.89-1.14 1.15-1 .39-1.56.39c-.58.01-1.09-.14-1.52-.43m2.78-1.05c.27-.44.4-1.03.4-1.79 0-.75-.12-1.35-.38-1.82s-.62-.7-1.11-.7c-.5 0-.89.22-1.15.66s-.4 1.04-.4 1.81c0 .69.13 1.28.38 1.77.26.49.62.73 1.1.73.51 0 .89-.22 1.16-.66m5.25-5.39h1.22l-5.12 12.02h-1.22zm.82 11.25a2.86 2.86 0 0 1-.99-1.18c-.23-.5-.34-1.04-.34-1.64 0-.69.14-1.3.42-1.81s.66-.9 1.14-1.18c.48-.27 1-.41 1.57-.41.95 0 1.66.31 2.14.92s.71 1.41.71 2.38c0 .69-.14 1.29-.43 1.8s-.67.89-1.14 1.16-.99.4-1.56.4c-.58 0-1.09-.14-1.52-.44m2.78-1.06c.28-.44.42-1.03.42-1.79 0-.75-.13-1.35-.38-1.82-.25-.46-.62-.7-1.11-.7-.5 0-.89.22-1.16.66s-.41 1.04-.41 1.8c0 .7.13 1.3.38 1.78.26.48.62.72 1.09.72.5 0 .89-.21 1.17-.65"/>
    <path class="st0" d="M276.07 49.41h49.25v14.83h-49.25z"/>
    <path class="st23" d="M284.97 64.26c.76 0 1.45-.15 2.08-.46s1.13-.74 1.49-1.28.54-1.16.54-1.86c0-1.72-.79-2.58-2.38-2.58-.35 0-.74.05-1.18.15-.43.1-.81.22-1.13.36l-.43-.3.78-5.76h4.56l.16-.3h.99l-.29 1.65h-4.24l-.74 3.73c.29-.15.66-.28 1.1-.4.45-.12.9-.18 1.34-.18 1.02 0 1.83.29 2.42.86.59.58.88 1.41.88 2.51 0 .84-.24 1.62-.73 2.34-.49.71-1.17 1.29-2.06 1.71-.89.43-1.89.64-3.02.64-.46 0-.83-.04-1.12-.11v-.77c.32.03.64.05.98.05m9.05-3.02Q293 59.83 293 57.58c0-1.04.19-1.96.58-2.74s.91-1.38 1.57-1.8 1.39-.62 2.18-.62c1.39 0 2.4.45 3.04 1.34q.96 1.335.96 3.66c0 1.03-.18 1.95-.55 2.74s-.87 1.41-1.52 1.85-1.37.66-2.17.66c-1.37-.01-2.4-.49-3.07-1.43m5.51-3.67c0-1.39-.18-2.45-.54-3.2s-.96-1.12-1.8-1.12c-.82 0-1.43.35-1.82 1.06s-.59 1.73-.59 3.05c0 1.35.19 2.44.57 3.26s.98 1.22 1.8 1.22c1.58 0 2.38-1.42 2.38-4.27m4.96-.63a2.75 2.75 0 0 1-1-1.18c-.23-.49-.34-1.03-.34-1.63 0-.7.14-1.31.42-1.82q.42-.765 1.14-1.17c.48-.27 1-.4 1.57-.4.97 0 1.69.3 2.16.91s.7 1.4.7 2.38c0 .69-.14 1.29-.43 1.8s-.67.89-1.14 1.15-1 .39-1.56.39c-.58.01-1.08-.14-1.52-.43m2.78-1.05c.27-.44.4-1.03.4-1.79 0-.75-.12-1.35-.38-1.82s-.62-.7-1.11-.7c-.5 0-.89.22-1.15.66s-.4 1.04-.4 1.81c0 .69.13 1.28.38 1.77.26.49.62.73 1.1.73.51 0 .9-.22 1.16-.66m5.25-5.39h1.22l-5.12 12.02h-1.22zm.82 11.25a2.86 2.86 0 0 1-.99-1.18c-.23-.5-.34-1.04-.34-1.64 0-.69.14-1.3.42-1.81s.66-.9 1.14-1.18c.48-.27 1-.41 1.57-.41.95 0 1.66.31 2.14.92s.71 1.41.71 2.38c0 .69-.14 1.29-.43 1.8s-.67.89-1.14 1.16-.99.4-1.56.4c-.58 0-1.08-.14-1.52-.44m2.78-1.06c.28-.44.42-1.03.42-1.79 0-.75-.13-1.35-.38-1.82-.25-.46-.62-.7-1.11-.7-.5 0-.89.22-1.16.66s-.41 1.04-.41 1.8c0 .7.13 1.3.38 1.78.26.48.62.72 1.09.72.5 0 .89-.21 1.17-.65"/>
    <path class="st24" d="M544.18 256.11v6h-6"/>
    <path class="st25" d="M525.98 262.11h-115.9"/>
    <path class="st24" d="M403.98 262.11h-6v-6"/>
    <path class="st26" d="M397.98 243.72V51.63"/>
    <path class="st24" d="M397.98 45.44v-6h6"/>
    <path class="st25" d="M416.18 39.44h115.9"/>
    <path class="st24" d="M538.18 39.44h6v6"/>
    <path class="st26" d="M544.18 57.83v192.08"/>
    <path class="st24" d="M374.37 256.11v6h-6"/>
    <path class="st25" d="M356.17 262.11H240.28"/>
    <path class="st24" d="M234.18 262.11h-6v-6"/>
    <path class="st26" d="M228.18 243.72V51.63"/>
    <path class="st24" d="M228.18 45.44v-6h6"/>
    <path class="st25" d="M246.38 39.44h115.89"/>
    <path class="st24" d="M368.37 39.44h6v6"/>
    <path class="st26" d="M374.37 57.83v192.08"/>
    <g id="Coin_Flip">
      <path class="st27" d="M433.86 67.31c-12.13 0-21.64 4.75-21.64 10.82v6.49c0 6.07 9.51 10.82 21.64 10.82 12.14 0 21.64-4.75 21.64-10.82v-6.49c0-6.07-9.51-10.82-21.64-10.82m0 1.44c10.95 0 20.2 4.29 20.2 9.38 0 5.08-9.25 9.38-20.2 9.38s-20.2-4.29-20.2-9.38c0-5.08 9.25-9.38 20.2-9.38m3.39 20.08c.05 0 .09-.01.13-.01.46-.04.91-.08 1.35-.13.06-.01.12-.01.18-.02v5.02q-1.065.135-2.16.21v-5.04zm3.1-.35c.04-.01.07-.01.11-.02l.2-.03c.41-.07.82-.14 1.21-.22.09-.02.19-.04.28-.05.12-.02.24-.05.36-.07v4.98q-1.05.24-2.16.42zm3.61-.74c.28-.07.56-.15.83-.23l.23-.06c.13-.04.25-.08.38-.12v4.93c-.47.15-.95.3-1.44.44zm2.88-.9c.21-.08.41-.16.61-.24.05-.02.11-.04.16-.06.23-.09.45-.19.68-.29v4.85q-.69.33-1.44.63v-4.89zm2.89-1.28c.03-.01.05-.03.08-.04.03-.02.06-.03.09-.05.32-.17.62-.35.91-.54.07-.04.13-.08.2-.13.05-.04.11-.07.17-.11v4.68c-.44.34-.92.66-1.44.97zm-33.19-.86c.05.04.11.07.17.11s.13.08.19.12c.29.18.6.36.91.54.03.02.06.03.09.05.03.01.05.03.08.04v4.79c-.52-.31-1-.63-1.44-.97zm2.89 1.56c.22.1.45.19.68.29.05.02.1.04.16.06.2.08.4.16.61.24v4.9q-.75-.3-1.44-.63v-4.86zm2.89 1.07c.13.04.25.08.38.12.07.02.15.04.23.06.27.08.55.16.84.23v4.96c-.49-.14-.98-.28-1.44-.44v-4.93zm2.88.75c.12.03.24.05.36.07.09.02.19.04.28.05.4.08.8.15 1.22.22l.2.03c.04.01.07.01.11.02v5.01q-1.11-.18-2.16-.42v-4.98zm3.61.59c.06.01.12.01.18.02.45.05.89.09 1.35.13.04 0 .09.01.13.01l.5.03v5.04c-.73-.05-1.46-.12-2.16-.21zm-15.15-4.05v-2.53c.02.03.05.06.07.09.17.21.34.42.53.62l.04.04c.2.22.43.43.66.63.05.04.09.08.14.12v4.43c-.92-1.05-1.44-2.2-1.44-3.4m18.75 9.35v-5.05a35 35 0 0 0 2.88 0v5.05a35 35 0 0 1-2.88 0m21.65-11.88v2.53c0 1.2-.52 2.35-1.44 3.41V83.6c.05-.04.09-.08.14-.13q.345-.315.66-.63c.01-.02.03-.03.04-.05.19-.2.37-.41.53-.62.02-.02.04-.05.07-.08"/>
      <path class="st27" d="m423.74 84.7.36.1 1.94.49c.35.07.71.13 1.06.19.07.01.14.03.21.04.4.07.81.13 1.22.19.28.04.57.07.85.11.26.03.52.06.78.08.49.05.98.08 1.48.11.09.01.18.01.28.02.64.03 1.29.05 1.94.05.64 0 1.27-.02 1.89-.04.1 0 .19-.01.29-.02.48-.03.95-.06 1.42-.1l.86-.09.75-.09c.45-.06.9-.13 1.34-.2.04-.01.09-.02.13-.02.35-.06.7-.11 1.04-.18l1.54-.38.73-.2c5.35-1.54 8.76-4.17 8.76-6.61 0-3.75-8.02-7.94-18.76-7.94-10.73 0-18.76 4.19-18.76 7.94.01 2.4 3.37 5.01 8.65 6.55m7.18-3.68c-1.48-.48-2.33-1.32-2.51-2.48l-.08-.49-.49-.1c-.32-.07-.42-.18-.45-.18l.17-.54c.02-.06.22-.28.68-.41l.32-.09.14-.31c.18-.41.43-.77.75-1.09.13-.14.24-.24.33-.32.31-.28.5-.5.56-.86h.01c1.06.39 2.28.43 3.11.39.13-.01.26-.01.39-.01 2.91 0 4.55.6 5.15 1.89l.14.3.32.09c.47.13.67.35.69.41l.17.51c-.02.03-.13.15-.45.22l-.48.1-.08.49c-.18 1.17-1.03 2-2.51 2.48l-.56.18.17 1.5c.06.51.44.96 1 1.17l1.22.46c-.14.02-.28.04-.43.05-.47.05-.95.1-1.44.13-.23.02-.45.04-.68.05-1.48.08-2.99.08-4.47 0-.23-.01-.46-.03-.69-.05-.49-.04-.97-.08-1.44-.13a6 6 0 0 0-.43-.05l1.25-.45c.57-.2.96-.65 1.01-1.17l.17-1.5zm2.94-9.38c10.74 0 17.31 4.2 17.31 6.49 0 1.68-3.56 4.39-9.71 5.71l-3.56-1.33a.2.2 0 0 1-.07-.04l-.03-.3c1.82-.75 2.56-1.95 2.84-2.97.41-.17.74-.43.93-.75.2-.34.25-.74.13-1.12l-.17-.54c-.17-.54-.67-1-1.36-1.27-1.24-2.17-4.17-2.43-6.31-2.43-.15 0-.3 0-.45.01-1 .04-1.91-.07-2.56-.31-.36-.13-.52-.23-.58-.27-.31-.23-.71-.2-.98-.07-.27.14-.44.41-.44.7 0 .16.01.35.05.57.01.05.02.09.02.12-.03.03-.06.06-.1.09-.1.09-.23.21-.39.37-.36.36-.66.77-.9 1.22-.69.27-1.18.73-1.34 1.27l-.17.54c-.12.38-.07.78.13 1.12.19.33.51.59.93.75.28 1.03 1.02 2.22 2.84 2.97l-.03.29c-.02.01-.04.03-.08.04l-3.64 1.32c-6.09-1.33-9.62-4.02-9.62-5.69-.01-2.29 6.57-6.49 17.31-6.49m-41.7 18.53h-3.82c-1.63 0-1.94-.27-1.94-.71 0-.5.81-1.38 1-1.69s1.38-1.38 1.63-2.94c.25-1.57-1.63-2.69-2.25-1.63-.37.63-1.32 2.51-2.44 3.32-2.09 1.51-3.82 4.8-6 4.8v7.09c1.8 0 5.86 2 7.31 2.28 1.63.33 3.76 1.05 4.9-.49.7-.95 1.79-3.5 2.61-6.11 2.07-2 .63-3.92-1-3.92m-21.07-9.21.03.03c.05.06.11.1.17.14.02.02.04.04.07.05.02.01.05.02.07.02.02.01.04.01.06.01.05.01.1.03.16.03h3.6c.4 0 .72-.32.72-.72s-.32-.72-.72-.72h-2.52c.93-2.15 2.42-4.33 4.69-4.33 1.56 0 3.1 1.39 4.33 3.92.18.36.61.51.97.33s.51-.61.33-.97c-1.91-3.91-4.12-4.73-5.63-4.73-1.75 0-4.12.92-5.95 5.06l-1.41-1.88a.72.72 0 0 0-1.01-.14c-.32.24-.38.69-.14 1.01zm35.69-2.74c.24-.32.17-.77-.14-1.01a.73.73 0 0 0-1.01.14l-1.41 1.88c-1.82-4.14-4.2-5.06-5.95-5.06-1.51 0-3.72.82-5.63 4.73-.18.36-.03.79.33.97.36.17.79.03.97-.33 1.24-2.53 2.78-3.92 4.33-3.92 2.27 0 3.76 2.17 4.69 4.33h-2.52c-.4 0-.72.32-.72.72s.32.72.72.72h3.6c.06 0 .1-.02.16-.03.02-.01.04 0 .06-.01s.05-.01.07-.02c.03-.01.05-.03.07-.05.07-.04.13-.09.17-.14l.03-.03zm-66.61-12.13c-12.14 0-21.64 4.75-21.64 10.82v6.49c0 6.07 9.51 10.82 21.64 10.82s21.64-4.75 21.64-10.82v-6.49c.01-6.06-9.5-10.82-21.64-10.82m0 1.45c10.95 0 20.2 4.29 20.2 9.38 0 5.08-9.25 9.38-20.2 9.38s-20.2-4.29-20.2-9.38c.01-5.09 9.25-9.38 20.2-9.38m3.39 20.07c.05 0 .09-.01.13-.01.46-.04.91-.08 1.35-.13.06-.01.12-.01.18-.02v5.02q-1.065.135-2.16.21v-5.04zm3.11-.35c.04-.01.07-.01.11-.02l.2-.03c.41-.07.82-.14 1.21-.22.09-.02.19-.04.28-.05.12-.02.24-.05.36-.07v4.98q-1.05.24-2.16.42zm3.6-.74c.28-.07.56-.15.83-.23l.23-.06c.13-.04.25-.08.38-.12v4.93c-.47.15-.95.3-1.44.44zm2.89-.89c.21-.08.41-.16.61-.24.05-.02.11-.04.16-.06.23-.09.45-.19.68-.29v4.85q-.69.33-1.44.63v-4.89zm2.88-1.29c.03-.01.05-.03.08-.04.03-.02.06-.03.09-.05.32-.17.62-.35.91-.54.07-.04.13-.08.2-.13.05-.04.11-.07.17-.11v4.68c-.44.34-.92.66-1.44.97zm-33.18-.86c.05.04.11.07.17.11s.13.08.19.12c.29.18.6.36.91.54.03.02.06.03.09.05.03.01.05.03.08.04v4.79c-.52-.31-1-.63-1.44-.97zm2.89 1.56c.22.1.45.19.68.29.05.02.1.04.16.06.2.08.4.16.61.24v4.9q-.75-.3-1.44-.63v-4.86zm2.88 1.07c.13.04.25.08.38.12.07.02.15.04.23.06.27.08.55.16.84.23v4.96c-.49-.14-.98-.28-1.44-.44v-4.93zm2.89.75c.12.03.24.05.36.07.09.02.19.04.28.05.4.08.8.15 1.22.22l.2.03c.04.01.07.01.11.02v5.01q-1.11-.18-2.16-.42v-4.98zm3.6.59c.06.01.12.01.18.02.45.05.89.09 1.35.13.04 0 .09.01.13.01l.5.03v5.04c-.73-.05-1.46-.12-2.16-.21zm-15.14-4.04v-2.53c.02.03.05.06.07.09.17.21.34.42.53.62l.04.04c.2.22.43.43.66.63.05.04.09.08.14.12v4.43c-.93-1.06-1.44-2.21-1.44-3.4m18.75 9.35v-5.05a35 35 0 0 0 2.88 0v5.05q-.72.03-1.44.03c-.72 0-.96-.02-1.44-.03m21.64-11.89v2.53c0 1.2-.52 2.35-1.44 3.41v-4.43c.05-.04.09-.08.14-.13q.345-.315.66-.63c.01-.02.03-.03.04-.05.19-.2.37-.41.53-.62.02-.02.05-.05.07-.08"/>
      <path class="st27" d="M333.62 78.37a.835.835 0 0 0-.81-.65c-.46 0-.83.37-.83.83 0 1.22 1.63 1.72 2.85 1.99 1.27.28 2.9.45 4.65.5v.01c0 .46.37.83.83.83s.83-.37.83-.83v-.01c1.75-.04 3.38-.21 4.65-.5 1.22-.27 2.85-.77 2.85-1.99s-1.63-1.72-2.85-1.99c-1.47-.33-3.42-.51-5.49-.51-3.28 0-5.47-.46-6.34-.83.88-.37 3.06-.83 6.34-.83 3.88 0 6.23.65 6.69 1.01.08.37.42.65.81.65.46 0 .83-.37.83-.83 0-1.22-1.63-1.72-2.85-1.99-1.27-.28-2.9-.45-4.65-.5v-.01c0-.46-.37-.83-.83-.83s-.83.37-.83.83v.01c-1.75.04-3.38.21-4.65.5-1.22.27-2.85.77-2.85 1.99s1.63 1.72 2.85 1.99c1.47.33 3.42.51 5.49.51 3.28 0 5.47.46 6.34.83-.88.37-3.06.83-6.34.83-3.88 0-6.23-.64-6.69-1.01"/>
      <path class="st27" d="M340.24 70c10.4 0 17.64 3.58 17.64 6.79s-7.25 6.79-17.64 6.79S322.6 80 322.6 76.79 329.84 70 340.24 70m0-1c-10.3 0-18.64 3.49-18.64 7.79s8.35 7.79 18.64 7.79 18.64-3.49 18.64-7.79S350.54 69 340.24 69"/>
    </g>
  </g>
  <g id="Board_2_-_German"/>
  <g id="Board_2"/>
  <g id="Board_1_-_German"/>
  <g id="Board_1"/>
</svg>
