<svg xmlns="http://www.w3.org/2000/svg" xmlns:xlink="http://www.w3.org/1999/xlink" viewBox="0 0 551.35 194.49" xml:space="preserve">
  <style>
    .st0{fill:none}.st1{fill:#0c3958}.st2{fill:#8dbe22}.st4{fill:#fff}.st24,.st30,.st31{fill:none;stroke:#0c3958;stroke-width:.5;stroke-miterlimit:10}.st30{stroke-dasharray:12.1682,12.1682}.st31{stroke-dasharray:11.0508,11.0508}
  </style>
  <g id="Board_4"/>
  <g id="Board_3_-_English"/>
  <g id="Board_3">
    <g id="Coin_Flip"/>
  </g>
  <g id="Board_2_-_English">
    <path class="st0" d="M400.99 52.37h96.36V67.2h-96.36z"/>
    <path class="st1" d="M418.6 63.5c.57 0 1.09-.12 1.56-.35s.84-.55 1.12-.96c.27-.41.41-.87.41-1.39 0-1.29-.6-1.93-1.79-1.93-.26 0-.56.04-.88.11s-.61.17-.85.27l-.32-.23.59-4.32h3.42l.12-.23h.74l-.22 1.24h-3.18l-.55 2.8c.22-.11.49-.21.83-.3s.67-.13 1.01-.13c.77 0 1.37.22 1.81.65s.66 1.06.66 1.88a3 3 0 0 1-.55 1.75c-.36.54-.88.96-1.54 1.28s-1.42.48-2.27.48c-.34 0-.62-.03-.84-.08v-.58c.23.03.47.04.72.04m6.79-2.26c-.51-.71-.76-1.62-.76-2.74 0-.78.14-1.47.43-2.06s.68-1.04 1.18-1.35 1.04-.47 1.63-.47c1.04 0 1.8.33 2.28 1s.72 1.58.72 2.74c0 .78-.14 1.46-.41 2.06-.28.6-.66 1.06-1.14 1.39s-1.03.49-1.63.49c-1.03 0-1.79-.35-2.3-1.06m4.13-2.75c0-1.04-.13-1.84-.4-2.4q-.405-.84-1.35-.84c-.62 0-1.07.27-1.37.8s-.44 1.29-.44 2.29c0 1.02.14 1.83.43 2.44.28.61.73.92 1.35.92 1.19-.01 1.78-1.08 1.78-3.21m3.59 2.75c-.51-.71-.76-1.62-.76-2.74 0-.78.14-1.47.43-2.06s.68-1.04 1.18-1.35 1.04-.47 1.63-.47c1.04 0 1.8.33 2.28 1s.72 1.58.72 2.74c0 .78-.14 1.46-.41 2.06-.28.6-.66 1.06-1.14 1.39s-1.04.49-1.64.49c-1.02 0-1.79-.35-2.29-1.06m4.13-2.75c0-1.04-.13-1.84-.4-2.4q-.405-.84-1.35-.84c-.62 0-1.07.27-1.37.8s-.44 1.29-.44 2.29c0 1.02.14 1.83.43 2.44.28.61.73.92 1.35.92 1.18-.01 1.78-1.08 1.78-3.21m11.53 2.01c-.28.56-.68 1.01-1.2 1.34s-1.13.49-1.82.49c-.19 0-.4-.02-.62-.05q-.33-.045-.54-.12l.04 1.01v1.21l1.25.13v.59h-3.35v-.59l.86-.13v-7.92l-.88-.22v-.64l1.7-.22h.02l.25.22v.71c.24-.26.54-.49.89-.67.36-.18.75-.28 1.19-.28.47 0 .91.12 1.3.35.4.23.71.59.95 1.08s.36 1.1.36 1.85c.02.67-.12 1.29-.4 1.86m-3.54-4.11c-.26.13-.47.27-.61.42v4.52c.06.1.2.18.43.26s.48.11.75.11c.62 0 1.11-.24 1.49-.73s.57-1.22.57-2.21c0-.86-.17-1.51-.5-1.93s-.76-.64-1.28-.64c-.3.01-.58.07-.85.2m5.74 4.99c-.51-.63-.76-1.48-.76-2.53 0-.7.13-1.31.4-1.84.26-.53.63-.94 1.11-1.22.48-.29 1.02-.43 1.63-.43.74 0 1.32.21 1.73.62s.63 1 .65 1.77c0 .49-.03.86-.08 1.12h-4.13c.02.79.2 1.43.55 1.91s.85.73 1.5.73c.32 0 .65-.06 1-.17.35-.12.62-.25.81-.41l.23.53c-.23.24-.58.45-1.03.62-.46.18-.92.26-1.39.26q-1.455-.015-2.22-.96m3.44-3.16c.02-.17.04-.34.04-.52q-.015-.78-.33-1.23c-.21-.3-.55-.45-1-.45-.46 0-.83.17-1.11.5-.28.34-.43.9-.47 1.69h2.87zm2.8-1.24c.3-.53.69-.93 1.17-1.21s1-.41 1.55-.41c1.01 0 1.77.32 2.27.96.51.64.76 1.48.76 2.52 0 .73-.15 1.36-.44 1.88a3.07 3.07 0 0 1-2.72 1.61c-1.01 0-1.77-.32-2.27-.96-.51-.64-.76-1.48-.76-2.52-.01-.72.14-1.35.44-1.87m3.93 3.98c.3-.46.44-1.13.44-2.03 0-.89-.14-1.59-.41-2.11s-.71-.78-1.31-.78c-.55 0-.98.23-1.28.68s-.45 1.13-.45 2.03c0 .89.14 1.59.42 2.11s.72.78 1.31.78c.56 0 .99-.22 1.28-.68m8.99-.46c-.28.56-.68 1.01-1.2 1.34s-1.13.49-1.82.49c-.19 0-.4-.02-.62-.05q-.33-.045-.54-.12l.04 1.01v1.21l1.25.13v.59h-3.35v-.59l.86-.13v-7.92l-.88-.22v-.64l1.7-.22h.02l.25.22v.71c.24-.26.54-.49.89-.67.36-.18.75-.28 1.19-.28.47 0 .91.12 1.3.35.4.23.71.59.95 1.08s.36 1.1.36 1.85c.02.67-.12 1.29-.4 1.86m-3.54-4.11c-.26.13-.47.27-.61.42v4.52c.06.1.2.18.43.26s.48.11.75.11c.62 0 1.11-.24 1.49-.73s.57-1.22.57-2.21c0-.86-.17-1.51-.5-1.93s-.76-.64-1.28-.64c-.3.01-.59.07-.85.2m5.88-3.15-.97-.13v-.51l1.93-.23h.02l.26.18v8.96l1.02.1v.59h-3.24v-.59l.97-.11v-8.26zm3.86 8.14c-.51-.63-.76-1.48-.76-2.53 0-.7.13-1.31.4-1.84.26-.53.63-.94 1.11-1.22.48-.29 1.02-.43 1.63-.43.74 0 1.32.21 1.73.62s.63 1 .65 1.77c0 .49-.03.86-.08 1.12h-4.13c.02.79.2 1.43.55 1.91s.85.73 1.5.73c.32 0 .65-.06 1-.17.35-.12.62-.25.81-.41l.23.53c-.23.24-.58.45-1.03.62-.46.18-.92.26-1.39.26-.98-.01-1.71-.33-2.22-.96m3.44-3.16c.02-.17.04-.34.04-.52q-.015-.78-.33-1.23c-.21-.3-.55-.45-1-.45-.46 0-.83.17-1.11.5-.28.34-.43.9-.47 1.69h2.87z"/>
    <path class="st0" d="M228.99 52.37h96.36V67.2h-96.36z"/>
    <path class="st1" d="M246.61 63.5c.57 0 1.09-.12 1.56-.35s.84-.55 1.12-.96.41-.87.41-1.39c0-1.29-.6-1.93-1.79-1.93-.26 0-.56.04-.88.11-.32.08-.61.17-.85.27l-.32-.23.59-4.32h3.42l.12-.23h.74l-.22 1.24h-3.18l-.55 2.8c.22-.11.49-.21.83-.3s.67-.13 1.01-.13c.77 0 1.37.22 1.81.65s.66 1.06.66 1.88a3 3 0 0 1-.55 1.75c-.36.54-.88.96-1.54 1.28s-1.42.48-2.27.48c-.34 0-.62-.03-.84-.08v-.58c.22.03.46.04.72.04m6.78-2.26c-.51-.71-.76-1.62-.76-2.74 0-.78.14-1.47.43-2.06s.68-1.04 1.18-1.35 1.04-.47 1.63-.47c1.04 0 1.8.33 2.28 1s.72 1.58.72 2.74c0 .78-.14 1.46-.41 2.06-.28.6-.66 1.06-1.14 1.39s-1.03.49-1.63.49c-1.02 0-1.79-.35-2.3-1.06m4.14-2.75c0-1.04-.13-1.84-.4-2.4s-.72-.84-1.35-.84c-.62 0-1.07.27-1.37.8s-.44 1.29-.44 2.29c0 1.02.14 1.83.43 2.44.28.61.73.92 1.35.92 1.18-.01 1.78-1.08 1.78-3.21m3.58 2.75c-.51-.71-.76-1.62-.76-2.74 0-.78.14-1.47.43-2.06s.68-1.04 1.18-1.35 1.04-.47 1.63-.47c1.04 0 1.8.33 2.28 1s.72 1.58.72 2.74c0 .78-.14 1.46-.41 2.06-.28.6-.66 1.06-1.14 1.39s-1.03.49-1.63.49c-1.03 0-1.79-.35-2.3-1.06m4.13-2.75c0-1.04-.13-1.84-.4-2.4s-.72-.84-1.35-.84c-.62 0-1.07.27-1.37.8s-.44 1.29-.44 2.29c0 1.02.14 1.83.43 2.44.28.61.73.92 1.35.92 1.19-.01 1.78-1.08 1.78-3.21m11.53 2.01c-.28.56-.68 1.01-1.2 1.34s-1.13.49-1.82.49c-.19 0-.4-.02-.62-.05q-.33-.045-.54-.12l.04 1.01v1.21l1.25.13v.59h-3.35v-.59l.86-.13v-7.92l-.88-.22v-.64l1.7-.22h.02l.25.22v.71c.24-.26.54-.49.89-.67.36-.18.75-.28 1.19-.28.47 0 .91.12 1.3.35.4.23.71.59.95 1.08s.36 1.1.36 1.85c.02.67-.12 1.29-.4 1.86m-3.54-4.11c-.26.13-.47.27-.61.42v4.52c.06.1.2.18.43.26s.48.11.75.11c.62 0 1.11-.24 1.49-.73s.57-1.22.57-2.21c0-.86-.17-1.51-.5-1.93s-.76-.64-1.28-.64c-.3.01-.58.07-.85.2m5.74 4.99c-.51-.63-.76-1.48-.76-2.53 0-.7.13-1.31.4-1.84.26-.53.63-.94 1.11-1.22.48-.29 1.02-.43 1.63-.43.74 0 1.32.21 1.73.62s.63 1 .65 1.77c0 .49-.03.86-.08 1.12h-4.13c.02.79.2 1.43.55 1.91s.85.73 1.5.73c.32 0 .65-.06 1-.17.35-.12.62-.25.81-.41l.23.53c-.23.24-.58.45-1.03.62-.46.18-.92.26-1.39.26q-1.455-.015-2.22-.96m3.44-3.16c.02-.17.04-.34.04-.52q-.015-.78-.33-1.23c-.21-.3-.55-.45-1-.45-.46 0-.83.17-1.11.5s-.43.9-.47 1.69h2.87zm2.8-1.24c.3-.53.69-.93 1.17-1.21s1-.41 1.55-.41c1.01 0 1.77.32 2.27.96s.76 1.48.76 2.52c0 .73-.15 1.36-.44 1.88a3.07 3.07 0 0 1-2.72 1.61c-1.01 0-1.77-.32-2.27-.96-.51-.64-.76-1.48-.76-2.52-.01-.72.14-1.35.44-1.87m3.93 3.98c.3-.46.44-1.13.44-2.03 0-.89-.14-1.59-.41-2.11s-.71-.78-1.31-.78c-.55 0-.98.23-1.28.68-.3.46-.45 1.13-.45 2.03 0 .89.14 1.59.42 2.11s.72.78 1.31.78c.56 0 .99-.22 1.28-.68m8.99-.46c-.28.56-.68 1.01-1.2 1.34s-1.13.49-1.82.49c-.19 0-.4-.02-.62-.05q-.33-.045-.54-.12l.04 1.01v1.21l1.25.13v.59h-3.35v-.59l.86-.13v-7.92l-.88-.22v-.64l1.7-.22h.02l.25.22v.71c.24-.26.54-.49.89-.67.36-.18.75-.28 1.19-.28.47 0 .91.12 1.3.35.4.23.71.59.95 1.08s.36 1.1.36 1.85c.02.67-.12 1.29-.4 1.86m-3.54-4.11c-.26.13-.47.27-.61.42v4.52c.06.1.2.18.43.26s.48.11.75.11c.62 0 1.11-.24 1.49-.73s.57-1.22.57-2.21c0-.86-.17-1.51-.5-1.93s-.76-.64-1.28-.64c-.3.01-.58.07-.85.2m5.88-3.15-.97-.13v-.51l1.93-.23h.02l.26.18v8.96l1.02.1v.59h-3.24v-.59l.97-.11v-8.26zm3.86 8.14c-.51-.63-.76-1.48-.76-2.53 0-.7.13-1.31.4-1.84.26-.53.63-.94 1.11-1.22.48-.29 1.02-.43 1.63-.43.74 0 1.32.21 1.73.62s.63 1 .65 1.77c0 .49-.03.86-.08 1.12h-4.13c.02.79.2 1.43.55 1.91s.85.73 1.5.73c.32 0 .65-.06 1-.17.35-.12.62-.25.81-.41l.23.53c-.23.24-.58.45-1.03.62-.46.18-.92.26-1.39.26q-1.455-.015-2.22-.96m3.44-3.16c.02-.17.04-.34.04-.52q-.015-.78-.33-1.23c-.21-.3-.55-.45-1-.45-.46 0-.83.17-1.11.5-.28.34-.43.9-.47 1.69h2.87z"/>
    <path class="st0" d="M302.58 15.4h119.19v19.92H302.58z"/>
    <path class="st1" d="m326.44 17.47-1.39-.18v-.75h4.41v.75l-1.4.18v9.33l1.4.16v.72h-4.4v-.73l1.38-.15zm5.41 3.04-1.08-.27v-.81l2.15-.27h.04l.31.27v.63l-.01.36c.36-.32.83-.61 1.42-.87s1.16-.39 1.7-.39c.63 0 1.12.12 1.46.36.35.24.59.61.73 1.1.14.5.21 1.16.21 2v4.2l1.05.1v.75h-3.56v-.73l.93-.12v-4.21c0-.59-.04-1.05-.12-1.39s-.23-.58-.45-.75-.54-.25-.96-.25c-.36 0-.75.09-1.16.27s-.78.39-1.09.63v5.69l1.02.14v.73h-3.54v-.73l.95-.14zm9.99 6.15c-.63-.79-.95-1.85-.95-3.17 0-.87.17-1.63.5-2.29s.79-1.17 1.39-1.53 1.27-.54 2.03-.54c.93 0 1.65.26 2.17.77s.79 1.25.82 2.21c0 .61-.04 1.08-.1 1.4h-5.16c.02.99.25 1.79.69 2.39s1.06.91 1.88.91c.4 0 .82-.07 1.25-.22.44-.15.77-.32 1.01-.52l.29.66q-.435.45-1.29.78t-1.74.33c-1.24.01-2.16-.39-2.79-1.18m4.29-3.94c.03-.21.04-.43.04-.65-.01-.65-.15-1.16-.41-1.54s-.68-.56-1.25-.56c-.58 0-1.04.21-1.39.63s-.54 1.12-.59 2.12zm6.96 7.89 1.67-.17v-2.41l.04-1.23c-.3.3-.66.55-1.09.75-.42.2-.89.3-1.4.3-.59 0-1.14-.15-1.64-.46s-.9-.77-1.2-1.4c-.3-.62-.45-1.4-.45-2.32 0-.85.17-1.62.52-2.31s.85-1.23 1.51-1.64c.66-.4 1.43-.6 2.32-.6q.87 0 1.83.27l.83-.23.29.25v11.02l1.04.15v.71h-4.26v-.68zm.9-4.01c.32-.17.58-.35.76-.55v-5.69c-.06-.12-.24-.23-.54-.32s-.62-.14-.96-.14c-.76 0-1.37.3-1.84.91s-.7 1.53-.7 2.77c0 1.07.21 1.88.62 2.44.42.55.95.83 1.6.83.39-.01.74-.09 1.06-.25m10.42 1.05c-.13-.11-.2-.29-.2-.54v-.51c-.33.33-.74.62-1.24.87s-.99.38-1.49.38q-1.395 0-1.98-.75c-.585-.75-.58-1.33-.58-2.48v-4.35l-.84-.24v-.66l2.1-.19h.01l.29.18v5.15c0 .58.04 1.03.13 1.36q.12.48.45.72c.21.16.53.23.94.23.4 0 .77-.08 1.12-.25s.65-.37.92-.6v-5.69l-1.08-.24v-.66l2.28-.19h.02l.34.18v7.56h.9l-.02.68c-.28.07-.52.12-.73.17-.21.04-.44.06-.71.06-.29-.02-.49-.08-.63-.19m4.69-4.29c.94-.44 2.13-.68 3.57-.71v-.42q0-.705-.15-1.11c-.1-.27-.27-.47-.52-.59s-.59-.19-1.04-.19c-.51 0-.97.07-1.37.22s-.81.32-1.21.53l-.38-.79c.13-.11.37-.25.72-.44.35-.18.75-.34 1.21-.48s.92-.21 1.38-.21c.71 0 1.27.1 1.69.29.41.19.71.51.89.94s.27 1 .27 1.73v4.81h.88v.66c-.2.05-.45.1-.76.15s-.57.07-.8.07c-.28 0-.47-.04-.57-.13s-.15-.27-.15-.56v-.5c-.3.3-.67.58-1.1.83-.44.25-.93.38-1.48.38-.72 0-1.32-.21-1.79-.62s-.71-1.01-.71-1.79c.01-.94.48-1.63 1.42-2.07m2.64 3.23q.51-.24.93-.57v-2.58c-1.09 0-1.91.17-2.47.5-.55.34-.83.77-.83 1.31s.13.94.4 1.19c.26.25.62.38 1.07.38.26.01.56-.07.9-.23m5.46-10.1-1.21-.17v-.65l2.42-.29h.03l.33.23v11.21l1.28.12v.73H376v-.73l1.21-.14V16.49zm5.07 4.02-1.14-.27v-.79l2.33-.29h.03l.34.27v7.4l1.2.12v.73h-3.98v-.73l1.22-.14zm-.12-2.92q-.24-.27-.24-.69c0-.32.1-.58.29-.79.2-.21.46-.31.8-.31s.59.09.75.27q.24.27.24.69c0 .34-.1.61-.29.81s-.47.3-.82.3h-.01c-.32-.01-.56-.1-.72-.28m5.23 9.85c-.28-.26-.42-.7-.42-1.33v-5.76h-1.08v-.67c.05-.01.19-.05.42-.11s.39-.11.47-.16c.16-.09.28-.27.38-.54.08-.19.17-.5.28-.92s.18-.67.2-.75h.88l.03 2.16h2.5v.99h-2.5v4.6c0 .57.02.97.05 1.2s.11.38.22.45c.12.07.31.1.59.1.27 0 .57-.03.89-.1.33-.07.58-.14.76-.23l.22.68c-.24.18-.63.35-1.16.52-.54.17-1.02.25-1.46.25-.56.01-.99-.12-1.27-.38m5.53 3.95a1 1 0 0 1-.35-.09v-1.31c.06.04.18.07.35.09s.34.03.5.03c.48 0 .9-.17 1.27-.5.37-.34.72-.98 1.06-1.93h-.72l-2.85-7.42-.69-.2v-.71h3.61v.71l-1.15.18 1.47 4.42.69 2.19.64-2.2 1.33-4.41-1-.18v-.71h3.01v.71l-.75.18c-1.47 4.5-2.33 7.06-2.59 7.67-.34.86-.65 1.53-.93 2.02q-.42.72-.99 1.11c-.57.39-.85.38-1.41.38-.17 0-.33-.01-.5-.03"/>
    <path class="st0" d="M34.15 15.4h94.74v19.92H34.15z"/>
    <path class="st1" d="m52.72 17.47-1.23-.18v-.75h7.63l.21 2.33h-.86l-.43-1.46-3.72-.09v4.23l2.5-.05.21-1.24h.83v3.45h-.83l-.21-1.29-2.5-.04v4.47l4.23-.15.79-1.89.89.27-.44 2.61h-8.33v-.73l1.25-.15v-9.34zm12.53 13.14 1.67-.17v-2.41l.04-1.23c-.3.3-.66.55-1.09.75-.42.2-.89.3-1.4.3-.59 0-1.14-.15-1.64-.46s-.9-.77-1.2-1.4c-.3-.62-.45-1.4-.45-2.32 0-.85.17-1.62.52-2.31s.85-1.23 1.51-1.64c.66-.4 1.43-.6 2.32-.6q.87 0 1.83.27l.83-.23.29.25v11.02l1.04.15v.71h-4.26v-.68zm.9-4.01c.32-.17.58-.35.76-.55v-5.69c-.06-.12-.24-.23-.54-.32s-.62-.14-.96-.14c-.76 0-1.37.3-1.84.91s-.7 1.53-.7 2.77c0 1.07.21 1.88.62 2.44.42.55.95.83 1.6.83.39-.01.74-.09 1.06-.25m10.42 1.05c-.13-.11-.2-.29-.2-.54v-.51c-.33.33-.74.62-1.24.87s-.99.38-1.49.38q-1.395 0-1.98-.75c-.585-.75-.58-1.33-.58-2.48v-4.35l-.84-.24v-.66l2.1-.19h.01l.29.18v5.15c0 .58.04 1.03.13 1.36q.12.48.45.72c.21.16.53.23.94.23.4 0 .77-.08 1.12-.25s.65-.37.92-.6v-5.69l-1.08-.24v-.66l2.28-.19h.02l.34.18v7.56h.9l-.02.68c-.28.07-.52.12-.73.17-.21.04-.44.06-.71.06-.29-.02-.5-.08-.63-.19m4.68-4.29c.94-.44 2.13-.68 3.57-.71v-.42q0-.705-.15-1.11c-.1-.27-.27-.47-.52-.59s-.59-.19-1.04-.19c-.51 0-.97.07-1.37.22s-.81.32-1.21.53l-.38-.78c.13-.11.37-.25.72-.44.35-.18.75-.34 1.21-.48s.92-.21 1.38-.21c.71 0 1.27.1 1.69.29.41.19.71.51.89.94s.27 1 .27 1.73v4.81h.88v.66c-.2.05-.45.1-.76.15s-.57.07-.8.07c-.28 0-.47-.04-.57-.13s-.15-.27-.15-.56v-.5c-.3.3-.67.58-1.1.83-.44.25-.93.38-1.48.38-.72 0-1.32-.21-1.79-.62s-.71-1.01-.71-1.79c.01-.95.48-1.64 1.42-2.08m2.64 3.23q.51-.24.93-.57v-2.58c-1.09 0-1.91.17-2.47.5-.55.34-.83.77-.83 1.31s.13.94.4 1.19c.26.25.62.38 1.07.38.26.01.56-.07.9-.23m5.46-10.1-1.21-.17v-.65l2.42-.29h.03l.33.23v11.21l1.28.12v.73h-4.05v-.73l1.21-.14V16.49zm5.07 4.02-1.14-.27v-.79l2.33-.29h.03l.34.27v7.4l1.2.12v.73H93.2v-.73l1.22-.14zm-.12-2.92q-.24-.27-.24-.69c0-.32.1-.58.29-.79.2-.21.46-.31.8-.31s.59.09.75.27q.24.27.24.69c0 .34-.1.61-.29.81s-.47.3-.82.3h-.01c-.32-.01-.56-.1-.72-.28m5.24 9.85c-.28-.26-.42-.7-.42-1.33v-5.76h-1.08v-.67c.05-.01.19-.05.42-.11s.39-.11.47-.16c.16-.09.28-.27.38-.54.08-.19.17-.5.28-.92s.18-.67.2-.75h.88l.03 2.16h2.5v.99h-2.5v4.6c0 .57.02.97.05 1.2s.11.38.22.45c.12.07.31.1.59.1.27 0 .57-.03.89-.1.33-.07.58-.14.76-.23l.22.68c-.24.18-.63.35-1.16.52-.54.17-1.02.25-1.46.25-.57.01-.99-.12-1.27-.38m5.53 3.95a1 1 0 0 1-.35-.09v-1.31c.06.04.18.07.35.09s.34.03.5.03c.48 0 .9-.17 1.27-.5.37-.34.72-.98 1.06-1.93h-.72l-2.85-7.42-.69-.2v-.71h3.61v.71l-1.15.18 1.47 4.42.69 2.19.64-2.2 1.33-4.41-1-.18v-.71h3.01v.71l-.75.18c-1.47 4.5-2.33 7.06-2.59 7.67-.34.86-.65 1.53-.93 2.02q-.42.72-.99 1.11c-.57.39-.85.38-1.41.38-.17 0-.34-.01-.5-.03"/>
    <path class="st0" d="M37.42 52.32h96.36v14.83H37.42z"/>
    <path class="st1" d="M50.5 55.96c-.17.06-.43.14-.79.23s-.65.15-.88.18l-.12-.67c.41-.09.83-.24 1.25-.44.43-.21.79-.44 1.07-.68h.01l.73.12v6.77l1.49.11v.59h-4.32v-.59l1.55-.11v-5.51zm5.76 4.78c.18.26.26.61.26 1.06 0 .46-.07.9-.22 1.32-.14.42-.32.79-.54 1.09s-.43.51-.64.63h-.01l-.41-.29v-.13c.16-.13.32-.41.49-.83.16-.43.25-.83.25-1.22 0-.12-.02-.22-.07-.29q-.06-.12-.21-.27a1.4 1.4 0 0 1-.25-.34c-.06-.1-.08-.24-.08-.42 0-.21.07-.38.2-.5.13-.13.3-.19.5-.19h.06c.27-.01.5.12.67.38m2.79.45c-.51-.71-.76-1.62-.76-2.74 0-.78.14-1.47.43-2.06s.68-1.04 1.18-1.35 1.04-.47 1.63-.47c1.04 0 1.8.33 2.28 1s.72 1.58.72 2.74c0 .78-.14 1.46-.41 2.06-.28.6-.66 1.06-1.14 1.39s-1.03.49-1.63.49c-1.02.01-1.79-.35-2.3-1.06m4.14-2.75c0-1.04-.13-1.84-.4-2.4s-.72-.84-1.35-.84c-.62 0-1.07.27-1.37.8s-.44 1.29-.44 2.29c0 1.02.14 1.83.43 2.44.28.61.73.92 1.35.92 1.18-.01 1.78-1.07 1.78-3.21m3.58 2.75c-.51-.71-.76-1.62-.76-2.74 0-.78.14-1.47.43-2.06s.68-1.04 1.18-1.35 1.04-.47 1.63-.47c1.04 0 1.8.33 2.28 1s.72 1.58.72 2.74c0 .78-.14 1.46-.41 2.06-.28.6-.66 1.06-1.14 1.39s-1.03.49-1.63.49c-1.03.01-1.79-.35-2.3-1.06m4.13-2.75c0-1.04-.13-1.84-.4-2.4s-.72-.84-1.35-.84c-.62 0-1.07.27-1.37.8s-.44 1.29-.44 2.29c0 1.02.14 1.83.43 2.44.28.61.73.92 1.35.92 1.19-.01 1.78-1.07 1.78-3.21m3.58 2.75c-.51-.71-.76-1.62-.76-2.74 0-.78.14-1.47.43-2.06s.68-1.04 1.18-1.35 1.04-.47 1.63-.47c1.04 0 1.8.33 2.28 1s.72 1.58.72 2.74c0 .78-.14 1.46-.41 2.06-.28.6-.66 1.06-1.14 1.39s-1.03.49-1.63.49c-1.02.01-1.79-.35-2.3-1.06m4.14-2.75c0-1.04-.13-1.84-.4-2.4s-.72-.84-1.35-.84c-.62 0-1.07.27-1.37.8s-.44 1.29-.44 2.29c0 1.02.14 1.83.43 2.44.28.61.73.92 1.35.92 1.18-.01 1.78-1.07 1.78-3.21m11.53 2.01c-.28.56-.68 1.01-1.2 1.34s-1.13.49-1.82.49c-.19 0-.4-.02-.62-.05q-.33-.045-.54-.12l.03 1.01v1.21l1.25.13v.59H83.9v-.59l.86-.13v-7.92l-.88-.22v-.65l1.7-.22h.02l.25.22v.71c.24-.26.54-.49.89-.67.36-.18.75-.28 1.19-.28.47 0 .91.12 1.3.35.4.23.71.59.95 1.08s.36 1.1.36 1.85c.03.68-.11 1.31-.39 1.87m-3.54-4.11c-.26.13-.47.27-.61.42v4.52c.06.1.2.18.43.26s.48.11.75.11c.62 0 1.11-.24 1.49-.73s.57-1.22.57-2.21c0-.86-.17-1.51-.5-1.93s-.76-.64-1.28-.64c-.3.01-.59.07-.85.2m5.74 4.99c-.51-.63-.76-1.48-.76-2.53 0-.7.13-1.31.4-1.84.26-.53.63-.94 1.11-1.22.48-.29 1.02-.43 1.63-.43.74 0 1.32.21 1.73.62s.63 1 .65 1.77c0 .49-.03.86-.08 1.12H92.9c.02.79.2 1.43.55 1.91s.85.73 1.5.73c.32 0 .65-.06 1-.17.35-.12.62-.25.81-.41l.23.53c-.23.24-.58.45-1.03.62-.46.18-.92.26-1.39.26q-1.455-.015-2.22-.96m3.44-3.15c.02-.17.04-.34.04-.52q-.015-.78-.33-1.23c-.21-.3-.55-.45-1-.45-.46 0-.83.17-1.11.5s-.43.9-.47 1.69h2.87zm2.8-1.25c.3-.53.69-.93 1.17-1.21s1-.41 1.55-.41c1.01 0 1.77.32 2.27.96.51.64.76 1.48.76 2.52 0 .73-.15 1.36-.44 1.88s-.69.93-1.17 1.2-1 .41-1.55.41c-1.01 0-1.77-.32-2.27-.96-.51-.64-.76-1.48-.76-2.52-.01-.72.14-1.34.44-1.87m3.93 3.98c.3-.46.44-1.13.44-2.03 0-.89-.14-1.59-.41-2.11s-.71-.78-1.31-.78c-.55 0-.98.23-1.28.68-.3.46-.45 1.13-.45 2.03 0 .89.14 1.59.42 2.11s.72.78 1.31.78c.56.01.99-.22 1.28-.68m8.99-.46c-.28.56-.68 1.01-1.2 1.34s-1.13.49-1.82.49c-.19 0-.4-.02-.62-.05q-.33-.045-.54-.12l.04 1.01v1.21l1.25.13v.59h-3.35v-.59l.86-.13v-7.92l-.88-.22v-.65l1.7-.22h.02l.25.22v.71c.24-.26.54-.49.89-.67.36-.18.75-.28 1.19-.28.47 0 .91.12 1.3.35.4.23.71.59.95 1.08s.36 1.1.36 1.85c.02.68-.12 1.31-.4 1.87m-3.54-4.11c-.26.13-.47.27-.61.42v4.52c.06.1.2.18.43.26s.48.11.75.11c.62 0 1.11-.24 1.49-.73s.57-1.22.57-2.21c0-.86-.17-1.51-.5-1.93s-.76-.64-1.28-.64c-.3.01-.59.07-.85.2m5.88-3.14-.97-.13v-.52l1.93-.23h.02l.26.18v8.96l1.02.1v.59h-3.24v-.59l.97-.11V53.2zm3.86 8.13c-.51-.63-.76-1.48-.76-2.53 0-.7.13-1.31.4-1.84.26-.53.63-.94 1.11-1.22.48-.29 1.02-.43 1.63-.43.74 0 1.32.21 1.73.62s.63 1 .65 1.77c0 .49-.03.86-.08 1.12h-4.13c.02.79.2 1.43.55 1.91s.85.73 1.5.73c.32 0 .65-.06 1-.17.35-.12.62-.25.81-.41l.23.53c-.23.24-.58.45-1.03.62-.46.18-.92.26-1.39.26-.98-.01-1.71-.33-2.22-.96m3.44-3.15c.02-.17.04-.34.04-.52q-.015-.78-.33-1.23c-.21-.3-.55-.45-1-.45-.46 0-.83.17-1.11.5s-.43.9-.47 1.69h2.87z"/>
  </g>
  <g id="Board_2">
    <defs>
      <path id="XMLID_5_" transform="rotate(-180 90.053 106.183)" d="M19.19 71.64h141.73v69.09H19.19z"/>
    </defs>
    <use xlink:href="#XMLID_5_" style="overflow:visible;fill:#8dbe22"/>
    <clipPath id="XMLID_00000071520309226259695710000003744609312199330207_">
      <use xlink:href="#XMLID_5_" style="overflow:visible"/>
    </clipPath>
    <path style="clip-path:url(#XMLID_00000071520309226259695710000003744609312199330207_);fill:#9ba0b3" d="M57.45 63.98h103.46v81.05H57.45z"/>
    <defs>
      <path id="XMLID_6_" d="M26.17 78.41v55.55h127.77V78.41zm110.08 48.6H100.4c5.68-4.17 9.46-11.85 9.46-20.44 0-9.13-4.26-17.06-10.56-21.23h36.95c0 5.56 5.19 12.6 10.74 12.6v20.37c-5.55.01-10.74 3.15-10.74 8.7M33.11 97.95c5.56 0 10.55-7.04 10.55-12.6H79.3c-6.3 4.17-10.56 12.1-10.56 21.23 0 8.58 3.77 16.27 9.46 20.44H43.67c0-5.56-5-8.7-10.55-8.7V97.95z"/>
    </defs>
    <use xlink:href="#XMLID_6_" style="overflow:visible;fill:#419c35"/>
    <clipPath id="XMLID_00000103943613221302685550000009857508714408278916_">
      <use xlink:href="#XMLID_6_" style="overflow:visible"/>
    </clipPath>
    <path style="clip-path:url(#XMLID_00000103943613221302685550000009857508714408278916_);fill:#0c3958" d="M57.45 72h103.46v69.88H57.45z"/>
    <path class="st4" d="M96.69 99.75c-.2-.22-.5-.46-.89-.72s-.84-.5-1.36-.74c-.52-.23-1.08-.44-1.7-.6-.62-.17-1.25-.27-1.9-.32v6.95l.64.13c1.21.29 2.3.62 3.28.97.98.36 1.8.8 2.47 1.31.67.52 1.19 1.15 1.56 1.9s.55 1.66.55 2.74c0 1.19-.21 2.2-.64 3.04s-1.01 1.54-1.76 2.1-1.62.98-2.62 1.26q-1.5.42-3.21.45v3.53h-1.75v-3.59c-1.61-.11-3.15-.43-4.6-.96a14.6 14.6 0 0 1-4-2.2l1.71-3.23c.25.27.6.56 1.08.87.47.31 1.02.62 1.65.91s1.32.55 2.07.77 1.53.38 2.34.47v-6.95c-.13-.04-.28-.08-.42-.12-.15-.03-.28-.07-.42-.12-1.19-.31-2.22-.64-3.11-.99-.88-.35-1.62-.77-2.2-1.26a4.9 4.9 0 0 1-1.33-1.73q-.45-.99-.45-2.4c0-1.1.19-2.07.57-2.92s.92-1.58 1.61-2.2 1.51-1.1 2.44-1.44c.93-.35 1.95-.57 3.07-.65v-3.39h1.75V94c1.46.09 2.8.38 4.03.87s2.32 1.09 3.26 1.78zm-11.09.87c0 .94.33 1.65.99 2.12s1.66.88 3.01 1.24v-6.62c-1.37.07-2.37.39-3.02.96s-.98 1.34-.98 2.3m9.71 11.16c0-.99-.39-1.73-1.18-2.23-.78-.5-1.88-.96-3.29-1.36v6.65c1.43-.02 2.54-.29 3.31-.81s1.16-1.27 1.16-2.25m28.2-5.6c0 3 2.43 5.43 5.43 5.43s5.43-2.43 5.43-5.43-2.43-5.43-5.43-5.43c-3 .01-5.43 2.44-5.43 5.43m-66.92 0c0 3-2.43 5.43-5.43 5.43s-5.43-2.43-5.43-5.43 2.43-5.43 5.43-5.43c3.01.01 5.43 2.44 5.43 5.43"/>
    <path class="st0" d="M43.89 148.52h87.42v19.43H43.89z"/>
    <path class="st2" d="M66.32 159.98c-.56.55-1.37.87-2.41.96l-.02 1.76h-1.05l.01-1.74c-.59-.04-1.16-.13-1.7-.27-.55-.14-.95-.27-1.21-.39l.1-2.57h.94l.31 1.86c.45.38 1.13.57 2.06.57.73 0 1.28-.16 1.66-.48s.56-.79.56-1.41c0-.36-.11-.68-.32-.95-.22-.27-.49-.52-.83-.73s-.79-.46-1.37-.76q-.09-.06-.27-.15c-.62-.32-1.12-.62-1.5-.92-.38-.29-.68-.64-.9-1.04-.22-.41-.33-.89-.33-1.45 0-.73.28-1.34.83-1.83.56-.49 1.27-.78 2.15-.88v-1.65h1.06v1.63c.8.04 1.61.23 2.43.56l-.07 2.4h-.92l-.35-1.74c-.15-.13-.35-.23-.61-.32-.25-.08-.55-.12-.89-.12-.62 0-1.13.14-1.53.41s-.6.69-.6 1.25q0 .585.33 1.02c.22.29.48.53.77.71s.73.43 1.31.74c.82.46 1.42.82 1.81 1.09.39.26.71.59.97.97.25.38.38.85.38 1.4.05.84-.23 1.52-.8 2.07m4.93-6.91c-.21.08-.54.18-.99.29s-.82.19-1.1.23l-.15-.84c.51-.11 1.03-.29 1.57-.56.54-.26.98-.54 1.34-.85h.01l.92.15v8.46l1.86.14v.73h-5.4v-.73l1.94-.14zm5.37 10.1c-.28-.04-.52-.08-.71-.13v-.86c.33.1.73.15 1.19.15.79 0 1.47-.12 2.05-.38q.855-.375 1.32-1.02c.3-.43.46-.9.46-1.41 0-.68-.21-1.21-.62-1.58s-1.05-.57-1.91-.58l-.46.12c-.33.1-.49.14-.48.13l-.25-.79c.42-.08.81-.2 1.19-.36.62-.26 1.12-.61 1.5-1.04.38-.44.57-.9.57-1.39 0-.57-.17-.99-.5-1.25-.34-.26-.76-.4-1.28-.4-.45 0-.88.08-1.3.24s-.77.35-1.07.58l-.4-.68c.28-.28.73-.55 1.34-.82.62-.26 1.24-.4 1.88-.4.91 0 1.64.2 2.21.59.56.4.84 1 .84 1.81 0 .71-.28 1.36-.84 1.94s-1.23 1-2 1.27c.1-.01.24-.01.42-.01q.885 0 1.56.33c.675.33.8.52 1.04.89s.37.8.37 1.27c0 .73-.22 1.38-.66 1.96s-1.06 1.03-1.87 1.36c-.8.33-1.74.49-2.8.49-.25.02-.51 0-.79-.03m10.23-4.13c.22.33.33.77.33 1.33q0 .855-.27 1.65c-.18.53-.4.98-.67 1.36s-.54.64-.8.79h-.01l-.51-.36v-.17c.2-.16.4-.51.61-1.04.21-.54.31-1.04.31-1.52a.8.8 0 0 0-.08-.37c-.06-.09-.14-.21-.26-.34-.14-.15-.25-.29-.31-.42a1.1 1.1 0 0 1-.11-.53c0-.26.08-.47.25-.63s.37-.24.62-.24h.08c.32.01.6.17.82.49m3.92 3.4c.71 0 1.36-.14 1.95-.43s1.06-.69 1.4-1.2.51-1.09.51-1.74c0-1.61-.75-2.41-2.23-2.41-.33 0-.7.05-1.1.14-.41.1-.76.21-1.06.34l-.4-.29.73-5.4h4.27l.15-.29h.93l-.27 1.54h-3.98l-.69 3.5c.27-.14.61-.26 1.04-.38.42-.11.84-.17 1.26-.17.96 0 1.71.27 2.27.81.55.54.82 1.33.82 2.36 0 .79-.23 1.52-.68 2.19-.46.67-1.1 1.21-1.93 1.61s-1.77.6-2.83.6c-.43 0-.78-.04-1.05-.1v-.72c.27.03.57.04.89.04m8.48-2.83c-.63-.88-.95-2.03-.95-3.43 0-.98.18-1.84.54-2.57.36-.74.85-1.3 1.47-1.69s1.3-.58 2.04-.58c1.3 0 2.25.42 2.85 1.25s.9 1.98.9 3.43c0 .97-.17 1.83-.52 2.57-.34.75-.82 1.32-1.42 1.73-.61.41-1.28.61-2.03.61q-1.935.015-2.88-1.32m5.17-3.44c0-1.3-.17-2.3-.5-3s-.9-1.05-1.69-1.05c-.77 0-1.34.33-1.71 1s-.55 1.62-.55 2.86c0 1.27.18 2.29.53 3.05s.92 1.15 1.69 1.15c1.48 0 2.23-1.34 2.23-4.01m4.47 3.44c-.63-.88-.95-2.03-.95-3.43 0-.98.18-1.84.54-2.57.36-.74.85-1.3 1.47-1.69s1.3-.58 2.04-.58c1.3 0 2.25.42 2.85 1.25s.9 1.98.9 3.43c0 .97-.17 1.83-.52 2.57-.34.75-.82 1.32-1.42 1.73-.61.41-1.28.61-2.03.61q-1.92.015-2.88-1.32m5.17-3.44c0-1.3-.17-2.3-.5-3s-.9-1.05-1.69-1.05c-.77 0-1.34.33-1.71 1s-.55 1.62-.55 2.86c0 1.27.18 2.29.53 3.05s.92 1.15 1.69 1.15c1.49 0 2.23-1.34 2.23-4.01"/>
    <path class="st24" d="M535.44 170.24v6h-6"/>
    <path class="st30" d="M517.27 176.24H206.98"/>
    <path class="st24" d="M200.9 176.24h-6v-6"/>
    <path class="st31" d="M194.9 159.19V54.2"/>
    <path class="st24" d="M194.9 48.68v-6h6"/>
    <path class="st30" d="M213.07 42.68h310.29"/>
    <path class="st24" d="M529.44 42.68h6v6"/>
    <path class="st31" d="M535.44 59.73v104.98"/>
    <defs>
      <path id="XMLID_10_" transform="rotate(-180 277.169 106.232)" d="M206.3 71.69h141.73v69.09H206.3z"/>
    </defs>
    <use xlink:href="#XMLID_10_" style="overflow:visible;fill:#8dbe22"/>
    <clipPath id="XMLID_00000121280758323517414910000009070009484586512529_">
      <use xlink:href="#XMLID_10_" style="overflow:visible"/>
    </clipPath>
    <path style="clip-path:url(#XMLID_00000121280758323517414910000009070009484586512529_);fill:#9ba0b3" d="M234.65 59.62h113.39v88.82H234.65z"/>
    <defs>
      <path id="XMLID_9_" d="M213.28 78.46v55.55h127.77V78.46zm110.09 48.6h-35.85c5.68-4.17 9.46-11.85 9.46-20.44 0-9.13-4.26-17.06-10.56-21.23h36.95c0 5.56 5.19 12.6 10.74 12.6v20.37c-5.56 0-10.74 3.15-10.74 8.7M220.23 98c5.56 0 10.55-7.04 10.55-12.6h35.64c-6.3 4.17-10.56 12.1-10.56 21.23 0 8.58 3.77 16.27 9.46 20.44h-34.53c0-5.56-5-8.7-10.55-8.7V98z"/>
    </defs>
    <use xlink:href="#XMLID_9_" style="overflow:visible;fill:#419c35"/>
    <clipPath id="XMLID_00000157297874316451256500000013077212918272694915_">
      <use xlink:href="#XMLID_9_" style="overflow:visible"/>
    </clipPath>
    <path style="clip-path:url(#XMLID_00000157297874316451256500000013077212918272694915_);fill:#0c3958" d="M234.65 67.94h113.39v76.59H234.65z"/>
    <path class="st4" d="M283.81 99.8c-.2-.22-.5-.46-.89-.72s-.84-.5-1.36-.74c-.52-.23-1.08-.44-1.7-.6-.62-.17-1.25-.27-1.9-.32v6.95l.64.13c1.21.29 2.3.62 3.28.97.98.36 1.8.8 2.47 1.31.67.52 1.19 1.15 1.56 1.9s.55 1.66.55 2.74c0 1.19-.21 2.2-.64 3.04s-1.01 1.54-1.76 2.1-1.62.98-2.62 1.26q-1.5.42-3.21.45v3.53h-1.75v-3.59c-1.61-.11-3.15-.43-4.6-.96a14.6 14.6 0 0 1-4-2.2l1.71-3.23c.25.27.6.56 1.08.87.47.31 1.02.62 1.65.91s1.32.55 2.07.77 1.53.38 2.34.47v-6.95c-.13-.04-.28-.08-.42-.12-.15-.03-.28-.07-.42-.12-1.19-.31-2.22-.64-3.11-.99-.88-.35-1.62-.77-2.2-1.26a4.9 4.9 0 0 1-1.33-1.73q-.45-.99-.45-2.4c0-1.1.19-2.07.57-2.92s.92-1.58 1.61-2.2 1.51-1.1 2.44-1.44c.93-.35 1.95-.57 3.07-.65v-3.39h1.75v3.39c1.46.09 2.8.38 4.03.87s2.32 1.09 3.26 1.78zm-11.09.87c0 .94.33 1.65.99 2.12s1.66.88 3.01 1.24v-6.62c-1.37.07-2.37.39-3.02.96-.66.57-.98 1.34-.98 2.3m9.71 11.16c0-.99-.39-1.73-1.18-2.23-.78-.5-1.88-.96-3.29-1.36v6.65c1.43-.02 2.54-.29 3.31-.81s1.16-1.27 1.16-2.25m28.2-5.6c0 3 2.43 5.43 5.43 5.43s5.43-2.43 5.43-5.43-2.43-5.43-5.43-5.43c-3 .01-5.43 2.44-5.43 5.43m-66.92 0c0 3-2.43 5.43-5.43 5.43s-5.43-2.43-5.43-5.43 2.43-5.43 5.43-5.43c3 .01 5.43 2.44 5.43 5.43"/>
    <path class="st0" d="M233.46 148.57h87.42V168h-87.42z"/>
    <path class="st2" d="M254.9 160.03c-.56.55-1.37.87-2.41.96l-.02 1.76h-1.05l.01-1.74c-.59-.04-1.16-.13-1.7-.27-.55-.14-.95-.27-1.21-.39l.1-2.57h.94l.31 1.86c.45.38 1.13.57 2.06.57.73 0 1.28-.16 1.66-.48s.56-.79.56-1.41c0-.36-.11-.68-.32-.95-.22-.27-.49-.52-.83-.73s-.79-.46-1.37-.76q-.09-.06-.27-.15c-.62-.32-1.12-.62-1.5-.92-.38-.29-.68-.64-.9-1.04-.22-.41-.33-.89-.33-1.45 0-.73.28-1.34.83-1.83.56-.49 1.27-.78 2.15-.88v-1.65h1.06v1.63c.8.04 1.61.23 2.43.56l-.07 2.4h-.92l-.35-1.74c-.15-.13-.35-.23-.61-.32-.25-.08-.55-.12-.89-.12-.62 0-1.13.14-1.53.41s-.6.69-.6 1.25q0 .585.33 1.02c.22.29.48.53.77.71s.73.43 1.31.74c.82.46 1.42.82 1.81 1.09.39.26.71.59.97.97.25.38.38.85.38 1.4.05.84-.23 1.52-.8 2.07m4.93-6.92c-.21.08-.54.18-.99.29s-.82.19-1.1.23l-.15-.84c.51-.11 1.03-.29 1.57-.56.54-.26.98-.54 1.34-.85h.01l.92.15v8.46l1.86.14v.73h-5.4v-.73l1.94-.14zm5.66 6.55c-.63-.88-.95-2.03-.95-3.43 0-.98.18-1.84.54-2.57.36-.74.85-1.3 1.47-1.69s1.3-.58 2.04-.58c1.3 0 2.25.42 2.85 1.25s.9 1.98.9 3.43c0 .97-.17 1.83-.52 2.57-.34.75-.82 1.32-1.42 1.73-.61.41-1.28.61-2.03.61-1.29.01-2.24-.43-2.88-1.32m5.17-3.44c0-1.3-.17-2.3-.5-3s-.9-1.05-1.69-1.05c-.77 0-1.34.33-1.71 1s-.55 1.62-.55 2.86c0 1.27.18 2.29.53 3.05s.92 1.15 1.69 1.15c1.48-.01 2.23-1.34 2.23-4.01m6.01 2.87c.22.33.33.77.33 1.33q0 .855-.27 1.65c-.18.53-.4.98-.67 1.36s-.54.64-.8.79h-.01l-.51-.36v-.17c.2-.16.4-.51.61-1.04.21-.54.31-1.04.31-1.52a.8.8 0 0 0-.08-.37c-.06-.09-.14-.21-.26-.34-.14-.15-.25-.29-.31-.42a1.1 1.1 0 0 1-.11-.53c0-.26.08-.47.25-.63s.37-.24.62-.24h.08c.32 0 .6.17.82.49m3.49.57c-.63-.88-.95-2.03-.95-3.43 0-.98.18-1.84.54-2.57.36-.74.85-1.3 1.47-1.69s1.3-.58 2.04-.58c1.3 0 2.25.42 2.85 1.25s.9 1.98.9 3.43c0 .97-.17 1.83-.52 2.57s-.82 1.32-1.42 1.73c-.61.41-1.28.61-2.03.61-1.29.01-2.24-.43-2.88-1.32m5.17-3.44c0-1.3-.17-2.3-.5-3s-.9-1.05-1.69-1.05c-.77 0-1.34.33-1.71 1s-.55 1.62-.55 2.86c0 1.27.18 2.29.53 3.05s.92 1.15 1.69 1.15c1.48-.01 2.23-1.34 2.23-4.01m4.48 3.44c-.63-.88-.95-2.03-.95-3.43 0-.98.18-1.84.54-2.57s.85-1.3 1.47-1.69 1.3-.58 2.04-.58c1.3 0 2.25.42 2.85 1.25s.9 1.98.9 3.43c0 .97-.17 1.83-.52 2.57-.34.75-.82 1.32-1.42 1.73s-1.28.61-2.03.61q-1.935.015-2.88-1.32m5.16-3.44c0-1.3-.17-2.3-.5-3s-.9-1.05-1.69-1.05c-.77 0-1.34.33-1.71 1s-.55 1.62-.55 2.86c0 1.27.18 2.29.53 3.05.36.76.92 1.15 1.69 1.15 1.49-.01 2.23-1.34 2.23-4.01m4.48 3.44c-.63-.88-.95-2.03-.95-3.43 0-.98.18-1.84.54-2.57.36-.74.85-1.3 1.47-1.69s1.3-.58 2.04-.58c1.3 0 2.25.42 2.85 1.25s.9 1.98.9 3.43c0 .97-.17 1.83-.52 2.57s-.82 1.32-1.42 1.73c-.61.41-1.28.61-2.03.61-1.29.01-2.24-.43-2.88-1.32m5.17-3.44c0-1.3-.17-2.3-.5-3s-.9-1.05-1.69-1.05c-.77 0-1.34.33-1.71 1s-.55 1.62-.55 2.86c0 1.27.18 2.29.53 3.05s.92 1.15 1.69 1.15c1.48-.01 2.23-1.34 2.23-4.01"/>
    <path class="st0" d="M405.46 148.57h87.42V168h-87.42z"/>
    <path class="st2" d="M425.75 160.03c-.57.55-1.37.87-2.41.96l-.02 1.76h-1.05l.01-1.74c-.59-.04-1.16-.13-1.7-.27s-.95-.27-1.21-.39l.1-2.57h.95l.31 1.86c.45.38 1.13.57 2.06.57.73 0 1.28-.16 1.66-.48s.56-.79.56-1.41c0-.36-.11-.68-.32-.95-.22-.27-.49-.52-.83-.73s-.79-.46-1.37-.76q-.09-.06-.27-.15c-.62-.32-1.12-.62-1.5-.92s-.68-.64-.9-1.04c-.22-.41-.33-.89-.33-1.45 0-.73.28-1.34.83-1.83s1.27-.78 2.15-.88v-1.65h1.07v1.63c.8.04 1.61.23 2.43.56l-.08 2.4h-.92l-.34-1.74c-.15-.13-.35-.23-.61-.32-.25-.08-.55-.12-.89-.12-.62 0-1.13.14-1.53.41s-.6.69-.6 1.25q0 .585.33 1.02c.22.29.48.53.77.71s.73.43 1.31.74c.82.46 1.42.82 1.81 1.09.39.26.71.59.97.97s.38.85.38 1.4c.02.84-.26 1.52-.82 2.07m4.41 2.46c.71 0 1.36-.14 1.95-.43s1.05-.69 1.39-1.2.51-1.09.51-1.74c0-1.61-.75-2.41-2.24-2.41-.33 0-.7.05-1.1.14-.41.1-.76.21-1.06.34l-.4-.29.73-5.4h4.28l.15-.29h.93l-.27 1.54h-3.97l-.69 3.5c.27-.14.62-.26 1.04-.38s.84-.17 1.26-.17c.96 0 1.71.27 2.27.81.55.54.82 1.33.82 2.36 0 .79-.23 1.52-.68 2.19-.46.67-1.1 1.21-1.93 1.61s-1.78.6-2.83.6c-.43 0-.78-.04-1.05-.1v-.72c.27.02.57.04.89.04m8.48-2.83c-.63-.88-.95-2.03-.95-3.43 0-.98.18-1.84.54-2.57s.85-1.3 1.47-1.69 1.3-.58 2.04-.58c1.3 0 2.25.42 2.85 1.25s.9 1.98.9 3.43c0 .97-.17 1.83-.52 2.57-.34.75-.82 1.32-1.42 1.73s-1.28.61-2.03.61q-1.92.015-2.88-1.32m5.17-3.44c0-1.3-.17-2.3-.5-3s-.9-1.05-1.69-1.05c-.77 0-1.34.33-1.71 1s-.55 1.62-.55 2.86c0 1.27.18 2.29.53 3.05.36.76.92 1.15 1.69 1.15 1.49-.01 2.23-1.34 2.23-4.01m6.02 2.87c.22.33.33.77.33 1.33q0 .855-.27 1.65c-.18.53-.41.98-.67 1.36-.27.38-.54.64-.8.79h-.01l-.51-.36v-.17c.2-.16.4-.51.61-1.04.21-.54.31-1.04.31-1.52a.8.8 0 0 0-.08-.37c-.05-.09-.14-.21-.26-.34-.14-.15-.25-.29-.32-.42s-.11-.31-.11-.53c0-.26.08-.47.25-.63s.37-.24.62-.24h.08c.33 0 .61.17.83.49m3.48.57c-.63-.88-.95-2.03-.95-3.43 0-.98.18-1.84.54-2.57s.85-1.3 1.47-1.69 1.3-.58 2.04-.58c1.3 0 2.25.42 2.85 1.25s.9 1.98.9 3.43c0 .97-.17 1.83-.52 2.57-.34.75-.82 1.32-1.42 1.73s-1.28.61-2.03.61q-1.92.015-2.88-1.32m5.17-3.44c0-1.3-.17-2.3-.5-3s-.9-1.05-1.69-1.05c-.77 0-1.34.33-1.71 1s-.55 1.62-.55 2.86c0 1.27.18 2.29.53 3.05.36.76.92 1.15 1.69 1.15 1.49-.01 2.23-1.34 2.23-4.01m4.48 3.44c-.63-.88-.95-2.03-.95-3.43 0-.98.18-1.84.54-2.57.36-.74.85-1.3 1.47-1.69s1.3-.58 2.04-.58c1.3 0 2.25.42 2.85 1.25s.9 1.98.9 3.43c0 .97-.17 1.83-.52 2.57s-.82 1.32-1.42 1.73c-.61.41-1.28.61-2.03.61q-1.935.015-2.88-1.32m5.17-3.44c0-1.3-.17-2.3-.5-3s-.9-1.05-1.69-1.05c-.77 0-1.34.33-1.71 1s-.55 1.62-.55 2.86c0 1.27.18 2.29.53 3.05s.92 1.15 1.69 1.15c1.48-.01 2.23-1.34 2.23-4.01m4.47 3.44c-.63-.88-.95-2.03-.95-3.43 0-.98.18-1.84.54-2.57s.85-1.3 1.47-1.69 1.3-.58 2.04-.58c1.3 0 2.25.42 2.85 1.25s.9 1.98.9 3.43c0 .97-.17 1.83-.52 2.57-.34.75-.82 1.32-1.42 1.73s-1.28.61-2.03.61q-1.92.015-2.88-1.32m5.17-3.44c0-1.3-.17-2.3-.5-3s-.9-1.05-1.69-1.05c-.77 0-1.34.33-1.71 1s-.55 1.62-.55 2.86c0 1.27.18 2.29.53 3.05.36.76.92 1.15 1.69 1.15 1.49-.01 2.23-1.34 2.23-4.01m42.264-15.446h-141.73v-69.09h141.73z"/>
    <path d="M385.28 78.46v55.55h127.77V78.46zm110.09 48.6h-35.85c5.68-4.17 9.46-11.85 9.46-20.44 0-9.13-4.26-17.06-10.56-21.23h36.95c0 5.56 5.19 12.6 10.74 12.6v20.37c-5.56 0-10.74 3.15-10.74 8.7M392.23 98c5.56 0 10.55-7.04 10.55-12.6h35.64c-6.3 4.17-10.56 12.1-10.56 21.23 0 8.58 3.77 16.27 9.46 20.44h-34.53c0-5.56-5-8.7-10.55-8.7V98z" style="fill:#419c35"/>
    <path class="st4" d="M455.8 99.8c-.2-.22-.5-.46-.89-.72s-.85-.5-1.36-.74c-.52-.23-1.08-.44-1.7-.6-.62-.17-1.25-.27-1.9-.32v6.95l.64.13c1.21.29 2.3.62 3.28.97.98.36 1.8.8 2.47 1.31.67.52 1.19 1.15 1.56 1.9s.55 1.66.55 2.74c0 1.19-.21 2.2-.64 3.04s-1.01 1.54-1.76 2.1-1.62.98-2.62 1.26q-1.5.42-3.21.45v3.53h-1.75v-3.59c-1.61-.11-3.15-.43-4.6-.96a14.6 14.6 0 0 1-4-2.2l1.71-3.23c.25.27.6.56 1.08.87.47.31 1.02.62 1.65.91s1.32.55 2.07.77 1.53.38 2.34.47v-6.95c-.13-.04-.28-.08-.42-.12-.15-.03-.28-.07-.42-.12-1.19-.31-2.22-.64-3.11-.99-.88-.35-1.62-.77-2.2-1.26a4.9 4.9 0 0 1-1.33-1.73q-.45-.99-.45-2.4c0-1.1.19-2.07.57-2.92s.92-1.58 1.61-2.2 1.51-1.1 2.44-1.44c.93-.35 1.95-.57 3.07-.65v-3.39h1.75v3.39c1.46.09 2.8.38 4.03.87s2.32 1.09 3.26 1.78zm-11.08.87c0 .94.33 1.65.99 2.12s1.66.88 3.01 1.24v-6.62c-1.37.07-2.37.39-3.02.96-.66.57-.98 1.34-.98 2.3m9.71 11.16c0-.99-.39-1.73-1.18-2.23-.78-.5-1.88-.96-3.29-1.36v6.65c1.43-.02 2.54-.29 3.31-.81s1.16-1.27 1.16-2.25m28.33-6.84a5.437 5.437 0 0 0 6.53 6.53c1.99-.44 3.6-2.05 4.05-4.05a5.437 5.437 0 0 0-6.53-6.53c-2 .45-3.6 2.06-4.05 4.05m-67.19 0a5.437 5.437 0 0 1-6.53 6.53c-1.99-.44-3.6-2.05-4.05-4.05a5.437 5.437 0 0 1 6.53-6.53c2 .45 3.61 2.06 4.05 4.05"/>
  </g>
  <g id="Board_1_-_English"/>
  <g id="Board_1"/>
</svg>
