<svg xmlns="http://www.w3.org/2000/svg" xmlns:xlink="http://www.w3.org/1999/xlink" viewBox="0 0 435.04 229.97" xml:space="preserve">
  <style>
    .st0{fill:none}.st1{fill:#0c3958}.st4{fill:#fff}.st40,.st41,.st5{fill:none;stroke:#0c3958;stroke-width:.25;stroke-miterlimit:10}.st40{stroke-dasharray:11.591,11.591}.st41{stroke-dasharray:12.712,12.712}
  </style>
  <g id="Board_4"/>
  <g id="Board_3_-_German"/>
  <g id="Board_3">
    <g id="Coin_Flip"/>
  </g>
  <g id="Board_2_-_German"/>
  <g id="Board_2"/>
  <g id="Board_1_-_German">
    <path class="st0" d="M151.09 197.77h93.94v29.66h-93.94z"/>
    <path class="st1" d="M165.94 207.05c.47 0 .91-.1 1.3-.29s.7-.46.93-.8.34-.73.34-1.16c0-1.07-.5-1.61-1.49-1.61-.22 0-.47.03-.74.1-.27.06-.5.14-.7.22l-.27-.19.49-3.6h2.85l.1-.19h.62l-.18 1.03h-2.65l-.46 2.33c.18-.09.41-.18.69-.25s.56-.11.84-.11c.64 0 1.14.18 1.51.54s.55.88.55 1.57c0 .53-.15 1.01-.46 1.46-.3.45-.73.8-1.29 1.07-.55.27-1.18.4-1.89.4-.29 0-.52-.02-.7-.07v-.48c.2.02.4.03.61.03m5.66-1.88c-.42-.59-.63-1.35-.63-2.29 0-.65.12-1.23.36-1.71.24-.49.57-.87.98-1.12.41-.26.87-.39 1.36-.39.87 0 1.5.28 1.9.83.4.56.6 1.32.6 2.29 0 .65-.11 1.22-.34 1.71s-.55.88-.95 1.16-.85.41-1.35.41c-.87-.01-1.51-.31-1.93-.89m3.44-2.3c0-.87-.11-1.53-.33-2s-.6-.7-1.12-.7c-.51 0-.89.22-1.14.67s-.37 1.08-.37 1.9c0 .85.12 1.53.35 2.04.24.51.61.77 1.12.77 1-.01 1.49-.9 1.49-2.68m2.99 2.3c-.42-.59-.63-1.35-.63-2.29 0-.65.12-1.23.36-1.71.24-.49.57-.87.98-1.12.41-.26.87-.39 1.36-.39.87 0 1.5.28 1.9.83.4.56.6 1.32.6 2.29 0 .65-.11 1.22-.34 1.71s-.55.88-.95 1.16-.85.41-1.35.41c-.87-.01-1.51-.31-1.93-.89m3.44-2.3c0-.87-.11-1.53-.33-2s-.6-.7-1.12-.7c-.51 0-.89.22-1.14.67s-.37 1.08-.37 1.9c0 .85.12 1.53.35 2.04.24.51.61.77 1.12.77 1-.01 1.49-.9 1.49-2.68m9.61 1.67c-.23.47-.57.84-1 1.12-.43.27-.94.41-1.52.41-.16 0-.33-.01-.52-.04s-.34-.06-.45-.1l.03.84v1.01l1.04.11v.49h-2.79v-.49l.72-.11v-6.6l-.73-.18v-.54l1.42-.18h.02l.21.18v.59c.2-.22.45-.41.75-.56s.63-.23 1-.23c.39 0 .75.1 1.08.29s.59.49.79.9.3.92.3 1.54c0 .57-.11 1.09-.35 1.55m-2.95-3.42c-.22.11-.39.22-.51.35v3.77c.05.08.17.15.35.22.19.06.4.09.62.09.51 0 .93-.2 1.25-.61s.48-1.02.48-1.84c0-.72-.14-1.26-.42-1.61s-.63-.53-1.06-.53c-.25 0-.49.05-.71.16m4.79 4.16c-.42-.53-.63-1.23-.63-2.11q0-.87.33-1.53t.93-1.02 1.35-.36c.62 0 1.1.17 1.44.52s.52.83.54 1.48c0 .41-.02.72-.07.93h-3.44c.01.66.17 1.19.46 1.59s.71.6 1.25.6c.27 0 .54-.05.83-.15s.52-.21.68-.34l.19.44c-.19.2-.48.37-.86.52s-.77.22-1.16.22c-.8 0-1.42-.26-1.84-.79m2.86-2.63c.02-.14.03-.28.03-.43q-.015-.645-.27-1.02c-.18-.25-.46-.38-.83-.38q-.585 0-.93.42c-.23.28-.36.75-.4 1.41zm1.98 2.82.75-.06v-4.23l-.72-.18v-.54l1.38-.18h.02l.22.18v.18l-.03.78h.03c.07-.11.19-.26.36-.44s.4-.35.67-.5.57-.23.89-.23c.13 0 .24.02.33.05v1.12a1 1 0 0 0-.23-.1c-.1-.03-.22-.04-.35-.04-.55 0-1.07.17-1.54.51v3.6l1.27.08v.48h-3.06v-.48zm5.49-.31c.07.1.21.19.43.27s.44.12.69.12c.38 0 .66-.07.84-.22s.27-.35.27-.61c0-.18-.06-.34-.17-.47s-.27-.25-.48-.35c-.2-.1-.5-.23-.88-.38-.51-.19-.89-.43-1.12-.69-.24-.27-.35-.62-.35-1.07 0-.29.09-.55.27-.77s.42-.39.73-.51.65-.19 1.03-.19c.31 0 .58.02.81.07s.42.09.56.14.23.08.28.09v1.24h-.61l-.2-.74c-.04-.08-.15-.15-.32-.21a1.8 1.8 0 0 0-.58-.08c-.3 0-.54.07-.73.2a.63.63 0 0 0-.27.54c0 .2.05.36.15.5.1.13.22.23.36.31.15.08.35.17.6.28l.2.08c.37.15.68.29.91.42s.43.31.59.52c.16.22.23.48.23.8 0 .49-.19.89-.58 1.18-.38.29-.91.44-1.57.44-.33 0-.67-.04-1.03-.13s-.65-.18-.88-.27v-1.28h.65zm4.49-3.55c.25-.44.57-.77.98-1s.83-.35 1.29-.35c.84 0 1.47.27 1.9.8s.64 1.23.64 2.1c0 .61-.12 1.13-.37 1.57s-.57.77-.98 1-.83.34-1.29.34c-.84 0-1.47-.27-1.9-.8s-.63-1.23-.63-2.1q-.015-.9.36-1.56m3.28 3.32c.25-.38.37-.94.37-1.69 0-.74-.11-1.33-.34-1.76s-.59-.65-1.09-.65c-.46 0-.81.19-1.06.57s-.38.94-.38 1.69c0 .74.12 1.33.35 1.76s.6.65 1.09.65c.46 0 .82-.19 1.06-.57m3.03-3.75-.72-.18v-.54l1.43-.18h.03l.21.18v.42l-.01.24c.24-.21.56-.41.95-.58s.77-.26 1.13-.26c.42 0 .75.08.98.24s.39.4.48.73.14.77.14 1.33v2.8l.7.07v.5H217v-.49l.62-.08v-2.81c0-.39-.03-.7-.08-.93-.05-.22-.15-.39-.3-.5s-.36-.17-.64-.17c-.24 0-.5.06-.77.18s-.52.26-.73.42v3.79l.68.09v.49h-2.36v-.49l.63-.09zm6.66 4.1c-.42-.53-.63-1.23-.63-2.11q0-.87.33-1.53t.93-1.02 1.35-.36c.62 0 1.1.17 1.44.52s.52.83.54 1.48c0 .41-.02.72-.07.93h-3.44c.01.66.17 1.19.46 1.59s.71.6 1.25.6c.27 0 .54-.05.83-.15s.52-.21.68-.34l.19.44c-.19.2-.48.37-.86.52s-.77.22-1.16.22c-.81 0-1.42-.26-1.84-.79m2.86-2.63c.02-.14.03-.28.03-.43q-.015-.645-.27-1.02c-.18-.25-.46-.38-.83-.38q-.585 0-.93.42c-.23.28-.36.75-.4 1.41zm2.56-1.47-.72-.18v-.54l1.43-.18h.03l.21.18v.42l-.01.24c.24-.21.56-.41.95-.58s.77-.26 1.13-.26c.42 0 .75.08.98.24s.39.4.48.73.14.77.14 1.33v2.8l.7.07v.5h-2.37v-.49l.62-.08v-2.81c0-.39-.03-.7-.08-.93-.05-.22-.15-.39-.3-.5s-.36-.17-.64-.17c-.24 0-.5.06-.77.18s-.52.26-.73.42v3.79l.68.09v.49h-2.36v-.49l.63-.09z"/>
    <path class="st0" d="M2.82 197.77h96.36v14.83H2.82z"/>
    <path class="st1" d="M15.11 200.8c-.14.05-.36.12-.66.19s-.54.12-.73.15l-.1-.56c.34-.07.69-.2 1.04-.37.36-.17.65-.36.9-.57h.01l.61.1v5.64l1.24.09v.49h-3.6v-.49l1.29-.09zm4.79 3.99c.15.22.22.51.22.88 0 .38-.06.75-.18 1.1q-.18.525-.45.9c-.18.25-.36.43-.53.53h-.01l-.34-.24v-.11c.13-.11.27-.34.4-.7.14-.36.21-.69.21-1.01 0-.1-.02-.18-.06-.25s-.09-.14-.17-.23c-.09-.1-.16-.19-.21-.28a.7.7 0 0 1-.07-.35.565.565 0 0 1 .59-.58h.05c.22.01.41.12.55.34m2.33.38c-.42-.59-.63-1.35-.63-2.29 0-.65.12-1.23.36-1.71.24-.49.57-.87.98-1.12.41-.26.87-.39 1.36-.39.87 0 1.5.28 1.9.83.4.56.6 1.32.6 2.29 0 .65-.11 1.22-.34 1.71s-.55.88-.95 1.16-.85.41-1.35.41c-.87-.01-1.51-.31-1.93-.89m3.45-2.3c0-.87-.11-1.53-.33-2s-.6-.7-1.12-.7c-.51 0-.89.22-1.14.67s-.37 1.08-.37 1.9c0 .85.12 1.53.35 2.04.24.51.61.77 1.12.77.99-.01 1.49-.9 1.49-2.68m2.98 2.3c-.42-.59-.63-1.35-.63-2.29 0-.65.12-1.23.36-1.71.24-.49.57-.87.98-1.12.41-.26.87-.39 1.36-.39.87 0 1.5.28 1.9.83.4.56.6 1.32.6 2.29 0 .65-.11 1.22-.34 1.71s-.55.88-.95 1.16c-.4.27-.85.41-1.35.41-.87-.01-1.51-.31-1.93-.89m3.45-2.3c0-.87-.11-1.53-.33-2s-.6-.7-1.12-.7c-.51 0-.89.22-1.14.67s-.37 1.08-.37 1.9c0 .85.12 1.53.35 2.04.24.51.61.77 1.12.77.99-.01 1.49-.9 1.49-2.68m2.98 2.3c-.42-.59-.63-1.35-.63-2.29 0-.65.12-1.23.36-1.71.24-.49.57-.87.98-1.12.41-.26.87-.39 1.36-.39.87 0 1.5.28 1.9.83.4.56.6 1.32.6 2.29 0 .65-.11 1.22-.34 1.71s-.55.88-.95 1.16-.85.41-1.35.41c-.87-.01-1.51-.31-1.93-.89m3.44-2.3c0-.87-.11-1.53-.33-2s-.6-.7-1.12-.7c-.51 0-.89.22-1.14.67s-.37 1.08-.37 1.9c0 .85.12 1.53.35 2.04.24.51.61.77 1.12.77 1-.01 1.49-.9 1.49-2.68m9.61 1.67c-.23.47-.57.84-1 1.12-.43.27-.94.41-1.52.41-.16 0-.33-.01-.52-.04s-.34-.06-.45-.1l.03.84v1.01l1.04.11v.49h-2.79v-.49l.72-.11v-6.6l-.73-.18v-.54l1.42-.18h.02l.21.18v.59c.2-.22.45-.41.75-.56s.63-.23 1-.23c.39 0 .75.1 1.08.29s.59.49.79.9.3.92.3 1.54c0 .57-.11 1.09-.35 1.55m-2.95-3.42c-.22.11-.39.22-.51.35v3.77c.05.08.17.15.35.22.19.06.4.09.62.09.51 0 .93-.2 1.25-.61s.48-1.02.48-1.84c0-.72-.14-1.26-.42-1.61s-.63-.53-1.06-.53c-.25 0-.49.05-.71.16m4.79 4.16c-.42-.53-.63-1.23-.63-2.11q0-.87.33-1.53t.93-1.02 1.35-.36c.62 0 1.1.17 1.44.52s.52.83.54 1.48c0 .41-.02.72-.07.93h-3.44c.01.66.17 1.19.46 1.59s.71.6 1.25.6c.27 0 .54-.05.83-.15s.52-.21.68-.34l.19.44c-.19.2-.48.37-.86.52s-.77.22-1.16.22c-.8 0-1.42-.26-1.84-.79m2.86-2.63c.02-.14.03-.28.03-.43q-.015-.645-.27-1.02c-.18-.25-.46-.38-.83-.38q-.585 0-.93.42c-.23.28-.36.75-.4 1.41zm1.98 2.82.75-.06v-4.23l-.72-.18v-.54l1.38-.18h.02l.22.18v.18l-.03.78h.03c.07-.11.19-.26.36-.44s.4-.35.67-.5.57-.23.89-.23c.13 0 .24.02.33.05v1.12a1 1 0 0 0-.23-.1c-.1-.03-.22-.04-.35-.04-.55 0-1.07.17-1.54.51v3.6l1.27.08v.48h-3.06v-.48zm5.49-.31c.07.1.21.19.43.27s.44.12.69.12c.38 0 .66-.07.84-.22s.27-.35.27-.61c0-.18-.06-.34-.17-.47s-.27-.25-.48-.35c-.2-.1-.5-.23-.88-.38-.51-.19-.89-.43-1.12-.69-.24-.27-.35-.62-.35-1.07 0-.29.09-.55.27-.77s.42-.39.73-.51.65-.19 1.03-.19c.31 0 .58.02.81.07s.42.09.56.14.23.08.28.09v1.24h-.61l-.2-.74c-.04-.08-.15-.15-.32-.21a1.8 1.8 0 0 0-.58-.08c-.3 0-.54.07-.73.2a.63.63 0 0 0-.27.54c0 .2.05.36.15.5.1.13.22.23.36.31.15.08.35.17.6.28l.2.08c.37.15.68.29.91.42s.43.31.59.52c.16.22.23.48.23.8 0 .49-.19.89-.58 1.18-.38.29-.91.44-1.57.44-.33 0-.67-.04-1.03-.13s-.65-.18-.88-.27v-1.28h.65zm4.49-3.55c.25-.44.57-.77.98-1s.83-.35 1.29-.35c.84 0 1.47.27 1.9.8s.64 1.23.64 2.1c0 .61-.12 1.13-.37 1.57s-.57.77-.98 1-.83.34-1.29.34c-.84 0-1.47-.27-1.9-.8s-.63-1.23-.63-2.1c-.01-.6.12-1.12.36-1.56m3.28 3.32c.25-.38.37-.94.37-1.69 0-.74-.11-1.33-.34-1.76s-.59-.65-1.09-.65c-.46 0-.81.19-1.06.57s-.38.94-.38 1.69c0 .74.12 1.33.35 1.76s.6.65 1.09.65c.46 0 .82-.19 1.06-.57m3.03-3.75-.72-.18v-.54l1.43-.18h.03l.21.18v.42l-.01.24c.24-.21.56-.41.95-.58s.77-.26 1.13-.26c.42 0 .75.08.98.24s.39.4.48.73.14.77.14 1.33v2.8l.7.07v.5h-2.37v-.49l.62-.08v-2.81c0-.39-.03-.7-.08-.93-.05-.22-.15-.39-.3-.5s-.36-.17-.64-.17c-.24 0-.5.06-.77.18s-.52.26-.73.42v3.79l.68.09v.49h-2.36v-.49l.63-.09zm6.66 4.1c-.42-.53-.63-1.23-.63-2.11q0-.87.33-1.53t.93-1.02 1.35-.36c.62 0 1.1.17 1.44.52s.52.83.54 1.48c0 .41-.02.72-.07.93h-3.44c.01.66.17 1.19.46 1.59s.71.6 1.25.6c.27 0 .54-.05.83-.15s.52-.21.68-.34l.19.44c-.19.2-.48.37-.86.52s-.77.22-1.16.22c-.8 0-1.42-.26-1.84-.79m2.86-2.63c.02-.14.03-.28.03-.43q-.015-.645-.27-1.02c-.18-.25-.46-.38-.83-.38q-.585 0-.93.42c-.23.28-.36.75-.4 1.41zm2.56-1.47-.72-.18v-.54l1.43-.18h.03l.21.18v.42l-.01.24c.24-.21.56-.41.95-.58s.77-.26 1.13-.26c.42 0 .75.08.98.24s.39.4.48.73.14.77.14 1.33v2.8l.7.07v.5h-2.37v-.49l.62-.08v-2.81c0-.39-.03-.7-.08-.93-.05-.22-.15-.39-.3-.5s-.36-.17-.64-.17c-.24 0-.5.06-.77.18s-.52.26-.73.42v3.79l.68.09v.49h-2.36v-.49l.63-.09z"/>
    <path class="st0" d="M235.96 197.77h82.75v29.66h-82.75z"/>
    <path class="st1" d="M245.21 207.05c.47 0 .91-.1 1.3-.29s.7-.46.93-.8.34-.73.34-1.16c0-1.07-.5-1.61-1.49-1.61-.22 0-.47.03-.74.1-.27.06-.5.14-.7.22l-.27-.19.49-3.6h2.85l.1-.19h.62l-.18 1.03h-2.65l-.46 2.33c.18-.09.41-.18.69-.25s.56-.11.84-.11c.64 0 1.14.18 1.51.54s.55.88.55 1.57c0 .53-.15 1.01-.46 1.46-.3.45-.73.8-1.29 1.07-.55.27-1.18.4-1.89.4-.29 0-.52-.02-.7-.07v-.48c.2.02.4.03.61.03m5.65-1.88c-.42-.59-.63-1.35-.63-2.29 0-.65.12-1.23.36-1.71.24-.49.57-.87.98-1.12.41-.26.87-.39 1.36-.39.87 0 1.5.28 1.9.83.4.56.6 1.32.6 2.29 0 .65-.11 1.22-.34 1.71s-.55.88-.95 1.16-.85.41-1.35.41c-.86-.01-1.5-.31-1.93-.89m3.45-2.3c0-.87-.11-1.53-.33-2s-.6-.7-1.12-.7c-.51 0-.89.22-1.14.67s-.37 1.08-.37 1.9c0 .85.12 1.53.35 2.04.24.51.61.77 1.12.77.99-.01 1.49-.9 1.49-2.68m2.98 2.3c-.42-.59-.63-1.35-.63-2.29 0-.65.12-1.23.36-1.71.24-.49.57-.87.98-1.12.41-.26.87-.39 1.36-.39.87 0 1.5.28 1.9.83.4.56.6 1.32.6 2.29 0 .65-.11 1.22-.34 1.71s-.55.88-.95 1.16-.85.41-1.35.41c-.86-.01-1.5-.31-1.93-.89m3.45-2.3c0-.87-.11-1.53-.33-2s-.6-.7-1.12-.7c-.51 0-.89.22-1.14.67s-.37 1.08-.37 1.9c0 .85.12 1.53.35 2.04.24.51.61.77 1.12.77.99-.01 1.49-.9 1.49-2.68m9.61 1.67c-.23.47-.57.84-1 1.12-.43.27-.94.41-1.52.41-.16 0-.33-.01-.52-.04s-.34-.06-.45-.1l.03.84v1.01l1.04.11v.49h-2.79v-.49l.72-.11v-6.6l-.73-.18v-.54l1.42-.18h.02l.21.18v.59c.2-.22.45-.41.75-.56s.63-.23 1-.23c.39 0 .75.1 1.08.29s.59.49.79.9.3.92.3 1.54c0 .57-.12 1.09-.35 1.55m-2.95-3.42c-.22.11-.39.22-.51.35v3.77c.05.08.17.15.35.22.19.06.4.09.62.09.51 0 .93-.2 1.25-.61s.48-1.02.48-1.84c0-.72-.14-1.26-.42-1.61s-.63-.53-1.06-.53c-.25 0-.49.05-.71.16m4.78 4.16c-.42-.53-.63-1.23-.63-2.11q0-.87.33-1.53t.93-1.02 1.35-.36c.62 0 1.1.17 1.44.52s.52.83.54 1.48c0 .41-.02.72-.07.93h-3.44c.01.66.17 1.19.46 1.59s.71.6 1.25.6c.27 0 .54-.05.83-.15s.52-.21.68-.34l.19.44c-.19.2-.48.37-.86.52s-.77.22-1.16.22c-.8 0-1.41-.26-1.84-.79m2.87-2.63c.02-.14.03-.28.03-.43q-.015-.645-.27-1.02c-.18-.25-.46-.38-.83-.38q-.585 0-.93.42c-.23.28-.36.75-.4 1.41zm1.98 2.82.75-.06v-4.23l-.72-.18v-.54l1.38-.18h.02l.22.18v.18l-.03.78h.03c.07-.11.19-.26.36-.44s.4-.35.67-.5.57-.23.89-.23c.13 0 .24.02.33.05v1.12a1 1 0 0 0-.23-.1c-.1-.03-.22-.04-.35-.04-.55 0-1.07.17-1.54.51v3.6l1.27.08v.48h-3.06v-.48zm5.49-.31c.07.1.21.19.43.27s.44.12.69.12c.38 0 .66-.07.84-.22s.27-.35.27-.61c0-.18-.06-.34-.17-.47s-.27-.25-.48-.35c-.2-.1-.5-.23-.88-.38-.51-.19-.89-.43-1.12-.69-.24-.27-.35-.62-.35-1.07 0-.29.09-.55.27-.77s.42-.39.73-.51.65-.19 1.03-.19c.31 0 .58.02.81.07s.42.09.56.14.23.08.28.09v1.24h-.61l-.2-.74c-.04-.08-.15-.15-.32-.21a1.8 1.8 0 0 0-.58-.08c-.3 0-.54.07-.73.2a.63.63 0 0 0-.27.54c0 .2.05.36.15.5.1.13.22.23.36.31.15.08.35.17.6.28l.2.08c.37.15.68.29.91.42s.43.31.59.52c.16.22.23.48.23.8 0 .49-.19.89-.58 1.18-.38.29-.91.44-1.57.44-.33 0-.67-.04-1.03-.13s-.65-.18-.88-.27v-1.28h.65zm4.49-3.55c.25-.44.57-.77.98-1s.83-.35 1.29-.35c.84 0 1.47.27 1.89.8s.64 1.23.64 2.1c0 .61-.12 1.13-.37 1.57s-.57.77-.98 1-.83.34-1.29.34c-.84 0-1.47-.27-1.89-.8q-.63-.795-.63-2.1-.015-.9.36-1.56m3.28 3.32c.25-.38.37-.94.37-1.69 0-.74-.11-1.33-.34-1.76s-.59-.65-1.09-.65c-.46 0-.82.19-1.07.57s-.38.94-.38 1.69c0 .74.12 1.33.35 1.76s.6.65 1.09.65c.47 0 .82-.19 1.07-.57m3.03-3.75-.72-.18v-.54l1.43-.18h.03l.21.18v.42l-.01.24c.24-.21.56-.41.95-.58s.77-.26 1.13-.26c.42 0 .75.08.98.24s.39.4.48.73.14.77.14 1.33v2.8l.7.07v.5h-2.37v-.49l.62-.08v-2.81c0-.39-.03-.7-.08-.93-.05-.22-.15-.39-.3-.5s-.36-.17-.64-.17c-.24 0-.5.06-.77.18s-.52.26-.73.42v3.79l.68.09v.49h-2.36v-.49l.63-.09zm6.65 4.1c-.42-.53-.63-1.23-.63-2.11q0-.87.33-1.53c.33-.66.53-.78.92-1.02.4-.24.85-.36 1.36-.36.62 0 1.1.17 1.44.52.34.34.53.83.54 1.48 0 .41-.02.72-.07.93h-3.44c.01.66.17 1.19.46 1.59s.71.6 1.25.6c.27 0 .54-.05.83-.15s.52-.21.68-.34l.19.44c-.19.2-.48.37-.86.52s-.77.22-1.16.22c-.8 0-1.41-.26-1.84-.79m2.87-2.63c.02-.14.03-.28.03-.43-.01-.43-.1-.77-.28-1.02s-.46-.38-.83-.38c-.39 0-.7.14-.92.42-.23.28-.36.75-.4 1.41zm2.56-1.47-.72-.18v-.54l1.43-.18h.03l.21.18v.42l-.01.24c.24-.21.56-.41.95-.58s.77-.26 1.13-.26c.42 0 .75.08.97.24.23.16.39.4.49.73.09.33.14.77.14 1.33v2.8l.7.07v.5h-2.37v-.49l.62-.08v-2.81c0-.39-.03-.7-.08-.93-.05-.22-.15-.39-.3-.5s-.36-.17-.64-.17c-.24 0-.5.06-.77.18s-.52.26-.73.42v3.79l.68.09v.49h-2.36v-.49l.63-.09z"/>
    <path class="st0" d="M319.38 103.77h114.57v29.66H319.38z"/>
    <path d="m328.26 105.43-.94-.14v-.6h1.57c.25 0 .6-.02 1.07-.05.46-.03.81-.05 1.04-.05 1.49 0 2.59.37 3.32 1.12.72.75 1.09 1.8 1.09 3.15 0 .94-.19 1.78-.56 2.51s-.89 1.3-1.57 1.71c-.67.41-1.44.61-2.32.61-.19 0-.52-.02-.98-.05-.48-.03-.84-.05-1.08-.05h-1.64V113l1-.12zm2.35 7.59h.36c.6-.01 1.13-.16 1.59-.46s.82-.74 1.07-1.33c.26-.59.38-1.3.38-2.14 0-1.26-.27-2.22-.82-2.88s-1.37-.98-2.48-.98c-.23 0-.51.02-.83.05-.14.02-.26.04-.36.04v7.61c.29.06.65.09 1.09.09m10.7.55c-.11-.09-.16-.23-.16-.43v-.41c-.26.26-.59.5-.99.7s-.79.3-1.19.3c-.74 0-1.27-.2-1.58-.6s-.47-1.06-.47-1.98v-3.48l-.67-.19v-.53l1.68-.16h.01l.23.14v4.12c0 .46.03.83.1 1.09s.19.45.36.58.42.19.75.19c.32 0 .62-.07.9-.2.28-.14.52-.3.73-.48v-4.55l-.86-.19v-.53l1.82-.16h.01l.28.14v6.05h.72l-.01.54c-.22.06-.42.1-.58.13s-.35.05-.57.05c-.23 0-.4-.05-.51-.14m2.65-.56.9-.07v-5.08l-.86-.22V107l1.66-.22h.02l.26.22v.22l-.04.94h.04c.08-.14.22-.31.43-.53s.48-.41.8-.59c.33-.18.68-.27 1.07-.27.16 0 .29.02.4.06v1.34a.9.9 0 0 0-.27-.11c-.12-.04-.26-.05-.41-.05-.66 0-1.28.2-1.85.61v4.32l1.52.1v.58h-3.67zm5.72-4.5c.26-.54.64-.96 1.15-1.28s1.12-.47 1.83-.47c.34 0 .64.03.89.1.25.06.54.15.89.26l-.05 1.85h-.78l-.26-1.22c-.05-.22-.35-.34-.91-.34s-1 .23-1.33.68c-.32.45-.49 1.09-.49 1.93 0 .94.18 1.66.55 2.15.36.49.84.74 1.42.74.34 0 .65-.05.95-.16s.56-.23.77-.37l.23.48c-.22.22-.53.43-.95.61s-.85.27-1.28.27c-.66 0-1.21-.15-1.66-.44-.45-.3-.79-.7-1.02-1.22s-.34-1.1-.34-1.76c0-.67.13-1.27.39-1.81m6.55-3.86-1.01-.13V104l1.96-.23h.02l.26.18v2.78l-.05 1.02c.26-.23.61-.45 1.06-.66s.9-.31 1.36-.31c.5 0 .9.1 1.18.29s.48.49.59.88.17.93.17 1.6v3.35l.84.11v.59h-2.87v-.59l.78-.11v-3.36c0-.47-.03-.84-.1-1.11q-.09-.405-.36-.6c-.18-.13-.44-.2-.79-.2-.29 0-.6.07-.92.22s-.62.31-.86.5v4.55l.83.11v.59h-2.8v-.59l.72-.1v-8.26zm8.38 7.99c.08.12.25.23.51.32.26.1.53.14.82.14.46 0 .79-.09 1.01-.26s.32-.42.32-.73c0-.22-.07-.4-.2-.56-.14-.16-.33-.3-.57-.43s-.59-.27-1.05-.45c-.62-.23-1.07-.51-1.35-.83s-.43-.75-.43-1.28c0-.35.11-.66.32-.92s.5-.47.88-.62.79-.22 1.24-.22c.37 0 .69.03.97.08.28.06.5.11.67.17s.28.09.34.11v1.49h-.73l-.24-.89c-.05-.1-.18-.18-.38-.25s-.44-.1-.7-.1q-.54 0-.87.24c-.22.16-.33.38-.33.65 0 .24.06.44.17.59.12.16.26.28.44.38s.42.21.72.34l.24.1c.45.18.81.34 1.09.5s.51.37.7.63.28.58.28.95c0 .59-.23 1.06-.69 1.42s-1.09.53-1.89.53c-.39 0-.8-.05-1.23-.16q-.645-.165-1.05-.33v-1.54h.78zm5.19-4.13c.26-.54.64-.96 1.15-1.28s1.12-.47 1.83-.47c.34 0 .64.03.89.1.25.06.54.15.89.26l-.05 1.85h-.78l-.26-1.22c-.05-.22-.35-.34-.91-.34s-1 .23-1.33.68c-.32.45-.49 1.09-.49 1.93 0 .94.18 1.66.55 2.15.36.49.84.74 1.42.74.34 0 .65-.05.95-.16.3-.1.56-.23.77-.37l.23.48c-.22.22-.53.43-.95.61s-.85.27-1.28.27c-.66 0-1.21-.15-1.66-.44s-.79-.7-1.02-1.22-.34-1.1-.34-1.76c0-.67.13-1.27.39-1.81m6.56-3.86-1.01-.13V104l1.96-.23h.02l.26.18v2.78l-.05 1.02c.26-.23.61-.45 1.06-.66s.9-.31 1.36-.31c.5 0 .9.1 1.18.29s.48.49.59.88c.11.4.17.93.17 1.6v3.35l.84.11v.59h-2.87v-.59l.78-.11v-3.36c0-.47-.03-.84-.1-1.11q-.09-.405-.36-.6c-.18-.13-.44-.2-.79-.2-.29 0-.6.07-.92.22s-.62.31-.86.5v4.55l.83.11v.59h-2.8v-.59l.72-.1v-8.26zm7.98 3.21-.86-.22V107l1.72-.22h.04l.25.22v.5l-.01.29c.29-.26.67-.49 1.14-.7s.92-.31 1.36-.31c.5 0 .89.1 1.17.29s.47.49.58.88c.11.4.17.93.17 1.6v3.36l.84.08v.6h-2.84V113l.74-.1v-3.37c0-.47-.03-.84-.1-1.11q-.09-.405-.36-.6c-.18-.13-.43-.2-.77-.2-.29 0-.6.07-.92.22s-.62.31-.88.5v4.55l.82.11v.59h-2.83V113l.76-.11v-5.03zm8.18 0-.91-.22V107l1.86-.23h.02l.28.22v5.92l.96.1v.59h-3.18v-.59l.97-.11zm-.1-2.34c-.13-.14-.19-.33-.19-.55 0-.26.08-.47.23-.64.16-.17.37-.25.64-.25s.47.07.6.22.19.33.19.55c0 .27-.08.49-.23.65-.16.16-.37.24-.65.24H393c-.25 0-.45-.07-.58-.22m4.19 7.89c-.22-.21-.34-.56-.34-1.07v-4.61h-.86v-.54c.04-.01.15-.04.34-.08.18-.05.31-.09.37-.13.13-.07.23-.22.3-.43.06-.15.14-.4.23-.73s.14-.54.16-.6h.71l.02 1.73h2v.79h-2v3.68c0 .46.01.78.04.96q.045.27.18.36c.09.06.25.08.47.08s.45-.03.71-.08c.26-.06.46-.12.61-.18l.18.54q-.285.21-.93.42c-.43.14-.82.2-1.17.2-.45 0-.79-.11-1.02-.31m4.89 0c-.22-.21-.34-.56-.34-1.07v-4.61h-.86v-.54c.04-.01.15-.04.34-.08.18-.05.31-.09.37-.13.13-.07.23-.22.3-.43.06-.15.14-.4.23-.73s.14-.54.16-.6h.71l.02 1.73h2v.79h-2v3.68c0 .46.01.78.04.96q.045.27.18.36c.09.06.25.08.47.08s.45-.03.71-.08c.26-.06.46-.12.61-.18l.18.54q-.285.21-.93.42c-.43.14-.82.2-1.17.2-.46 0-.8-.11-1.02-.31m4.76-4.86c-.15-.14-.22-.32-.22-.55 0-.26.09-.47.26-.63.18-.16.39-.25.64-.25s.44.07.56.22.19.32.19.54c0 .26-.09.48-.26.64s-.39.24-.64.24c-.21 0-.39-.07-.53-.21m0 4.95a.72.72 0 0 1-.22-.55c0-.25.09-.46.26-.62s.39-.25.64-.25c.24 0 .43.07.56.22s.2.33.2.55c0 .26-.09.48-.26.64s-.39.24-.64.24a.75.75 0 0 1-.54-.23m7.37 1.41c.57 0 1.09-.12 1.56-.35s.84-.55 1.12-.96c.27-.41.41-.87.41-1.39 0-1.29-.6-1.93-1.79-1.93-.26 0-.56.04-.88.11-.32.08-.61.17-.85.27l-.32-.23.59-4.32h3.42l.12-.23h.74l-.22 1.24h-3.18l-.55 2.8c.22-.11.49-.21.83-.3s.67-.13 1.01-.13c.77 0 1.37.22 1.81.65s.66 1.06.66 1.88a3 3 0 0 1-.55 1.75c-.36.54-.88.96-1.54 1.28s-1.42.48-2.27.48c-.34 0-.62-.03-.84-.08v-.58c.22.02.46.04.72.04m6.78-2.27c-.51-.71-.76-1.62-.76-2.74 0-.78.14-1.47.43-2.06s.68-1.04 1.18-1.35 1.04-.47 1.63-.47c1.04 0 1.8.33 2.28 1s.72 1.58.72 2.74c0 .78-.14 1.46-.41 2.06-.28.6-.66 1.06-1.14 1.39s-1.03.49-1.63.49c-1.02.01-1.79-.35-2.3-1.06m4.14-2.75c0-1.04-.13-1.84-.4-2.4q-.405-.84-1.35-.84c-.62 0-1.07.27-1.37.8s-.44 1.29-.44 2.29c0 1.02.14 1.83.43 2.44.28.61.73.92 1.35.92 1.18-.01 1.78-1.07 1.78-3.21" style="fill:#da671d"/>
    <path class="st0" d="M172.77 9.62h129.47v19.92H172.77z"/>
    <path class="st1" d="M192.46 20.85c-.69-.78-1.04-2-1.04-3.65v-5.5l-1.06-.18v-.75h4.01v.75l-1.28.19v5.66c0 1.36.24 2.34.73 2.94s1.18.9 2.09.9 1.59-.32 2.05-.96.68-1.57.68-2.79V11.7l-1.26-.19v-.75h3.5v.75l-1.1.18v5.69c0 1.56-.37 2.73-1.11 3.49-.74.77-1.73 1.16-2.96 1.16-1.48-.01-2.56-.4-3.25-1.18m10.2-6.12-1.08-.27v-.81l2.15-.27h.04l.31.27v.63l-.02.36c.36-.32.83-.61 1.43-.87.59-.26 1.15-.39 1.69-.39.63 0 1.12.12 1.46.36.35.24.59.61.73 1.1s.21 1.16.21 2v4.2l1.05.1v.75h-3.56v-.73l.93-.12v-4.21c0-.59-.04-1.05-.12-1.39s-.23-.58-.45-.75-.54-.25-.96-.25c-.36 0-.75.09-1.15.27-.41.18-.78.39-1.1.63v5.69l1.02.14v.73h-3.54v-.73l.95-.14v-6.3zm9.87 10.62c-.58-.4-.86-.96-.86-1.67 0-.44.14-.85.41-1.21.27-.37.6-.65.98-.84q-.69-.39-.69-1.26c0-.36.1-.7.31-1.02s.49-.56.83-.73c-.5-.22-.88-.54-1.15-.95s-.4-.89-.4-1.46c0-.58.16-1.08.49-1.51s.75-.76 1.29-.99 1.1-.34 1.7-.34q1.515 0 2.37.63c.15-.15.38-.29.69-.44q.465-.21.99-.21h.51v1.32h-1.65q.36.555.36 1.29c0 .59-.15 1.11-.44 1.57-.3.46-.71.81-1.23 1.06-.53.25-1.12.38-1.78.38-.43 0-.81-.04-1.15-.13-.14.14-.25.29-.35.46-.09.17-.13.33-.13.5 0 .36.12.61.36.74.24.14.67.2 1.29.2h1.69c.97 0 1.69.19 2.16.56s.71.89.71 1.57c0 .57-.21 1.09-.62 1.57-.41.47-.96.85-1.66 1.12s-1.45.41-2.26.41c-1.27-.02-2.2-.22-2.77-.62m4.3-.48c.43-.15.79-.36 1.06-.65.27-.28.41-.62.41-1 0-.45-.12-.78-.36-.98-.24-.21-.7-.31-1.39-.31h-1.77c-.4 0-.72-.02-.95-.07-.41.45-.61.95-.61 1.52 0 .56.17.98.51 1.27s.92.44 1.73.44c.47-.01.94-.08 1.37-.22m.29-8.77c0-.67-.15-1.16-.44-1.48-.29-.31-.74-.47-1.33-.47-.55 0-.99.15-1.31.46s-.48.79-.48 1.46c0 .63.15 1.13.46 1.5.3.37.77.56 1.39.56 1.14-.01 1.71-.68 1.71-2.03m4.8-5.39-1.21-.17V9.9l2.42-.29h.03l.33.23v11.21l1.27.12v.73h-4.05v-.73l1.21-.14zm4.83 10.17c-.64-.79-.95-1.85-.95-3.17 0-.87.17-1.63.5-2.29s.79-1.17 1.39-1.53 1.27-.54 2.03-.54c.93 0 1.65.26 2.17.77.51.52.79 1.25.82 2.21 0 .61-.04 1.08-.1 1.4h-5.16c.02.99.25 1.79.69 2.39s1.06.91 1.88.91c.4 0 .82-.07 1.25-.22s.77-.32 1.01-.52l.29.66q-.435.45-1.29.78c-.855.33-1.15.33-1.74.33-1.24.01-2.16-.39-2.79-1.18m4.29-3.94c.03-.21.04-.43.04-.65-.01-.65-.15-1.16-.41-1.54s-.68-.56-1.25-.56c-.58 0-1.04.21-1.39.63s-.54 1.12-.59 2.12zm4.11-2.21-1.14-.27v-.79l2.32-.29h.03l.34.27v7.4l1.2.12v.73h-3.98v-.73l1.22-.14v-6.3zm-.12-2.92q-.24-.27-.24-.69c0-.32.1-.58.29-.79.2-.21.46-.31.8-.31q.51 0 .75.27t.24.69c0 .34-.1.61-.29.81s-.47.3-.82.3h-.02c-.31-.01-.55-.1-.71-.28m4.26 3.73c.32-.67.8-1.2 1.44-1.6s1.4-.59 2.29-.59q.645 0 1.11.12t1.11.33l-.06 2.31h-.98l-.33-1.53q-.09-.42-1.14-.42c-.7 0-1.25.28-1.66.85-.41.56-.61 1.37-.61 2.41 0 1.18.23 2.08.68 2.69.46.61 1.05.92 1.78.92.42 0 .82-.06 1.19-.19s.7-.29.97-.46l.29.6c-.27.28-.67.53-1.19.76s-1.06.34-1.6.34c-.82 0-1.51-.19-2.08-.56-.56-.37-.99-.88-1.27-1.52-.28-.65-.43-1.38-.43-2.2 0-.84.16-1.59.49-2.26m8.19-4.83-1.26-.17V9.9l2.44-.29h.03l.33.23v3.48l-.06 1.27c.32-.29.76-.56 1.32-.82s1.12-.39 1.69-.39q.945 0 1.47.36c.35.24.59.61.73 1.1s.21 1.16.21 2v4.19l1.05.14v.73h-3.58v-.73l.97-.14v-4.2c0-.59-.04-1.05-.12-1.39q-.12-.495-.45-.75c-.22-.17-.55-.25-.99-.25-.36 0-.74.09-1.15.27s-.77.39-1.08.63v5.69l1.04.14v.73h-3.5v-.73l.9-.12V10.71zm9.89 0-1.26-.17V9.9l2.44-.29h.03l.33.23v3.48l-.06 1.27c.32-.29.76-.56 1.32-.82s1.12-.39 1.69-.39q.945 0 1.47.36c.35.24.59.61.73 1.1s.21 1.16.21 2v4.19l1.05.14v.73h-3.58v-.73l.97-.14v-4.2c0-.59-.04-1.05-.12-1.39q-.12-.495-.45-.75c-.22-.17-.55-.25-.99-.25-.36 0-.74.09-1.15.27s-.77.39-1.08.63v5.69l1.04.14v.73h-3.5v-.73l.9-.12V10.71zm10 10.17c-.64-.79-.95-1.85-.95-3.17 0-.87.17-1.63.5-2.29s.79-1.17 1.39-1.53 1.27-.54 2.03-.54c.93 0 1.65.26 2.17.77.51.52.79 1.25.82 2.21 0 .61-.04 1.08-.1 1.4h-5.16c.02.99.25 1.79.69 2.39s1.06.91 1.88.91c.4 0 .82-.07 1.25-.22s.77-.32 1.01-.52l.29.66q-.435.45-1.29.78c-.855.33-1.15.33-1.74.33-1.24.01-2.16-.39-2.79-1.18m4.29-3.94c.03-.21.04-.43.04-.65-.01-.65-.15-1.16-.41-1.54s-.68-.56-1.25-.56c-.58 0-1.04.21-1.39.63s-.54 1.12-.59 2.12zm4.11-2.21-1.14-.27v-.79l2.32-.29h.03l.34.27v7.4l1.2.12v.73h-3.98v-.73l1.22-.14v-6.3zm-.12-2.92q-.24-.27-.24-.69c0-.32.1-.58.29-.79.2-.21.46-.31.8-.31q.51 0 .75.27t.24.69c0 .34-.1.61-.29.81s-.47.3-.82.3h-.02c-.31-.01-.55-.1-.71-.28m5.24 9.85c-.28-.26-.42-.7-.42-1.33v-5.76h-1.08v-.67c.05-.01.19-.05.42-.11s.39-.11.47-.16c.16-.09.28-.27.38-.54.08-.19.17-.5.28-.92s.18-.67.2-.75h.88l.03 2.16h2.5v.99h-2.5v4.6c0 .57.02.97.05 1.2s.11.38.23.45c.11.07.31.1.59.1.27 0 .57-.03.89-.1.33-.07.58-.14.76-.23l.23.68c-.24.18-.63.35-1.16.52-.54.17-1.02.25-1.46.25-.59.01-1.01-.12-1.29-.38"/>
    <path class="st0" d="M3.63 9.62h94.74v19.92H3.63z"/>
    <path class="st1" d="M16.07 21.35a4.6 4.6 0 0 1-1.79-1.99c-.41-.84-.61-1.8-.61-2.87 0-1.23.24-2.28.73-3.17.48-.88 1.16-1.55 2.02-2 .86-.46 1.84-.68 2.94-.68 1.01 0 2.17.16 3.5.47l-.14 2.59h-1.06l-.36-1.8c-.14-.11-.38-.21-.71-.31-.34-.1-.78-.15-1.34-.15-.73 0-1.38.18-1.94.54s-1 .9-1.31 1.6c-.31.71-.47 1.57-.47 2.58 0 .93.13 1.78.38 2.55s.65 1.39 1.17 1.85 1.17.7 1.93.7c.48 0 .93-.06 1.36-.17s.76-.27.99-.46v-3.35l-1.89-.15v-.88h4.38v.88l-.87.14v4.03c-.22.01-.58.1-1.09.25-.52.16-1.01.29-1.47.38s-.97.14-1.53.14c-1.1 0-2.03-.24-2.82-.72m9.82-10.64-1.21-.17V9.9l2.42-.29h.03l.33.23v11.21l1.27.12v.73h-4.05v-.73l1.21-.14zm4.82 10.17c-.64-.79-.95-1.85-.95-3.17 0-.87.17-1.63.5-2.29s.79-1.17 1.39-1.53 1.27-.54 2.03-.54c.93 0 1.65.26 2.17.77.51.52.79 1.25.82 2.21 0 .61-.04 1.08-.1 1.4h-5.16c.02.99.25 1.79.69 2.39s1.06.91 1.88.91c.4 0 .82-.07 1.25-.22s.77-.32 1.01-.52l.29.66q-.435.45-1.29.78c-.855.33-1.15.33-1.74.33-1.23.01-2.15-.39-2.79-1.18m4.3-3.94c.03-.21.04-.43.04-.65-.01-.65-.15-1.16-.41-1.54s-.68-.56-1.25-.56c-.58 0-1.04.21-1.39.63s-.54 1.12-.59 2.12zm4.11-2.21-1.14-.27v-.79l2.32-.29h.03l.34.27v7.4l1.2.12v.73H37.9v-.73l1.22-.14zM39 11.81q-.24-.27-.24-.69c0-.32.1-.58.29-.79.2-.21.46-.31.8-.31q.51 0 .75.27t.24.69c0 .34-.1.61-.29.81s-.47.3-.82.3h-.02c-.31-.01-.55-.1-.71-.28m4.25 3.73c.32-.67.8-1.2 1.44-1.6s1.4-.59 2.29-.59q.645 0 1.11.12t1.11.33l-.06 2.31h-.98l-.33-1.53q-.09-.42-1.14-.42c-.7 0-1.25.28-1.66.85-.41.56-.61 1.37-.61 2.41 0 1.18.23 2.08.68 2.69.46.61 1.05.92 1.78.92.42 0 .82-.06 1.19-.19s.7-.29.97-.46l.29.6c-.27.28-.67.53-1.19.76s-1.06.34-1.6.34c-.82 0-1.51-.19-2.08-.56-.56-.37-.99-.88-1.27-1.52-.28-.65-.43-1.38-.43-2.2 0-.84.17-1.59.49-2.26m8.2-4.83-1.26-.17V9.9l2.44-.29h.03l.33.23v3.48l-.06 1.27c.32-.29.76-.56 1.32-.82s1.12-.39 1.69-.39q.945 0 1.47.36c.35.24.59.61.73 1.1s.21 1.16.21 2v4.19l1.05.14v.73h-3.58v-.73l.97-.14v-4.2c0-.59-.04-1.05-.12-1.39q-.12-.495-.45-.75c-.22-.17-.55-.25-.99-.25-.36 0-.74.09-1.15.27s-.77.39-1.08.63v5.69l1.04.14v.73h-3.5v-.73l.9-.12V10.71zm9.88 0-1.26-.17V9.9l2.44-.29h.03l.33.23v3.48l-.06 1.27c.32-.29.76-.56 1.32-.82s1.12-.39 1.69-.39q.945 0 1.47.36c.35.24.59.61.73 1.1s.21 1.16.21 2v4.19l1.05.14v.73H65.7v-.73l.97-.14v-4.2c0-.59-.04-1.05-.12-1.39q-.12-.495-.45-.75c-.22-.17-.55-.25-.99-.25-.36 0-.74.09-1.15.27s-.77.39-1.08.63v5.69l1.04.14v.73h-3.5v-.73l.9-.12V10.71zm10 10.17c-.64-.79-.95-1.85-.95-3.17 0-.87.17-1.63.5-2.29s.79-1.17 1.39-1.53 1.27-.54 2.03-.54c.93 0 1.65.26 2.17.77.51.52.79 1.25.82 2.21 0 .61-.04 1.08-.1 1.4h-5.16c.02.99.25 1.79.69 2.39s1.06.91 1.88.91c.4 0 .82-.07 1.25-.22s.77-.32 1.01-.52l.29.66q-.435.45-1.29.78c-.855.33-1.15.33-1.74.33-1.23.01-2.15-.39-2.79-1.18m4.3-3.94c.03-.21.04-.43.04-.65-.01-.65-.15-1.16-.41-1.54s-.68-.56-1.25-.56c-.58 0-1.04.21-1.39.63s-.54 1.12-.59 2.12zm4.11-2.21-1.14-.27v-.79l2.32-.29h.03l.34.27v7.4l1.2.12v.73h-3.98v-.73l1.22-.14v-6.3zm-.12-2.92q-.24-.27-.24-.69c0-.32.1-.58.29-.79.2-.21.46-.31.8-.31q.51 0 .75.27t.24.69c0 .34-.1.61-.29.81s-.47.3-.82.3h-.02c-.31-.01-.55-.1-.71-.28m5.23 9.85c-.28-.26-.42-.7-.42-1.33v-5.76h-1.08v-.67c.05-.01.19-.05.42-.11s.39-.11.47-.16c.16-.09.28-.27.38-.54.08-.19.17-.5.28-.92s.18-.67.2-.75h.88l.03 2.16h2.5v.99h-2.5v4.6c0 .57.02.97.05 1.2s.11.38.23.45c.11.07.31.1.59.1.27 0 .57-.03.89-.1.33-.07.58-.14.76-.23l.23.68c-.24.18-.63.35-1.16.52-.54.17-1.02.25-1.46.25-.58.01-1.01-.12-1.29-.38"/>
  </g>
  <g id="Board_1">
    <path class="st0" d="M273.33 167.44h58.88v16.38h-58.88z"/>
    <path d="M296.7 177.3c.77-.68 1.38-1.37 1.84-2.09.45-.72.68-1.4.68-2.04 0-.55-.16-.99-.49-1.31s-.8-.49-1.41-.49c-.57 0-1.06.11-1.47.34s-.79.5-1.14.83l-.48-.67c.35-.41.85-.78 1.5-1.12.65-.33 1.34-.5 2.08-.5.7 0 1.29.13 1.77.38.48.26.83.59 1.07 1 .23.41.34.86.34 1.35 0 .99-.48 2.01-1.42 3.05-.95 1.04-2.14 1.98-3.57 2.81l4.65-.35.52-1.29.77.15-.39 2.37h-7.15l-.23-.63c.92-.52 1.76-1.11 2.53-1.79m7.61 1.23c-.63-.89-.95-2.03-.95-3.43 0-.98.18-1.84.54-2.57.36-.74.85-1.3 1.47-1.69s1.3-.58 2.04-.58c1.3 0 2.25.42 2.85 1.25s.9 1.98.9 3.43c0 .97-.17 1.83-.52 2.57s-.82 1.32-1.42 1.73c-.61.41-1.28.61-2.03.61q-1.92.015-2.88-1.32m5.17-3.44c0-1.3-.17-2.3-.5-3s-.9-1.05-1.69-1.05c-.77 0-1.34.33-1.71 1s-.55 1.62-.55 2.86c0 1.27.18 2.29.53 3.05s.92 1.15 1.69 1.15c1.49-.01 2.23-1.34 2.23-4.01" style="fill:#a2c617"/>
    <path style="fill:none;stroke:#da671d;stroke-width:.5;stroke-miterlimit:10" d="M425.57 118.56H164.79"/>
    <defs>
      <path id="XMLID_3_" d="m314.31 125.07-1.65-3.45c-5.35-11.14-10.03-20.09-13.96-27.17l-5.67-10.27c-3.11-5.01-6.5-4.66-9.6-4.66h-.65v-3.4c4.84-2.5 8.16-7.55 8.16-13.38 0-8.31-6.74-15.05-15.05-15.05-1.93 0-3.77.36-5.46 1.02a14.8 14.8 0 0 0-3.72 2.11c-.22.13-.45.27-.67.4-4.05 2.43-5.62 8.89-6.03 10.93-2.61 12.82-10.09 12.09-10.09 12.09s1.13.43 9.91 2.56c3.75.91 7.51 1.22 10.6 1.28v1.43h-4.63v.09c-4.25.45-8.19 2.57-10.81 6.01-5.85 7.66-6.9 18.67-7.06 23.49 0 .07-.02.13-.02.19v.49c-.02 1.1 0 1.74 0 1.74v19.58c0 2.62 1.97 4.92 4.59 5.11 2.87.2 5.29-2.09 5.29-4.93v-22c0-.21-.04-.4-.06-.6.52-11.05 4.64-14.48 4.64-14.48v88.52c0 3.68 3.01 6.69 6.69 6.69s6.69-3.01 6.69-6.69l.1-30.43 1.72.01h2.26v30.76c0 3.2 2.36 6.01 5.54 6.32 3.66.36 6.77-2.54 6.77-6.13V152.3h14.66c2.43 0 3.94-3.18 2.73-5.73l-14.62-30.67-3.31-9c-.18-5.75.25-6.59.25-6.59l13.44 29.08a4.54 4.54 0 0 0 6.03 2.12l.89-.43c2.22-1.06 3.17-3.77 2.1-6.01"/>
    </defs>
    <use xlink:href="#XMLID_3_" style="overflow:visible;fill:#0c3958"/>
    <clipPath id="XMLID_00000018227874334190039230000015507082148381989253_">
      <use xlink:href="#XMLID_3_" style="overflow:visible"/>
    </clipPath>
    <linearGradient id="SVGID_1_" gradientUnits="userSpaceOnUse" x1="281.561" y1="190.62" x2="281.561" y2="46.555">
      <stop offset="0" style="stop-color:#cee1ac"/>
      <stop offset=".094" style="stop-color:#c6dc99"/>
      <stop offset=".302" style="stop-color:#b6d270"/>
      <stop offset=".503" style="stop-color:#a9ca4e"/>
      <stop offset=".691" style="stop-color:#9ec536"/>
      <stop offset=".862" style="stop-color:#97c226"/>
      <stop offset="1" style="stop-color:#95c11f"/>
    </linearGradient>
    <path style="clip-path:url(#XMLID_00000018227874334190039230000015507082148381989253_);fill:url(#SVGID_1_)" d="M230.31 46.56h102.5v144.06h-102.5z"/>
    <path style="clip-path:url(#XMLID_00000018227874334190039230000015507082148381989253_);fill:#0c3958" d="M240.35 47.69h73.96v113.39h-73.96z"/>
    <defs>
      <path id="XMLID_2_" d="m83.99 125.12-1.65-3.45c-5.35-11.14-10.03-20.09-13.96-27.17l-5.67-10.27c-3.11-5.01-6.5-4.66-9.6-4.66h-.65v-3.4c4.84-2.5 8.16-7.55 8.16-13.38 0-8.31-6.74-15.05-15.05-15.05-1.93 0-3.77.36-5.46 1.02a14.8 14.8 0 0 0-3.72 2.11c-.22.13-.45.27-.67.4-4.05 2.43-5.62 8.89-6.03 10.93C27.08 75.02 19.6 74.29 19.6 74.29s1.13.43 9.91 2.56c3.75.91 7.51 1.22 10.6 1.28v1.43h-4.63v.09c-4.25.45-8.19 2.57-10.81 6.01-5.85 7.66-6.9 18.67-7.06 23.49 0 .07-.02.13-.02.19v.49c-.02 1.1 0 1.74 0 1.74v19.58c0 2.62 1.97 4.92 4.59 5.11 2.87.2 5.29-2.09 5.29-4.93v-22c0-.21-.04-.4-.06-.6.52-11.05 4.64-14.48 4.64-14.48v88.52c0 3.68 3.01 6.69 6.69 6.69s6.69-3.01 6.69-6.69l.1-30.43 1.72.01h2.26v30.76c0 3.2 2.36 6.01 5.54 6.32 3.66.36 6.77-2.54 6.77-6.13v-30.95h14.66c2.43 0 3.94-3.18 2.73-5.73l-14.62-30.67-3.31-9c-.18-5.75.25-6.59.25-6.59l13.44 29.08a4.54 4.54 0 0 0 6.03 2.12l.89-.43c2.23-1.06 3.18-3.78 2.1-6.01"/>
    </defs>
    <use xlink:href="#XMLID_2_" style="overflow:visible;fill:#0c3958"/>
    <clipPath id="XMLID_00000095325452353886327260000001604640476037226125_">
      <use xlink:href="#XMLID_2_" style="overflow:visible"/>
    </clipPath>
    <linearGradient id="SVGID_00000034055156646737306870000011397652317422568336_" gradientUnits="userSpaceOnUse" x1="51.248" y1="190.664" x2="51.248" y2="46.599">
      <stop offset="0" style="stop-color:#cee1ac"/>
      <stop offset=".094" style="stop-color:#c6dc99"/>
      <stop offset=".302" style="stop-color:#b6d270"/>
      <stop offset=".503" style="stop-color:#a9ca4e"/>
      <stop offset=".691" style="stop-color:#9ec536"/>
      <stop offset=".862" style="stop-color:#97c226"/>
      <stop offset="1" style="stop-color:#95c11f"/>
    </linearGradient>
    <path style="clip-path:url(#XMLID_00000095325452353886327260000001604640476037226125_);fill:url(#SVGID_00000034055156646737306870000011397652317422568336_)" d="M0 46.6h102.5v144.06H0z"/>
    <path style="clip-path:url(#XMLID_00000095325452353886327260000001604640476037226125_);fill:#0c3958" d="M10.9 47.73h80v77.98h-80z"/>
    <path class="st0" d="M21.56 129.35h58.88v16.38H21.56z"/>
    <path class="st4" d="M47.64 141.64h-4.98l-.39-.67c.59-1.12 1.31-2.6 2.17-4.45.86-1.84 1.63-3.54 2.31-5.08h.39l1.2.65-4.05 7.8-.6.92 3.94-.21.06-2.93 1.27-.1v2.96l2.12-.1v1.23h-2.12v2.42h-1.33v-2.44zm6.05 1.63c.71 0 1.36-.15 1.95-.43.59-.29 1.06-.69 1.4-1.2s.51-1.09.51-1.74c0-1.61-.75-2.41-2.23-2.41-.33 0-.7.05-1.1.14-.41.1-.76.21-1.06.34l-.4-.29.73-5.4h4.27l.15-.29h.93l-.27 1.54h-3.98l-.69 3.5c.27-.14.61-.26 1.04-.38.42-.11.84-.17 1.26-.17.96 0 1.71.27 2.27.81.55.54.82 1.33.82 2.35 0 .79-.23 1.52-.68 2.19-.46.67-1.1 1.21-1.93 1.6s-1.77.6-2.83.6c-.43 0-.78-.04-1.05-.1v-.72c.27.05.57.06.89.06"/>
    <path class="st5" d="M321.31 210.76v6h-6"/>
    <path class="st40" d="M303.72 216.76h-133.3"/>
    <path class="st5" d="M164.63 216.76h-6v-6"/>
    <path class="st41" d="M158.63 198.05V51.86"/>
    <path class="st5" d="M158.63 45.5v-6h6"/>
    <path class="st40" d="M176.22 39.5h133.3"/>
    <path class="st5" d="M315.31 39.5h6v6"/>
    <path class="st41" d="M321.31 58.22V204.4"/>
    <defs>
      <path id="XMLID_1_" d="m235.04 125.12-1.65-3.45c-5.35-11.14-10.03-20.09-13.96-27.17l-5.67-10.27c-3.11-5.01-6.5-4.66-9.6-4.66h-.65v-3.4c4.84-2.5 8.16-7.55 8.16-13.38 0-8.31-6.74-15.05-15.05-15.05-1.93 0-3.77.36-5.46 1.02a14.8 14.8 0 0 0-3.72 2.11c-.22.13-.45.27-.67.4-4.05 2.43-5.62 8.89-6.03 10.93-2.61 12.82-10.09 12.09-10.09 12.09s1.13.43 9.91 2.56c3.75.91 7.51 1.22 10.6 1.28v1.43h-4.63v.09c-4.25.45-8.19 2.57-10.81 6.01-5.85 7.66-6.9 18.67-7.06 23.49 0 .07-.02.13-.02.19v.49c-.02 1.1 0 1.74 0 1.74v19.58c0 2.62 1.97 4.92 4.59 5.11 2.87.2 5.29-2.09 5.29-4.93v-22c0-.21-.04-.4-.06-.6.52-11.05 4.64-14.48 4.64-14.48v88.52c0 3.68 3.01 6.69 6.69 6.69s6.69-3.01 6.69-6.69l.1-30.43 1.72.01h2.26v30.76c0 3.2 2.36 6.01 5.54 6.32 3.66.36 6.77-2.54 6.77-6.13v-30.95h14.66c2.43 0 3.94-3.18 2.73-5.73l-14.62-30.67-3.31-9c-.18-5.75.25-6.59.25-6.59l13.44 29.08a4.54 4.54 0 0 0 6.03 2.12l.89-.43c2.22-1.06 3.17-3.78 2.1-6.01"/>
    </defs>
    <use xlink:href="#XMLID_1_" style="overflow:visible;fill:#0c3958"/>
    <clipPath id="XMLID_00000036952634436020854280000007999506512220524720_">
      <use xlink:href="#XMLID_1_" style="overflow:visible"/>
    </clipPath>
    <linearGradient id="SVGID_00000101820715168004829950000002561222257116119992_" gradientUnits="userSpaceOnUse" x1="202.294" y1="190.664" x2="202.294" y2="46.599">
      <stop offset="0" style="stop-color:#cee1ac"/>
      <stop offset=".094" style="stop-color:#c6dc99"/>
      <stop offset=".302" style="stop-color:#b6d270"/>
      <stop offset=".503" style="stop-color:#a9ca4e"/>
      <stop offset=".691" style="stop-color:#9ec536"/>
      <stop offset=".862" style="stop-color:#97c226"/>
      <stop offset="1" style="stop-color:#95c11f"/>
    </linearGradient>
    <path style="clip-path:url(#XMLID_00000036952634436020854280000007999506512220524720_);fill:url(#SVGID_00000101820715168004829950000002561222257116119992_)" d="M151.05 46.6h102.5v144.06h-102.5z"/>
    <path style="clip-path:url(#XMLID_00000036952634436020854280000007999506512220524720_);fill:#0c3958" d="M161.52 47.73h73.96v28.35h-73.96z"/>
    <path class="st0" d="M170.62 110.37h58.88v16.38h-58.88z"/>
    <path class="st4" d="M192.05 118.26c.38-.5.96-.93 1.73-1.27-.59-.38-1.05-.78-1.37-1.21s-.48-.96-.48-1.6c0-.59.16-1.1.47-1.52s.73-.75 1.25-.97q.78-.33 1.68-.33c.97 0 1.75.22 2.34.67s.88 1.05.88 1.8c0 .57-.17 1.1-.52 1.58-.35.49-.84.91-1.49 1.27.8.45 1.42.91 1.86 1.37s.66 1.03.66 1.71c0 .61-.18 1.14-.53 1.6s-.83.81-1.42 1.06-1.23.38-1.92.38c-.64 0-1.24-.1-1.81-.3-.56-.2-1.03-.52-1.39-.95-.36-.44-.54-.98-.54-1.64.02-.59.21-1.14.6-1.65m5.12.87c-.21-.27-.47-.51-.79-.71s-.75-.44-1.3-.72q-.42-.21-.63-.33-.705.36-1.14.96c-.435.6-.44.83-.44 1.29 0 .74.22 1.33.65 1.76s1.03.65 1.78.65c.36 0 .71-.08 1.04-.24s.61-.39.82-.69.32-.64.32-1.02c0-.35-.1-.67-.31-.95m-3.53-4.32q.33.42.81.72t1.38.78c.45-.24.81-.54 1.06-.91q.39-.555.39-1.2c0-.66-.18-1.18-.54-1.55-.36-.38-.85-.56-1.46-.56-.55 0-1.02.16-1.4.48-.39.32-.58.75-.58 1.29.01.35.12.67.34.95m8.23 6.65c-.63-.89-.95-2.03-.95-3.43 0-.98.18-1.84.54-2.57.36-.74.85-1.3 1.47-1.69s1.3-.58 2.04-.58c1.3 0 2.25.42 2.85 1.25s.9 1.98.9 3.43c0 .97-.17 1.83-.52 2.57-.34.75-.82 1.32-1.42 1.73-.61.41-1.28.61-2.03.61-1.29.01-2.24-.44-2.88-1.32m5.17-3.44c0-1.3-.17-2.3-.5-3s-.9-1.05-1.69-1.05c-.77 0-1.34.33-1.71 1s-.55 1.62-.55 2.86c0 1.27.18 2.29.53 3.05s.92 1.15 1.69 1.15c1.48-.01 2.23-1.34 2.23-4.01"/>
  </g>
</svg>
