<svg xmlns="http://www.w3.org/2000/svg" viewBox="0 0 512 512" style="enable-background:new 0 0 512 512" xml:space="preserve">
  <path style="fill:#e2e5e7" d="M128 0c-17.6 0-32 14.4-32 32v448c0 17.6 14.4 32 32 32h320c17.6 0 32-14.4 32-32V128L352 0H128z"/>
  <path style="fill:#b0b7bd" d="M384 128h96L352 0v96c0 17.6 14.4 32 32 32z"/>
  <path style="fill:#0b3959" d="M416 416c0 8.8-7.2 16-16 16H48c-8.8 0-16-7.2-16-16V256c0-8.8 7.2-16 16-16h352c8.8 0 16 7.2 16 16v160z"/>
  <text x="90" y="385" fill="white" font-size="130px" font-weight="bold" font-family="arial">MP3</text>
</svg>
