<?xml version="1.0" encoding="UTF-8" standalone="no"?>
<!-- Created with Inkscape (http://www.inkscape.org/) -->

<svg
   xmlns:dc="http://purl.org/dc/elements/1.1/"
   xmlns:cc="http://creativecommons.org/ns#"
   xmlns:rdf="http://www.w3.org/1999/02/22-rdf-syntax-ns#"
   xmlns:svg="http://www.w3.org/2000/svg"
   xmlns="http://www.w3.org/2000/svg"
   xmlns:sodipodi="http://sodipodi.sourceforge.net/DTD/sodipodi-0.dtd"
   xmlns:inkscape="http://www.inkscape.org/namespaces/inkscape"
   width="624.9458mm"
   height="624.9458mm"
   viewBox="0 0 624.9458 624.9458"
   version="1.1"
   id="svg1127"
   inkscape:version="0.92.2 (5c3e80d, 2017-08-06)"
   sodipodi:docname="oxford.svg">
  <defs
     id="defs1121" />
  <sodipodi:namedview
     id="base"
     pagecolor="#ffffff"
     bordercolor="#666666"
     borderopacity="1.0"
     inkscape:pageopacity="0.0"
     inkscape:pageshadow="2"
     inkscape:zoom="0.35"
     inkscape:cx="1242.4286"
     inkscape:cy="623.85712"
     inkscape:document-units="mm"
     inkscape:current-layer="layer1"
     showgrid="false"
     fit-margin-top="0"
     fit-margin-left="0"
     fit-margin-right="0"
     fit-margin-bottom="0"
     inkscape:window-width="2736"
     inkscape:window-height="1779"
     inkscape:window-x="-13"
     inkscape:window-y="-13"
     inkscape:window-maximized="1" />
  <metadata
     id="metadata1124">
    <rdf:RDF>
      <cc:Work
         rdf:about="">
        <dc:format>image/svg+xml</dc:format>
        <dc:type
           rdf:resource="http://purl.org/dc/dcmitype/StillImage" />
        <dc:title></dc:title>
      </cc:Work>
    </rdf:RDF>
  </metadata>
  <g
     inkscape:label="Layer 1"
     inkscape:groupmode="layer"
     id="layer1"
     transform="translate(392.60387,311.0503)">
    <path
       style="fill:#012147;stroke-width:0.26458332"
       inkscape:connector-curvature="0"
       id="path9"
       d="M -392.60387,-311.0503 H 232.34196 V 313.89553 H -392.60387 Z" />
    <path
       style="fill:#fffffe;stroke-width:0.26458332"
       inkscape:connector-curvature="0"
       id="path11"
       d="m -268.96725,209.82459 c 0,-21.81701 -10.58175,-37.03505 -28.41308,-37.03505 -19.39634,0 -28.43133,18.27821 -28.43133,37.03505 0,21.78711 10.57275,36.99192 28.43133,36.99192 19.38285,0 28.41308,-18.26233 28.41308,-36.99192 m 13.22678,-0.44027 c 0,23.98554 -18.51871,41.39486 -41.63986,41.39486 -23.57913,0 -41.64647,-17.60458 -41.64647,-40.53046 0,-24.01041 18.50496,-41.41973 41.64647,-41.41973 23.57252,0 41.63986,17.63157 41.63986,40.55533" />
    <path
       style="fill:#fffffe;stroke-width:0.26458332"
       inkscape:connector-curvature="0"
       id="path13"
       d="m -14.698697,209.82459 c 0,-21.81701 -10.57937,-37.03505 -28.42445,-37.03505 -19.38285,0 -28.41996,18.27821 -28.41996,37.03505 0,21.78711 10.57725,36.99192 28.41996,36.99192 19.38284,0 28.42445,-18.26233 28.42445,-36.99192 m 13.2154096,-0.44027 c 0,23.98554 -18.5049596,41.39486 -41.6398596,41.39486 -23.57914,0 -41.64648,-17.60458 -41.64648,-40.53046 0,-24.01041 18.50946,-41.41973 41.64648,-41.41973 23.57252,0 41.6398596,17.63157 41.6398596,40.55533" />
    <path
       style="fill:#fffffe;stroke-width:0.26458332"
       inkscape:connector-curvature="0"
       id="path15"
       d="m 48.973283,223.01698 c -4.62942,-6.60532 -6.39657,-9.02547 -12.11713,-9.02547 h -6.17458 v 26.88431 c 0,2.20002 0.88477,3.28216 3.31629,3.73804 l 9.02335,1.98252 v 2.87867 H 7.5514326 v -2.87867 l 8.1592204,-1.98252 c 2.41115,-0.65088 3.29592,-1.53802 3.29592,-3.73804 v -62.1321 c 0,-2.20477 -0.88477,-3.08716 -3.29592,-3.74253 l -8.1592204,-1.9894 V 170.1445 H 42.143323 c 7.27472,0 12.33752,0.66463 16.5272,2.19816 8.58785,3.3139 13.43316,11.4845 13.43316,19.17409 0,9.70862 -7.26995,17.86757 -19.38761,20.70549 v 0.44212 c 2.42967,1.12078 3.74518,2.64716 12.33991,13.90042 l 10.79711,14.31104 c 1.54252,2.20002 3.52743,3.51817 5.95445,3.96717 l 7.92559,1.75339 v 2.87867 h -18.94522 c -2.20028,0 -3.30941,-0.67839 -5.28505,-3.32767 z m -18.29171,-12.77514 h 9.915 c 14.98468,0 18.29408,-9.44986 18.29408,-18.50284 0,-6.82996 -3.08742,-13.22653 -10.13724,-16.29781 -3.74491,-1.54702 -7.27446,-1.54702 -12.11739,-1.54702 h -5.95445 v 36.34767" />
    <path
       style="fill:#fffffe;stroke-width:0.26458332"
       inkscape:connector-curvature="0"
       id="path17"
       d="m -109.29941,197.25132 h 3.30279 v 26.44643 h -3.30279 l -1.98702,-7.93009 c -0.66014,-2.87417 -2.42491,-3.96743 -5.06519,-3.96743 h -19.17409 v 29.07771 c 0,2.20716 0.88239,3.28904 3.30491,3.7383 l 9.03923,1.98252 v 2.87867 h -35.46978 v -2.87867 l 8.14996,-1.98252 c 2.42253,-0.65088 3.30279,-1.53114 3.30279,-3.7383 V 178.7416 c 0,-2.20715 -0.88026,-3.08266 -3.30279,-3.73141 l -8.14996,-1.98941 v -2.8784 h 59.924693 v 19.85698 h -3.309413 l -3.74068,-11.91551 c -0.87789,-3.07366 -2.20028,-4.1828 -4.84505,-4.1828 h -24.90391 v 34.14051 h 19.17409 c 2.64028,0 4.18492,-1.08188 5.06519,-3.96266 l 1.98702,-6.82758" />
    <path
       style="fill:#fffffe;stroke-width:0.26458332"
       inkscape:connector-curvature="0"
       id="path19"
       d="m 119.25772,173.89417 v 68.29716 c 0,2.88079 0.66464,3.54992 3.52955,3.54992 h 9.69486 c 9.2501,0 16.08243,-1.34726 20.92748,-4.86543 8.14335,-5.93645 11.89514,-16.73145 11.89514,-30.40036 0,-13.44665 -3.75179,-26.6528 -14.76005,-33.04725 -4.6228,-2.65615 -10.57725,-3.53404 -19.8366,-3.53404 z m -23.137017,75.58088 v -2.87867 l 8.147847,-1.98252 c 2.43178,-0.65088 3.31417,-1.53115 3.31417,-3.73804 v -62.1321 c 0,-2.21139 -0.88239,-3.08716 -3.31417,-3.73592 l -8.147847,-1.98913 v -2.87417 h 37.241427 c 10.12825,0 17.40271,1.32265 23.34789,3.96742 14.98918,6.83684 21.81913,21.58762 21.81913,36.12992 0,14.12266 -5.29431,27.32431 -18.72959,34.37202 -6.1722,3.32316 -14.76216,4.86119 -25.99716,4.86119 H 96.120703" />
    <path
       style="fill:#fffffe;stroke-width:0.26458332"
       inkscape:connector-curvature="0"
       id="path21"
       d="m -224.67574,246.59638 v 2.87867 h -27.97545 v -2.87867 l 7.04109,-1.74651 c 2.65615,-0.68501 4.40267,-1.53803 6.16532,-3.52743 l 24.24165,-30.40459 -24.24165,-32.17413 c -1.53802,-2.21139 -3.50917,-3.30253 -5.94995,-3.97166 l -6.6122,-1.75339 v -2.87417 h 34.8144 v 2.87417 l -7.48321,1.53114 c -2.65165,0.45799 -1.98702,1.54914 -0.67151,3.31153 l 17.8517,25.56192 h 0.43577 l 18.29382,-25.56192 c 1.31815,-1.76239 1.76715,-2.42015 -0.65537,-3.08928 l -7.05909,-1.75339 v -2.87417 h 27.98445 v 2.87417 l -7.05008,1.75339 c -2.64478,0.66913 -4.40505,1.53776 -6.16744,3.52478 l -22.91715,28.88271 25.55293,33.69627 c 1.55152,2.20689 3.53166,3.28904 5.95418,3.97405 l 6.61459,1.74651 v 2.87867 h -34.81653 v -2.87867 l 7.48983,-1.52426 c 2.64716,-0.45826 2.20504,-1.31578 0.88238,-3.1123 l -19.39184,-27.31293 h -0.43338 l -19.6051,27.1272 c -1.32927,1.76 -1.77165,2.39077 0.65114,3.07578 l 7.0567,1.74651" />
    <path
       style="fill:#fffffe;stroke-width:0.26458332"
       inkscape:connector-curvature="0"
       id="path23"
       d="m -308.1322,132.81232 c -2.19789,2.19578 -5.48031,3.65442 -10.07136,3.65442 -3.9923,0 -7.69885,-1.26127 -10.21213,-3.76317 -3.42053,-3.42079 -3.2594,-7.78721 -3.2594,-12.45764 V 98.186304 h 4.4958 V 121.8837 c 0,2.99853 -0.0839,5.92032 2.22965,8.24072 1.61051,1.60602 4.07617,2.47491 6.91832,2.47491 2.78791,0 5.01306,-0.95964 6.40371,-2.35003 2.58366,-2.58366 2.42491,-5.38956 2.42491,-12.18327 V 98.186304 h 4.42092 v 18.713706 c 0,7.11121 0.29475,12.26503 -3.35042,15.91231" />
    <path
       style="fill:#fffffe;stroke-width:0.26458332"
       inkscape:connector-curvature="0"
       id="path25"
       d="m -268.21187,135.75898 -18.1012,-30.79935 0.11562,30.79935 h -4.13517 V 98.181804 h 4.61618 l 18.16471,30.971856 -0.12012,-30.971856 h 4.13729 v 37.577176 h -4.67731" />
    <path
       style="fill:#fffffe;stroke-width:0.26458332"
       inkscape:connector-curvature="0"
       id="path27"
       d="m -247.86276,98.186304 h 4.52305 v 37.572676 h -4.52305 z" />
    <path
       style="fill:#fffffe;stroke-width:0.26458332"
       inkscape:connector-curvature="0"
       id="path29"
       d="m -215.22826,135.75898 h -5.18081 L -233.3681,98.186304 h 4.71144 l 10.96963,33.169746 11.27812,-33.169746 h 4.3823 l -13.20165,37.572676" />
    <path
       style="fill:#fffffe;stroke-width:0.26458332"
       inkscape:connector-curvature="0"
       id="path31"
       d="M -191.79623,135.75898 V 98.186304 h 20.42398 v 3.747286 h -16.00306 v 12.40314 h 15.02331 v 3.64993 h -15.02331 v 13.90941 h 16.44994 v 3.86291 h -20.87086" />
    <path
       style="fill:#fffffe;stroke-width:0.26458332"
       inkscape:connector-curvature="0"
       id="path33"
       d="m -138.257,135.75898 -4.3098,-9.74487 c -2.6834,-5.98831 -3.89467,-6.60532 -9.34323,-6.60532 h -2.6244 v 16.35019 h -4.43468 V 98.186304 h 8.10921 c 5.01544,0 8.80137,-0.0362 11.75464,2.917026 1.8759,1.88727 2.92841,4.38018 2.92841,7.51496 0,2.61541 -0.75538,4.78843 -2.33177,6.46033 -1.35202,1.44039 -3.59093,2.69928 -6.02694,2.96466 1.32238,0.0749 2.41114,0.78713 3.12578,1.50177 1.02738,1.02076 1.77139,2.57228 2.86465,5.02656 l 4.99507,11.18737 z m -4.10554,-31.91774 c -2.15503,-2.15477 -4.94057,-2.0619 -8.01185,-2.0619 h -4.16004 v 14.03879 h 1.49939 c 3.78804,0 7.87109,0.195 10.45475,-2.38866 1.24301,-1.23613 1.93701,-2.98952 1.93701,-4.89056 0,-2.11402 -0.83,-3.80841 -1.71926,-4.69767" />
    <path
       style="fill:#fffffe;stroke-width:0.26458332"
       inkscape:connector-curvature="0"
       id="path35"
       d="m -89.653307,98.186304 h 4.52067 v 37.572676 h -4.52067 z" />
    <path
       style="fill:#fffffe;stroke-width:0.26458332"
       inkscape:connector-curvature="0"
       id="path37"
       d="m -59.339467,101.93359 v 33.82539 h -4.52067 v -33.82539 h -11.15801 v -3.747286 h 26.81156 v 3.747286 h -11.13288" />
    <path
       style="fill:#fffffe;stroke-width:0.26458332"
       inkscape:connector-curvature="0"
       id="path39"
       d="m -26.575577,120.91057 v 14.84841 h -4.46643 v -14.84841 l -11.92239,-22.724266 h 5.16043 l 9.26386,17.618066 8.99398,-17.622566 4.89743,0.005 -11.92688,22.724266" />
    <path
       style="fill:#fffffe;stroke-width:0.26458332"
       inkscape:connector-curvature="0"
       id="path41"
       d="m 27.517423,136.47336 c -9.72899,0 -16.8402,-8.03196 -16.8402,-19.32834 0,-11.61389 7.03633,-19.673356 17.18707,-19.673356 9.83562,0 16.7812,7.980096 16.7812,19.328596 0,11.62738 -6.96384,19.6731 -17.12807,19.6731 m -0.0182,-35.16127 c -7.36309,0 -12.14226,6.21744 -12.14226,15.59242 0,9.33185 5.3213,15.69455 12.38276,15.69455 7.85072,0 12.22613,-6.68231 12.22613,-15.99379 0,-9.15961 -5.16255,-15.29318 -12.46663,-15.29318" />
    <path
       style="fill:#fffffe;stroke-width:0.26458332"
       inkscape:connector-curvature="0"
       id="path43"
       d="m 61.481193,101.93359 v 12.39652 h 14.53541 v 3.65178 h -14.53541 v 17.77709 h -4.48442 V 98.186304 h 19.95461 v 3.747286 h -15.47019" />
    <path
       style="fill:#fffffe;stroke-width:0.26458332"
       inkscape:connector-curvature="0"
       id="path45"
       d="m -124.43808,107.35252 c 0,-5.77744 4.63868,-9.880856 11.42762,-9.880856 6.87096,0 10.169,3.545406 10.50264,3.912916 l -2.20266,2.67203 c -0.84376,-0.65326 -3.8518,-2.86703 -8.00497,-2.86703 -4.79081,0 -7.44696,2.50878 -7.44696,5.90444 0,1.64915 0.67601,2.83528 1.76265,3.8018 1.28588,1.16126 3.16865,2.01877 5.19219,2.95117 2.51777,1.15226 5.96794,2.45639 8.28145,4.86092 1.60391,1.66264 2.81729,3.81291 2.81729,6.77333 0,6.25581 -4.34155,11.00799 -12.13776,11.00799 -6.64845,0 -10.84474,-3.65654 -11.23739,-4.02166 l 2.07116,-3.05091 c 1.07051,0.79401 5.24193,3.26866 9.0551,3.26866 5.65494,0 7.76896,-3.09854 7.76896,-6.84345 0,-1.72852 -0.78713,-3.12367 -1.96215,-4.2418 -1.74651,-1.69439 -4.40266,-2.81728 -6.94557,-3.98092 -2.52678,-1.15702 -4.95618,-2.36379 -6.67782,-4.1783 -1.13427,-1.18639 -2.26378,-3.13478 -2.26378,-6.08833" />
    <path
       style="fill:#fffffe;stroke-width:0.26458332"
       inkscape:connector-curvature="0"
       id="path47"
       d="m 48.168153,-156.02563 c 0,-4.71832 -1.60364,-8.52673 -5.06042,-10.55688 -2.16641,-1.27026 -5.09482,-1.68539 -8.71035,-1.68539 l -26.3104304,-0.0114 v 53.12886 H 36.722283 c 6.59421,0 10.48199,1.48802 10.81987,7.40833 h 0.63526 l -0.009,-48.28354" />
    <path
       style="fill:#fffffe;stroke-width:0.26458332"
       inkscape:connector-curvature="0"
       id="path49"
       d="m 51.840573,-156.02563 c 0,-4.71832 1.59914,-8.52673 5.06306,-10.55688 2.16615,-1.27026 5.09456,-1.68539 8.71035,-1.68539 l 26.49405,-0.0114 v 53.12886 h -28.81921 c -6.59606,0 -10.48173,1.48802 -10.81987,7.40833 h -0.63288 l 0.005,-48.28354" />
    <path
       style="fill:#fffffe;stroke-width:0.26458332"
       inkscape:connector-curvature="0"
       id="path51"
       d="m 97.611373,-164.3481 v 56.15702 h -40.68048 l -0.46276,1.15226 c -0.71438,1.75127 -1.98014,3.36841 -6.42144,3.36841 -4.43468,0 -5.70283,-1.61714 -6.41509,-3.36841 l -0.46937,-1.15226 H 2.5566326 v -56.15702 h -3.67242 v 1.71238 l -3.52478,-1.0795 c -0.40375,-1.38827 -1.6719,-2.41141 -3.19166,-2.41141 -1.84627,0 -3.3456596,1.50177 -3.3456596,3.34804 0,1.84414 1.4993896,3.34142 3.3456596,3.34142 0.8075,0 1.53802,-0.29263 2.11402,-0.77364 l 4.60242,1.41763 v 4.51406 l -3.46366,-0.62151 c -0.50588,-1.19538 -1.68989,-2.02776 -3.06916,-2.02776 -1.84389,0 -3.3456596,1.49463 -3.3456596,3.34804 0,1.84414 1.5017696,3.34115 3.3456596,3.34115 0.94615,0 1.80789,-0.40825 2.41829,-1.04563 l 4.11453,0.73951 v 4.60454 l -3.61103,-0.16562 c -0.58288,-0.96838 -1.64227,-1.6309 -2.86041,-1.6309 -1.84415,0 -3.3525396,1.4994 -3.3525396,3.34592 0,1.84415 1.5083896,3.34354 3.3525396,3.34354 1.11363,0 2.09365,-0.54662 2.70166,-1.38377 l 3.76978,0.16325 v 4.99957 l -3.69041,0.13388 c -0.60801,-0.84852 -1.59914,-1.40864 -2.72441,-1.40864 -1.83965,0 -3.3480396,1.50389 -3.3480396,3.34803 0,1.84415 1.5083896,3.34354 3.3480396,3.34354 1.20915,0 2.26378,-0.64876 2.84903,-1.61052 l 3.56579,-0.12726 v 4.60931 l -4.03966,0.69638 c -0.61251,-0.64876 -1.47002,-1.06601 -2.43178,-1.06601 -1.84415,0 -3.3525396,1.49702 -3.3525396,3.34566 0,1.85102 1.5083896,3.34142 3.3525396,3.34142 1.3679,0 2.54741,-0.82338 3.0644,-2.00766 l 3.40704,-0.58499 v 4.52279 l -4.41616,1.35202 c -0.57864,-0.47625 -1.31127,-0.77126 -2.11666,-0.77126 -1.84389,0 -3.3456596,1.49251 -3.3456596,3.34142 0,1.84626 1.5017696,3.34354 3.3456596,3.34354 1.52003,0 2.78103,-1.01626 3.19405,-2.40242 l 3.33877,-1.02288 v 4.38018 l -4.88368,2.10265 c -0.52387,-0.34687 -1.14988,-0.55113 -1.83276,-0.55113 -1.84627,0 -3.3456596,1.49701 -3.3456596,3.34116 0,1.8534 1.4993896,3.35491 3.3456596,3.35491 1.64226,0 3.00566,-1.19777 3.28003,-2.76727 l 3.43641,-1.48141 v 3.99918 H 40.907453 c 1.70128,2.97392 4.65455,4.518564 9.13924,4.518564 4.48204,0 7.4377,-1.544644 9.14797,-4.518564 h 42.088857 v -59.83393 h -3.672147" />
    <path
       style="fill:#fffffe;stroke-width:0.26458332"
       inkscape:connector-curvature="0"
       id="path53"
       d="m 22.399853,-183.07558 c -8.48783,0 -15.3767904,1.32477 -15.3767904,2.94667 0,1.63327 6.8889604,2.95566 15.3767904,2.95566 8.4926,0 15.38182,-1.32239 15.38182,-2.95566 0,-1.6219 -6.88922,-2.94667 -15.38182,-2.94667" />
    <path
       style="fill:#fffffe;stroke-width:0.26458332"
       inkscape:connector-curvature="0"
       id="path55"
       d="m 43.572603,-201.49666 -8.87359,6.2402 -0.0818,0.6305 2.1119,0.94377 c 0.42413,0.21537 0.42413,0.54663 0.21538,0.7485 l -5.58007,4.70668 -0.53075,-0.0452 -3.94917,-5.82744 c -0.27464,-0.37651 -0.17701,-0.74851 0.30374,-0.82789 l 2.65165,-0.43788 v -0.66675 l -6.87969,-9.71524 h -1.12501 l -6.87758,9.71524 v 0.66675 l 2.65853,0.43788 c 0.46699,0.0794 0.5715,0.45138 0.30163,0.82789 l -3.95605,5.82744 -0.52837,0.0452 -5.2059504,-4.70668 c -0.21563,-0.20187 -0.20637,-0.53313 0.20876,-0.7485 l 2.1140204,-0.94377 -0.0794,-0.6305 -9.2503704,-6.2402 -0.75061998,0.29263 5.43242998,16.58593 c 2.75166,-1.23613 9.0823504,-2.11164 16.4975604,-2.14127 7.4131,0.0296 13.73717,0.90514 16.49995,2.14127 l 5.42369,-16.58593 -0.75089,-0.29263" />
    <path
       style="fill:#fffffe;stroke-width:0.26458332"
       inkscape:connector-curvature="0"
       id="path57"
       d="m 49.985313,-71.834156 c -8.49498,0 -15.38843,1.32239 -15.38843,2.9464 0,1.63089 6.89345,2.95355 15.38843,2.95355 8.4881,0 15.37705,-1.32266 15.37705,-2.95355 0,-1.62401 -6.88895,-2.9464 -15.37705,-2.9464" />
    <path
       style="fill:#fffffe;stroke-width:0.26458332"
       inkscape:connector-curvature="0"
       id="path59"
       d="m 71.157803,-90.260006 -8.87598,6.24258 -0.0749,0.62839 2.10953,0.9525 c 0.41301,0.20426 0.41301,0.54239 0.20425,0.74427 l -5.58006,4.70429 -0.53102,-0.0431 -3.94679,-5.82719 c -0.26987,-0.372 -0.17224,-0.7485 0.30189,-0.83238 l 2.64928,-0.431 v -0.67152 l -6.8707,-9.71311 h -1.12978 l -6.87308,9.71311 v 0.67152 l 2.64954,0.431 c 0.48313,0.0839 0.5805,0.46038 0.30401,0.83238 l -3.94917,5.82719 -0.52864,0.0431 -5.20806,-4.70429 c -0.21775,-0.20188 -0.21087,-0.54001 0.20638,-0.74427 l 2.10978,-0.9525 -0.0728,-0.62839 -9.25248,-6.24258 -0.7485,0.29501 5.43031,16.58832 c 2.76039,-1.23613 9.09161,-2.11402 16.49994,-2.14365 7.41045,0.0296 13.7414,0.90752 16.4928,2.14365 l 5.43719,-16.58832 -0.753,-0.29501" />
    <path
       style="fill:#fffffe;stroke-width:0.26458332"
       inkscape:connector-curvature="0"
       id="path61"
       d="m 77.491133,-183.07558 c -8.4881,0 -15.36806,1.32477 -15.36806,2.94667 0,1.63327 6.87996,2.95566 15.36806,2.95566 8.49921,0 15.38367,-1.32239 15.38367,-2.95566 0,-1.6219 -6.88446,-2.94667 -15.38367,-2.94667" />
    <path
       style="fill:#fffffe;stroke-width:0.26458332"
       inkscape:connector-curvature="0"
       id="path63"
       d="m 98.668113,-201.49666 -8.87386,6.2402 -0.0839,0.6305 2.10952,0.94377 c 0.42413,0.21537 0.42413,0.54663 0.21775,0.7485 l -5.58244,4.70668 -0.52837,-0.0452 -3.94229,-5.82744 c -0.27914,-0.37651 -0.17701,-0.74851 0.29712,-0.82789 l 2.64928,-0.43788 v -0.66675 l -6.87308,-9.71524 h -1.12501 l -6.88446,9.71524 v 0.66675 l 2.66779,0.43788 c 0.46488,0.0794 0.56251,0.45138 0.29237,0.82789 l -3.94679,5.82744 -0.53287,0.0452 -5.21044,-4.76806 c -0.21114,-0.20188 -0.20664,-0.53763 0.21299,-0.74401 l 2.10952,-0.88688 -0.0791,-0.6305 -9.24587,-6.2402 -0.753,0.29263 5.43031,16.58593 c 2.7514,-1.23613 9.08685,-2.11164 16.49756,-2.14127 7.4176,0.0296 13.74378,0.90514 16.49995,2.14127 l 5.42819,-16.58593 -0.75089,-0.29263" />
    <path
       style="fill:#263c5e;stroke-width:0.26458332"
       inkscape:connector-curvature="0"
       id="path65"
       d="m 14.306783,-154.09523 c 0,1.03875 0.25638,1.23851 0.81888,1.23851 1.00701,0 2.03015,-1.10702 2.03015,-3.18479 0,-2.51328 -1.28164,-3.22104 -2.27753,-3.22104 -0.26988,0 -0.41725,0.0384 -0.50589,0.0839 -0.0521,0.0249 -0.0656,0.29474 -0.0656,0.58737 z m 0.5715,-5.75257 c 1.44515,0 2.64054,0.28363 3.42079,1.04563 0.54901,0.52176 1.00939,1.39515 1.00939,2.40003 0,2.91704 -2.21165,4.16455 -4.92231,4.16455 h -3.02154 v -0.45138 c 0.85513,-0.0704 0.94827,-0.15426 0.94827,-1.42002 v -3.8698 c 0,-1.2565 -0.0931,-1.34064 -0.85514,-1.40864 v -0.46037 h 3.42054" />
    <path
       style="fill:#263c5e;stroke-width:0.26458332"
       inkscape:connector-curvature="0"
       id="path67"
       d="m 22.497483,-156.33414 c 0,2.1209 0.80301,3.66554 1.95316,3.66554 1.007,0 1.55601,-0.96838 1.55601,-3.08928 0,-2.35241 -0.84376,-3.65654 -1.85102,-3.65654 -0.90726,0 -1.65815,1.03188 -1.65815,3.08028 m 5.68457,0.20426 c 0,2.50402 -1.70815,4.07379 -3.96054,4.07379 -2.36141,0 -3.89493,-1.72614 -3.89493,-3.88329 0,-1.89177 1.26365,-4.08543 4.06717,-4.08543 2.13678,0 3.7883,1.57427 3.7883,3.89493" />
    <path
       style="fill:#263c5e;stroke-width:0.26458332"
       inkscape:connector-curvature="0"
       id="path69"
       d="m 38.525413,-159.8478 v 0.46037 c -0.8935,0.0794 -0.93662,0.12488 -0.90038,1.35652 l 0.11351,3.92192 c 0.0429,1.2999 0.0611,1.33614 0.90488,1.41552 v 0.46037 h -3.67004 v -0.46037 c 0.88239,-0.0794 0.91387,-0.11562 0.90038,-1.41552 l -0.0317,-4.12142 h -0.0476 l -2.25928,5.86582 h -0.635 l -2.13915,-5.45518 h -0.0249 l -0.0863,2.60164 c -0.0317,1.00039 -0.018,1.5674 0.0317,1.92591 0.0431,0.4355 0.30163,0.54424 1.0594,0.59875 v 0.46037 h -2.89428 v -0.46037 c 0.567,-0.0431 0.78925,-0.16325 0.86413,-0.59875 0.0521,-0.35851 0.12012,-0.9824 0.1815,-2.04603 l 0.12912,-2.36828 c 0.0794,-1.47214 -0.0111,-1.60152 -0.93901,-1.6809 v -0.46037 h 2.75617 l 2.05502,4.63417 1.78302,-4.63417 h 2.84877" />
    <path
       style="fill:#263c5e;stroke-width:0.26458332"
       inkscape:connector-curvature="0"
       id="path71"
       d="m 42.327213,-154.10899 c 0,1.27026 0.10001,1.34964 0.90276,1.42002 v 0.45138 h -3.79466 v -0.45138 c 0.80725,-0.0704 0.90488,-0.14976 0.90488,-1.42002 v -3.8698 c 0,-1.2565 -0.0976,-1.34064 -0.90488,-1.40864 v -0.46037 h 3.79466 v 0.46037 c -0.80275,0.068 -0.90276,0.15214 -0.90276,1.40864 v 3.8698" />
    <path
       style="fill:#263c5e;stroke-width:0.26458332"
       inkscape:connector-curvature="0"
       id="path73"
       d="m 23.472743,-138.10117 h -1.00939 l -4.32805,-5.5327 h -0.0315 v 2.15741 c 0,1.23163 0.0474,1.8759 0.0905,2.2434 0.0683,0.40587 0.38126,0.55801 1.15014,0.59637 v 0.45588 h -2.91041 v -0.45588 c 0.51726,-0.0249 0.81888,-0.1905 0.87339,-0.59637 0.0431,-0.3675 0.0931,-1.01177 0.0931,-2.2434 v -2.15741 c 0,-0.85963 -0.0228,-1.01389 -0.25876,-1.34038 -0.17225,-0.24501 -0.46038,-0.32438 -0.88689,-0.36539 v -0.458 h 2.59292 l 3.89228,4.86331 h 0.0249 v -1.56977 c 0,-1.22714 -0.0429,-1.87828 -0.086,-2.23653 -0.0683,-0.40825 -0.38339,-0.558 -1.15015,-0.59901 v -0.458 h 2.97604 v 0.458 c -0.58076,0.0251 -0.88689,0.19076 -0.94139,0.59901 -0.041,0.35825 -0.0907,1.00939 -0.0907,2.23653 v 4.40293" />
    <path
       style="fill:#263c5e;stroke-width:0.26458332"
       inkscape:connector-curvature="0"
       id="path75"
       d="m 28.209043,-138.10117 c -0.80751,-2.11191 -1.90764,-5.00168 -2.32489,-6.1042 -0.38815,-1.00039 -0.62151,-1.06151 -1.18428,-1.13427 v -0.458 h 3.77905 v 0.458 l -0.3945,0.0455 c -0.4355,0.0497 -0.4355,0.15875 -0.3085,0.567 0.21537,0.65564 1.1385,2.96016 1.57639,4.1058 0.35851,-0.99351 1.10701,-3.23241 1.29751,-3.77904 0.24739,-0.71676 0.17225,-0.84402 -0.35374,-0.89826 l -0.35402,-0.041 v -0.458 h 2.83766 v 0.458 c -0.67125,0.0841 -0.83238,0.14525 -1.29275,1.21153 -0.0614,0.15875 -1.4949,3.64066 -2.37041,6.02694 h -0.90752" />
    <path
       style="fill:#263c5e;stroke-width:0.26458332"
       inkscape:connector-curvature="0"
       id="path77"
       d="m 33.492243,-140.59408 c 0.24501,0.68051 0.94139,1.97777 2.08465,1.97777 0.61251,0 1.07739,-0.39688 1.07739,-1.15888 0,-0.68527 -0.45376,-1.07527 -1.16814,-1.40652 l -0.17912,-0.0794 c -0.95964,-0.449 -2.0484,-1.05251 -2.0484,-2.30452 0,-1.32477 0.95937,-2.40215 2.79902,-2.40215 0.36301,0 0.7374,0.0452 1.08215,0.14049 0.26538,0.068 0.45588,0.11113 0.60351,0.16113 0.0497,0.46276 0.12912,1.03426 0.25612,1.82827 l -0.51488,0.0839 c -0.25638,-0.77576 -0.66225,-1.61052 -1.59253,-1.61052 -0.59875,0 -1.02049,0.46275 -1.02049,1.02314 0,0.58738 0.46037,0.92525 1.21126,1.26577 l 0.25162,0.12012 c 1.08214,0.49212 2.01215,1.08188 2.01215,2.45427 0,1.44489 -1.16152,2.49979 -2.98503,2.49979 -0.46064,0 -0.94138,-0.0976 -1.25915,-0.20426 -0.35137,-0.12012 -0.59875,-0.20876 -0.73263,-0.27887 -0.0974,-0.54002 -0.24712,-1.17052 -0.39449,-1.95765 l 0.51699,-0.15188" />
    <path
       style="fill:#263c5e;stroke-width:0.26458332"
       inkscape:connector-curvature="0"
       id="path79"
       d="m 18.262563,-126.00204 c 0,1.26365 0.0908,1.34752 0.89826,1.41552 v 0.45588 h -3.79042 v -0.45588 c 0.80513,-0.068 0.89826,-0.15187 0.89826,-1.41552 v -3.8698 c 0,-1.25888 -0.0931,-1.34037 -0.89826,-1.41075 v -0.46064 h 3.79042 v 0.46064 c -0.80751,0.0704 -0.89826,0.15187 -0.89826,1.41075 v 3.8698" />
    <path
       style="fill:#263c5e;stroke-width:0.26458332"
       inkscape:connector-curvature="0"
       id="path81"
       d="m 22.899123,-125.8499 c 0,0.61224 0.0249,0.90037 0.23363,1.00488 0.19288,0.0953 0.45587,0.10663 0.81888,0.10663 0.36989,0 0.88239,-0.0341 1.12051,-0.34502 0.1905,-0.22225 0.39238,-0.53525 0.57838,-1.15226 l 0.50377,0.0818 c -0.0749,0.44238 -0.31539,1.66264 -0.41751,2.02327 h -5.80681 v -0.45588 c 0.8845,-0.068 0.97525,-0.15187 0.97525,-1.41552 v -3.8698 c 0,-1.25888 -0.0908,-1.34037 -0.87789,-1.41314 v -0.45825 h 3.81318 v 0.45825 c -0.84826,0.0728 -0.94139,0.15426 -0.94139,1.41314 v 4.02194" />
    <path
       style="fill:#263c5e;stroke-width:0.26458332"
       inkscape:connector-curvature="0"
       id="path83"
       d="m 29.431683,-125.8499 c 0,0.61224 0.0206,0.90037 0.23601,1.00488 0.18838,0.0953 0.45588,0.10663 0.81677,0.10663 0.3765,0 0.8845,-0.0341 1.12501,-0.34502 0.186,-0.22225 0.38788,-0.53525 0.57838,-1.15226 l 0.5035,0.0818 c -0.0725,0.44238 -0.31062,1.66264 -0.42413,2.02327 h -5.80469 v -0.45588 c 0.88476,-0.068 0.98451,-0.15187 0.98451,-1.41552 v -3.8698 c 0,-1.25888 -0.0997,-1.34037 -0.88688,-1.41314 v -0.45825 h 3.80629 v 0.45825 c -0.83476,0.0728 -0.93477,0.15426 -0.93477,1.41314 v 4.02194" />
    <path
       style="fill:#263c5e;stroke-width:0.26458332"
       inkscape:connector-curvature="0"
       id="path85"
       d="m 35.032123,-124.04889 c -0.80751,-2.1119 -1.90977,-5.00168 -2.33389,-6.10182 -0.38576,-1.00277 -0.61489,-1.06389 -1.17951,-1.13427 v -0.45825 h 3.78327 v 0.45825 l -0.40799,0.0408 c -0.42412,0.0524 -0.42412,0.16113 -0.30188,0.56938 0.21775,0.65564 1.13876,2.96492 1.56977,4.10792 0.36962,-0.99562 1.11363,-3.23003 1.30439,-3.77904 0.24474,-0.71887 0.17013,-0.84587 -0.34951,-0.90487 l -0.35375,-0.0341 v -0.45825 h 2.83078 v 0.45825 c -0.66463,0.0818 -0.83,0.13627 -1.29302,1.21127 -0.0656,0.15663 -1.49251,3.63855 -2.3749,6.02482 h -0.89376" />
    <path
       style="fill:#263c5e;stroke-width:0.26458332"
       inkscape:connector-curvature="0"
       id="path87"
       d="m 66.482873,-159.8478 v 0.46037 c -0.88688,0.0794 -0.93477,0.12488 -0.90275,1.35652 l 0.11324,3.92192 c 0.0362,1.2999 0.059,1.33614 0.90963,1.41552 v 0.46037 h -3.66791 v -0.46037 c 0.87577,-0.0794 0.91651,-0.11562 0.90275,-1.41552 l -0.0362,-4.12142 h -0.0476 l -2.25928,5.86582 h -0.635 l -2.13915,-5.45518 h -0.0273 l -0.0839,2.60164 c -0.0296,1.00039 -0.0204,1.5674 0.0228,1.92591 0.0452,0.4355 0.30162,0.54424 1.06838,0.59875 v 0.46037 h -2.89454 v -0.46037 c 0.55801,-0.0431 0.78952,-0.16325 0.85963,-0.59875 0.0593,-0.35851 0.12489,-0.9824 0.17939,-2.04603 l 0.136,-2.36828 c 0.0794,-1.47214 -0.0135,-1.60152 -0.93901,-1.6809 v -0.46037 h 2.75617 l 2.04575,4.63417 1.78991,-4.63417 h 2.84903" />
    <path
       style="fill:#263c5e;stroke-width:0.26458332"
       inkscape:connector-curvature="0"
       id="path89"
       d="m 70.284413,-154.10899 c 0,1.27026 0.0974,1.34964 0.90276,1.42002 v 0.45138 h -3.79254 v -0.45138 c 0.80301,-0.0704 0.90487,-0.14976 0.90487,-1.42002 v -3.8698 c 0,-1.2565 -0.10186,-1.34064 -0.90487,-1.40864 v -0.46037 h 3.79254 v 0.46037 c -0.8054,0.068 -0.90276,0.15214 -0.90276,1.40864 v 3.8698" />
    <path
       style="fill:#263c5e;stroke-width:0.26458332"
       inkscape:connector-curvature="0"
       id="path91"
       d="m 79.004023,-152.15346 h -1.01177 l -4.33705,-5.52794 h -0.027 v 2.15265 c 0,1.23614 0.0587,1.87802 0.10187,2.23653 0.059,0.41275 0.372,0.567 1.14776,0.60563 v 0.45138 h -2.91465 v -0.45138 c 0.51938,-0.0317 0.81862,-0.19288 0.87312,-0.60563 0.0569,-0.35851 0.10213,-1.00039 0.10213,-2.23653 v -2.15265 c 0,-0.86439 -0.0272,-1.01414 -0.26326,-1.34302 -0.17674,-0.24501 -0.46487,-0.3265 -0.889,-0.36513 v -0.46037 h 2.58604 l 3.90366,4.86092 h 0.0225 v -1.56739 c 0,-1.22714 -0.0497,-1.87589 -0.0929,-2.23652 -0.0566,-0.40852 -0.381,-0.55801 -1.15676,-0.59664 v -0.46037 h 2.99403 v 0.46037 c -0.57838,0.0249 -0.8935,0.18812 -0.95038,0.59664 -0.0408,0.36063 -0.0884,1.00938 -0.0884,2.23652 v 4.40293" />
    <path
       style="fill:#263c5e;stroke-width:0.26458332"
       inkscape:connector-curvature="0"
       id="path93"
       d="m 82.408673,-155.234 h 1.4994 l -0.7374,-2.23441 h -0.0384 z m 1.49014,2.54741 0.34951,-0.0521 c 0.43312,-0.0569 0.45588,-0.17701 0.30163,-0.59664 l -0.41725,-1.19089 h -1.9259 l -0.34714,1.12051 c -0.15875,0.5035 -0.15875,0.62389 0.38127,0.68051 l 0.34687,0.0386 v 0.45138 h -2.73103 v -0.45138 c 0.59425,-0.0818 0.76676,-0.13388 1.16152,-1.11601 l 2.34315,-6.0542 0.80751,-0.16113 0.79163,2.20927 c 0.50588,1.39065 1.0115,2.77892 1.45389,3.96743 0.372,1.02076 0.58975,1.07738 1.16152,1.15464 v 0.45138 h -3.67718 v -0.45138" />
    <path
       style="fill:#263c5e;stroke-width:0.26458332"
       inkscape:connector-curvature="0"
       id="path95"
       d="m 66.389743,-140.05671 c 0,1.26577 0.0931,1.34991 1.07738,1.41552 v 0.45826 h -4.09866 v -0.45826 c 0.93901,-0.0656 1.02738,-0.14975 1.02738,-1.41552 v -5.12392 h -0.20426 c -0.77576,0 -1.09326,0.136 -1.2745,0.34925 -0.14287,0.17013 -0.28363,0.48075 -0.44026,1.13639 h -0.49001 c 0.0479,-0.98663 0.118,-1.7989 0.14076,-2.38866 h 0.36301 c 0.17674,0.26326 0.29712,0.28813 0.60774,0.28813 h 4.66831 c 0.31062,0 0.36513,-0.0704 0.55563,-0.28813 h 0.36301 c 0.0138,0.48789 0.0749,1.4859 0.127,2.35003 l -0.5125,0.0386 c -0.18151,-0.70538 -0.30639,-1.00939 -0.48313,-1.20915 -0.19976,-0.21087 -0.58526,-0.27649 -1.14327,-0.27649 h -0.28363 v 5.12392" />
    <path
       style="fill:#263c5e;stroke-width:0.26458332"
       inkscape:connector-curvature="0"
       id="path97"
       d="m 72.520933,-140.05671 c 0,1.26577 0.0929,1.34964 0.90064,1.41552 v 0.45826 h -3.7883 v -0.45826 c 0.80539,-0.0659 0.89826,-0.14975 0.89826,-1.41552 v -3.86979 c 0,-1.25439 -0.0929,-1.33588 -0.89826,-1.41076 v -0.45826 h 3.7883 v 0.45826 c -0.80777,0.0749 -0.90064,0.15637 -0.90064,1.41076 v 3.86979" />
    <path
       style="fill:#263c5e;stroke-width:0.26458332"
       inkscape:connector-curvature="0"
       id="path99"
       d="m 76.579113,-142.28185 c 0,2.12328 0.79375,3.66554 1.94178,3.66554 1.01388,0 1.56263,-0.97288 1.56263,-3.09378 0,-2.34791 -0.85038,-3.65442 -1.85077,-3.65442 -0.90513,0 -1.65364,1.03663 -1.65364,3.08266 m 5.67981,0.19976 c 0,2.50878 -1.71477,4.08067 -3.95129,4.08067 -2.3704,0 -3.90842,-1.73091 -3.90842,-3.88356 0,-1.89388 1.26814,-4.08278 4.05791,-4.08278 2.15292,0 3.8018,1.56951 3.8018,3.88567" />
    <path
       style="fill:#263c5e;stroke-width:0.26458332"
       inkscape:connector-curvature="0"
       id="path101"
       d="m 69.848903,-131.74323 v 0.46064 c -0.89376,0.0815 -0.93451,0.12461 -0.89826,1.35651 l 0.11139,3.92192 c 0.0339,1.29752 0.0611,1.33827 0.90276,1.41764 v 0.45588 h -3.66792 v -0.45588 c 0.88212,-0.0794 0.91176,-0.12012 0.90276,-1.41764 l -0.0341,-4.12168 h -0.0497 l -2.25928,5.86608 h -0.62389 l -2.14815,-5.45544 h -0.0317 l -0.0794,2.59715 c -0.0317,1.00489 -0.018,1.56739 0.0249,1.93278 0.05,0.4355 0.30189,0.54213 1.06389,0.59875 v 0.45588 h -2.89216 v -0.45588 c 0.56276,-0.05 0.78713,-0.16325 0.86439,-0.59875 0.0521,-0.36539 0.118,-0.9824 0.17674,-2.04602 l 0.13626,-2.36829 c 0.0794,-1.47426 -0.0135,-1.60152 -0.9435,-1.68301 v -0.46064 h 2.7559 l 2.05052,4.63444 1.78964,-4.63444 h 2.84903" />
    <path
       style="fill:#263c5e;stroke-width:0.26458332"
       inkscape:connector-curvature="0"
       id="path103"
       d="m 71.656803,-129.86734 c 0,-1.26788 -0.0931,-1.35175 -0.87339,-1.41764 v -0.45825 h 5.54831 c 0.0138,0.19976 0.0659,1.05251 0.136,1.9304 l -0.517,0.0386 c -0.12488,-0.5715 -0.2495,-0.90276 -0.44,-1.09115 -0.1905,-0.19949 -0.57388,-0.26987 -1.19539,-0.26987 h -0.19526 c -0.44688,0 -0.46963,0 -0.46963,0.40825 v 2.26166 h 0.58525 c 1.00489,0 1.0459,-0.068 1.16153,-0.95726 h 0.508 v 2.75828 h -0.508 c -0.11563,-1.02526 -0.15664,-1.09564 -1.16153,-1.09564 h -0.58525 v 1.91003 c 0,0.60325 0.0228,0.90037 0.2405,1.00488 0.18151,0.0974 0.45588,0.10187 0.81439,0.10187 0.46964,0 0.98901,-0.0701 1.24539,-0.34475 0.1905,-0.21776 0.39476,-0.64188 0.5715,-1.20889 l 0.51726,0.0794 c -0.0611,0.576 -0.3085,1.77165 -0.41063,2.08677 h -5.95445 v -0.45138 c 0.88927,-0.0794 0.9824,-0.16113 0.9824,-1.42002 v -3.8653" />
    <path
       style="fill:#263c5e;stroke-width:0.26458332"
       inkscape:connector-curvature="0"
       id="path105"
       d="m 79.659653,-127.12705 h 1.50151 l -0.73924,-2.23652 h -0.0362 z m 1.48802,2.54503 0.34925,-0.0521 c 0.43788,-0.0566 0.45588,-0.17913 0.30162,-0.59876 l -0.41724,-1.19089 h -1.91665 l -0.35163,1.12263 c -0.16351,0.50588 -0.16351,0.62151 0.381,0.67839 l 0.34264,0.0408 v 0.45138 h -2.72891 v -0.45138 c 0.59663,-0.0839 0.77364,-0.13388 1.15914,-1.11601 l 2.34315,-6.05632 0.8075,-0.16113 0.79402,2.21165 c 0.5035,1.39039 1.00938,2.77866 1.45177,3.96505 0.3765,1.02288 0.58526,1.08188 1.16575,1.15676 v 0.45138 h -3.68141 v -0.45138" />
    <path
       style="fill:#fffffe;stroke-width:0.26458332"
       inkscape:connector-curvature="0"
       id="path107"
       d="m 39.421553,-29.915426 c 0,1.69201 -1.37001,3.05991 -3.06916,3.05991 -1.68302,0 -3.04853,-1.3679 -3.04853,-3.05991 0,-1.68989 1.36551,-3.06467 3.04853,-3.06467 1.69915,0 3.06916,1.37478 3.06916,3.06467" />
    <path
       style="fill:#fffffe;stroke-width:0.26458332"
       inkscape:connector-curvature="0"
       id="path109"
       d="m 70.484173,-24.822986 c 0,1.69439 -1.37901,3.0644 -3.06679,3.0644 -1.68778,0 -3.06229,-1.37001 -3.06229,-3.0644 0,-1.6854 1.37451,-3.06017 3.06229,-3.06017 1.68778,0 3.06679,1.37477 3.06679,3.06017" />
    <path
       style="fill:#fffffe;stroke-width:0.26458332"
       inkscape:connector-curvature="0"
       id="path111"
       d="m 52.925093,-246.15091 c 0,1.68751 -1.37239,3.06228 -3.06228,3.06228 -1.69466,0 -3.05991,-1.37477 -3.05991,-3.06228 0,-1.69678 1.36525,-3.06229 3.05991,-3.06229 1.68989,0 3.06228,1.36551 3.06228,3.06229" />
    <path
       style="fill:#fffffe;stroke-width:0.26458332"
       inkscape:connector-curvature="0"
       id="path113"
       d="m 125.80881,-217.48146 c -0.0749,1.68751 -1.50178,2.99852 -3.18929,2.92841 -1.69677,-0.0728 -3.00805,-1.49728 -2.93291,-3.18929 0.0656,-1.68989 1.49702,-2.99878 3.18453,-2.93079 1.69227,0.0725 3.00566,1.50389 2.93767,3.19167" />
    <path
       style="fill:#fffffe;stroke-width:0.26458332"
       inkscape:connector-curvature="0"
       id="path115"
       d="m -27.788957,-86.020316 c 1.17713,1.69439 1.77376,3.5044 1.76689,5.37818 0,2.14128 -0.71888,3.87879 -4.55031,6.53495 l -11.05588,7.87796 -2.03676,-2.93078 c 0,0 11.33025,-8.06609 11.50937,-8.19309 1.95528,-1.35202 2.79242,-2.33654 2.79242,-3.88805 0,-0.97976 -0.35375,-2.04603 -1.06389,-3.06441 -1.10702,-1.59702 -2.52915,-2.10502 -3.78804,-2.1119 -1.13427,0 -2.35241,0.79851 -4.53681,2.31378 l -10.39336,7.05908 -2.00078,-2.88078 9.89674,-6.70296 c 2.75166,-1.93251 4.94717,-3.25516 6.9842,-3.25516 2.97842,0.007 5.14244,1.93939 6.47621,3.86318" />
    <path
       style="fill:#fffffe;stroke-width:0.26458332"
       inkscape:connector-curvature="0"
       id="path117"
       d="m -63.127507,-107.6127 21.0365,-7.3787 1.1684,3.18928 -12.0359,14.710044 15.21143,-6.024564 1.13188,3.10515 -20.79836,7.986984 -1.16364,-3.18717 12.0949,-14.719044 -15.51543,5.42131 -1.12978,-3.10329" />
    <path
       style="fill:#fffffe;stroke-width:0.26458332"
       inkscape:connector-curvature="0"
       id="path119"
       d="m -66.275777,-124.36665 22.02312,-3.26866 0.51938,3.52742 -22.02101,3.26866 -0.52149,-3.52742" />
    <path
       style="fill:#fffffe;stroke-width:0.26458332"
       inkscape:connector-curvature="0"
       id="path121"
       d="m -66.926917,-150.91732 0.0908,-3.69306 21.9665,8.92599 -0.14737,3.66791 -22.57002,6.73471 0.0249,-3.70655 18.29885,-5.12868 -17.66358,-6.80032" />
    <path
       style="fill:#fffffe;stroke-width:0.26458332"
       inkscape:connector-curvature="0"
       id="path123"
       d="m -50.792367,-193.9817 c 1.30202,-2.3749 2.23653,-3.27078 3.6158,-3.26628 0.508,0 1.15464,0.1315 1.80552,0.48075 0.83476,0.46963 1.47214,1.23639 1.71026,2.06189 0.0931,0.31989 0.12938,0.64426 0.12938,0.96415 -0.0114,1.32027 -0.7485,2.64927 -1.52426,4.04442 l -0.44688,0.82338 -6.27645,-3.36629 z m 3.96505,-6.74608 c -3.15066,0.007 -4.60693,1.8079 -6.61908,5.43719 l -2.61303,4.68656 19.61648,10.63837 1.69677,-3.05991 -8.15684,-4.44817 0.47387,-0.88477 c 1.37927,-2.47915 1.84441,-2.85565 5.35331,-2.55852 l 6.34921,0.567 1.8124,-3.2983 -7.31997,-0.62362 c -1.47214,-0.13626 -2.63128,-0.24289 -3.57505,0.0318 -0.31062,0.0907 -0.68262,0.27887 -1.05013,0.53975 0.0863,-0.39925 0.23363,-0.78237 0.23813,-1.19089 0.007,-0.626 -0.0839,-1.24989 -0.27438,-1.81451 -0.41963,-1.3044 -1.35652,-2.36379 -2.76516,-3.14404 -1.05013,-0.5805 -2.10052,-0.87789 -3.16653,-0.87789" />
    <path
       style="fill:#fffffe;stroke-width:0.26458332"
       inkscape:connector-curvature="0"
       id="path125"
       d="m -22.467657,-232.19176 2.83765,-2.15715 13.5080396,17.69295 -2.83078,2.15953 -13.5149096,-17.69533" />
    <path
       style="fill:#fffffe;stroke-width:0.26458332"
       inkscape:connector-curvature="0"
       id="path127"
       d="m -10.236497,-240.87036 14.3970296,-7.4967 1.40626,2.70377 -5.59804998,2.91465 8.87570998,17.04896 -3.16441,1.64677 -8.8736,-17.04658 -5.64356,2.93291 -1.3993796,-2.70378" />
    <path
       style="fill:#fffffe;stroke-width:0.26458332"
       inkscape:connector-curvature="0"
       id="path129"
       d="m 25.689153,-255.1404 3.75179,-1.04563 -3.02127,14.89154 2.44739,8.46085 -3.39566,0.97525 -2.39316,-8.39046 -10.57037,-11.03101 3.66104,-1.06363 7.61021,7.92533 1.91003,-10.72224" />
    <path
       style="fill:#fffffe;stroke-width:0.26458332"
       inkscape:connector-curvature="0"
       id="path131"
       d="m 93.618803,-224.70379 11.305387,-19.18123 10.63386,6.26745 -1.54252,2.62678 -7.59883,-4.47992 -3.12341,5.3033 7.14746,4.21455 -1.50627,2.57228 -7.15434,-4.21217 -5.112537,8.6831 -3.0488,-1.79414" />
    <path
       style="fill:#fffffe;stroke-width:0.26458332"
       inkscape:connector-curvature="0"
       id="path133"
       d="m 150.82834,-175.10897 8.1026,-9.69963 1.261,3.84255 -6.03356,6.90271 8.96223,2.01877 1.19301,3.61342 -12.26264,-2.96466 -8.71035,10.44099 -1.2454,-3.77904 6.57834,-7.66445 -9.84012,-2.23891 -1.19089,-3.65204 13.18578,3.18029" />
    <path
       style="fill:#fffffe;stroke-width:0.26458332"
       inkscape:connector-curvature="0"
       id="path135"
       d="m 144.45664,-153.2311 22.19563,-1.81002 1.00277,12.31027 -3.03503,0.24262 -0.71914,-8.78284 -6.13119,0.50112 0.66463,8.27035 -2.96492,0.2405 -0.67574,-8.27273 -10.04438,0.82365 -0.29263,-3.52292" />
    <path
       style="fill:#fffffe;stroke-width:0.26458332"
       inkscape:connector-curvature="0"
       id="path137"
       d="m 156.02952,-116.4183 c -4.33917,0 -9.40224,-2.36353 -9.40224,-6.73233 0,-1.58802 0.54901,-3.70892 2.50428,-5.13344 1.32477,-0.96388 3.03742,-1.47426 4.96544,-1.47426 2.21165,0 6.19257,0.626 8.27934,3.50917 0.72364,0.98901 1.09114,2.14127 1.08215,3.36841 0,1.70815 -0.69639,3.7383 -2.52466,5.0583 -1.29513,0.93901 -2.99191,1.40415 -4.90431,1.40415 M 154.274,-133.381 c -2.57466,0 -4.93606,0.69188 -6.80958,2.05528 -3.35729,2.4294 -3.96504,5.92719 -3.96504,7.97533 0,7.52634 7.06596,10.53651 12.38276,10.53651 2.55191,0.007 4.88156,-0.69427 6.72121,-2.02116 3.75179,-2.71753 3.95579,-6.79582 3.95579,-8.11371 0,-6.57145 -6.03356,-10.43225 -12.28514,-10.43225" />
    <path
       style="fill:#fffffe;stroke-width:0.26458332"
       inkscape:connector-curvature="0"
       id="path139"
       d="m 137.88333,-189.35652 c -1.99416,0 -3.80206,-0.83926 -5.04269,-2.80379 -0.63289,-0.99563 -0.94351,-2.07989 -0.95726,-3.16865 -0.005,-2.51804 1.59014,-5.10143 4.50955,-6.95245 1.93252,-1.22714 3.82879,-1.83515 5.53006,-1.82166 2.14365,0 3.89017,0.94588 5.05381,2.77892 0.69188,1.08876 1.00727,2.2434 1.00727,3.39328 0,2.45904 -1.55628,4.8723 -4.38256,6.65295 -1.97115,1.26127 -3.96505,1.9214 -5.71818,1.9214 m 3.46366,-18.13295 c -2.24578,0 -4.63894,0.70987 -6.95272,2.17064 -4.27328,2.71515 -5.83856,6.60082 -5.83856,9.44324 0,1.83489 0.51038,3.63591 1.55602,5.28955 2.37516,3.7473 5.93619,4.66143 8.34072,4.65005 2.30002,-0.007 4.72731,-0.76887 7.01384,-2.22514 2.7559,-1.74202 5.81369,-4.98793 5.81369,-9.37948 0,-1.82377 -0.51488,-3.62029 -1.56977,-5.28294 -1.94866,-3.07366 -5.00169,-4.66592 -8.36322,-4.66592" />
    <path
       style="fill:#fffffe;stroke-width:0.26458332"
       inkscape:connector-curvature="0"
       id="path141"
       d="m 79.464393,-233.49378 c -1.6084,0 -3.94017,-0.78713 -5.24219,-3.16203 -0.62838,-1.15226 -0.91175,-2.54953 -0.91175,-3.9923 0,-3.9878 2.65853,-9.58374 7.51707,-9.58374 2.71992,0 6.13596,2.03015 6.13596,7.06147 0,3.20728 -2.25928,9.6766 -7.49909,9.6766 m 1.14538,-19.85698 c -4.64079,0 -8.6786,3.12817 -10.3116,8.6741 -0.3609,1.23164 -0.58526,2.44978 -0.58526,3.63617 0,2.22303 0.37623,3.9878 1.27926,5.65044 2.06401,3.76767 5.83194,5.05381 8.69685,5.05381 1.61713,0 3.17765,-0.372 4.60693,-1.15464 3.7584,-2.05264 6.23781,-6.82069 6.23781,-11.38238 0,-1.9849 -0.38338,-3.84942 -1.26127,-5.44856 -1.80789,-3.28004 -5.16255,-5.02894 -8.66272,-5.02894" />
    <path
       style="fill:#fffffe;stroke-width:0.26458332"
       inkscape:connector-curvature="0"
       id="path143"
       d="m -42.703517,-172.60707 2.98741,0.84614 -3.37291,12.22401 -21.54,-5.90232 3.67904,-12.36927 2.92629,0.82338 -2.71066,8.9146 5.94069,1.6309 2.29553,-8.09546 2.86728,0.81412 -2.28203,8.06636 6.71645,1.84626 2.49291,-8.79872" />
    <path
       style="fill:#fffffe;stroke-width:0.26458332"
       inkscape:connector-curvature="0"
       id="path145"
       d="m -37.059697,-219.12161 c 3.09616,-3.46366 6.25608,-3.23003 6.25608,-3.23003 l 0.54213,2.93978 c 0,0 -2.43629,0.0725 -4.34155,2.21827 -0.83264,0.93239 -1.25439,1.89865 -1.25439,2.77654 0,0.72813 0.28337,1.35413 0.84825,1.85764 1.54252,1.37689 4.17592,-0.15188 5.82269,-0.81201 1.26815,-0.52626 3.07155,-1.26127 4.88156,-1.26127 1.33826,0 2.73103,0.38338 4.0013,1.52003 1.4859,1.32239 2.2299,2.98503 2.2299,4.72942 0,1.88728 -0.74189,3.57267 -2.22091,5.22844 -2.83766,3.18029 -6.65744,3.52954 -6.65744,3.52954 l -0.75539,-2.98053 c 2.2524,-0.52176 3.95605,-1.38616 4.98131,-2.54291 0.81889,-0.90726 1.21814,-1.92802 1.21814,-2.82417 0,-0.83687 -0.35401,-1.62401 -1.03902,-2.23414 -0.56012,-0.50138 -1.23613,-0.67601 -1.97352,-0.66252 -1.42664,0 -3.1459,0.81677 -4.55242,1.40653 -2.71304,1.11813 -5.56208,2.01877 -8.11372,-0.26538 -1.29751,-1.16152 -1.9939,-2.62228 -1.9939,-4.24179 0,-1.71265 0.67813,-3.53404 2.1209,-5.15144" />
    <path
       style="fill:#fffffe;stroke-width:0.26458332"
       inkscape:connector-curvature="0"
       id="path147"
       d="m 151.69035,-91.369136 c -1.00939,0 -2.70616,-0.57388 -3.35254,-2.23652 -0.15875,-0.42201 -0.23151,-0.85064 -0.22701,-1.27926 0.0138,-1.22264 0.58976,-2.48629 1.18851,-3.81529 l 0.37677,-0.8554 6.42381,2.87628 -0.71913,1.71953 c -1.19539,2.71965 -1.98014,3.59066 -3.69041,3.59066 m -13.14265,-13.204034 8.41084,3.81079 -0.41513,0.946154 c -1.14327,2.58578 -1.58565,3.01228 -5.09455,3.03028 h -6.3717 l -1.52003,3.43667 7.34721,-0.0228 c 1.48802,0 2.64504,0 3.5478,-0.34925 0.30163,-0.11112 0.63289,-0.29501 0.93901,-0.54451 -0.018,0.186 -0.0794,0.37201 -0.0839,0.56489 -0.009,0.8165 0.14499,1.62851 0.44688,2.33627 1.0115,2.35003 3.76078,3.50467 5.75918,3.49779 3.54542,0 4.89744,-2.12302 6.62358,-6.02245 0.0635,-0.14287 2.06428,-4.77255 2.06428,-4.77255 l -20.24512,-9.111724 -1.40838,3.2004" />
    <path
       style="fill:#fffffe;stroke-width:0.26458332"
       inkscape:connector-curvature="0"
       id="path149"
       d="m 134.75966,-66.748596 c -1.77377,0 -3.43429,-0.67839 -5.16281,-2.05978 -1.7489,-1.39727 -3.61104,-3.58167 -3.61104,-6.36032 0,-1.93702 1.05013,-3.78143 2.66753,-5.80231 l 1.47214,-1.85553 12.71376,10.15762 -0.97075,1.21576 c -2.36115,2.95328 -3.96955,4.70456 -7.10883,4.70456 m -7.93459,-16.76294 c -2.30928,2.89216 -4.06268,5.47581 -4.06268,8.81247 0,2.83528 1.28403,6.06319 4.53893,8.65373 2.16403,1.73064 4.60481,2.66065 7.11571,2.66065 3.09641,0 5.58694,-0.92551 9.43636,-5.76395 l 3.51816,-4.42304 -17.39344,-13.88903 -3.15304,3.94917" />
    <path
       style="fill:#fffffe;stroke-width:0.26458332"
       inkscape:connector-curvature="0"
       id="path151"
       d="m 124.74915,-41.159686 c -20.71873,7.33134 -40.058447,6.82995 -56.556007,3.14404 0.53975,-7.36758 3.59278,-15.24317 8.24971,-16.7087 36.336547,-11.27125 62.803347,-45.14638 62.803347,-85.071484 0,-49.11619 -40.031457,-89.07065 -89.231787,-89.07065 -49.20456038,0 -89.23152,39.95446 -89.23152,89.07065 0,27.3177 12.75715,53.269624 34.2381396,70.093684 -5.0921696,2.24129 -9.4498596,5.8727 -12.5981296,10.37987 -1.6219,-1.10463 -3.19167,-2.2524 -4.64794,-3.44778 l -0.8165,0.80989 c 0.97525,1.17951 2.4884,2.72864 4.2963,4.46167 -2.64266,4.44605 -4.17618,9.63136 -4.17618,15.16829 0,0.8599 0.0545,1.70604 0.12938,2.54979 -31.96987,-23.29365 -50.96484,-60.330824 -50.96484,-100.015414 0,-68.24503 55.52652,-123.76467 123.77129,-123.76467 68.249797,0 123.767057,55.51964 123.767057,123.76467 0,39.08346 -17.86758,74.998004 -49.03232,98.636144 m -71.799447,29.21847 c -17.1032,0 -38.44819,-5.81819 -53.11272038,-14.47192 -4.43945002,-2.6199 -9.74275002,-7.49697 -9.74275002,-15.82631 0,-2.25002 0.44476,-4.40055 1.22264,-6.3717 5.47581,4.52094 11.13075,8.76935 14.68516,10.71113 0.81227,0.4445 1.28403,0.66675 2.23891,0.66675 2.2775304,0 4.1216804,-1.86002 4.1216804,-4.14867 0,-1.74202 -0.93927,-3.15992 -2.5090504,-3.84704 -3.03927,-1.32027 -9.38846998,-3.94706 -16.22292,-7.49009 3.16203,-4.1738 8.14572,-6.88446 13.75066,-6.88446 2.56328,0 5.0286704,0.54689 7.3313404,1.64015 l 4.69291,2.73341 c 14.90319,9.10273 53.24025,32.44612 99.536777,19.61198 -17.57495,15.8578 -39.217337,23.67677 -65.992637,23.67677 m 14.65818,10.41611 c -4.70482,0 -8.56324,3.32529 -8.56324,8.43598 0,4.99718 3.91081,8.42909 8.56324,8.42909 0.70088,0 1.37663,-0.118 2.02989,-0.28363 -0.97076,7.07284 -9.21624,14.99156 -19.83873,18.53909 -10.5365,-3.52478 -18.77271,-11.5025 -19.86147,-18.53909 0.65113,0.17013 1.32238,0.28363 2.02776,0.28363 5.07206,0 8.55848,-3.54303 8.55848,-8.42909 0,-4.66143 -3.65416,-8.31586 -8.37248,-8.4156 1.4314,-2.63578 2.81067,-5.43031 3.83355,-8.43598 5.84332,1.01865 11.60701,1.57427 16.96482,1.57427 4.39155,0 8.65611,-0.23812 12.82065,-0.66013 0.55351,2.41141 1.3679,4.93818 2.33865,7.54459 -0.16774,-0.0135 -0.33337,-0.0431 -0.50112,-0.0431 M 7.1069326,-68.667626 c 8.8032204,0 17.0304404,4.51168 21.8643804,11.74301 -4.23281,-1.07051 -8.37698,-2.47015 -12.43277,-4.19629 l -0.0114,0.0249 -0.12938,-0.0749 c -2.83528,-1.33588 -5.86793,-2.00978 -9.0164704,-2.00978 -7.00933998,0 -13.21091,3.43218 -17.04658,8.69236 -1.6128996,-0.89376 -3.2231496,-1.83277 -4.8042996,-2.8149 4.7407996,-6.85959 12.6415196,-11.36439 21.5764996,-11.36439 m 34.8324004,17.55458 c -1.09114,0.81439 -1.96427,1.78065 -2.58366,2.84215 -3.22553,-1.56051 -7.28371,-3.58616 -9.93536,-5.06968 3.75867,0.83027 8.65822,1.8804 12.51902,2.22753 m 27.09069,-1.6809 c -2.56567,3.65892 -4.08517,8.74448 -4.54131,13.88904 -8.08884,-2.08465 -15.43579,-4.88606 -21.83024,-7.80071 1.21126,-2.35691 4.70429,-4.02855 7.35594,-4.02855 6.52595,0 12.88415,-0.72601 19.01561,-2.05978 m -19.01561,-1.51738 c -5.46206,0 -10.85162,-0.52626 -16.12079,-1.53803 -5.08556,-9.97611 -15.51993,-16.40231 -26.7866904,-16.40231 -2.76516,0 -5.43507,0.41063 -7.97320998,1.10702 C -22.526677,-87.233956 -35.447077,-112.82313 -35.447077,-139.79582 c 0,-47.13578 38.3370596,-85.48422 85.46147,-85.48422 47.12256,0 85.457237,38.34844 85.457237,85.48422 0,47.129174 -38.334677,85.484504 -85.457237,85.484504 m -42.9074604,38.31192 c -14.47879,0 -26.2582996,-11.811 -26.2582996,-26.33081 0,-4.54792 1.16125,-8.83047 3.19378,-12.57326 1.34726,1.22952 2.79241,2.49978 4.29842,3.78592 -1.27926,2.70378 -2.01189,5.70019 -2.01189,8.8781 0,7.89622 3.9809196,14.41979 11.5231296,18.86796 4.3233,2.55191 9.22523,4.85669 14.4174104,6.86859 -1.69227,0.33337 -3.4070404,0.5035 -5.1625504,0.5035 M 177.56051,-139.79583 c 0,-70.22068 -57.21852,-127.34183 -127.546097,-127.34183 -70.32254,0 -127.53446,57.12115 -127.53446,127.34183 0,42.120614 20.79599,81.383194 55.64902,105.175854 3.42953,12.76164 15.0955396,22.20462 28.9779596,22.20462 3.7518004,0 7.3900804,-0.71437 10.8516204,-2.04814 4.66355,1.53565 9.48849,2.81702 14.29491,3.80154 -1.35175,3.86979 -3.33216,7.53771 -5.21467,10.71112005 0,0 0.0452,-0.0114 0.11086,-0.0249 -0.0408,0.0249 -0.0794,0.0431 -0.11086,0.0635 l 2.65165,2.65853995 c 0.68475,-0.37201 1.44701,-0.59902 2.27489,-0.59902 2.62017,0 4.75668,2.13466 4.75668,4.76356 0,2.62228 -2.13651,4.76118 -4.75668,4.76118 -2.29552,0 -4.3098,-1.46765 -5.35543,-3.04404 0,0 -0.62362,2.14816 -0.62362,4.96994 -0.0161,9.14823 9.96685,19.59821 23.81276,23.99665 13.84353,-4.3008 23.82414,-14.82355 23.81965,-23.98316 0,-3.15066 -0.62812,-4.98343 -0.62812,-4.98343 -1.06389,1.27926 -2.78104,3.04404 -5.38269,3.04404 -2.62678,0 -4.75906,-2.1389 -4.75906,-4.76118 0,-2.6289 2.13228,-4.76356 4.75906,-4.76356 0.91625,0 1.76239,0.26988 2.49952,0.72813 l 2.57678,-2.58126995 c 0.0635,0.0204 0.0976,0.0249 0.0976,0.0249 -1.45627,-3.48403005 -2.52466,-6.68708005 -3.24591,-9.76974005 22.93038,-3.08478 42.281477,-12.79102 57.669907,-28.96658 l -0.0135,-0.0135 c 32.013,-24.32103 50.3682,-61.2222 50.3682,-101.365054" />
  </g>
</svg>
