<svg xmlns="http://www.w3.org/2000/svg" viewBox="0 0 850 500" xml:space="preserve">
  <style>
    .st7{fill:none;stroke:#a1afbf;stroke-miterlimit:10}.st14{fill:#fff}
  </style>
  <g id="Animal_Charity"/>
  <g id="Population_Ethics_8"/>
  <g id="Population_Ethics_7"/>
  <g id="Population_Ethics_6"/>
  <g id="Population_Ethics_5">
    <path style="fill:#efe1e1;stroke:#000;stroke-miterlimit:10" d="M656.5 194.5h42v127h-42z"/>
    <linearGradient id="SVGID_1_" gradientUnits="userSpaceOnUse" x1="95.5" y1="168.5" x2="521.5" y2="168.5">
      <stop offset=".249" style="stop-color:#e2e9f2"/>
      <stop offset=".296" style="stop-color:#eef2f7"/>
      <stop offset=".343" style="stop-color:#fff"/>
      <stop offset=".657" style="stop-color:#fff"/>
      <stop offset=".706" style="stop-color:#f0f4f8"/>
      <stop offset=".765" style="stop-color:#e2e9f2"/>
    </linearGradient>
    <path style="fill:url(#SVGID_1_);stroke:#000;stroke-miterlimit:10" d="M95.5 140.5h426v56h-426z"/>
    <path class="st14" d="M341.5 122.5h12v18h-12z"/>
    <path class="st14" d="M353 123v17h-11v-17zm1-1h-13v19h13zm-64.5.5h12v18h-12z"/>
    <path class="st14" d="M301 123v17h-11v-17zm1-1h-13v19h13zm12.5.5h12v18h-12z"/>
    <path class="st14" d="M326 123v17h-11v-17zm1-1h-13v19h13zm-64.5.5h12v18h-12z"/>
    <path class="st14" d="M274 123v17h-11v-17zm1-1h-13v19h13z"/>
    <path class="st7" d="M57 196.5h511m51-2h114"/>
    <path style="fill:none;stroke:#c6d0db;stroke-miterlimit:10" d="M595.5 67v366"/>
    <path d="m304.17 392.4-2.52 7.63h-3.24l8.24-24.26h3.78l8.28 24.26h-3.35l-2.59-7.63zm7.96-2.44-2.38-6.98c-.54-1.58-.9-3.02-1.26-4.43h-.07c-.36 1.44-.76 2.92-1.22 4.39l-2.38 7.02zm357.99-13.86c1.37-.29 3.53-.5 5.72-.5 3.13 0 5.15.54 6.66 1.76 1.26.94 2.02 2.38 2.02 4.28 0 2.34-1.55 4.39-4.1 5.33v.07c2.3.58 5 2.48 5 6.08 0 2.09-.83 3.67-2.05 4.86-1.69 1.55-4.43 2.27-8.39 2.27-2.16 0-3.82-.14-4.86-.29zm3.13 9.93h2.84c3.31 0 5.25-1.73 5.25-4.07 0-2.84-2.16-3.96-5.33-3.96-1.44 0-2.27.11-2.77.22v7.81zm0 11.63c.61.11 1.51.14 2.63.14 3.24 0 6.23-1.19 6.23-4.72 0-3.31-2.84-4.68-6.26-4.68h-2.59v9.26z"/>
    <path class="st7" d="M63 103.5h2"/>
    <path style="fill:none;stroke:#a1afbf;stroke-miterlimit:10;stroke-dasharray:4.0058,4.0058" d="M69.01 103.5H748"/>
    <path class="st7" d="M750 103.5h2"/>
    <path style="fill:none" d="M759.35 93.7H792v40.38h-32.65z"/>
    <path d="M770.42 98.81c-.11 1.15-.29 4.91-.29 7.83 0 1.29.32 1.83 1.09 1.86l-.16 1.43c-.14.07-.45.09-.68.09-.97 0-1.77-.63-1.88-2.31h-.07c-.72 1.31-1.99 2.31-3.73 2.31-2.6 0-4.48-2.17-4.48-5.5 0-3.58 2.35-5.95 4.89-5.95 1.58 0 2.78.81 3.37 2.19h.09c.04-.86.11-1.4.2-1.95zm-5.23 9.62c1.38 0 2.58-1.34 2.92-2.78.11-.5.14-.93.14-1.54 0-.43 0-.79-.09-1.18-.27-1.47-1.36-2.81-2.81-2.81-1.86 0-3.12 1.83-3.12 4.32-.01 2.09 1.06 3.99 2.96 3.99"/>
  </g>
  <g id="Population_Ethics_4"/>
  <g id="Population_Ethics_3"/>
  <g id="Population_Ethics_2"/>
  <g id="Population_Ethics_1"/>
</svg>
