<svg xmlns="http://www.w3.org/2000/svg" viewBox="0 0 850 500" xml:space="preserve">
  <style>
    .st3{fill:none}
  </style>
  <g id="Animal_Charity"/>
  <g id="Population_Ethics_8"/>
  <g id="Population_Ethics_7"/>
  <g id="Population_Ethics_6"/>
  <g id="Population_Ethics_5"/>
  <g id="Population_Ethics_4"/>
  <g id="Population_Ethics_3"/>
  <g id="Population_Ethics_2"/>
  <g id="Population_Ethics_1">
    <path d="M195.5 104.5h108v269h-108zm249 135h214v134h-214z" style="fill:#e2e9f2;stroke:#000;stroke-miterlimit:10"/>
    <path d="M399 373.5h343m-639 0h255" style="stroke-miterlimit:10;fill:none;stroke:#a1afbf"/>
    <path style="fill:none;stroke:#c6d0db;stroke-miterlimit:10" d="M378.5 55v389"/>
    <path d="m243.64 424.58-2.52 7.63h-3.24l8.24-24.26h3.78l8.28 24.26h-3.35l-2.59-7.63zm7.96-2.45-2.38-6.98c-.54-1.58-.9-3.02-1.26-4.43h-.07c-.36 1.44-.76 2.92-1.22 4.39l-2.38 7.02zm288.11-13.85c1.37-.29 3.53-.5 5.72-.5 3.13 0 5.15.54 6.66 1.76 1.26.94 2.02 2.38 2.02 4.28 0 2.34-1.55 4.39-4.1 5.33v.07c2.3.58 5 2.48 5 6.08 0 2.09-.83 3.67-2.05 4.86-1.69 1.55-4.43 2.27-8.39 2.27-2.16 0-3.82-.14-4.86-.29zm3.14 9.93h2.84c3.31 0 5.25-1.73 5.25-4.07 0-2.84-2.16-3.96-5.33-3.96-1.44 0-2.27.11-2.77.22v7.81zm0 11.63c.61.11 1.51.14 2.63.14 3.24 0 6.23-1.19 6.23-4.72 0-3.31-2.84-4.68-6.26-4.68h-2.59v9.26z"/>
    <path class="st3" d="M99.13 327.05h82.27v30.25H99.13z"/>
    <path d="M119.29 341.76c1.01.7 1.94 1.21 2.8 1.53l-.64 1.52c-1.18-.43-2.36-1.1-3.54-2.02-1.22.68-2.57 1.02-4.04 1.02q-2.235 0-4.05-1.08c-1.815-1.08-2.15-1.73-2.8-3.03s-.98-2.77-.98-4.4q0-2.43.99-4.44c.66-1.33 1.6-2.35 2.81-3.04 1.22-.7 2.58-1.04 4.08-1.04q2.28 0 4.11 1.08t2.79 3.03c.64 1.3.96 2.76.96 4.4 0 1.36-.21 2.57-.62 3.66a7.6 7.6 0 0 1-1.87 2.81m-4.79-2.79c1.26.35 2.29.88 3.11 1.57 1.28-1.17 1.92-2.92 1.92-5.27 0-1.33-.23-2.5-.68-3.49-.45-1-1.12-1.77-1.99-2.32s-1.85-.83-2.94-.83c-1.62 0-2.97.56-4.04 1.67s-1.61 2.77-1.61 4.98c0 2.14.53 3.79 1.59 4.93s2.41 1.72 4.06 1.72c.78 0 1.51-.15 2.2-.44-.68-.44-1.4-.76-2.16-.94zm8.41 12.21 3.69-9.6h1.37l3.93 9.6h-1.45l-1.12-2.91h-4.01l-1.05 2.91zm2.77-3.94h3.25l-1-2.66c-.3-.81-.53-1.47-.68-1.99-.12.62-.29 1.23-.52 1.83zm18.35-13.4h-10.87v-1.89h10.87zm0 5h-10.87v-1.89h10.87zm14.45 4.68h-2.02v-12.88c-.49.46-1.12.93-1.92 1.39-.79.46-1.5.81-2.13 1.04v-1.95c1.13-.53 2.12-1.18 2.96-1.93.85-.76 1.44-1.49 1.8-2.2h1.3v16.53zm5.18-8.12c0-1.95.2-3.51.6-4.7s1-2.1 1.79-2.75 1.78-.97 2.98-.97c.88 0 1.66.18 2.33.53.67.36 1.22.87 1.65 1.54s.78 1.49 1.02 2.45.37 2.26.37 3.89c0 1.93-.2 3.49-.59 4.68-.4 1.19-.99 2.1-1.78 2.75s-1.79.97-2.99.97c-1.59 0-2.83-.57-3.74-1.71-1.1-1.35-1.64-3.58-1.64-6.68m2.07 0c0 2.7.32 4.5.95 5.4.63.89 1.41 1.34 2.34 1.34q1.395 0 2.34-1.35c.945-1.35.95-2.7.95-5.39 0-2.71-.32-4.51-.95-5.4s-1.42-1.34-2.36-1.34c-.93 0-1.67.39-2.22 1.18-.7 1.01-1.05 2.86-1.05 5.56"/>
    <path class="st3" d="M663.96 327.01h82.27v30.25h-82.27z"/>
    <path d="M690.52 341.72c1.01.7 1.94 1.21 2.8 1.53l-.64 1.52c-1.18-.43-2.36-1.1-3.54-2.02-1.22.68-2.57 1.02-4.04 1.02q-2.235 0-4.05-1.08c-1.815-1.08-2.15-1.73-2.8-3.03s-.98-2.77-.98-4.4q0-2.43.99-4.44c.66-1.33 1.6-2.35 2.81-3.04 1.22-.7 2.58-1.04 4.08-1.04q2.28 0 4.11 1.08t2.79 3.03c.64 1.3.96 2.76.96 4.4 0 1.36-.21 2.57-.62 3.66a7.9 7.9 0 0 1-1.87 2.81m-4.8-2.79c1.26.35 2.29.88 3.11 1.57 1.28-1.17 1.92-2.92 1.92-5.27 0-1.33-.23-2.5-.68-3.49-.45-1-1.12-1.77-1.99-2.32s-1.85-.83-2.94-.83c-1.62 0-2.97.56-4.04 1.67s-1.61 2.77-1.61 4.98c0 2.14.53 3.79 1.59 4.93 1.06 1.15 2.41 1.72 4.06 1.72.78 0 1.51-.15 2.2-.44-.68-.44-1.4-.76-2.16-.94zm9.42 12.21v-9.6h3.6c.73 0 1.32.1 1.76.29s.79.49 1.04.9c.25.4.38.83.38 1.27 0 .41-.11.8-.33 1.16s-.56.66-1.01.88c.58.17 1.03.46 1.34.87s.47.9.47 1.45c0 .45-.09.87-.28 1.25-.19.39-.42.68-.7.89s-.63.37-1.05.47c-.42.11-.94.16-1.55.16h-3.67zm1.27-5.57h2.08c.56 0 .97-.04 1.21-.11.32-.1.57-.25.73-.48.16-.22.25-.5.25-.84 0-.32-.08-.6-.23-.84s-.37-.41-.65-.5-.77-.13-1.46-.13h-1.92v2.9zm0 4.44h2.39c.41 0 .7-.01.86-.05.29-.05.54-.14.73-.26s.36-.3.48-.53c.13-.23.19-.5.19-.81 0-.36-.09-.67-.28-.93-.18-.26-.44-.45-.76-.56-.33-.11-.79-.16-1.4-.16h-2.22v3.3zm18.84-16.21h-10.87v-1.89h10.87zm0 5h-10.87v-1.89h10.87zm6.84.37 2.12-.18c.16 1.03.52 1.81 1.09 2.33q.855.78 2.07.78c.97 0 1.8-.37 2.47-1.1s1.01-1.71 1.01-2.92c0-1.15-.32-2.06-.97-2.73s-1.5-1-2.54-1c-.65 0-1.24.15-1.76.44-.52.3-.94.68-1.24 1.15l-1.9-.25 1.59-8.46h8.19v1.93h-6.57l-.89 4.42c.99-.69 2.03-1.03 3.11-1.03 1.44 0 2.65.5 3.64 1.49.99 1 1.48 2.28 1.48 3.84 0 1.49-.43 2.78-1.3 3.86-1.06 1.33-2.5 2-4.32 2-1.5 0-2.72-.42-3.67-1.26-.94-.82-1.48-1.93-1.61-3.31"/>
    <path class="st3" d="M195.34 73.74h108.32v44.31H195.34z"/>
    <path d="M210.27 90.21V73.74h2.24l8.65 12.93V73.74h2.09V90.2h-2.24l-8.65-12.94V90.2h-2.09zm14.84 7.66 3.69-9.6h1.37l3.93 9.6h-1.45l-1.12-2.91h-4.01l-1.05 2.91zm2.77-3.95h3.25l-1-2.66c-.31-.81-.53-1.47-.68-1.99-.12.62-.29 1.23-.52 1.83zm18.35-13.39h-10.87v-1.89h10.87zm0 4.99h-10.87v-1.89h10.87zm14.44 4.69h-2.02V77.32c-.49.46-1.12.93-1.91 1.39s-1.5.81-2.13 1.04V77.8c1.13-.53 2.12-1.18 2.96-1.93.85-.76 1.45-1.49 1.8-2.2h1.3zm5.18-8.12c0-1.95.2-3.51.6-4.7s1-2.1 1.79-2.75c.79-.64 1.78-.97 2.98-.97.88 0 1.66.18 2.32.53.67.36 1.22.87 1.65 1.54s.77 1.49 1.02 2.45.37 2.26.37 3.89q0 2.895-.6 4.68c-.4 1.19-.99 2.1-1.78 2.75s-1.79.97-2.99.97c-1.59 0-2.83-.57-3.74-1.71-1.07-1.36-1.62-3.59-1.62-6.68m2.08 0c0 2.7.32 4.5.95 5.4s1.41 1.34 2.34 1.34q1.395 0 2.34-1.35c.63-.9.95-2.7.95-5.39 0-2.71-.32-4.51-.95-5.4s-1.42-1.34-2.36-1.34c-.93 0-1.67.39-2.22 1.18-.7 1-1.05 2.85-1.05 5.56m10.71 0c0-1.95.2-3.51.6-4.7s1-2.1 1.79-2.75 1.78-.97 2.98-.97c.88 0 1.66.18 2.33.53.67.36 1.22.87 1.65 1.54s.78 1.49 1.02 2.45c.25.96.37 2.26.37 3.89 0 1.93-.2 3.49-.59 4.68-.4 1.19-.99 2.1-1.78 2.75s-1.79.97-2.99.97c-1.59 0-2.83-.57-3.74-1.71-1.09-1.36-1.64-3.59-1.64-6.68m2.08 0c0 2.7.32 4.5.95 5.4s1.41 1.34 2.34 1.34q1.395 0 2.34-1.35c.945-1.35.95-2.7.95-5.39 0-2.71-.32-4.51-.95-5.4s-1.42-1.34-2.36-1.34c-.93 0-1.67.39-2.22 1.18-.7 1-1.05 2.85-1.05 5.56"/>
    <path class="st3" d="M476.67 207.83h149.08v29.85H476.67z"/>
    <path d="M511.98 224.3v-16.46h2.24l8.65 12.93v-12.93h2.09v16.46h-2.24l-8.65-12.94v12.94zm15.84 7.66v-9.6h3.6c.73 0 1.32.1 1.76.29s.79.49 1.04.9c.25.4.38.83.38 1.27 0 .41-.11.8-.33 1.16s-.56.66-1.01.88c.58.17 1.03.46 1.34.87s.47.9.47 1.45c0 .45-.09.87-.28 1.25-.19.39-.42.68-.7.89s-.63.37-1.05.47c-.42.11-.94.16-1.55.16h-3.67zm1.27-5.57h2.08c.56 0 .97-.04 1.21-.11.32-.1.57-.25.73-.48.16-.22.25-.5.25-.84 0-.32-.08-.6-.23-.84s-.37-.41-.65-.5-.77-.13-1.46-.13h-1.92v2.9zm0 4.43h2.39c.41 0 .7-.01.86-.05.29-.05.54-.14.73-.26s.36-.3.48-.53c.13-.23.19-.5.19-.81 0-.36-.09-.67-.28-.93-.18-.26-.44-.45-.76-.56-.33-.11-.79-.16-1.4-.16h-2.22v3.3zm18.84-16.2h-10.87v-1.89h10.87zm0 4.99h-10.87v-1.89h10.87zm17.46 2.74v1.94h-10.88c-.02-.49.06-.96.24-1.4.28-.74.72-1.47 1.33-2.19s1.49-1.55 2.64-2.49c1.79-1.47 3-2.63 3.63-3.49s.94-1.67.94-2.43c0-.8-.29-1.48-.86-2.03s-1.32-.83-2.24-.83c-.97 0-1.75.29-2.34.88s-.88 1.39-.89 2.43l-2.08-.21c.14-1.55.68-2.73 1.61-3.54s2.17-1.22 3.74-1.22c1.58 0 2.83.44 3.75 1.31s1.38 1.96 1.38 3.26c0 .66-.13 1.31-.4 1.94-.27.64-.72 1.31-1.34 2.01s-1.66 1.67-3.12 2.9q-1.815 1.53-2.34 2.07c-.34.36-.63.73-.85 1.09zm2.17-6.17c0-1.95.2-3.51.6-4.7s1-2.1 1.79-2.75c.79-.64 1.78-.97 2.98-.97.88 0 1.66.18 2.32.53.67.36 1.22.87 1.65 1.54s.77 1.49 1.02 2.45.37 2.26.37 3.89q0 2.895-.6 4.68c-.4 1.19-.99 2.1-1.78 2.75s-1.79.97-2.99.97c-1.59 0-2.83-.57-3.74-1.71-1.08-1.36-1.62-3.59-1.62-6.68m2.08 0c0 2.7.32 4.5.95 5.4s1.41 1.34 2.34 1.34q1.395 0 2.34-1.35c.63-.9.95-2.7.95-5.39 0-2.71-.32-4.51-.95-5.4s-1.42-1.34-2.36-1.34c-.93 0-1.67.39-2.22 1.18-.71 1-1.05 2.86-1.05 5.56m10.71 0c0-1.95.2-3.51.6-4.7s1-2.1 1.79-2.75 1.78-.97 2.98-.97c.88 0 1.66.18 2.33.53.67.36 1.22.87 1.65 1.54s.78 1.49 1.02 2.45c.25.96.37 2.26.37 3.89 0 1.93-.2 3.49-.59 4.68-.4 1.19-.99 2.1-1.78 2.75s-1.79.97-2.99.97c-1.59 0-2.83-.57-3.74-1.71-1.1-1.36-1.64-3.59-1.64-6.68m2.08 0c0 2.7.32 4.5.95 5.4.63.89 1.41 1.34 2.34 1.34q1.395 0 2.34-1.35c.945-1.35.95-2.7.95-5.39 0-2.71-.32-4.51-.95-5.4s-1.42-1.34-2.36-1.34c-.93 0-1.67.39-2.22 1.18-.7 1-1.05 2.86-1.05 5.56"/>
  </g>
</svg>
