<svg xmlns="http://www.w3.org/2000/svg" viewBox="0 0 483 254" xml:space="preserve"><style>.st7{fill:none;stroke:#a1afbf;stroke-miterlimit:10}</style><g id="Animal_Charity"/><g id="Population_Ethics_8"><path style="fill:#e2e9f2;stroke:#000;stroke-miterlimit:10" d="M27.5 19.5h236v158h-236z"/><path transform="rotate(-180 309.5 185.5)" style="fill:#efe1e1;stroke:#000;stroke-miterlimit:10" d="M281.5 177.5h56v16h-56z"/><path class="st7" d="M15.5 177.5h346"/><path style="fill:none;stroke:#c6d0db;stroke-miterlimit:10" d="M374.5 9.5V245"/><path d="m164.08 222.52-2.52 7.63h-3.24l8.24-24.26h3.78l8.28 24.26h-3.35l-2.59-7.63zm7.95-2.45-2.38-6.98c-.54-1.58-.9-3.02-1.26-4.43h-.07c-.36 1.44-.76 2.92-1.22 4.39l-2.38 7.02z"/><path class="st7" d="M388 177.5h80.5"/><path d="M423.15 206.22c1.37-.29 3.53-.5 5.72-.5 3.13 0 5.15.54 6.66 1.76 1.26.94 2.02 2.38 2.02 4.28 0 2.34-1.55 4.39-4.1 5.33v.07c2.3.58 5 2.48 5 6.08 0 2.09-.83 3.67-2.05 4.86-1.69 1.55-4.43 2.27-8.39 2.27-2.16 0-3.82-.14-4.86-.29zm3.13 9.93h2.84c3.31 0 5.26-1.73 5.26-4.07 0-2.84-2.16-3.96-5.33-3.96-1.44 0-2.27.11-2.77.21zm0 11.63c.61.11 1.51.14 2.63.14 3.24 0 6.23-1.19 6.23-4.71 0-3.31-2.84-4.68-6.26-4.68h-2.59v9.25z"/></g><g id="Population_Ethihcs_7"/><g id="population6"/><g id="Population_Ethics_6"/><g id="Population_Ethics_5"/><g id="Population_Ethics_4"/><g id="Population_Ethics_3"/><g id="Population_Ethics_2"/><g id="Population_Ethics_1"/></svg>