<svg xmlns="http://www.w3.org/2000/svg" viewBox="0 0 533 339" xml:space="preserve"><style>.st5,.st7,.st8{fill:#e2e9f2;stroke:#000;stroke-miterlimit:10}.st7,.st8{fill:none;stroke:#a1afbf}.st8{stroke:#c6d0db}</style><g id="Animal_Charity"/><g id="Population_Ethics_8"/><g id="Population_Ethihcs_7"/><g id="population6"/><g id="Population_Ethics_6"/><g id="Population_Ethics_5"/><g id="Population_Ethics_4"/><g id="Population_Ethics_3"><path class="st5" d="M42.5 59.5h82v205h-82z"/><path class="st7" d="M16 264.5h138"/><path class="st8" d="M164.5 22v296"/><path class="st5" d="M270.5 122.5h29v142h-29z"/><path d="m80.44 300.57-2.52 7.63h-3.24l8.24-24.26h3.78l8.28 24.26h-3.35l-2.59-7.63zm7.95-2.45-2.38-6.98c-.54-1.58-.9-3.02-1.26-4.43h-.07c-.36 1.44-.76 2.92-1.22 4.39l-2.38 7.02z"/><path class="st5" d="M409.5 91.5h82v173h-82z"/><path class="st7" d="M376 264.5h140"/><path d="M443.51 284.26c1.37-.29 3.53-.5 5.72-.5 3.13 0 5.15.54 6.66 1.76 1.26.94 2.02 2.38 2.02 4.28 0 2.34-1.55 4.39-4.1 5.33v.07c2.3.58 5 2.48 5 6.08 0 2.09-.83 3.67-2.05 4.86-1.69 1.55-4.43 2.27-8.39 2.27-2.16 0-3.82-.14-4.86-.29zm3.14 9.94h2.84c3.31 0 5.26-1.73 5.26-4.07 0-2.84-2.16-3.96-5.33-3.96-1.44 0-2.27.11-2.77.22zm0 11.62c.61.11 1.51.14 2.63.14 3.24 0 6.23-1.19 6.23-4.72 0-3.31-2.84-4.68-6.26-4.68h-2.59v9.26z"/><path class="st8" d="M364.5 22v296"/><path class="st5" d="M218.5 59.5h29v205h-29z"/><path class="st7" d="M176 264.5h177"/><path style="fill:none" d="M233.03 278.07H299V318h-65.97z"/><path d="m250.93 300.57-2.52 7.63h-3.24l8.24-24.26h3.78l8.28 24.26h-3.35l-2.59-7.63zm7.96-2.45-2.38-6.98c-.54-1.58-.9-3.02-1.26-4.43h-.07c-.36 1.44-.76 2.92-1.22 4.39l-2.38 7.02zm19.29-9.07v8.46h8.14v2.16h-8.14v8.53h-2.3v-8.53h-8.13v-2.16h8.13v-8.46z"/></g><g id="Population_Ethics_2"/><g id="Population_Ethics_1"/></svg>