<svg xmlns="http://www.w3.org/2000/svg" viewBox="0 0 512 322" xml:space="preserve"><style>.st3{fill:none}</style><g id="Animal_Charity"/><g id="Population_Ethics_8"/><g id="Population_Ethihcs_7"/><g id="population6"/><g id="Population_Ethics_6"/><g id="Population_Ethics_5"/><g id="Population_Ethics_4"/><g id="Population_Ethics_3"/><g id="Population_Ethics_2"/><g id="Population_Ethics_1"><path d="M84.5 52.5h82v205h-82zm189 103h163v102h-163z" style="fill:#e2e9f2;stroke:#000;stroke-miterlimit:10"/><path d="M239 257.5h261m-486 0h194" style="stroke-miterlimit:10;fill:none;stroke:#a1afbf"/><path style="fill:none;stroke:#c6d0db;stroke-miterlimit:10" d="M223.5 15v296"/><path d="m122.94 294-2.52 7.63h-3.24l8.24-24.26h3.78l8.28 24.26h-3.35l-2.59-7.63zm7.95-2.45-2.38-6.98c-.54-1.58-.9-3.02-1.26-4.43h-.07c-.36 1.44-.76 2.92-1.22 4.39l-2.38 7.02zm216.32-13.16c1.37-.29 3.53-.5 5.72-.5 3.13 0 5.15.54 6.66 1.76 1.26.94 2.02 2.38 2.02 4.28 0 2.34-1.55 4.39-4.1 5.33v.07c2.3.58 5 2.48 5 6.08 0 2.09-.83 3.67-2.05 4.86-1.69 1.55-4.43 2.27-8.39 2.27-2.16 0-3.82-.14-4.86-.29zm3.13 9.93h2.84c3.31 0 5.26-1.73 5.26-4.07 0-2.84-2.16-3.96-5.33-3.96-1.44 0-2.27.11-2.77.22zm0 11.63c.61.11 1.51.14 2.63.14 3.24 0 6.23-1.19 6.23-4.72 0-3.31-2.84-4.68-6.26-4.68h-2.59v9.26z"/><path class="st3" d="M11.42 221.99H74V245H11.42z"/><path d="M26.3 233.5q1.185.81 2.19 1.2l-.5 1.19c-.93-.33-1.85-.86-2.77-1.58-.96.53-2.01.8-3.16.8-1.17 0-2.22-.28-3.17-.84s-1.68-1.35-2.19-2.37-.77-2.17-.77-3.45c0-1.27.26-2.43.77-3.47s1.25-1.84 2.2-2.38 2.02-.82 3.19-.82c1.19 0 2.26.28 3.22.85a5.55 5.55 0 0 1 2.18 2.37c.5 1.02.75 2.16.75 3.44 0 1.06-.16 2.01-.48 2.86s-.81 1.57-1.46 2.2m-3.76-2.18c.98.28 1.8.69 2.43 1.23 1-.91 1.5-2.29 1.5-4.12 0-1.04-.18-1.95-.53-2.73s-.87-1.38-1.56-1.82c-.68-.43-1.45-.65-2.3-.65-1.27 0-2.33.43-3.16 1.31q-1.26 1.305-1.26 3.9c0 1.68.41 2.96 1.24 3.86s1.89 1.34 3.18 1.34c.61 0 1.18-.11 1.72-.34-.53-.35-1.1-.59-1.69-.74zm6.59 9.55 2.88-7.51h1.07l3.07 7.51h-1.13l-.88-2.28H31l-.83 2.28zm2.16-3.09h2.55l-.78-2.08c-.24-.63-.42-1.15-.53-1.56-.1.48-.23.96-.4 1.43zm14.36-10.48h-8.51v-1.48h8.51zm0 3.91h-8.51v-1.48h8.51zm11.31 3.67h-1.58V224.8c-.38.36-.88.73-1.5 1.09s-1.17.64-1.67.82v-1.53c.88-.42 1.66-.92 2.32-1.51s1.13-1.17 1.41-1.72h1.02zm4.05-6.36c0-1.52.16-2.75.47-3.68s.78-1.64 1.4-2.15 1.4-.76 2.33-.76c.69 0 1.3.14 1.82.42s.95.68 1.29 1.2c.34.53.61 1.16.8 1.92.19.75.29 1.77.29 3.05 0 1.51-.16 2.73-.47 3.66s-.77 1.65-1.39 2.15c-.62.51-1.4.76-2.34.76-1.24 0-2.22-.45-2.93-1.34-.84-1.06-1.27-2.81-1.27-5.23m1.63 0c0 2.12.25 3.52.74 4.22s1.11 1.05 1.83 1.05 1.34-.35 1.83-1.05.74-2.11.74-4.22c0-2.12-.25-3.53-.74-4.23s-1.11-1.05-1.85-1.05c-.73 0-1.31.31-1.74.92-.54.8-.81 2.25-.81 4.36"/><path class="st3" d="M441.07 221.95h62.58v23.01h-62.58z"/><path d="M460.95 233.46q1.185.81 2.19 1.2l-.5 1.19c-.93-.33-1.85-.86-2.77-1.58-.96.53-2.01.8-3.16.8-1.17 0-2.22-.28-3.17-.84s-1.68-1.35-2.19-2.37-.77-2.17-.77-3.45c0-1.27.26-2.43.77-3.47s1.25-1.84 2.2-2.38 2.02-.82 3.19-.82c1.19 0 2.26.28 3.22.85a5.55 5.55 0 0 1 2.18 2.37c.5 1.02.75 2.16.75 3.44 0 1.06-.16 2.01-.48 2.86s-.81 1.57-1.46 2.2m-3.75-2.18c.98.28 1.8.69 2.43 1.23 1-.91 1.5-2.29 1.5-4.12 0-1.04-.18-1.95-.53-2.73s-.87-1.38-1.56-1.82c-.68-.43-1.45-.65-2.3-.65-1.27 0-2.33.43-3.16 1.31q-1.26 1.305-1.26 3.9c0 1.68.41 2.96 1.24 3.86s1.89 1.34 3.18 1.34c.61 0 1.18-.11 1.72-.34-.53-.35-1.1-.59-1.69-.74zm7.37 9.56v-7.51h2.82c.57 0 1.03.08 1.38.23s.62.39.81.7c.2.32.29.65.29.99 0 .32-.09.62-.26.91-.17.28-.44.51-.79.69.45.13.8.36 1.05.68.24.32.37.7.37 1.14 0 .35-.07.68-.22.98s-.33.54-.55.7-.49.29-.82.37-.73.13-1.21.13h-2.87zm.99-4.36h1.62c.44 0 .76-.03.95-.09.25-.08.44-.2.57-.37s.19-.39.19-.66q0-.375-.18-.66c-.18-.285-.29-.32-.51-.39s-.6-.1-1.14-.1h-1.5zm0 3.47h1.87c.32 0 .55-.01.68-.04q.345-.06.57-.21c.225-.15.28-.24.38-.42s.15-.39.15-.63c0-.28-.07-.52-.22-.73a1.13 1.13 0 0 0-.6-.44c-.25-.08-.62-.12-1.1-.12h-1.74v2.59zm14.75-12.68h-8.51v-1.48h8.51zm0 3.91h-8.51v-1.48h8.51zm5.35.29 1.66-.14c.12.81.41 1.42.86 1.82s.99.61 1.62.61c.76 0 1.41-.29 1.93-.86s.79-1.34.79-2.29c0-.9-.25-1.61-.76-2.14s-1.17-.78-1.99-.78a2.78 2.78 0 0 0-2.35 1.25l-1.49-.19 1.25-6.62h6.41v1.51h-5.14l-.69 3.46q1.155-.81 2.43-.81 1.68 0 2.85 1.17c1.17 1.17 1.16 1.78 1.16 3.01 0 1.17-.34 2.17-1.02 3.02-.83 1.04-1.95 1.56-3.38 1.56-1.17 0-2.13-.33-2.87-.98s-1.17-1.52-1.27-2.6"/><path class="st3" d="M84.6 29.3H167V63H84.6z"/><path d="M95.1 42.18V29.3h1.75l6.77 10.12V29.3h1.63v12.88h-1.75l-6.77-10.12v10.12zm11.61 6 2.88-7.51h1.07l3.07 7.51h-1.13l-.88-2.28h-3.14l-.83 2.28zm2.17-3.09h2.55l-.78-2.08c-.24-.63-.42-1.15-.53-1.56-.1.48-.23.96-.4 1.43zm14.36-10.48h-8.51v-1.48h8.51zm0 3.91h-8.51v-1.48h8.51zm11.31 3.66h-1.58V32.1c-.38.36-.88.73-1.5 1.09s-1.17.64-1.67.82v-1.53c.88-.42 1.66-.92 2.32-1.51s1.13-1.17 1.41-1.72h1.02zm4.05-6.35c0-1.52.16-2.75.47-3.68s.78-1.64 1.4-2.15 1.4-.76 2.33-.76c.69 0 1.3.14 1.82.42s.95.68 1.29 1.2c.34.53.61 1.16.8 1.92.19.75.29 1.77.29 3.05 0 1.51-.16 2.73-.47 3.66s-.77 1.65-1.39 2.15c-.62.51-1.4.76-2.34.76-1.24 0-2.22-.45-2.93-1.34-.85-1.06-1.27-2.81-1.27-5.23m1.62 0c0 2.12.25 3.52.74 4.22s1.11 1.05 1.83 1.05 1.34-.35 1.83-1.05.74-2.11.74-4.22c0-2.12-.25-3.53-.74-4.23s-1.11-1.05-1.85-1.05c-.73 0-1.31.31-1.74.92-.53.79-.81 2.24-.81 4.36m8.39 0c0-1.52.16-2.75.47-3.68s.78-1.64 1.4-2.15 1.4-.76 2.33-.76c.69 0 1.3.14 1.82.42s.95.68 1.29 1.2c.34.53.61 1.16.8 1.92.19.75.29 1.77.29 3.05 0 1.51-.16 2.73-.47 3.66s-.77 1.65-1.39 2.15c-.62.51-1.4.76-2.34.76-1.24 0-2.22-.45-2.93-1.34-.85-1.06-1.27-2.81-1.27-5.23m1.62 0c0 2.12.25 3.52.74 4.22s1.11 1.05 1.83 1.05 1.34-.35 1.83-1.05.74-2.11.74-4.22c0-2.12-.25-3.53-.74-4.23s-1.11-1.05-1.85-1.05c-.73 0-1.31.31-1.74.92-.53.79-.81 2.24-.81 4.36"/><path class="st3" d="M298.6 131.3H412V154H298.6z"/><path d="M324.6 144.18V131.3h1.75l6.77 10.12V131.3h1.63v12.88H333l-6.77-10.12v10.12zm12.4 6v-7.51h2.82c.57 0 1.03.08 1.38.23s.62.39.81.7c.2.32.29.65.29.99 0 .32-.09.62-.26.91-.17.28-.44.51-.79.69.45.13.8.36 1.05.68.24.32.37.7.37 1.14 0 .35-.07.68-.22.98s-.33.54-.55.7-.49.29-.82.37-.73.13-1.21.13H337zm.99-4.36h1.62c.44 0 .76-.03.95-.09.25-.08.44-.2.57-.37s.19-.39.19-.66q0-.375-.18-.66c-.18-.285-.29-.32-.51-.39s-.6-.1-1.14-.1h-1.5zm0 3.47h1.87c.32 0 .55-.01.68-.04q.345-.06.57-.21c.225-.15.28-.24.38-.42s.15-.39.15-.63c0-.28-.07-.52-.22-.73a1.13 1.13 0 0 0-.6-.44c-.25-.08-.62-.12-1.1-.12h-1.74v2.59zm14.75-12.68h-8.51v-1.48h8.51zm0 3.91h-8.51v-1.48h8.51zm13.66 2.14v1.52h-8.52c-.01-.38.05-.75.18-1.1.22-.58.56-1.15 1.04-1.71s1.17-1.21 2.07-1.95c1.4-1.15 2.35-2.06 2.84-2.73s.74-1.31.74-1.9c0-.63-.22-1.16-.67-1.59s-1.03-.65-1.75-.65q-1.14 0-1.83.69c-.69.69-.69 1.09-.69 1.9l-1.63-.17c.11-1.21.53-2.14 1.26-2.77s1.7-.95 2.93-.95c1.24 0 2.21.34 2.94 1.03s1.08 1.54 1.08 2.55c0 .52-.11 1.02-.32 1.52s-.56 1.02-1.05 1.57-1.3 1.31-2.44 2.27q-1.425 1.2-1.83 1.62c-.405.42-.49.57-.67.86h6.32zm1.7-4.83c0-1.52.16-2.75.47-3.68s.78-1.64 1.4-2.15 1.4-.76 2.33-.76c.69 0 1.3.14 1.82.42s.95.68 1.29 1.2c.34.53.61 1.16.8 1.92.19.75.29 1.77.29 3.05 0 1.51-.16 2.73-.47 3.66s-.77 1.65-1.39 2.15c-.62.51-1.4.76-2.34.76-1.24 0-2.22-.45-2.93-1.34-.85-1.06-1.27-2.81-1.27-5.23m1.62 0c0 2.12.25 3.52.74 4.22s1.11 1.05 1.83 1.05 1.34-.35 1.83-1.05.74-2.11.74-4.22c0-2.12-.25-3.53-.74-4.23s-1.11-1.05-1.85-1.05c-.73 0-1.31.31-1.74.92-.53.79-.81 2.24-.81 4.36m8.39 0c0-1.52.16-2.75.47-3.68s.78-1.64 1.4-2.15 1.4-.76 2.33-.76c.69 0 1.3.14 1.82.42s.95.68 1.29 1.2c.34.53.61 1.16.8 1.92.19.75.29 1.77.29 3.05 0 1.51-.16 2.73-.47 3.66s-.77 1.65-1.39 2.15c-.62.51-1.4.76-2.34.76-1.24 0-2.22-.45-2.93-1.34-.85-1.06-1.27-2.81-1.27-5.23m1.62 0c0 2.12.25 3.52.74 4.22s1.11 1.05 1.83 1.05 1.34-.35 1.83-1.05.74-2.11.74-4.22c0-2.12-.25-3.53-.74-4.23s-1.11-1.05-1.85-1.05c-.73 0-1.31.31-1.74.92-.53.79-.81 2.24-.81 4.36"/></g></svg>