<svg xmlns="http://www.w3.org/2000/svg" viewBox="0 0 341.5 289" xml:space="preserve"><style>.st5,.st7{fill:#e2e9f2;stroke:#000;stroke-miterlimit:10}.st7{fill:none;stroke:#a1afbf}</style><g id="Animal_Charity"/><g id="Population_Ethics_8"/><g id="Population_Ethihcs_7"><path class="st5" d="M48 24.5h82v205H48z"/><path class="st7" d="M21.5 229.5h138"/><path style="fill:none;stroke:#c6d0db;stroke-miterlimit:10" d="M170 17v261"/><path d="m75.23 265.32-2.52 7.63h-3.24l8.24-24.26h3.78l8.28 24.26h-3.35l-2.59-7.63zm7.95-2.45-2.38-6.98c-.54-1.58-.9-3.02-1.26-4.43h-.07c-.36 1.44-.76 2.92-1.22 4.39l-2.38 7.02zm15.92-10.36h-.07l-4.07 2.2-.61-2.41 5.11-2.74h2.7v23.4H99.1z"/><path class="st5" d="M211 147.5h82v82h-82z"/><path class="st7" d="M180 229.5h137.5"/><path d="m234.23 265.32-2.52 7.63h-3.24l8.24-24.26h3.78l8.28 24.26h-3.35l-2.59-7.63zm7.95-2.45-2.38-6.98c-.54-1.58-.9-3.02-1.26-4.43h-.07c-.36 1.44-.76 2.92-1.22 4.39l-2.38 7.02zm9.04 10.08v-1.94l2.48-2.41c5.97-5.69 8.67-8.71 8.71-12.24 0-2.38-1.15-4.57-4.64-4.57-2.12 0-3.89 1.08-4.97 1.98l-1.01-2.23c1.62-1.37 3.92-2.38 6.62-2.38 5.04 0 7.16 3.46 7.16 6.8 0 4.32-3.13 7.81-8.06 12.56l-1.87 1.73v.07h10.51v2.63z"/></g><g id="population6"/><g id="Population_Ethics_6"/><g id="Population_Ethics_5"/><g id="Population_Ethics_4"/><g id="Population_Ethics_3"/><g id="Population_Ethics_2"/><g id="Population_Ethics_1"/></svg>