<svg xmlns="http://www.w3.org/2000/svg" viewBox="0 0 335 220" xml:space="preserve"><style>.st7{fill:none;stroke:#a1afbf;stroke-miterlimit:10}.st10{fill:#fff}</style><g id="Animal_Charity"/><g id="Population_Ethics_8"/><g id="Population_Ethihcs_7"/><g id="population6"/><g id="Population_Ethics_6"/><g id="Population_Ethics_5"><path style="fill:#efe1e1;stroke:#000;stroke-miterlimit:10" d="M249.5 82.5h22v67h-22z"/><linearGradient id="SVGID_1_" gradientUnits="userSpaceOnUse" x1="21.5" y1="68" x2="178.5" y2="68"><stop offset=".249" style="stop-color:#e2e9f2"/><stop offset=".296" style="stop-color:#eef2f7"/><stop offset=".343" style="stop-color:#fff"/><stop offset=".657" style="stop-color:#fff"/><stop offset=".706" style="stop-color:#f0f4f8"/><stop offset=".765" style="stop-color:#e2e9f2"/></linearGradient><path style="fill:url(#SVGID_1_);stroke:#000;stroke-miterlimit:10" d="M21.5 53.5h157v29h-157z"/><path class="st10" d="M118.5 44.5h6v9h-6z"/><path class="st10" d="M124 45v8h-5v-8zm1-1h-7v10h7zm-34.5.5h6v9h-6z"/><path class="st10" d="M96 45v8h-5v-8zm1-1h-7v10h7zm7.5.5h6v9h-6z"/><path class="st10" d="M110 45v8h-5v-8zm1-1h-7v10h7zm-34.5.5h6v9h-6z"/><path class="st10" d="M82 45v8h-5v-8zm1-1h-7v10h7z"/><path class="st7" d="M7 82.5h196m27 0h60"/><path style="fill:none;stroke:#c6d0db;stroke-miterlimit:10" d="M217.5 15v194"/><path d="m96.64 189.73-2.52 7.63h-3.24l8.24-24.26h3.78l8.28 24.26h-3.35l-2.59-7.63zm7.95-2.45-2.38-6.98c-.54-1.58-.9-3.02-1.26-4.43h-.07c-.36 1.44-.76 2.92-1.22 4.39l-2.38 7.02zm151.33-14.16c1.37-.29 3.53-.5 5.72-.5 3.13 0 5.15.54 6.66 1.76 1.26.94 2.02 2.38 2.02 4.28 0 2.34-1.55 4.39-4.1 5.33v.07c2.3.58 5 2.48 5 6.08 0 2.09-.83 3.67-2.05 4.86-1.69 1.55-4.43 2.27-8.39 2.27-2.16 0-3.82-.14-4.86-.29zm3.13 9.93h2.84c3.31 0 5.26-1.73 5.26-4.07 0-2.84-2.16-3.96-5.33-3.96-1.44 0-2.27.11-2.77.21zm0 11.63c.61.11 1.51.14 2.63.14 3.24 0 6.23-1.19 6.23-4.71 0-3.31-2.84-4.68-6.26-4.68h-2.59v9.25z"/><path class="st7" d="M8 34.5h2"/><path style="fill:none;stroke:#a1afbf;stroke-miterlimit:10;stroke-dasharray:3.9521,3.9521" d="M13.95 34.5h282.57"/><path class="st7" d="M298.5 34.5h2"/><path style="fill:none" d="M303.97 29.01h17.32v21.42h-17.32z"/><path d="M309.84 31.73c-.06.61-.16 2.6-.16 4.15 0 .68.17.97.58.98l-.08.76c-.07.04-.24.05-.36.05-.52 0-.94-.34-1-1.22h-.04c-.38.7-1.06 1.22-1.98 1.22-1.38 0-2.38-1.15-2.38-2.91 0-1.9 1.25-3.15 2.59-3.15.84 0 1.48.43 1.79 1.16h.05c.02-.46.06-.74.11-1.03h.88zm-2.77 5.09c.73 0 1.37-.71 1.55-1.47.06-.26.07-.49.07-.82 0-.23 0-.42-.05-.62-.14-.78-.72-1.49-1.49-1.49-.98 0-1.66.97-1.66 2.29.01 1.11.57 2.11 1.58 2.11"/></g><g id="Population_Ethics_4"/><g id="Population_Ethics_3"/><g id="Population_Ethics_2"/><g id="Population_Ethics_1"/></svg>