<svg xmlns="http://www.w3.org/2000/svg" xmlns:xlink="http://www.w3.org/1999/xlink" width="850" height="500" viewBox="0 0 850 500" xml:space="preserve">
  <defs>
    <path id="a" d="M213 420V248.431L399.328 420z"/>
  </defs>
  <clipPath id="b">
    <use xlink:href="#a" overflow="visible"/>
  </clipPath>
  <linearGradient id="c" gradientUnits="userSpaceOnUse" x1="0" y1="500" x2="1" y2="500" gradientTransform="matrix(0 171.5691 171.5691 0 -85478.406 248.375)">
    <stop offset="0" style="stop-color:#efe1e1"/>
    <stop offset=".727" style="stop-color:#efe1e1"/>
    <stop offset=".9" style="stop-color:#fbf7f7"/>
    <stop offset=".952" style="stop-color:#fff"/>
    <stop offset="1" style="stop-color:#fff"/>
  </linearGradient>
  <path clip-path="url(#b)" fill="url(#c)" d="M213 248.431h186.328V420H213z"/>
  <defs>
    <path id="d" d="M213 76v171.569L399.328 76z"/>
  </defs>
  <clipPath id="e">
    <use xlink:href="#d" overflow="visible"/>
  </clipPath>
  <linearGradient id="f" gradientUnits="userSpaceOnUse" x1="0" y1="500" x2="1" y2="500" gradientTransform="matrix(0 -171.5691 -171.5691 0 86090.656 247.625)">
    <stop offset="0" style="stop-color:#e2e9f2"/>
    <stop offset=".691" style="stop-color:#e2e9f2"/>
    <stop offset=".897" style="stop-color:#f8fafc"/>
    <stop offset=".952" style="stop-color:#fff"/>
    <stop offset="1" style="stop-color:#fff"/>
  </linearGradient>
  <path clip-path="url(#e)" fill="url(#f)" d="M213 76h186.328v171.569H213z"/>
  <path d="M65.97 36.42c.046 2.736 1.794 3.863 3.817 3.863 1.449 0 2.322-.253 3.082-.575l.345 1.449c-.713.322-1.932.69-3.702.69-3.426 0-5.473-2.253-5.473-5.611s1.978-6.001 5.22-6.001c3.633 0 4.599 3.196 4.599 5.243 0 .414-.046.736-.069.943zm5.933-1.448c.023-1.288-.529-3.288-2.806-3.288-2.046 0-2.943 1.885-3.104 3.288zm4.188 4.576c.598.391 1.655.805 2.667.805 1.472 0 2.161-.736 2.161-1.656 0-.966-.575-1.495-2.069-2.046-2-.713-2.943-1.817-2.943-3.15 0-1.793 1.449-3.265 3.84-3.265 1.126 0 2.115.322 2.736.689l-.506 1.472a4.33 4.33 0 0 0-2.277-.644c-1.195 0-1.862.69-1.862 1.518 0 .92.667 1.333 2.115 1.886 1.932.736 2.92 1.702 2.92 3.357 0 1.955-1.518 3.334-4.162 3.334-1.219 0-2.345-.299-3.127-.759zm11.821-12.256v3.196h2.897v1.541h-2.897v6.001c0 1.38.391 2.162 1.518 2.162.529 0 .92-.069 1.173-.138l.092 1.518c-.391.161-1.012.276-1.793.276-.943 0-1.702-.299-2.185-.851-.575-.598-.782-1.586-.782-2.897v-6.071H84.21v-1.541h1.725V27.82zm5.175 6.668a53 53 0 0 0-.092-3.472h1.771l.069 2.185h.092c.506-1.495 1.725-2.438 3.082-2.438.23 0 .391.023.575.069v1.909a3 3 0 0 0-.69-.069c-1.425 0-2.437 1.081-2.713 2.599a6 6 0 0 0-.092.943v5.933h-2V33.96zm9.775-6.6c.023.69-.483 1.242-1.288 1.242-.713 0-1.219-.552-1.219-1.242 0-.713.529-1.265 1.265-1.265.759.001 1.242.552 1.242 1.265m-2.254 14.257V30.488h2.023v11.129zm13.315-.414c-.529.276-1.702.644-3.196.644-3.357 0-5.542-2.276-5.542-5.68 0-3.426 2.345-5.91 5.979-5.91 1.196 0 2.253.299 2.805.575l-.459 1.563c-.483-.276-1.242-.529-2.346-.529-2.552 0-3.932 1.886-3.932 4.208 0 2.576 1.656 4.162 3.863 4.162 1.149 0 1.908-.299 2.483-.552zm4.808-13.911v3.196h2.897v1.541h-2.897v6.001c0 1.38.391 2.162 1.518 2.162.529 0 .92-.069 1.173-.138l.092 1.518c-.391.161-1.012.276-1.793.276-.943 0-1.702-.299-2.185-.851-.575-.598-.782-1.586-.782-2.897v-6.071h-1.725v-1.541h1.725V27.82zm11.338 14.325-.161-1.403h-.069c-.621.874-1.816 1.656-3.403 1.656-2.253 0-3.403-1.586-3.403-3.196 0-2.69 2.392-4.162 6.692-4.139v-.23c0-.92-.253-2.575-2.53-2.575-1.035 0-2.115.322-2.897.828l-.459-1.333c.919-.598 2.253-.989 3.656-.989 3.403 0 4.231 2.322 4.231 4.553v4.162c0 .966.046 1.909.184 2.667zm-.298-5.679c-2.208-.046-4.714.345-4.714 2.506 0 1.311.874 1.932 1.908 1.932 1.449 0 2.369-.92 2.69-1.863.069-.207.115-.437.115-.644zm5.222-2.438c0-1.15-.023-2.093-.092-3.012h1.771l.092 1.793h.069c.621-1.058 1.656-2.046 3.496-2.046 1.518 0 2.667.919 3.15 2.23h.046a4.6 4.6 0 0 1 1.242-1.449c.667-.506 1.402-.782 2.46-.782 1.472 0 3.656.966 3.656 4.829v6.554h-1.978v-6.301c0-2.138-.782-3.426-2.415-3.426-1.15 0-2.047.851-2.392 1.84a3.3 3.3 0 0 0-.161 1.012v6.875h-1.978v-6.668c0-1.771-.782-3.059-2.322-3.059-1.265 0-2.185 1.012-2.506 2.024a2.8 2.8 0 0 0-.161.989v6.714h-1.978V33.5zm20.308 2.92c.046 2.736 1.794 3.863 3.817 3.863 1.449 0 2.322-.253 3.082-.575l.345 1.449c-.713.322-1.932.69-3.702.69-3.426 0-5.473-2.253-5.473-5.611s1.978-6.001 5.22-6.001c3.633 0 4.599 3.196 4.599 5.243 0 .414-.046.736-.069.943zm5.933-1.448c.023-1.288-.529-3.288-2.806-3.288-2.046 0-2.943 1.885-3.104 3.288zm4.464-1.472c0-1.15-.023-2.093-.092-3.012h1.794l.115 1.839h.046c.552-1.058 1.84-2.092 3.679-2.092 1.541 0 3.932.919 3.932 4.737v6.646h-2.023v-6.416c0-1.793-.667-3.289-2.575-3.289-1.334 0-2.369.943-2.713 2.07-.092.253-.138.598-.138.943v6.691H165.7V33.5zm15.202-6.208v3.196h2.897v1.541H180.9v6.001c0 1.38.391 2.162 1.518 2.162.529 0 .92-.069 1.173-.138l.092 1.518c-.391.161-1.012.276-1.793.276-.943 0-1.702-.299-2.185-.851-.575-.598-.782-1.586-.782-2.897v-6.071h-1.725v-1.541h1.725V27.82zm6.302 9.128c.046 2.736 1.794 3.863 3.817 3.863 1.449 0 2.322-.253 3.082-.575l.345 1.449c-.713.322-1.932.69-3.702.69-3.426 0-5.473-2.253-5.473-5.611s1.978-6.001 5.22-6.001c3.633 0 4.599 3.196 4.599 5.243 0 .414-.046.736-.069.943zm5.933-1.448c.023-1.288-.529-3.288-2.806-3.288-2.046 0-2.943 1.885-3.104 3.288zM118.844 61.1c0-1.15-.023-2.093-.092-3.012h1.771l.092 1.793h.069c.621-1.058 1.656-2.046 3.496-2.046 1.518 0 2.667.919 3.15 2.23h.046a4.6 4.6 0 0 1 1.242-1.449c.667-.506 1.402-.782 2.46-.782 1.472 0 3.656.966 3.656 4.829v6.554h-1.978v-6.301c0-2.138-.782-3.426-2.415-3.426-1.15 0-2.047.851-2.392 1.84a3.3 3.3 0 0 0-.161 1.012v6.875h-1.978v-6.668c0-1.771-.782-3.059-2.322-3.059-1.265 0-2.185 1.012-2.506 2.024a2.8 2.8 0 0 0-.161.989v6.714h-1.978zm20.308 2.921c.046 2.736 1.794 3.863 3.817 3.863 1.449 0 2.322-.253 3.082-.575l.345 1.449c-.713.322-1.932.69-3.702.69-3.426 0-5.473-2.253-5.473-5.611s1.978-6.001 5.22-6.001c3.633 0 4.599 3.196 4.599 5.243 0 .414-.046.736-.069.943h-7.819zm5.933-1.449c.023-1.288-.529-3.289-2.806-3.289-2.046 0-2.943 1.886-3.104 3.289zm1.75 9.865c.92-.069 1.725-.322 2.208-.851.552-.644.759-1.518.759-4.185v-9.313h2.023v10.095c0 2.162-.345 3.564-1.333 4.576-.897.897-2.369 1.265-3.449 1.265zm5.22-17.477c.023.667-.46 1.242-1.265 1.242-.759 0-1.242-.575-1.242-1.242 0-.713.529-1.265 1.288-1.265.736.001 1.219.553 1.219 1.265m13.154 8.601c0 4.116-2.852 5.91-5.542 5.91-3.012 0-5.334-2.208-5.334-5.726 0-3.725 2.438-5.91 5.519-5.91 3.196 0 5.357 2.322 5.357 5.726m-8.83.114c0 2.438 1.403 4.277 3.38 4.277 1.932 0 3.38-1.817 3.38-4.323 0-1.885-.942-4.277-3.334-4.277s-3.426 2.208-3.426 4.323m11.385-2.115a53 53 0 0 0-.092-3.472h1.771l.069 2.185h.092c.506-1.495 1.725-2.438 3.082-2.438.23 0 .391.023.575.069v1.909a3 3 0 0 0-.69-.069c-1.425 0-2.437 1.081-2.713 2.599a6 6 0 0 0-.092.943v5.933h-2V61.56zm8.648 2.461c.046 2.736 1.794 3.863 3.817 3.863 1.449 0 2.322-.253 3.082-.575l.345 1.449c-.713.322-1.932.69-3.702.69-3.426 0-5.473-2.253-5.473-5.611s1.978-6.001 5.22-6.001c3.633 0 4.599 3.196 4.599 5.243 0 .414-.046.736-.069.943zm5.933-1.449c.023-1.288-.529-3.289-2.806-3.289-2.046 0-2.943 1.886-3.104 3.289zm4.187 4.576c.598.391 1.655.805 2.667.805 1.472 0 2.161-.736 2.161-1.656 0-.966-.575-1.495-2.069-2.046-2-.713-2.943-1.817-2.943-3.15 0-1.793 1.449-3.265 3.84-3.265 1.126 0 2.115.322 2.736.689l-.506 1.472a4.33 4.33 0 0 0-2.277-.644c-1.195 0-1.862.69-1.862 1.518 0 .92.667 1.333 2.115 1.886 1.932.736 2.92 1.702 2.92 3.357 0 1.955-1.518 3.334-4.162 3.334-1.219 0-2.345-.299-3.127-.759zM63.315 419.002c.046 2.736 1.794 3.863 3.817 3.863 1.449 0 2.322-.253 3.082-.574l.345 1.448c-.713.322-1.932.689-3.702.689-3.426 0-5.473-2.253-5.473-5.61s1.978-6.002 5.22-6.002c3.633 0 4.599 3.196 4.599 5.243 0 .414-.046.735-.069.942zm5.933-1.448c.023-1.288-.529-3.288-2.806-3.288-2.046 0-2.943 1.886-3.104 3.288zm4.188 4.576c.598.391 1.655.805 2.667.805 1.472 0 2.161-.736 2.161-1.655 0-.966-.575-1.495-2.069-2.047-2-.713-2.943-1.816-2.943-3.15 0-1.794 1.449-3.266 3.84-3.266 1.126 0 2.115.322 2.736.69l-.506 1.472a4.33 4.33 0 0 0-2.277-.645c-1.195 0-1.862.69-1.862 1.518 0 .92.667 1.334 2.115 1.886 1.932.736 2.92 1.702 2.92 3.357 0 1.955-1.518 3.334-4.162 3.334-1.219 0-2.345-.299-3.127-.759zm11.821-12.257v3.196h2.897v1.541h-2.897v6.002c0 1.38.391 2.161 1.518 2.161.529 0 .92-.069 1.173-.138l.092 1.518c-.391.161-1.012.275-1.793.275-.943 0-1.702-.299-2.185-.851-.575-.598-.782-1.586-.782-2.897v-6.07h-1.725v-1.541h1.725v-2.667zm5.175 6.669c0-1.311-.023-2.438-.092-3.473h1.771l.069 2.185h.092c.506-1.494 1.725-2.438 3.082-2.438.23 0 .391.023.575.069v1.908a3 3 0 0 0-.69-.068c-1.425 0-2.437 1.08-2.713 2.598a6 6 0 0 0-.092.943v5.933h-2v-7.657zm9.775-6.6c.023.689-.483 1.241-1.288 1.241-.713 0-1.219-.552-1.219-1.241 0-.713.529-1.265 1.265-1.265.759.001 1.242.552 1.242 1.265m-2.254 14.257v-11.13h2.023v11.13zm13.315-.414c-.529.276-1.702.644-3.196.644-3.357 0-5.542-2.276-5.542-5.68 0-3.426 2.345-5.909 5.979-5.909 1.196 0 2.253.299 2.805.575l-.459 1.563c-.483-.276-1.242-.529-2.346-.529-2.552 0-3.932 1.886-3.932 4.208 0 2.575 1.656 4.162 3.863 4.162 1.149 0 1.908-.299 2.483-.552zm4.808-13.912v3.196h2.897v1.541h-2.897v6.002c0 1.38.391 2.161 1.518 2.161.529 0 .92-.069 1.173-.138l.092 1.518c-.391.161-1.012.275-1.793.275-.943 0-1.702-.299-2.185-.851-.575-.598-.782-1.586-.782-2.897v-6.07h-1.725v-1.541h1.725v-2.667zm11.338 14.326-.161-1.402h-.069c-.621.873-1.816 1.655-3.403 1.655-2.253 0-3.403-1.587-3.403-3.196 0-2.69 2.392-4.162 6.692-4.139v-.23c0-.92-.253-2.575-2.53-2.575-1.035 0-2.115.321-2.897.828l-.459-1.334c.919-.598 2.253-.989 3.656-.989 3.403 0 4.231 2.323 4.231 4.554v4.162c0 .966.046 1.908.184 2.667zm-.299-5.679c-2.208-.046-4.714.345-4.714 2.507 0 1.311.874 1.931 1.908 1.931 1.449 0 2.369-.919 2.69-1.862.069-.207.115-.437.115-.644v-1.932zm5.222-2.438c0-1.149-.023-2.093-.092-3.013h1.771l.092 1.794h.069c.621-1.058 1.656-2.047 3.496-2.047 1.518 0 2.667.92 3.15 2.23h.046a4.6 4.6 0 0 1 1.242-1.448c.667-.506 1.402-.782 2.46-.782 1.472 0 3.656.966 3.656 4.829v6.554h-1.978v-6.301c0-2.139-.782-3.426-2.415-3.426-1.15 0-2.047.851-2.392 1.839a3.3 3.3 0 0 0-.161 1.012v6.876h-1.978v-6.669c0-1.771-.782-3.058-2.322-3.058-1.265 0-2.185 1.012-2.506 2.023a2.8 2.8 0 0 0-.161.988v6.715h-1.978v-8.116zm20.309 2.92c.046 2.736 1.794 3.863 3.817 3.863 1.449 0 2.322-.253 3.082-.574l.345 1.448c-.713.322-1.932.689-3.702.689-3.426 0-5.473-2.253-5.473-5.61s1.978-6.002 5.22-6.002c3.633 0 4.599 3.196 4.599 5.243 0 .414-.046.735-.069.942zm5.933-1.448c.023-1.288-.529-3.288-2.806-3.288-2.046 0-2.943 1.886-3.104 3.288zm4.463-1.472c0-1.149-.023-2.093-.092-3.013h1.794l.115 1.84h.046c.552-1.058 1.84-2.093 3.679-2.093 1.541 0 3.932.92 3.932 4.737v6.646h-2.023v-6.416c0-1.793-.667-3.288-2.575-3.288-1.334 0-2.369.943-2.713 2.069-.092.253-.138.599-.138.943v6.691h-2.023v-8.116zm15.203-6.209v3.196h2.897v1.541h-2.897v6.002c0 1.38.391 2.161 1.518 2.161.529 0 .92-.069 1.173-.138l.092 1.518c-.391.161-1.012.275-1.793.275-.943 0-1.702-.299-2.185-.851-.575-.598-.782-1.586-.782-2.897v-6.07h-1.725v-1.541h1.725v-2.667zm6.301 9.129c.046 2.736 1.794 3.863 3.817 3.863 1.449 0 2.322-.253 3.082-.574l.345 1.448c-.713.322-1.932.689-3.702.689-3.426 0-5.473-2.253-5.473-5.61s1.978-6.002 5.22-6.002c3.633 0 4.599 3.196 4.599 5.243 0 .414-.046.735-.069.942zm5.933-1.448c.023-1.288-.529-3.288-2.806-3.288-2.046 0-2.943 1.886-3.104 3.288zm-60.291 26.749a79 79 0 0 0-.092-3.634h1.817l.092 1.909h.046c.828-1.357 2.139-2.162 3.956-2.162 2.69 0 4.714 2.276 4.714 5.657 0 4.001-2.438 5.979-5.059 5.979-1.472 0-2.759-.644-3.426-1.748h-.046v6.048h-2v-12.049zm2.001 2.966c0 .299.046.575.092.828.368 1.402 1.587 2.368 3.036 2.368 2.138 0 3.38-1.747 3.38-4.3 0-2.23-1.173-4.139-3.312-4.139-1.38 0-2.667.988-3.058 2.506-.069.253-.138.552-.138.828zm11.982-.667c.046 2.736 1.794 3.863 3.817 3.863 1.449 0 2.322-.253 3.082-.574l.345 1.448c-.713.322-1.932.689-3.702.689-3.426 0-5.473-2.253-5.473-5.61s1.978-6.002 5.22-6.002c3.633 0 4.599 3.196 4.599 5.243 0 .414-.046.735-.069.942zm5.933-1.449c.023-1.288-.529-3.288-2.806-3.288-2.046 0-2.943 1.886-3.104 3.288zm14.306.989c0 4.116-2.852 5.91-5.542 5.91-3.012 0-5.334-2.207-5.334-5.726 0-3.726 2.438-5.91 5.519-5.91 3.195 0 5.357 2.323 5.357 5.726m-8.83.115c0 2.438 1.403 4.277 3.38 4.277 1.932 0 3.38-1.816 3.38-4.323 0-1.886-.942-4.277-3.334-4.277s-3.426 2.208-3.426 4.323m11.155-2.115c0-1.311-.023-2.438-.092-3.473h1.771l.069 2.185h.092c.506-1.494 1.725-2.438 3.082-2.438.23 0 .391.023.575.069v1.908a3 3 0 0 0-.69-.068c-1.425 0-2.437 1.08-2.713 2.598a6 6 0 0 0-.092.943v5.933h-2v-7.657zm8.417 2.46c.046 2.736 1.794 3.863 3.817 3.863 1.449 0 2.322-.253 3.082-.574l.345 1.448c-.713.322-1.932.689-3.702.689-3.426 0-5.473-2.253-5.473-5.61s1.978-6.002 5.22-6.002c3.633 0 4.599 3.196 4.599 5.243 0 .414-.046.735-.069.942zm5.933-1.449c.023-1.288-.529-3.288-2.806-3.288-2.046 0-2.943 1.886-3.104 3.288zm3.957 4.576c.598.391 1.655.805 2.667.805 1.472 0 2.161-.736 2.161-1.655 0-.966-.575-1.495-2.069-2.047-2-.713-2.943-1.816-2.943-3.15 0-1.794 1.449-3.266 3.84-3.266 1.126 0 2.115.322 2.736.69l-.506 1.472a4.33 4.33 0 0 0-2.277-.645c-1.195 0-1.862.69-1.862 1.518 0 .92.667 1.334 2.115 1.886 1.932.736 2.92 1.702 2.92 3.357 0 1.955-1.518 3.334-4.162 3.334-1.219 0-2.345-.299-3.127-.759zm-61.533-203.364c0-1.15-.023-2.093-.092-3.012h1.794l.115 1.839h.046c.552-1.058 1.84-2.092 3.679-2.092 1.541 0 3.932.919 3.932 4.737v6.646h-2.023v-6.416c0-1.793-.667-3.289-2.575-3.289-1.334 0-2.369.943-2.713 2.07-.092.253-.138.598-.138.943v6.691h-2.023v-8.117zm13.891 2.921c.046 2.736 1.794 3.863 3.817 3.863 1.449 0 2.322-.253 3.082-.574l.345 1.448c-.713.322-1.932.689-3.702.689-3.426 0-5.473-2.253-5.473-5.61s1.978-6.001 5.22-6.001c3.633 0 4.599 3.196 4.599 5.243 0 .414-.046.736-.069.943zm5.933-1.449c.023-1.288-.529-3.288-2.806-3.288-2.046 0-2.943 1.885-3.104 3.288zm13.776 3.61c0 1.149.023 2.161.092 3.035h-1.793l-.115-1.816h-.046c-.529.896-1.702 2.069-3.679 2.069-1.748 0-3.84-.966-3.84-4.875v-6.507h2.023v6.163c0 2.115.644 3.541 2.483 3.541 1.356 0 2.299-.942 2.667-1.84.115-.299.184-.667.184-1.034v-6.83h2.023v8.094zm5.798-11.29v3.196h2.897v1.541h-2.897v6.002c0 1.38.391 2.161 1.518 2.161.529 0 .92-.069 1.173-.138l.092 1.518c-.391.161-1.012.275-1.793.275-.943 0-1.702-.299-2.185-.851-.575-.598-.782-1.586-.782-2.897v-6.07h-1.725v-1.541h1.725v-2.667zm5.175 6.668a53 53 0 0 0-.092-3.472h1.771l.069 2.185h.092c.506-1.495 1.725-2.438 3.082-2.438.23 0 .391.023.575.069v1.909a3 3 0 0 0-.69-.069c-1.425 0-2.438 1.081-2.713 2.599a6 6 0 0 0-.092.943v5.933h-2v-7.659zm13.569 7.657-.161-1.402h-.069c-.621.873-1.816 1.655-3.403 1.655-2.253 0-3.403-1.587-3.403-3.196 0-2.69 2.392-4.162 6.692-4.139v-.23c0-.92-.253-2.575-2.53-2.575-1.035 0-2.115.322-2.897.828l-.459-1.333c.919-.598 2.253-.989 3.656-.989 3.403 0 4.231 2.322 4.231 4.553v4.163c0 .966.046 1.908.184 2.667h-1.841zm-.299-5.679c-2.208-.046-4.714.345-4.714 2.507 0 1.311.874 1.931 1.908 1.931 1.449 0 2.369-.919 2.69-1.862.069-.207.115-.437.115-.644v-1.932zm4.946 3.61c.598.391 1.655.805 2.667.805 1.472 0 2.161-.736 2.161-1.655 0-.966-.575-1.495-2.069-2.047-2-.713-2.943-1.817-2.943-3.15 0-1.793 1.449-3.265 3.84-3.265 1.126 0 2.115.322 2.736.689l-.506 1.472a4.33 4.33 0 0 0-2.277-.644c-1.195 0-1.862.69-1.862 1.518 0 .92.667 1.333 2.115 1.886 1.932.736 2.92 1.702 2.92 3.357 0 1.955-1.518 3.334-4.162 3.334-1.219 0-2.345-.299-3.127-.759zm43.658-103.087a52 52 0 0 0 .092-2.875V133h2v6.991h.046c.713-1.242 2-2.046 3.794-2.046 2.759 0 4.714 2.299 4.691 5.68 0 3.978-2.506 5.956-4.99 5.956-1.609 0-2.897-.621-3.725-2.093h-.069l-.092 1.84h-1.747zm2.092-4.461c0 .253.046.506.092.736.391 1.403 1.564 2.368 3.036 2.368 2.115 0 3.38-1.725 3.38-4.277 0-2.23-1.15-4.139-3.312-4.139-1.38 0-2.667.943-3.082 2.483-.046.23-.115.506-.115.828v2.001zm20.399 1.426c0 1.149.023 2.161.092 3.035h-1.793l-.115-1.816h-.046c-.529.896-1.702 2.069-3.679 2.069-1.748 0-3.84-.966-3.84-4.875v-6.507h2.023v6.163c0 2.115.644 3.541 2.483 3.541 1.356 0 2.299-.943 2.667-1.839a3 3 0 0 0 .184-1.035v-6.829h2.023v8.093zm4.487-2.162c.046 2.736 1.794 3.863 3.817 3.863 1.449 0 2.322-.253 3.082-.575l.345 1.449c-.713.322-1.932.69-3.702.69-3.426 0-5.473-2.253-5.473-5.611s1.978-6.001 5.22-6.001c3.633 0 4.599 3.196 4.599 5.243 0 .414-.046.736-.069.943h-7.819zm5.933-1.448c.023-1.288-.529-3.288-2.806-3.288-2.046 0-2.943 1.885-3.104 3.288zm4.463-1.472c0-1.15-.023-2.093-.092-3.012h1.794l.115 1.839h.046c.552-1.058 1.84-2.092 3.679-2.092 1.541 0 3.932.919 3.932 4.737v6.646h-2.023v-6.416c0-1.793-.667-3.289-2.575-3.289-1.334 0-2.369.943-2.713 2.07-.092.253-.138.598-.138.943v6.691h-2.023v-8.117zm18.928 8.117-.161-1.403h-.069c-.621.874-1.816 1.656-3.403 1.656-2.253 0-3.403-1.586-3.403-3.196 0-2.69 2.392-4.162 6.692-4.139v-.23c0-.92-.253-2.575-2.53-2.575-1.035 0-2.115.322-2.897.828l-.459-1.333c.919-.598 2.253-.989 3.656-.989 3.403 0 4.231 2.322 4.231 4.553v4.162c0 .966.046 1.909.184 2.667h-1.841zm-.299-5.68c-2.208-.046-4.714.345-4.714 2.506 0 1.311.874 1.932 1.908 1.932 1.449 0 2.369-.92 2.69-1.863.069-.207.115-.437.115-.644zm4.946 3.611c.598.391 1.655.805 2.667.805 1.472 0 2.161-.736 2.161-1.656 0-.966-.575-1.495-2.069-2.046-2-.713-2.943-1.817-2.943-3.15 0-1.793 1.449-3.265 3.84-3.265 1.126 0 2.115.322 2.736.689l-.506 1.472a4.33 4.33 0 0 0-2.277-.644c-1.195 0-1.862.69-1.862 1.518 0 .92.667 1.333 2.115 1.886 1.932.736 2.92 1.702 2.92 3.357 0 1.955-1.518 3.334-4.162 3.334-1.219 0-2.345-.299-3.127-.759zM238.594 357.8c0-1.149-.023-2.093-.092-3.013h1.771l.092 1.794h.069c.621-1.058 1.656-2.047 3.496-2.047 1.518 0 2.667.92 3.15 2.23h.046a4.6 4.6 0 0 1 1.242-1.448c.667-.506 1.402-.782 2.46-.782 1.472 0 3.656.966 3.656 4.829v6.554h-1.978v-6.301c0-2.139-.782-3.426-2.415-3.426-1.15 0-2.047.851-2.392 1.839a3.3 3.3 0 0 0-.161 1.012v6.876h-1.978v-6.669c0-1.771-.782-3.058-2.322-3.058-1.265 0-2.185 1.012-2.506 2.023a2.8 2.8 0 0 0-.161.988v6.715h-1.978V357.8zm25.344 8.117-.161-1.402h-.069c-.621.873-1.816 1.655-3.403 1.655-2.253 0-3.403-1.587-3.403-3.196 0-2.69 2.392-4.162 6.692-4.139v-.23c0-.92-.253-2.575-2.53-2.575-1.035 0-2.115.322-2.897.828l-.459-1.334c.919-.598 2.253-.989 3.656-.989 3.403 0 4.231 2.323 4.231 4.554v4.162c0 .966.046 1.908.184 2.667zm-.298-5.68c-2.208-.046-4.714.345-4.714 2.507 0 1.311.874 1.931 1.908 1.931 1.449 0 2.369-.919 2.69-1.862.069-.207.115-.437.115-.644zm5.222-10.646h2.023v16.326h-2.023zm11.59 16.326-.161-1.402h-.069c-.621.873-1.816 1.655-3.403 1.655-2.253 0-3.403-1.587-3.403-3.196 0-2.69 2.392-4.162 6.692-4.139v-.23c0-.92-.253-2.575-2.53-2.575-1.035 0-2.115.322-2.897.828l-.459-1.334c.919-.598 2.253-.989 3.656-.989 3.403 0 4.231 2.323 4.231 4.554v4.162c0 .966.046 1.908.184 2.667zm-.299-5.68c-2.208-.046-4.714.345-4.714 2.507 0 1.311.874 1.931 1.908 1.931 1.449 0 2.369-.919 2.69-1.862.069-.207.115-.437.115-.644zm4.947 3.611c.598.391 1.655.805 2.667.805 1.472 0 2.161-.736 2.161-1.655 0-.966-.575-1.495-2.069-2.047-2-.713-2.943-1.816-2.943-3.15 0-1.794 1.449-3.266 3.84-3.266 1.126 0 2.115.322 2.736.69l-.506 1.472a4.33 4.33 0 0 0-2.277-.645c-1.195 0-1.862.69-1.862 1.518 0 .92.667 1.334 2.115 1.886 1.932.736 2.92 1.702 2.92 3.357 0 1.955-1.518 3.334-4.162 3.334-1.219 0-2.345-.299-3.127-.759zm294.656-80.286c1.407 2.347 3.484 2.449 5.236 1.437 1.255-.724 1.885-1.379 2.382-2.037l1.022 1.082c-.456.635-1.328 1.563-2.861 2.447-2.968 1.714-5.865.786-7.545-2.121-1.678-2.908-1.288-6.188 1.521-7.809 3.146-1.816 5.58.469 6.604 2.242.207.357.327.659.412.85zm4.413-4.22c-.624-1.127-2.103-2.584-4.073-1.445-1.773 1.023-1.607 3.105-1.045 4.4zm5.913 1.869c.715.039 1.838-.131 2.713-.637 1.275-.736 1.504-1.719 1.045-2.514-.483-.837-1.245-1.008-2.816-.738-2.089.383-3.457-.102-4.123-1.257-.897-1.554-.379-3.552 1.692-4.748.976-.563 1.993-.779 2.714-.771l.299 1.527a4.33 4.33 0 0 0-2.294.58c-1.035.598-1.268 1.529-.854 2.246.461.796 1.245.821 2.775.574 2.041-.328 3.381.014 4.208 1.447.978 1.693.353 3.646-1.938 4.969-1.056.609-2.181.914-3.089.907zm4.111-16.525 1.598 2.768 2.51-1.448.77 1.334-2.509 1.448 3.001 5.199c.689 1.193 1.418 1.676 2.395 1.112.459-.265.762-.521.947-.706l.838 1.269c-.258.335-.738.744-1.416 1.136-.816.471-1.623.592-2.316.355-.797-.23-1.471-.984-2.126-2.119l-3.035-5.257-1.493.862-.771-1.334 1.493-.862-1.334-2.31zm7.817 3.187a53 53 0 0 0-1.815-2.961l1.533-.886 1.151 1.857.08-.046c-.309-1.547.274-2.974 1.449-3.652.199-.114.35-.175.533-.227l.953 1.652a3 3 0 0 0-.631.285c-1.235.713-1.571 2.154-1.051 3.606.098.263.219.564.392.862l2.966 5.139-1.732 1zm5.165-10.603c.364.587.202 1.317-.495 1.72-.617.356-1.331.132-1.676-.466-.357-.617-.176-1.359.463-1.728.656-.38 1.351-.144 1.708.474m5.177 13.474-5.565-9.639 1.753-1.012 5.564 9.639zm11.324-7.016c-.32.504-1.152 1.408-2.446 2.155-2.907 1.679-5.938.8-7.64-2.147-1.713-2.967-.923-6.29 2.223-8.106 1.035-.598 2.102-.869 2.718-.906l.384 1.585c-.557.003-1.341.163-2.297.715-2.211 1.276-2.463 3.599-1.301 5.61 1.287 2.23 3.515 2.776 5.426 1.673.996-.575 1.504-1.214 1.875-1.72zm-2.793-14.452 1.599 2.768 2.509-1.448.771 1.334-2.509 1.448 3 5.198c.689 1.193 1.42 1.676 2.396 1.113a4.5 4.5 0 0 0 .946-.707l.839 1.27c-.258.334-.738.744-1.416 1.135-.815.471-1.622.592-2.317.355-.796-.23-1.47-.983-2.125-2.118l-3.035-5.257-1.494.861-.77-1.334 1.493-.861-1.333-2.311zm16.982 6.738-.84-1.135-.061.035c-.102 1.066-.745 2.342-2.119 3.135-1.952 1.127-3.741.327-4.546-1.066-1.345-2.33-.01-4.801 3.726-6.93l-.115-.2c-.46-.797-1.506-2.104-3.479-.966-.895.517-1.67 1.337-2.095 2.166l-1.065-.925c.498-.978 1.458-1.983 2.672-2.685 2.947-1.702 4.826-.104 5.941 1.828l2.081 3.604c.483.837.994 1.631 1.493 2.219zm-3.098-4.77c-1.935 1.063-3.91 2.655-2.829 4.527.655 1.135 1.723 1.235 2.619.718 1.254-.724 1.591-1.979 1.398-2.958a2.1 2.1 0 0 0-.223-.614zm3.303-4.722a40 40 0 0 0-1.585-2.563l1.533-.885.976 1.507.061-.035c.008-1.226.41-2.6 2.004-3.52 1.313-.759 2.77-.537 3.843.356l.04-.023a4.6 4.6 0 0 1 .351-1.875c.325-.771.824-1.379 1.74-1.908 1.274-.736 3.649-.992 5.581 2.354l3.277 5.675-1.713.989-3.15-5.457c-1.07-1.852-2.391-2.576-3.805-1.759-.996.575-1.347 1.76-1.152 2.789.059.285.184.638.367.956l3.438 5.955-1.712.989-3.335-5.775c-.886-1.533-2.206-2.257-3.541-1.486-1.095.632-1.386 1.969-1.158 3.005.05.316.183.638.354.937l3.357 5.815-1.713.988zm19.048-7.626c1.408 2.347 3.484 2.449 5.237 1.438 1.255-.725 1.885-1.38 2.382-2.038l1.022 1.082c-.456.635-1.328 1.563-2.861 2.448-2.968 1.713-5.866.786-7.545-2.122s-1.288-6.187 1.52-7.808c3.146-1.816 5.58.469 6.604 2.241.207.358.328.66.412.85zm4.414-4.22c-.625-1.127-2.103-2.583-4.074-1.445-1.772 1.023-1.606 3.105-1.044 4.4zm3.13-3.507a39 39 0 0 0-1.586-2.563l1.553-.896 1.02 1.535.04-.023c-.052-1.191.547-2.732 2.141-3.652 1.334-.77 3.864-1.169 5.772 2.137l3.323 5.755-1.752 1.012-3.208-5.556c-.896-1.553-2.222-2.514-3.875-1.56-1.154.667-1.578 2.001-1.314 3.149.047.265.18.587.352.886l3.346 5.795-1.752 1.012zm10.062-12.978 1.598 2.768 2.51-1.449.771 1.334-2.51 1.449 3.001 5.198c.689 1.194 1.419 1.676 2.395 1.113.458-.265.763-.52.947-.706l.838 1.269c-.257.335-.738.744-1.415 1.135-.816.471-1.623.592-2.318.356-.795-.23-1.47-.984-2.125-2.119l-3.035-5.257-1.493.862-.771-1.334 1.493-.862-1.333-2.31zm10.022 4.754c1.408 2.347 3.484 2.449 5.237 1.437 1.255-.724 1.885-1.38 2.382-2.038l1.021 1.082c-.455.635-1.328 1.563-2.861 2.448-2.967 1.713-5.865.786-7.545-2.122-1.678-2.908-1.287-6.187 1.521-7.808 3.146-1.816 5.58.469 6.604 2.241.207.358.328.66.412.85zm4.414-4.22c-.625-1.127-2.104-2.583-4.074-1.445-1.773 1.023-1.606 3.105-1.045 4.4zm-100.332 79.328c.365.586.203 1.316-.494 1.719-.617.357-1.332.132-1.676-.465-.357-.617-.176-1.359.463-1.728.656-.38 1.352-.143 1.707.474m5.178 13.474-5.565-9.639 1.753-1.012 5.564 9.639zm.601-9.72a39 39 0 0 0-1.586-2.563l1.553-.896 1.02 1.536.04-.023c-.051-1.191.547-2.732 2.141-3.652 1.333-.77 3.864-1.169 5.773 2.137l3.323 5.756-1.753 1.012-3.208-5.557c-.896-1.553-2.222-2.515-3.874-1.561-1.155.667-1.579 2.002-1.315 3.149.047.265.18.587.352.886l3.346 5.795-1.752 1.012zm21.778-3.679c-.32.505-1.152 1.409-2.447 2.155-2.907 1.68-5.938.801-7.639-2.147-1.713-2.967-.924-6.29 2.223-8.106 1.035-.598 2.102-.868 2.717-.904l.385 1.584c-.558.002-1.342.162-2.297.714-2.211 1.276-2.463 3.6-1.302 5.61 1.288 2.23 3.516 2.776 5.427 1.673.996-.575 1.504-1.214 1.875-1.72zm8.053-10.704c2.058 3.564.486 6.543-1.844 7.889-2.608 1.506-5.724.756-7.483-2.291-1.862-3.227-.844-6.337 1.824-7.877 2.769-1.599 5.802-.667 7.503 2.279m-7.588 4.514c1.219 2.111 3.354 3.003 5.066 2.015 1.672-.967 2.019-3.264.766-5.435-.943-1.634-2.955-3.233-5.027-2.037s-1.864 3.626-.805 5.457m8.572-7.922a39 39 0 0 0-1.586-2.563l1.533-.886.977 1.507.061-.034c.008-1.226.41-2.601 2.003-3.521 1.313-.758 2.77-.536 3.843.357l.041-.023a4.6 4.6 0 0 1 .35-1.875c.325-.771.824-1.379 1.74-1.908 1.275-.735 3.65-.991 5.582 2.354l3.276 5.676-1.713.989-3.15-5.457c-1.069-1.853-2.39-2.576-3.804-1.76-.996.575-1.348 1.76-1.152 2.789.059.285.184.638.367.956l3.438 5.954-1.712.989-3.335-5.775c-.885-1.534-2.206-2.257-3.541-1.486-1.095.632-1.385 1.968-1.158 3.005a2.8 2.8 0 0 0 .355.937l3.357 5.815-1.713.988zm16.922-9.053a81 81 0 0 0-1.896-3.102l1.573-.908 1.034 1.607.04-.022c.038-1.59.771-2.942 2.344-3.851 2.33-1.345 5.221-.385 6.911 2.543 2 3.465.879 6.396-1.392 7.707-1.274.735-2.712.822-3.841.199l-.04.022 3.024 5.237-1.732 1.001zm3.216 1.568c.149.258.327.475.493.671 1.02 1.03 2.559 1.258 3.813.533 1.853-1.069 2.054-3.203.776-5.413-1.115-1.932-3.084-2.998-4.936-1.93-1.195.689-1.816 2.189-1.396 3.699.066.254.156.547.295.786zm17.202-4.701-.84-1.135-.06.035c-.102 1.066-.745 2.342-2.12 3.135-1.951 1.127-3.74.328-4.545-1.066-1.346-2.33-.01-4.801 3.726-6.93l-.115-.199c-.46-.797-1.507-2.104-3.478-.966-.896.517-1.672 1.337-2.096 2.166l-1.065-.925c.497-.979 1.457-1.984 2.672-2.686 2.947-1.701 4.826-.104 5.941 1.828l2.081 3.604c.482.837.994 1.63 1.492 2.218zm-3.098-4.769c-1.935 1.064-3.91 2.656-2.83 4.527.656 1.136 1.723 1.236 2.619.719 1.254-.725 1.592-1.98 1.398-2.959a2 2 0 0 0-.223-.614zm3.533-4.325a52 52 0 0 0-1.815-2.961l1.533-.885 1.151 1.857.08-.047c-.309-1.547.275-2.973 1.45-3.651.198-.114.351-.175.532-.228l.955 1.652a3 3 0 0 0-.633.286c-1.234.713-1.57 2.154-1.051 3.606.099.262.219.564.392.863l2.966 5.138-1.731 1zm15.58-.152-.84-1.135-.061.035c-.102 1.066-.745 2.342-2.119 3.135-1.953 1.127-3.741.328-4.546-1.066-1.345-2.33-.01-4.801 3.726-6.93l-.115-.199c-.46-.797-1.507-2.104-3.479-.966-.896.517-1.67 1.337-2.095 2.166l-1.065-.925c.498-.979 1.457-1.984 2.672-2.686 2.947-1.701 4.826-.104 5.941 1.828l2.081 3.604c.483.837.993 1.63 1.492 2.218zm-3.099-4.77c-1.934 1.064-3.909 2.656-2.828 4.527.655 1.136 1.723 1.236 2.619.719 1.254-.725 1.591-1.98 1.398-2.959a2.1 2.1 0 0 0-.223-.614zm7.283 2.354c-.339-.68-.863-1.68-1.357-2.535l-6.726-11.65 1.731-1 3.496 6.054.041-.023c-.004-1.433.708-2.773 2.262-3.67 2.389-1.379 5.232-.365 6.902 2.574 1.988 3.446.807 6.411-1.344 7.653-1.395.805-2.819.91-4.272.051l-.06.034.84 1.64zm-.418-4.909a4 4 0 0 0 .447.591c1.041 1.02 2.539 1.27 3.813.533 1.832-1.057 2.065-3.184.788-5.394-1.115-1.932-3.064-3.01-4.936-1.929-1.195.69-1.84 2.151-1.428 3.692.074.222.152.496.313.773zm3.668-15.819 1.752-1.012 8.164 14.139-1.753 1.012zm11.242 6.36c1.407 2.347 3.484 2.449 5.237 1.437 1.254-.724 1.884-1.38 2.381-2.038l1.022 1.082c-.456.636-1.328 1.563-2.861 2.448-2.967 1.714-5.865.785-7.545-2.123-1.678-2.908-1.288-6.187 1.52-7.808 3.146-1.816 5.581.469 6.604 2.241.207.359.328.66.412.851zm4.413-4.22c-.624-1.126-2.103-2.583-4.073-1.445-1.773 1.023-1.606 3.105-1.045 4.4zm5.914 1.87c.714.039 1.837-.131 2.712-.637 1.275-.736 1.504-1.718 1.045-2.514-.482-.836-1.245-1.008-2.816-.738-2.089.383-3.457-.102-4.123-1.257-.897-1.554-.379-3.552 1.691-4.748.977-.563 1.994-.779 2.716-.77l.298 1.527a4.33 4.33 0 0 0-2.294.58c-1.035.598-1.268 1.529-.854 2.245.461.797 1.245.822 2.775.576 2.041-.328 3.381.014 4.208 1.447.978 1.693.353 3.646-1.938 4.968-1.056.609-2.181.914-3.089.907z"/>
  <path d="m381.393 172.82 2.185 6.254c.368 1.012.667 1.932.897 2.852h.069c.253-.92.575-1.84.943-2.852l2.162-6.254h2.115l-4.369 11.129h-1.932l-4.231-11.129zm12.534-3.128c.023.69-.483 1.242-1.288 1.242-.713 0-1.219-.552-1.219-1.242 0-.713.529-1.265 1.265-1.265.759.001 1.242.552 1.242 1.265m-2.253 14.257V172.82h2.023v11.129zm14.993-16.326v13.452c0 .989.023 2.116.092 2.875h-1.816l-.092-1.932h-.046c-.621 1.242-1.978 2.185-3.794 2.185-2.69 0-4.76-2.276-4.76-5.657-.023-3.702 2.276-5.979 4.99-5.979 1.702 0 2.852.805 3.357 1.702h.046v-6.646zm-2.023 9.727c0-.253-.023-.598-.092-.851-.299-1.288-1.402-2.346-2.92-2.346-2.093 0-3.334 1.84-3.334 4.3 0 2.253 1.104 4.116 3.288 4.116 1.357 0 2.599-.896 2.966-2.414.069-.276.092-.552.092-.874zm11.546 6.599-.161-1.403h-.069c-.621.874-1.816 1.656-3.403 1.656-2.253 0-3.403-1.586-3.403-3.196 0-2.69 2.392-4.162 6.692-4.139v-.23c0-.92-.253-2.575-2.53-2.575-1.035 0-2.115.322-2.897.828l-.459-1.333c.919-.598 2.253-.989 3.656-.989 3.403 0 4.231 2.322 4.231 4.553v4.162c0 .966.046 1.909.184 2.667h-1.841zm-.298-5.679c-2.208-.046-4.714.345-4.714 2.506 0 1.311.874 1.932 1.908 1.932 1.449 0 2.369-.92 2.69-1.863.069-.207.115-.437.115-.644zm4.946 3.61c.598.391 1.655.805 2.667.805 1.472 0 2.162-.736 2.162-1.656 0-.966-.575-1.495-2.07-2.046-2-.713-2.943-1.817-2.943-3.15 0-1.793 1.449-3.265 3.84-3.265 1.127 0 2.115.322 2.736.689l-.506 1.472a4.34 4.34 0 0 0-2.277-.644c-1.195 0-1.862.69-1.862 1.518 0 .92.667 1.333 2.115 1.886 1.932.736 2.92 1.702 2.92 3.357 0 1.955-1.518 3.334-4.162 3.334-1.219 0-2.345-.299-3.127-.759zm14.26-6.048c0-1.15-.023-2.093-.092-3.012h1.771l.092 1.793h.069c.62-1.058 1.655-2.046 3.495-2.046 1.518 0 2.667.919 3.15 2.23h.046a4.6 4.6 0 0 1 1.241-1.449c.667-.506 1.403-.782 2.461-.782 1.472 0 3.656.966 3.656 4.829v6.554h-1.978v-6.301c0-2.138-.782-3.426-2.415-3.426-1.149 0-2.046.851-2.392 1.84-.092.276-.16.644-.16 1.012v6.875h-1.978v-6.668c0-1.771-.782-3.059-2.323-3.059-1.265 0-2.185 1.012-2.506 2.024a2.8 2.8 0 0 0-.161.989v6.714h-1.978v-8.117zm20.308 2.92c.046 2.736 1.793 3.863 3.816 3.863 1.449 0 2.323-.253 3.082-.575l.345 1.449c-.713.322-1.932.69-3.702.69-3.427 0-5.473-2.253-5.473-5.611s1.978-6.001 5.22-6.001c3.633 0 4.599 3.196 4.599 5.243 0 .414-.046.736-.068.943h-7.819zm5.933-1.448c.022-1.288-.529-3.288-2.806-3.288-2.047 0-2.943 1.885-3.104 3.288zm14.075-9.681v13.452c0 .989.022 2.116.092 2.875h-1.816l-.093-1.932h-.046c-.621 1.242-1.978 2.185-3.794 2.185-2.69 0-4.76-2.276-4.76-5.657-.023-3.702 2.276-5.979 4.989-5.979 1.702 0 2.852.805 3.357 1.702h.046v-6.646zm-2.024 9.727c0-.253-.022-.598-.092-.851-.299-1.288-1.402-2.346-2.92-2.346-2.093 0-3.335 1.84-3.335 4.3 0 2.253 1.104 4.116 3.289 4.116 1.356 0 2.598-.896 2.966-2.414.069-.276.092-.552.092-.874zm7.638-7.658c.022.69-.483 1.242-1.288 1.242-.713 0-1.219-.552-1.219-1.242 0-.713.528-1.265 1.265-1.265.759.001 1.242.552 1.242 1.265m-2.254 14.257V172.82h2.023v11.129zm15.454-5.657c0 4.116-2.851 5.91-5.541 5.91-3.013 0-5.335-2.208-5.335-5.726 0-3.726 2.438-5.91 5.519-5.91 3.195.001 5.357 2.323 5.357 5.726m-8.831.115c0 2.438 1.403 4.277 3.381 4.277 1.932 0 3.38-1.817 3.38-4.323 0-1.885-.942-4.277-3.334-4.277s-3.427 2.208-3.427 4.323m19.32 5.128c-.529.276-1.702.644-3.196.644-3.357 0-5.542-2.276-5.542-5.68 0-3.426 2.346-5.91 5.979-5.91 1.195 0 2.254.299 2.806.575l-.46 1.563c-.483-.276-1.242-.529-2.346-.529-2.553 0-3.933 1.886-3.933 4.208 0 2.576 1.656 4.162 3.863 4.162 1.15 0 1.909-.299 2.483-.552zm2.37-7.243a53 53 0 0 0-.092-3.472h1.771l.068 2.185h.093c.506-1.495 1.725-2.438 3.081-2.438.229 0 .391.023.575.069v1.909a3 3 0 0 0-.69-.069c-1.426 0-2.438 1.081-2.713 2.599a6 6 0 0 0-.092.943v5.933h-2.001zm8.647 2.46c.046 2.736 1.793 3.863 3.816 3.863 1.449 0 2.323-.253 3.082-.575l.345 1.449c-.713.322-1.932.69-3.702.69-3.427 0-5.473-2.253-5.473-5.611s1.978-6.001 5.22-6.001c3.633 0 4.599 3.196 4.599 5.243 0 .414-.046.736-.068.943h-7.819zm5.933-1.448c.022-1.288-.529-3.288-2.806-3.288-2.047 0-2.943 1.885-3.104 3.288zm4.187 4.576c.599.391 1.656.805 2.668.805 1.472 0 2.161-.736 2.161-1.656 0-.966-.574-1.495-2.069-2.046-2.001-.713-2.943-1.817-2.943-3.15 0-1.793 1.448-3.265 3.84-3.265 1.127 0 2.116.322 2.736.689l-.506 1.472a4.33 4.33 0 0 0-2.276-.644c-1.195 0-1.862.69-1.862 1.518 0 .92.667 1.333 2.115 1.886 1.932.736 2.921 1.702 2.921 3.357 0 1.955-1.518 3.334-4.162 3.334-1.219 0-2.346-.299-3.128-.759z" fill="#1B4B7F"/>
  <path d="m355.127 38.362 2.185 6.254c.368 1.012.667 1.932.897 2.852h.069c.253-.92.575-1.84.943-2.852l2.162-6.254h2.115l-4.369 11.129h-1.932l-4.231-11.129zm16.443 11.129-.161-1.403h-.069c-.621.874-1.816 1.656-3.403 1.656-2.253 0-3.403-1.586-3.403-3.196 0-2.69 2.392-4.162 6.692-4.139v-.23c0-.92-.253-2.575-2.53-2.575-1.035 0-2.115.322-2.897.828l-.459-1.333c.919-.598 2.253-.989 3.656-.989 3.403 0 4.231 2.322 4.231 4.553v4.162c0 .966.046 1.909.184 2.667h-1.841zm-.299-5.679c-2.208-.046-4.714.345-4.714 2.506 0 1.311.874 1.932 1.908 1.932 1.449 0 2.369-.92 2.69-1.863.069-.207.115-.437.115-.644zm5.223-10.647h2.023v16.327h-2.023zm15.5 10.669c0 4.116-2.852 5.91-5.542 5.91-3.012 0-5.334-2.208-5.334-5.726 0-3.726 2.438-5.91 5.519-5.91 3.195.001 5.357 2.323 5.357 5.726m-8.83.115c0 2.438 1.403 4.277 3.38 4.277 1.932 0 3.38-1.817 3.38-4.323 0-1.885-.942-4.277-3.334-4.277s-3.426 2.208-3.426 4.323m11.384-2.115a53 53 0 0 0-.092-3.472h1.771l.069 2.185h.092c.506-1.495 1.725-2.438 3.082-2.438.23 0 .391.023.575.069v1.909a3 3 0 0 0-.69-.069c-1.425 0-2.437 1.081-2.713 2.599a6 6 0 0 0-.092.943v5.933h-2v-7.659zm8.648 2.46c.046 2.736 1.794 3.863 3.817 3.863 1.449 0 2.322-.253 3.082-.575l.345 1.449c-.713.322-1.932.69-3.702.69-3.426 0-5.473-2.253-5.473-5.611s1.978-6.001 5.22-6.001c3.633 0 4.599 3.196 4.599 5.243 0 .414-.046.736-.069.943zm5.933-1.448c.023-1.288-.529-3.288-2.806-3.288-2.046 0-2.943 1.885-3.104 3.288zm4.187 4.576c.598.391 1.655.805 2.667.805 1.472 0 2.161-.736 2.161-1.656 0-.966-.575-1.495-2.069-2.046-2-.713-2.943-1.817-2.943-3.15 0-1.793 1.449-3.265 3.84-3.265 1.126 0 2.115.322 2.736.689l-.506 1.472a4.33 4.33 0 0 0-2.277-.644c-1.195 0-1.862.69-1.862 1.518 0 .92.667 1.333 2.115 1.886 1.932.736 2.92 1.702 2.92 3.357 0 1.955-1.518 3.334-4.162 3.334-1.219 0-2.345-.299-3.127-.759zm14.26-5.427a79 79 0 0 0-.092-3.633h1.816l.092 1.908h.046c.828-1.356 2.139-2.161 3.955-2.161 2.69 0 4.714 2.276 4.714 5.657 0 4.001-2.438 5.979-5.059 5.979-1.472 0-2.76-.644-3.426-1.748h-.047v6.048h-2zm2 2.966c0 .299.047.575.093.828.367 1.403 1.586 2.369 3.035 2.369 2.139 0 3.38-1.748 3.38-4.3 0-2.23-1.173-4.139-3.311-4.139-1.38 0-2.668.989-3.059 2.506-.069.253-.139.552-.139.828zm21.158-1.127c0 4.116-2.851 5.91-5.541 5.91-3.013 0-5.335-2.208-5.335-5.726 0-3.726 2.438-5.91 5.519-5.91 3.196.001 5.357 2.323 5.357 5.726m-8.83.115c0 2.438 1.403 4.277 3.381 4.277 1.932 0 3.38-1.817 3.38-4.323 0-1.885-.942-4.277-3.334-4.277s-3.427 2.208-3.427 4.323m11.109 3.473c.599.391 1.656.805 2.668.805 1.472 0 2.161-.736 2.161-1.656 0-.966-.574-1.495-2.069-2.046-2.001-.713-2.943-1.817-2.943-3.15 0-1.793 1.448-3.265 3.84-3.265 1.127 0 2.116.322 2.736.689l-.506 1.472a4.33 4.33 0 0 0-2.276-.644c-1.195 0-1.862.69-1.862 1.518 0 .92.667 1.333 2.115 1.886 1.932.736 2.921 1.702 2.921 3.357 0 1.955-1.518 3.334-4.162 3.334-1.219 0-2.346-.299-3.128-.759zm11.638-12.188c.022.69-.483 1.242-1.288 1.242-.713 0-1.219-.552-1.219-1.242 0-.713.528-1.265 1.265-1.265.759.001 1.242.552 1.242 1.265m-2.254 14.257V38.362h2.023v11.129zm5.291 0a52 52 0 0 0 .092-2.875V33.165h2v6.991h.047c.713-1.242 2-2.046 3.794-2.046 2.759 0 4.714 2.299 4.69 5.68 0 3.978-2.506 5.956-4.989 5.956-1.61 0-2.897-.621-3.726-2.093h-.069l-.092 1.84h-1.747zm2.091-4.461c0 .253.047.506.093.736.391 1.403 1.563 2.368 3.035 2.368 2.115 0 3.38-1.725 3.38-4.277 0-2.23-1.149-4.139-3.311-4.139-1.38 0-2.668.943-3.082 2.483-.046.23-.115.506-.115.828zm11.087-11.865h2.023v16.327h-2.023zm6.555 11.129c.046 2.736 1.793 3.863 3.817 3.863 1.448 0 2.322-.253 3.081-.575l.345 1.449c-.713.322-1.932.69-3.702.69-3.427 0-5.473-2.253-5.473-5.611s1.978-6.001 5.22-6.001c3.633 0 4.599 3.196 4.599 5.243 0 .414-.046.736-.068.943zm5.933-1.448c.022-1.288-.529-3.288-2.806-3.288-2.047 0-2.943 1.885-3.104 3.288zm4.186 4.576c.599.391 1.656.805 2.668.805 1.472 0 2.161-.736 2.161-1.656 0-.966-.574-1.495-2.069-2.046-2.001-.713-2.943-1.817-2.943-3.15 0-1.793 1.448-3.265 3.84-3.265 1.127 0 2.116.322 2.736.689l-.506 1.472a4.33 4.33 0 0 0-2.276-.644c-1.195 0-1.862.69-1.862 1.518 0 .92.667 1.333 2.115 1.886 1.932.736 2.921 1.702 2.921 3.357 0 1.955-1.518 3.334-4.162 3.334-1.219 0-2.346-.299-3.128-.759zm23.872-14.257v13.452c0 .989.022 2.116.092 2.875h-1.816l-.093-1.932h-.046c-.621 1.242-1.978 2.185-3.794 2.185-2.69 0-4.76-2.276-4.76-5.657-.023-3.702 2.276-5.979 4.989-5.979 1.702 0 2.852.805 3.357 1.702h.046v-6.646zm-2.024 9.727c0-.253-.022-.598-.092-.851-.299-1.288-1.402-2.346-2.92-2.346-2.093 0-3.335 1.84-3.335 4.3 0 2.253 1.104 4.116 3.289 4.116 1.356 0 2.598-.896 2.966-2.414.069-.276.092-.552.092-.874zm6.511 1.402c.046 2.736 1.793 3.863 3.817 3.863 1.448 0 2.322-.253 3.081-.575l.345 1.449c-.713.322-1.932.69-3.702.69-3.427 0-5.473-2.253-5.473-5.611s1.978-6.001 5.22-6.001c3.633 0 4.599 3.196 4.599 5.243 0 .414-.046.736-.068.943zm5.933-1.448c.022-1.288-.529-3.288-2.806-3.288-2.047 0-2.943 1.885-3.104 3.288zm9.339-9.681h2.023v16.327h-2.023zm11.59 16.326-.16-1.403h-.069c-.621.874-1.816 1.656-3.403 1.656-2.254 0-3.403-1.586-3.403-3.196 0-2.69 2.392-4.162 6.691-4.139v-.23c0-.92-.253-2.575-2.529-2.575-1.034 0-2.115.322-2.897.828l-.46-1.333c.92-.598 2.254-.989 3.656-.989 3.403 0 4.231 2.322 4.231 4.553v4.162c0 .966.046 1.909.184 2.667h-1.841zm-.299-5.679c-2.207-.046-4.714.345-4.714 2.506 0 1.311.874 1.932 1.909 1.932 1.448 0 2.368-.92 2.69-1.863.068-.207.114-.437.114-.644zm4.946 3.61c.599.391 1.656.805 2.668.805 1.472 0 2.161-.736 2.161-1.656 0-.966-.574-1.495-2.069-2.046-2.001-.713-2.943-1.817-2.943-3.15 0-1.793 1.448-3.265 3.84-3.265 1.127 0 2.116.322 2.736.689l-.506 1.472a4.33 4.33 0 0 0-2.276-.644c-1.195 0-1.862.69-1.862 1.518 0 .92.667 1.333 2.115 1.886 1.932.736 2.921 1.702 2.921 3.357 0 1.955-1.518 3.334-4.162 3.334-1.219 0-2.346-.299-3.128-.759zm15.042-9.06 2.184 6.254c.368 1.012.667 1.932.897 2.852h.068c.253-.92.575-1.84.943-2.852l2.161-6.254h2.116l-4.369 11.129h-1.932l-4.231-11.129zm12.534-3.128c.022.69-.483 1.242-1.288 1.242-.713 0-1.219-.552-1.219-1.242 0-.713.528-1.265 1.265-1.265.759.001 1.242.552 1.242 1.265m-2.254 14.257V38.362h2.023v11.129zm14.995-16.326v13.452c0 .989.022 2.116.092 2.875H596l-.093-1.932h-.046c-.621 1.242-1.978 2.185-3.794 2.185-2.69 0-4.76-2.276-4.76-5.657-.023-3.702 2.276-5.979 4.989-5.979 1.702 0 2.852.805 3.357 1.702h.046v-6.646zm-2.025 9.727c0-.253-.022-.598-.092-.851-.299-1.288-1.402-2.346-2.92-2.346-2.093 0-3.335 1.84-3.335 4.3 0 2.253 1.104 4.116 3.289 4.116 1.356 0 2.598-.896 2.966-2.414.069-.276.092-.552.092-.874zm11.547 6.599-.16-1.403h-.069c-.621.874-1.816 1.656-3.403 1.656-2.254 0-3.403-1.586-3.403-3.196 0-2.69 2.392-4.162 6.691-4.139v-.23c0-.92-.253-2.575-2.529-2.575-1.034 0-2.115.322-2.897.828l-.46-1.333c.92-.598 2.254-.989 3.656-.989 3.403 0 4.231 2.322 4.231 4.553v4.162c0 .966.046 1.909.184 2.667h-1.841zm-.299-5.679c-2.207-.046-4.714.345-4.714 2.506 0 1.311.874 1.932 1.909 1.932 1.448 0 2.368-.92 2.69-1.863.068-.207.114-.437.114-.644zm4.947 3.61c.599.391 1.656.805 2.668.805 1.472 0 2.161-.736 2.161-1.656 0-.966-.574-1.495-2.069-2.046-2.001-.713-2.943-1.817-2.943-3.15 0-1.793 1.448-3.265 3.84-3.265 1.127 0 2.116.322 2.736.689l-.506 1.472a4.33 4.33 0 0 0-2.276-.644c-1.195 0-1.862.69-1.862 1.518 0 .92.667 1.333 2.115 1.886 1.932.736 2.921 1.702 2.921 3.357 0 1.955-1.518 3.334-4.162 3.334-1.219 0-2.346-.299-3.128-.759z" fill="#285E00"/>
  <path d="M443.448 276.158c-.34-.68-.863-1.679-1.357-2.534l-6.726-11.65 1.733-1.001 3.494 6.055.04-.023c-.004-1.432.708-2.772 2.263-3.67 2.389-1.379 5.232-.365 6.901 2.574 1.989 3.445.808 6.411-1.343 7.652-1.395.806-2.82.911-4.273.051l-.06.035.841 1.639zm-.418-4.909c.127.22.293.415.447.591 1.04 1.02 2.539 1.27 3.813.534 1.831-1.058 2.064-3.184.788-5.394-1.115-1.932-3.064-3.01-4.936-1.93-1.195.689-1.84 2.15-1.428 3.691.074.223.154.496.314.773zm17.725-11.614c2.059 3.564.486 6.543-1.844 7.889-2.609 1.506-5.723.756-7.482-2.291-1.863-3.227-.844-6.338 1.824-7.878 2.768-1.599 5.801-.667 7.502 2.28m-7.59 4.514c1.219 2.11 3.354 3.003 5.067 2.014 1.673-.966 2.019-3.263.765-5.435-.942-1.633-2.954-3.232-5.025-2.037-2.072 1.197-1.864 3.626-.807 5.458m8.803-7.524a52 52 0 0 0-1.815-2.962l1.534-.886 1.15 1.857.08-.046c-.309-1.547.275-2.974 1.45-3.651.198-.115.351-.175.532-.228l.955 1.653a3 3 0 0 0-.633.285c-1.234.713-1.57 2.154-1.051 3.606.1.263.22.564.393.863l2.966 5.138-1.732 1zm6.513-3.761a52 52 0 0 0-1.816-2.961l1.533-.885 1.152 1.857.08-.047c-.309-1.546.275-2.973 1.449-3.651.199-.115.35-.175.533-.228l.954 1.653a3 3 0 0 0-.632.286c-1.235.713-1.571 2.155-1.051 3.606.098.263.22.564.393.863l2.966 5.138-1.733 1.001zm16.237-7.064c2.058 3.565.486 6.544-1.844 7.89-2.609 1.506-5.725.756-7.483-2.291-1.862-3.227-.845-6.338 1.824-7.878 2.768-1.599 5.802-.667 7.503 2.279m-7.59 4.514c1.219 2.111 3.354 3.003 5.066 2.014 1.673-.965 2.02-3.263.766-5.434-.943-1.633-2.955-3.233-5.026-2.037s-1.864 3.626-.806 5.457m11.357-2.546c.713.039 1.836-.131 2.713-.637 1.274-.736 1.503-1.718 1.043-2.514-.482-.836-1.244-1.008-2.814-.738-2.09.383-3.457-.102-4.125-1.257-.896-1.554-.379-3.552 1.693-4.748.976-.563 1.994-.779 2.715-.77l.297 1.527a4.33 4.33 0 0 0-2.293.58c-1.035.598-1.268 1.529-.854 2.245.459.797 1.244.822 2.773.576 2.041-.328 3.381.014 4.209 1.447.978 1.693.353 3.646-1.938 4.968-1.056.609-2.181.914-3.088.907zm3.985-16.374c.364.586.202 1.316-.494 1.719-.618.356-1.332.132-1.677-.465-.356-.618-.175-1.359.463-1.728.657-.379 1.351-.144 1.708.474m5.176 13.474-5.565-9.639 1.753-1.012 5.565 9.639zm4.823-21.637 6.726 11.65c.494.855 1.077 1.82 1.517 2.443l-1.573.909-1.046-1.627-.04.023c.084 1.386-.62 2.881-2.193 3.789-2.33 1.345-5.26.408-6.95-2.52-1.872-3.194-1.019-6.316 1.331-7.672 1.475-.851 2.872-.729 3.76-.205l.039-.023-3.322-5.755zm3.11 9.436c-.127-.219-.318-.506-.506-.691-.902-.966-2.387-1.33-3.701-.571-1.813 1.046-1.969 3.261-.738 5.391 1.127 1.952 3.015 3.013 4.906 1.92 1.176-.678 1.802-2.075 1.361-3.574a3.5 3.5 0 0 0-.357-.803zm13.299-.057-.84-1.134-.061.035c-.102 1.066-.745 2.342-2.119 3.135-1.953 1.127-3.741.327-4.546-1.066-1.345-2.33-.01-4.8 3.726-6.93l-.115-.2c-.46-.796-1.507-2.104-3.479-.965-.896.517-1.67 1.336-2.095 2.166l-1.065-.925c.498-.978 1.457-1.984 2.672-2.685 2.947-1.702 4.826-.104 5.941 1.828l2.081 3.604c.483.836.993 1.629 1.492 2.218zm-3.1-4.77c-1.934 1.064-3.909 2.656-2.828 4.528.655 1.135 1.723 1.235 2.619.718 1.254-.724 1.591-1.98 1.398-2.958a2.2 2.2 0 0 0-.223-.615zm7.526-16.637 6.726 11.65c.494.855 1.077 1.82 1.517 2.443l-1.573.908-1.046-1.626-.04.023c.083 1.386-.62 2.88-2.193 3.789-2.33 1.345-5.261.408-6.95-2.52-1.872-3.194-1.019-6.316 1.331-7.672 1.474-.851 2.872-.729 3.759-.204l.039-.023-3.322-5.755zm3.109 9.436a3.6 3.6 0 0 0-.505-.691c-.903-.966-2.388-1.331-3.701-.572-1.813 1.046-1.968 3.261-.738 5.391 1.127 1.952 3.015 3.013 4.906 1.92 1.175-.678 1.802-2.075 1.361-3.573a3.5 3.5 0 0 0-.357-.803z"/>
  <path fill="#FFF" d="M212 247.5h239z"/>
  <path fill="none" stroke="#000" stroke-miterlimit="10" d="M212 247.5h239"/>
  <path fill="#FFF" d="M504 247.5h93z"/>
  <path fill="none" stroke="#000" stroke-miterlimit="10" d="M504 247.5h88.694"/>
  <path d="M591.818 250.492 597 247.5l-5.182-2.992z"/>
  <path fill="#FFF" d="M212.5 445V41z"/>
  <path fill="none" stroke="#000" stroke-miterlimit="10" d="M212.5 440.694V45.306"/>
  <path d="M215.492 439.818 212.5 445l-2.992-5.182zm0-393.637L212.5 41l-2.992 5.181z"/>
  <path fill="none" stroke="#285E00" stroke-miterlimit="10" d="M343.5 45.306v386.387"/>
  <path fill="#285E00" d="M340.508 46.181 343.5 41l2.992 5.181zm0 384.637L343.5 436l2.992-5.182z"/>
  <path fill="none" stroke="#1B4B7F" stroke-miterlimit="10" d="m371.5 369 1-242m-17.5 0h18m-19 242h18"/>
</svg>
