<svg xmlns="http://www.w3.org/2000/svg" viewBox="0 0 363 283" xml:space="preserve"><style>.st15,.st3{fill:none}.st15{stroke:#000;stroke-miterlimit:10}</style><g id="Animal_Charity"/><g id="Population_Ethics_8"/><g id="Population_Ethihcs_7"/><g id="Population_Ethics_6"><path style="fill:#efe1e1" d="M66 234v-93l101 93z"/><path style="fill:#e2e9f2" d="M65.5 47.5v93l101-93z"/><path class="st3" d="M17.99 20.15h46.94v36.91H17.99z"/><path d="M18.86 24.76c0-.74-.02-1.34-.05-1.89h.95l.05 1h.02c.43-.71 1.12-1.13 2.06-1.13 1.4 0 2.46 1.19 2.46 2.95 0 2.09-1.27 3.12-2.64 3.12-.77 0-1.44-.34-1.79-.91h-.02v3.15h-1.04zm1.05 1.55a1.634 1.634 0 0 0 1.63 1.67c1.12 0 1.76-.91 1.76-2.24 0-1.16-.61-2.16-1.73-2.16-.72 0-1.39.52-1.6 1.31-.04.13-.07.29-.07.43v.99zm10.64.78c0 .6.01 1.13.05 1.58h-.94l-.06-.95h-.02a2.19 2.19 0 0 1-1.92 1.08c-.91 0-2-.5-2-2.54v-3.39h1.06v3.21c0 1.1.34 1.85 1.3 1.85.71 0 1.2-.49 1.39-.96.06-.16.1-.35.1-.54v-3.56h1.06v4.22zm1.75-2.41c0-.68-.01-1.27-.05-1.81h.92l.04 1.14h.05c.26-.78.9-1.27 1.61-1.27.12 0 .2.01.3.04v1c-.11-.02-.22-.04-.36-.04-.74 0-1.27.56-1.42 1.36-.02.14-.05.31-.05.49v3.09H32.3zm4.39 1.28c.02 1.43.94 2.02 1.99 2.02.76 0 1.21-.13 1.61-.3l.18.75c-.37.17-1.01.36-1.93.36-1.79 0-2.85-1.18-2.85-2.93s1.03-3.13 2.72-3.13c1.9 0 2.4 1.67 2.4 2.73 0 .22-.02.38-.04.49h-4.08zm3.1-.75c.01-.67-.28-1.72-1.46-1.72-1.07 0-1.54.98-1.62 1.72zm2.33-5.05h1.06v8.52h-1.06zm3.21 2.71 1.27 3.43c.13.38.28.84.37 1.19H47c.11-.35.23-.79.37-1.21l1.15-3.41h1.12L48.06 27c-.76 1.99-1.27 3.01-1.99 3.63-.52.46-1.03.64-1.29.68l-.26-.89c.26-.08.61-.25.92-.52.29-.23.65-.64.89-1.17.05-.11.08-.19.08-.25s-.02-.14-.07-.28l-2.15-5.35h1.14zm-26.52 20.2c.02-.4.05-.98.05-1.5v-7.02h1.04v3.65h.02c.37-.65 1.04-1.07 1.98-1.07 1.44 0 2.46 1.2 2.45 2.96 0 2.08-1.31 3.11-2.6 3.11-.84 0-1.51-.32-1.94-1.09h-.04l-.05.96zm1.1-2.32c0 .13.02.26.05.38.2.73.82 1.24 1.58 1.24 1.1 0 1.76-.9 1.76-2.23 0-1.16-.6-2.16-1.73-2.16-.72 0-1.39.49-1.61 1.3-.02.12-.06.26-.06.43v1.04zm6.37-.39c.02 1.43.94 2.02 1.99 2.02.76 0 1.21-.13 1.61-.3l.18.75c-.37.17-1.01.36-1.93.36-1.79 0-2.85-1.18-2.85-2.93s1.03-3.13 2.72-3.13c1.9 0 2.4 1.67 2.4 2.73 0 .22-.02.38-.04.49h-4.08zm3.09-.75c.01-.67-.28-1.72-1.46-1.72-1.07 0-1.54.98-1.62 1.72zm3.6-4.01v1.67h1.51v.8h-1.51v3.13c0 .72.2 1.13.79 1.13.28 0 .48-.04.61-.07l.05.79c-.2.08-.53.14-.94.14-.49 0-.89-.16-1.14-.44-.3-.31-.41-.83-.41-1.51v-3.17h-.9v-.8h.9v-1.39zm3.98 0v1.67h1.51v.8h-1.51v3.13c0 .72.2 1.13.79 1.13.28 0 .48-.04.61-.07l.05.79c-.2.08-.53.14-.94.14-.49 0-.89-.16-1.14-.44-.3-.31-.41-.83-.41-1.51v-3.17h-.9v-.8h.9v-1.39zm3.21 4.76c.02 1.43.94 2.02 1.99 2.02.76 0 1.21-.13 1.61-.3l.18.75c-.37.17-1.01.36-1.93.36-1.79 0-2.85-1.18-2.85-2.93s1.03-3.13 2.72-3.13c1.9 0 2.4 1.67 2.4 2.73 0 .22-.02.38-.04.49h-4.08zm3.1-.75c.01-.67-.28-1.72-1.46-1.72-1.07 0-1.54.98-1.62 1.72zm2.33-.53c0-.68-.01-1.27-.05-1.81h.92l.04 1.14h.05c.26-.78.9-1.27 1.61-1.27.12 0 .2.01.3.04v1c-.11-.02-.22-.04-.36-.04-.74 0-1.27.56-1.42 1.36-.02.14-.05.31-.05.49v3.09h-1.04z"/><path class="st3" d="M18.17 227.53H60V268H18.17z"/><path d="M19.05 232.14c0-.74-.02-1.34-.05-1.89h.95l.05 1h.02c.43-.71 1.12-1.13 2.06-1.13 1.4 0 2.46 1.19 2.46 2.95 0 2.09-1.27 3.12-2.64 3.12-.77 0-1.44-.34-1.79-.91h-.02v3.15h-1.04zm1.04 1.54a1.634 1.634 0 0 0 1.63 1.67c1.12 0 1.76-.91 1.76-2.24 0-1.16-.61-2.16-1.73-2.16-.72 0-1.39.52-1.6 1.31-.04.13-.07.29-.07.43v.99zm10.64.78c0 .6.01 1.13.05 1.58h-.94l-.06-.95h-.02a2.19 2.19 0 0 1-1.92 1.08c-.91 0-2-.5-2-2.54v-3.39h1.06v3.21c0 1.1.34 1.85 1.3 1.85.71 0 1.2-.49 1.39-.96.06-.16.1-.35.1-.54v-3.56h1.06v4.22zm1.76-2.41c0-.68-.01-1.27-.05-1.81h.92l.04 1.14h.05c.26-.78.9-1.27 1.61-1.27.12 0 .2.01.3.04v1c-.11-.02-.22-.04-.36-.04-.74 0-1.27.56-1.42 1.36-.02.14-.05.31-.05.49v3.09h-1.04zm4.39 1.29c.02 1.43.94 2.02 1.99 2.02.76 0 1.21-.13 1.61-.3l.18.75c-.37.17-1.01.36-1.93.36-1.79 0-2.85-1.18-2.85-2.93s1.03-3.13 2.72-3.13c1.9 0 2.4 1.67 2.4 2.73 0 .22-.02.38-.04.49h-4.08zm3.09-.76c.01-.67-.28-1.71-1.46-1.71-1.07 0-1.54.98-1.62 1.71zm2.33-5.05h1.06v8.52H42.3zm3.22 2.71 1.27 3.43c.13.38.28.84.37 1.19h.02c.11-.35.23-.79.37-1.21l1.15-3.41h1.12l-1.58 4.14c-.76 1.99-1.27 3.01-1.99 3.63-.52.46-1.03.64-1.29.68l-.26-.89c.26-.08.61-.25.92-.52.29-.23.65-.64.89-1.17.05-.11.08-.19.08-.25s-.02-.14-.07-.28l-2.15-5.35h1.15zm-26.05 14.4.77 2.95c.17.65.32 1.25.43 1.85h.04c.13-.59.32-1.21.52-1.83l.95-2.96h.89l.9 2.9c.22.7.38 1.31.52 1.89h.04c.1-.59.25-1.2.44-1.88l.83-2.91h1.04l-1.87 5.8h-.96l-.89-2.77c-.2-.65-.37-1.22-.52-1.91h-.02c-.14.7-.32 1.3-.53 1.92l-.94 2.76h-.96l-1.75-5.8h1.07zm13.54 2.86c0 2.15-1.49 3.08-2.89 3.08-1.57 0-2.78-1.15-2.78-2.99 0-1.94 1.27-3.08 2.88-3.08 1.66 0 2.79 1.21 2.79 2.99m-4.6.06c0 1.27.73 2.23 1.76 2.23 1.01 0 1.76-.95 1.76-2.25 0-.98-.49-2.23-1.74-2.23-1.24-.01-1.78 1.14-1.78 2.25m5.94-1.11c0-.68-.01-1.27-.05-1.81h.92l.04 1.14h.05c.26-.78.9-1.27 1.61-1.27.12 0 .2.01.3.04v1c-.11-.02-.22-.04-.36-.04-.74 0-1.27.56-1.42 1.36-.02.14-.05.31-.05.49v3.09h-1.04zm3.78 2.92c.31.2.86.42 1.39.42.77 0 1.13-.38 1.13-.86 0-.5-.3-.78-1.08-1.07-1.04-.37-1.54-.95-1.54-1.64 0-.94.76-1.7 2-1.7.59 0 1.1.17 1.43.36l-.26.77c-.23-.14-.65-.34-1.19-.34-.62 0-.97.36-.97.79 0 .48.35.7 1.1.98 1.01.38 1.52.89 1.52 1.75 0 1.02-.79 1.74-2.17 1.74-.64 0-1.22-.16-1.63-.4zm5.48-1.63c.02 1.43.94 2.02 1.99 2.02.76 0 1.21-.13 1.61-.3l.18.75c-.37.17-1.01.36-1.93.36-1.79 0-2.85-1.18-2.85-2.93s1.03-3.13 2.72-3.13c1.9 0 2.4 1.67 2.4 2.73 0 .22-.02.38-.04.49h-4.08zm3.09-.76c.01-.67-.28-1.71-1.46-1.71-1.07 0-1.54.98-1.62 1.71z"/><path class="st3" d="M16.17 135.53h46.94v36.91H16.17z"/><path d="M17.05 139.81c0-.6-.01-1.09-.05-1.57h.94l.06.96h.02c.29-.55.96-1.09 1.92-1.09.8 0 2.05.48 2.05 2.47v3.47h-1.06v-3.35c0-.94-.35-1.72-1.34-1.72-.7 0-1.24.49-1.42 1.08-.05.13-.07.31-.07.49v3.49h-1.06v-4.23zm7.24 1.53c.02 1.43.94 2.02 1.99 2.02.76 0 1.21-.13 1.61-.3l.18.75c-.37.17-1.01.36-1.93.36-1.79 0-2.85-1.18-2.85-2.93s1.03-3.13 2.72-3.13c1.9 0 2.4 1.67 2.4 2.73 0 .22-.02.38-.04.49h-4.08zm3.1-.76c.01-.67-.28-1.72-1.46-1.72-1.07 0-1.54.98-1.62 1.72zm7.19 1.88c0 .6.01 1.13.05 1.58h-.94l-.06-.95h-.03a2.19 2.19 0 0 1-1.92 1.08c-.91 0-2-.5-2-2.54v-3.39h1.06v3.21c0 1.1.34 1.85 1.3 1.85.71 0 1.2-.49 1.39-.96.06-.16.1-.35.1-.54v-3.56h1.06v4.22zm3.02-5.88v1.67h1.51v.8H37.6v3.13c0 .72.2 1.13.79 1.13.28 0 .48-.04.61-.07l.05.79c-.2.08-.53.14-.94.14-.49 0-.89-.16-1.14-.44-.3-.31-.41-.83-.41-1.51v-3.17h-.9v-.8h.9v-1.39zm2.7 3.47c0-.68-.01-1.27-.05-1.81h.92l.04 1.14h.05c.26-.78.9-1.27 1.61-1.27.12 0 .2.01.3.04v1c-.11-.02-.22-.04-.36-.04-.74 0-1.27.56-1.42 1.36-.02.14-.05.31-.05.49v3.09H40.3zm7.08 4-.08-.73h-.04c-.32.46-.95.86-1.77.86-1.18 0-1.77-.83-1.77-1.67 0-1.4 1.25-2.17 3.49-2.16v-.12c0-.48-.13-1.34-1.32-1.34-.54 0-1.1.17-1.51.43l-.24-.7c.48-.31 1.18-.52 1.91-.52 1.77 0 2.21 1.21 2.21 2.37v2.17c0 .5.02 1 .1 1.39h-.98zm-.16-2.96c-1.15-.02-2.46.18-2.46 1.31 0 .68.46 1.01 1 1.01.76 0 1.24-.48 1.4-.97.04-.11.06-.23.06-.34zm2.73-5.56h1.06v8.52h-1.06z"/><path class="st3" d="M77.17 78.53h46.94v36.91H77.17z"/><path d="M83.05 81.24c-.03.42-.05.89-.05 1.6v3.37c0 1.33-.26 2.15-.83 2.65-.56.53-1.38.7-2.11.7-.7 0-1.46-.17-1.93-.48l.26-.8c.38.24.98.46 1.7.46 1.08 0 1.87-.56 1.87-2.03v-.65h-.02c-.32.54-.95.97-1.85.97-1.44 0-2.47-1.22-2.47-2.83 0-1.97 1.28-3.08 2.61-3.08 1.01 0 1.56.53 1.81 1.01h.02l.05-.88h.94zm-1.09 2.29c0-.18-.01-.34-.06-.48-.19-.61-.71-1.12-1.48-1.12-1.01 0-1.73.85-1.73 2.2 0 1.14.58 2.09 1.72 2.09.65 0 1.24-.41 1.46-1.08.06-.18.08-.38.08-.56v-1.05zm8.05.57c0 2.15-1.49 3.08-2.89 3.08-1.57 0-2.78-1.15-2.78-2.99 0-1.94 1.27-3.08 2.88-3.08 1.66 0 2.79 1.21 2.79 2.99m-4.61.06c0 1.27.73 2.23 1.76 2.23 1.01 0 1.76-.95 1.76-2.25 0-.98-.49-2.23-1.74-2.23-1.24-.01-1.78 1.14-1.78 2.25m11.2-.06c0 2.15-1.49 3.08-2.89 3.08-1.57 0-2.78-1.15-2.78-2.99 0-1.94 1.27-3.08 2.88-3.08 1.66 0 2.79 1.21 2.79 2.99m-4.61.06c0 1.27.73 2.23 1.76 2.23 1.01 0 1.76-.95 1.76-2.25 0-.98-.49-2.23-1.74-2.23-1.24-.01-1.78 1.14-1.78 2.25m10.95-5.63v7.02c0 .52.01 1.1.05 1.5h-.95l-.04-1.01h-.02c-.32.65-1.03 1.14-1.98 1.14-1.4 0-2.48-1.19-2.48-2.95-.01-1.93 1.19-3.12 2.6-3.12.89 0 1.49.42 1.75.89h.02v-3.47zm-1.05 5.08c0-.13-.01-.31-.05-.44-.16-.67-.73-1.22-1.52-1.22-1.09 0-1.74.96-1.74 2.24 0 1.17.58 2.15 1.72 2.15.71 0 1.35-.47 1.55-1.26.04-.14.05-.29.05-.46v-1.01zM84.26 204.79c.02-.4.05-.98.05-1.5v-7.02h1.04v3.65h.02c.37-.65 1.04-1.07 1.98-1.07 1.44 0 2.46 1.2 2.45 2.96 0 2.08-1.31 3.11-2.6 3.11-.84 0-1.51-.32-1.94-1.09h-.04l-.05.96zm1.09-2.33c0 .13.02.26.05.38.2.73.82 1.24 1.58 1.24 1.1 0 1.76-.9 1.76-2.23 0-1.16-.6-2.16-1.73-2.16-.72 0-1.39.49-1.61 1.3-.02.12-.06.26-.06.43v1.04zm9 2.33-.08-.73h-.04c-.32.46-.95.86-1.77.86-1.18 0-1.77-.83-1.77-1.67 0-1.4 1.25-2.17 3.49-2.16v-.12c0-.48-.13-1.34-1.32-1.34-.54 0-1.1.17-1.51.43l-.24-.7c.48-.31 1.18-.52 1.91-.52 1.77 0 2.21 1.21 2.21 2.37v2.17c0 .5.02 1 .1 1.39h-.98zm-.16-2.97c-1.15-.02-2.46.18-2.46 1.31 0 .68.46 1.01 1 1.01.76 0 1.24-.48 1.4-.97.04-.11.06-.23.06-.34zm7.74-5.55v7.02c0 .52.01 1.1.05 1.5h-.95l-.05-1.01h-.02c-.32.65-1.03 1.14-1.98 1.14-1.4 0-2.48-1.19-2.48-2.95-.01-1.93 1.19-3.12 2.6-3.12.89 0 1.49.42 1.75.89h.02v-3.47zm-1.05 5.07c0-.13-.01-.31-.05-.44-.16-.67-.73-1.22-1.52-1.22-1.09 0-1.74.96-1.74 2.24 0 1.17.58 2.15 1.72 2.15.71 0 1.35-.47 1.55-1.26.04-.14.05-.29.05-.46v-1.01z"/><path class="st3" d="m259.594 152.41 71.733-41.416 16.235 28.12-71.733 41.415z"/><path d="M284.79 143.19c-.37-.64-.69-1.15-.99-1.62l.82-.47.54.84.02-.01c.02-.83.4-1.53 1.22-2.01 1.21-.7 2.72-.2 3.61 1.32 1.04 1.81.46 3.34-.73 4.02-.67.38-1.41.43-2 .1l-.02.01 1.58 2.73-.9.52zm1.67.82c.08.13.17.25.26.35.53.54 1.33.66 1.99.28.97-.56 1.07-1.67.41-2.82-.58-1.01-1.61-1.56-2.58-1.01-.62.36-.95 1.14-.73 1.93.04.13.08.29.15.41zm9.61-4.65c.3.52.57.97.83 1.35l-.81.47-.53-.79-.02.01c0 .54-.23 1.38-1.12 1.89-.79.46-1.99.56-3.01-1.2l-1.7-2.94.91-.53 1.61 2.78c.55.96 1.21 1.43 2.04.95.61-.35.79-1.03.72-1.53-.03-.17-.09-.35-.19-.52l-1.78-3.08.92-.53zm.31-2.96c-.34-.59-.65-1.09-.95-1.54l.8-.46.6.97.04-.02c-.16-.81.14-1.55.76-1.9.1-.06.18-.09.28-.12l.5.86c-.11.03-.21.08-.33.15-.64.37-.82 1.12-.55 1.88.05.14.11.29.2.45l1.55 2.68-.9.52zm4.45-1.09c.73 1.22 1.82 1.28 2.73.75.65-.38.98-.72 1.24-1.06l.53.56c-.24.33-.69.82-1.49 1.28-1.55.89-3.06.41-3.94-1.11s-.67-3.23.79-4.07c1.64-.95 2.91.24 3.44 1.17.11.19.17.34.21.44zm2.3-2.2c-.33-.59-1.1-1.35-2.12-.75-.92.53-.84 1.62-.54 2.29zm-.51-5.53.91-.53 4.26 7.38-.91.53zm4.14.73 2.82 2.33c.31.27.66.59.92.84l.02-.01c-.08-.36-.2-.8-.28-1.23l-.71-3.53.97-.56.7 4.38c.34 2.1.4 3.24.09 4.14-.22.65-.58 1.07-.78 1.24l-.67-.64c.19-.21.4-.53.54-.91.14-.34.24-.88.18-1.46-.01-.12-.02-.21-.05-.26a.9.9 0 0 0-.2-.2l-4.53-3.56zm-31.78 33.1c.19.3.11.69-.26.9-.32.19-.69.07-.87-.24a.64.64 0 0 1 .24-.9c.34-.2.7-.08.89.24m2.7 7.03-2.9-5.03.91-.53 2.9 5.03zm.31-5.07c-.3-.52-.56-.94-.83-1.34l.81-.47.53.8.02-.01c-.03-.62.29-1.42 1.12-1.9.7-.4 2.02-.61 3.01 1.12l1.73 3-.91.53-1.67-2.9c-.47-.81-1.16-1.31-2.02-.81-.6.35-.82 1.04-.69 1.64.02.14.09.31.18.46l1.74 3.02-.91.53zm11.36-1.92c-.17.26-.6.73-1.28 1.12-1.52.88-3.1.42-3.99-1.12-.89-1.55-.48-3.28 1.16-4.23.54-.31 1.1-.45 1.42-.47l.2.83c-.29 0-.7.09-1.2.37-1.15.67-1.29 1.88-.68 2.93.67 1.16 1.83 1.45 2.83.87.52-.3.78-.63.98-.9zm4.19-5.58c1.07 1.86.25 3.41-.96 4.11-1.36.79-2.99.39-3.9-1.19-.97-1.68-.44-3.31.95-4.11 1.45-.83 3.03-.35 3.91 1.19m-3.95 2.36c.64 1.1 1.75 1.57 2.64 1.05.87-.5 1.05-1.7.4-2.83-.49-.85-1.54-1.69-2.62-1.06-1.08.61-.97 1.88-.42 2.84m4.47-4.14c-.3-.52-.56-.94-.83-1.34l.8-.46.51.79.03-.02c0-.64.21-1.36 1.04-1.84a1.71 1.71 0 0 1 2 .19l.02-.01c-.01-.37.07-.7.18-.98.17-.4.43-.72.91-1 .67-.38 1.9-.52 2.91 1.23l1.71 2.96-.89.52-1.64-2.85c-.56-.97-1.25-1.34-1.98-.92-.52.3-.7.92-.6 1.45.03.15.1.33.19.5l1.79 3.11-.89.52-1.74-3.01c-.46-.8-1.15-1.18-1.85-.78-.57.33-.72 1.03-.61 1.57.03.17.1.33.19.49l1.75 3.03-.89.52zm8.83-4.72c-.37-.64-.69-1.15-.99-1.62l.82-.47.54.84.02-.01c.02-.83.4-1.53 1.22-2.01 1.22-.7 2.72-.2 3.61 1.33 1.04 1.81.46 3.34-.73 4.02-.66.38-1.41.43-2 .1l-.02.01 1.58 2.73-.9.52zm1.68.82c.08.13.17.25.26.35.53.54 1.33.66 1.99.28.96-.56 1.07-1.67.4-2.82-.58-1.01-1.61-1.56-2.58-1.01-.62.36-.95 1.14-.73 1.93.04.13.08.29.15.41zm8.97-2.46-.44-.59-.03.02c-.05.56-.39 1.22-1.11 1.63-1.02.59-1.95.17-2.37-.56-.7-1.22-.01-2.5 1.94-3.61l-.06-.1c-.24-.42-.79-1.1-1.81-.5-.47.27-.87.7-1.09 1.13l-.56-.48c.26-.51.76-1.04 1.39-1.4 1.54-.89 2.52-.05 3.1.95l1.09 1.88c.25.44.52.85.78 1.16zm-1.62-2.48c-1.01.55-2.04 1.38-1.48 2.36.34.59.9.64 1.37.38.65-.38.83-1.03.73-1.54a.9.9 0 0 0-.12-.32zm1.85-2.26c-.34-.59-.64-1.1-.95-1.54l.8-.46.6.97.04-.02c-.16-.81.14-1.55.76-1.91.1-.06.18-.09.28-.12l.5.86c-.11.03-.21.08-.33.15-.64.37-.82 1.12-.55 1.88.05.14.11.29.2.45l1.55 2.68-.9.52zm8.12-.08-.44-.59-.03.02c-.05.56-.39 1.22-1.11 1.63-1.02.59-1.95.17-2.37-.55-.7-1.22-.01-2.5 1.94-3.62l-.06-.1c-.24-.42-.79-1.1-1.81-.5-.47.27-.87.7-1.09 1.13l-.56-.48c.26-.51.76-1.03 1.39-1.4 1.54-.89 2.52-.05 3.1.95l1.09 1.88c.25.44.52.85.78 1.16zm-1.61-2.49c-1.01.56-2.04 1.39-1.48 2.36.34.59.9.64 1.37.38.65-.38.83-1.03.73-1.54a.9.9 0 0 0-.12-.32zm3.8 1.23c-.18-.35-.45-.88-.71-1.32l-3.51-6.08.9-.52 1.82 3.16.02-.01c0-.75.37-1.45 1.18-1.92 1.25-.72 2.73-.19 3.6 1.34 1.04 1.8.42 3.34-.7 3.99-.73.42-1.47.47-2.23.03l-.03.02.44.86zm-.22-2.56c.07.12.15.22.23.31.54.53 1.32.66 1.99.28.96-.55 1.08-1.66.41-2.81-.58-1.01-1.6-1.57-2.58-1.01-.62.36-.96 1.12-.74 1.93.04.12.08.26.16.4zm1.92-8.25.91-.53 4.26 7.38-.91.53zm5.86 3.31c.73 1.22 1.82 1.28 2.73.75.65-.38.98-.72 1.24-1.06l.53.56c-.24.33-.69.82-1.49 1.28-1.55.89-3.06.41-3.94-1.11s-.67-3.23.79-4.07c1.64-.95 2.91.24 3.45 1.17.11.19.17.35.21.45zm2.3-2.2c-.33-.59-1.1-1.35-2.12-.75-.92.53-.84 1.62-.54 2.29z"/><path class="st3" d="M155.54 97.3h64.25v26.43h-64.25z"/><path d="M156.42 101.59c0-.6-.01-1.09-.05-1.57h.92l.05.94h.04c.32-.55.86-1.07 1.82-1.07.79 0 1.39.48 1.64 1.16h.02c.18-.32.41-.58.65-.76.35-.26.73-.41 1.28-.41.77 0 1.91.5 1.91 2.52v3.42h-1.03v-3.29c0-1.12-.41-1.79-1.26-1.79-.6 0-1.07.44-1.25.96-.05.14-.08.33-.08.53v3.59h-1.03v-3.48c0-.92-.41-1.59-1.21-1.59-.66 0-1.14.53-1.31 1.06-.06.16-.08.34-.08.52v3.5h-1.03zm10.6 1.52c.02 1.43.94 2.02 1.99 2.02.76 0 1.21-.13 1.61-.3l.18.75c-.37.17-1.01.36-1.93.36-1.79 0-2.85-1.18-2.85-2.93s1.03-3.13 2.72-3.13c1.9 0 2.4 1.67 2.4 2.73 0 .22-.02.38-.04.49h-4.08zm3.09-.75c.01-.67-.28-1.71-1.46-1.71-1.07 0-1.54.98-1.62 1.71zm2.33-5.05h1.06v3.62h.02c.17-.3.43-.56.76-.74.31-.18.68-.3 1.08-.3.78 0 2.03.48 2.03 2.48v3.45h-1.06v-3.33c0-.94-.35-1.73-1.34-1.73-.68 0-1.22.48-1.42 1.06-.06.14-.07.3-.07.5v3.5h-1.06zm9.2 0h1.06v8.52h-1.06zm4.01 1.08c.01.36-.25.65-.67.65-.37 0-.64-.29-.64-.65 0-.37.28-.66.66-.66.4 0 .65.29.65.66m-1.17 7.43v-5.8h1.06v5.8zm3.21-5.8 1.14 3.26c.19.53.35 1.01.47 1.49h.04c.13-.48.3-.96.49-1.49l1.13-3.26h1.1l-2.28 5.8h-1.01l-2.21-5.8zm5.83 3.09c.02 1.43.94 2.02 1.99 2.02.76 0 1.21-.13 1.61-.3l.18.75c-.37.17-1.01.36-1.93.36-1.79 0-2.85-1.18-2.85-2.93s1.03-3.13 2.72-3.13c1.9 0 2.4 1.67 2.4 2.73 0 .22-.02.38-.04.49h-4.08zm3.1-.75c.01-.67-.28-1.71-1.46-1.71-1.07 0-1.54.98-1.62 1.71zm2.18 2.38c.31.2.86.42 1.39.42.77 0 1.13-.38 1.13-.86 0-.5-.3-.78-1.08-1.07-1.04-.37-1.54-.95-1.54-1.64 0-.94.76-1.7 2-1.7.59 0 1.1.17 1.43.36l-.26.77c-.23-.14-.65-.34-1.19-.34-.62 0-.97.36-.97.79 0 .48.35.7 1.1.98 1.01.38 1.52.89 1.52 1.75 0 1.02-.79 1.74-2.17 1.74-.64 0-1.22-.16-1.63-.4z" style="fill:#1b4b7f"/><path class="st3" d="M141.3 24.42h127.14v28.25H141.3z"/><path d="M142.18 29.03c0-.74-.02-1.34-.05-1.89h.95l.05 1h.02c.43-.71 1.12-1.13 2.06-1.13 1.4 0 2.46 1.19 2.46 2.95 0 2.09-1.27 3.12-2.64 3.12-.77 0-1.44-.34-1.79-.91h-.02v3.15h-1.04zm1.04 1.55a1.634 1.634 0 0 0 1.63 1.67c1.12 0 1.76-.91 1.76-2.24 0-1.16-.61-2.16-1.73-2.16-.72 0-1.39.52-1.6 1.31-.04.13-.07.29-.07.43v.99zm11.04-.59c0 2.15-1.49 3.08-2.89 3.08-1.57 0-2.78-1.15-2.78-2.99 0-1.94 1.27-3.08 2.88-3.08 1.66 0 2.79 1.21 2.79 2.99m-4.61.06c0 1.27.73 2.23 1.76 2.23 1.01 0 1.76-.95 1.76-2.25 0-.98-.49-2.23-1.74-2.23-1.24-.01-1.78 1.14-1.78 2.25m5.8 1.81c.31.2.86.42 1.39.42.77 0 1.13-.38 1.13-.86 0-.5-.3-.78-1.08-1.07-1.04-.37-1.54-.95-1.54-1.64 0-.94.76-1.7 2-1.7.59 0 1.1.17 1.43.36l-.26.77c-.23-.14-.65-.34-1.19-.34-.62 0-.97.36-.97.79 0 .48.35.7 1.1.98 1.01.38 1.52.89 1.52 1.75 0 1.02-.79 1.74-2.17 1.74-.64 0-1.22-.16-1.63-.4zm4.75 0c.31.2.86.42 1.39.42.77 0 1.13-.38 1.13-.86 0-.5-.3-.78-1.08-1.07-1.04-.37-1.54-.95-1.54-1.64 0-.94.76-1.7 2-1.7.59 0 1.1.17 1.43.36l-.26.77c-.23-.14-.65-.34-1.19-.34-.62 0-.97.36-.97.79 0 .48.35.7 1.1.98 1.01.38 1.52.89 1.52 1.75 0 1.02-.79 1.74-2.17 1.74-.64 0-1.22-.16-1.63-.4zm6.07-6.36c.01.36-.25.65-.67.65-.37 0-.64-.29-.64-.65 0-.37.28-.66.66-.66.4 0 .65.29.65.66m-1.17 7.44v-5.8h1.06v5.8zm2.76 0c.02-.4.05-.98.05-1.5v-7.02h1.04v3.65h.02c.37-.65 1.04-1.07 1.98-1.07 1.44 0 2.46 1.2 2.45 2.96 0 2.08-1.31 3.11-2.6 3.11-.84 0-1.51-.32-1.94-1.09h-.04l-.05.96zm1.09-2.33c0 .13.02.26.05.38.2.73.82 1.24 1.58 1.24 1.1 0 1.76-.9 1.76-2.23 0-1.16-.6-2.16-1.73-2.16-.72 0-1.39.49-1.61 1.3-.02.12-.06.26-.06.43v1.04zm5.78-6.19h1.06v8.52h-1.06zm3.42 5.81c.02 1.43.94 2.02 1.99 2.02.76 0 1.21-.13 1.61-.3l.18.75c-.37.17-1.01.36-1.93.36-1.79 0-2.85-1.18-2.85-2.93s1.03-3.13 2.72-3.13c1.9 0 2.4 1.67 2.4 2.73 0 .22-.02.38-.04.49h-4.08zm3.1-.76c.01-.67-.28-1.72-1.46-1.72-1.07 0-1.54.98-1.62 1.72zm5.28-2.34 1.14 3.26c.19.53.35 1.01.47 1.49h.04c.13-.48.3-.96.49-1.49l1.13-3.26h1.1l-2.28 5.8h-1.01l-2.21-5.8zm8.53 5.81-.08-.73h-.04c-.32.46-.95.86-1.77.86-1.18 0-1.77-.83-1.77-1.67 0-1.4 1.25-2.17 3.49-2.16v-.12c0-.48-.13-1.34-1.32-1.34-.54 0-1.1.17-1.51.43l-.24-.7c.48-.31 1.18-.52 1.91-.52 1.77 0 2.21 1.21 2.21 2.37v2.17c0 .5.02 1 .1 1.39h-.98zm-.16-2.96c-1.15-.02-2.46.18-2.46 1.31 0 .68.46 1.01 1 1.01.76 0 1.24-.48 1.4-.97.04-.11.06-.23.06-.34zm2.73-5.56h1.06v8.52h-1.06zm7.69 6.93c0 .6.01 1.13.05 1.58h-.94l-.06-.95h-.02a2.19 2.19 0 0 1-1.92 1.08c-.91 0-2-.5-2-2.54v-3.39h1.06v3.21c0 1.1.34 1.85 1.3 1.85.71 0 1.2-.49 1.39-.96.06-.16.1-.35.1-.54v-3.56h1.06v4.22zm2.34-1.12c.02 1.43.94 2.02 1.99 2.02.76 0 1.21-.13 1.61-.3l.18.75c-.37.17-1.01.36-1.93.36-1.79 0-2.85-1.18-2.85-2.93s1.03-3.13 2.72-3.13c1.9 0 2.4 1.67 2.4 2.73 0 .22-.02.38-.04.49h-4.08zm3.1-.76c.01-.67-.28-1.72-1.46-1.72-1.07 0-1.54.98-1.62 1.72zm2.18 2.39c.31.2.86.42 1.39.42.77 0 1.13-.38 1.13-.86 0-.5-.3-.78-1.08-1.07-1.04-.37-1.54-.95-1.54-1.64 0-.94.76-1.7 2-1.7.59 0 1.1.17 1.43.36l-.26.77c-.23-.14-.65-.34-1.19-.34-.62 0-.97.36-.97.79 0 .48.35.7 1.1.98 1.01.38 1.52.89 1.52 1.75 0 1.02-.79 1.74-2.17 1.74-.64 0-1.22-.16-1.63-.4zm12.69-1.87c0 2.15-1.49 3.08-2.89 3.08-1.57 0-2.78-1.15-2.78-2.99 0-1.94 1.27-3.08 2.88-3.08 1.67 0 2.79 1.21 2.79 2.99m-4.6.06c0 1.27.73 2.23 1.76 2.23 1.01 0 1.76-.95 1.76-2.25 0-.98-.49-2.23-1.74-2.23-1.24-.01-1.78 1.14-1.78 2.25m6.05 2.89v-5h-.82v-.8h.82v-.28c0-.82.18-1.56.67-2.03.4-.38.92-.54 1.42-.54.37 0 .7.08.9.17l-.14.82c-.16-.07-.37-.13-.67-.13-.9 0-1.13.79-1.13 1.68v.31h1.4v.8h-1.4v5zm5.94-8.52h1.06v8.52h-1.06zm4 1.08c.01.36-.25.65-.67.65-.37 0-.64-.29-.64-.65 0-.37.28-.66.66-.66.4 0 .65.29.65.66m-1.17 7.44v-5.8h1.06v5.8zm3.22-5.81 1.14 3.26c.19.53.35 1.01.47 1.49h.04c.13-.48.3-.96.49-1.49l1.13-3.26h1.1l-2.28 5.8h-1.01l-2.21-5.8zm5.83 3.1c.02 1.43.94 2.02 1.99 2.02.76 0 1.21-.13 1.61-.3l.18.75c-.37.17-1.01.36-1.93.36-1.79 0-2.85-1.18-2.85-2.93s1.03-3.13 2.72-3.13c1.9 0 2.4 1.67 2.4 2.73 0 .22-.02.38-.04.49h-4.08zm3.09-.76c.01-.67-.28-1.72-1.46-1.72-1.07 0-1.54.98-1.62 1.72zm2.19 2.39c.31.2.86.42 1.39.42.77 0 1.13-.38 1.13-.86 0-.5-.3-.78-1.08-1.07-1.04-.37-1.54-.95-1.54-1.64 0-.94.76-1.7 2-1.7.59 0 1.1.17 1.43.36l-.26.77c-.23-.14-.65-.34-1.19-.34-.62 0-.97.36-.97.79 0 .48.35.7 1.1.98 1.01.38 1.52.89 1.52 1.75 0 1.02-.79 1.74-2.17 1.74-.64 0-1.22-.16-1.63-.4z" style="fill:#285e00"/><path class="st3" d="m185.327 148.88 54.464-31.444 19.825 34.338-54.464 31.445z"/><path d="M190.3 155.85c-.18-.35-.45-.88-.71-1.32l-3.51-6.08.9-.52 1.82 3.16.02-.01c0-.75.37-1.45 1.18-1.91 1.25-.72 2.73-.19 3.6 1.34 1.04 1.8.42 3.34-.7 3.99-.73.42-1.47.48-2.23.03l-.03.02.44.85zm-.22-2.56c.07.11.15.22.23.31.54.53 1.32.66 1.99.28.96-.55 1.08-1.66.41-2.81-.58-1.01-1.6-1.57-2.58-1.01-.62.36-.96 1.12-.74 1.93.04.12.08.26.16.4zm1.92-8.25.91-.53 4.26 7.37-.91.53zm10.12 2.15c.3.52.57.97.83 1.35l-.81.47-.53-.79-.02.01c0 .54-.23 1.38-1.12 1.89-.79.46-1.99.57-3.01-1.2l-1.7-2.94.91-.53 1.61 2.78c.55.96 1.21 1.43 2.04.95.61-.35.79-1.03.72-1.53-.03-.17-.09-.35-.19-.52l-1.78-3.08.92-.53zm.32-2.96c-.34-.59-.65-1.09-.95-1.54l.8-.46.6.97.04-.02c-.16-.81.14-1.55.76-1.9.1-.06.18-.09.28-.12l.5.86c-.11.03-.21.08-.33.15-.64.37-.82 1.12-.55 1.88.05.14.11.29.2.45l1.55 2.68-.9.52zm3.44-1.99c-.34-.59-.65-1.09-.95-1.54l.8-.46.6.97.04-.02c-.16-.81.14-1.55.76-1.9.1-.06.18-.09.28-.12l.5.86c-.11.03-.21.08-.33.15-.64.37-.82 1.12-.55 1.88.05.14.11.29.2.45l1.55 2.68-.9.52zm2.73-5.55c.19.31.11.69-.26.9-.32.19-.69.07-.87-.24a.64.64 0 0 1 .24-.9c.35-.21.71-.08.89.24m2.71 7.03-2.9-5.03.91-.53 2.9 5.03zm.31-5.07c-.3-.52-.56-.94-.83-1.34l.81-.47.53.8.02-.01c-.03-.62.29-1.42 1.12-1.9.7-.4 2.02-.61 3.01 1.11l1.73 3-.91.53-1.67-2.9c-.47-.81-1.16-1.31-2.02-.81-.6.35-.82 1.04-.69 1.64.02.14.09.31.18.46l1.74 3.02-.91.53zm7.04-2.31c.73 1.22 1.82 1.28 2.73.75.65-.38.98-.72 1.24-1.06l.53.56c-.24.33-.69.82-1.49 1.28-1.55.89-3.06.41-3.94-1.11s-.67-3.23.79-4.07c1.64-.95 2.91.24 3.45 1.17.11.19.17.34.21.44zm2.3-2.2c-.33-.59-1.1-1.35-2.12-.75-.92.53-.84 1.62-.54 2.3zm3.09.97c.37.02.96-.07 1.42-.33.66-.38.78-.9.54-1.31-.25-.44-.65-.52-1.47-.38-1.09.2-1.8-.05-2.15-.66-.47-.81-.2-1.85.88-2.48.51-.29 1.04-.41 1.42-.4l.16.8c-.27-.01-.73.03-1.2.3-.54.31-.66.8-.45 1.17.24.42.65.43 1.45.3 1.06-.17 1.76.01 2.2.75.51.88.18 1.9-1.01 2.59-.55.32-1.14.48-1.61.47zm4.11-2.37c.37.02.96-.07 1.42-.33.66-.38.78-.9.54-1.31-.25-.44-.65-.53-1.47-.38-1.09.2-1.8-.05-2.15-.66-.47-.81-.2-1.85.88-2.48.51-.29 1.04-.41 1.42-.4l.16.8c-.27-.01-.73.03-1.2.3-.54.31-.66.8-.45 1.17.24.42.65.43 1.45.3 1.06-.17 1.76.01 2.2.75.51.88.18 1.9-1.01 2.59-.55.32-1.14.48-1.61.47z"/><path style="fill:#fff;stroke:#000;stroke-miterlimit:10" d="M65 140.5h130"/><path class="st15" d="M223 140.5h46.19"/><path d="m268.32 143.49 5.18-2.99-5.18-2.99z"/><path style="fill:#fff" d="M65.46 247.5v-219"/><path class="st15" d="M65.46 243.19V32.81"/><path d="m68.46 242.32-3 5.18-2.99-5.18zm0-208.64-3-5.18-2.99 5.18z"/><path style="fill:none;stroke:#285e00;stroke-miterlimit:10" d="M136.5 28.5v214"/><path d="M152.5 206V73.5m-9.5.5h10m-10 131.5h10" style="fill:none;stroke-miterlimit:10;stroke:#1b4b7f"/></g><g id="Population_Ethics_5"/><g id="Population_Ethics_4"/><g id="Population_Ethics_3"/><g id="Population_Ethics_2"/><g id="Population_Ethics_1"/></svg>