<svg xmlns="http://www.w3.org/2000/svg" viewBox="0 0 850 500" xml:space="preserve">
  <style>
    .st5,.st7{fill:#e2e9f2;stroke:#000;stroke-miterlimit:10}.st7{fill:none;stroke:#a1afbf}
  </style>
  <g id="Animal_Charity"/>
  <g id="Population_Ethics_8"/>
  <g id="Population_Ethics_7">
    <path class="st5" d="M249 104.5h119V365H249z"/>
    <path class="st7" d="M211.5 365h199"/>
    <path style="fill:none;stroke:#c6d0db;stroke-miterlimit:10" d="M426 58v377"/>
    <path d="m295.05 420.36-2.52 7.63h-3.24l8.24-24.26h3.78l8.28 24.26h-3.35l-2.59-7.63zm7.95-2.45-2.38-6.98c-.54-1.58-.9-3.02-1.26-4.43h-.07c-.36 1.44-.76 2.92-1.22 4.39l-2.38 7.02zm11.27 15.37v-11.84h-.07l-2.59 1.26-.4-1.87 3.38-1.58h2.2v14.04h-2.52z"/>
    <path class="st5" d="M485 267.5h119V365H485z"/>
    <path class="st7" d="M439.5 365h199"/>
    <path d="m542.87 420.36-2.52 7.63h-3.24l8.24-24.26h3.78l8.28 24.26h-3.35l-2.59-7.63zm7.95-2.45-2.38-6.98c-.54-1.58-.9-3.02-1.26-4.43h-.07c-.36 1.44-.76 2.92-1.22 4.39l-2.38 7.02zm7.85 14.04 2.27-2.12c2.99-2.7 4.54-4.39 4.54-6.23 0-1.37-.86-2.52-2.74-2.52-1.26 0-2.34.65-3.02 1.12l-.76-1.62c.97-.83 2.59-1.51 4.39-1.51 3.38 0 4.79 2.12 4.79 4.07 0 2.7-2.05 4.68-4.79 7.09l-1.12 1.01v.07h6.16v1.98h-9.72z"/>
  </g>
  <g id="Population_Ethics_6"/>
  <g id="Population_Ethics_5"/>
  <g id="Population_Ethics_4"/>
  <g id="Population_Ethics_3"/>
  <g id="Population_Ethics_2"/>
  <g id="Population_Ethics_1"/>
</svg>
