<svg xmlns="http://www.w3.org/2000/svg" viewBox="0 0 850 500" xml:space="preserve">
  <style>
    .st3{fill:none}.st12{fill:#285e00}.st15{fill:none;stroke:#000;stroke-miterlimit:10}
  </style>
  <g id="Animal_Charity"/>
  <g id="Population_Ethics_8"/>
  <g id="Population_Ethics_7"/>
  <g id="Population_Ethics_6">
    <linearGradient id="SVGID_1_" gradientUnits="userSpaceOnUse" x1="306.164" y1="248.431" x2="306.164" y2="420">
      <stop offset=".727" style="stop-color:#efe1e1"/>
      <stop offset=".922" style="stop-color:#fdfbfb"/>
      <stop offset=".952" style="stop-color:#fff"/>
    </linearGradient>
    <path style="fill:url(#SVGID_1_)" d="M213 420V248.43L399.33 420z"/>
    <linearGradient id="SVGID_00000069358109358809447180000004279843888015473814_" gradientUnits="userSpaceOnUse" x1="306.164" y1="247.569" x2="306.164" y2="76">
      <stop offset=".691" style="stop-color:#e2e9f2"/>
      <stop offset=".924" style="stop-color:#fcfcfd"/>
      <stop offset=".952" style="stop-color:#fff"/>
    </linearGradient>
    <path style="fill:url(#SVGID_00000069358109358809447180000004279843888015473814_)" d="M213 76v171.57L399.33 76z"/>
    <path class="st3" d="M125.16 25.29h86.59v68.1h-86.59z"/>
    <path d="M126.84 34.12c0-1.43-.05-2.58-.09-3.63h1.82l.09 1.91h.05c.83-1.36 2.14-2.16 3.96-2.16 2.69 0 4.71 2.28 4.71 5.66 0 4-2.44 5.98-5.06 5.98-1.47 0-2.76-.64-3.43-1.75h-.05v6.05h-2zm2 2.97c0 .3.05.58.09.83.37 1.4 1.59 2.37 3.04 2.37 2.14 0 3.38-1.75 3.38-4.3 0-2.23-1.17-4.14-3.31-4.14-1.38 0-2.67.99-3.06 2.51-.07.25-.14.55-.14.83zm20.4 1.49c0 1.15.02 2.16.09 3.04h-1.79l-.12-1.82h-.05c-.53.9-1.7 2.07-3.68 2.07-1.75 0-3.84-.97-3.84-4.88v-6.51h2.02v6.16c0 2.12.64 3.54 2.48 3.54 1.36 0 2.3-.94 2.67-1.84.11-.3.18-.67.18-1.03v-6.83h2.02v8.1zm3.36-4.62c0-1.31-.02-2.44-.09-3.47h1.77l.07 2.18h.09c.51-1.49 1.72-2.44 3.08-2.44.23 0 .39.02.57.07v1.91a2.8 2.8 0 0 0-.69-.07c-1.43 0-2.44 1.08-2.71 2.6-.05.28-.09.6-.09.94v5.93h-2zm8.42 2.46c.05 2.74 1.79 3.86 3.82 3.86 1.45 0 2.32-.25 3.08-.57l.34 1.45c-.71.32-1.93.69-3.7.69-3.43 0-5.47-2.25-5.47-5.61s1.98-6 5.22-6c3.63 0 4.6 3.2 4.6 5.24 0 .41-.05.74-.07.94zm5.93-1.45c.02-1.29-.53-3.29-2.81-3.29-2.05 0-2.94 1.89-3.1 3.29zm4.47-9.68h2.02v16.33h-2.02zm6.16 5.2 2.44 6.58c.25.74.53 1.61.71 2.28h.05c.21-.67.44-1.52.71-2.32l2.21-6.53h2.14l-3.04 7.93c-1.45 3.82-2.44 5.77-3.82 6.97-.99.87-1.98 1.22-2.48 1.31l-.51-1.7c.51-.16 1.17-.48 1.77-.99.55-.44 1.24-1.22 1.7-2.25.09-.21.16-.37.16-.48s-.05-.28-.14-.53l-4.12-10.26h2.22zm-50.83 38.73c.05-.76.09-1.89.09-2.87V52.89h2v6.99h.05c.71-1.24 2-2.05 3.79-2.05 2.76 0 4.71 2.3 4.69 5.68 0 3.98-2.51 5.96-4.99 5.96-1.61 0-2.9-.62-3.73-2.09h-.07l-.09 1.84zm2.09-4.46c0 .25.05.51.09.74.39 1.4 1.56 2.37 3.04 2.37 2.12 0 3.38-1.72 3.38-4.28 0-2.23-1.15-4.14-3.31-4.14-1.38 0-2.67.94-3.08 2.48-.05.23-.11.51-.11.83v2zm12.22-.74c.05 2.74 1.79 3.86 3.82 3.86 1.45 0 2.32-.25 3.08-.57l.34 1.45c-.71.32-1.93.69-3.7.69-3.43 0-5.47-2.25-5.47-5.61s1.98-6 5.22-6c3.63 0 4.6 3.2 4.6 5.24 0 .41-.05.74-.07.94zm5.93-1.45c.02-1.29-.53-3.29-2.81-3.29-2.05 0-2.94 1.89-3.1 3.29zm6.9-7.68v3.2h2.9v1.54h-2.9v6c0 1.38.39 2.16 1.52 2.16.53 0 .92-.07 1.17-.14l.09 1.52c-.39.16-1.01.28-1.79.28-.94 0-1.7-.3-2.18-.85-.57-.6-.78-1.59-.78-2.9v-6.07h-1.72v-1.54h1.72v-2.67zm7.61 0v3.2h2.9v1.54h-2.9v6c0 1.38.39 2.16 1.52 2.16.53 0 .92-.07 1.17-.14l.09 1.52c-.39.16-1.01.28-1.79.28-.94 0-1.7-.3-2.18-.85-.57-.6-.78-1.59-.78-2.9v-6.07h-1.72v-1.54h1.72v-2.67zm6.17 9.13c.05 2.74 1.79 3.86 3.82 3.86 1.45 0 2.32-.25 3.08-.57l.34 1.45c-.71.32-1.93.69-3.7.69-3.43 0-5.47-2.25-5.47-5.61s1.98-6 5.22-6c3.63 0 4.6 3.2 4.6 5.24 0 .41-.05.74-.07.94zm5.93-1.45c.02-1.29-.53-3.29-2.81-3.29-2.05 0-2.94 1.89-3.1 3.29zm4.46-1.01c0-1.31-.02-2.44-.09-3.47h1.77l.07 2.18h.09c.51-1.49 1.72-2.44 3.08-2.44.23 0 .39.02.57.07v1.91a2.8 2.8 0 0 0-.69-.07c-1.43 0-2.44 1.08-2.71 2.6-.05.28-.09.6-.09.94v5.93h-2z"/>
    <path class="st3" d="M125.5 407.86h77.17v74.66H125.5z"/>
    <path d="M127.18 416.69c0-1.43-.05-2.58-.09-3.63h1.82l.09 1.91h.05c.83-1.36 2.14-2.16 3.96-2.16 2.69 0 4.71 2.28 4.71 5.66 0 4-2.44 5.98-5.06 5.98-1.47 0-2.76-.64-3.43-1.75h-.05v6.05h-2zm2 2.97c0 .3.05.58.09.83.37 1.4 1.59 2.37 3.04 2.37 2.14 0 3.38-1.75 3.38-4.3 0-2.23-1.17-4.14-3.31-4.14-1.38 0-2.67.99-3.06 2.51-.07.25-.14.55-.14.83zm20.4 1.5c0 1.15.02 2.16.09 3.04h-1.79l-.12-1.82h-.05c-.53.9-1.7 2.07-3.68 2.07-1.75 0-3.84-.97-3.84-4.88v-6.51h2.02v6.16c0 2.12.64 3.54 2.48 3.54 1.36 0 2.3-.94 2.67-1.84.11-.3.18-.67.18-1.03v-6.83h2.02v8.1zm3.36-4.63c0-1.31-.02-2.44-.09-3.47h1.77l.07 2.18h.09c.51-1.49 1.72-2.44 3.08-2.44.23 0 .39.02.57.07v1.91a2.8 2.8 0 0 0-.69-.07c-1.43 0-2.44 1.08-2.71 2.6-.05.28-.09.6-.09.94v5.93h-2zm8.42 2.46c.05 2.74 1.79 3.86 3.82 3.86 1.45 0 2.32-.25 3.08-.57l.34 1.45c-.71.32-1.93.69-3.7.69-3.43 0-5.47-2.25-5.47-5.61s1.98-6 5.22-6c3.63 0 4.6 3.2 4.6 5.24 0 .41-.05.74-.07.94zm5.93-1.45c.02-1.29-.53-3.29-2.81-3.29-2.05 0-2.94 1.89-3.1 3.29zm4.46-9.68h2.02v16.33h-2.02zm6.17 5.2 2.44 6.58c.25.74.53 1.61.71 2.28h.05c.21-.67.44-1.52.71-2.32l2.21-6.53h2.14l-3.04 7.93c-1.45 3.82-2.44 5.77-3.82 6.97-.99.87-1.98 1.22-2.48 1.31l-.51-1.7c.51-.16 1.17-.48 1.77-.99.55-.44 1.24-1.22 1.7-2.25.09-.21.16-.37.16-.48s-.05-.28-.14-.53l-4.12-10.26h2.22zm-49.93 27.6 1.47 5.66c.32 1.24.62 2.39.83 3.54h.07c.25-1.13.62-2.32.99-3.52l1.82-5.68h1.7l1.72 5.57c.41 1.33.74 2.51.99 3.63h.07c.18-1.13.48-2.3.85-3.61l1.59-5.59h2l-3.59 11.13h-1.84l-1.7-5.31c-.39-1.24-.71-2.35-.99-3.66h-.05c-.28 1.33-.62 2.48-1.01 3.68l-1.79 5.29h-1.84l-3.36-11.13zm25.96 5.47c0 4.12-2.85 5.91-5.54 5.91-3.01 0-5.33-2.21-5.33-5.73 0-3.73 2.44-5.91 5.52-5.91 3.19.01 5.35 2.33 5.35 5.73m-8.83.12c0 2.44 1.4 4.28 3.38 4.28 1.93 0 3.38-1.82 3.38-4.32 0-1.89-.94-4.28-3.33-4.28s-3.43 2.2-3.43 4.32m11.39-2.12c0-1.31-.02-2.44-.09-3.47h1.77l.07 2.18h.09c.51-1.49 1.72-2.44 3.08-2.44.23 0 .39.02.57.07v1.91a2.8 2.8 0 0 0-.69-.07c-1.43 0-2.44 1.08-2.71 2.6-.05.28-.09.6-.09.94v5.93h-2zm7.24 5.59c.6.39 1.66.8 2.67.8 1.47 0 2.16-.74 2.16-1.66 0-.97-.57-1.5-2.07-2.05-2-.71-2.94-1.82-2.94-3.15 0-1.79 1.45-3.27 3.84-3.27 1.13 0 2.12.32 2.74.69l-.51 1.47c-.44-.28-1.24-.64-2.28-.64-1.2 0-1.86.69-1.86 1.52 0 .92.67 1.33 2.12 1.89 1.93.74 2.92 1.7 2.92 3.36 0 1.96-1.52 3.33-4.16 3.33-1.22 0-2.35-.3-3.13-.76zm10.51-3.13c.05 2.74 1.79 3.86 3.82 3.86 1.45 0 2.32-.25 3.08-.57l.34 1.45c-.71.32-1.93.69-3.7.69-3.43 0-5.47-2.25-5.47-5.61s1.98-6 5.22-6c3.63 0 4.6 3.2 4.6 5.24 0 .41-.05.74-.07.94zm5.93-1.45c.02-1.29-.53-3.29-2.81-3.29-2.05 0-2.94 1.89-3.1 3.29z"/>
    <path class="st3" d="M121.81 238.14h86.59v68.1h-86.59z"/>
    <path d="M123.49 246.35c0-1.15-.02-2.09-.09-3.01h1.79l.11 1.84h.05c.55-1.06 1.84-2.09 3.68-2.09 1.54 0 3.93.92 3.93 4.74v6.65h-2.02v-6.42c0-1.79-.67-3.29-2.58-3.29-1.33 0-2.37.94-2.71 2.07-.09.25-.14.6-.14.94v6.69h-2.02zm13.89 2.92c.05 2.74 1.79 3.86 3.82 3.86 1.45 0 2.32-.25 3.08-.57l.34 1.45c-.71.32-1.93.69-3.7.69-3.43 0-5.47-2.25-5.47-5.61s1.98-6 5.22-6c3.63 0 4.6 3.2 4.6 5.24 0 .41-.05.74-.07.94zm5.94-1.45c.02-1.29-.53-3.29-2.81-3.29-2.05 0-2.94 1.89-3.1 3.29zm13.77 3.61c0 1.15.02 2.16.09 3.04h-1.79l-.12-1.82h-.05c-.53.9-1.7 2.07-3.68 2.07-1.75 0-3.84-.97-3.84-4.88v-6.51h2.02v6.16c0 2.12.64 3.54 2.48 3.54 1.36 0 2.3-.94 2.67-1.84.11-.3.18-.67.18-1.03v-6.83h2.02v8.1zm5.8-11.29v3.2h2.9v1.54h-2.9v6c0 1.38.39 2.16 1.52 2.16.53 0 .92-.07 1.17-.14l.09 1.52c-.39.16-1.01.28-1.79.28-.94 0-1.7-.3-2.18-.85-.57-.6-.78-1.59-.78-2.9v-6.07h-1.72v-1.54h1.72v-2.67zm5.18 6.67c0-1.31-.02-2.44-.09-3.47h1.77l.07 2.18h.09c.51-1.49 1.72-2.44 3.08-2.44.23 0 .39.02.57.07v1.91a2.8 2.8 0 0 0-.69-.07c-1.43 0-2.44 1.08-2.71 2.6-.05.28-.09.6-.09.94v5.93h-2zm13.56 7.66-.16-1.4h-.07c-.62.87-1.82 1.66-3.4 1.66-2.25 0-3.4-1.59-3.4-3.2 0-2.69 2.39-4.16 6.69-4.14v-.23c0-.92-.25-2.58-2.53-2.58-1.03 0-2.12.32-2.9.83l-.46-1.33c.92-.6 2.25-.99 3.66-.99 3.4 0 4.23 2.32 4.23 4.55v4.16c0 .97.05 1.91.18 2.67zm-.29-5.68c-2.21-.05-4.71.34-4.71 2.51 0 1.31.87 1.93 1.91 1.93 1.45 0 2.37-.92 2.69-1.86.07-.21.12-.44.12-.64v-1.94zm5.22-10.65h2.02v16.33h-2.02z"/>
    <path class="st3" d="M234.35 132.98h86.59v68.1h-86.59z"/>
    <path d="M245.62 138.18c-.05.8-.09 1.7-.09 3.06v6.46c0 2.55-.51 4.12-1.59 5.08-1.08 1.01-2.64 1.33-4.05 1.33-1.33 0-2.81-.32-3.7-.92l.51-1.54c.74.46 1.89.87 3.27.87 2.07 0 3.59-1.08 3.59-3.89v-1.24h-.05c-.62 1.03-1.82 1.86-3.54 1.86-2.76 0-4.74-2.35-4.74-5.43 0-3.77 2.46-5.91 5.01-5.91 1.93 0 2.99 1.01 3.47 1.93h.05l.09-1.68h1.77zm-2.1 4.39c0-.34-.02-.64-.11-.92-.37-1.17-1.36-2.14-2.83-2.14-1.93 0-3.31 1.63-3.31 4.21 0 2.18 1.1 4 3.29 4 1.24 0 2.37-.78 2.81-2.07.11-.34.16-.74.16-1.08v-2zm15.44 1.08c0 4.12-2.85 5.91-5.54 5.91-3.01 0-5.33-2.21-5.33-5.73 0-3.73 2.44-5.91 5.52-5.91 3.18.01 5.35 2.33 5.35 5.73m-8.84.12c0 2.44 1.4 4.28 3.38 4.28 1.93 0 3.38-1.82 3.38-4.32 0-1.89-.94-4.28-3.33-4.28s-3.43 2.2-3.43 4.32m21.46-.12c0 4.12-2.85 5.91-5.54 5.91-3.01 0-5.33-2.21-5.33-5.73 0-3.73 2.44-5.91 5.52-5.91 3.19.01 5.35 2.33 5.35 5.73m-8.83.12c0 2.44 1.4 4.28 3.38 4.28 1.93 0 3.38-1.82 3.38-4.32 0-1.89-.94-4.28-3.33-4.28s-3.43 2.2-3.43 4.32m21-10.79v13.45c0 .99.02 2.12.09 2.87h-1.82l-.09-1.93h-.05c-.62 1.24-1.98 2.18-3.79 2.18-2.69 0-4.76-2.28-4.76-5.66-.02-3.7 2.28-5.98 4.99-5.98 1.7 0 2.85.8 3.36 1.7h.05v-6.65h2.02zm-2.02 9.73c0-.25-.02-.6-.09-.85-.3-1.29-1.4-2.35-2.92-2.35-2.09 0-3.33 1.84-3.33 4.3 0 2.25 1.1 4.12 3.29 4.12 1.36 0 2.6-.9 2.97-2.41.07-.28.09-.55.09-.87v-1.94zM247.48 365.9c.05-.76.09-1.89.09-2.87v-13.45h2v6.99h.05c.71-1.24 2-2.05 3.79-2.05 2.76 0 4.71 2.3 4.69 5.68 0 3.98-2.51 5.96-4.99 5.96-1.61 0-2.9-.62-3.73-2.09h-.07l-.09 1.84h-1.74zm2.09-4.46c0 .25.05.51.09.74.39 1.4 1.56 2.37 3.04 2.37 2.12 0 3.38-1.72 3.38-4.28 0-2.23-1.15-4.14-3.31-4.14-1.38 0-2.67.94-3.08 2.48-.05.23-.11.51-.11.83v2zm17.25 4.46-.16-1.4h-.07c-.62.87-1.82 1.66-3.4 1.66-2.25 0-3.4-1.59-3.4-3.2 0-2.69 2.39-4.16 6.69-4.14v-.23c0-.92-.25-2.58-2.53-2.58-1.03 0-2.12.32-2.9.83l-.46-1.33c.92-.6 2.25-.99 3.66-.99 3.4 0 4.23 2.32 4.23 4.55v4.16c0 .97.05 1.91.18 2.67zm-.3-5.68c-2.21-.05-4.71.34-4.71 2.51 0 1.31.87 1.93 1.91 1.93 1.45 0 2.37-.92 2.69-1.86.07-.21.12-.44.12-.64v-1.94zm14.84-10.64v13.45c0 .99.02 2.12.09 2.87h-1.82l-.09-1.93h-.05c-.62 1.24-1.98 2.18-3.79 2.18-2.69 0-4.76-2.28-4.76-5.66-.02-3.7 2.28-5.98 4.99-5.98 1.7 0 2.85.8 3.36 1.7h.05v-6.65h2.02zm-2.03 9.72c0-.25-.02-.6-.09-.85-.3-1.29-1.4-2.35-2.92-2.35-2.09 0-3.33 1.84-3.33 4.3 0 2.25 1.1 4.12 3.29 4.12 1.36 0 2.6-.9 2.97-2.41.07-.28.09-.55.09-.87v-1.94z"/>
    <path class="st3" d="m570.885 269.278 132.337-76.405 29.955 51.883-132.337 76.405z"/>
    <path d="M616.6 253.1c-.71-1.23-1.33-2.21-1.9-3.1l1.57-.91 1.03 1.61.04-.02c.04-1.59.77-2.94 2.34-3.85 2.33-1.35 5.22-.39 6.91 2.54 2 3.46.88 6.4-1.39 7.71-1.27.74-2.71.82-3.84.2l-.04.02 3.02 5.24-1.73 1zm3.21 1.57c.15.26.33.48.49.67 1.02 1.03 2.56 1.26 3.81.53 1.85-1.07 2.05-3.2.78-5.42-1.12-1.93-3.08-3-4.94-1.93-1.2.69-1.82 2.19-1.4 3.7.07.25.16.55.29.79zm18.42-8.91c.57 1 1.1 1.86 1.6 2.58l-1.55.9-1.01-1.52-.04.02a4.19 4.19 0 0 1-2.15 3.63c-1.51.87-3.81 1.08-5.76-2.3l-3.25-5.64 1.75-1.01 3.08 5.34c1.06 1.83 2.33 2.75 3.92 1.83 1.17-.68 1.52-1.97 1.39-2.93-.05-.32-.17-.67-.36-.99l-3.42-5.92 1.75-1.01zm.59-5.68c-.66-1.13-1.24-2.1-1.82-2.96l1.53-.89 1.15 1.86.08-.05c-.31-1.55.27-2.97 1.45-3.65.2-.12.35-.17.53-.23l.95 1.65c-.2.06-.39.15-.63.29-1.23.71-1.57 2.15-1.05 3.61.1.26.22.56.39.86l2.97 5.14-1.73 1zm8.52-2.08c1.41 2.35 3.49 2.45 5.24 1.44 1.25-.72 1.88-1.38 2.38-2.04l1.02 1.08c-.46.63-1.33 1.56-2.86 2.45-2.97 1.71-5.87.79-7.54-2.12-1.68-2.91-1.29-6.19 1.52-7.81 3.15-1.82 5.58.47 6.6 2.24.21.36.33.66.41.85zm4.42-4.22c-.62-1.13-2.1-2.58-4.07-1.44-1.77 1.02-1.61 3.11-1.04 4.4zm-.98-10.61 1.75-1.01 8.16 14.14-1.75 1.01zm7.94 1.41 5.4 4.48c.59.51 1.26 1.13 1.76 1.62l.04-.02c-.15-.68-.38-1.53-.54-2.37l-1.35-6.76 1.85-1.07 1.34 8.39c.65 4.03.77 6.22.18 7.94-.42 1.25-1.1 2.04-1.5 2.38l-1.29-1.22c.36-.39.77-1 1.04-1.74.26-.65.47-1.68.35-2.8-.02-.23-.04-.4-.1-.5s-.18-.22-.38-.39l-8.69-6.82zm-60.93 63.44c.37.58.2 1.32-.49 1.72-.62.36-1.33.13-1.68-.47-.36-.62-.17-1.36.46-1.73.66-.38 1.36-.14 1.71.48m5.18 13.47-5.56-9.64 1.75-1.01 5.57 9.64zm.6-9.72c-.58-1-1.07-1.8-1.59-2.56l1.55-.9 1.02 1.54.04-.02c-.05-1.19.55-2.73 2.14-3.65 1.33-.77 3.87-1.17 5.77 2.14l3.32 5.76-1.75 1.01-3.21-5.56c-.9-1.55-2.22-2.51-3.88-1.56-1.15.67-1.58 2-1.31 3.15.05.26.18.59.35.88l3.35 5.79-1.75 1.01zm21.78-3.68c-.32.5-1.15 1.41-2.45 2.16-2.91 1.68-5.94.8-7.64-2.15-1.71-2.97-.92-6.29 2.22-8.11 1.04-.6 2.1-.87 2.72-.9l.38 1.58c-.56 0-1.34.16-2.3.71-2.21 1.28-2.46 3.6-1.3 5.61 1.29 2.23 3.51 2.78 5.43 1.67 1-.58 1.5-1.21 1.88-1.72zm8.03-10.69c2.06 3.57.49 6.54-1.84 7.89-2.61 1.51-5.72.76-7.48-2.29-1.86-3.23-.84-6.34 1.82-7.88 2.77-1.6 5.8-.67 7.5 2.28m-7.58 4.51c1.22 2.11 3.35 3 5.07 2.01 1.67-.97 2.02-3.26.77-5.43-.94-1.63-2.96-3.23-5.03-2.04-2.08 1.2-1.87 3.63-.81 5.46m8.57-7.92c-.58-1-1.07-1.8-1.59-2.56l1.53-.89.98 1.51.06-.03c.01-1.23.41-2.6 2-3.52 1.31-.76 2.77-.54 3.84.36l.04-.02c-.01-.71.13-1.35.35-1.88.32-.77.82-1.38 1.74-1.91 1.27-.74 3.65-.99 5.58 2.35l3.28 5.68-1.71.99-3.15-5.46c-1.07-1.85-2.39-2.58-3.8-1.76-1 .58-1.35 1.76-1.15 2.79.06.29.18.64.37.96l3.44 5.96-1.71.99-3.33-5.78c-.89-1.53-2.21-2.26-3.54-1.49-1.1.63-1.39 1.97-1.16 3.01.05.32.18.64.36.94l3.36 5.82-1.71.99zm16.92-9.05c-.71-1.23-1.33-2.21-1.9-3.1l1.57-.91 1.04 1.61.04-.02c.04-1.59.77-2.94 2.34-3.85 2.33-1.35 5.22-.39 6.91 2.54 2 3.46.88 6.4-1.39 7.71-1.27.74-2.71.82-3.84.2l-.04.02 3.02 5.24-1.73 1zm3.22 1.57c.15.26.33.48.49.67 1.02 1.03 2.56 1.26 3.81.53 1.85-1.07 2.05-3.2.78-5.41-1.12-1.93-3.08-3-4.94-1.93-1.2.69-1.82 2.19-1.4 3.7.07.25.16.55.29.79zm17.2-4.7-.84-1.13-.06.04c-.1 1.07-.75 2.34-2.12 3.13-1.95 1.13-3.74.33-4.55-1.07-1.34-2.33-.01-4.8 3.73-6.93l-.12-.2c-.46-.8-1.51-2.1-3.48-.96-.9.52-1.67 1.34-2.09 2.17l-1.07-.92c.5-.98 1.46-1.98 2.67-2.69 2.95-1.7 4.83-.1 5.94 1.83l2.08 3.6c.48.84.99 1.63 1.49 2.22zm-3.1-4.77c-1.93 1.06-3.91 2.66-2.83 4.53.66 1.14 1.72 1.24 2.62.72 1.25-.72 1.59-1.98 1.4-2.96a2.2 2.2 0 0 0-.22-.62zm3.53-4.33c-.66-1.14-1.24-2.1-1.82-2.96l1.53-.88 1.15 1.86.08-.05c-.31-1.55.27-2.97 1.45-3.65.2-.12.35-.17.53-.23l.95 1.65c-.2.06-.39.15-.63.29-1.24.71-1.57 2.15-1.05 3.61.1.26.22.56.39.86l2.97 5.14-1.73 1zm15.58-.15-.84-1.13-.06.04c-.1 1.07-.75 2.34-2.12 3.13-1.95 1.13-3.74.33-4.55-1.07-1.34-2.33-.01-4.8 3.73-6.93l-.12-.2c-.46-.8-1.51-2.1-3.48-.96-.9.52-1.67 1.34-2.1 2.17l-1.07-.92c.5-.98 1.46-1.98 2.67-2.68 2.95-1.7 4.83-.1 5.94 1.83l2.08 3.6c.48.84.99 1.63 1.49 2.22zm-3.1-4.77c-1.93 1.06-3.91 2.66-2.83 4.53.66 1.14 1.72 1.24 2.62.72 1.25-.72 1.59-1.98 1.4-2.96a2.2 2.2 0 0 0-.22-.62zm7.29 2.35c-.34-.68-.86-1.68-1.36-2.54l-6.73-11.65 1.73-1 3.5 6.05.04-.02c0-1.43.71-2.77 2.26-3.67 2.39-1.38 5.23-.37 6.9 2.57 1.99 3.45.81 6.41-1.34 7.65-1.39.8-2.82.91-4.27.05l-.06.04.84 1.64zm-.42-4.91c.13.22.29.42.45.59 1.04 1.02 2.54 1.27 3.81.53 1.83-1.06 2.07-3.18.79-5.39-1.12-1.93-3.07-3.01-4.94-1.93-1.19.69-1.84 2.15-1.43 3.69.08.22.15.5.31.77zm3.67-15.81 1.75-1.01 8.16 14.14-1.75 1.01zm11.24 6.36c1.41 2.35 3.49 2.45 5.24 1.44 1.25-.72 1.89-1.38 2.38-2.04l1.02 1.08c-.46.64-1.33 1.56-2.86 2.45-2.97 1.71-5.87.79-7.54-2.12-1.68-2.91-1.29-6.19 1.52-7.81 3.15-1.82 5.58.47 6.6 2.24.21.36.33.66.41.85zm4.41-4.22c-.62-1.13-2.1-2.58-4.07-1.44-1.77 1.02-1.61 3.1-1.04 4.4z"/>
    <path class="st3" d="M378.93 167.62h118.54v48.76H378.93z"/>
    <path d="M380.61 175.83c0-1.15-.02-2.09-.09-3.01h1.77l.09 1.79h.07c.62-1.06 1.66-2.05 3.5-2.05 1.52 0 2.67.92 3.15 2.23h.05c.34-.62.78-1.1 1.24-1.45.67-.51 1.4-.78 2.46-.78 1.47 0 3.66.97 3.66 4.83v6.55h-1.98v-6.3c0-2.14-.78-3.43-2.42-3.43-1.15 0-2.05.85-2.39 1.84-.09.28-.16.64-.16 1.01v6.88h-1.98v-6.67c0-1.77-.78-3.06-2.32-3.06-1.26 0-2.18 1.01-2.51 2.02-.12.3-.16.64-.16.99v6.71h-1.98zm20.31 2.92c.05 2.74 1.79 3.86 3.82 3.86 1.45 0 2.32-.25 3.08-.57l.34 1.45c-.71.32-1.93.69-3.7.69-3.43 0-5.47-2.25-5.47-5.61s1.98-6 5.22-6c3.63 0 4.6 3.2 4.6 5.24 0 .41-.05.74-.07.94zm5.93-1.45c.02-1.29-.53-3.29-2.81-3.29-2.05 0-2.94 1.89-3.1 3.29zm4.47-9.68h2.02v6.94h.05c.32-.58.83-1.08 1.45-1.43.6-.34 1.31-.58 2.07-.58 1.49 0 3.89.92 3.89 4.76v6.62h-2.02v-6.39c0-1.79-.67-3.31-2.58-3.31-1.31 0-2.35.92-2.71 2.02-.11.28-.14.58-.14.97v6.71h-2.02v-16.31zm17.64 0h2.02v16.33h-2.02zm7.68 2.07c.02.69-.48 1.24-1.29 1.24-.71 0-1.22-.55-1.22-1.24 0-.71.53-1.26 1.26-1.26.76 0 1.25.55 1.25 1.26m-2.26 14.26v-11.13h2.02v11.13zm6.17-11.13 2.18 6.25c.37 1.01.67 1.93.9 2.85h.07c.25-.92.58-1.84.94-2.85l2.16-6.25h2.12l-4.37 11.13h-1.93l-4.23-11.13zm11.18 5.93c.05 2.74 1.79 3.86 3.82 3.86 1.45 0 2.32-.25 3.08-.57l.34 1.45c-.71.32-1.93.69-3.7.69-3.43 0-5.47-2.25-5.47-5.61s1.98-6 5.22-6c3.63 0 4.6 3.2 4.6 5.24 0 .41-.05.74-.07.94zm5.93-1.45c.02-1.29-.53-3.29-2.81-3.29-2.05 0-2.94 1.89-3.1 3.29zm4.18 4.58c.6.39 1.66.8 2.67.8 1.47 0 2.16-.74 2.16-1.66 0-.97-.57-1.5-2.07-2.05-2-.71-2.94-1.82-2.94-3.15 0-1.79 1.45-3.27 3.84-3.27 1.13 0 2.12.32 2.74.69l-.51 1.47c-.44-.28-1.24-.64-2.28-.64-1.2 0-1.86.69-1.86 1.52 0 .92.67 1.33 2.12 1.89 1.93.74 2.92 1.7 2.92 3.36 0 1.96-1.52 3.33-4.16 3.33-1.22 0-2.35-.3-3.13-.76z" style="fill:#1b4b7f"/>
    <path class="st3" d="M352.66 33.16h234.55v52.12H352.66z"/>
    <path class="st12" d="M354.34 41.99c0-1.43-.05-2.58-.09-3.63h1.82l.09 1.91h.05c.83-1.36 2.14-2.16 3.96-2.16 2.69 0 4.71 2.28 4.71 5.66 0 4-2.44 5.98-5.06 5.98-1.47 0-2.76-.64-3.43-1.75h-.05v6.05h-2zm2 2.97c0 .3.05.58.09.83.37 1.4 1.59 2.37 3.04 2.37 2.14 0 3.38-1.75 3.38-4.3 0-2.23-1.17-4.14-3.31-4.14-1.38 0-2.67.99-3.06 2.51-.07.25-.14.55-.14.83zm21.16-1.13c0 4.12-2.85 5.91-5.54 5.91-3.01 0-5.33-2.21-5.33-5.73 0-3.73 2.44-5.91 5.52-5.91 3.19 0 5.35 2.33 5.35 5.73m-8.83.11c0 2.44 1.4 4.28 3.38 4.28 1.93 0 3.38-1.82 3.38-4.32 0-1.89-.94-4.28-3.33-4.28s-3.43 2.21-3.43 4.32m11.11 3.48c.6.39 1.66.8 2.67.8 1.47 0 2.16-.74 2.16-1.66 0-.97-.57-1.5-2.07-2.05-2-.71-2.94-1.82-2.94-3.15 0-1.79 1.45-3.27 3.84-3.27 1.13 0 2.12.32 2.74.69l-.51 1.47c-.44-.28-1.24-.64-2.28-.64-1.2 0-1.86.69-1.86 1.52 0 .92.67 1.33 2.12 1.89 1.93.74 2.92 1.7 2.92 3.36 0 1.96-1.52 3.33-4.16 3.33-1.22 0-2.35-.3-3.13-.76zm9.11 0c.6.39 1.66.8 2.67.8 1.47 0 2.16-.74 2.16-1.66 0-.97-.57-1.5-2.07-2.05-2-.71-2.94-1.82-2.94-3.15 0-1.79 1.45-3.27 3.84-3.27 1.13 0 2.12.32 2.74.69l-.51 1.47c-.44-.28-1.24-.64-2.28-.64-1.2 0-1.86.69-1.86 1.52 0 .92.67 1.33 2.12 1.89 1.93.74 2.92 1.7 2.92 3.36 0 1.96-1.52 3.33-4.16 3.33-1.22 0-2.35-.3-3.13-.76zm11.63-12.19c.02.69-.48 1.24-1.29 1.24-.71 0-1.22-.55-1.22-1.24 0-.71.53-1.26 1.26-1.26.77-.01 1.25.55 1.25 1.26m-2.25 14.26V38.36h2.02v11.13zm5.29 0c.05-.76.09-1.89.09-2.87V33.16h2v6.99h.05c.71-1.24 2-2.05 3.79-2.05 2.76 0 4.71 2.3 4.69 5.68 0 3.98-2.51 5.96-4.99 5.96-1.61 0-2.9-.62-3.73-2.09h-.07l-.09 1.84zm2.09-4.46c0 .25.05.51.09.74.39 1.4 1.56 2.37 3.04 2.37 2.12 0 3.38-1.72 3.38-4.28 0-2.23-1.15-4.14-3.31-4.14-1.38 0-2.67.94-3.08 2.48-.05.23-.12.51-.12.83zm11.09-11.87h2.02v16.33h-2.02zm6.55 11.13c.05 2.74 1.79 3.86 3.82 3.86 1.45 0 2.32-.25 3.08-.57l.34 1.45c-.71.32-1.93.69-3.7.69-3.43 0-5.47-2.25-5.47-5.61s1.98-6 5.22-6c3.63 0 4.6 3.2 4.6 5.24 0 .41-.05.74-.07.94zm5.94-1.45c.02-1.29-.53-3.29-2.81-3.29-2.05 0-2.94 1.89-3.1 3.29zm10.12-4.48 2.18 6.25c.37 1.01.67 1.93.9 2.85h.07c.25-.92.58-1.84.94-2.85l2.16-6.25h2.12l-4.37 11.13h-1.93l-4.23-11.13zm16.35 11.13-.16-1.4h-.07c-.62.87-1.82 1.66-3.4 1.66-2.25 0-3.4-1.59-3.4-3.2 0-2.69 2.39-4.16 6.69-4.14v-.23c0-.92-.25-2.58-2.53-2.58-1.03 0-2.12.32-2.9.83l-.46-1.33c.92-.6 2.25-.99 3.66-.99 3.4 0 4.23 2.32 4.23 4.55v4.16c0 .97.05 1.91.18 2.67zm-.3-5.68c-2.21-.05-4.71.34-4.71 2.51 0 1.31.87 1.93 1.91 1.93 1.45 0 2.37-.92 2.69-1.86.07-.21.11-.44.11-.64zm5.22-10.65h2.02v16.33h-2.02zm14.74 13.29c0 1.15.02 2.16.09 3.04h-1.79l-.12-1.82h-.05c-.53.9-1.7 2.07-3.68 2.07-1.75 0-3.84-.97-3.84-4.88v-6.51H468v6.16c0 2.12.64 3.54 2.48 3.54 1.36 0 2.3-.94 2.67-1.84.12-.3.18-.67.18-1.03v-6.83h2.02v8.1zm4.49-2.16c.05 2.74 1.79 3.86 3.82 3.86 1.45 0 2.32-.25 3.08-.57l.34 1.45c-.71.32-1.93.69-3.7.69-3.43 0-5.47-2.25-5.47-5.61s1.98-6 5.22-6c3.63 0 4.6 3.2 4.6 5.24 0 .41-.05.74-.07.94zm5.93-1.45c.02-1.29-.53-3.29-2.81-3.29-2.05 0-2.94 1.89-3.1 3.29zm4.19 4.58c.6.39 1.66.8 2.67.8 1.47 0 2.16-.74 2.16-1.66 0-.97-.57-1.5-2.07-2.05-2-.71-2.94-1.82-2.94-3.15 0-1.79 1.45-3.27 3.84-3.27 1.13 0 2.12.32 2.74.69l-.51 1.47c-.44-.28-1.24-.64-2.28-.64-1.2 0-1.86.69-1.86 1.52 0 .92.67 1.33 2.12 1.89 1.93.74 2.92 1.7 2.92 3.36 0 1.96-1.52 3.33-4.16 3.33-1.22 0-2.35-.3-3.13-.76zm24.33-3.59c0 4.12-2.85 5.91-5.54 5.91-3.01 0-5.33-2.21-5.33-5.73 0-3.73 2.44-5.91 5.52-5.91 3.19 0 5.35 2.33 5.35 5.73m-8.83.11c0 2.44 1.4 4.28 3.38 4.28 1.93 0 3.38-1.82 3.38-4.32 0-1.89-.94-4.28-3.33-4.28s-3.43 2.21-3.43 4.32m11.59 5.55V39.9h-1.56v-1.54h1.56v-.53c0-1.56.34-2.99 1.29-3.89.76-.74 1.77-1.03 2.71-1.03.71 0 1.33.16 1.72.32l-.28 1.56c-.3-.14-.71-.25-1.29-.25-1.72 0-2.16 1.52-2.16 3.22v.6h2.69v1.54h-2.69v9.59zm11.39-16.33h2.02v16.33h-2.02zm7.68 2.07c.02.69-.48 1.24-1.29 1.24-.71 0-1.22-.55-1.22-1.24 0-.71.53-1.26 1.26-1.26.77-.01 1.25.55 1.25 1.26m-2.25 14.26V38.36h2.02v11.13zm6.16-11.13 2.18 6.25c.37 1.01.67 1.93.9 2.85h.07c.25-.92.58-1.84.94-2.85l2.16-6.25h2.12l-4.37 11.13h-1.93l-4.23-11.13zm11.18 5.93c.05 2.74 1.79 3.86 3.82 3.86 1.45 0 2.32-.25 3.08-.57l.34 1.45c-.71.32-1.93.69-3.7.69-3.43 0-5.47-2.25-5.47-5.61s1.98-6 5.22-6c3.63 0 4.6 3.2 4.6 5.24 0 .41-.05.74-.07.94zm5.93-1.45c.02-1.29-.53-3.29-2.81-3.29-2.05 0-2.94 1.89-3.1 3.29zm4.18 4.58c.6.39 1.66.8 2.67.8 1.47 0 2.16-.74 2.16-1.66 0-.97-.57-1.5-2.07-2.05-2-.71-2.94-1.82-2.94-3.15 0-1.79 1.45-3.27 3.84-3.27 1.13 0 2.12.32 2.74.69l-.51 1.47c-.44-.28-1.24-.64-2.28-.64-1.2 0-1.86.69-1.86 1.52 0 .92.67 1.33 2.12 1.89 1.93.74 2.92 1.7 2.92 3.36 0 1.96-1.52 3.33-4.16 3.33-1.22 0-2.35-.3-3.13-.76z"/>
    <path class="st3" d="m433.863 262.766 100.468-58.005 36.57 63.341-100.468 58.005z"/>
    <path d="M443.42 276.12c-.34-.68-.86-1.68-1.36-2.54l-6.73-11.65 1.73-1 3.5 6.05.04-.02c0-1.43.71-2.77 2.26-3.67 2.39-1.38 5.23-.37 6.9 2.57 1.99 3.45.81 6.41-1.34 7.65-1.39.8-2.82.91-4.27.05l-.06.03.84 1.64zm-.42-4.91c.13.22.29.42.45.59 1.04 1.02 2.54 1.27 3.81.53 1.83-1.06 2.07-3.18.79-5.39-1.12-1.93-3.06-3.01-4.94-1.93-1.19.69-1.84 2.15-1.43 3.69.08.22.15.5.31.77zm3.67-15.81 1.75-1.01 8.16 14.14-1.75 1.01zm19.41 4.14c.58 1 1.1 1.86 1.6 2.58l-1.55.9-1.01-1.52-.04.02a4.19 4.19 0 0 1-2.15 3.63c-1.51.87-3.81 1.08-5.76-2.3l-3.25-5.64 1.75-1.01 3.08 5.34c1.06 1.83 2.33 2.74 3.92 1.83 1.17-.68 1.52-1.97 1.39-2.93-.05-.32-.17-.67-.36-.99l-3.42-5.91 1.75-1.01zm.6-5.69c-.66-1.13-1.24-2.1-1.82-2.96l1.53-.89 1.15 1.86.08-.05c-.31-1.55.28-2.97 1.45-3.65.2-.12.35-.17.53-.23l.96 1.65c-.2.06-.39.15-.63.29-1.23.71-1.57 2.15-1.05 3.61.1.26.22.56.39.86l2.97 5.14-1.73 1zm6.59-3.8c-.66-1.13-1.24-2.1-1.82-2.96l1.53-.89 1.15 1.86.08-.05c-.31-1.55.27-2.97 1.45-3.65.2-.12.35-.17.53-.23l.95 1.65c-.2.06-.39.15-.63.29-1.23.71-1.57 2.15-1.05 3.61.1.26.22.56.39.86l2.97 5.14-1.73 1zm5.24-10.65c.37.59.2 1.32-.49 1.72-.62.36-1.33.13-1.68-.47-.36-.62-.17-1.36.46-1.73.66-.38 1.36-.14 1.71.48m5.18 13.47-5.56-9.64 1.75-1.01 5.56 9.64zm.6-9.72c-.57-1-1.07-1.8-1.59-2.56l1.55-.9 1.02 1.54.04-.02c-.05-1.19.55-2.73 2.14-3.65 1.33-.77 3.87-1.17 5.77 2.14l3.32 5.76-1.75 1.01-3.21-5.56c-.9-1.55-2.22-2.51-3.87-1.56-1.16.67-1.58 2-1.32 3.15.05.26.18.59.35.89l3.34 5.79-1.75 1.01zm13.49-4.42c1.41 2.35 3.48 2.45 5.24 1.44 1.25-.72 1.88-1.38 2.38-2.04l1.02 1.08c-.46.63-1.33 1.56-2.86 2.45-2.97 1.71-5.87.79-7.54-2.12-1.68-2.91-1.29-6.19 1.52-7.81 3.15-1.82 5.58.47 6.6 2.24.21.36.33.66.41.85zm4.42-4.22c-.62-1.13-2.1-2.58-4.07-1.44-1.77 1.02-1.61 3.11-1.04 4.4zm5.91 1.87c.71.04 1.84-.13 2.71-.64 1.27-.74 1.5-1.72 1.04-2.51-.48-.84-1.25-1.01-2.82-.74-2.09.38-3.46-.1-4.12-1.26-.9-1.55-.38-3.55 1.69-4.75.98-.56 1.99-.78 2.72-.77l.3 1.53c-.52-.02-1.4.06-2.29.58-1.04.6-1.27 1.53-.85 2.25.46.8 1.24.82 2.78.58 2.04-.33 3.38.01 4.21 1.45.98 1.69.35 3.65-1.94 4.97-1.06.61-2.18.91-3.09.91zm7.89-4.55c.71.04 1.84-.13 2.71-.64 1.28-.74 1.5-1.72 1.04-2.51-.48-.84-1.25-1.01-2.82-.74-2.09.38-3.46-.1-4.12-1.26-.9-1.55-.38-3.55 1.69-4.75.98-.56 1.99-.78 2.72-.77l.3 1.53c-.52-.02-1.4.06-2.29.58-1.04.6-1.27 1.53-.85 2.25.46.8 1.24.82 2.77.58 2.04-.33 3.38.01 4.21 1.45.98 1.69.35 3.65-1.94 4.97-1.06.61-2.18.91-3.09.91z"/>
    <path style="fill:#fff;stroke:#000;stroke-miterlimit:10" d="M212 247.5h239"/>
    <path class="st15" d="M504 247.5h88.69"/>
    <path d="m591.82 250.49 5.18-2.99-5.18-2.99z"/>
    <path style="fill:#fff" d="M212.5 445V41"/>
    <path class="st15" d="M212.5 440.69V45.31"/>
    <path d="M215.49 439.82 212.5 445l-2.99-5.18zm0-393.64L212.5 41l-2.99 5.18z"/>
    <path style="fill:none;stroke:#285e00;stroke-miterlimit:10" d="M343.5 45.31v386.38"/>
    <path class="st12" d="M340.51 46.18 343.5 41l2.99 5.18zm0 384.64 2.99 5.18 2.99-5.18z"/>
    <path d="m371.5 369 1-242m-17.5 0h18m-19 242h18" style="fill:none;stroke-miterlimit:10;stroke:#1b4b7f"/>
  </g>
  <g id="Population_Ethics_5"/>
  <g id="Population_Ethics_4"/>
  <g id="Population_Ethics_3"/>
  <g id="Population_Ethics_2"/>
  <g id="Population_Ethics_1"/>
</svg>
