<svg xmlns="http://www.w3.org/2000/svg" width="1270" height="180" viewBox="15 9 1270 180">
  <path d="M0 0h-2.809a.095.095 0 0 0-.092.116l1.193 5.387c.022.095.156.1.183.006L.091.122A.094.094 0 0 0 0 0m-5.827 6.798a.353.353 0 1 0 0 .706.353.353 0 0 0 0-.706M-8.751.116A.095.095 0 0 0-8.843 0h-2.81a.094.094 0 0 0-.091.122l1.616 5.387c.028.094.163.089.183-.006zM.759 0h-.21a.094.094 0 0 0-.091.068l-1.871 6.324a.095.095 0 0 1-.091.068l-3.953-.003v.103a.697.697 0 0 1-.369 1.289.698.698 0 0 1-.369-1.289v-.103l-3.953.003a.096.096 0 0 1-.092-.068L-12.111.068A.096.096 0 0 0-12.203 0h-.209c-.082 0-.126-.097-.072-.157.423-.474 1.263-.797 2.231-.797s1.808.323 2.231.797c.054.06.01.157-.072.157h-.212a.095.095 0 0 0-.093.074l-1.315 5.934a.095.095 0 0 0 .092.116h3.425v-9.049h-1.375v-.763h3.489v.763h-1.376v9.049h3.426a.095.095 0 0 0 .092-.116L-3.255.074A.096.096 0 0 0-3.348 0h-.211c-.082 0-.127-.097-.072-.157.423-.474 1.262-.797 2.23-.797S.407-.631.831-.157C.885-.097.84 0 .759 0" style="fill:#0b3959;fill-opacity:1;fill-rule:nonzero;stroke:none" transform="matrix(-14 0 0 -14 30 120)"/>
  <path d="M4.137.354h5.088v.763H4.137Z" style="fill:#0b3959;fill-opacity:1;fill-rule:nonzero;stroke:none" transform="matrix(-14 0 0 -14 205 190)"/>
  <path d="M291.837 169.533q18.45 0 29.55-11.55t11.1-34.95v-56.85l10.95-1.8v-7.5h-34.95v7.5l12.6 1.95v57.45q0 18.303-6.825 27.9t-20.475 9.6q-13.652 0-20.925-9t-7.275-29.4v-56.55l12.75-1.95v-7.5h-40.05v7.5l10.65 1.8v55.05q0 24.75 10.425 36.525t32.475 11.775Zm86.25.3a48.735 48.735 0 0 0 14.625-2.55q8.023-2.549 11.625-5.25l-2.25-6.75a40.119 40.119 0 0 1-7.575 2.25 42.617 42.617 0 0 1-8.925 1.05q-4.201 0-5.925-1.05t-2.25-4.5a92 92 0 0 1-.525-12v-46.05h25.05v-9.9h-25.05l-.304-21.6h-8.85q-.302 1.203-1.95 7.5a74.981 74.981 0 0 1-2.85 9.15q-1.35 4.05-3.75 5.4a19.011 19.011 0 0 1-4.65 1.65q-3.453.9-4.2 1.05v6.75h10.8v57.6q0 9.45 4.2 13.35t12.75 3.9Zm53.1-99.75h.15q5.25 0 8.175-3t2.925-8.1a10.009 10.009 0 0 0-2.4-6.9q-2.402-2.7-7.5-2.7t-8.025 3.15a11.229 11.229 0 0 0-2.925 7.95 9.993 9.993 0 0 0 2.4 6.9q2.397 2.7 7.2 2.7Zm-6 89.55-12.15 1.35v7.35h39.75v-7.35l-12-1.2v-73.95l-3.45-2.7h-.3l-23.25 2.85v7.95l11.4 2.7v63Zm49.198 0-12.15 1.35v7.35h40.5v-7.35l-12.75-1.2V47.733l-3.3-2.25h-.3l-24.151 2.85v6.45l12.15 1.65v103.2Zm56.698-89.55h.15q5.25 0 8.175-3t2.925-8.1a10.009 10.009 0 0 0-2.4-6.9q-2.401-2.7-7.5-2.7t-8.025 3.15a11.229 11.229 0 0 0-2.925 7.95 9.993 9.993 0 0 0 2.4 6.9q2.397 2.7 7.2 2.7Zm-6 89.55-12.15 1.35v7.35h39.75v-7.35l-12-1.2v-73.95l-3.45-2.7h-.3l-23.25 2.85v7.95l11.4 2.7v63Zm63.899 10.2a48.735 48.735 0 0 0 14.625-2.55q8.023-2.549 11.625-5.25l-2.25-6.75a40.119 40.119 0 0 1-7.575 2.25 42.617 42.617 0 0 1-8.925 1.05q-4.202 0-5.925-1.05t-2.25-4.5a92 92 0 0 1-.525-12v-46.05h25.051v-9.9h-25.05l-.3-21.6h-8.85q-.302 1.203-1.95 7.5a74.981 74.981 0 0 1-2.85 9.15q-1.35 4.05-3.75 5.4a19.011 19.011 0 0 1-4.65 1.65q-3.453.9-4.2 1.05v6.75h10.8v57.6q0 9.45 4.2 13.35t12.75 3.9Zm35.399-24q0 11.7 7.125 17.925t17.925 6.225a29.132 29.132 0 0 0 14.775-3.75 52.348 52.348 0 0 0 11.025-8.25v4.95q0 4.353 1.5 5.625t5.7 1.275a50.51 50.51 0 0 0 8.025-.75q4.573-.75 7.575-1.5v-6.6h-8.85v-48.15q0-10.8-2.7-17.25a17.441 17.441 0 0 0-8.925-9.375q-6.226-2.925-16.875-2.925a47.2 47.2 0 0 0-13.8 2.1 73.338 73.338 0 0 0-12.15 4.8 42.107 42.107 0 0 0-7.2 4.35l3.75 7.8a94.577 94.577 0 0 1 12.075-5.325 40.583 40.583 0 0 1 13.725-2.175q6.75 0 10.425 1.875a10.476 10.476 0 0 1 5.175 5.925q1.5 4.05 1.5 11.1v4.2q-21.6.45-35.7 7.125t-14.099 20.775Zm31.5 13.95q-6.75 0-10.725-3.825t-3.975-11.925q0-8.1 8.325-13.125t24.675-5.025v25.8a48.14 48.14 0 0 1-9.3 5.7 21.637 21.637 0 0 1-9 2.4Zm52.952 8.55h45.9v-7.2l-19.05-1.2v-54a38.791 38.791 0 0 1 23.1-7.65 18.541 18.541 0 0 1 5.175.675 11.702 11.702 0 0 1 3.376 1.425v-16.8a13.963 13.963 0 0 0-4.951-.75 27.302 27.302 0 0 0-13.35 3.375 41.615 41.615 0 0 0-10.05 7.425 39.138 39.138 0 0 0-5.4 6.6h-.45l.45-11.7v-2.7l-3.3-2.7h-.299l-20.704 2.7v8.1l10.8 2.7v63.45l-11.25.9v7.35Zm86.096-98.25h.15q5.25 0 8.175-3t2.925-8.1a10.009 10.009 0 0 0-2.4-6.9q-2.401-2.7-7.5-2.7t-8.025 3.15a11.229 11.229 0 0 0-2.925 7.95 9.993 9.993 0 0 0 2.4 6.9q2.397 2.7 7.2 2.7Zm-6 89.55-12.15 1.35v7.35h39.75v-7.35l-12-1.2v-73.95l-3.45-2.7h-.3l-23.25 2.85v7.95l11.4 2.7v63Zm38.25-13.8q0 11.7 7.122 17.925t17.925 6.225a29.13 29.13 0 0 0 14.775-3.75 52.348 52.348 0 0 0 11.025-8.25v4.95q0 4.353 1.5 5.625t5.7 1.275a50.492 50.492 0 0 0 8.025-.75q4.575-.75 7.575-1.5v-6.6h-8.85v-48.15q0-10.8-2.7-17.25a17.438 17.438 0 0 0-8.925-9.375q-6.225-2.925-16.875-2.925a47.208 47.208 0 0 0-13.8 2.1 73.398 73.398 0 0 0-12.15 4.8 42.076 42.076 0 0 0-7.197 4.35l3.75 7.8a94.628 94.628 0 0 1 12.075-5.325 40.583 40.583 0 0 1 13.725-2.175q6.75 0 10.425 1.875a10.47 10.47 0 0 1 5.175 5.925q1.5 4.05 1.5 11.1v4.2q-21.6.45-35.7 7.125t-14.101 20.775Zm31.5 13.95q-6.75 0-10.725-3.825t-3.975-11.925q0-8.1 8.325-13.125t24.675-5.025v25.8a48.089 48.089 0 0 1-9.3 5.7 21.631 21.631 0 0 1-9 2.4Zm61.65-.15-9.45 1.35v7.35h35.4v-7.35l-10.2-1.35v-56.85a55.043 55.043 0 0 1 10.95-6.3 28.833 28.833 0 0 1 11.55-2.7q6.3 0 9.6 2.475t4.5 7.5a62.673 62.673 0 0 1 1.2 13.875v42.15l-9.3 1.2v7.35h35.55v-7.5l-10.5-1.05v-42q0-12.6-2.1-20.025t-7.275-11.025q-5.175-3.6-14.625-3.6a42.021 42.021 0 0 0-16.95 3.9 54.411 54.411 0 0 0-14.25 8.7l.15-3.6v-6.3l-3.15-2.7h-.45l-21.454 2.7v8.1l10.8 2.7v63Zm108.296-89.55h.15q5.25 0 8.175-3t2.925-8.1a10 10 0 0 0-2.4-6.9q-2.4-2.7-7.5-2.7t-8.025 3.15a11.229 11.229 0 0 0-2.925 7.95 10 10 0 0 0 2.4 6.9q2.4 2.7 7.2 2.7Zm-6 89.55-12.15 1.35v7.35h39.75v-7.35l-12-1.2v-73.95l-3.45-2.7h-.3l-23.25 2.85v7.95l11.4 2.7v63Zm49.5-15h-9.75v19.2a98.639 98.639 0 0 0 13.125 4.125 62.828 62.828 0 0 0 15.375 2.025q15 0 23.625-6.6t8.625-17.7a19.812 19.812 0 0 0-3.525-11.925 27.642 27.642 0 0 0-8.775-7.875 107.167 107.167 0 0 0-13.65-6.3l-3-1.2q-5.7-2.397-9-4.2a16.678 16.678 0 0 1-5.475-4.725 12.108 12.108 0 0 1-2.175-7.425 9.508 9.508 0 0 1 4.125-8.1q4.125-3 10.875-3a27.95 27.95 0 0 1 8.7 1.275q3.9 1.276 4.8 3.075l3 11.1h9.15v-18.6q-1.05-.299-4.2-1.35a74.048 74.048 0 0 0-8.325-2.1 61.444 61.444 0 0 0-12.075-1.05 41.679 41.679 0 0 0-15.525 2.775 26.009 26.009 0 0 0-10.95 7.725 17.903 17.903 0 0 0-3.975 11.55q0 9.9 5.325 15.975t16.875 10.425q8.55 3.301 13.125 5.625a22.721 22.721 0 0 1 7.125 5.325 10.547 10.547 0 0 1 2.55 7.05q0 5.85-4.05 9.15t-12.6 3.3a29.425 29.425 0 0 1-10.275-1.8q-4.875-1.8-6.375-4.05Zm64.35 23.7h34.95v-7.35l-10.05-1.35v-56.85a48.106 48.106 0 0 1 10.575-6.3 28.318 28.318 0 0 1 11.475-2.7c4.292 0 7.5.825 9.6 2.475s3.525 4.125 4.275 7.425 1.125 7.95 1.125 13.95v42l-9.9 1.35v7.35h36.3v-7.35l-10.65-1.35v-41.85q0-10.8-1.35-16.65a38.437 38.437 0 0 1 9.45-5.175 28.816 28.816 0 0 1 10.5-2.175q6.6 0 10.125 2.55a12.963 12.963 0 0 1 4.8 7.725 60.75 60.75 0 0 1 1.275 13.875v41.7l-9.3 1.35v7.35h35.7v-7.35l-10.8-1.35v-42.15q0-12.449-2.175-19.875t-7.425-10.95q-5.263-3.523-14.55-3.525a42.792 42.792 0 0 0-16.125 3.525q-8.638 3.527-13.425 7.575a17.241 17.241 0 0 0-7.5-8.4q-4.95-2.7-13.05-2.7-7.2 0-16.275 3.975t-14.325 8.775l.15-4.8-.9-6-2.7-1.95-21.45 2.7v8.1l10.8 2.7v63l-9.15 1.35v7.35Z" style="fill:#0c3959;fill-rule:evenodd"/>
</svg>
