<?xml version="1.0" encoding="utf-8" standalone="no"?>
<!DOCTYPE svg PUBLIC "-//W3C//DTD SVG 1.1//EN"
  "http://www.w3.org/Graphics/SVG/1.1/DTD/svg11.dtd">
<svg xmlns:xlink="http://www.w3.org/1999/xlink" width="1061.011083pt" height="702.247759pt" viewBox="0 0 1061.011083 702.247759" xmlns="http://www.w3.org/2000/svg" version="1.1">
 <metadata>
  <rdf:RDF xmlns:dc="http://purl.org/dc/elements/1.1/" xmlns:cc="http://creativecommons.org/ns#" xmlns:rdf="http://www.w3.org/1999/02/22-rdf-syntax-ns#">
   <cc:Work>
    <dc:type rdf:resource="http://purl.org/dc/dcmitype/StillImage"/>
    <dc:date>2024-05-27T22:27:06.358646</dc:date>
    <dc:format>image/svg+xml</dc:format>
    <dc:creator>
     <cc:Agent>
      <dc:title>Matplotlib v3.7.5, https://matplotlib.org/</dc:title>
     </cc:Agent>
    </dc:creator>
   </cc:Work>
  </rdf:RDF>
 </metadata>
 <defs>
  <style type="text/css">*{stroke-linejoin: round; stroke-linecap: butt}</style>
 </defs>
 <g id="figure_1">
  <g id="patch_1">
   <path d="M 0 702.247759 
L 1061.011083 702.247759 
L 1061.011083 0 
L 0 0 
z
" style="fill: #ffffff"/>
  </g>
  <g id="axes_1">
   <g id="patch_2">
    <path d="M 99.783772 635.222134 
L 1036.843772 635.222134 
L 1036.843772 119.522134 
L 99.783772 119.522134 
z
" style="fill: #ffffff"/>
   </g>
   <g id="matplotlib.axis_1">
    <g id="xtick_1">
     <g id="line2d_1">
      <path d="M 100.718962 635.222134 
L 100.718962 119.522134 
" clip-path="url(#p80bed89d74)" style="fill: none; stroke-dasharray: 1,1.65; stroke-dashoffset: 0; stroke: #e6e6e6"/>
     </g>
     <g id="text_1">
      <!-- 0% -->
      <g style="fill: #262626" transform="translate(90.601775 666.243071) scale(0.14 -0.14)">
       <defs>
        <path id="ArialMT-30" d="M 266 2259 
Q 266 3072 433 3567 
Q 600 4063 929 4331 
Q 1259 4600 1759 4600 
Q 2128 4600 2406 4451 
Q 2684 4303 2865 4023 
Q 3047 3744 3150 3342 
Q 3253 2941 3253 2259 
Q 3253 1453 3087 958 
Q 2922 463 2592 192 
Q 2263 -78 1759 -78 
Q 1097 -78 719 397 
Q 266 969 266 2259 
z
M 844 2259 
Q 844 1131 1108 757 
Q 1372 384 1759 384 
Q 2147 384 2411 759 
Q 2675 1134 2675 2259 
Q 2675 3391 2411 3762 
Q 2147 4134 1753 4134 
Q 1366 4134 1134 3806 
Q 844 3388 844 2259 
z
" transform="scale(0.015625)"/>
        <path id="ArialMT-25" d="M 372 3481 
Q 372 3972 619 4315 
Q 866 4659 1334 4659 
Q 1766 4659 2048 4351 
Q 2331 4044 2331 3447 
Q 2331 2866 2045 2552 
Q 1759 2238 1341 2238 
Q 925 2238 648 2547 
Q 372 2856 372 3481 
z
M 1350 4272 
Q 1141 4272 1002 4090 
Q 863 3909 863 3425 
Q 863 2984 1003 2804 
Q 1144 2625 1350 2625 
Q 1563 2625 1702 2806 
Q 1841 2988 1841 3469 
Q 1841 3913 1700 4092 
Q 1559 4272 1350 4272 
z
M 1353 -169 
L 3859 4659 
L 4316 4659 
L 1819 -169 
L 1353 -169 
z
M 3334 1075 
Q 3334 1569 3581 1911 
Q 3828 2253 4300 2253 
Q 4731 2253 5014 1945 
Q 5297 1638 5297 1041 
Q 5297 459 5011 145 
Q 4725 -169 4303 -169 
Q 3888 -169 3611 142 
Q 3334 453 3334 1075 
z
M 4316 1866 
Q 4103 1866 3964 1684 
Q 3825 1503 3825 1019 
Q 3825 581 3965 400 
Q 4106 219 4313 219 
Q 4528 219 4667 400 
Q 4806 581 4806 1063 
Q 4806 1506 4665 1686 
Q 4525 1866 4316 1866 
z
" transform="scale(0.015625)"/>
       </defs>
       <use xlink:href="#ArialMT-30"/>
       <use xlink:href="#ArialMT-25" x="55.615234"/>
      </g>
     </g>
    </g>
    <g id="xtick_2">
     <g id="line2d_2">
      <path d="M 147.478443 635.222134 
L 147.478443 119.522134 
" clip-path="url(#p80bed89d74)" style="fill: none; stroke-dasharray: 1,1.65; stroke-dashoffset: 0; stroke: #e6e6e6"/>
     </g>
    </g>
    <g id="xtick_3">
     <g id="line2d_3">
      <path d="M 194.237924 635.222134 
L 194.237924 119.522134 
" clip-path="url(#p80bed89d74)" style="fill: none; stroke-dasharray: 1,1.65; stroke-dashoffset: 0; stroke: #e6e6e6"/>
     </g>
     <g id="text_2">
      <!-- 10% -->
      <g style="fill: #262626" transform="translate(180.22808 666.243071) scale(0.14 -0.14)">
       <defs>
        <path id="ArialMT-31" d="M 2384 0 
L 1822 0 
L 1822 3584 
Q 1619 3391 1289 3197 
Q 959 3003 697 2906 
L 697 3450 
Q 1169 3672 1522 3987 
Q 1875 4303 2022 4600 
L 2384 4600 
L 2384 0 
z
" transform="scale(0.015625)"/>
       </defs>
       <use xlink:href="#ArialMT-31"/>
       <use xlink:href="#ArialMT-30" x="55.615234"/>
       <use xlink:href="#ArialMT-25" x="111.230469"/>
      </g>
     </g>
    </g>
    <g id="xtick_4">
     <g id="line2d_4">
      <path d="M 240.997405 635.222134 
L 240.997405 119.522134 
" clip-path="url(#p80bed89d74)" style="fill: none; stroke-dasharray: 1,1.65; stroke-dashoffset: 0; stroke: #e6e6e6"/>
     </g>
    </g>
    <g id="xtick_5">
     <g id="line2d_5">
      <path d="M 287.756886 635.222134 
L 287.756886 119.522134 
" clip-path="url(#p80bed89d74)" style="fill: none; stroke-dasharray: 1,1.65; stroke-dashoffset: 0; stroke: #e6e6e6"/>
     </g>
     <g id="text_3">
      <!-- 20% -->
      <g style="fill: #262626" transform="translate(273.747042 666.243071) scale(0.14 -0.14)">
       <defs>
        <path id="ArialMT-32" d="M 3222 541 
L 3222 0 
L 194 0 
Q 188 203 259 391 
Q 375 700 629 1000 
Q 884 1300 1366 1694 
Q 2113 2306 2375 2664 
Q 2638 3022 2638 3341 
Q 2638 3675 2398 3904 
Q 2159 4134 1775 4134 
Q 1369 4134 1125 3890 
Q 881 3647 878 3216 
L 300 3275 
Q 359 3922 746 4261 
Q 1134 4600 1788 4600 
Q 2447 4600 2831 4234 
Q 3216 3869 3216 3328 
Q 3216 3053 3103 2787 
Q 2991 2522 2730 2228 
Q 2469 1934 1863 1422 
Q 1356 997 1212 845 
Q 1069 694 975 541 
L 3222 541 
z
" transform="scale(0.015625)"/>
       </defs>
       <use xlink:href="#ArialMT-32"/>
       <use xlink:href="#ArialMT-30" x="55.615234"/>
       <use xlink:href="#ArialMT-25" x="111.230469"/>
      </g>
     </g>
    </g>
    <g id="xtick_6">
     <g id="line2d_6">
      <path d="M 334.516367 635.222134 
L 334.516367 119.522134 
" clip-path="url(#p80bed89d74)" style="fill: none; stroke-dasharray: 1,1.65; stroke-dashoffset: 0; stroke: #e6e6e6"/>
     </g>
    </g>
    <g id="xtick_7">
     <g id="line2d_7">
      <path d="M 381.275848 635.222134 
L 381.275848 119.522134 
" clip-path="url(#p80bed89d74)" style="fill: none; stroke-dasharray: 1,1.65; stroke-dashoffset: 0; stroke: #e6e6e6"/>
     </g>
     <g id="text_4">
      <!-- 30% -->
      <g style="fill: #262626" transform="translate(367.266005 666.243071) scale(0.14 -0.14)">
       <defs>
        <path id="ArialMT-33" d="M 269 1209 
L 831 1284 
Q 928 806 1161 595 
Q 1394 384 1728 384 
Q 2125 384 2398 659 
Q 2672 934 2672 1341 
Q 2672 1728 2419 1979 
Q 2166 2231 1775 2231 
Q 1616 2231 1378 2169 
L 1441 2663 
Q 1497 2656 1531 2656 
Q 1891 2656 2178 2843 
Q 2466 3031 2466 3422 
Q 2466 3731 2256 3934 
Q 2047 4138 1716 4138 
Q 1388 4138 1169 3931 
Q 950 3725 888 3313 
L 325 3413 
Q 428 3978 793 4289 
Q 1159 4600 1703 4600 
Q 2078 4600 2393 4439 
Q 2709 4278 2876 4000 
Q 3044 3722 3044 3409 
Q 3044 3113 2884 2869 
Q 2725 2625 2413 2481 
Q 2819 2388 3044 2092 
Q 3269 1797 3269 1353 
Q 3269 753 2831 336 
Q 2394 -81 1725 -81 
Q 1122 -81 723 278 
Q 325 638 269 1209 
z
" transform="scale(0.015625)"/>
       </defs>
       <use xlink:href="#ArialMT-33"/>
       <use xlink:href="#ArialMT-30" x="55.615234"/>
       <use xlink:href="#ArialMT-25" x="111.230469"/>
      </g>
     </g>
    </g>
    <g id="xtick_8">
     <g id="line2d_8">
      <path d="M 428.035329 635.222134 
L 428.035329 119.522134 
" clip-path="url(#p80bed89d74)" style="fill: none; stroke-dasharray: 1,1.65; stroke-dashoffset: 0; stroke: #e6e6e6"/>
     </g>
    </g>
    <g id="xtick_9">
     <g id="line2d_9">
      <path d="M 474.79481 635.222134 
L 474.79481 119.522134 
" clip-path="url(#p80bed89d74)" style="fill: none; stroke-dasharray: 1,1.65; stroke-dashoffset: 0; stroke: #e6e6e6"/>
     </g>
     <g id="text_5">
      <!-- 40% -->
      <g style="fill: #262626" transform="translate(460.784967 666.243071) scale(0.14 -0.14)">
       <defs>
        <path id="ArialMT-34" d="M 2069 0 
L 2069 1097 
L 81 1097 
L 81 1613 
L 2172 4581 
L 2631 4581 
L 2631 1613 
L 3250 1613 
L 3250 1097 
L 2631 1097 
L 2631 0 
L 2069 0 
z
M 2069 1613 
L 2069 3678 
L 634 1613 
L 2069 1613 
z
" transform="scale(0.015625)"/>
       </defs>
       <use xlink:href="#ArialMT-34"/>
       <use xlink:href="#ArialMT-30" x="55.615234"/>
       <use xlink:href="#ArialMT-25" x="111.230469"/>
      </g>
     </g>
    </g>
    <g id="xtick_10">
     <g id="line2d_10">
      <path d="M 521.554291 635.222134 
L 521.554291 119.522134 
" clip-path="url(#p80bed89d74)" style="fill: none; stroke-dasharray: 1,1.65; stroke-dashoffset: 0; stroke: #e6e6e6"/>
     </g>
    </g>
    <g id="xtick_11">
     <g id="line2d_11">
      <path d="M 568.313772 635.222134 
L 568.313772 119.522134 
" clip-path="url(#p80bed89d74)" style="fill: none; stroke-dasharray: 1,1.65; stroke-dashoffset: 0; stroke: #e6e6e6"/>
     </g>
     <g id="text_6">
      <!-- 50% -->
      <g style="fill: #262626" transform="translate(554.303929 666.243071) scale(0.14 -0.14)">
       <defs>
        <path id="ArialMT-35" d="M 266 1200 
L 856 1250 
Q 922 819 1161 601 
Q 1400 384 1738 384 
Q 2144 384 2425 690 
Q 2706 997 2706 1503 
Q 2706 1984 2436 2262 
Q 2166 2541 1728 2541 
Q 1456 2541 1237 2417 
Q 1019 2294 894 2097 
L 366 2166 
L 809 4519 
L 3088 4519 
L 3088 3981 
L 1259 3981 
L 1013 2750 
Q 1425 3038 1878 3038 
Q 2478 3038 2890 2622 
Q 3303 2206 3303 1553 
Q 3303 931 2941 478 
Q 2500 -78 1738 -78 
Q 1113 -78 717 272 
Q 322 622 266 1200 
z
" transform="scale(0.015625)"/>
       </defs>
       <use xlink:href="#ArialMT-35"/>
       <use xlink:href="#ArialMT-30" x="55.615234"/>
       <use xlink:href="#ArialMT-25" x="111.230469"/>
      </g>
     </g>
    </g>
    <g id="xtick_12">
     <g id="line2d_12">
      <path d="M 615.073253 635.222134 
L 615.073253 119.522134 
" clip-path="url(#p80bed89d74)" style="fill: none; stroke-dasharray: 1,1.65; stroke-dashoffset: 0; stroke: #e6e6e6"/>
     </g>
    </g>
    <g id="xtick_13">
     <g id="line2d_13">
      <path d="M 661.832735 635.222134 
L 661.832735 119.522134 
" clip-path="url(#p80bed89d74)" style="fill: none; stroke-dasharray: 1,1.65; stroke-dashoffset: 0; stroke: #e6e6e6"/>
     </g>
     <g id="text_7">
      <!-- 60% -->
      <g style="fill: #262626" transform="translate(647.822891 666.243071) scale(0.14 -0.14)">
       <defs>
        <path id="ArialMT-36" d="M 3184 3459 
L 2625 3416 
Q 2550 3747 2413 3897 
Q 2184 4138 1850 4138 
Q 1581 4138 1378 3988 
Q 1113 3794 959 3422 
Q 806 3050 800 2363 
Q 1003 2672 1297 2822 
Q 1591 2972 1913 2972 
Q 2475 2972 2870 2558 
Q 3266 2144 3266 1488 
Q 3266 1056 3080 686 
Q 2894 316 2569 119 
Q 2244 -78 1831 -78 
Q 1128 -78 684 439 
Q 241 956 241 2144 
Q 241 3472 731 4075 
Q 1159 4600 1884 4600 
Q 2425 4600 2770 4297 
Q 3116 3994 3184 3459 
z
M 888 1484 
Q 888 1194 1011 928 
Q 1134 663 1356 523 
Q 1578 384 1822 384 
Q 2178 384 2434 671 
Q 2691 959 2691 1453 
Q 2691 1928 2437 2201 
Q 2184 2475 1800 2475 
Q 1419 2475 1153 2201 
Q 888 1928 888 1484 
z
" transform="scale(0.015625)"/>
       </defs>
       <use xlink:href="#ArialMT-36"/>
       <use xlink:href="#ArialMT-30" x="55.615234"/>
       <use xlink:href="#ArialMT-25" x="111.230469"/>
      </g>
     </g>
    </g>
    <g id="xtick_14">
     <g id="line2d_14">
      <path d="M 708.592216 635.222134 
L 708.592216 119.522134 
" clip-path="url(#p80bed89d74)" style="fill: none; stroke-dasharray: 1,1.65; stroke-dashoffset: 0; stroke: #e6e6e6"/>
     </g>
    </g>
    <g id="xtick_15">
     <g id="line2d_15">
      <path d="M 755.351697 635.222134 
L 755.351697 119.522134 
" clip-path="url(#p80bed89d74)" style="fill: none; stroke-dasharray: 1,1.65; stroke-dashoffset: 0; stroke: #e6e6e6"/>
     </g>
     <g id="text_8">
      <!-- 70% -->
      <g style="fill: #262626" transform="translate(741.341853 666.243071) scale(0.14 -0.14)">
       <defs>
        <path id="ArialMT-37" d="M 303 3981 
L 303 4522 
L 3269 4522 
L 3269 4084 
Q 2831 3619 2401 2847 
Q 1972 2075 1738 1259 
Q 1569 684 1522 0 
L 944 0 
Q 953 541 1156 1306 
Q 1359 2072 1739 2783 
Q 2119 3494 2547 3981 
L 303 3981 
z
" transform="scale(0.015625)"/>
       </defs>
       <use xlink:href="#ArialMT-37"/>
       <use xlink:href="#ArialMT-30" x="55.615234"/>
       <use xlink:href="#ArialMT-25" x="111.230469"/>
      </g>
     </g>
    </g>
    <g id="xtick_16">
     <g id="line2d_16">
      <path d="M 802.111178 635.222134 
L 802.111178 119.522134 
" clip-path="url(#p80bed89d74)" style="fill: none; stroke-dasharray: 1,1.65; stroke-dashoffset: 0; stroke: #e6e6e6"/>
     </g>
    </g>
    <g id="xtick_17">
     <g id="line2d_17">
      <path d="M 848.870659 635.222134 
L 848.870659 119.522134 
" clip-path="url(#p80bed89d74)" style="fill: none; stroke-dasharray: 1,1.65; stroke-dashoffset: 0; stroke: #e6e6e6"/>
     </g>
     <g id="text_9">
      <!-- 80% -->
      <g style="fill: #262626" transform="translate(834.860815 666.243071) scale(0.14 -0.14)">
       <defs>
        <path id="ArialMT-38" d="M 1131 2484 
Q 781 2613 612 2850 
Q 444 3088 444 3419 
Q 444 3919 803 4259 
Q 1163 4600 1759 4600 
Q 2359 4600 2725 4251 
Q 3091 3903 3091 3403 
Q 3091 3084 2923 2848 
Q 2756 2613 2416 2484 
Q 2838 2347 3058 2040 
Q 3278 1734 3278 1309 
Q 3278 722 2862 322 
Q 2447 -78 1769 -78 
Q 1091 -78 675 323 
Q 259 725 259 1325 
Q 259 1772 486 2073 
Q 713 2375 1131 2484 
z
M 1019 3438 
Q 1019 3113 1228 2906 
Q 1438 2700 1772 2700 
Q 2097 2700 2305 2904 
Q 2513 3109 2513 3406 
Q 2513 3716 2298 3927 
Q 2084 4138 1766 4138 
Q 1444 4138 1231 3931 
Q 1019 3725 1019 3438 
z
M 838 1322 
Q 838 1081 952 856 
Q 1066 631 1291 507 
Q 1516 384 1775 384 
Q 2178 384 2440 643 
Q 2703 903 2703 1303 
Q 2703 1709 2433 1975 
Q 2163 2241 1756 2241 
Q 1359 2241 1098 1978 
Q 838 1716 838 1322 
z
" transform="scale(0.015625)"/>
       </defs>
       <use xlink:href="#ArialMT-38"/>
       <use xlink:href="#ArialMT-30" x="55.615234"/>
       <use xlink:href="#ArialMT-25" x="111.230469"/>
      </g>
     </g>
    </g>
    <g id="xtick_18">
     <g id="line2d_18">
      <path d="M 895.63014 635.222134 
L 895.63014 119.522134 
" clip-path="url(#p80bed89d74)" style="fill: none; stroke-dasharray: 1,1.65; stroke-dashoffset: 0; stroke: #e6e6e6"/>
     </g>
    </g>
    <g id="xtick_19">
     <g id="line2d_19">
      <path d="M 942.389621 635.222134 
L 942.389621 119.522134 
" clip-path="url(#p80bed89d74)" style="fill: none; stroke-dasharray: 1,1.65; stroke-dashoffset: 0; stroke: #e6e6e6"/>
     </g>
     <g id="text_10">
      <!-- 90% -->
      <g style="fill: #262626" transform="translate(928.379777 666.243071) scale(0.14 -0.14)">
       <defs>
        <path id="ArialMT-39" d="M 350 1059 
L 891 1109 
Q 959 728 1153 556 
Q 1347 384 1650 384 
Q 1909 384 2104 503 
Q 2300 622 2425 820 
Q 2550 1019 2634 1356 
Q 2719 1694 2719 2044 
Q 2719 2081 2716 2156 
Q 2547 1888 2255 1720 
Q 1963 1553 1622 1553 
Q 1053 1553 659 1965 
Q 266 2378 266 3053 
Q 266 3750 677 4175 
Q 1088 4600 1706 4600 
Q 2153 4600 2523 4359 
Q 2894 4119 3086 3673 
Q 3278 3228 3278 2384 
Q 3278 1506 3087 986 
Q 2897 466 2520 194 
Q 2144 -78 1638 -78 
Q 1100 -78 759 220 
Q 419 519 350 1059 
z
M 2653 3081 
Q 2653 3566 2395 3850 
Q 2138 4134 1775 4134 
Q 1400 4134 1122 3828 
Q 844 3522 844 3034 
Q 844 2597 1108 2323 
Q 1372 2050 1759 2050 
Q 2150 2050 2401 2323 
Q 2653 2597 2653 3081 
z
" transform="scale(0.015625)"/>
       </defs>
       <use xlink:href="#ArialMT-39"/>
       <use xlink:href="#ArialMT-30" x="55.615234"/>
       <use xlink:href="#ArialMT-25" x="111.230469"/>
      </g>
     </g>
    </g>
    <g id="xtick_20">
     <g id="line2d_20">
      <path d="M 989.149102 635.222134 
L 989.149102 119.522134 
" clip-path="url(#p80bed89d74)" style="fill: none; stroke-dasharray: 1,1.65; stroke-dashoffset: 0; stroke: #e6e6e6"/>
     </g>
    </g>
    <g id="xtick_21">
     <g id="line2d_21">
      <path d="M 1035.908583 635.222134 
L 1035.908583 119.522134 
" clip-path="url(#p80bed89d74)" style="fill: none; stroke-dasharray: 1,1.65; stroke-dashoffset: 0; stroke: #e6e6e6"/>
     </g>
     <g id="text_11">
      <!-- 100% -->
      <g style="fill: #262626" transform="translate(1018.006083 666.243071) scale(0.14 -0.14)">
       <use xlink:href="#ArialMT-31"/>
       <use xlink:href="#ArialMT-30" x="55.615234"/>
       <use xlink:href="#ArialMT-30" x="111.230469"/>
       <use xlink:href="#ArialMT-25" x="166.845703"/>
      </g>
     </g>
    </g>
   </g>
   <g id="matplotlib.axis_2">
    <g id="ytick_1">
     <g id="line2d_22">
      <path d="M 99.783772 633.246272 
L 1036.843772 633.246272 
" clip-path="url(#p80bed89d74)" style="fill: none; stroke-dasharray: 1,1.65; stroke-dashoffset: 0; stroke: #e6e6e6"/>
     </g>
     <g id="text_12">
      <!-- $0 -->
      <g style="fill: #262626" transform="translate(63.213147 638.25674) scale(0.14 -0.14)">
       <defs>
        <path id="ArialMT-24" d="M 1594 -659 
L 1594 -97 
Q 1172 -44 908 92 
Q 644 228 451 531 
Q 259 834 228 1272 
L 794 1378 
Q 859 925 1025 713 
Q 1263 413 1594 378 
L 1594 2169 
Q 1247 2234 884 2438 
Q 616 2588 470 2853 
Q 325 3119 325 3456 
Q 325 4056 750 4428 
Q 1034 4678 1594 4734 
L 1594 5003 
L 1925 5003 
L 1925 4734 
Q 2416 4688 2703 4447 
Q 3072 4141 3147 3606 
L 2566 3519 
Q 2516 3850 2358 4026 
Q 2200 4203 1925 4259 
L 1925 2638 
Q 2350 2531 2488 2472 
Q 2750 2356 2915 2190 
Q 3081 2025 3170 1797 
Q 3259 1569 3259 1303 
Q 3259 719 2887 328 
Q 2516 -63 1925 -91 
L 1925 -659 
L 1594 -659 
z
M 1594 4266 
Q 1266 4216 1077 4003 
Q 888 3791 888 3500 
Q 888 3213 1048 3019 
Q 1209 2825 1594 2709 
L 1594 4266 
z
M 1925 378 
Q 2253 419 2467 662 
Q 2681 906 2681 1266 
Q 2681 1572 2529 1758 
Q 2378 1944 1925 2091 
L 1925 378 
z
" transform="scale(0.015625)"/>
       </defs>
       <use xlink:href="#ArialMT-24"/>
       <use xlink:href="#ArialMT-30" x="55.615234"/>
      </g>
     </g>
    </g>
    <g id="ytick_2">
     <g id="line2d_23">
      <path d="M 99.783772 583.84972 
L 1036.843772 583.84972 
" clip-path="url(#p80bed89d74)" style="fill: none; stroke-dasharray: 1,1.65; stroke-dashoffset: 0; stroke: #e6e6e6"/>
     </g>
     <g id="text_13">
      <!-- $10,000 -->
      <g style="fill: #262626" transform="translate(28.182522 588.921439) scale(0.14 -0.14)">
       <defs>
        <path id="ArialMT-2c" d="M 569 0 
L 569 641 
L 1209 641 
L 1209 0 
Q 1209 -353 1084 -570 
Q 959 -788 688 -906 
L 531 -666 
Q 709 -588 793 -436 
Q 878 -284 888 0 
L 569 0 
z
" transform="scale(0.015625)"/>
       </defs>
       <use xlink:href="#ArialMT-24"/>
       <use xlink:href="#ArialMT-31" x="55.615234"/>
       <use xlink:href="#ArialMT-30" x="111.230469"/>
       <use xlink:href="#ArialMT-2c" x="166.845703"/>
       <use xlink:href="#ArialMT-30" x="194.628906"/>
       <use xlink:href="#ArialMT-30" x="250.244141"/>
       <use xlink:href="#ArialMT-30" x="305.859375"/>
      </g>
     </g>
    </g>
    <g id="ytick_3">
     <g id="line2d_24">
      <path d="M 99.783772 534.453168 
L 1036.843772 534.453168 
" clip-path="url(#p80bed89d74)" style="fill: none; stroke-dasharray: 1,1.65; stroke-dashoffset: 0; stroke: #e6e6e6"/>
     </g>
     <g id="text_14">
      <!-- $20,000 -->
      <g style="fill: #262626" transform="translate(28.182522 539.524887) scale(0.14 -0.14)">
       <use xlink:href="#ArialMT-24"/>
       <use xlink:href="#ArialMT-32" x="55.615234"/>
       <use xlink:href="#ArialMT-30" x="111.230469"/>
       <use xlink:href="#ArialMT-2c" x="166.845703"/>
       <use xlink:href="#ArialMT-30" x="194.628906"/>
       <use xlink:href="#ArialMT-30" x="250.244141"/>
       <use xlink:href="#ArialMT-30" x="305.859375"/>
      </g>
     </g>
    </g>
    <g id="ytick_4">
     <g id="line2d_25">
      <path d="M 99.783772 485.056616 
L 1036.843772 485.056616 
" clip-path="url(#p80bed89d74)" style="fill: none; stroke-dasharray: 1,1.65; stroke-dashoffset: 0; stroke: #e6e6e6"/>
     </g>
     <g id="text_15">
      <!-- $30,000 -->
      <g style="fill: #262626" transform="translate(28.182522 490.128335) scale(0.14 -0.14)">
       <use xlink:href="#ArialMT-24"/>
       <use xlink:href="#ArialMT-33" x="55.615234"/>
       <use xlink:href="#ArialMT-30" x="111.230469"/>
       <use xlink:href="#ArialMT-2c" x="166.845703"/>
       <use xlink:href="#ArialMT-30" x="194.628906"/>
       <use xlink:href="#ArialMT-30" x="250.244141"/>
       <use xlink:href="#ArialMT-30" x="305.859375"/>
      </g>
     </g>
    </g>
    <g id="ytick_5">
     <g id="line2d_26">
      <path d="M 99.783772 435.660065 
L 1036.843772 435.660065 
" clip-path="url(#p80bed89d74)" style="fill: none; stroke-dasharray: 1,1.65; stroke-dashoffset: 0; stroke: #e6e6e6"/>
     </g>
     <g id="text_16">
      <!-- $40,000 -->
      <g style="fill: #262626" transform="translate(28.182522 440.731783) scale(0.14 -0.14)">
       <use xlink:href="#ArialMT-24"/>
       <use xlink:href="#ArialMT-34" x="55.615234"/>
       <use xlink:href="#ArialMT-30" x="111.230469"/>
       <use xlink:href="#ArialMT-2c" x="166.845703"/>
       <use xlink:href="#ArialMT-30" x="194.628906"/>
       <use xlink:href="#ArialMT-30" x="250.244141"/>
       <use xlink:href="#ArialMT-30" x="305.859375"/>
      </g>
     </g>
    </g>
    <g id="ytick_6">
     <g id="line2d_27">
      <path d="M 99.783772 386.263513 
L 1036.843772 386.263513 
" clip-path="url(#p80bed89d74)" style="fill: none; stroke-dasharray: 1,1.65; stroke-dashoffset: 0; stroke: #e6e6e6"/>
     </g>
     <g id="text_17">
      <!-- $50,000 -->
      <g style="fill: #262626" transform="translate(28.182522 391.335232) scale(0.14 -0.14)">
       <use xlink:href="#ArialMT-24"/>
       <use xlink:href="#ArialMT-35" x="55.615234"/>
       <use xlink:href="#ArialMT-30" x="111.230469"/>
       <use xlink:href="#ArialMT-2c" x="166.845703"/>
       <use xlink:href="#ArialMT-30" x="194.628906"/>
       <use xlink:href="#ArialMT-30" x="250.244141"/>
       <use xlink:href="#ArialMT-30" x="305.859375"/>
      </g>
     </g>
    </g>
    <g id="ytick_7">
     <g id="line2d_28">
      <path d="M 99.783772 336.866961 
L 1036.843772 336.866961 
" clip-path="url(#p80bed89d74)" style="fill: none; stroke-dasharray: 1,1.65; stroke-dashoffset: 0; stroke: #e6e6e6"/>
     </g>
     <g id="text_18">
      <!-- $60,000 -->
      <g style="fill: #262626" transform="translate(28.182522 341.93868) scale(0.14 -0.14)">
       <use xlink:href="#ArialMT-24"/>
       <use xlink:href="#ArialMT-36" x="55.615234"/>
       <use xlink:href="#ArialMT-30" x="111.230469"/>
       <use xlink:href="#ArialMT-2c" x="166.845703"/>
       <use xlink:href="#ArialMT-30" x="194.628906"/>
       <use xlink:href="#ArialMT-30" x="250.244141"/>
       <use xlink:href="#ArialMT-30" x="305.859375"/>
      </g>
     </g>
    </g>
    <g id="ytick_8">
     <g id="line2d_29">
      <path d="M 99.783772 287.470409 
L 1036.843772 287.470409 
" clip-path="url(#p80bed89d74)" style="fill: none; stroke-dasharray: 1,1.65; stroke-dashoffset: 0; stroke: #e6e6e6"/>
     </g>
     <g id="text_19">
      <!-- $70,000 -->
      <g style="fill: #262626" transform="translate(28.182522 292.542128) scale(0.14 -0.14)">
       <use xlink:href="#ArialMT-24"/>
       <use xlink:href="#ArialMT-37" x="55.615234"/>
       <use xlink:href="#ArialMT-30" x="111.230469"/>
       <use xlink:href="#ArialMT-2c" x="166.845703"/>
       <use xlink:href="#ArialMT-30" x="194.628906"/>
       <use xlink:href="#ArialMT-30" x="250.244141"/>
       <use xlink:href="#ArialMT-30" x="305.859375"/>
      </g>
     </g>
    </g>
    <g id="ytick_9">
     <g id="line2d_30">
      <path d="M 99.783772 238.073858 
L 1036.843772 238.073858 
" clip-path="url(#p80bed89d74)" style="fill: none; stroke-dasharray: 1,1.65; stroke-dashoffset: 0; stroke: #e6e6e6"/>
     </g>
     <g id="text_20">
      <!-- $80,000 -->
      <g style="fill: #262626" transform="translate(28.182522 243.145577) scale(0.14 -0.14)">
       <use xlink:href="#ArialMT-24"/>
       <use xlink:href="#ArialMT-38" x="55.615234"/>
       <use xlink:href="#ArialMT-30" x="111.230469"/>
       <use xlink:href="#ArialMT-2c" x="166.845703"/>
       <use xlink:href="#ArialMT-30" x="194.628906"/>
       <use xlink:href="#ArialMT-30" x="250.244141"/>
       <use xlink:href="#ArialMT-30" x="305.859375"/>
      </g>
     </g>
    </g>
    <g id="ytick_10">
     <g id="line2d_31">
      <path d="M 99.783772 188.677306 
L 1036.843772 188.677306 
" clip-path="url(#p80bed89d74)" style="fill: none; stroke-dasharray: 1,1.65; stroke-dashoffset: 0; stroke: #e6e6e6"/>
     </g>
     <g id="text_21">
      <!-- $90,000 -->
      <g style="fill: #262626" transform="translate(28.182522 193.749025) scale(0.14 -0.14)">
       <use xlink:href="#ArialMT-24"/>
       <use xlink:href="#ArialMT-39" x="55.615234"/>
       <use xlink:href="#ArialMT-30" x="111.230469"/>
       <use xlink:href="#ArialMT-2c" x="166.845703"/>
       <use xlink:href="#ArialMT-30" x="194.628906"/>
       <use xlink:href="#ArialMT-30" x="250.244141"/>
       <use xlink:href="#ArialMT-30" x="305.859375"/>
      </g>
     </g>
    </g>
    <g id="ytick_11">
     <g id="line2d_32">
      <path d="M 99.783772 139.280754 
L 1036.843772 139.280754 
" clip-path="url(#p80bed89d74)" style="fill: none; stroke-dasharray: 1,1.65; stroke-dashoffset: 0; stroke: #e6e6e6"/>
     </g>
     <g id="text_22">
      <!-- $100,000 -->
      <g style="fill: #262626" transform="translate(20.39721 144.352473) scale(0.14 -0.14)">
       <use xlink:href="#ArialMT-24"/>
       <use xlink:href="#ArialMT-31" x="55.615234"/>
       <use xlink:href="#ArialMT-30" x="111.230469"/>
       <use xlink:href="#ArialMT-30" x="166.845703"/>
       <use xlink:href="#ArialMT-2c" x="222.460938"/>
       <use xlink:href="#ArialMT-30" x="250.244141"/>
       <use xlink:href="#ArialMT-30" x="305.859375"/>
       <use xlink:href="#ArialMT-30" x="361.474609"/>
      </g>
     </g>
    </g>
   </g>
   <g id="PolyCollection_1"/>
   <g id="line2d_33">
    <path d="M 100.718962 633.246272 
L 110.070858 631.438308 
L 119.422754 630.814084 
L 128.774651 630.340569 
L 138.126547 629.953152 
L 147.478443 629.608759 
L 156.830339 629.285903 
L 166.182236 629.006121 
L 175.534132 628.747826 
L 184.886028 628.489532 
L 194.237924 628.252774 
L 203.58982 628.037553 
L 212.941717 627.800796 
L 222.293613 627.585575 
L 231.645509 627.391842 
L 240.997405 627.176621 
L 250.349301 626.961351 
L 259.701198 626.767667 
L 269.053094 626.552446 
L 278.40499 626.358713 
L 287.756886 626.143492 
L 297.108782 625.949759 
L 306.460679 625.734538 
L 315.812575 625.519268 
L 325.164471 625.325584 
L 334.516367 625.110363 
L 343.868263 624.895093 
L 353.22016 624.658335 
L 362.572056 624.443114 
L 371.923952 624.206357 
L 381.275848 623.969599 
L 390.627745 623.732841 
L 399.979641 623.496084 
L 409.331537 623.237789 
L 418.683433 622.957958 
L 428.035329 622.699713 
L 437.387226 622.419881 
L 446.739122 622.118562 
L 456.091018 621.817243 
L 465.442914 621.515875 
L 474.79481 621.171531 
L 484.146707 620.848676 
L 493.498603 620.482746 
L 502.850499 620.116866 
L 512.202395 619.729449 
L 521.554291 619.320494 
L 530.906188 618.91154 
L 540.258084 618.481049 
L 549.60998 618.029071 
L 558.961876 617.555556 
L 568.313772 617.08204 
L 577.665669 616.586988 
L 587.017565 616.070399 
L 596.369461 615.489298 
L 605.721357 614.929684 
L 615.073253 614.348534 
L 624.42515 613.724359 
L 633.777046 613.100135 
L 643.128942 612.411399 
L 652.480838 611.722663 
L 661.832735 610.990853 
L 671.184631 610.259043 
L 680.536527 609.441135 
L 689.888423 608.623227 
L 699.240319 607.762294 
L 708.592216 606.815263 
L 717.944112 605.868233 
L 727.296008 604.835104 
L 736.647904 603.758901 
L 745.9998 602.59665 
L 755.351697 601.391324 
L 764.703593 600.099901 
L 774.055489 598.679355 
L 783.407385 597.215735 
L 792.759281 595.579919 
L 802.111178 593.858054 
L 811.463074 591.963943 
L 820.81497 589.897685 
L 830.166866 587.659231 
L 839.518762 585.248581 
L 848.870659 582.579636 
L 858.222555 579.652445 
L 867.574451 576.380862 
L 876.926347 572.764887 
L 886.278244 568.804518 
L 895.63014 564.478269 
L 904.982036 559.635481 
L 914.333932 554.685057 
L 923.685828 548.981287 
L 933.037725 542.631805 
L 942.389621 535.851881 
L 951.741517 528.31861 
L 961.093413 519.709137 
L 970.445309 509.485434 
L 979.797206 497.647452 
L 989.149102 483.441843 
L 998.500998 465.039158 
L 1007.852894 440.07172 
L 1017.20479 401.867291 
L 1026.556687 326.965077 
L 1034.038204 114.582478 
" clip-path="url(#p80bed89d74)" style="fill: none; stroke: #0b3b5b; stroke-width: 1.5; stroke-linecap: round"/>
   </g>
   <g id="line2d_34">
    <path d="M 99.783772 633.246272 
L 1036.843772 633.246272 
" clip-path="url(#p80bed89d74)" style="fill: none; stroke: #000000; stroke-opacity: 0.7; stroke-width: 1.3; stroke-linecap: round"/>
   </g>
   <g id="line2d_35">
    <path d="M 100.718962 635.222134 
L 100.718962 119.522134 
" clip-path="url(#p80bed89d74)" style="fill: none; stroke: #000000; stroke-opacity: 0.7; stroke-width: 1.3; stroke-linecap: round"/>
   </g>
   <g id="line2d_36">
    <path d="M 1035.908583 635.222134 
L 1035.908583 119.522134 
" clip-path="url(#p80bed89d74)" style="fill: none; stroke: #000000; stroke-opacity: 0.7; stroke-width: 1.3; stroke-linecap: round"/>
   </g>
   <g id="LineCollection_1">
    <path d="M 100.718962 341.806616 
L 1023.751118 341.806616 
" clip-path="url(#p80bed89d74)" style="fill: none; stroke-dasharray: 7.4,3.2; stroke-dashoffset: 0; stroke: #0e4163; stroke-opacity: 0.3; stroke-width: 2"/>
   </g>
   <g id="LineCollection_2">
    <path d="M 1023.751118 633.246272 
L 1023.751118 336.866961 
" clip-path="url(#p80bed89d74)" style="fill: none; stroke-dasharray: 7.4,3.2; stroke-dashoffset: 0; stroke: #0e4163; stroke-opacity: 0.3; stroke-width: 2"/>
   </g>
   <g id="line2d_37">
    <defs>
     <path id="m7555b9f426" d="M 0 3 
C 0.795609 3 1.55874 2.683901 2.12132 2.12132 
C 2.683901 1.55874 3 0.795609 3 0 
C 3 -0.795609 2.683901 -1.55874 2.12132 -2.12132 
C 1.55874 -2.683901 0.795609 -3 0 -3 
C -0.795609 -3 -1.55874 -2.683901 -2.12132 -2.12132 
C -2.683901 -1.55874 -3 -0.795609 -3 0 
C -3 0.795609 -2.683901 1.55874 -2.12132 2.12132 
C -1.55874 2.683901 -0.795609 3 0 3 
z
" style="stroke: #0e4163; stroke-opacity: 0.75"/>
    </defs>
    <g clip-path="url(#p80bed89d74)">
     <use xlink:href="#m7555b9f426" x="1023.751118" y="341.806616" style="fill: #0e4163; fill-opacity: 0.75; stroke: #0e4163; stroke-opacity: 0.75"/>
    </g>
   </g>
   <g id="LineCollection_3">
    <path d="M 100.718962 483.441349 
L 989.149102 483.441349 
" clip-path="url(#p80bed89d74)" style="fill: none; stroke-dasharray: 7.4,3.2; stroke-dashoffset: 0; stroke: #0e4163; stroke-opacity: 0.3; stroke-width: 2"/>
   </g>
   <g id="LineCollection_4">
    <path d="M 989.149102 633.246272 
L 989.149102 483.441349 
" clip-path="url(#p80bed89d74)" style="fill: none; stroke-dasharray: 7.4,3.2; stroke-dashoffset: 0; stroke: #0e4163; stroke-opacity: 0.3; stroke-width: 2"/>
   </g>
   <g id="line2d_38">
    <g clip-path="url(#p80bed89d74)">
     <use xlink:href="#m7555b9f426" x="989.149102" y="483.441349" style="fill: #0e4163; fill-opacity: 0.75; stroke: #0e4163; stroke-opacity: 0.75"/>
    </g>
   </g>
   <g id="patch_3">
    <path d="M 99.783772 635.222134 
L 99.783772 119.522134 
" style="fill: none; stroke: #ffffff; stroke-width: 1.25; stroke-linejoin: miter; stroke-linecap: square"/>
   </g>
   <g id="patch_4">
    <path d="M 99.783772 635.222134 
L 1036.843772 635.222134 
" style="fill: none; stroke: #ffffff; stroke-width: 1.25; stroke-linejoin: miter; stroke-linecap: square"/>
   </g>
   <g id="text_23">
    <!--   -->
    <g style="fill: #262626" transform="translate(25.903792 15.789375) scale(0.12 -0.12)">
     <defs>
      <path id="ArialMT-20" transform="scale(0.015625)"/>
     </defs>
     <use xlink:href="#ArialMT-20"/>
    </g>
   </g>
   <g id="text_24">
    <!-- Global Income Distribution 2023 -->
    <g style="fill: #262626; opacity: 0.75" transform="translate(25.903792 40.487651) scale(0.26 -0.26)">
     <defs>
      <path id="Arial-BoldMT-47" d="M 2597 1684 
L 2597 2456 
L 4591 2456 
L 4591 631 
Q 4300 350 3748 136 
Q 3197 -78 2631 -78 
Q 1913 -78 1378 223 
Q 844 525 575 1086 
Q 306 1647 306 2306 
Q 306 3022 606 3578 
Q 906 4134 1484 4431 
Q 1925 4659 2581 4659 
Q 3434 4659 3914 4301 
Q 4394 3944 4531 3313 
L 3613 3141 
Q 3516 3478 3248 3673 
Q 2981 3869 2581 3869 
Q 1975 3869 1617 3484 
Q 1259 3100 1259 2344 
Q 1259 1528 1621 1120 
Q 1984 713 2572 713 
Q 2863 713 3155 827 
Q 3447 941 3656 1103 
L 3656 1684 
L 2597 1684 
z
" transform="scale(0.015625)"/>
      <path id="Arial-BoldMT-6c" d="M 459 0 
L 459 4581 
L 1338 4581 
L 1338 0 
L 459 0 
z
" transform="scale(0.015625)"/>
      <path id="Arial-BoldMT-6f" d="M 256 1706 
Q 256 2144 472 2553 
Q 688 2963 1083 3178 
Q 1478 3394 1966 3394 
Q 2719 3394 3200 2905 
Q 3681 2416 3681 1669 
Q 3681 916 3195 420 
Q 2709 -75 1972 -75 
Q 1516 -75 1102 131 
Q 688 338 472 736 
Q 256 1134 256 1706 
z
M 1156 1659 
Q 1156 1166 1390 903 
Q 1625 641 1969 641 
Q 2313 641 2545 903 
Q 2778 1166 2778 1666 
Q 2778 2153 2545 2415 
Q 2313 2678 1969 2678 
Q 1625 2678 1390 2415 
Q 1156 2153 1156 1659 
z
" transform="scale(0.015625)"/>
      <path id="Arial-BoldMT-62" d="M 422 0 
L 422 4581 
L 1300 4581 
L 1300 2931 
Q 1706 3394 2263 3394 
Q 2869 3394 3266 2955 
Q 3663 2516 3663 1694 
Q 3663 844 3258 384 
Q 2853 -75 2275 -75 
Q 1991 -75 1714 67 
Q 1438 209 1238 488 
L 1238 0 
L 422 0 
z
M 1294 1731 
Q 1294 1216 1456 969 
Q 1684 619 2063 619 
Q 2353 619 2558 867 
Q 2763 1116 2763 1650 
Q 2763 2219 2556 2470 
Q 2350 2722 2028 2722 
Q 1713 2722 1503 2476 
Q 1294 2231 1294 1731 
z
" transform="scale(0.015625)"/>
      <path id="Arial-BoldMT-61" d="M 1116 2306 
L 319 2450 
Q 453 2931 781 3162 
Q 1109 3394 1756 3394 
Q 2344 3394 2631 3255 
Q 2919 3116 3036 2902 
Q 3153 2688 3153 2116 
L 3144 1091 
Q 3144 653 3186 445 
Q 3228 238 3344 0 
L 2475 0 
Q 2441 88 2391 259 
Q 2369 338 2359 363 
Q 2134 144 1878 34 
Q 1622 -75 1331 -75 
Q 819 -75 523 203 
Q 228 481 228 906 
Q 228 1188 362 1408 
Q 497 1628 739 1745 
Q 981 1863 1438 1950 
Q 2053 2066 2291 2166 
L 2291 2253 
Q 2291 2506 2166 2614 
Q 2041 2722 1694 2722 
Q 1459 2722 1328 2630 
Q 1197 2538 1116 2306 
z
M 2291 1594 
Q 2122 1538 1756 1459 
Q 1391 1381 1278 1306 
Q 1106 1184 1106 997 
Q 1106 813 1243 678 
Q 1381 544 1594 544 
Q 1831 544 2047 700 
Q 2206 819 2256 991 
Q 2291 1103 2291 1419 
L 2291 1594 
z
" transform="scale(0.015625)"/>
      <path id="Arial-BoldMT-20" transform="scale(0.015625)"/>
      <path id="Arial-BoldMT-49" d="M 438 0 
L 438 4581 
L 1363 4581 
L 1363 0 
L 438 0 
z
" transform="scale(0.015625)"/>
      <path id="Arial-BoldMT-6e" d="M 3478 0 
L 2600 0 
L 2600 1694 
Q 2600 2231 2544 2389 
Q 2488 2547 2361 2634 
Q 2234 2722 2056 2722 
Q 1828 2722 1647 2597 
Q 1466 2472 1398 2265 
Q 1331 2059 1331 1503 
L 1331 0 
L 453 0 
L 453 3319 
L 1269 3319 
L 1269 2831 
Q 1703 3394 2363 3394 
Q 2653 3394 2893 3289 
Q 3134 3184 3257 3021 
Q 3381 2859 3429 2653 
Q 3478 2447 3478 2063 
L 3478 0 
z
" transform="scale(0.015625)"/>
      <path id="Arial-BoldMT-63" d="M 3353 2338 
L 2488 2181 
Q 2444 2441 2289 2572 
Q 2134 2703 1888 2703 
Q 1559 2703 1364 2476 
Q 1169 2250 1169 1719 
Q 1169 1128 1367 884 
Q 1566 641 1900 641 
Q 2150 641 2309 783 
Q 2469 925 2534 1272 
L 3397 1125 
Q 3263 531 2881 228 
Q 2500 -75 1859 -75 
Q 1131 -75 698 384 
Q 266 844 266 1656 
Q 266 2478 700 2936 
Q 1134 3394 1875 3394 
Q 2481 3394 2839 3133 
Q 3197 2872 3353 2338 
z
" transform="scale(0.015625)"/>
      <path id="Arial-BoldMT-6d" d="M 394 3319 
L 1203 3319 
L 1203 2866 
Q 1638 3394 2238 3394 
Q 2556 3394 2790 3262 
Q 3025 3131 3175 2866 
Q 3394 3131 3647 3262 
Q 3900 3394 4188 3394 
Q 4553 3394 4806 3245 
Q 5059 3097 5184 2809 
Q 5275 2597 5275 2122 
L 5275 0 
L 4397 0 
L 4397 1897 
Q 4397 2391 4306 2534 
Q 4184 2722 3931 2722 
Q 3747 2722 3584 2609 
Q 3422 2497 3350 2280 
Q 3278 2063 3278 1594 
L 3278 0 
L 2400 0 
L 2400 1819 
Q 2400 2303 2353 2443 
Q 2306 2584 2207 2653 
Q 2109 2722 1941 2722 
Q 1738 2722 1575 2612 
Q 1413 2503 1342 2297 
Q 1272 2091 1272 1613 
L 1272 0 
L 394 0 
L 394 3319 
z
" transform="scale(0.015625)"/>
      <path id="Arial-BoldMT-65" d="M 2381 1056 
L 3256 909 
Q 3088 428 2723 176 
Q 2359 -75 1813 -75 
Q 947 -75 531 491 
Q 203 944 203 1634 
Q 203 2459 634 2926 
Q 1066 3394 1725 3394 
Q 2466 3394 2894 2905 
Q 3322 2416 3303 1406 
L 1103 1406 
Q 1113 1016 1316 798 
Q 1519 581 1822 581 
Q 2028 581 2168 693 
Q 2309 806 2381 1056 
z
M 2431 1944 
Q 2422 2325 2234 2523 
Q 2047 2722 1778 2722 
Q 1491 2722 1303 2513 
Q 1116 2303 1119 1944 
L 2431 1944 
z
" transform="scale(0.015625)"/>
      <path id="Arial-BoldMT-44" d="M 463 4581 
L 2153 4581 
Q 2725 4581 3025 4494 
Q 3428 4375 3715 4072 
Q 4003 3769 4153 3330 
Q 4303 2891 4303 2247 
Q 4303 1681 4163 1272 
Q 3991 772 3672 463 
Q 3431 228 3022 97 
Q 2716 0 2203 0 
L 463 0 
L 463 4581 
z
M 1388 3806 
L 1388 772 
L 2078 772 
Q 2466 772 2638 816 
Q 2863 872 3011 1006 
Q 3159 1141 3253 1448 
Q 3347 1756 3347 2288 
Q 3347 2819 3253 3103 
Q 3159 3388 2990 3547 
Q 2822 3706 2563 3763 
Q 2369 3806 1803 3806 
L 1388 3806 
z
" transform="scale(0.015625)"/>
      <path id="Arial-BoldMT-69" d="M 459 3769 
L 459 4581 
L 1338 4581 
L 1338 3769 
L 459 3769 
z
M 459 0 
L 459 3319 
L 1338 3319 
L 1338 0 
L 459 0 
z
" transform="scale(0.015625)"/>
      <path id="Arial-BoldMT-73" d="M 150 947 
L 1031 1081 
Q 1088 825 1259 692 
Q 1431 559 1741 559 
Q 2081 559 2253 684 
Q 2369 772 2369 919 
Q 2369 1019 2306 1084 
Q 2241 1147 2013 1200 
Q 950 1434 666 1628 
Q 272 1897 272 2375 
Q 272 2806 612 3100 
Q 953 3394 1669 3394 
Q 2350 3394 2681 3172 
Q 3013 2950 3138 2516 
L 2309 2363 
Q 2256 2556 2107 2659 
Q 1959 2763 1684 2763 
Q 1338 2763 1188 2666 
Q 1088 2597 1088 2488 
Q 1088 2394 1175 2328 
Q 1294 2241 1995 2081 
Q 2697 1922 2975 1691 
Q 3250 1456 3250 1038 
Q 3250 581 2869 253 
Q 2488 -75 1741 -75 
Q 1063 -75 667 200 
Q 272 475 150 947 
z
" transform="scale(0.015625)"/>
      <path id="Arial-BoldMT-74" d="M 1981 3319 
L 1981 2619 
L 1381 2619 
L 1381 1281 
Q 1381 875 1398 808 
Q 1416 741 1477 697 
Q 1538 653 1625 653 
Q 1747 653 1978 738 
L 2053 56 
Q 1747 -75 1359 -75 
Q 1122 -75 931 4 
Q 741 84 652 211 
Q 563 338 528 553 
Q 500 706 500 1172 
L 500 2619 
L 97 2619 
L 97 3319 
L 500 3319 
L 500 3978 
L 1381 4491 
L 1381 3319 
L 1981 3319 
z
" transform="scale(0.015625)"/>
      <path id="Arial-BoldMT-72" d="M 1300 0 
L 422 0 
L 422 3319 
L 1238 3319 
L 1238 2847 
Q 1447 3181 1614 3287 
Q 1781 3394 1994 3394 
Q 2294 3394 2572 3228 
L 2300 2463 
Q 2078 2606 1888 2606 
Q 1703 2606 1575 2504 
Q 1447 2403 1373 2137 
Q 1300 1872 1300 1025 
L 1300 0 
z
" transform="scale(0.015625)"/>
      <path id="Arial-BoldMT-75" d="M 2644 0 
L 2644 497 
Q 2463 231 2167 78 
Q 1872 -75 1544 -75 
Q 1209 -75 943 72 
Q 678 219 559 484 
Q 441 750 441 1219 
L 441 3319 
L 1319 3319 
L 1319 1794 
Q 1319 1094 1367 936 
Q 1416 778 1544 686 
Q 1672 594 1869 594 
Q 2094 594 2272 717 
Q 2450 841 2515 1023 
Q 2581 1206 2581 1919 
L 2581 3319 
L 3459 3319 
L 3459 0 
L 2644 0 
z
" transform="scale(0.015625)"/>
      <path id="Arial-BoldMT-32" d="M 3238 816 
L 3238 0 
L 159 0 
Q 209 463 459 877 
Q 709 1291 1447 1975 
Q 2041 2528 2175 2725 
Q 2356 2997 2356 3263 
Q 2356 3556 2198 3714 
Q 2041 3872 1763 3872 
Q 1488 3872 1325 3706 
Q 1163 3541 1138 3156 
L 263 3244 
Q 341 3969 753 4284 
Q 1166 4600 1784 4600 
Q 2463 4600 2850 4234 
Q 3238 3869 3238 3325 
Q 3238 3016 3127 2736 
Q 3016 2456 2775 2150 
Q 2616 1947 2200 1565 
Q 1784 1184 1673 1059 
Q 1563 934 1494 816 
L 3238 816 
z
" transform="scale(0.015625)"/>
      <path id="Arial-BoldMT-30" d="M 1756 4600 
Q 2422 4600 2797 4125 
Q 3244 3563 3244 2259 
Q 3244 959 2794 391 
Q 2422 -78 1756 -78 
Q 1088 -78 678 436 
Q 269 950 269 2269 
Q 269 3563 719 4131 
Q 1091 4600 1756 4600 
z
M 1756 3872 
Q 1597 3872 1472 3770 
Q 1347 3669 1278 3406 
Q 1188 3066 1188 2259 
Q 1188 1453 1269 1151 
Q 1350 850 1473 750 
Q 1597 650 1756 650 
Q 1916 650 2041 751 
Q 2166 853 2234 1116 
Q 2325 1453 2325 2259 
Q 2325 3066 2244 3367 
Q 2163 3669 2039 3770 
Q 1916 3872 1756 3872 
z
" transform="scale(0.015625)"/>
      <path id="Arial-BoldMT-33" d="M 241 1216 
L 1091 1319 
Q 1131 994 1309 822 
Q 1488 650 1741 650 
Q 2013 650 2198 856 
Q 2384 1063 2384 1413 
Q 2384 1744 2206 1937 
Q 2028 2131 1772 2131 
Q 1603 2131 1369 2066 
L 1466 2781 
Q 1822 2772 2009 2936 
Q 2197 3100 2197 3372 
Q 2197 3603 2059 3740 
Q 1922 3878 1694 3878 
Q 1469 3878 1309 3722 
Q 1150 3566 1116 3266 
L 306 3403 
Q 391 3819 561 4067 
Q 731 4316 1036 4458 
Q 1341 4600 1719 4600 
Q 2366 4600 2756 4188 
Q 3078 3850 3078 3425 
Q 3078 2822 2419 2463 
Q 2813 2378 3048 2084 
Q 3284 1791 3284 1375 
Q 3284 772 2843 347 
Q 2403 -78 1747 -78 
Q 1125 -78 715 280 
Q 306 638 241 1216 
z
" transform="scale(0.015625)"/>
     </defs>
     <use xlink:href="#Arial-BoldMT-47"/>
     <use xlink:href="#Arial-BoldMT-6c" x="77.783203"/>
     <use xlink:href="#Arial-BoldMT-6f" x="105.566406"/>
     <use xlink:href="#Arial-BoldMT-62" x="166.650391"/>
     <use xlink:href="#Arial-BoldMT-61" x="227.734375"/>
     <use xlink:href="#Arial-BoldMT-6c" x="283.349609"/>
     <use xlink:href="#Arial-BoldMT-20" x="311.132812"/>
     <use xlink:href="#Arial-BoldMT-49" x="338.916016"/>
     <use xlink:href="#Arial-BoldMT-6e" x="366.699219"/>
     <use xlink:href="#Arial-BoldMT-63" x="427.783203"/>
     <use xlink:href="#Arial-BoldMT-6f" x="483.398438"/>
     <use xlink:href="#Arial-BoldMT-6d" x="544.482422"/>
     <use xlink:href="#Arial-BoldMT-65" x="633.398438"/>
     <use xlink:href="#Arial-BoldMT-20" x="689.013672"/>
     <use xlink:href="#Arial-BoldMT-44" x="716.796875"/>
     <use xlink:href="#Arial-BoldMT-69" x="789.013672"/>
     <use xlink:href="#Arial-BoldMT-73" x="816.796875"/>
     <use xlink:href="#Arial-BoldMT-74" x="872.412109"/>
     <use xlink:href="#Arial-BoldMT-72" x="905.712891"/>
     <use xlink:href="#Arial-BoldMT-69" x="944.628906"/>
     <use xlink:href="#Arial-BoldMT-62" x="972.412109"/>
     <use xlink:href="#Arial-BoldMT-75" x="1033.496094"/>
     <use xlink:href="#Arial-BoldMT-74" x="1094.580078"/>
     <use xlink:href="#Arial-BoldMT-69" x="1127.880859"/>
     <use xlink:href="#Arial-BoldMT-6f" x="1155.664062"/>
     <use xlink:href="#Arial-BoldMT-6e" x="1216.748047"/>
     <use xlink:href="#Arial-BoldMT-20" x="1277.832031"/>
     <use xlink:href="#Arial-BoldMT-32" x="1305.615234"/>
     <use xlink:href="#Arial-BoldMT-30" x="1361.230469"/>
     <use xlink:href="#Arial-BoldMT-32" x="1416.845703"/>
     <use xlink:href="#Arial-BoldMT-33" x="1472.460938"/>
    </g>
   </g>
   <g id="text_25">
    <!-- Percentile of world population vs income per household member -->
    <g style="fill: #262626; opacity: 0.85" transform="translate(25.903792 72.595409) scale(0.18 -0.18)">
     <defs>
      <path id="ArialMT-50" d="M 494 0 
L 494 4581 
L 2222 4581 
Q 2678 4581 2919 4538 
Q 3256 4481 3484 4323 
Q 3713 4166 3852 3881 
Q 3991 3597 3991 3256 
Q 3991 2672 3619 2267 
Q 3247 1863 2275 1863 
L 1100 1863 
L 1100 0 
L 494 0 
z
M 1100 2403 
L 2284 2403 
Q 2872 2403 3119 2622 
Q 3366 2841 3366 3238 
Q 3366 3525 3220 3729 
Q 3075 3934 2838 4000 
Q 2684 4041 2272 4041 
L 1100 4041 
L 1100 2403 
z
" transform="scale(0.015625)"/>
      <path id="ArialMT-65" d="M 2694 1069 
L 3275 997 
Q 3138 488 2766 206 
Q 2394 -75 1816 -75 
Q 1088 -75 661 373 
Q 234 822 234 1631 
Q 234 2469 665 2931 
Q 1097 3394 1784 3394 
Q 2450 3394 2872 2941 
Q 3294 2488 3294 1666 
Q 3294 1616 3291 1516 
L 816 1516 
Q 847 969 1125 678 
Q 1403 388 1819 388 
Q 2128 388 2347 550 
Q 2566 713 2694 1069 
z
M 847 1978 
L 2700 1978 
Q 2663 2397 2488 2606 
Q 2219 2931 1791 2931 
Q 1403 2931 1139 2672 
Q 875 2413 847 1978 
z
" transform="scale(0.015625)"/>
      <path id="ArialMT-72" d="M 416 0 
L 416 3319 
L 922 3319 
L 922 2816 
Q 1116 3169 1280 3281 
Q 1444 3394 1641 3394 
Q 1925 3394 2219 3213 
L 2025 2691 
Q 1819 2813 1613 2813 
Q 1428 2813 1281 2702 
Q 1134 2591 1072 2394 
Q 978 2094 978 1738 
L 978 0 
L 416 0 
z
" transform="scale(0.015625)"/>
      <path id="ArialMT-63" d="M 2588 1216 
L 3141 1144 
Q 3050 572 2676 248 
Q 2303 -75 1759 -75 
Q 1078 -75 664 370 
Q 250 816 250 1647 
Q 250 2184 428 2587 
Q 606 2991 970 3192 
Q 1334 3394 1763 3394 
Q 2303 3394 2647 3120 
Q 2991 2847 3088 2344 
L 2541 2259 
Q 2463 2594 2264 2762 
Q 2066 2931 1784 2931 
Q 1359 2931 1093 2626 
Q 828 2322 828 1663 
Q 828 994 1084 691 
Q 1341 388 1753 388 
Q 2084 388 2306 591 
Q 2528 794 2588 1216 
z
" transform="scale(0.015625)"/>
      <path id="ArialMT-6e" d="M 422 0 
L 422 3319 
L 928 3319 
L 928 2847 
Q 1294 3394 1984 3394 
Q 2284 3394 2536 3286 
Q 2788 3178 2913 3003 
Q 3038 2828 3088 2588 
Q 3119 2431 3119 2041 
L 3119 0 
L 2556 0 
L 2556 2019 
Q 2556 2363 2490 2533 
Q 2425 2703 2258 2804 
Q 2091 2906 1866 2906 
Q 1506 2906 1245 2678 
Q 984 2450 984 1813 
L 984 0 
L 422 0 
z
" transform="scale(0.015625)"/>
      <path id="ArialMT-74" d="M 1650 503 
L 1731 6 
Q 1494 -44 1306 -44 
Q 1000 -44 831 53 
Q 663 150 594 308 
Q 525 466 525 972 
L 525 2881 
L 113 2881 
L 113 3319 
L 525 3319 
L 525 4141 
L 1084 4478 
L 1084 3319 
L 1650 3319 
L 1650 2881 
L 1084 2881 
L 1084 941 
Q 1084 700 1114 631 
Q 1144 563 1211 522 
Q 1278 481 1403 481 
Q 1497 481 1650 503 
z
" transform="scale(0.015625)"/>
      <path id="ArialMT-69" d="M 425 3934 
L 425 4581 
L 988 4581 
L 988 3934 
L 425 3934 
z
M 425 0 
L 425 3319 
L 988 3319 
L 988 0 
L 425 0 
z
" transform="scale(0.015625)"/>
      <path id="ArialMT-6c" d="M 409 0 
L 409 4581 
L 972 4581 
L 972 0 
L 409 0 
z
" transform="scale(0.015625)"/>
      <path id="ArialMT-6f" d="M 213 1659 
Q 213 2581 725 3025 
Q 1153 3394 1769 3394 
Q 2453 3394 2887 2945 
Q 3322 2497 3322 1706 
Q 3322 1066 3130 698 
Q 2938 331 2570 128 
Q 2203 -75 1769 -75 
Q 1072 -75 642 372 
Q 213 819 213 1659 
z
M 791 1659 
Q 791 1022 1069 705 
Q 1347 388 1769 388 
Q 2188 388 2466 706 
Q 2744 1025 2744 1678 
Q 2744 2294 2464 2611 
Q 2184 2928 1769 2928 
Q 1347 2928 1069 2612 
Q 791 2297 791 1659 
z
" transform="scale(0.015625)"/>
      <path id="ArialMT-66" d="M 556 0 
L 556 2881 
L 59 2881 
L 59 3319 
L 556 3319 
L 556 3672 
Q 556 4006 616 4169 
Q 697 4388 901 4523 
Q 1106 4659 1475 4659 
Q 1713 4659 2000 4603 
L 1916 4113 
Q 1741 4144 1584 4144 
Q 1328 4144 1222 4034 
Q 1116 3925 1116 3625 
L 1116 3319 
L 1763 3319 
L 1763 2881 
L 1116 2881 
L 1116 0 
L 556 0 
z
" transform="scale(0.015625)"/>
      <path id="ArialMT-77" d="M 1034 0 
L 19 3319 
L 600 3319 
L 1128 1403 
L 1325 691 
Q 1338 744 1497 1375 
L 2025 3319 
L 2603 3319 
L 3100 1394 
L 3266 759 
L 3456 1400 
L 4025 3319 
L 4572 3319 
L 3534 0 
L 2950 0 
L 2422 1988 
L 2294 2553 
L 1622 0 
L 1034 0 
z
" transform="scale(0.015625)"/>
      <path id="ArialMT-64" d="M 2575 0 
L 2575 419 
Q 2259 -75 1647 -75 
Q 1250 -75 917 144 
Q 584 363 401 755 
Q 219 1147 219 1656 
Q 219 2153 384 2558 
Q 550 2963 881 3178 
Q 1213 3394 1622 3394 
Q 1922 3394 2156 3267 
Q 2391 3141 2538 2938 
L 2538 4581 
L 3097 4581 
L 3097 0 
L 2575 0 
z
M 797 1656 
Q 797 1019 1065 703 
Q 1334 388 1700 388 
Q 2069 388 2326 689 
Q 2584 991 2584 1609 
Q 2584 2291 2321 2609 
Q 2059 2928 1675 2928 
Q 1300 2928 1048 2622 
Q 797 2316 797 1656 
z
" transform="scale(0.015625)"/>
      <path id="ArialMT-70" d="M 422 -1272 
L 422 3319 
L 934 3319 
L 934 2888 
Q 1116 3141 1344 3267 
Q 1572 3394 1897 3394 
Q 2322 3394 2647 3175 
Q 2972 2956 3137 2557 
Q 3303 2159 3303 1684 
Q 3303 1175 3120 767 
Q 2938 359 2589 142 
Q 2241 -75 1856 -75 
Q 1575 -75 1351 44 
Q 1128 163 984 344 
L 984 -1272 
L 422 -1272 
z
M 931 1641 
Q 931 1000 1190 694 
Q 1450 388 1819 388 
Q 2194 388 2461 705 
Q 2728 1022 2728 1688 
Q 2728 2322 2467 2637 
Q 2206 2953 1844 2953 
Q 1484 2953 1207 2617 
Q 931 2281 931 1641 
z
" transform="scale(0.015625)"/>
      <path id="ArialMT-75" d="M 2597 0 
L 2597 488 
Q 2209 -75 1544 -75 
Q 1250 -75 995 37 
Q 741 150 617 320 
Q 494 491 444 738 
Q 409 903 409 1263 
L 409 3319 
L 972 3319 
L 972 1478 
Q 972 1038 1006 884 
Q 1059 663 1231 536 
Q 1403 409 1656 409 
Q 1909 409 2131 539 
Q 2353 669 2445 892 
Q 2538 1116 2538 1541 
L 2538 3319 
L 3100 3319 
L 3100 0 
L 2597 0 
z
" transform="scale(0.015625)"/>
      <path id="ArialMT-61" d="M 2588 409 
Q 2275 144 1986 34 
Q 1697 -75 1366 -75 
Q 819 -75 525 192 
Q 231 459 231 875 
Q 231 1119 342 1320 
Q 453 1522 633 1644 
Q 813 1766 1038 1828 
Q 1203 1872 1538 1913 
Q 2219 1994 2541 2106 
Q 2544 2222 2544 2253 
Q 2544 2597 2384 2738 
Q 2169 2928 1744 2928 
Q 1347 2928 1158 2789 
Q 969 2650 878 2297 
L 328 2372 
Q 403 2725 575 2942 
Q 747 3159 1072 3276 
Q 1397 3394 1825 3394 
Q 2250 3394 2515 3294 
Q 2781 3194 2906 3042 
Q 3031 2891 3081 2659 
Q 3109 2516 3109 2141 
L 3109 1391 
Q 3109 606 3145 398 
Q 3181 191 3288 0 
L 2700 0 
Q 2613 175 2588 409 
z
M 2541 1666 
Q 2234 1541 1622 1453 
Q 1275 1403 1131 1340 
Q 988 1278 909 1158 
Q 831 1038 831 891 
Q 831 666 1001 516 
Q 1172 366 1500 366 
Q 1825 366 2078 508 
Q 2331 650 2450 897 
Q 2541 1088 2541 1459 
L 2541 1666 
z
" transform="scale(0.015625)"/>
      <path id="ArialMT-76" d="M 1344 0 
L 81 3319 
L 675 3319 
L 1388 1331 
Q 1503 1009 1600 663 
Q 1675 925 1809 1294 
L 2547 3319 
L 3125 3319 
L 1869 0 
L 1344 0 
z
" transform="scale(0.015625)"/>
      <path id="ArialMT-73" d="M 197 991 
L 753 1078 
Q 800 744 1014 566 
Q 1228 388 1613 388 
Q 2000 388 2187 545 
Q 2375 703 2375 916 
Q 2375 1106 2209 1216 
Q 2094 1291 1634 1406 
Q 1016 1563 777 1677 
Q 538 1791 414 1992 
Q 291 2194 291 2438 
Q 291 2659 392 2848 
Q 494 3038 669 3163 
Q 800 3259 1026 3326 
Q 1253 3394 1513 3394 
Q 1903 3394 2198 3281 
Q 2494 3169 2634 2976 
Q 2775 2784 2828 2463 
L 2278 2388 
Q 2241 2644 2061 2787 
Q 1881 2931 1553 2931 
Q 1166 2931 1000 2803 
Q 834 2675 834 2503 
Q 834 2394 903 2306 
Q 972 2216 1119 2156 
Q 1203 2125 1616 2013 
Q 2213 1853 2448 1751 
Q 2684 1650 2818 1456 
Q 2953 1263 2953 975 
Q 2953 694 2789 445 
Q 2625 197 2315 61 
Q 2006 -75 1616 -75 
Q 969 -75 630 194 
Q 291 463 197 991 
z
" transform="scale(0.015625)"/>
      <path id="ArialMT-6d" d="M 422 0 
L 422 3319 
L 925 3319 
L 925 2853 
Q 1081 3097 1340 3245 
Q 1600 3394 1931 3394 
Q 2300 3394 2536 3241 
Q 2772 3088 2869 2813 
Q 3263 3394 3894 3394 
Q 4388 3394 4653 3120 
Q 4919 2847 4919 2278 
L 4919 0 
L 4359 0 
L 4359 2091 
Q 4359 2428 4304 2576 
Q 4250 2725 4106 2815 
Q 3963 2906 3769 2906 
Q 3419 2906 3187 2673 
Q 2956 2441 2956 1928 
L 2956 0 
L 2394 0 
L 2394 2156 
Q 2394 2531 2256 2718 
Q 2119 2906 1806 2906 
Q 1569 2906 1367 2781 
Q 1166 2656 1075 2415 
Q 984 2175 984 1722 
L 984 0 
L 422 0 
z
" transform="scale(0.015625)"/>
      <path id="ArialMT-68" d="M 422 0 
L 422 4581 
L 984 4581 
L 984 2938 
Q 1378 3394 1978 3394 
Q 2347 3394 2619 3248 
Q 2891 3103 3008 2847 
Q 3125 2591 3125 2103 
L 3125 0 
L 2563 0 
L 2563 2103 
Q 2563 2525 2380 2717 
Q 2197 2909 1863 2909 
Q 1613 2909 1392 2779 
Q 1172 2650 1078 2428 
Q 984 2206 984 1816 
L 984 0 
L 422 0 
z
" transform="scale(0.015625)"/>
      <path id="ArialMT-62" d="M 941 0 
L 419 0 
L 419 4581 
L 981 4581 
L 981 2947 
Q 1338 3394 1891 3394 
Q 2197 3394 2470 3270 
Q 2744 3147 2920 2923 
Q 3097 2700 3197 2384 
Q 3297 2069 3297 1709 
Q 3297 856 2875 390 
Q 2453 -75 1863 -75 
Q 1275 -75 941 416 
L 941 0 
z
M 934 1684 
Q 934 1088 1097 822 
Q 1363 388 1816 388 
Q 2184 388 2453 708 
Q 2722 1028 2722 1663 
Q 2722 2313 2464 2622 
Q 2206 2931 1841 2931 
Q 1472 2931 1203 2611 
Q 934 2291 934 1684 
z
" transform="scale(0.015625)"/>
     </defs>
     <use xlink:href="#ArialMT-50"/>
     <use xlink:href="#ArialMT-65" x="66.699219"/>
     <use xlink:href="#ArialMT-72" x="122.314453"/>
     <use xlink:href="#ArialMT-63" x="155.615234"/>
     <use xlink:href="#ArialMT-65" x="205.615234"/>
     <use xlink:href="#ArialMT-6e" x="261.230469"/>
     <use xlink:href="#ArialMT-74" x="316.845703"/>
     <use xlink:href="#ArialMT-69" x="344.628906"/>
     <use xlink:href="#ArialMT-6c" x="366.845703"/>
     <use xlink:href="#ArialMT-65" x="389.0625"/>
     <use xlink:href="#ArialMT-20" x="444.677734"/>
     <use xlink:href="#ArialMT-6f" x="472.460938"/>
     <use xlink:href="#ArialMT-66" x="528.076172"/>
     <use xlink:href="#ArialMT-20" x="555.859375"/>
     <use xlink:href="#ArialMT-77" x="583.642578"/>
     <use xlink:href="#ArialMT-6f" x="655.859375"/>
     <use xlink:href="#ArialMT-72" x="711.474609"/>
     <use xlink:href="#ArialMT-6c" x="744.775391"/>
     <use xlink:href="#ArialMT-64" x="766.992188"/>
     <use xlink:href="#ArialMT-20" x="822.607422"/>
     <use xlink:href="#ArialMT-70" x="850.390625"/>
     <use xlink:href="#ArialMT-6f" x="906.005859"/>
     <use xlink:href="#ArialMT-70" x="961.621094"/>
     <use xlink:href="#ArialMT-75" x="1017.236328"/>
     <use xlink:href="#ArialMT-6c" x="1072.851562"/>
     <use xlink:href="#ArialMT-61" x="1095.068359"/>
     <use xlink:href="#ArialMT-74" x="1150.683594"/>
     <use xlink:href="#ArialMT-69" x="1178.466797"/>
     <use xlink:href="#ArialMT-6f" x="1200.683594"/>
     <use xlink:href="#ArialMT-6e" x="1256.298828"/>
     <use xlink:href="#ArialMT-20" x="1311.914062"/>
     <use xlink:href="#ArialMT-76" x="1339.697266"/>
     <use xlink:href="#ArialMT-73" x="1389.697266"/>
     <use xlink:href="#ArialMT-20" x="1439.697266"/>
     <use xlink:href="#ArialMT-69" x="1467.480469"/>
     <use xlink:href="#ArialMT-6e" x="1489.697266"/>
     <use xlink:href="#ArialMT-63" x="1545.3125"/>
     <use xlink:href="#ArialMT-6f" x="1595.3125"/>
     <use xlink:href="#ArialMT-6d" x="1650.927734"/>
     <use xlink:href="#ArialMT-65" x="1734.228516"/>
     <use xlink:href="#ArialMT-20" x="1789.84375"/>
     <use xlink:href="#ArialMT-70" x="1817.626953"/>
     <use xlink:href="#ArialMT-65" x="1873.242188"/>
     <use xlink:href="#ArialMT-72" x="1928.857422"/>
     <use xlink:href="#ArialMT-20" x="1962.158203"/>
     <use xlink:href="#ArialMT-68" x="1989.941406"/>
     <use xlink:href="#ArialMT-6f" x="2045.556641"/>
     <use xlink:href="#ArialMT-75" x="2101.171875"/>
     <use xlink:href="#ArialMT-73" x="2156.787109"/>
     <use xlink:href="#ArialMT-65" x="2206.787109"/>
     <use xlink:href="#ArialMT-68" x="2262.402344"/>
     <use xlink:href="#ArialMT-6f" x="2318.017578"/>
     <use xlink:href="#ArialMT-6c" x="2373.632812"/>
     <use xlink:href="#ArialMT-64" x="2395.849609"/>
     <use xlink:href="#ArialMT-20" x="2451.464844"/>
     <use xlink:href="#ArialMT-6d" x="2479.248047"/>
     <use xlink:href="#ArialMT-65" x="2562.548828"/>
     <use xlink:href="#ArialMT-6d" x="2618.164062"/>
     <use xlink:href="#ArialMT-62" x="2701.464844"/>
     <use xlink:href="#ArialMT-65" x="2757.080078"/>
     <use xlink:href="#ArialMT-72" x="2812.695312"/>
    </g>
   </g>
   <g id="text_26">
    <!-- Incomes are adjusted and expressed in international dollars (PPP - Purchasing Power Parity) -->
    <g style="fill: #262626; opacity: 0.85" transform="translate(25.903792 99.763513) scale(0.14 -0.14)">
     <defs>
      <path id="ArialMT-49" d="M 597 0 
L 597 4581 
L 1203 4581 
L 1203 0 
L 597 0 
z
" transform="scale(0.015625)"/>
      <path id="ArialMT-6a" d="M 419 3928 
L 419 4581 
L 981 4581 
L 981 3928 
L 419 3928 
z
M -294 -1288 
L -188 -809 
Q -19 -853 78 -853 
Q 250 -853 334 -739 
Q 419 -625 419 -169 
L 419 3319 
L 981 3319 
L 981 -181 
Q 981 -794 822 -1034 
Q 619 -1347 147 -1347 
Q -81 -1347 -294 -1288 
z
" transform="scale(0.015625)"/>
      <path id="ArialMT-78" d="M 47 0 
L 1259 1725 
L 138 3319 
L 841 3319 
L 1350 2541 
Q 1494 2319 1581 2169 
Q 1719 2375 1834 2534 
L 2394 3319 
L 3066 3319 
L 1919 1756 
L 3153 0 
L 2463 0 
L 1781 1031 
L 1600 1309 
L 728 0 
L 47 0 
z
" transform="scale(0.015625)"/>
      <path id="ArialMT-28" d="M 1497 -1347 
Q 1031 -759 709 28 
Q 388 816 388 1659 
Q 388 2403 628 3084 
Q 909 3875 1497 4659 
L 1900 4659 
Q 1522 4009 1400 3731 
Q 1209 3300 1100 2831 
Q 966 2247 966 1656 
Q 966 153 1900 -1347 
L 1497 -1347 
z
" transform="scale(0.015625)"/>
      <path id="ArialMT-2d" d="M 203 1375 
L 203 1941 
L 1931 1941 
L 1931 1375 
L 203 1375 
z
" transform="scale(0.015625)"/>
      <path id="ArialMT-67" d="M 319 -275 
L 866 -356 
Q 900 -609 1056 -725 
Q 1266 -881 1628 -881 
Q 2019 -881 2231 -725 
Q 2444 -569 2519 -288 
Q 2563 -116 2559 434 
Q 2191 0 1641 0 
Q 956 0 581 494 
Q 206 988 206 1678 
Q 206 2153 378 2554 
Q 550 2956 876 3175 
Q 1203 3394 1644 3394 
Q 2231 3394 2613 2919 
L 2613 3319 
L 3131 3319 
L 3131 450 
Q 3131 -325 2973 -648 
Q 2816 -972 2473 -1159 
Q 2131 -1347 1631 -1347 
Q 1038 -1347 672 -1080 
Q 306 -813 319 -275 
z
M 784 1719 
Q 784 1066 1043 766 
Q 1303 466 1694 466 
Q 2081 466 2343 764 
Q 2606 1063 2606 1700 
Q 2606 2309 2336 2618 
Q 2066 2928 1684 2928 
Q 1309 2928 1046 2623 
Q 784 2319 784 1719 
z
" transform="scale(0.015625)"/>
      <path id="ArialMT-79" d="M 397 -1278 
L 334 -750 
Q 519 -800 656 -800 
Q 844 -800 956 -737 
Q 1069 -675 1141 -563 
Q 1194 -478 1313 -144 
Q 1328 -97 1363 -6 
L 103 3319 
L 709 3319 
L 1400 1397 
Q 1534 1031 1641 628 
Q 1738 1016 1872 1384 
L 2581 3319 
L 3144 3319 
L 1881 -56 
Q 1678 -603 1566 -809 
Q 1416 -1088 1222 -1217 
Q 1028 -1347 759 -1347 
Q 597 -1347 397 -1278 
z
" transform="scale(0.015625)"/>
      <path id="ArialMT-29" d="M 791 -1347 
L 388 -1347 
Q 1322 153 1322 1656 
Q 1322 2244 1188 2822 
Q 1081 3291 891 3722 
Q 769 4003 388 4659 
L 791 4659 
Q 1378 3875 1659 3084 
Q 1900 2403 1900 1659 
Q 1900 816 1576 28 
Q 1253 -759 791 -1347 
z
" transform="scale(0.015625)"/>
     </defs>
     <use xlink:href="#ArialMT-49"/>
     <use xlink:href="#ArialMT-6e" x="27.783203"/>
     <use xlink:href="#ArialMT-63" x="83.398438"/>
     <use xlink:href="#ArialMT-6f" x="133.398438"/>
     <use xlink:href="#ArialMT-6d" x="189.013672"/>
     <use xlink:href="#ArialMT-65" x="272.314453"/>
     <use xlink:href="#ArialMT-73" x="327.929688"/>
     <use xlink:href="#ArialMT-20" x="377.929688"/>
     <use xlink:href="#ArialMT-61" x="405.712891"/>
     <use xlink:href="#ArialMT-72" x="461.328125"/>
     <use xlink:href="#ArialMT-65" x="494.628906"/>
     <use xlink:href="#ArialMT-20" x="550.244141"/>
     <use xlink:href="#ArialMT-61" x="578.027344"/>
     <use xlink:href="#ArialMT-64" x="633.642578"/>
     <use xlink:href="#ArialMT-6a" x="689.257812"/>
     <use xlink:href="#ArialMT-75" x="711.474609"/>
     <use xlink:href="#ArialMT-73" x="767.089844"/>
     <use xlink:href="#ArialMT-74" x="817.089844"/>
     <use xlink:href="#ArialMT-65" x="844.873047"/>
     <use xlink:href="#ArialMT-64" x="900.488281"/>
     <use xlink:href="#ArialMT-20" x="956.103516"/>
     <use xlink:href="#ArialMT-61" x="983.886719"/>
     <use xlink:href="#ArialMT-6e" x="1039.501953"/>
     <use xlink:href="#ArialMT-64" x="1095.117188"/>
     <use xlink:href="#ArialMT-20" x="1150.732422"/>
     <use xlink:href="#ArialMT-65" x="1178.515625"/>
     <use xlink:href="#ArialMT-78" x="1234.130859"/>
     <use xlink:href="#ArialMT-70" x="1284.130859"/>
     <use xlink:href="#ArialMT-72" x="1339.746094"/>
     <use xlink:href="#ArialMT-65" x="1373.046875"/>
     <use xlink:href="#ArialMT-73" x="1428.662109"/>
     <use xlink:href="#ArialMT-73" x="1478.662109"/>
     <use xlink:href="#ArialMT-65" x="1528.662109"/>
     <use xlink:href="#ArialMT-64" x="1584.277344"/>
     <use xlink:href="#ArialMT-20" x="1639.892578"/>
     <use xlink:href="#ArialMT-69" x="1667.675781"/>
     <use xlink:href="#ArialMT-6e" x="1689.892578"/>
     <use xlink:href="#ArialMT-20" x="1745.507812"/>
     <use xlink:href="#ArialMT-69" x="1773.291016"/>
     <use xlink:href="#ArialMT-6e" x="1795.507812"/>
     <use xlink:href="#ArialMT-74" x="1851.123047"/>
     <use xlink:href="#ArialMT-65" x="1878.90625"/>
     <use xlink:href="#ArialMT-72" x="1934.521484"/>
     <use xlink:href="#ArialMT-6e" x="1967.822266"/>
     <use xlink:href="#ArialMT-61" x="2023.4375"/>
     <use xlink:href="#ArialMT-74" x="2079.052734"/>
     <use xlink:href="#ArialMT-69" x="2106.835938"/>
     <use xlink:href="#ArialMT-6f" x="2129.052734"/>
     <use xlink:href="#ArialMT-6e" x="2184.667969"/>
     <use xlink:href="#ArialMT-61" x="2240.283203"/>
     <use xlink:href="#ArialMT-6c" x="2295.898438"/>
     <use xlink:href="#ArialMT-20" x="2318.115234"/>
     <use xlink:href="#ArialMT-64" x="2345.898438"/>
     <use xlink:href="#ArialMT-6f" x="2401.513672"/>
     <use xlink:href="#ArialMT-6c" x="2457.128906"/>
     <use xlink:href="#ArialMT-6c" x="2479.345703"/>
     <use xlink:href="#ArialMT-61" x="2501.5625"/>
     <use xlink:href="#ArialMT-72" x="2557.177734"/>
     <use xlink:href="#ArialMT-73" x="2590.478516"/>
     <use xlink:href="#ArialMT-20" x="2640.478516"/>
     <use xlink:href="#ArialMT-28" x="2668.261719"/>
     <use xlink:href="#ArialMT-50" x="2701.5625"/>
     <use xlink:href="#ArialMT-50" x="2768.261719"/>
     <use xlink:href="#ArialMT-50" x="2834.960938"/>
     <use xlink:href="#ArialMT-20" x="2899.910156"/>
     <use xlink:href="#ArialMT-2d" x="2927.693359"/>
     <use xlink:href="#ArialMT-20" x="2960.994141"/>
     <use xlink:href="#ArialMT-50" x="2988.777344"/>
     <use xlink:href="#ArialMT-75" x="3055.476562"/>
     <use xlink:href="#ArialMT-72" x="3111.091797"/>
     <use xlink:href="#ArialMT-63" x="3144.392578"/>
     <use xlink:href="#ArialMT-68" x="3194.392578"/>
     <use xlink:href="#ArialMT-61" x="3250.007812"/>
     <use xlink:href="#ArialMT-73" x="3305.623047"/>
     <use xlink:href="#ArialMT-69" x="3355.623047"/>
     <use xlink:href="#ArialMT-6e" x="3377.839844"/>
     <use xlink:href="#ArialMT-67" x="3433.455078"/>
     <use xlink:href="#ArialMT-20" x="3489.070312"/>
     <use xlink:href="#ArialMT-50" x="3516.853516"/>
     <use xlink:href="#ArialMT-6f" x="3583.552734"/>
     <use xlink:href="#ArialMT-77" x="3639.167969"/>
     <use xlink:href="#ArialMT-65" x="3711.384766"/>
     <use xlink:href="#ArialMT-72" x="3767"/>
     <use xlink:href="#ArialMT-20" x="3800.300781"/>
     <use xlink:href="#ArialMT-50" x="3828.083984"/>
     <use xlink:href="#ArialMT-61" x="3894.783203"/>
     <use xlink:href="#ArialMT-72" x="3950.398438"/>
     <use xlink:href="#ArialMT-69" x="3983.699219"/>
     <use xlink:href="#ArialMT-74" x="4005.916016"/>
     <use xlink:href="#ArialMT-79" x="4033.699219"/>
     <use xlink:href="#ArialMT-29" x="4083.699219"/>
    </g>
   </g>
   <g id="text_27">
    <!-- Median US college graduate salary -->
    <g style="fill: #0e4163; opacity: 0.75" transform="translate(460.766966 332.915237) scale(0.14 -0.14)">
     <defs>
      <path id="ArialMT-4d" d="M 475 0 
L 475 4581 
L 1388 4581 
L 2472 1338 
Q 2622 884 2691 659 
Q 2769 909 2934 1394 
L 4031 4581 
L 4847 4581 
L 4847 0 
L 4263 0 
L 4263 3834 
L 2931 0 
L 2384 0 
L 1059 3900 
L 1059 0 
L 475 0 
z
" transform="scale(0.015625)"/>
      <path id="ArialMT-55" d="M 3500 4581 
L 4106 4581 
L 4106 1934 
Q 4106 1244 3950 837 
Q 3794 431 3386 176 
Q 2978 -78 2316 -78 
Q 1672 -78 1262 144 
Q 853 366 678 786 
Q 503 1206 503 1934 
L 503 4581 
L 1109 4581 
L 1109 1938 
Q 1109 1341 1220 1058 
Q 1331 775 1601 622 
Q 1872 469 2263 469 
Q 2931 469 3215 772 
Q 3500 1075 3500 1938 
L 3500 4581 
z
" transform="scale(0.015625)"/>
      <path id="ArialMT-53" d="M 288 1472 
L 859 1522 
Q 900 1178 1048 958 
Q 1197 738 1509 602 
Q 1822 466 2213 466 
Q 2559 466 2825 569 
Q 3091 672 3220 851 
Q 3350 1031 3350 1244 
Q 3350 1459 3225 1620 
Q 3100 1781 2813 1891 
Q 2628 1963 1997 2114 
Q 1366 2266 1113 2400 
Q 784 2572 623 2826 
Q 463 3081 463 3397 
Q 463 3744 659 4045 
Q 856 4347 1234 4503 
Q 1613 4659 2075 4659 
Q 2584 4659 2973 4495 
Q 3363 4331 3572 4012 
Q 3781 3694 3797 3291 
L 3216 3247 
Q 3169 3681 2898 3903 
Q 2628 4125 2100 4125 
Q 1550 4125 1298 3923 
Q 1047 3722 1047 3438 
Q 1047 3191 1225 3031 
Q 1400 2872 2139 2705 
Q 2878 2538 3153 2413 
Q 3553 2228 3743 1945 
Q 3934 1663 3934 1294 
Q 3934 928 3725 604 
Q 3516 281 3123 101 
Q 2731 -78 2241 -78 
Q 1619 -78 1198 103 
Q 778 284 539 648 
Q 300 1013 288 1472 
z
" transform="scale(0.015625)"/>
     </defs>
     <use xlink:href="#ArialMT-4d"/>
     <use xlink:href="#ArialMT-65" x="83.300781"/>
     <use xlink:href="#ArialMT-64" x="138.916016"/>
     <use xlink:href="#ArialMT-69" x="194.53125"/>
     <use xlink:href="#ArialMT-61" x="216.748047"/>
     <use xlink:href="#ArialMT-6e" x="272.363281"/>
     <use xlink:href="#ArialMT-20" x="327.978516"/>
     <use xlink:href="#ArialMT-55" x="355.761719"/>
     <use xlink:href="#ArialMT-53" x="427.978516"/>
     <use xlink:href="#ArialMT-20" x="494.677734"/>
     <use xlink:href="#ArialMT-63" x="522.460938"/>
     <use xlink:href="#ArialMT-6f" x="572.460938"/>
     <use xlink:href="#ArialMT-6c" x="628.076172"/>
     <use xlink:href="#ArialMT-6c" x="650.292969"/>
     <use xlink:href="#ArialMT-65" x="672.509766"/>
     <use xlink:href="#ArialMT-67" x="728.125"/>
     <use xlink:href="#ArialMT-65" x="783.740234"/>
     <use xlink:href="#ArialMT-20" x="839.355469"/>
     <use xlink:href="#ArialMT-67" x="867.138672"/>
     <use xlink:href="#ArialMT-72" x="922.753906"/>
     <use xlink:href="#ArialMT-61" x="956.054688"/>
     <use xlink:href="#ArialMT-64" x="1011.669922"/>
     <use xlink:href="#ArialMT-75" x="1067.285156"/>
     <use xlink:href="#ArialMT-61" x="1122.900391"/>
     <use xlink:href="#ArialMT-74" x="1178.515625"/>
     <use xlink:href="#ArialMT-65" x="1206.298828"/>
     <use xlink:href="#ArialMT-20" x="1261.914062"/>
     <use xlink:href="#ArialMT-73" x="1289.697266"/>
     <use xlink:href="#ArialMT-61" x="1339.697266"/>
     <use xlink:href="#ArialMT-6c" x="1395.3125"/>
     <use xlink:href="#ArialMT-61" x="1417.529297"/>
     <use xlink:href="#ArialMT-72" x="1473.144531"/>
     <use xlink:href="#ArialMT-79" x="1506.445312"/>
    </g>
   </g>
   <g id="text_28">
    <!-- Global richest 5% -->
    <g style="fill: #0e4163; opacity: 0.75" transform="translate(517.813533 474.54997) scale(0.14 -0.14)">
     <defs>
      <path id="ArialMT-47" d="M 2638 1797 
L 2638 2334 
L 4578 2338 
L 4578 638 
Q 4131 281 3656 101 
Q 3181 -78 2681 -78 
Q 2006 -78 1454 211 
Q 903 500 622 1047 
Q 341 1594 341 2269 
Q 341 2938 620 3517 
Q 900 4097 1425 4378 
Q 1950 4659 2634 4659 
Q 3131 4659 3532 4498 
Q 3934 4338 4162 4050 
Q 4391 3763 4509 3300 
L 3963 3150 
Q 3859 3500 3706 3700 
Q 3553 3900 3268 4020 
Q 2984 4141 2638 4141 
Q 2222 4141 1919 4014 
Q 1616 3888 1430 3681 
Q 1244 3475 1141 3228 
Q 966 2803 966 2306 
Q 966 1694 1177 1281 
Q 1388 869 1791 669 
Q 2194 469 2647 469 
Q 3041 469 3416 620 
Q 3791 772 3984 944 
L 3984 1797 
L 2638 1797 
z
" transform="scale(0.015625)"/>
     </defs>
     <use xlink:href="#ArialMT-47"/>
     <use xlink:href="#ArialMT-6c" x="77.783203"/>
     <use xlink:href="#ArialMT-6f" x="100"/>
     <use xlink:href="#ArialMT-62" x="155.615234"/>
     <use xlink:href="#ArialMT-61" x="211.230469"/>
     <use xlink:href="#ArialMT-6c" x="266.845703"/>
     <use xlink:href="#ArialMT-20" x="289.0625"/>
     <use xlink:href="#ArialMT-72" x="316.845703"/>
     <use xlink:href="#ArialMT-69" x="350.146484"/>
     <use xlink:href="#ArialMT-63" x="372.363281"/>
     <use xlink:href="#ArialMT-68" x="422.363281"/>
     <use xlink:href="#ArialMT-65" x="477.978516"/>
     <use xlink:href="#ArialMT-73" x="533.59375"/>
     <use xlink:href="#ArialMT-74" x="583.59375"/>
     <use xlink:href="#ArialMT-20" x="611.376953"/>
     <use xlink:href="#ArialMT-35" x="639.160156"/>
     <use xlink:href="#ArialMT-25" x="694.775391"/>
    </g>
   </g>
   <g id="text_29">
    <g id="patch_5">
     <path d="M 3.24 699.007759 
L 1055.544375 699.007759 
L 1055.544375 679.819009 
L 3.24 679.819009 
z
" style="fill: #4c4c4c; stroke: #4c4c4c; stroke-linejoin: miter"/>
    </g>
    <!--  Data Source: Our World in Data / World Bank Poverty and Inequality Platform                                                                                                       Licenced under CC-BY-SA by Boris Yakubchik (2024)  -->
    <g style="fill: #ffffff" transform="translate(7.2 692.522134) scale(0.12 -0.12)">
     <defs>
      <path id="ArialMT-44" d="M 494 0 
L 494 4581 
L 2072 4581 
Q 2606 4581 2888 4516 
Q 3281 4425 3559 4188 
Q 3922 3881 4101 3404 
Q 4281 2928 4281 2316 
Q 4281 1794 4159 1391 
Q 4038 988 3847 723 
Q 3656 459 3429 307 
Q 3203 156 2883 78 
Q 2563 0 2147 0 
L 494 0 
z
M 1100 541 
L 2078 541 
Q 2531 541 2789 625 
Q 3047 709 3200 863 
Q 3416 1078 3536 1442 
Q 3656 1806 3656 2325 
Q 3656 3044 3420 3430 
Q 3184 3816 2847 3947 
Q 2603 4041 2063 4041 
L 1100 4041 
L 1100 541 
z
" transform="scale(0.015625)"/>
      <path id="ArialMT-3a" d="M 578 2678 
L 578 3319 
L 1219 3319 
L 1219 2678 
L 578 2678 
z
M 578 0 
L 578 641 
L 1219 641 
L 1219 0 
L 578 0 
z
" transform="scale(0.015625)"/>
      <path id="ArialMT-4f" d="M 309 2231 
Q 309 3372 921 4017 
Q 1534 4663 2503 4663 
Q 3138 4663 3647 4359 
Q 4156 4056 4423 3514 
Q 4691 2972 4691 2284 
Q 4691 1588 4409 1038 
Q 4128 488 3612 205 
Q 3097 -78 2500 -78 
Q 1853 -78 1343 234 
Q 834 547 571 1087 
Q 309 1628 309 2231 
z
M 934 2222 
Q 934 1394 1379 917 
Q 1825 441 2497 441 
Q 3181 441 3623 922 
Q 4066 1403 4066 2288 
Q 4066 2847 3877 3264 
Q 3688 3681 3323 3911 
Q 2959 4141 2506 4141 
Q 1863 4141 1398 3698 
Q 934 3256 934 2222 
z
" transform="scale(0.015625)"/>
      <path id="ArialMT-57" d="M 1294 0 
L 78 4581 
L 700 4581 
L 1397 1578 
Q 1509 1106 1591 641 
Q 1766 1375 1797 1488 
L 2669 4581 
L 3400 4581 
L 4056 2263 
Q 4303 1400 4413 641 
Q 4500 1075 4641 1638 
L 5359 4581 
L 5969 4581 
L 4713 0 
L 4128 0 
L 3163 3491 
Q 3041 3928 3019 4028 
Q 2947 3713 2884 3491 
L 1913 0 
L 1294 0 
z
" transform="scale(0.015625)"/>
      <path id="ArialMT-2f" d="M 0 -78 
L 1328 4659 
L 1778 4659 
L 453 -78 
L 0 -78 
z
" transform="scale(0.015625)"/>
      <path id="ArialMT-42" d="M 469 0 
L 469 4581 
L 2188 4581 
Q 2713 4581 3030 4442 
Q 3347 4303 3526 4014 
Q 3706 3725 3706 3409 
Q 3706 3116 3547 2856 
Q 3388 2597 3066 2438 
Q 3481 2316 3704 2022 
Q 3928 1728 3928 1328 
Q 3928 1006 3792 729 
Q 3656 453 3456 303 
Q 3256 153 2954 76 
Q 2653 0 2216 0 
L 469 0 
z
M 1075 2656 
L 2066 2656 
Q 2469 2656 2644 2709 
Q 2875 2778 2992 2937 
Q 3109 3097 3109 3338 
Q 3109 3566 3000 3739 
Q 2891 3913 2687 3977 
Q 2484 4041 1991 4041 
L 1075 4041 
L 1075 2656 
z
M 1075 541 
L 2216 541 
Q 2509 541 2628 563 
Q 2838 600 2978 687 
Q 3119 775 3209 942 
Q 3300 1109 3300 1328 
Q 3300 1584 3169 1773 
Q 3038 1963 2805 2039 
Q 2572 2116 2134 2116 
L 1075 2116 
L 1075 541 
z
" transform="scale(0.015625)"/>
      <path id="ArialMT-6b" d="M 425 0 
L 425 4581 
L 988 4581 
L 988 1969 
L 2319 3319 
L 3047 3319 
L 1778 2088 
L 3175 0 
L 2481 0 
L 1384 1697 
L 988 1316 
L 988 0 
L 425 0 
z
" transform="scale(0.015625)"/>
      <path id="ArialMT-71" d="M 2538 -1272 
L 2538 353 
Q 2406 169 2170 47 
Q 1934 -75 1669 -75 
Q 1078 -75 651 397 
Q 225 869 225 1691 
Q 225 2191 398 2587 
Q 572 2984 901 3189 
Q 1231 3394 1625 3394 
Q 2241 3394 2594 2875 
L 2594 3319 
L 3100 3319 
L 3100 -1272 
L 2538 -1272 
z
M 803 1669 
Q 803 1028 1072 708 
Q 1341 388 1716 388 
Q 2075 388 2334 692 
Q 2594 997 2594 1619 
Q 2594 2281 2320 2615 
Q 2047 2950 1678 2950 
Q 1313 2950 1058 2639 
Q 803 2328 803 1669 
z
" transform="scale(0.015625)"/>
      <path id="ArialMT-4c" d="M 469 0 
L 469 4581 
L 1075 4581 
L 1075 541 
L 3331 541 
L 3331 0 
L 469 0 
z
" transform="scale(0.015625)"/>
      <path id="ArialMT-43" d="M 3763 1606 
L 4369 1453 
Q 4178 706 3683 314 
Q 3188 -78 2472 -78 
Q 1731 -78 1267 223 
Q 803 525 561 1097 
Q 319 1669 319 2325 
Q 319 3041 592 3573 
Q 866 4106 1370 4382 
Q 1875 4659 2481 4659 
Q 3169 4659 3637 4309 
Q 4106 3959 4291 3325 
L 3694 3184 
Q 3534 3684 3231 3912 
Q 2928 4141 2469 4141 
Q 1941 4141 1586 3887 
Q 1231 3634 1087 3207 
Q 944 2781 944 2328 
Q 944 1744 1114 1308 
Q 1284 872 1643 656 
Q 2003 441 2422 441 
Q 2931 441 3284 734 
Q 3638 1028 3763 1606 
z
" transform="scale(0.015625)"/>
      <path id="ArialMT-59" d="M 1784 0 
L 1784 1941 
L 19 4581 
L 756 4581 
L 1659 3200 
Q 1909 2813 2125 2425 
Q 2331 2784 2625 3234 
L 3513 4581 
L 4219 4581 
L 2391 1941 
L 2391 0 
L 1784 0 
z
" transform="scale(0.015625)"/>
      <path id="ArialMT-41" d="M -9 0 
L 1750 4581 
L 2403 4581 
L 4278 0 
L 3588 0 
L 3053 1388 
L 1138 1388 
L 634 0 
L -9 0 
z
M 1313 1881 
L 2866 1881 
L 2388 3150 
Q 2169 3728 2063 4100 
Q 1975 3659 1816 3225 
L 1313 1881 
z
" transform="scale(0.015625)"/>
     </defs>
     <use xlink:href="#ArialMT-20"/>
     <use xlink:href="#ArialMT-44" x="27.783203"/>
     <use xlink:href="#ArialMT-61" x="100"/>
     <use xlink:href="#ArialMT-74" x="155.615234"/>
     <use xlink:href="#ArialMT-61" x="183.398438"/>
     <use xlink:href="#ArialMT-20" x="239.013672"/>
     <use xlink:href="#ArialMT-53" x="266.796875"/>
     <use xlink:href="#ArialMT-6f" x="333.496094"/>
     <use xlink:href="#ArialMT-75" x="389.111328"/>
     <use xlink:href="#ArialMT-72" x="444.726562"/>
     <use xlink:href="#ArialMT-63" x="478.027344"/>
     <use xlink:href="#ArialMT-65" x="528.027344"/>
     <use xlink:href="#ArialMT-3a" x="583.642578"/>
     <use xlink:href="#ArialMT-20" x="611.425781"/>
     <use xlink:href="#ArialMT-4f" x="639.208984"/>
     <use xlink:href="#ArialMT-75" x="716.992188"/>
     <use xlink:href="#ArialMT-72" x="772.607422"/>
     <use xlink:href="#ArialMT-20" x="805.908203"/>
     <use xlink:href="#ArialMT-57" x="833.691406"/>
     <use xlink:href="#ArialMT-6f" x="926.326172"/>
     <use xlink:href="#ArialMT-72" x="981.941406"/>
     <use xlink:href="#ArialMT-6c" x="1015.242188"/>
     <use xlink:href="#ArialMT-64" x="1037.458984"/>
     <use xlink:href="#ArialMT-20" x="1093.074219"/>
     <use xlink:href="#ArialMT-69" x="1120.857422"/>
     <use xlink:href="#ArialMT-6e" x="1143.074219"/>
     <use xlink:href="#ArialMT-20" x="1198.689453"/>
     <use xlink:href="#ArialMT-44" x="1226.472656"/>
     <use xlink:href="#ArialMT-61" x="1298.689453"/>
     <use xlink:href="#ArialMT-74" x="1354.304688"/>
     <use xlink:href="#ArialMT-61" x="1382.087891"/>
     <use xlink:href="#ArialMT-20" x="1437.703125"/>
     <use xlink:href="#ArialMT-2f" x="1465.486328"/>
     <use xlink:href="#ArialMT-20" x="1493.269531"/>
     <use xlink:href="#ArialMT-57" x="1521.052734"/>
     <use xlink:href="#ArialMT-6f" x="1613.6875"/>
     <use xlink:href="#ArialMT-72" x="1669.302734"/>
     <use xlink:href="#ArialMT-6c" x="1702.603516"/>
     <use xlink:href="#ArialMT-64" x="1724.820312"/>
     <use xlink:href="#ArialMT-20" x="1780.435547"/>
     <use xlink:href="#ArialMT-42" x="1808.21875"/>
     <use xlink:href="#ArialMT-61" x="1874.917969"/>
     <use xlink:href="#ArialMT-6e" x="1930.533203"/>
     <use xlink:href="#ArialMT-6b" x="1986.148438"/>
     <use xlink:href="#ArialMT-20" x="2036.148438"/>
     <use xlink:href="#ArialMT-50" x="2063.931641"/>
     <use xlink:href="#ArialMT-6f" x="2130.630859"/>
     <use xlink:href="#ArialMT-76" x="2186.246094"/>
     <use xlink:href="#ArialMT-65" x="2236.246094"/>
     <use xlink:href="#ArialMT-72" x="2291.861328"/>
     <use xlink:href="#ArialMT-74" x="2325.162109"/>
     <use xlink:href="#ArialMT-79" x="2352.945312"/>
     <use xlink:href="#ArialMT-20" x="2402.945312"/>
     <use xlink:href="#ArialMT-61" x="2430.728516"/>
     <use xlink:href="#ArialMT-6e" x="2486.34375"/>
     <use xlink:href="#ArialMT-64" x="2541.958984"/>
     <use xlink:href="#ArialMT-20" x="2597.574219"/>
     <use xlink:href="#ArialMT-49" x="2625.357422"/>
     <use xlink:href="#ArialMT-6e" x="2653.140625"/>
     <use xlink:href="#ArialMT-65" x="2708.755859"/>
     <use xlink:href="#ArialMT-71" x="2764.371094"/>
     <use xlink:href="#ArialMT-75" x="2819.986328"/>
     <use xlink:href="#ArialMT-61" x="2875.601562"/>
     <use xlink:href="#ArialMT-6c" x="2931.216797"/>
     <use xlink:href="#ArialMT-69" x="2953.433594"/>
     <use xlink:href="#ArialMT-74" x="2975.650391"/>
     <use xlink:href="#ArialMT-79" x="3003.433594"/>
     <use xlink:href="#ArialMT-20" x="3053.433594"/>
     <use xlink:href="#ArialMT-50" x="3081.216797"/>
     <use xlink:href="#ArialMT-6c" x="3147.916016"/>
     <use xlink:href="#ArialMT-61" x="3170.132812"/>
     <use xlink:href="#ArialMT-74" x="3225.748047"/>
     <use xlink:href="#ArialMT-66" x="3253.53125"/>
     <use xlink:href="#ArialMT-6f" x="3281.314453"/>
     <use xlink:href="#ArialMT-72" x="3336.929688"/>
     <use xlink:href="#ArialMT-6d" x="3370.230469"/>
     <use xlink:href="#ArialMT-20" x="3453.53125"/>
     <use xlink:href="#ArialMT-20" x="3481.314453"/>
     <use xlink:href="#ArialMT-20" x="3509.097656"/>
     <use xlink:href="#ArialMT-20" x="3536.880859"/>
     <use xlink:href="#ArialMT-20" x="3564.664062"/>
     <use xlink:href="#ArialMT-20" x="3592.447266"/>
     <use xlink:href="#ArialMT-20" x="3620.230469"/>
     <use xlink:href="#ArialMT-20" x="3648.013672"/>
     <use xlink:href="#ArialMT-20" x="3675.796875"/>
     <use xlink:href="#ArialMT-20" x="3703.580078"/>
     <use xlink:href="#ArialMT-20" x="3731.363281"/>
     <use xlink:href="#ArialMT-20" x="3759.146484"/>
     <use xlink:href="#ArialMT-20" x="3786.929688"/>
     <use xlink:href="#ArialMT-20" x="3814.712891"/>
     <use xlink:href="#ArialMT-20" x="3842.496094"/>
     <use xlink:href="#ArialMT-20" x="3870.279297"/>
     <use xlink:href="#ArialMT-20" x="3898.0625"/>
     <use xlink:href="#ArialMT-20" x="3925.845703"/>
     <use xlink:href="#ArialMT-20" x="3953.628906"/>
     <use xlink:href="#ArialMT-20" x="3981.412109"/>
     <use xlink:href="#ArialMT-20" x="4009.195312"/>
     <use xlink:href="#ArialMT-20" x="4036.978516"/>
     <use xlink:href="#ArialMT-20" x="4064.761719"/>
     <use xlink:href="#ArialMT-20" x="4092.544922"/>
     <use xlink:href="#ArialMT-20" x="4120.328125"/>
     <use xlink:href="#ArialMT-20" x="4148.111328"/>
     <use xlink:href="#ArialMT-20" x="4175.894531"/>
     <use xlink:href="#ArialMT-20" x="4203.677734"/>
     <use xlink:href="#ArialMT-20" x="4231.460938"/>
     <use xlink:href="#ArialMT-20" x="4259.244141"/>
     <use xlink:href="#ArialMT-20" x="4287.027344"/>
     <use xlink:href="#ArialMT-20" x="4314.810547"/>
     <use xlink:href="#ArialMT-20" x="4342.59375"/>
     <use xlink:href="#ArialMT-20" x="4370.376953"/>
     <use xlink:href="#ArialMT-20" x="4398.160156"/>
     <use xlink:href="#ArialMT-20" x="4425.943359"/>
     <use xlink:href="#ArialMT-20" x="4453.726562"/>
     <use xlink:href="#ArialMT-20" x="4481.509766"/>
     <use xlink:href="#ArialMT-20" x="4509.292969"/>
     <use xlink:href="#ArialMT-20" x="4537.076172"/>
     <use xlink:href="#ArialMT-20" x="4564.859375"/>
     <use xlink:href="#ArialMT-20" x="4592.642578"/>
     <use xlink:href="#ArialMT-20" x="4620.425781"/>
     <use xlink:href="#ArialMT-20" x="4648.208984"/>
     <use xlink:href="#ArialMT-20" x="4675.992188"/>
     <use xlink:href="#ArialMT-20" x="4703.775391"/>
     <use xlink:href="#ArialMT-20" x="4731.558594"/>
     <use xlink:href="#ArialMT-20" x="4759.341797"/>
     <use xlink:href="#ArialMT-20" x="4787.125"/>
     <use xlink:href="#ArialMT-20" x="4814.908203"/>
     <use xlink:href="#ArialMT-20" x="4842.691406"/>
     <use xlink:href="#ArialMT-20" x="4870.474609"/>
     <use xlink:href="#ArialMT-20" x="4898.257812"/>
     <use xlink:href="#ArialMT-20" x="4926.041016"/>
     <use xlink:href="#ArialMT-20" x="4953.824219"/>
     <use xlink:href="#ArialMT-20" x="4981.607422"/>
     <use xlink:href="#ArialMT-20" x="5009.390625"/>
     <use xlink:href="#ArialMT-20" x="5037.173828"/>
     <use xlink:href="#ArialMT-20" x="5064.957031"/>
     <use xlink:href="#ArialMT-20" x="5092.740234"/>
     <use xlink:href="#ArialMT-20" x="5120.523438"/>
     <use xlink:href="#ArialMT-20" x="5148.306641"/>
     <use xlink:href="#ArialMT-20" x="5176.089844"/>
     <use xlink:href="#ArialMT-20" x="5203.873047"/>
     <use xlink:href="#ArialMT-20" x="5231.65625"/>
     <use xlink:href="#ArialMT-20" x="5259.439453"/>
     <use xlink:href="#ArialMT-20" x="5287.222656"/>
     <use xlink:href="#ArialMT-20" x="5315.005859"/>
     <use xlink:href="#ArialMT-20" x="5342.789062"/>
     <use xlink:href="#ArialMT-20" x="5370.572266"/>
     <use xlink:href="#ArialMT-20" x="5398.355469"/>
     <use xlink:href="#ArialMT-20" x="5426.138672"/>
     <use xlink:href="#ArialMT-20" x="5453.921875"/>
     <use xlink:href="#ArialMT-20" x="5481.705078"/>
     <use xlink:href="#ArialMT-20" x="5509.488281"/>
     <use xlink:href="#ArialMT-20" x="5537.271484"/>
     <use xlink:href="#ArialMT-20" x="5565.054688"/>
     <use xlink:href="#ArialMT-20" x="5592.837891"/>
     <use xlink:href="#ArialMT-20" x="5620.621094"/>
     <use xlink:href="#ArialMT-20" x="5648.404297"/>
     <use xlink:href="#ArialMT-20" x="5676.1875"/>
     <use xlink:href="#ArialMT-20" x="5703.970703"/>
     <use xlink:href="#ArialMT-20" x="5731.753906"/>
     <use xlink:href="#ArialMT-20" x="5759.537109"/>
     <use xlink:href="#ArialMT-20" x="5787.320312"/>
     <use xlink:href="#ArialMT-20" x="5815.103516"/>
     <use xlink:href="#ArialMT-20" x="5842.886719"/>
     <use xlink:href="#ArialMT-20" x="5870.669922"/>
     <use xlink:href="#ArialMT-20" x="5898.453125"/>
     <use xlink:href="#ArialMT-20" x="5926.236328"/>
     <use xlink:href="#ArialMT-20" x="5954.019531"/>
     <use xlink:href="#ArialMT-20" x="5981.802734"/>
     <use xlink:href="#ArialMT-20" x="6009.585938"/>
     <use xlink:href="#ArialMT-20" x="6037.369141"/>
     <use xlink:href="#ArialMT-20" x="6065.152344"/>
     <use xlink:href="#ArialMT-20" x="6092.935547"/>
     <use xlink:href="#ArialMT-20" x="6120.71875"/>
     <use xlink:href="#ArialMT-20" x="6148.501953"/>
     <use xlink:href="#ArialMT-20" x="6176.285156"/>
     <use xlink:href="#ArialMT-20" x="6204.068359"/>
     <use xlink:href="#ArialMT-20" x="6231.851562"/>
     <use xlink:href="#ArialMT-20" x="6259.634766"/>
     <use xlink:href="#ArialMT-20" x="6287.417969"/>
     <use xlink:href="#ArialMT-4c" x="6315.201172"/>
     <use xlink:href="#ArialMT-69" x="6370.816406"/>
     <use xlink:href="#ArialMT-63" x="6393.033203"/>
     <use xlink:href="#ArialMT-65" x="6443.033203"/>
     <use xlink:href="#ArialMT-6e" x="6498.648438"/>
     <use xlink:href="#ArialMT-63" x="6554.263672"/>
     <use xlink:href="#ArialMT-65" x="6604.263672"/>
     <use xlink:href="#ArialMT-64" x="6659.878906"/>
     <use xlink:href="#ArialMT-20" x="6715.494141"/>
     <use xlink:href="#ArialMT-75" x="6743.277344"/>
     <use xlink:href="#ArialMT-6e" x="6798.892578"/>
     <use xlink:href="#ArialMT-64" x="6854.507812"/>
     <use xlink:href="#ArialMT-65" x="6910.123047"/>
     <use xlink:href="#ArialMT-72" x="6965.738281"/>
     <use xlink:href="#ArialMT-20" x="6999.039062"/>
     <use xlink:href="#ArialMT-43" x="7026.822266"/>
     <use xlink:href="#ArialMT-43" x="7099.039062"/>
     <use xlink:href="#ArialMT-2d" x="7171.255859"/>
     <use xlink:href="#ArialMT-42" x="7204.556641"/>
     <use xlink:href="#ArialMT-59" x="7271.255859"/>
     <use xlink:href="#ArialMT-2d" x="7328.830078"/>
     <use xlink:href="#ArialMT-53" x="7362.130859"/>
     <use xlink:href="#ArialMT-41" x="7428.830078"/>
     <use xlink:href="#ArialMT-20" x="7490.029297"/>
     <use xlink:href="#ArialMT-62" x="7517.8125"/>
     <use xlink:href="#ArialMT-79" x="7573.427734"/>
     <use xlink:href="#ArialMT-20" x="7623.427734"/>
     <use xlink:href="#ArialMT-42" x="7651.210938"/>
     <use xlink:href="#ArialMT-6f" x="7717.910156"/>
     <use xlink:href="#ArialMT-72" x="7773.525391"/>
     <use xlink:href="#ArialMT-69" x="7806.826172"/>
     <use xlink:href="#ArialMT-73" x="7829.042969"/>
     <use xlink:href="#ArialMT-20" x="7879.042969"/>
     <use xlink:href="#ArialMT-59" x="7905.076172"/>
     <use xlink:href="#ArialMT-61" x="7964.400391"/>
     <use xlink:href="#ArialMT-6b" x="8020.015625"/>
     <use xlink:href="#ArialMT-75" x="8070.015625"/>
     <use xlink:href="#ArialMT-62" x="8125.630859"/>
     <use xlink:href="#ArialMT-63" x="8181.246094"/>
     <use xlink:href="#ArialMT-68" x="8231.246094"/>
     <use xlink:href="#ArialMT-69" x="8286.861328"/>
     <use xlink:href="#ArialMT-6b" x="8309.078125"/>
     <use xlink:href="#ArialMT-20" x="8359.078125"/>
     <use xlink:href="#ArialMT-28" x="8386.861328"/>
     <use xlink:href="#ArialMT-32" x="8420.162109"/>
     <use xlink:href="#ArialMT-30" x="8475.777344"/>
     <use xlink:href="#ArialMT-32" x="8531.392578"/>
     <use xlink:href="#ArialMT-34" x="8587.007812"/>
     <use xlink:href="#ArialMT-29" x="8642.623047"/>
     <use xlink:href="#ArialMT-20" x="8675.923828"/>
    </g>
   </g>
  </g>
 </g>
 <defs>
  <clipPath id="p80bed89d74">
   <rect x="99.783772" y="119.522134" width="937.06" height="515.7"/>
  </clipPath>
 </defs>
</svg>
