<svg xmlns:xlink="http://www.w3.org/1999/xlink" width="1429.825" height="936.33" viewBox="0 0 1072.369 702.248" xmlns="http://www.w3.org/2000/svg">
  <defs>
    <style>
      *{stroke-linejoin:round;stroke-linecap:butt}
    </style>
  </defs>
  <g id="figure_1">
    <path d="M0 702.248h1072.369V0H0z" style="fill:#fff" id="patch_1"/>
    <g id="axes_1">
      <path d="M99.784 635.222h937.06v-515.7H99.784z" style="fill:#fff" id="patch_2"/>
      <g id="matplotlib.axis_1">
        <g id="xtick_1">
          <path d="M100.719 635.222v-515.7" clip-path="url(#p54782a5ccd)" style="fill:none;stroke-dasharray:1,1.65;stroke-dashoffset:0;stroke:#e6e6e6" id="line2d_1"/>
          <g style="fill:#262626" transform="matrix(.14 0 0 -.14 90.602 666.243)" id="text_1">
            <defs>
              <path id="ArialMT-30" d="M266 2259q0 813 167 1308 167 496 496 764 330 269 830 269 369 0 647-149 278-148 459-428 182-279 285-681 103-401 103-1083 0-806-166-1301-165-495-495-766-329-270-833-270-662 0-1040 475-453 572-453 1862m578 0q0-1128 264-1502 264-373 651-373 388 0 652 375t264 1500q0 1132-264 1503-264 372-658 372-387 0-619-328-290-418-290-1547" transform="scale(.01563)"/>
              <path id="ArialMT-25" d="M372 3481q0 491 247 834 247 344 715 344 432 0 714-308 283-307 283-904 0-581-286-895t-704-314q-416 0-693 309-276 309-276 934m978 791q-209 0-348-182-139-181-139-665 0-441 140-621 141-179 347-179 213 0 352 181 139 182 139 663 0 444-141 623-141 180-350 180m3-4441 2506 4828h457L1819-169zm1981 1244q0 494 247 836t719 342q431 0 714-308 283-307 283-904 0-582-286-896t-708-314q-415 0-692 311t-277 933m982 791q-213 0-352-182-139-181-139-665 0-438 140-619 141-181 348-181 215 0 354 181t139 663q0 443-141 623-140 180-349 180" transform="scale(.01563)"/>
            </defs>
            <use xlink:href="#ArialMT-30"/>
            <use xlink:href="#ArialMT-25" x="55.615"/>
          </g>
        </g>
        <g id="xtick_2">
          <path d="M147.478 635.222v-515.7" clip-path="url(#p54782a5ccd)" style="fill:none;stroke-dasharray:1,1.65;stroke-dashoffset:0;stroke:#e6e6e6" id="line2d_2"/>
        </g>
        <g id="xtick_3">
          <path d="M194.238 635.222v-515.7" clip-path="url(#p54782a5ccd)" style="fill:none;stroke-dasharray:1,1.65;stroke-dashoffset:0;stroke:#e6e6e6" id="line2d_3"/>
          <g style="fill:#262626" transform="matrix(.14 0 0 -.14 180.228 666.243)" id="text_2">
            <defs>
              <path id="ArialMT-31" d="M2384 0h-562v3584q-203-193-533-387t-592-291v544q472 222 825 537 353 316 500 613h362z" transform="scale(.01563)"/>
            </defs>
            <use xlink:href="#ArialMT-31"/>
            <use xlink:href="#ArialMT-30" x="55.615"/>
            <use xlink:href="#ArialMT-25" x="111.23"/>
          </g>
        </g>
        <g id="xtick_4">
          <path d="M240.997 635.222v-515.7" clip-path="url(#p54782a5ccd)" style="fill:none;stroke-dasharray:1,1.65;stroke-dashoffset:0;stroke:#e6e6e6" id="line2d_4"/>
        </g>
        <g id="xtick_5">
          <path d="M287.757 635.222v-515.7" clip-path="url(#p54782a5ccd)" style="fill:none;stroke-dasharray:1,1.65;stroke-dashoffset:0;stroke:#e6e6e6" id="line2d_5"/>
          <g style="fill:#262626" transform="matrix(.14 0 0 -.14 273.747 666.243)" id="text_3">
            <defs>
              <path id="ArialMT-32" d="M3222 541V0H194q-6 203 65 391 116 309 370 609 255 300 737 694 747 612 1009 970 263 358 263 677 0 334-240 563-239 230-623 230-406 0-650-244-244-243-247-674l-578 59q59 647 446 986 388 339 1042 339 659 0 1043-366 385-365 385-906 0-275-113-541-112-265-373-559t-867-806q-507-425-651-577-143-151-237-304z" transform="scale(.01563)"/>
            </defs>
            <use xlink:href="#ArialMT-32"/>
            <use xlink:href="#ArialMT-30" x="55.615"/>
            <use xlink:href="#ArialMT-25" x="111.23"/>
          </g>
        </g>
        <g id="xtick_6">
          <path d="M334.516 635.222v-515.7" clip-path="url(#p54782a5ccd)" style="fill:none;stroke-dasharray:1,1.65;stroke-dashoffset:0;stroke:#e6e6e6" id="line2d_6"/>
        </g>
        <g id="xtick_7">
          <path d="M381.276 635.222v-515.7" clip-path="url(#p54782a5ccd)" style="fill:none;stroke-dasharray:1,1.65;stroke-dashoffset:0;stroke:#e6e6e6" id="line2d_7"/>
          <g style="fill:#262626" transform="matrix(.14 0 0 -.14 367.266 666.243)" id="text_4">
            <defs>
              <path id="ArialMT-33" d="m269 1209 562 75q97-478 330-689t567-211q397 0 670 275 274 275 274 682 0 387-253 638-253 252-644 252-159 0-397-62l63 494q56-7 90-7 360 0 647 187 288 188 288 579 0 309-210 512-209 204-540 204-328 0-547-207-219-206-281-618l-563 100q103 565 468 876 366 311 910 311 375 0 690-161 316-161 483-439 168-278 168-591 0-296-160-540-159-244-471-388 406-93 631-389 225-295 225-739 0-600-438-1017Q2394-81 1725-81q-603 0-1002 359-398 360-454 931" transform="scale(.01563)"/>
            </defs>
            <use xlink:href="#ArialMT-33"/>
            <use xlink:href="#ArialMT-30" x="55.615"/>
            <use xlink:href="#ArialMT-25" x="111.23"/>
          </g>
        </g>
        <g id="xtick_8">
          <path d="M428.035 635.222v-515.7" clip-path="url(#p54782a5ccd)" style="fill:none;stroke-dasharray:1,1.65;stroke-dashoffset:0;stroke:#e6e6e6" id="line2d_8"/>
        </g>
        <g id="xtick_9">
          <path d="M474.795 635.222v-515.7" clip-path="url(#p54782a5ccd)" style="fill:none;stroke-dasharray:1,1.65;stroke-dashoffset:0;stroke:#e6e6e6" id="line2d_9"/>
          <g style="fill:#262626" transform="matrix(.14 0 0 -.14 460.785 666.243)" id="text_5">
            <defs>
              <path id="ArialMT-34" d="M2069 0v1097H81v516l2091 2968h459V1613h619v-516h-619V0zm0 1613v2065L634 1613z" transform="scale(.01563)"/>
            </defs>
            <use xlink:href="#ArialMT-34"/>
            <use xlink:href="#ArialMT-30" x="55.615"/>
            <use xlink:href="#ArialMT-25" x="111.23"/>
          </g>
        </g>
        <g id="xtick_10">
          <path d="M521.554 635.222v-515.7" clip-path="url(#p54782a5ccd)" style="fill:none;stroke-dasharray:1,1.65;stroke-dashoffset:0;stroke:#e6e6e6" id="line2d_10"/>
        </g>
        <g id="xtick_11">
          <path d="M568.314 635.222v-515.7" clip-path="url(#p54782a5ccd)" style="fill:none;stroke-dasharray:1,1.65;stroke-dashoffset:0;stroke:#e6e6e6" id="line2d_11"/>
          <g style="fill:#262626" transform="matrix(.14 0 0 -.14 554.304 666.243)" id="text_6">
            <defs>
              <path id="ArialMT-35" d="m266 1200 590 50q66-431 305-649 239-217 577-217 406 0 687 306 281 307 281 813 0 481-270 759-270 279-708 279-272 0-491-124-218-123-343-320l-528 69 443 2353h2279v-538H1259l-246-1231q412 288 865 288 600 0 1012-416 413-416 413-1069 0-622-362-1075Q2500-78 1738-78q-625 0-1021 350-395 350-451 928" transform="scale(.01563)"/>
            </defs>
            <use xlink:href="#ArialMT-35"/>
            <use xlink:href="#ArialMT-30" x="55.615"/>
            <use xlink:href="#ArialMT-25" x="111.23"/>
          </g>
        </g>
        <g id="xtick_12">
          <path d="M615.073 635.222v-515.7" clip-path="url(#p54782a5ccd)" style="fill:none;stroke-dasharray:1,1.65;stroke-dashoffset:0;stroke:#e6e6e6" id="line2d_12"/>
        </g>
        <g id="xtick_13">
          <path d="M661.833 635.222v-515.7" clip-path="url(#p54782a5ccd)" style="fill:none;stroke-dasharray:1,1.65;stroke-dashoffset:0;stroke:#e6e6e6" id="line2d_13"/>
          <g style="fill:#262626" transform="matrix(.14 0 0 -.14 647.823 666.243)" id="text_7">
            <defs>
              <path id="ArialMT-36" d="m3184 3459-559-43q-75 331-212 481-229 241-563 241-269 0-472-150-265-194-419-566-153-372-159-1059 203 309 497 459t616 150q562 0 957-414 396-414 396-1070 0-432-186-802t-511-567-738-197q-703 0-1147 517-443 517-443 1705 0 1328 490 1931 428 525 1153 525 541 0 886-303 346-303 414-838M888 1484q0-290 123-556 123-265 345-405 222-139 466-139 356 0 612 287 257 288 257 782 0 475-254 748-253 274-637 274-381 0-647-274-265-273-265-717" transform="scale(.01563)"/>
            </defs>
            <use xlink:href="#ArialMT-36"/>
            <use xlink:href="#ArialMT-30" x="55.615"/>
            <use xlink:href="#ArialMT-25" x="111.23"/>
          </g>
        </g>
        <g id="xtick_14">
          <path d="M708.592 635.222v-515.7" clip-path="url(#p54782a5ccd)" style="fill:none;stroke-dasharray:1,1.65;stroke-dashoffset:0;stroke:#e6e6e6" id="line2d_14"/>
        </g>
        <g id="xtick_15">
          <path d="M755.352 635.222v-515.7" clip-path="url(#p54782a5ccd)" style="fill:none;stroke-dasharray:1,1.65;stroke-dashoffset:0;stroke:#e6e6e6" id="line2d_15"/>
          <g style="fill:#262626" transform="matrix(.14 0 0 -.14 741.342 666.243)" id="text_8">
            <defs>
              <path id="ArialMT-37" d="M303 3981v541h2966v-438q-438-465-868-1237-429-772-663-1588Q1569 684 1522 0H944q9 541 212 1306 203 766 583 1477t808 1198z" transform="scale(.01563)"/>
            </defs>
            <use xlink:href="#ArialMT-37"/>
            <use xlink:href="#ArialMT-30" x="55.615"/>
            <use xlink:href="#ArialMT-25" x="111.23"/>
          </g>
        </g>
        <g id="xtick_16">
          <path d="M802.111 635.222v-515.7" clip-path="url(#p54782a5ccd)" style="fill:none;stroke-dasharray:1,1.65;stroke-dashoffset:0;stroke:#e6e6e6" id="line2d_16"/>
        </g>
        <g id="xtick_17">
          <path d="M848.87 635.222v-515.7" clip-path="url(#p54782a5ccd)" style="fill:none;stroke-dasharray:1,1.65;stroke-dashoffset:0;stroke:#e6e6e6" id="line2d_17"/>
          <g style="fill:#262626" transform="matrix(.14 0 0 -.14 834.86 666.243)" id="text_9">
            <defs>
              <path id="ArialMT-38" d="M1131 2484q-350 129-519 366-168 238-168 569 0 500 359 840 360 341 956 341 600 0 966-349 366-348 366-848 0-319-168-555-167-235-507-364 422-137 642-444 220-306 220-731 0-587-416-987Q2447-78 1769-78T675 323Q259 725 259 1325q0 447 227 748 227 302 645 411m-112 954q0-325 209-532 210-206 544-206 325 0 533 204 208 205 208 502 0 310-215 521-214 211-532 211-322 0-535-207-212-206-212-493M838 1322q0-241 114-466t339-349q225-123 484-123 403 0 665 259 263 260 263 660 0 406-270 672t-677 266q-397 0-658-263-260-262-260-656" transform="scale(.01563)"/>
            </defs>
            <use xlink:href="#ArialMT-38"/>
            <use xlink:href="#ArialMT-30" x="55.615"/>
            <use xlink:href="#ArialMT-25" x="111.23"/>
          </g>
        </g>
        <g id="xtick_18">
          <path d="M895.63 635.222v-515.7" clip-path="url(#p54782a5ccd)" style="fill:none;stroke-dasharray:1,1.65;stroke-dashoffset:0;stroke:#e6e6e6" id="line2d_18"/>
        </g>
        <g id="xtick_19">
          <path d="M942.39 635.222v-515.7" clip-path="url(#p54782a5ccd)" style="fill:none;stroke-dasharray:1,1.65;stroke-dashoffset:0;stroke:#e6e6e6" id="line2d_19"/>
          <g style="fill:#262626" transform="matrix(.14 0 0 -.14 928.38 666.243)" id="text_10">
            <defs>
              <path id="ArialMT-39" d="m350 1059 541 50q68-381 262-553t497-172q259 0 454 119 196 119 321 317 125 199 209 536 85 338 85 688 0 37-3 112-169-268-461-436-292-167-633-167-569 0-963 412-393 413-393 1088 0 697 411 1122t1029 425q447 0 817-241 371-240 563-686 192-445 192-1289 0-878-191-1398-190-520-567-792-376-272-882-272-538 0-879 298-340 299-409 839m2303 2022q0 485-258 769-257 284-620 284-375 0-653-306t-278-794q0-437 264-711 264-273 651-273 391 0 642 273 252 274 252 758" transform="scale(.01563)"/>
            </defs>
            <use xlink:href="#ArialMT-39"/>
            <use xlink:href="#ArialMT-30" x="55.615"/>
            <use xlink:href="#ArialMT-25" x="111.23"/>
          </g>
        </g>
        <g id="xtick_20">
          <path d="M989.15 635.222v-515.7" clip-path="url(#p54782a5ccd)" style="fill:none;stroke-dasharray:1,1.65;stroke-dashoffset:0;stroke:#e6e6e6" id="line2d_20"/>
        </g>
        <g id="xtick_21">
          <path d="M1035.909 635.222v-515.7" clip-path="url(#p54782a5ccd)" style="fill:none;stroke-dasharray:1,1.65;stroke-dashoffset:0;stroke:#e6e6e6" id="line2d_21"/>
          <g style="fill:#262626" transform="matrix(.14 0 0 -.14 1018.006 666.243)" id="text_11">
            <use xlink:href="#ArialMT-31"/>
            <use xlink:href="#ArialMT-30" x="55.615"/>
            <use xlink:href="#ArialMT-30" x="111.23"/>
            <use xlink:href="#ArialMT-25" x="166.846"/>
          </g>
        </g>
      </g>
      <g id="matplotlib.axis_2">
        <g id="ytick_1">
          <path d="M99.784 633.246h937.06" clip-path="url(#p54782a5ccd)" style="fill:none;stroke-dasharray:1,1.65;stroke-dashoffset:0;stroke:#e6e6e6" id="line2d_22"/>
          <g style="fill:#262626" transform="matrix(.14 0 0 -.14 63.213 638.257)" id="text_12">
            <defs>
              <path id="ArialMT-24" d="M1594-659v562Q1172-44 908 92T451 531q-192 303-223 741l566 106q65-453 231-665 238-300 569-335v1791q-347 65-710 269-268 150-414 415-145 266-145 603 0 600 425 972 284 250 844 306v269h331v-269q491-46 778-287 369-306 444-841l-581-87q-50 331-208 507-158 177-433 233V2638q425-107 563-166 262-116 427-282 166-165 255-393t89-494q0-584-372-975-371-391-962-419v-568zm0 4925q-328-50-517-263-189-212-189-503 0-287 160-481 161-194 546-310zm331-3888q328 41 542 284 214 244 214 604 0 306-152 492-151 186-604 333z" transform="scale(.01563)"/>
            </defs>
            <use xlink:href="#ArialMT-24"/>
            <use xlink:href="#ArialMT-30" x="55.615"/>
          </g>
        </g>
        <g id="ytick_2">
          <path d="M99.784 583.85h937.06" clip-path="url(#p54782a5ccd)" style="fill:none;stroke-dasharray:1,1.65;stroke-dashoffset:0;stroke:#e6e6e6" id="line2d_23"/>
          <g style="fill:#262626" transform="matrix(.14 0 0 -.14 29.27 588.86)" id="text_13">
            <use xlink:href="#ArialMT-24"/>
            <use xlink:href="#ArialMT-31" x="55.615"/>
            <use xlink:href="#ArialMT-30" x="111.23"/>
            <use xlink:href="#ArialMT-30" x="186.865"/>
            <use xlink:href="#ArialMT-30" x="242.48"/>
            <use xlink:href="#ArialMT-30" x="298.096"/>
          </g>
        </g>
        <g id="ytick_3">
          <path d="M99.784 534.453h937.06" clip-path="url(#p54782a5ccd)" style="fill:none;stroke-dasharray:1,1.65;stroke-dashoffset:0;stroke:#e6e6e6" id="line2d_24"/>
          <g style="fill:#262626" transform="matrix(.14 0 0 -.14 29.27 539.464)" id="text_14">
            <use xlink:href="#ArialMT-24"/>
            <use xlink:href="#ArialMT-32" x="55.615"/>
            <use xlink:href="#ArialMT-30" x="111.23"/>
            <use xlink:href="#ArialMT-30" x="186.865"/>
            <use xlink:href="#ArialMT-30" x="242.48"/>
            <use xlink:href="#ArialMT-30" x="298.096"/>
          </g>
        </g>
        <g id="ytick_4">
          <path d="M99.784 485.057h937.06" clip-path="url(#p54782a5ccd)" style="fill:none;stroke-dasharray:1,1.65;stroke-dashoffset:0;stroke:#e6e6e6" id="line2d_25"/>
          <g style="fill:#262626" transform="matrix(.14 0 0 -.14 29.27 490.067)" id="text_15">
            <use xlink:href="#ArialMT-24"/>
            <use xlink:href="#ArialMT-33" x="55.615"/>
            <use xlink:href="#ArialMT-30" x="111.23"/>
            <use xlink:href="#ArialMT-30" x="186.865"/>
            <use xlink:href="#ArialMT-30" x="242.48"/>
            <use xlink:href="#ArialMT-30" x="298.096"/>
          </g>
        </g>
        <g id="ytick_5">
          <path d="M99.784 435.66h937.06" clip-path="url(#p54782a5ccd)" style="fill:none;stroke-dasharray:1,1.65;stroke-dashoffset:0;stroke:#e6e6e6" id="line2d_26"/>
          <g style="fill:#262626" transform="matrix(.14 0 0 -.14 29.27 440.67)" id="text_16">
            <use xlink:href="#ArialMT-24"/>
            <use xlink:href="#ArialMT-34" x="55.615"/>
            <use xlink:href="#ArialMT-30" x="111.23"/>
            <use xlink:href="#ArialMT-30" x="186.865"/>
            <use xlink:href="#ArialMT-30" x="242.48"/>
            <use xlink:href="#ArialMT-30" x="298.096"/>
          </g>
        </g>
        <g id="ytick_6">
          <path d="M99.784 386.264h937.06" clip-path="url(#p54782a5ccd)" style="fill:none;stroke-dasharray:1,1.65;stroke-dashoffset:0;stroke:#e6e6e6" id="line2d_27"/>
          <g style="fill:#262626" transform="matrix(.14 0 0 -.14 29.27 391.274)" id="text_17">
            <use xlink:href="#ArialMT-24"/>
            <use xlink:href="#ArialMT-35" x="55.615"/>
            <use xlink:href="#ArialMT-30" x="111.23"/>
            <use xlink:href="#ArialMT-30" x="186.865"/>
            <use xlink:href="#ArialMT-30" x="242.48"/>
            <use xlink:href="#ArialMT-30" x="298.096"/>
          </g>
        </g>
        <g id="ytick_7">
          <path d="M99.784 336.867h937.06" clip-path="url(#p54782a5ccd)" style="fill:none;stroke-dasharray:1,1.65;stroke-dashoffset:0;stroke:#e6e6e6" id="line2d_28"/>
          <g style="fill:#262626" transform="matrix(.14 0 0 -.14 29.27 341.877)" id="text_18">
            <use xlink:href="#ArialMT-24"/>
            <use xlink:href="#ArialMT-36" x="55.615"/>
            <use xlink:href="#ArialMT-30" x="111.23"/>
            <use xlink:href="#ArialMT-30" x="186.865"/>
            <use xlink:href="#ArialMT-30" x="242.48"/>
            <use xlink:href="#ArialMT-30" x="298.096"/>
          </g>
        </g>
        <g id="ytick_8">
          <path d="M99.784 287.47h937.06" clip-path="url(#p54782a5ccd)" style="fill:none;stroke-dasharray:1,1.65;stroke-dashoffset:0;stroke:#e6e6e6" id="line2d_29"/>
          <g style="fill:#262626" transform="matrix(.14 0 0 -.14 29.27 292.48)" id="text_19">
            <use xlink:href="#ArialMT-24"/>
            <use xlink:href="#ArialMT-37" x="55.615"/>
            <use xlink:href="#ArialMT-30" x="111.23"/>
            <use xlink:href="#ArialMT-30" x="186.865"/>
            <use xlink:href="#ArialMT-30" x="242.48"/>
            <use xlink:href="#ArialMT-30" x="298.096"/>
          </g>
        </g>
        <g id="ytick_9">
          <path d="M99.784 238.074h937.06" clip-path="url(#p54782a5ccd)" style="fill:none;stroke-dasharray:1,1.65;stroke-dashoffset:0;stroke:#e6e6e6" id="line2d_30"/>
          <g style="fill:#262626" transform="matrix(.14 0 0 -.14 29.27 243.084)" id="text_20">
            <use xlink:href="#ArialMT-24"/>
            <use xlink:href="#ArialMT-38" x="55.615"/>
            <use xlink:href="#ArialMT-30" x="111.23"/>
            <use xlink:href="#ArialMT-30" x="186.865"/>
            <use xlink:href="#ArialMT-30" x="242.48"/>
            <use xlink:href="#ArialMT-30" x="298.096"/>
          </g>
        </g>
        <g id="ytick_10">
          <path d="M99.784 188.677h937.06" clip-path="url(#p54782a5ccd)" style="fill:none;stroke-dasharray:1,1.65;stroke-dashoffset:0;stroke:#e6e6e6" id="line2d_31"/>
          <g style="fill:#262626" transform="matrix(.14 0 0 -.14 29.27 193.688)" id="text_21">
            <use xlink:href="#ArialMT-24"/>
            <use xlink:href="#ArialMT-39" x="55.615"/>
            <use xlink:href="#ArialMT-30" x="111.23"/>
            <use xlink:href="#ArialMT-30" x="186.865"/>
            <use xlink:href="#ArialMT-30" x="242.48"/>
            <use xlink:href="#ArialMT-30" x="298.096"/>
          </g>
        </g>
        <g id="ytick_11">
          <path d="M99.784 139.28h937.06" clip-path="url(#p54782a5ccd)" style="fill:none;stroke-dasharray:1,1.65;stroke-dashoffset:0;stroke:#e6e6e6" id="line2d_32"/>
          <g style="fill:#262626" transform="matrix(.14 0 0 -.14 21.484 144.291)" id="text_22">
            <use xlink:href="#ArialMT-24"/>
            <use xlink:href="#ArialMT-31" x="55.615"/>
            <use xlink:href="#ArialMT-30" x="111.23"/>
            <use xlink:href="#ArialMT-30" x="166.846"/>
            <use xlink:href="#ArialMT-30" x="242.48"/>
            <use xlink:href="#ArialMT-30" x="298.096"/>
            <use xlink:href="#ArialMT-30" x="353.711"/>
          </g>
        </g>
      </g>
      <g id="PolyCollection_1"/>
      <path d="m100.719 633.246 9.352-1.808 9.352-.624 9.352-.473 9.352-.388 9.351-.344 9.352-.323 9.352-.28 9.352-.258 9.352-.258 9.352-.237 9.352-.215 9.352-.237 9.352-.215 9.352-.194 9.351-.215 9.352-.216 9.352-.193 9.352-.216 9.352-.193 9.352-.216 9.352-.193 9.352-.215 9.352-.216 9.351-.193 9.352-.216 9.352-.215 9.352-.237 9.352-.215 9.352-.237 9.352-.236 9.352-.237 9.352-.237 9.352-.258 9.351-.28 9.352-.258 9.352-.28 9.352-.301 9.352-.302 9.352-.301 9.352-.344 9.352-.323 9.352-.366 9.351-.366 9.352-.388 9.352-.409 9.352-.408 9.352-.431 9.352-.452 9.352-.473 9.352-.474 9.352-.495 9.352-.517 9.351-.58 9.352-.56 9.352-.581 9.352-.625 9.352-.624 9.352-.689 9.352-.688 9.352-.732 9.352-.732 9.352-.818 9.351-.818 9.352-.86 9.352-.948 9.352-.947 9.352-1.033 9.352-1.076 9.352-1.162 9.352-1.206 9.352-1.291 9.351-1.42 9.352-1.464 9.352-1.636 9.352-1.722 9.352-1.894 9.352-2.066 9.352-2.239 9.352-2.41 9.352-2.67 9.352-2.927 9.351-3.271 9.352-3.616 9.352-3.96 9.352-4.327 9.352-4.843 9.352-4.95 9.352-5.704 9.352-6.35 9.352-6.78 9.352-7.532 9.351-8.61 9.352-10.224 9.352-11.838 9.352-14.205 9.352-18.403 9.352-24.967 9.352-38.205 9.352-74.902 7.481-212.383" clip-path="url(#p54782a5ccd)" style="fill:none;stroke:#0b3b5b;stroke-width:1.5;stroke-linecap:round" id="line2d_33"/>
      <path d="M99.784 633.246h937.06" clip-path="url(#p54782a5ccd)" style="fill:none;stroke:#000;stroke-opacity:.7;stroke-width:1.3;stroke-linecap:round" id="line2d_34"/>
      <path d="M100.719 635.222v-515.7" clip-path="url(#p54782a5ccd)" style="fill:none;stroke:#000;stroke-opacity:.7;stroke-width:1.3;stroke-linecap:round" id="line2d_35"/>
      <path d="M1035.909 635.222v-515.7" clip-path="url(#p54782a5ccd)" style="fill:none;stroke:#000;stroke-opacity:.7;stroke-width:1.3;stroke-linecap:round" id="line2d_36"/>
      <path d="M100.719 341.807h923.032" clip-path="url(#p54782a5ccd)" style="fill:none;stroke-dasharray:7.4,3.2;stroke-dashoffset:0;stroke:#0e4163;stroke-opacity:.3;stroke-width:2" id="LineCollection_1"/>
      <path d="M1023.751 633.246V336.867" clip-path="url(#p54782a5ccd)" style="fill:none;stroke-dasharray:7.4,3.2;stroke-dashoffset:0;stroke:#0e4163;stroke-opacity:.3;stroke-width:2" id="LineCollection_2"/>
      <g id="line2d_37">
        <defs>
          <path id="mb40156bf51" d="M0 3a3 3 0 1 0 0-6 3 3 0 0 0 0 6z" style="stroke:#0e4163;stroke-opacity:.75"/>
        </defs>
        <g clip-path="url(#p54782a5ccd)">
          <use xlink:href="#mb40156bf51" x="1023.751" y="341.807" style="fill:#0e4163;fill-opacity:.75;stroke:#0e4163;stroke-opacity:.75"/>
        </g>
      </g>
      <path d="M100.719 483.441h888.43" clip-path="url(#p54782a5ccd)" style="fill:none;stroke-dasharray:7.4,3.2;stroke-dashoffset:0;stroke:#0e4163;stroke-opacity:.3;stroke-width:2" id="LineCollection_3"/>
      <path d="M989.15 633.246V483.441" clip-path="url(#p54782a5ccd)" style="fill:none;stroke-dasharray:7.4,3.2;stroke-dashoffset:0;stroke:#0e4163;stroke-opacity:.3;stroke-width:2" id="LineCollection_4"/>
      <g clip-path="url(#p54782a5ccd)" id="line2d_38">
        <use xlink:href="#mb40156bf51" x="989.149" y="483.441" style="fill:#0e4163;fill-opacity:.75;stroke:#0e4163;stroke-opacity:.75"/>
      </g>
      <path d="M99.784 635.222v-515.7" style="fill:none;stroke:#fff;stroke-width:1.25;stroke-linejoin:miter;stroke-linecap:square" id="patch_3"/>
      <path d="M99.784 635.222h937.06" style="fill:none;stroke:#fff;stroke-width:1.25;stroke-linejoin:miter;stroke-linecap:square" id="patch_4"/>
      <g style="fill:#262626" transform="matrix(.12 0 0 -.12 25.904 15.79)" id="text_23"/>
      <g style="fill:#262626;opacity:.75" transform="matrix(.26 0 0 -.26 25.904 40.488)" id="text_24">
        <defs>
          <path id="Arial-BoldMT-44" d="M463 4581h1690q572 0 872-87 403-119 690-422 288-303 438-742t150-1083q0-566-140-975-172-500-491-809-241-235-650-366-306-97-819-97H463zm925-775V772h690q388 0 560 44 225 56 373 190 148 135 242 442 94 308 94 840 0 531-94 815-94 285-263 444-168 159-427 216-194 43-760 43z" transform="scale(.01563)"/>
          <path id="Arial-BoldMT-69" d="M459 3769v812h879v-812zM459 0v3319h879V0z" transform="scale(.01563)"/>
          <path id="Arial-BoldMT-73" d="m150 947 881 134q57-256 228-389 172-133 482-133 340 0 512 125 116 88 116 235 0 100-63 165-65 63-293 116-1063 234-1347 428-394 269-394 747 0 431 340 725 341 294 1057 294 681 0 1012-222 332-222 457-656l-829-153q-53 193-202 296-148 104-423 104-346 0-496-97-100-69-100-178 0-94 87-160 119-87 820-247 702-159 980-390 275-235 275-653 0-457-381-785T1741-75q-678 0-1074 275-395 275-517 747" transform="scale(.01563)"/>
          <path id="Arial-BoldMT-74" d="M1981 3319v-700h-600V1281q0-406 17-473 18-67 79-111t148-44q122 0 353 85l75-682Q1747-75 1359-75q-237 0-428 79-190 80-279 207T528 553q-28 153-28 619v1447H97v700h403v659l881 513V3319z" transform="scale(.01563)"/>
          <path id="Arial-BoldMT-72" d="M1300 0H422v3319h816v-472q209 334 376 440 167 107 380 107 300 0 578-166l-272-765q-222 143-412 143-185 0-313-102-128-101-202-367-73-265-73-1112z" transform="scale(.01563)"/>
          <path id="Arial-BoldMT-62" d="M422 0v4581h878V2931q406 463 963 463 606 0 1003-439t397-1261q0-850-405-1310-405-459-983-459-284 0-561 142-276 142-476 421V0zm872 1731q0-515 162-762 228-350 607-350 290 0 495 248 205 249 205 783 0 569-207 820-206 252-528 252-315 0-525-246-209-245-209-745" transform="scale(.01563)"/>
          <path id="Arial-BoldMT-75" d="M2644 0v497q-181-266-477-419-295-153-623-153-335 0-601 147-265 147-384 412-118 266-118 735v2100h878V1794q0-700 48-858 49-158 177-250t325-92q225 0 403 123 178 124 243 306 66 183 66 896v1400h878V0z" transform="scale(.01563)"/>
          <path id="Arial-BoldMT-63" d="m3353 2338-865-157q-44 260-199 391t-401 131q-329 0-524-227-195-226-195-757 0-591 198-835 199-243 533-243 250 0 409 142 160 142 225 489l863-147q-134-594-516-897Q2500-75 1859-75q-728 0-1161 459-432 460-432 1272 0 822 434 1280t1175 458q606 0 964-261t514-795" transform="scale(.01563)"/>
          <path id="Arial-BoldMT-f3" d="M256 1706q0 438 216 847 216 410 611 625 395 216 883 216 753 0 1234-489t481-1236q0-753-486-1249Q2709-75 1972-75q-456 0-870 206-414 207-630 605t-216 970m900-47q0-493 234-756 235-262 579-262t576 262q233 263 233 763 0 487-233 749-232 263-576 263t-579-263q-234-262-234-756m372 2066 432 934h984l-859-934z" transform="scale(.01563)"/>
          <path id="Arial-BoldMT-6e" d="M3478 0h-878v1694q0 537-56 695t-183 245q-127 88-305 88-228 0-409-125t-249-332q-67-206-67-762V0H453v3319h816v-488q434 563 1094 563 290 0 530-105 241-105 364-268 124-162 172-368 49-206 49-590z" transform="scale(.01563)"/>
          <path id="Arial-BoldMT-6d" d="M394 3319h809v-453q435 528 1035 528 318 0 552-132 235-131 385-396 219 265 472 396 253 132 541 132 365 0 618-149 253-148 378-436 91-212 91-687V0h-878v1897q0 494-91 637-122 188-375 188-184 0-347-113-162-112-234-329t-72-686V0h-878v1819q0 484-47 624-47 141-146 210-98 69-266 69-203 0-366-110-162-109-233-315-70-206-70-684V0H394z" transform="scale(.01563)"/>
          <path id="Arial-BoldMT-64" d="M3503 0h-815v488q-204-285-481-424-276-139-557-139-572 0-980 461-407 461-407 1286 0 844 396 1283 397 439 1004 439 556 0 962-463v1650h878zM1159 1731q0-531 147-768 213-344 594-344 303 0 515 257 213 258 213 771 0 572-206 823-206 252-528 252-313 0-524-249-211-248-211-742" transform="scale(.01563)"/>
          <path id="Arial-BoldMT-61" d="m1116 2306-797 144q134 481 462 712 328 232 975 232 588 0 875-139 288-139 405-353t117-786l-9-1025q0-438 42-646 42-207 158-445h-869q-34 88-84 259-22 79-32 104-225-219-481-329-256-109-547-109-512 0-808 278-295 278-295 703 0 282 134 502 135 220 377 337 242 118 699 205 615 116 853 216v87q0 253-125 361t-472 108q-235 0-366-92t-212-324m1175-712q-169-56-535-135-365-78-478-153-172-122-172-309 0-184 137-319 138-134 351-134 237 0 453 156 159 119 209 291 35 112 35 428z" transform="scale(.01563)"/>
          <path id="Arial-BoldMT-6c" d="M459 0v4581h879V0z" transform="scale(.01563)"/>
          <path id="Arial-BoldMT-65" d="m2381 1056 875-147q-168-481-533-733-364-251-910-251-866 0-1282 566-328 453-328 1143 0 825 431 1292 432 468 1091 468 741 0 1169-489t409-1499H1103q10-390 213-608 203-217 506-217 206 0 346 112 141 113 213 363m50 888q-9 381-197 579-187 199-456 199-287 0-475-209-187-210-184-569z" transform="scale(.01563)"/>
          <path id="Arial-BoldMT-32" d="M3238 816V0H159q50 463 300 877t988 1098q594 553 728 750 181 272 181 538 0 293-158 451-157 158-435 158-275 0-438-166-162-165-187-550l-875 88q78 725 490 1040 413 316 1031 316 679 0 1066-366 388-365 388-909 0-309-111-589t-352-586q-159-203-575-585-416-381-527-506-110-125-179-243z" transform="scale(.01563)"/>
          <path id="Arial-BoldMT-30" d="M1756 4600q666 0 1041-475 447-562 447-1866 0-1300-450-1868Q2422-78 1756-78q-668 0-1078 514-409 514-409 1833 0 1294 450 1862 372 469 1037 469m0-728q-159 0-284-102-125-101-194-364-90-340-90-1147 0-806 81-1108 81-301 204-401 124-100 283-100 160 0 285 101 125 102 193 365 91 337 91 1143 0 807-81 1108-81 302-205 403-123 102-283 102" transform="scale(.01563)"/>
          <path id="Arial-BoldMT-33" d="m241 1216 850 103q40-325 218-497 179-172 432-172 272 0 457 206 186 207 186 557 0 331-178 524-178 194-434 194-169 0-403-65l97 715q356-9 543 155 188 164 188 436 0 231-138 368-137 138-365 138-225 0-385-156-159-156-193-456l-810 137q85 416 255 664 170 249 475 391t683 142q647 0 1037-412 322-338 322-763 0-603-659-962 394-85 629-379 236-293 236-709 0-603-441-1028Q2403-78 1747-78q-622 0-1032 358-409 358-474 936" transform="scale(.01563)"/>
        </defs>
        <use xlink:href="#Arial-BoldMT-44"/>
        <use xlink:href="#Arial-BoldMT-69" x="72.217"/>
        <use xlink:href="#Arial-BoldMT-73" x="100"/>
        <use xlink:href="#Arial-BoldMT-74" x="155.615"/>
        <use xlink:href="#Arial-BoldMT-72" x="188.916"/>
        <use xlink:href="#Arial-BoldMT-69" x="227.832"/>
        <use xlink:href="#Arial-BoldMT-62" x="255.615"/>
        <use xlink:href="#Arial-BoldMT-75" x="316.699"/>
        <use xlink:href="#Arial-BoldMT-63" x="377.783"/>
        <use xlink:href="#Arial-BoldMT-69" x="433.398"/>
        <use xlink:href="#Arial-BoldMT-f3" x="461.182"/>
        <use xlink:href="#Arial-BoldMT-6e" x="522.266"/>
        <use xlink:href="#Arial-BoldMT-6d" x="611.133"/>
        <use xlink:href="#Arial-BoldMT-75" x="700.049"/>
        <use xlink:href="#Arial-BoldMT-6e" x="761.133"/>
        <use xlink:href="#Arial-BoldMT-64" x="822.217"/>
        <use xlink:href="#Arial-BoldMT-69" x="883.301"/>
        <use xlink:href="#Arial-BoldMT-61" x="911.084"/>
        <use xlink:href="#Arial-BoldMT-6c" x="966.699"/>
        <use xlink:href="#Arial-BoldMT-64" x="1022.266"/>
        <use xlink:href="#Arial-BoldMT-65" x="1083.35"/>
        <use xlink:href="#Arial-BoldMT-6c" x="1166.748"/>
        <use xlink:href="#Arial-BoldMT-61" x="1194.531"/>
        <use xlink:href="#Arial-BoldMT-72" x="1277.93"/>
        <use xlink:href="#Arial-BoldMT-65" x="1316.846"/>
        <use xlink:href="#Arial-BoldMT-6e" x="1372.461"/>
        <use xlink:href="#Arial-BoldMT-74" x="1433.545"/>
        <use xlink:href="#Arial-BoldMT-61" x="1466.846"/>
        <use xlink:href="#Arial-BoldMT-65" x="1550.244"/>
        <use xlink:href="#Arial-BoldMT-6e" x="1605.859"/>
        <use xlink:href="#Arial-BoldMT-32" x="1694.727"/>
        <use xlink:href="#Arial-BoldMT-30" x="1750.342"/>
        <use xlink:href="#Arial-BoldMT-32" x="1805.957"/>
        <use xlink:href="#Arial-BoldMT-33" x="1861.572"/>
      </g>
      <g style="fill:#262626;opacity:.85" transform="matrix(.18 0 0 -.18 25.904 72.595)" id="text_25">
        <defs>
          <path id="ArialMT-50" d="M494 0v4581h1728q456 0 697-43 337-57 565-215 229-157 368-442 139-284 139-625 0-584-372-989-372-404-1344-404H1100V0zm606 2403h1184q588 0 835 219t247 616q0 287-146 491-145 205-382 271-154 41-566 41H1100z" transform="scale(.01563)"/>
          <path id="ArialMT-65" d="m2694 1069 581-72q-137-509-509-791-372-281-950-281-728 0-1155 448-427 449-427 1258 0 838 431 1300 432 463 1119 463 666 0 1088-453t422-1275q0-50-3-150H816q31-547 309-838 278-290 694-290 309 0 528 162 219 163 347 519M847 1978h1853q-37 419-212 628-269 325-697 325-388 0-652-259t-292-694" transform="scale(.01563)"/>
          <path id="ArialMT-72" d="M416 0v3319h506v-503q194 353 358 465 164 113 361 113 284 0 578-181l-194-522q-206 122-412 122-185 0-332-111t-209-308q-94-300-94-656V0z" transform="scale(.01563)"/>
          <path id="ArialMT-63" d="m2588 1216 553-72q-91-572-465-896-373-323-917-323-681 0-1095 445-414 446-414 1277 0 537 178 940 178 404 542 605 364 202 793 202 540 0 884-274 344-273 441-776l-547-85q-78 335-277 503-198 169-480 169-425 0-691-305-265-304-265-963 0-669 256-972 257-303 669-303 331 0 553 203t282 625" transform="scale(.01563)"/>
          <path id="ArialMT-6e" d="M422 0v3319h506v-472q366 547 1056 547 300 0 552-108t377-283 175-415q31-157 31-547V0h-563v2019q0 344-66 514-65 170-232 271-167 102-392 102-360 0-621-228t-261-865V0z" transform="scale(.01563)"/>
          <path id="ArialMT-74" d="m1650 503 81-497q-237-50-425-50-306 0-475 97-168 97-237 255t-69 664v1909H113v438h412v822l559 337V3319h566v-438h-566V941q0-241 30-310 30-68 97-109t192-41q94 0 247 22" transform="scale(.01563)"/>
          <path id="ArialMT-69" d="M425 3934v647h563v-647zM425 0v3319h563V0z" transform="scale(.01563)"/>
          <path id="ArialMT-6c" d="M409 0v4581h563V0z" transform="scale(.01563)"/>
          <path id="ArialMT-64" d="M2575 0v419Q2259-75 1647-75q-397 0-730 219T401 755q-182 392-182 901 0 497 165 902 166 405 497 620 332 216 741 216 300 0 534-127 235-126 382-329v1643h559V0zM797 1656q0-637 268-953 269-315 635-315 369 0 626 301 258 302 258 920 0 682-263 1000-262 319-646 319-375 0-627-306-251-306-251-966" transform="scale(.01563)"/>
          <path id="ArialMT-61" d="M2588 409q-313-265-602-375-289-109-620-109-547 0-841 267T231 875q0 244 111 445 111 202 291 324t405 184q165 44 500 85 681 81 1003 193 3 116 3 147 0 344-160 485-215 190-640 190-397 0-586-139t-280-492l-550 75q75 353 247 570t497 334q325 118 753 118 425 0 690-100 266-100 391-252 125-151 175-383 28-143 28-518v-750q0-785 36-993 36-207 143-398h-588q-87 175-112 409m-47 1257q-307-125-919-213-347-50-491-113-143-62-222-182-78-120-78-267 0-225 170-375 171-150 499-150 325 0 578 142t372 389q91 191 91 562z" transform="scale(.01563)"/>
          <path id="ArialMT-70" d="M422-1272v4591h512v-431q182 253 410 379 228 127 553 127 425 0 750-219t490-618q166-398 166-873 0-509-183-917-182-408-531-625-348-217-733-217-281 0-505 119-223 119-367 300v-1616zm509 2913q0-641 259-947 260-306 629-306 375 0 642 317t267 983q0 634-261 949-261 316-623 316-360 0-637-336-276-336-276-976" transform="scale(.01563)"/>
          <path id="ArialMT-6f" d="M213 1659q0 922 512 1366 428 369 1044 369 684 0 1118-449 435-448 435-1239 0-640-192-1008-192-367-560-570-367-203-801-203-697 0-1127 447-429 447-429 1287m578 0q0-637 278-954t700-317q419 0 697 318 278 319 278 972 0 616-280 933t-695 317q-422 0-700-316-278-315-278-953" transform="scale(.01563)"/>
          <path id="ArialMT-62" d="M941 0H419v4581h562V2947q357 447 910 447 306 0 579-124 274-123 450-347 177-223 277-539 100-315 100-675 0-853-422-1319Q2453-75 1863-75q-588 0-922 491zm-7 1684q0-596 163-862 266-434 719-434 368 0 637 320t269 955q0 650-258 959t-623 309q-369 0-638-320t-269-927" transform="scale(.01563)"/>
          <path id="ArialMT-f3" d="M213 1659q0 922 512 1366 428 369 1044 369 684 0 1118-449 435-448 435-1239 0-640-192-1008-192-367-560-570-367-203-801-203-697 0-1127 447-429 447-429 1287m578 0q0-637 278-954t700-317q419 0 697 318 278 319 278 972 0 616-280 933t-695 317q-422 0-700-316-278-315-278-953m663 2072 415 875h738l-688-875z" transform="scale(.01563)"/>
          <path id="ArialMT-6d" d="M422 0v3319h503v-466q156 244 415 392 260 149 591 149 369 0 605-153t333-428q394 581 1025 581 494 0 759-274 266-273 266-842V0h-560v2091q0 337-55 485-54 149-198 239-143 91-337 91-350 0-582-233-231-232-231-745V0h-562v2156q0 375-138 562-137 188-450 188-237 0-439-125-201-125-292-366-91-240-91-693V0z" transform="scale(.01563)"/>
          <path id="ArialMT-75" d="M2597 0v488Q2209-75 1544-75q-294 0-549 112-254 113-378 283-123 171-173 418-35 165-35 525v2056h563V1478q0-440 34-594 53-221 225-348t425-127 475 130 314 353q93 224 93 649v1778h562V0z" transform="scale(.01563)"/>
          <path id="ArialMT-73" d="m197 991 556 87q47-334 261-512t599-178q387 0 574 157 188 158 188 371 0 190-166 300-115 75-575 190-618 157-857 271t-363 315q-123 202-123 446 0 221 101 410 102 190 277 315 131 96 357 163 227 68 487 68 390 0 685-113 296-112 436-305 141-192 194-513l-550-75q-37 256-217 399-180 144-508 144-387 0-553-128t-166-300q0-109 69-197 69-90 216-150 84-31 497-143 597-160 832-262 236-101 370-295 135-193 135-481 0-281-164-530-164-248-474-384-309-136-699-136-647 0-986 269T197 991" transform="scale(.01563)"/>
          <path id="ArialMT-67" d="m319-275 547-81q34-253 190-369 210-156 572-156 391 0 603 156 213 156 288 437 44 172 40 722Q2191 0 1641 0 956 0 581 494T206 1678q0 475 172 876 172 402 498 621 327 219 768 219 587 0 969-475v400h518V450q0-775-158-1098-157-324-500-511-342-188-842-188-593 0-959 267T319-275m465 1994q0-653 259-953 260-300 651-300 387 0 649 298 263 299 263 936 0 609-270 918-270 310-652 310-375 0-638-305-262-304-262-904" transform="scale(.01563)"/>
          <path id="ArialMT-68" d="M422 0v4581h562V2938q394 456 994 456 369 0 641-146 272-145 389-401t117-744V0h-562v2103q0 422-183 614t-517 192q-250 0-471-130-220-129-314-351t-94-612V0z" transform="scale(.01563)"/>
        </defs>
        <use xlink:href="#ArialMT-50"/>
        <use xlink:href="#ArialMT-65" x="66.699"/>
        <use xlink:href="#ArialMT-72" x="122.314"/>
        <use xlink:href="#ArialMT-63" x="155.615"/>
        <use xlink:href="#ArialMT-65" x="205.615"/>
        <use xlink:href="#ArialMT-6e" x="261.23"/>
        <use xlink:href="#ArialMT-74" x="316.846"/>
        <use xlink:href="#ArialMT-69" x="344.629"/>
        <use xlink:href="#ArialMT-6c" x="366.846"/>
        <use xlink:href="#ArialMT-64" x="416.846"/>
        <use xlink:href="#ArialMT-65" x="472.461"/>
        <use xlink:href="#ArialMT-6c" x="555.859"/>
        <use xlink:href="#ArialMT-61" x="578.076"/>
        <use xlink:href="#ArialMT-70" x="661.475"/>
        <use xlink:href="#ArialMT-6f" x="717.09"/>
        <use xlink:href="#ArialMT-62" x="772.705"/>
        <use xlink:href="#ArialMT-6c" x="828.32"/>
        <use xlink:href="#ArialMT-61" x="850.537"/>
        <use xlink:href="#ArialMT-63" x="906.152"/>
        <use xlink:href="#ArialMT-69" x="956.152"/>
        <use xlink:href="#ArialMT-f3" x="978.369"/>
        <use xlink:href="#ArialMT-6e" x="1033.984"/>
        <use xlink:href="#ArialMT-6d" x="1117.383"/>
        <use xlink:href="#ArialMT-75" x="1200.684"/>
        <use xlink:href="#ArialMT-6e" x="1256.299"/>
        <use xlink:href="#ArialMT-64" x="1311.914"/>
        <use xlink:href="#ArialMT-69" x="1367.529"/>
        <use xlink:href="#ArialMT-61" x="1389.746"/>
        <use xlink:href="#ArialMT-6c" x="1445.361"/>
        <use xlink:href="#ArialMT-65" x="1495.361"/>
        <use xlink:href="#ArialMT-6e" x="1550.977"/>
        <use xlink:href="#ArialMT-72" x="1634.375"/>
        <use xlink:href="#ArialMT-65" x="1667.676"/>
        <use xlink:href="#ArialMT-6c" x="1723.291"/>
        <use xlink:href="#ArialMT-61" x="1745.508"/>
        <use xlink:href="#ArialMT-63" x="1801.123"/>
        <use xlink:href="#ArialMT-69" x="1851.123"/>
        <use xlink:href="#ArialMT-f3" x="1873.34"/>
        <use xlink:href="#ArialMT-6e" x="1928.955"/>
        <use xlink:href="#ArialMT-63" x="2012.354"/>
        <use xlink:href="#ArialMT-6f" x="2062.354"/>
        <use xlink:href="#ArialMT-6e" x="2117.969"/>
        <use xlink:href="#ArialMT-6c" x="2201.367"/>
        <use xlink:href="#ArialMT-6f" x="2223.584"/>
        <use xlink:href="#ArialMT-73" x="2279.199"/>
        <use xlink:href="#ArialMT-69" x="2356.982"/>
        <use xlink:href="#ArialMT-6e" x="2379.199"/>
        <use xlink:href="#ArialMT-67" x="2434.814"/>
        <use xlink:href="#ArialMT-72" x="2490.43"/>
        <use xlink:href="#ArialMT-65" x="2523.73"/>
        <use xlink:href="#ArialMT-73" x="2579.346"/>
        <use xlink:href="#ArialMT-6f" x="2629.346"/>
        <use xlink:href="#ArialMT-73" x="2684.961"/>
        <use xlink:href="#ArialMT-70" x="2762.744"/>
        <use xlink:href="#ArialMT-6f" x="2818.359"/>
        <use xlink:href="#ArialMT-72" x="2873.975"/>
        <use xlink:href="#ArialMT-6d" x="2935.059"/>
        <use xlink:href="#ArialMT-69" x="3018.359"/>
        <use xlink:href="#ArialMT-65" x="3040.576"/>
        <use xlink:href="#ArialMT-6d" x="3096.191"/>
        <use xlink:href="#ArialMT-62" x="3179.492"/>
        <use xlink:href="#ArialMT-72" x="3235.107"/>
        <use xlink:href="#ArialMT-6f" x="3268.408"/>
        <use xlink:href="#ArialMT-64" x="3351.807"/>
        <use xlink:href="#ArialMT-65" x="3407.422"/>
        <use xlink:href="#ArialMT-6c" x="3463.037"/>
        <use xlink:href="#ArialMT-68" x="3513.037"/>
        <use xlink:href="#ArialMT-6f" x="3568.652"/>
        <use xlink:href="#ArialMT-67" x="3624.268"/>
        <use xlink:href="#ArialMT-61" x="3679.883"/>
        <use xlink:href="#ArialMT-72" x="3735.498"/>
      </g>
      <g style="fill:#262626;opacity:.85" transform="matrix(.14 0 0 -.14 25.904 99.764)" id="text_26">
        <defs>
          <path id="ArialMT-4c" d="M469 0v4581h606V541h2256V0z" transform="scale(.01563)"/>
          <path id="ArialMT-e1" d="M2588 409q-313-265-602-375-289-109-620-109-547 0-841 267T231 875q0 244 111 445 111 202 291 324t405 184q165 44 500 85 681 81 1003 193 3 116 3 147 0 344-160 485-215 190-640 190-397 0-586-139t-280-492l-550 75q75 353 247 570t497 334q325 118 753 118 425 0 690-100 266-100 391-252 125-151 175-383 28-143 28-518v-750q0-785 36-993 36-207 143-398h-588q-87 175-112 409m-47 1257q-307-125-919-213-347-50-491-113-143-62-222-182-78-120-78-267 0-225 170-375 171-150 499-150 325 0 578 142t372 389q91 191 91 562zM1446 3731l415 875h738l-688-875z" transform="scale(.01563)"/>
          <path id="ArialMT-6a" d="M419 3928v653h562v-653zm-713-5216 106 479q169-44 266-44 172 0 256 114 85 114 85 570v3488h562V-181q0-613-159-853-203-313-675-313-228 0-441 59" transform="scale(.01563)"/>
          <path id="ArialMT-71" d="M2538-1272V353q-132-184-368-306T1669-75q-591 0-1018 472-426 472-426 1294 0 500 173 896 174 397 503 602 330 205 724 205 616 0 969-519v444h506v-4591zM803 1669q0-641 269-961t644-320q359 0 618 304 260 305 260 927 0 662-274 996-273 335-642 335-365 0-620-311t-255-970" transform="scale(.01563)"/>
          <path id="ArialMT-76" d="M1344 0 81 3319h594l713-1988q115-322 212-668 75 262 209 631l738 2025h578L1869 0z" transform="scale(.01563)"/>
          <path id="ArialMT-79" d="m397-1278-63 528q185-50 322-50 188 0 300 63 113 62 185 174 53 85 172 419 15 47 50 138L103 3319h606l691-1922q134-366 241-769 97 388 231 756l709 1935h563L1881-56q-203-547-315-753-150-279-344-408-194-130-463-130-162 0-362 69" transform="scale(.01563)"/>
          <path id="ArialMT-78" d="m47 0 1212 1725L138 3319h703l509-778q144-222 231-372 138 206 253 365l560 785h672L1919 1756 3153 0h-690l-682 1031-181 278L728 0z" transform="scale(.01563)"/>
        </defs>
        <use xlink:href="#ArialMT-4c"/>
        <use xlink:href="#ArialMT-6f" x="55.615"/>
        <use xlink:href="#ArialMT-73" x="111.23"/>
        <use xlink:href="#ArialMT-69" x="189.014"/>
        <use xlink:href="#ArialMT-6e" x="211.23"/>
        <use xlink:href="#ArialMT-67" x="266.846"/>
        <use xlink:href="#ArialMT-72" x="322.461"/>
        <use xlink:href="#ArialMT-65" x="355.762"/>
        <use xlink:href="#ArialMT-73" x="411.377"/>
        <use xlink:href="#ArialMT-6f" x="461.377"/>
        <use xlink:href="#ArialMT-73" x="516.992"/>
        <use xlink:href="#ArialMT-65" x="594.775"/>
        <use xlink:href="#ArialMT-73" x="650.391"/>
        <use xlink:href="#ArialMT-74" x="700.391"/>
        <use xlink:href="#ArialMT-e1" x="728.174"/>
        <use xlink:href="#ArialMT-6e" x="783.789"/>
        <use xlink:href="#ArialMT-61" x="867.188"/>
        <use xlink:href="#ArialMT-6a" x="922.803"/>
        <use xlink:href="#ArialMT-75" x="945.02"/>
        <use xlink:href="#ArialMT-73" x="1000.635"/>
        <use xlink:href="#ArialMT-74" x="1050.635"/>
        <use xlink:href="#ArialMT-61" x="1078.418"/>
        <use xlink:href="#ArialMT-64" x="1134.033"/>
        <use xlink:href="#ArialMT-6f" x="1189.648"/>
        <use xlink:href="#ArialMT-73" x="1245.264"/>
        <use xlink:href="#ArialMT-70" x="1323.047"/>
        <use xlink:href="#ArialMT-6f" x="1378.662"/>
        <use xlink:href="#ArialMT-72" x="1434.277"/>
        <use xlink:href="#ArialMT-70" x="1495.361"/>
        <use xlink:href="#ArialMT-61" x="1550.977"/>
        <use xlink:href="#ArialMT-72" x="1606.592"/>
        <use xlink:href="#ArialMT-69" x="1639.893"/>
        <use xlink:href="#ArialMT-64" x="1662.109"/>
        <use xlink:href="#ArialMT-61" x="1717.725"/>
        <use xlink:href="#ArialMT-64" x="1773.34"/>
        <use xlink:href="#ArialMT-64" x="1856.738"/>
        <use xlink:href="#ArialMT-65" x="1912.354"/>
        <use xlink:href="#ArialMT-70" x="1995.752"/>
        <use xlink:href="#ArialMT-6f" x="2051.367"/>
        <use xlink:href="#ArialMT-64" x="2106.982"/>
        <use xlink:href="#ArialMT-65" x="2162.598"/>
        <use xlink:href="#ArialMT-72" x="2218.213"/>
        <use xlink:href="#ArialMT-61" x="2279.297"/>
        <use xlink:href="#ArialMT-64" x="2334.912"/>
        <use xlink:href="#ArialMT-71" x="2390.527"/>
        <use xlink:href="#ArialMT-75" x="2446.143"/>
        <use xlink:href="#ArialMT-69" x="2501.758"/>
        <use xlink:href="#ArialMT-73" x="2523.975"/>
        <use xlink:href="#ArialMT-69" x="2573.975"/>
        <use xlink:href="#ArialMT-74" x="2596.191"/>
        <use xlink:href="#ArialMT-69" x="2623.975"/>
        <use xlink:href="#ArialMT-76" x="2646.191"/>
        <use xlink:href="#ArialMT-6f" x="2696.191"/>
        <use xlink:href="#ArialMT-79" x="2779.59"/>
        <use xlink:href="#ArialMT-73" x="2857.373"/>
        <use xlink:href="#ArialMT-65" x="2907.373"/>
        <use xlink:href="#ArialMT-65" x="2990.771"/>
        <use xlink:href="#ArialMT-78" x="3046.387"/>
        <use xlink:href="#ArialMT-70" x="3096.387"/>
        <use xlink:href="#ArialMT-72" x="3152.002"/>
        <use xlink:href="#ArialMT-65" x="3185.303"/>
        <use xlink:href="#ArialMT-73" x="3240.918"/>
        <use xlink:href="#ArialMT-61" x="3290.918"/>
        <use xlink:href="#ArialMT-6e" x="3346.533"/>
        <use xlink:href="#ArialMT-65" x="3429.932"/>
        <use xlink:href="#ArialMT-6e" x="3485.547"/>
        <use xlink:href="#ArialMT-64" x="3568.945"/>
        <use xlink:href="#ArialMT-f3" x="3624.561"/>
        <use xlink:href="#ArialMT-6c" x="3680.176"/>
        <use xlink:href="#ArialMT-61" x="3702.393"/>
        <use xlink:href="#ArialMT-72" x="3758.008"/>
        <use xlink:href="#ArialMT-65" x="3791.309"/>
        <use xlink:href="#ArialMT-73" x="3846.924"/>
        <use xlink:href="#ArialMT-69" x="3924.707"/>
        <use xlink:href="#ArialMT-6e" x="3946.924"/>
        <use xlink:href="#ArialMT-74" x="4002.539"/>
        <use xlink:href="#ArialMT-65" x="4030.322"/>
        <use xlink:href="#ArialMT-72" x="4085.938"/>
        <use xlink:href="#ArialMT-6e" x="4119.238"/>
        <use xlink:href="#ArialMT-61" x="4174.854"/>
        <use xlink:href="#ArialMT-63" x="4230.469"/>
        <use xlink:href="#ArialMT-69" x="4280.469"/>
        <use xlink:href="#ArialMT-6f" x="4302.686"/>
        <use xlink:href="#ArialMT-6e" x="4358.301"/>
        <use xlink:href="#ArialMT-61" x="4413.916"/>
        <use xlink:href="#ArialMT-6c" x="4469.531"/>
        <use xlink:href="#ArialMT-65" x="4491.748"/>
        <use xlink:href="#ArialMT-73" x="4547.363"/>
      </g>
      <g style="fill:#0e4163;opacity:.75" transform="matrix(.14 0 0 -.14 460.767 332.915)" id="text_27">
        <defs>
          <path id="ArialMT-53" d="m288 1472 571 50q41-344 189-564 149-220 461-356 313-136 704-136 346 0 612 103t395 282q130 180 130 393 0 215-125 376t-412 271q-185 72-816 223-631 152-884 286-329 172-490 426-160 255-160 571 0 347 196 648 197 302 575 458 379 156 841 156 509 0 898-164 390-164 599-483 209-318 225-721l-581-44q-47 434-318 656-270 222-798 222-550 0-802-202-251-201-251-485 0-247 178-407 175-159 914-326t1014-292q400-185 590-468 191-282 191-651 0-366-209-690-209-323-602-503-392-179-882-179-622 0-1043 181-420 181-659 545-239 365-251 824" transform="scale(.01563)"/>
          <path id="ArialMT-45" d="M506 0v4581h3313v-540H1113V2638h2534v-538H1113V541h2812V0z" transform="scale(.01563)"/>
          <path id="ArialMT-2e" d="M581 0v641h641V0z" transform="scale(.01563)"/>
          <path id="ArialMT-55" d="M3500 4581h606V1934q0-690-156-1097-156-406-564-661Q2978-78 2316-78q-644 0-1054 222-409 222-584 642T503 1934v2647h606V1938q0-597 111-880t381-436q271-153 662-153 668 0 952 303 285 303 285 1166z" transform="scale(.01563)"/>
        </defs>
        <use xlink:href="#ArialMT-53"/>
        <use xlink:href="#ArialMT-61" x="66.699"/>
        <use xlink:href="#ArialMT-6c" x="122.314"/>
        <use xlink:href="#ArialMT-61" x="144.531"/>
        <use xlink:href="#ArialMT-72" x="200.146"/>
        <use xlink:href="#ArialMT-69" x="233.447"/>
        <use xlink:href="#ArialMT-6f" x="255.664"/>
        <use xlink:href="#ArialMT-6d" x="339.063"/>
        <use xlink:href="#ArialMT-65" x="422.363"/>
        <use xlink:href="#ArialMT-64" x="477.979"/>
        <use xlink:href="#ArialMT-69" x="533.594"/>
        <use xlink:href="#ArialMT-6f" x="555.811"/>
        <use xlink:href="#ArialMT-64" x="639.209"/>
        <use xlink:href="#ArialMT-65" x="694.824"/>
        <use xlink:href="#ArialMT-6c" x="778.223"/>
        <use xlink:href="#ArialMT-6f" x="800.439"/>
        <use xlink:href="#ArialMT-73" x="856.055"/>
        <use xlink:href="#ArialMT-67" x="933.838"/>
        <use xlink:href="#ArialMT-72" x="989.453"/>
        <use xlink:href="#ArialMT-61" x="1022.754"/>
        <use xlink:href="#ArialMT-64" x="1078.369"/>
        <use xlink:href="#ArialMT-75" x="1133.984"/>
        <use xlink:href="#ArialMT-61" x="1189.6"/>
        <use xlink:href="#ArialMT-64" x="1245.215"/>
        <use xlink:href="#ArialMT-6f" x="1300.83"/>
        <use xlink:href="#ArialMT-73" x="1356.445"/>
        <use xlink:href="#ArialMT-75" x="1434.229"/>
        <use xlink:href="#ArialMT-6e" x="1489.844"/>
        <use xlink:href="#ArialMT-69" x="1545.459"/>
        <use xlink:href="#ArialMT-76" x="1567.676"/>
        <use xlink:href="#ArialMT-65" x="1617.676"/>
        <use xlink:href="#ArialMT-72" x="1673.291"/>
        <use xlink:href="#ArialMT-73" x="1706.592"/>
        <use xlink:href="#ArialMT-69" x="1756.592"/>
        <use xlink:href="#ArialMT-74" x="1778.809"/>
        <use xlink:href="#ArialMT-61" x="1806.592"/>
        <use xlink:href="#ArialMT-72" x="1862.207"/>
        <use xlink:href="#ArialMT-69" x="1895.508"/>
        <use xlink:href="#ArialMT-6f" x="1917.725"/>
        <use xlink:href="#ArialMT-73" x="1973.34"/>
        <use xlink:href="#ArialMT-65" x="2051.123"/>
        <use xlink:href="#ArialMT-6e" x="2106.738"/>
        <use xlink:href="#ArialMT-45" x="2190.137"/>
        <use xlink:href="#ArialMT-45" x="2256.836"/>
        <use xlink:href="#ArialMT-2e" x="2323.535"/>
        <use xlink:href="#ArialMT-55" x="2351.318"/>
        <use xlink:href="#ArialMT-55" x="2423.535"/>
        <use xlink:href="#ArialMT-2e" x="2495.752"/>
      </g>
      <g style="fill:#0e4163;opacity:.75" transform="matrix(.14 0 0 -.14 517.814 474.55)" id="text_28">
        <use xlink:href="#ArialMT-45"/>
        <use xlink:href="#ArialMT-6c" x="66.699"/>
        <use xlink:href="#ArialMT-35" x="116.699"/>
        <use xlink:href="#ArialMT-25" x="172.314"/>
        <use xlink:href="#ArialMT-6d" x="289.014"/>
        <use xlink:href="#ArialMT-e1" x="372.314"/>
        <use xlink:href="#ArialMT-73" x="427.93"/>
        <use xlink:href="#ArialMT-72" x="505.713"/>
        <use xlink:href="#ArialMT-69" x="539.014"/>
        <use xlink:href="#ArialMT-63" x="561.23"/>
        <use xlink:href="#ArialMT-6f" x="611.23"/>
        <use xlink:href="#ArialMT-64" x="694.629"/>
        <use xlink:href="#ArialMT-65" x="750.244"/>
        <use xlink:href="#ArialMT-6c" x="805.859"/>
        <use xlink:href="#ArialMT-6d" x="855.859"/>
        <use xlink:href="#ArialMT-75" x="939.16"/>
        <use xlink:href="#ArialMT-6e" x="994.775"/>
        <use xlink:href="#ArialMT-64" x="1050.391"/>
        <use xlink:href="#ArialMT-6f" x="1106.006"/>
      </g>
      <g id="text_29">
        <path d="M3.24 699.008h1065.889v-19.189H3.24z" style="fill:#4c4c4c;stroke:#4c4c4c;stroke-linejoin:miter" id="patch_5"/>
        <g style="fill:#fff" transform="matrix(.12 0 0 -.12 7.2 692.522)">
          <defs>
            <path id="ArialMT-46" d="M525 0v4581h3091v-540H1131V2622h2150v-541H1131V0z" transform="scale(.01563)"/>
            <path id="ArialMT-3a" d="M578 2678v641h641v-641zM578 0v641h641V0z" transform="scale(.01563)"/>
            <path id="ArialMT-4f" d="M309 2231q0 1141 612 1786 613 646 1582 646 635 0 1144-304 509-303 776-845 268-542 268-1230 0-696-282-1246-281-550-797-833Q3097-78 2500-78q-647 0-1157 312-509 313-772 853-262 541-262 1144m625-9q0-828 445-1305 446-476 1118-476 684 0 1126 481 443 481 443 1366 0 559-189 976t-554 647q-364 230-817 230-643 0-1108-443-464-442-464-1476" transform="scale(.01563)"/>
            <path id="ArialMT-57" d="M1294 0 78 4581h622l697-3003q112-472 194-937 175 734 206 847l872 3093h731l656-2318q247-863 357-1622 87 434 228 997l718 2943h610L4713 0h-585l-965 3491q-122 437-144 537-72-315-135-537L1913 0z" transform="scale(.01563)"/>
            <path id="ArialMT-44" d="M494 0v4581h1578q534 0 816-65 393-91 671-328 363-307 542-784 180-476 180-1088 0-522-122-925-121-403-312-668-191-264-418-416-226-151-546-229T2147 0zm606 541h978q453 0 711 84t411 238q216 215 336 579t120 883q0 719-236 1105t-573 517q-244 94-784 94h-963z" transform="scale(.01563)"/>
            <path id="ArialMT-2f" d="m0-78 1328 4737h450L453-78z" transform="scale(.01563)"/>
            <path id="ArialMT-66" d="M556 0v2881H59v438h497v353q0 334 60 497 81 219 285 354 205 136 574 136 238 0 525-56l-84-490q-175 31-332 31-256 0-362-110-106-109-106-409v-306h647v-438h-647V0z" transform="scale(.01563)"/>
            <path id="ArialMT-7a" d="M125 0v456l2113 2425q-360-18-635-18H250v456h2713v-372L1166 841 819 456q378 28 709 28h1535V0z" transform="scale(.01563)"/>
            <path id="ArialMT-42" d="M469 0v4581h1719q525 0 842-139t496-428q180-289 180-605 0-293-159-553-159-259-481-418 415-122 638-416 224-294 224-694 0-322-136-599-136-276-336-426T2954 76Q2653 0 2216 0zm606 2656h991q403 0 578 53 231 69 348 228 117 160 117 401 0 228-109 401-109 174-313 238-203 64-696 64h-916zm0-2115h1141q293 0 412 22 210 37 350 124 141 88 231 255 91 167 91 386 0 256-131 445-131 190-364 266-233 77-671 77H1075z" transform="scale(.01563)"/>
            <path id="ArialMT-4d" d="M475 0v4581h913l1084-3243q150-454 219-679 78 250 243 735l1097 3187h816V0h-584v3834L2931 0h-547L1059 3900V0z" transform="scale(.01563)"/>
            <path id="ArialMT-43" d="m3763 1606 606-153q-191-747-686-1139T2472-78q-741 0-1205 301-464 302-706 874T319 2325q0 716 273 1248 274 533 778 809 505 277 1111 277 688 0 1156-350 469-350 654-984l-597-141q-160 500-463 728-303 229-762 229-528 0-883-254-355-253-499-680-143-426-143-879 0-584 170-1020t529-652q360-215 779-215 509 0 862 293 354 294 479 872" transform="scale(.01563)"/>
            <path id="ArialMT-2d" d="M203 1375v566h1728v-566z" transform="scale(.01563)"/>
            <path id="ArialMT-59" d="M1784 0v1941L19 4581h737l903-1381q250-387 466-775 206 359 500 809l888 1347h706L2391 1941V0z" transform="scale(.01563)"/>
            <path id="ArialMT-41" d="m-9 0 1759 4581h653L4278 0h-690l-535 1388H1138L634 0zm1322 1881h1553l-478 1269q-219 578-325 950-88-441-247-875z" transform="scale(.01563)"/>
            <path id="ArialMT-6b" d="M425 0v4581h563V1969l1331 1350h728L1778 2088 3175 0h-694L1384 1697l-396-381V0z" transform="scale(.01563)"/>
            <path id="ArialMT-28" d="M1497-1347Q1031-759 709 28 388 816 388 1659q0 744 240 1425 281 791 869 1575h403q-378-650-500-928-191-431-300-900-134-584-134-1175 0-1503 934-3003z" transform="scale(.01563)"/>
            <path id="ArialMT-29" d="M791-1347H388q934 1500 934 3003 0 588-134 1166-107 469-297 900-122 281-503 937h403q587-784 868-1575 241-681 241-1425 0-843-324-1631-323-787-785-1375" transform="scale(.01563)"/>
          </defs>
          <use xlink:href="#ArialMT-46" x="27.783"/>
          <use xlink:href="#ArialMT-75" x="88.867"/>
          <use xlink:href="#ArialMT-65" x="144.482"/>
          <use xlink:href="#ArialMT-6e" x="200.098"/>
          <use xlink:href="#ArialMT-74" x="255.713"/>
          <use xlink:href="#ArialMT-65" x="283.496"/>
          <use xlink:href="#ArialMT-3a" x="339.111"/>
          <use xlink:href="#ArialMT-4f" x="394.678"/>
          <use xlink:href="#ArialMT-75" x="472.461"/>
          <use xlink:href="#ArialMT-72" x="528.076"/>
          <use xlink:href="#ArialMT-57" x="589.16"/>
          <use xlink:href="#ArialMT-6f" x="681.795"/>
          <use xlink:href="#ArialMT-72" x="737.41"/>
          <use xlink:href="#ArialMT-6c" x="770.711"/>
          <use xlink:href="#ArialMT-64" x="792.928"/>
          <use xlink:href="#ArialMT-69" x="876.326"/>
          <use xlink:href="#ArialMT-6e" x="898.543"/>
          <use xlink:href="#ArialMT-44" x="981.941"/>
          <use xlink:href="#ArialMT-61" x="1054.158"/>
          <use xlink:href="#ArialMT-74" x="1109.773"/>
          <use xlink:href="#ArialMT-61" x="1137.557"/>
          <use xlink:href="#ArialMT-2f" x="1220.955"/>
          <use xlink:href="#ArialMT-50" x="1276.521"/>
          <use xlink:href="#ArialMT-6c" x="1343.221"/>
          <use xlink:href="#ArialMT-61" x="1365.438"/>
          <use xlink:href="#ArialMT-74" x="1421.053"/>
          <use xlink:href="#ArialMT-61" x="1448.836"/>
          <use xlink:href="#ArialMT-66" x="1504.451"/>
          <use xlink:href="#ArialMT-6f" x="1532.234"/>
          <use xlink:href="#ArialMT-72" x="1587.85"/>
          <use xlink:href="#ArialMT-6d" x="1621.15"/>
          <use xlink:href="#ArialMT-61" x="1704.451"/>
          <use xlink:href="#ArialMT-73" x="1787.85"/>
          <use xlink:href="#ArialMT-6f" x="1837.85"/>
          <use xlink:href="#ArialMT-62" x="1893.465"/>
          <use xlink:href="#ArialMT-72" x="1949.08"/>
          <use xlink:href="#ArialMT-65" x="1982.381"/>
          <use xlink:href="#ArialMT-50" x="2065.779"/>
          <use xlink:href="#ArialMT-6f" x="2132.479"/>
          <use xlink:href="#ArialMT-62" x="2188.094"/>
          <use xlink:href="#ArialMT-72" x="2243.709"/>
          <use xlink:href="#ArialMT-65" x="2277.01"/>
          <use xlink:href="#ArialMT-7a" x="2332.625"/>
          <use xlink:href="#ArialMT-61" x="2382.625"/>
          <use xlink:href="#ArialMT-79" x="2466.023"/>
          <use xlink:href="#ArialMT-44" x="2543.807"/>
          <use xlink:href="#ArialMT-65" x="2616.023"/>
          <use xlink:href="#ArialMT-73" x="2671.639"/>
          <use xlink:href="#ArialMT-69" x="2721.639"/>
          <use xlink:href="#ArialMT-67" x="2743.855"/>
          <use xlink:href="#ArialMT-75" x="2799.471"/>
          <use xlink:href="#ArialMT-61" x="2855.086"/>
          <use xlink:href="#ArialMT-6c" x="2910.701"/>
          <use xlink:href="#ArialMT-64" x="2932.918"/>
          <use xlink:href="#ArialMT-61" x="2988.533"/>
          <use xlink:href="#ArialMT-64" x="3044.148"/>
          <use xlink:href="#ArialMT-64" x="3127.547"/>
          <use xlink:href="#ArialMT-65" x="3183.162"/>
          <use xlink:href="#ArialMT-6c" x="3238.777"/>
          <use xlink:href="#ArialMT-42" x="3288.777"/>
          <use xlink:href="#ArialMT-61" x="3355.477"/>
          <use xlink:href="#ArialMT-6e" x="3411.092"/>
          <use xlink:href="#ArialMT-63" x="3466.707"/>
          <use xlink:href="#ArialMT-6f" x="3516.707"/>
          <use xlink:href="#ArialMT-4d" x="3600.105"/>
          <use xlink:href="#ArialMT-75" x="3683.406"/>
          <use xlink:href="#ArialMT-6e" x="3739.021"/>
          <use xlink:href="#ArialMT-64" x="3794.637"/>
          <use xlink:href="#ArialMT-69" x="3850.252"/>
          <use xlink:href="#ArialMT-61" x="3872.469"/>
          <use xlink:href="#ArialMT-6c" x="3928.084"/>
          <use xlink:href="#ArialMT-43" x="6561.922"/>
          <use xlink:href="#ArialMT-6f" x="6634.139"/>
          <use xlink:href="#ArialMT-6e" x="6689.754"/>
          <use xlink:href="#ArialMT-6c" x="6773.152"/>
          <use xlink:href="#ArialMT-69" x="6795.369"/>
          <use xlink:href="#ArialMT-63" x="6817.586"/>
          <use xlink:href="#ArialMT-65" x="6867.586"/>
          <use xlink:href="#ArialMT-6e" x="6923.201"/>
          <use xlink:href="#ArialMT-63" x="6978.816"/>
          <use xlink:href="#ArialMT-69" x="7028.816"/>
          <use xlink:href="#ArialMT-61" x="7051.033"/>
          <use xlink:href="#ArialMT-43" x="7134.432"/>
          <use xlink:href="#ArialMT-43" x="7206.648"/>
          <use xlink:href="#ArialMT-2d" x="7278.865"/>
          <use xlink:href="#ArialMT-42" x="7312.166"/>
          <use xlink:href="#ArialMT-59" x="7378.865"/>
          <use xlink:href="#ArialMT-2d" x="7436.439"/>
          <use xlink:href="#ArialMT-53" x="7469.74"/>
          <use xlink:href="#ArialMT-41" x="7536.439"/>
          <use xlink:href="#ArialMT-64" x="7625.422"/>
          <use xlink:href="#ArialMT-65" x="7681.037"/>
          <use xlink:href="#ArialMT-42" x="7764.436"/>
          <use xlink:href="#ArialMT-6f" x="7831.135"/>
          <use xlink:href="#ArialMT-72" x="7886.75"/>
          <use xlink:href="#ArialMT-69" x="7920.051"/>
          <use xlink:href="#ArialMT-73" x="7942.268"/>
          <use xlink:href="#ArialMT-59" x="8018.301"/>
          <use xlink:href="#ArialMT-61" x="8077.625"/>
          <use xlink:href="#ArialMT-6b" x="8133.24"/>
          <use xlink:href="#ArialMT-75" x="8183.24"/>
          <use xlink:href="#ArialMT-62" x="8238.855"/>
          <use xlink:href="#ArialMT-63" x="8294.471"/>
          <use xlink:href="#ArialMT-68" x="8344.471"/>
          <use xlink:href="#ArialMT-69" x="8400.086"/>
          <use xlink:href="#ArialMT-6b" x="8422.303"/>
          <use xlink:href="#ArialMT-28" x="8500.086"/>
          <use xlink:href="#ArialMT-32" x="8533.387"/>
          <use xlink:href="#ArialMT-30" x="8589.002"/>
          <use xlink:href="#ArialMT-32" x="8644.617"/>
          <use xlink:href="#ArialMT-34" x="8700.232"/>
          <use xlink:href="#ArialMT-29" x="8755.848"/>
        </g>
      </g>
    </g>
  </g>
  <defs>
    <clipPath id="p54782a5ccd">
      <path d="M99.784 119.522h937.06v515.7H99.784z"/>
    </clipPath>
  </defs>
</svg>
