<svg version="1.1" id="Layer_1" xmlns="http://www.w3.org/2000/svg" xmlns:xlink="http://www.w3.org/1999/xlink" x="0" y="0" viewBox="16 0 402 642" xml:space="preserve"><style>.st14{enable-background:new}.st15{fill:#fff200}.st16{fill:#fff}</style><defs><path id="SVGID_1_" d="M0-2h432v648H0z"/></defs><clipPath id="SVGID_00000101814224225735914310000004436470532116433576_"><use xlink:href="#SVGID_1_" style="overflow:visible"/></clipPath><path style="clip-path:url(#SVGID_00000101814224225735914310000004436470532116433576_);fill:#00adbd" d="M-27.8-9.5v297h487.5v-297z"/><defs><path id="SVGID_00000037690610090445902570000007917706924077473422_" d="M0-2h432v648H0z"/></defs><clipPath id="SVGID_00000144328531746428524610000016501557596099652519_"><use xlink:href="#SVGID_00000037690610090445902570000007917706924077473422_" style="overflow:visible"/></clipPath><path style="clip-path:url(#SVGID_00000144328531746428524610000016501557596099652519_);fill:#00adbd" d="M0 286v369h441V286z"/><defs><path id="SVGID_00000161600631818187756080000010696294866012149688_" d="M0-2h432v514H0z"/></defs><clipPath id="SVGID_00000146485880013587641050000017529268312111295139_"><use xlink:href="#SVGID_00000161600631818187756080000010696294866012149688_" style="overflow:visible"/></clipPath><path style="clip-path:url(#SVGID_00000146485880013587641050000017529268312111295139_);fill:#fff" d="M0 353.1c-27.2-3.7-51.8-14.6-64.8-36.1H-51l-.3 1.1h18.1l.3-1.1H0z"/><defs><path id="SVGID_00000181082728916047662790000010203321767970896287_" d="M0-2h432v514H0z"/></defs><clipPath id="SVGID_00000042709681888206881510000003184432998646096034_"><use xlink:href="#SVGID_00000181082728916047662790000010203321767970896287_" style="overflow:visible"/></clipPath><path style="clip-path:url(#SVGID_00000042709681888206881510000003184432998646096034_);fill:#00b6c4" d="M23.5 354.7c-7.9 0-15.8-.5-23.5-1.5V317h91.3l.2 1.1h18.6l-.2-1.1h13.8c-1.6 18.8-51.1 37.7-100.2 37.7"/><defs><path id="SVGID_00000021824994907349160320000012792525181795156636_" d="M0-2h432v514H0z"/></defs><clipPath id="SVGID_00000093890878685804642580000009096933898718562434_"><use xlink:href="#SVGID_00000021824994907349160320000012792525181795156636_" style="overflow:visible"/></clipPath><path style="clip-path:url(#SVGID_00000093890878685804642580000009096933898718562434_);fill:#fff" d="M441 348v-29.9h25l-9.3-30.6h3v-35.7l19.7 65.5.2.8h14.7c-.4 1.7-1.2 3.5-2.4 5.2-1.5 2.2-3.7 4.3-6.5 6.5-5.5 4.3-13.3 8.3-22.6 11.7-6.5 2.5-13.9 4.7-21.8 6.5m-475.8-32h-13.7l20.7-69.4v40.9h1.7zm265-325.5h-32.8c4.8-2.8 10.4-4.4 16.4-4.4s11.6 1.6 16.4 4.4"/><defs><path id="SVGID_00000105403400402420878890000010818640950877984174_" d="M0-2h432v514H0z"/></defs><clipPath id="SVGID_00000144331006095342797840000006673435472480525470_"><use xlink:href="#SVGID_00000105403400402420878890000010818640950877984174_" style="overflow:visible"/></clipPath><path style="clip-path:url(#SVGID_00000144331006095342797840000006673435472480525470_);fill:#00b6c4" d="M459.7 287.5h-3L392.9 77.9 344.4 286h-15.1l51.3-227.3H230.2V286H202V58.7H49.7L100.8 286H86.5L39.2 75.4l-65.3 212.1h-1.7v-40.9L31.8 47.4H202v-4.3l-.7-.3c-11.1-4.5-18.9-15-18.9-27.1 0-8.1 3.5-15.5 9.1-20.9 1.7-1.6 3.7-3.1 5.7-4.3H230c2.1 1.2 4 2.7 5.8 4.3 5.7 5.4 9.1 12.7 9.1 20.9 0 10.4-5.7 19.6-14.4 24.9l-.5.3v6.5h168.1l61.5 204.4v35.7M213.8-6.7c-6.5 0-12.4 2.5-16.7 6.5s-6.9 9.7-6.9 15.8c0 6.2 2.7 11.8 6.9 15.9 4.3 4 10.2 6.5 16.7 6.5s12.4-2.5 16.7-6.5 6.9-9.7 6.9-15.9-2.7-11.8-6.9-15.8c-4.3-4-10.2-6.5-16.7-6.5"/><defs><path id="SVGID_00000070801095440149750280000000859801477938074030_" d="M0-2h432v514H0z"/></defs><clipPath id="SVGID_00000047757342377651102170000017406405596650611330_"><use xlink:href="#SVGID_00000070801095440149750280000000859801477938074030_" style="overflow:visible"/></clipPath><path style="clip-path:url(#SVGID_00000047757342377651102170000017406405596650611330_);fill:#00b6c4" d="M287.4 471H142.5v-30.6H202V286h28.1v154.4h57.2V471m108.2-117.9c-17.9 0-35.6-2.5-51-8.3-14.7-5.6-27.2-14.2-35.4-26.7H322l7.2-32.1h15.1l-7.2 30.8 1 .2-1-.2-.3 1.3H441V348c-14.1 3.2-29.9 5.1-45.5 5.1m-288-37.1H93.2l-6.7-30h14.3z"/><defs><path id="SVGID_00000137845943380119082120000001331933772886757514_" d="M0-2h432v514H0z"/></defs><clipPath id="SVGID_00000066490988684641631200000000428403131000384406_"><use xlink:href="#SVGID_00000137845943380119082120000001331933772886757514_" style="overflow:visible"/></clipPath><path style="clip-path:url(#SVGID_00000066490988684641631200000000428403131000384406_);fill:#fff" d="M441 350.2V348c7.9-1.8 15.3-4 22-6.5 9.3-3.5 17.1-7.5 22.6-11.7 2.8-2.1 4.9-4.3 6.5-6.5 1.2-1.8 2-3.5 2.4-5.2h-14.7l-.2-.8-19.7-65.5v-7.4l21.5 71.5h15.5l-.1 1.1c-.2 2.5-1.3 5-2.9 7.4-2.9 4.2-7.9 8.1-14.3 11.8-9.6 5.4-22.5 10.2-37 13.5-.6.3-1.1.4-1.6.5m-474.2-32.1h-18.1l.3-1.1 23.3-77.8v7.4L-48.5 316h13.7l8.8-28.5h2.2l-9.1 29.5zM234.1-9.5h-3.9c-4.8-2.8-10.4-4.4-16.4-4.4s-11.6 1.6-16.4 4.4h-3.9c5.6-4.1 12.7-6.5 20.3-6.5s14.6 2.4 20.3 6.5"/><defs><path id="SVGID_00000008113214797806383480000009758943893933700740_" d="M0-2h432v514H0z"/></defs><clipPath id="SVGID_00000129166770757713610360000005440823781637557896_"><use xlink:href="#SVGID_00000008113214797806383480000009758943893933700740_" style="overflow:visible"/></clipPath><path style="clip-path:url(#SVGID_00000129166770757713610360000005440823781637557896_);fill:#00b6c4" d="M-23.8 287.5H-26L39.2 75.4 86.5 286h-2.2L38.9 83.7zm353.1-1.5h-2.2l50.8-225.2H232.3V286h-2.1V58.7h150.4zM202 286h-2.1V60.8H52.3L102.9 286h-2.2l-51-227.3H202zm257.7-34.2L398.2 47.4h-168v-6.5l.5-.3c8.7-5.3 14.4-14.4 14.4-24.9 0-8.1-3.5-15.5-9.1-20.9-1.7-1.6-3.7-3.1-5.8-4.3h3.9c1.2.8 2.3 1.8 3.3 2.8 6.1 5.7 9.8 13.7 9.8 22.4 0 11-5.9 20.7-14.9 26.4v3.2h167.5l59.9 199.2zm-487.5-5.2v-7.4l58-194h169.7v-.7c-11.5-5-19.5-16-19.5-28.8 0-8.8 3.8-16.7 9.8-22.4 1-1 2.2-1.9 3.3-2.8h3.9c-2.1 1.2-4 2.7-5.7 4.3-5.7 5.4-9.1 12.7-9.1 20.9 0 12.1 7.7 22.6 18.9 27.1l.7.3v4.3H31.8z"/><defs><path id="SVGID_00000130637133846040782120000018182465151497319828_" d="M0-2h432v514H0z"/></defs><clipPath id="SVGID_00000181047784379723653000000014313750883164386203_"><use xlink:href="#SVGID_00000130637133846040782120000018182465151497319828_" style="overflow:visible"/></clipPath><path style="clip-path:url(#SVGID_00000181047784379723653000000014313750883164386203_);fill:#00b6c4" d="M289.5 473.1H140.4v-34.9h59.5V286h2.1v154.4h-59.5V471h144.8v-30.6h-57.2V286h2.1v152.3h57.2v34.8m106.1-117.9c-18 0-36.1-2.5-51.7-8.4-15.7-5.9-29-15.4-37.5-29.2l-1-1.6h15l6.8-30h2.2l-7.2 32.1h-12.9c8.2 12.5 20.7 21.1 35.4 26.7 15.3 5.8 33.1 8.3 51 8.3 15.7 0 31.4-1.9 45.5-5.1v2.2c-14.3 3.1-30 5-45.6 5m-285.4-37.1H91.5l-.2-1.1-7-31h2.2l6.7 30h14.3l-6.7-30h2.2l7 31z"/><defs><path id="SVGID_00000083809191237987559330000007377621890563001225_" d="M0-2h432v514H0z"/></defs><clipPath id="SVGID_00000134239291255508072300000011765981778784100515_"><use xlink:href="#SVGID_00000083809191237987559330000007377621890563001225_" style="overflow:visible"/></clipPath><path style="clip-path:url(#SVGID_00000134239291255508072300000011765981778784100515_);fill:#00b6c4" d="M456.7 287.5h-2.2L393.2 86l-46.6 200h-2.2l48.5-208.1z"/><defs><path id="SVGID_00000002350776183864706930000018351888235893754780_" d="M0-2h432v514H0z"/></defs><clipPath id="SVGID_00000041295872885829659910000004553999373548869287_"><use xlink:href="#SVGID_00000002350776183864706930000018351888235893754780_" style="overflow:visible"/></clipPath><path style="clip-path:url(#SVGID_00000041295872885829659910000004553999373548869287_);fill:#00b6c4" d="M441 318.1H336.9l.3-1.3 1 .2-1-.2 7.2-30.8h2.2l-7 30H441z"/><defs><path id="SVGID_00000026843440274344162310000012591990333648753584_" d="M0-2h432v514H0z"/></defs><clipPath id="SVGID_00000103260624490899463150000009193449231069626032_"><use xlink:href="#SVGID_00000026843440274344162310000012591990333648753584_" style="overflow:visible"/></clipPath><path style="clip-path:url(#SVGID_00000103260624490899463150000009193449231069626032_);fill:#00b6c4" d="M213.8 38.1c-6.5 0-12.4-2.5-16.7-6.5s-6.9-9.7-6.9-15.9 2.7-11.8 6.9-15.8c4.3-4 10.2-6.5 16.7-6.5s12.4 2.5 16.7 6.5 6.9 9.7 6.9 15.8c0 6.2-2.7 11.8-6.9 15.9-4.3 4-10.2 6.5-16.7 6.5m-21.5-22.4c0 5.6 2.4 10.6 6.3 14.3s9.3 6 15.2 6c6 0 11.3-2.3 15.2-6s6.3-8.7 6.3-14.3-2.4-10.6-6.3-14.3-9.3-6-15.2-6-11.3 2.3-15.2 6c-3.9 3.6-6.3 8.7-6.3 14.3"/><path style="fill:#00b6c4" d="M321.6 512H108.3v-31.9h213.3z"/><g class="st14"><path class="st15" d="M82.77 329.54c.08 0 .13-.05.13-.16l2.31-13.34-1.69-.04c.08-.55.21-1.12.31-1.64h3.09c.73 0 5.12-.03 5.69-.03.99 0 1.69 0 2.21-.03-.13 1.48-.29 3.02-.47 4.5-.52.05-1.14.08-1.69.1l-.08-2.26c0-.26-.08-.42-.49-.47-.57-.05-1.82-.13-3.54-.13-.16 0-.31.03-.44.03l-1.12 6.21c1.17 0 2.29 0 3.35-.03.52 0 .65-.18.75-.52l.34-1.17c.55-.03 1.09-.03 1.64 0-.18.88-.34 1.79-.52 2.7-.13.88-.29 1.77-.44 2.55-.55.03-1.12.03-1.66.03l.13-1.25c.03-.44-.1-.57-.57-.6-.99-.03-2.11-.03-3.3-.03l-.96 5.54 2.83.08c-.08.52-.18 1.09-.34 1.64-1.14 0-2.76-.03-4.13-.03-1.09 0-2.24.03-3.2.03l.31-1.61zm12.87-7.46c-.03-.52-.05-1.01-.05-1.53 2.05-.29 3.61-.7 3.8-.7.16 0 .73.47.88.75-.13.62-.36 1.69-.68 3.04l.23.08c1.64-2.47 3.02-3.87 3.98-3.87.62 0 1.17.23 1.43.39 0 .94-.68 2.57-1.01 2.81-.21-.08-.94-.29-1.27-.29-1.04 0-3.3 2.6-3.82 4.58-.21.86-.65 2.83-.91 3.87-.86.03-1.74.03-2.63.03.47-2.13 1.46-6.6 2-9.31z"/></g><g class="st14"><path class="st15" d="M116.2 323.95c0 2.42-1.12 4.71-2.78 6.21-.99.86-2.18 1.33-3.93 1.33-1.66 0-2.6-.7-3.12-1.33-.36-.44-.78-1.4-.78-2.44 0-2.68 1.12-4.97 2.65-6.34 1.22-1.09 2.52-1.56 4.08-1.56 1.46 0 2.34.52 2.94 1.25.44.49.94 1.51.94 2.86zm-6.13 6.09c.68 0 1.35-.36 1.82-1.04.73-.99 1.43-3.48 1.43-5.51 0-.7-.1-1.2-.31-1.56s-.57-.65-1.14-.65c-.68 0-1.3.31-1.87 1.07-.68.86-1.48 3.12-1.48 5.3 0 .73.08 1.27.31 1.72.23.39.68.68 1.22.68h.02zm7.98-7.93c-.05-.52-.05-1.04-.05-1.53 2-.31 3.54-.73 3.77-.73.21 0 .62.34.86.7-.1.68-.29 1.48-.49 2.44l.26.05c1.95-2.42 3.77-3.17 4.73-3.2.62.08 1.35.57 1.72 1.22.13.21.18.49.18.73 0 .21-.08.7-.16 1.22l.18.05c1.92-2.47 3.67-3.15 4.63-3.17.57.08 1.46.62 1.87 1.46.1.23.18.52.18.81 0 1.07-.73 4.03-1.77 7.38-.03.1 0 .18.1.18.29 0 .91-.13 1.66-.34.08.47.16.96.18 1.46-1.14.39-2.34.62-3.93.62-.13 0-.65-.49-.81-.91.42-1.38 1.01-3.67 1.27-4.73.16-.65.55-2.21.55-2.91 0-.36-.21-.73-.7-.73-1.3 0-3.69 2.89-4.06 4.45-.36 1.4-.75 3.04-1.12 4.58-.83.03-1.69.03-2.55.03.34-1.38 1.07-4.45 1.33-5.56.16-.73.49-2.34.49-2.86 0-.34-.21-.68-.62-.68-1.38 0-3.74 2.96-4.13 4.52-.26 1.04-.83 3.48-1.07 4.55-.86.03-1.72.03-2.57.03.52-2.26 1.48-6.6 2.05-9.28zm32.08 7.41 2.29.08c-.08.55-.21 1.12-.31 1.66-1.04 0-2.44-.03-3.64-.03-1.12 0-2.39.03-3.51.03.1-.55.21-1.12.31-1.64l1.85-.08c.05 0 .13-.08.13-.13l2.26-13.31c-1.64 0-2.24.03-2.83.1-.44.05-.57.21-.68.49l-.78 2.47c-.6-.03-1.25-.08-1.79-.13.29-1.56.6-3.15.94-4.71.57 0 1.46.03 2.39.03h10.11c1.22-.03 4.45-.03 4.45-.03.26 0 .34.08.29.29 0 0-1.66 6.58-2.11 8.37l.18.08c2.24-2.57 4.11-3.22 5.1-3.25.6.1 1.46.62 1.85 1.4.13.29.18.57.18.91 0 1.07-.75 4.08-1.9 7.38-.05.1 0 .21.1.21.31 0 .94-.13 1.66-.31.08.49.13.99.16 1.51-1.04.34-2.76.55-3.98.55-.18 0-.78-.52-.88-.94.44-1.35 1.2-3.82 1.48-4.94.16-.62.52-2.03.52-2.6 0-.39-.23-.75-.65-.75-1.46 0-3.98 2.76-4.39 4.32-.26.99-.91 3.67-1.14 4.65-.91.03-1.77.03-2.68.03.52-2.16 3.33-14.51 3.33-14.51.08-.42-.05-.52-.55-.52-.6-.03-3.77-.1-5.41-.1zm18.49-1.43c0-1.74.83-4.39 2.63-6.24 1.48-1.51 2.91-2 4.29-2 2.13 0 3.17 1.59 3.22 2.96-.16.96-.73 2.11-1.46 2.55-1.38.7-3.2.99-5.56.99-.16.47-.23 1.14-.23 1.51 0 1.09.62 1.77 1.69 1.77.99 0 2.63-.44 4.13-1.2.18.44.34.91.44 1.38-1.56.91-3.59 1.69-5.75 1.69-1.61 0-3.41-1.2-3.41-3.38v-.03zm6.13-6.68c-.6 0-1.12.31-1.59.88-.44.52-.86 1.27-1.2 2.6 1.2.03 2.37-.13 3.2-.55.52-.26.88-.62.88-1.3 0-.78-.42-1.64-1.27-1.64h-.02zm15.89 2.54c0 2.42-1.12 4.71-2.78 6.21-.99.86-2.18 1.33-3.93 1.33-1.66 0-2.6-.7-3.12-1.33-.36-.44-.78-1.4-.78-2.44 0-2.68 1.12-4.97 2.65-6.34 1.22-1.09 2.52-1.56 4.08-1.56 1.46 0 2.34.52 2.94 1.25.44.49.94 1.51.94 2.86zm-6.14 6.09c.68 0 1.35-.36 1.82-1.04.73-.99 1.43-3.48 1.43-5.51 0-.7-.1-1.2-.31-1.56s-.57-.65-1.14-.65c-.68 0-1.3.31-1.87 1.07-.68.86-1.48 3.12-1.48 5.3 0 .73.08 1.27.31 1.72.23.39.68.68 1.22.68h.02zm8.06-7.96c-.03-.52-.05-1.01-.05-1.53 2.05-.29 3.61-.7 3.8-.7.16 0 .73.47.88.75-.13.62-.36 1.69-.68 3.04l.23.08c1.64-2.47 3.02-3.87 3.98-3.87.62 0 1.17.23 1.43.39 0 .94-.68 2.57-1.01 2.81-.21-.08-.94-.29-1.27-.29-1.04 0-3.3 2.6-3.82 4.58-.21.86-.65 2.83-.91 3.87-.86.03-1.74.03-2.63.03.47-2.13 1.46-6.6 2-9.31z"/></g><g class="st14"><path class="st15" d="M204.95 322.32c-.08-.52-.13-1.01-.18-1.51 1.79-.44 3.56-.96 3.72-.96.18 0 .75.39 1.04.78.29 2.86.75 6.81 1.04 9.18h.18c.62-1.12 1.07-1.92 1.51-2.99.6-1.46 1.35-3.64 1.35-4.81 0-.13-.08-.23-.21-.23l-1.33.1c-.05-.52-.08-1.04-.08-1.53 1.33-.21 2.83-.47 3.2-.47.23 0 1.01.81 1.01 1.04 0 1.74-1.59 5.28-2.63 7.12-1.2 2.21-3.3 5.17-5.25 7.28-1.27 1.35-2.73 2.44-3.02 2.44-.47 0-1.72-1.09-1.79-1.85.99-.42 1.82-.91 2.6-1.46s1.82-1.48 2.34-2.26c-.44-2.34-1.2-7.15-1.64-10.17zm20.82 6.29c0 .6.42.91 1.09.91.86 0 1.9-.18 2.94-.42.05.49.05 1.04.05 1.53-1.61.52-3.35.83-4.58.83-.7 0-1.85-.65-2.24-1.66a2.7 2.7 0 0 1-.08-.57c0-.7.6-3.48.73-4.11.18-.81.57-2.57.7-3.2h-2.08c.1-.52.21-1.09.34-1.61.62-.03 1.35-.08 1.95-.1.08-.03.18-.08.21-.21.21-.75.44-1.64.62-2.37.99-.42 2.18-.62 2.6-.62.05 0 .08.05.08.1-.16.7-.47 2.18-.68 3.07 1.27 0 2.6 0 3.82-.03-.08.57-.21 1.25-.36 1.79-1.07 0-2.52-.03-3.82-.03-.13.62-.42 1.87-.6 2.73-.23 1.12-.7 3.25-.7 3.93v.04zm16.43-4.66c0 2.42-1.12 4.71-2.78 6.21-.99.86-2.18 1.33-3.93 1.33-1.66 0-2.6-.7-3.12-1.33-.36-.44-.78-1.4-.78-2.44 0-2.68 1.12-4.97 2.65-6.34 1.22-1.09 2.52-1.56 4.08-1.56 1.46 0 2.34.52 2.94 1.25.44.49.94 1.51.94 2.86zm-6.13 6.09c.68 0 1.35-.36 1.82-1.04.73-.99 1.43-3.48 1.43-5.51 0-.7-.1-1.2-.31-1.56s-.57-.65-1.14-.65c-.68 0-1.3.31-1.87 1.07-.68.86-1.48 3.12-1.48 5.3 0 .73.08 1.27.31 1.72.23.39.68.68 1.22.68h.02zm14.04-.5c.08 0 .13-.05.13-.13l2.29-13.34-1.59-.05c.1-.55.21-1.12.31-1.64 1.38-.03 3.02-.05 4.65-.05 1.69 0 2.68.05 3.93.55 1.87.73 2.63 2.42 2.63 4.08 0 2.63-1.79 4.6-3.64 5.38-1.3.55-2.52.68-3.72.68-.49 0-1.07-.03-1.3-.05l-.81 4.58 2.63.05c-.08.52-.18 1.12-.31 1.64h-6.94l.31-1.61zm4.03-6.47c-.03.21.52.23 1.09.23.94 0 1.82-.18 2.5-.6 1.07-.62 1.82-1.92 1.82-3.56 0-1.69-.86-3.2-3.12-3.2-.52 0-.88.03-1.04.08z"/></g><g class="st14"><path class="st15" d="M265.58 322.08c-.03-.52-.05-1.01-.05-1.53 2.05-.29 3.61-.7 3.8-.7.16 0 .73.47.88.75-.13.62-.36 1.69-.68 3.04l.23.08c1.64-2.47 3.02-3.87 3.98-3.87.62 0 1.17.23 1.43.39 0 .94-.68 2.57-1.01 2.81-.21-.08-.94-.29-1.27-.29-1.04 0-3.3 2.6-3.82 4.58-.21.86-.65 2.83-.91 3.87-.86.03-1.74.03-2.63.03.47-2.13 1.46-6.6 2-9.31zm16.3 6.32c-2.26 2.44-3.87 3.15-4.78 3.17-.6-.1-1.61-.73-2.03-1.53-.18-.34-.26-.73-.26-1.17 0-.86.29-2.37.75-3.69.75-2.05 2.68-5.33 5.3-5.33 1.04 0 1.9.42 2.65 1.17h.16l.6-1.35c.73.18 1.46.39 2.13.62-.68 2.42-1.77 6.76-2.29 9.23-.03.1.05.16.13.16.18 0 .83-.13 1.61-.36.1.49.18.99.23 1.51-1.14.39-2.57.65-3.64.65-.1 0-.65-.36-.81-.7.05-.42.26-1.35.47-2.31zm-.68-6.71c-1.14 0-2.11 1.53-2.63 2.78-.6 1.38-.96 2.94-.96 3.98 0 .62.31 1.01.7 1.01 1.04 0 3.56-2.52 3.95-3.69.18-.47.6-2.18.78-3.07a2.11 2.11 0 0 0-1.82-1.01z"/></g><g class="st14"><path class="st15" d="M288.38 327.78c0-1.64.73-4.19 2.52-5.98 1.48-1.48 2.96-1.95 4.79-1.95 1.07 0 1.9.34 2.13.55-.05.68-.88 1.95-1.3 2.16-.23-.13-1.35-.78-2.08-.78s-1.33.42-1.72.94c-.78 1.07-1.43 3.07-1.43 4.58 0 1.64.73 2.34 1.87 2.34.78 0 2.13-.39 3.12-.75.16.44.29.91.39 1.4-1.12.52-3.02 1.22-4.52 1.22-1.95 0-3.77-1.27-3.77-3.69zm13.8.83c0 .6.42.91 1.09.91.86 0 1.9-.18 2.94-.42.05.49.05 1.04.05 1.53-1.61.52-3.35.83-4.58.83-.7 0-1.85-.65-2.24-1.66a2.7 2.7 0 0 1-.08-.57c0-.7.6-3.48.73-4.11.18-.81.57-2.57.7-3.2h-2.08c.1-.52.21-1.09.34-1.61.62-.03 1.35-.08 1.95-.1.08-.03.18-.08.21-.21.21-.75.44-1.64.62-2.37.99-.42 2.18-.62 2.6-.62.05 0 .08.05.08.1-.16.7-.47 2.18-.68 3.07 1.27 0 2.6 0 3.82-.03-.08.57-.21 1.25-.36 1.79-1.07 0-2.52-.03-3.82-.03-.13.62-.42 1.87-.6 2.73-.23 1.12-.7 3.25-.7 3.93v.04zm6.27-6.55c-.03-.52-.03-1.04-.03-1.53 2.03-.26 3.93-.68 4.24-.68.18 0 .75.52.91.83-.55 2.39-1.77 7.75-2.05 8.89-.03.1 0 .18.1.18.31 0 1.01-.13 1.82-.36.08.52.16 1.01.21 1.51-1.12.34-2.42.57-3.93.57-.18 0-.88-.57-1.04-.96.57-2.57 1.35-5.98 1.9-8.5zm4.5-7.6c1.14 0 1.61.88 1.61 1.56 0 1.01-.86 1.77-1.74 1.77-1.04 0-1.72-.81-1.72-1.64 0-.86.75-1.69 1.82-1.69zm2.47 13.32c0-1.64.73-4.19 2.52-5.98 1.48-1.48 2.96-1.95 4.79-1.95 1.07 0 1.9.34 2.13.55-.05.68-.88 1.95-1.3 2.16-.23-.13-1.35-.78-2.08-.78s-1.33.42-1.72.94c-.78 1.07-1.43 3.07-1.43 4.58 0 1.64.73 2.34 1.87 2.34.78 0 2.13-.39 3.12-.75.16.44.29.91.39 1.4-1.12.52-3.02 1.22-4.52 1.22-1.95 0-3.77-1.27-3.77-3.69z"/></g><g class="st14"><path class="st15" d="M326.21 328.09c0-1.74.83-4.39 2.63-6.24 1.48-1.51 2.91-2 4.29-2 2.13 0 3.17 1.59 3.22 2.96-.16.96-.73 2.11-1.46 2.55-1.38.7-3.2.99-5.56.99-.16.47-.23 1.14-.23 1.51 0 1.09.62 1.77 1.69 1.77.99 0 2.63-.44 4.13-1.2.18.44.34.91.44 1.38-1.56.91-3.59 1.69-5.75 1.69-1.61 0-3.41-1.2-3.41-3.38v-.03zm6.14-6.68c-.6 0-1.12.31-1.59.88-.44.52-.86 1.27-1.2 2.6 1.2.03 2.37-.13 3.2-.55.52-.26.88-.62.88-1.3 0-.78-.42-1.64-1.27-1.64h-.02z"/></g><path d="M235.96 553.96c.02-.34.02-.67.03-1.01.98-.02 2.19-.03 3.33-.03.93 0 1.43.02 2.27.24 1.2.29 2.1 1.39 2.1 2.48 0 1.38-.91 2.37-2.1 2.83v.08c.74.34 1.12 1.25 1.9 2.79.38.75.51.91.71.93l.9.06c0 .32-.02.66-.02.99-.29 0-.79 0-1.12.02-.3 0-1.18.02-1.44.02-.5-.74-1.38-2.77-1.81-3.55-.3-.53-.62-.72-1.23-.72-.45 0-.62.02-.69.03l-.02 3.19 1.15.05c0 .32-.02.66-.02.99h-3.95c.02-.34.02-.67.02-.99l.93-.05c.03 0 .06-.02.06-.05V554zm2.84 4.12c.08.03.3.03.66.03 1.63 0 2.32-1.04 2.32-2.05 0-1.36-.93-2.16-2.19-2.16-.42 0-.66.02-.75.06zm6.64-.37c-.02-.3 0-.66 0-.96.77-.08 2.79-.42 2.93-.42.02 0 .02.02.02.05 0 1.75-.03 4.29-.03 5.95l1.03.03c0 .32 0 .66-.02.96h-1.95c-.59 0-1.3.02-1.89.02 0-.32 0-.66.02-.96l.98-.05c.05 0 .06-.03.06-.06v-4.51zm1.93-4.8c.74 0 1.06.54 1.06 1.02 0 .66-.5 1.1-1.12 1.1-.58 0-1.09-.46-1.09-1.07 0-.54.43-1.06 1.14-1.06h.01zm2.85 7.44c0-2.27 1.68-4.02 4.19-4.02.64 0 1.3.16 1.6.35 0 .35-.4 1.18-.66 1.33-.16-.06-.88-.43-1.52-.43-.51 0-.88.16-1.17.54-.32.42-.56 1.02-.56 1.9 0 .83.19 1.34.54 1.78.34.4.86.5 1.3.5.62 0 1.41-.26 1.92-.45.08.29.18.64.22.94-.94.48-2.05.7-2.72.7-1.71 0-3.15-1.15-3.15-3.14zm9.35-3.12c1.65-.85 1.95-.9 2.56-.9.74 0 1.46.59 1.83 1.22.18.3.22.7.22 1.18 0 1.12-.02 2.42-.03 3.6l.96.03c0 .32-.02.66-.02.96h-1.78c-.59 0-1.26.02-1.81.02 0-.3 0-.64.02-.96l.78-.05c.03 0 .05-.03.05-.06v-2.67c0-.72 0-1.18-.19-1.5-.22-.35-.56-.43-.85-.43-.54 0-1.25.32-1.79.71-.02 1.14-.03 2.86-.03 3.97l1.01.03c0 .32 0 .66-.02.96h-1.95c-.56 0-1.22.02-1.76.02v-.96l.86-.05c.03 0 .06-.03.06-.06v-8.76l-1.14-.02c0-.32 0-.67.02-.96.75-.08 2.79-.4 2.93-.4.03 0 .05.02.05.06 0 1.42-.03 3.31-.06 5.01zm10.56 5.55c-1.09.56-1.76.72-2.34.72-.82 0-1.92-.74-1.92-1.7 0-.9 1.01-2.26 3.31-2.26h.98c.05-1.31-.32-1.9-1.18-1.9-.62 0-1.38.46-1.97.99-.22-.26-.46-.54-.67-.83.88-.78 1.91-1.47 3.28-1.47 1.22 0 2.29.91 2.29 2.51 0 .88-.03 2.62-.03 3.3 0 .14.03.21.11.19l.98-.03c0 .29.02.64 0 .94-.24.08-1.23.26-2.19.26-.16-.14-.34-.4-.56-.72zm-2.44-1.15c0 .43.43.74.93.74.45 0 1.02-.21 1.49-.53.03-.03.03-.06.03-.11v-1.26c-.08 0-.34-.02-.66-.02-1.26 0-1.79.54-1.79 1.17zm5.94-3.94c0-.32 0-.64.02-.94.69-.1 2.54-.42 2.62-.42.02 0 .03.02.03.05.03.53.06 1.31.1 2.1l.1.02c.94-1.84 1.42-2.18 2.16-2.18.37 0 .77.08 1.04.19 0 .51-.35 1.46-.58 1.67-.14-.03-.58-.14-.91-.14-.16 0-.3.05-.5.19-.3.24-.59.64-.96 1.34-.19.37-.26.91-.26 1.41-.02.43-.02.96-.02 1.36l1.42.05c0 .29 0 .64-.02.94h-2.21c-.61 0-1.33.02-1.9.02 0-.3 0-.66.02-.96l.85-.03c.03-.02.06-.03.06-.06v-4.58zm11.51 5.09c-1.38.67-1.73.72-2.21.72-.7 0-1.39-.24-1.92-.77-.59-.59-.94-1.41-.94-2.45 0-1.12.4-2.16 1.14-2.96.56-.62 1.41-.99 2.3-.99.58 0 1.1.13 1.5.26l.08-.05c0-1.01-.02-1.98-.03-2.99l-1.28-.03c0-.32 0-.66.02-.96.86-.1 2.9-.42 3.07-.42.02 0 .03.02.03.05 0 2.74-.05 6.85-.05 9.88 0 .16.03.26.14.26l.98-.05v.94c-.24.1-1.39.29-2.21.29-.21-.14-.37-.37-.53-.72h-.09zm-.08-1.2v-3.78c-.37-.19-.82-.34-1.31-.34s-.98.21-1.26.62c-.32.46-.5 1.06-.5 1.98 0 .74.13 1.25.43 1.68.26.35.67.56 1.09.56.53 0 .99-.18 1.47-.48.06-.05.08-.11.08-.24m10.3.71c.06 0 .08-.03.08-.08v-2.82c-.83-1.47-2.07-3.76-2.91-5.33-.02-.03-.05-.06-.08-.06l-.75-.05c0-.32 0-.69.02-.99h1.76c.86 0 1.78-.02 2.5-.02 0 .32 0 .69-.02 1.01l-1.23.06c.53 1.17 1.41 2.93 2.05 4.18h.08c.58-1.06 1.62-3.07 2.06-4.11.02-.03-.02-.06-.05-.06l-1.12-.05c0-.32 0-.69.02-1.01h2.11c.46 0 .99-.02 1.39-.02 0 .32 0 .69-.02 1.01l-.77.05c-.9 1.5-2.18 3.78-3.15 5.36l-.02 2.91 1.34.05c0 .34 0 .69-.02 1.02-.62 0-1.49-.02-2.24-.02-.69 0-1.5.02-2.21.02 0-.34 0-.69.02-1.01zm5.36-2.05c0-2.16 1.46-3.91 3.67-3.91.91 0 1.58.32 2 .83.5.59.7 1.39.7 2.24-.05.21-.53.72-.69.74-.71.05-2.62.05-3.81.05 0 .74.18 1.25.48 1.58.43.46.91.53 1.47.53.71 0 1.63-.27 2.16-.48.1.3.19.67.24.98-.91.43-2.07.7-2.79.7-2.1 0-3.44-1.22-3.44-3.25v-.01zm3.42-2.91c-.43 0-.75.14-1.01.46-.21.27-.5.71-.51 1.44.77 0 1.84-.02 2.58-.05.11 0 .18-.06.18-.18 0-.45-.14-.93-.32-1.2-.21-.29-.5-.48-.9-.48h-.02zm6.7 6.17c-.37 0-.8-.06-1.22-.45-.48-.4-.5-.77-.5-1.25 0-.85.02-1.9.02-2.22 0-.42.02-1.66.02-1.95h-1.1c0-.34 0-.71.03-1.02.34-.02.7-.05 1.02-.06.05 0 .11-.05.11-.11.02-.45.05-.99.08-1.42.58-.32 1.62-.67 1.66-.67.02 0 .03.02.03.05 0 .46-.02 1.58-.03 2.16.82 0 1.71-.02 2.5-.02 0 .35-.03.77-.05 1.12-.72 0-1.63-.02-2.46-.02v1.6c-.02.66-.02 1.44-.02 2.21 0 .58.43.86.91.86s1.09-.11 1.62-.24c.06.3.11.66.14.98-.9.32-1.92.46-2.75.46h-.01zm6.16 0c-.37 0-.8-.06-1.22-.45-.48-.4-.5-.77-.5-1.25 0-.85.02-1.9.02-2.22 0-.42.02-1.66.02-1.95h-1.1c0-.34 0-.71.03-1.02.34-.02.7-.05 1.02-.06.05 0 .11-.05.11-.11.02-.45.05-.99.08-1.42.58-.32 1.62-.67 1.66-.67.02 0 .03.02.03.05 0 .46-.02 1.58-.03 2.16.82 0 1.71-.02 2.5-.02 0 .35-.03.77-.05 1.12-.72 0-1.63-.02-2.46-.02v1.6c-.02.66-.02 1.44-.02 2.21 0 .58.43.86.91.86s1.09-.11 1.62-.24c.06.3.11.66.14.98-.9.32-1.92.46-2.75.46H317zm3.47-3.26c0-2.16 1.46-3.91 3.67-3.91.91 0 1.58.32 2 .83.5.59.7 1.39.7 2.24-.05.21-.53.72-.69.74-.71.05-2.62.05-3.81.05 0 .74.18 1.25.48 1.58.43.46.91.53 1.47.53.71 0 1.63-.27 2.16-.48.1.3.19.67.24.98-.91.43-2.07.7-2.79.7-2.1 0-3.44-1.22-3.44-3.25v-.01zm3.43-2.91c-.43 0-.75.14-1.01.46-.21.27-.5.71-.51 1.44.77 0 1.84-.02 2.58-.05.11 0 .18-.06.18-.18 0-.45-.14-.93-.32-1.2-.21-.29-.5-.48-.9-.48h-.02zm3.93.36c0-.32 0-.64.02-.94.69-.1 2.54-.42 2.62-.42.02 0 .03.02.03.05.03.53.06 1.31.1 2.1l.1.02c.94-1.84 1.42-2.18 2.16-2.18.37 0 .77.08 1.04.19 0 .51-.35 1.46-.58 1.67-.14-.03-.58-.14-.91-.14-.16 0-.3.05-.5.19-.3.24-.59.64-.96 1.34-.19.37-.26.91-.26 1.41-.02.43-.02.96-.02 1.36l1.42.05c0 .29 0 .64-.02.94h-2.21c-.61 0-1.33.02-1.91.02 0-.3 0-.66.02-.96l.85-.03c.03-.02.06-.03.06-.06v-4.58zm10.38 1.04c0-2.23.99-3.78 2.16-4.72 1.11-.9 2.5-1.23 3.76-1.23.93 0 1.68.13 2.07.29.08.98.14 1.97.19 2.95-.38.06-.82.11-1.23.16l-.3-1.7c-.03-.11-.06-.19-.13-.22-.27-.18-.62-.26-1.07-.26-.74 0-1.5.26-2.11.86-.8.83-1.28 2-1.28 3.44 0 1.38.26 2.27.96 3.01.54.58 1.46.91 2.34.91.87 0 2.03-.3 2.69-.58.1.34.18.77.22 1.1-1.12.45-2.38.75-3.28.75-1.15 0-2.32-.29-3.22-.96-1.02-.77-1.76-2.13-1.76-3.79v-.01zm12.24-1.5c1.65-.85 1.95-.9 2.56-.9.74 0 1.46.59 1.83 1.22.18.3.22.7.22 1.18 0 1.12-.02 2.42-.03 3.6l.96.03c0 .32-.02.66-.02.96h-1.78c-.59 0-1.26.02-1.81.02 0-.3 0-.64.02-.96l.79-.05c.03 0 .05-.03.05-.06v-2.67c0-.72 0-1.18-.19-1.5-.22-.35-.56-.43-.85-.43-.54 0-1.25.32-1.79.71-.02 1.14-.03 2.86-.03 3.97l1.01.03c0 .32 0 .66-.02.96h-1.95c-.56 0-1.22.02-1.76.02v-.96l.87-.05c.03 0 .06-.03.06-.06v-8.76l-1.14-.02c0-.32 0-.67.02-.96.75-.08 2.79-.4 2.93-.4.03 0 .05.02.05.06 0 1.42-.03 3.31-.06 5.01zm10.56 5.55c-1.09.56-1.76.72-2.34.72-.82 0-1.92-.74-1.92-1.7 0-.9 1.01-2.26 3.31-2.26h.98c.05-1.31-.32-1.9-1.18-1.9-.62 0-1.38.46-1.97.99-.22-.26-.46-.54-.67-.83.88-.78 1.9-1.47 3.28-1.47 1.22 0 2.29.91 2.29 2.51 0 .88-.03 2.62-.03 3.3 0 .14.03.21.11.19l.98-.03c0 .29.02.64 0 .94-.24.08-1.23.26-2.19.26-.16-.14-.34-.4-.56-.72zm-2.43-1.15c0 .43.43.74.93.74.45 0 1.02-.21 1.49-.53.03-.03.03-.06.03-.11v-1.26c-.08 0-.34-.02-.66-.02-1.26 0-1.79.54-1.79 1.17zm8.65-4.4c1.58-.85 1.81-.9 2.46-.9 1.5-.02 2.54 1.58 2.53 3.09 0 .75-.14 1.41-.43 2.05a3.67 3.67 0 0 1-1.25 1.55c-.34.24-1.07.48-1.75.48-.66 0-1.12-.11-1.54-.3l-.08.03v2.79l1.41.03c0 .32 0 .66-.02.96-.67 0-1.52 0-2.29.02-.58 0-1.26 0-1.81.02 0-.3 0-.64.02-.94l.86-.06c.03 0 .05-.05.05-.08l.02-8.21-1.14-.02c0-.3.02-.64.03-.93.67-.1 2.54-.48 2.64-.48.03 0 .03.02.03.05.05.27.1.58.14.85zm3.08 2.67c0-.66-.08-1.18-.3-1.58-.21-.35-.59-.64-1.06-.64-.48 0-1.12.21-1.7.62-.02 1.07-.03 2.42-.03 3.44 0 .34.75.7 1.34.7.4 0 .85-.14 1.15-.5.37-.42.59-1.07.59-2.03v-.01zm5.64-2.67c1.58-.85 1.81-.9 2.46-.9 1.5-.02 2.54 1.58 2.53 3.09 0 .75-.14 1.41-.43 2.05a3.67 3.67 0 0 1-1.25 1.55c-.34.24-1.07.48-1.74.48-.66 0-1.12-.11-1.54-.3l-.08.03v2.79l1.41.03c0 .32 0 .66-.02.96-.67 0-1.52 0-2.29.02-.58 0-1.26 0-1.81.02 0-.3 0-.64.02-.94l.86-.06c.03 0 .05-.05.05-.08l.02-8.21-1.14-.02c0-.3.02-.64.03-.93.67-.1 2.54-.48 2.64-.48.03 0 .03.02.03.05.05.27.1.58.14.85zm3.08 2.67c0-.66-.08-1.18-.3-1.58-.21-.35-.59-.64-1.06-.64-.48 0-1.12.21-1.7.62-.02 1.07-.03 2.42-.03 3.44 0 .34.75.7 1.34.7.4 0 .85-.14 1.15-.5.37-.42.59-1.07.59-2.03v-.01zm3.13.34c0-2.16 1.46-3.91 3.67-3.91.91 0 1.58.32 2 .83.5.59.7 1.39.7 2.24-.05.21-.53.72-.69.74-.7.05-2.62.05-3.81.05 0 .74.18 1.25.48 1.58.43.46.91.53 1.47.53.7 0 1.63-.27 2.16-.48.1.3.19.67.24.98-.91.43-2.07.7-2.79.7-2.1 0-3.44-1.22-3.44-3.25v-.01zm3.42-2.91c-.43 0-.75.14-1.01.46-.21.27-.5.71-.51 1.44.77 0 1.84-.02 2.58-.05.11 0 .18-.06.18-.18 0-.45-.14-.93-.32-1.2-.21-.29-.5-.48-.9-.48h-.02zm3.62-3.83c0-.32.02-.66.03-.96.77-.08 2.83-.4 2.98-.4.03 0 .05.02.05.06-.02 2.79-.05 7.03-.06 10.13l1.1.03v.96h-2.02c-.62 0-1.34.02-1.94.02 0-.3.02-.66.02-.96l.98-.05c.03 0 .06-.03.06-.06v-8.74zm4.46 0c0-.32.02-.66.03-.96.77-.08 2.83-.4 2.98-.4.03 0 .05.02.05.06-.02 2.79-.05 7.03-.06 10.13l1.1.03v.96h-2.02c-.62 0-1.34.02-1.94.02 0-.3.02-.66.02-.96l.98-.05c.03 0 .06-.03.06-.06v-8.74zM288 587.32c.03 0 .06-.03.06-.06V579l-1.07-.03c0-.35 0-.69.02-1.01.99-.02 2.27-.03 3.55-.03 1.84 0 2.93.26 3.83.78 1.33.75 2.29 2.3 2.29 4.07 0 2.03-.83 3.7-2.15 4.63-.94.67-2.24.96-3.65.96-.58 0-1.42-.02-1.89-.02-.62 0-1.38.02-2 .02 0-.32 0-.67.02-.99zm1.94-.42c0 .35.14.48.88.48 1.09 0 2-.29 2.67-.88.74-.69 1.17-1.97 1.17-3.19 0-1.73-.4-2.71-1.34-3.57-.64-.58-1.54-.85-2.58-.85-.34 0-.62.02-.77.06zm11.94.88c-1.09.56-1.76.72-2.34.72-.82 0-1.92-.74-1.92-1.7 0-.9 1.01-2.26 3.31-2.26h.98c.05-1.31-.32-1.9-1.18-1.9-.62 0-1.38.46-1.97.99-.22-.26-.46-.54-.67-.83.88-.78 1.91-1.47 3.28-1.47 1.22 0 2.29.91 2.29 2.51 0 .88-.03 2.62-.03 3.3 0 .14.03.21.11.19l.98-.03c0 .29.02.64 0 .94-.24.08-1.23.26-2.19.26-.16-.14-.34-.4-.56-.72zm-2.44-1.15c0 .43.43.74.93.74.45 0 1.02-.21 1.49-.53.03-.03.03-.06.03-.11v-1.26c-.08 0-.34-.02-.66-.02-1.26 0-1.79.54-1.79 1.17zm5.94-3.94c0-.32 0-.64.02-.94.69-.1 2.54-.42 2.62-.42.02 0 .03.02.03.05.03.53.06 1.31.1 2.1l.1.02c.94-1.84 1.42-2.18 2.16-2.18.37 0 .77.08 1.04.19 0 .51-.35 1.46-.58 1.67-.14-.03-.58-.14-.91-.14-.16 0-.3.05-.5.19-.3.24-.59.64-.96 1.34-.19.37-.26.91-.26 1.41-.02.43-.02.96-.02 1.36l1.42.05c0 .29 0 .64-.02.94h-2.21c-.61 0-1.33.02-1.91.02 0-.3 0-.66.02-.96l.85-.03c.03-.02.06-.03.06-.06v-4.58zm6.64.02c-.02-.3 0-.66 0-.96.77-.08 2.79-.42 2.93-.42.02 0 .02.02.02.05 0 1.75-.03 4.29-.03 5.95l1.02.03c0 .32 0 .66-.02.96h-1.95c-.59 0-1.3.02-1.89.02 0-.32 0-.66.02-.96l.98-.05c.05 0 .06-.03.06-.06v-4.51zm1.94-4.8c.74 0 1.06.54 1.06 1.02 0 .66-.5 1.1-1.12 1.1-.58 0-1.09-.46-1.09-1.07 0-.54.43-1.06 1.14-1.06h.01zm7.96 9.76c-1.38.78-1.7.83-2.34.83-1.04 0-2.11-1.18-2.11-2.21 0-1.33.02-2.62.02-3.73l-.87-.02c0-.32.02-.67.03-.99.61-.03 2.42-.08 2.61-.1.03 0 .05.05.05.06-.02 1.17-.05 2.51-.05 3.78 0 .58-.02 1.09.22 1.46.24.38.54.48.9.48.45 0 .99-.22 1.5-.61.02-1.22 0-2.96 0-4.07l-.93-.03c0-.34.02-.69.02-1.01.59-.02 2.5-.05 2.72-.05.02 0 .02.03.02.06 0 1.75-.03 3.73-.03 5.59 0 .13.03.18.1.18l.99-.02c0 .3 0 .64-.02.94-.18.08-1.3.27-2.15.27-.19-.16-.38-.43-.61-.83h-.07zm4.91-.65c.03.08.05.13.13.19.26.18.64.29 1.01.29s.67-.02.94-.19c.22-.13.42-.35.42-.72 0-.64-.35-.75-1.57-1.1-1.36-.4-1.95-.99-1.95-1.94 0-.83.58-1.47 1.17-1.78.48-.26 1.17-.43 2.05-.43.86 0 1.5.16 1.71.26.08.64.14 1.28.19 1.92-.32.05-.7.11-1.07.16l-.24-.94c-.02-.06-.05-.14-.1-.18-.21-.14-.51-.21-.82-.21-.3 0-.62.08-.82.22-.19.13-.35.35-.35.72 0 .51.29.62 1.54.99 1.15.32 2 .72 2 1.97 0 .78-.43 1.44-1.19 1.86-.46.26-1.25.4-2.13.4-.82 0-1.57-.13-2-.29l-.24-1.99c.34-.08.72-.14 1.07-.19zm9.25-8.02c0-.34.02-.72.03-1.06h3.31c.77 1.92 1.87 4.96 2.88 7.6h.11c.96-2.53 2.03-5.41 2.9-7.6h3.11c0 .32 0 .7-.02 1.04l-.93.05c-.03 0-.05.03-.05.08 0 2.5.02 5.55.03 8.2l1.01.03c.02.32 0 .69-.02 1.01h-3.86c0-.32.02-.69.02-.99l1.09-.05c.05 0 .06-.03.06-.06-.02-2.11-.03-4.64-.05-6.93h-.11c-1.23 3.33-2.22 5.65-3.06 7.49-.18 0-.59.02-.99.02-.91-2.05-1.9-4.51-3.02-7.63h-.13c-.03 2.34-.06 4.83-.1 7.11l1.3.05c0 .32-.02.69-.02 1.01H336c-.02-.32 0-.69 0-.99l.96-.05c.05-.02.06-.03.06-.06.02-2.51.05-5.73.06-8.21zm13.67 6.24c0-2.16 1.46-3.91 3.67-3.91.91 0 1.58.32 2 .83.5.59.7 1.39.7 2.24-.05.21-.53.72-.69.74-.71.05-2.62.05-3.81.05 0 .74.18 1.25.48 1.58.43.46.91.53 1.47.53.71 0 1.63-.27 2.16-.48.1.3.19.67.24.98-.91.43-2.07.7-2.79.7-2.1 0-3.44-1.22-3.44-3.25v-.01zm3.42-2.91c-.43 0-.75.14-1.01.46-.21.27-.5.71-.51 1.44.77 0 1.84-.02 2.58-.05.11 0 .18-.06.18-.18 0-.45-.14-.93-.32-1.2-.21-.29-.5-.48-.9-.48h-.02zm3.89.38c-.02-.3 0-.66 0-.96.77-.08 2.79-.42 2.93-.42.02 0 .02.02.02.05 0 1.75-.03 4.29-.03 5.95l1.02.03c0 .32 0 .66-.02.96h-1.95c-.59 0-1.3.02-1.89.02 0-.32 0-.66.02-.96l.98-.05c.05 0 .06-.03.06-.06v-4.51zm1.93-4.8c.74 0 1.06.54 1.06 1.02 0 .66-.5 1.1-1.12 1.1-.58 0-1.09-.46-1.09-1.07 0-.54.43-1.06 1.14-1.06h.01zm4.12 9.11c.03.08.05.13.13.19.26.18.64.29 1.01.29s.67-.02.94-.19c.22-.13.42-.35.42-.72 0-.64-.35-.75-1.57-1.1-1.36-.4-1.95-.99-1.95-1.94 0-.83.58-1.47 1.17-1.78.48-.26 1.17-.43 2.05-.43.86 0 1.5.16 1.71.26.08.64.14 1.28.19 1.92-.32.05-.71.11-1.07.16l-.24-.94c-.02-.06-.05-.14-.1-.18-.21-.14-.51-.21-.82-.21s-.62.08-.82.22c-.19.13-.35.35-.35.72 0 .51.29.62 1.54.99 1.15.32 2 .72 2 1.97 0 .78-.43 1.44-1.18 1.86-.46.26-1.25.4-2.13.4-.82 0-1.57-.13-2-.29l-.24-1.99c.34-.08.72-.14 1.07-.19zm6.71 0c.03.08.05.13.13.19.26.18.64.29 1.01.29s.67-.02.95-.19c.22-.13.42-.35.42-.72 0-.64-.35-.75-1.57-1.1-1.36-.4-1.95-.99-1.95-1.94 0-.83.58-1.47 1.17-1.78.48-.26 1.17-.43 2.05-.43.86 0 1.5.16 1.71.26.08.64.14 1.28.19 1.92-.32.05-.7.11-1.07.16l-.24-.94c-.02-.06-.05-.14-.1-.18-.21-.14-.51-.21-.82-.21-.3 0-.62.08-.82.22-.19.13-.35.35-.35.72 0 .51.29.62 1.54.99 1.15.32 2 .72 2 1.97 0 .78-.43 1.44-1.18 1.86-.46.26-1.25.4-2.13.4-.82 0-1.57-.13-2-.29l-.24-1.99c.34-.08.72-.14 1.07-.19zm5.3-4.31c0-.3.02-.64.02-.93.7-.08 2.54-.43 2.64-.43.03 0 .03.02.03.05.06.32.14.69.19.96l.08.02c1.58-.96 1.94-1.04 2.64-1.04.77 0 1.38.59 1.7 1.1.26.45.32.88.32 1.28 0 1.06-.03 2.5-.05 3.62l.93.03c0 .3 0 .66-.02.96h-1.84c-.58 0-1.23.02-1.73.02v-.96l.82-.05c.03 0 .05-.03.06-.06v-2.58c0-.69 0-1.2-.18-1.5-.24-.45-.56-.5-.9-.5-.48 0-1.23.35-1.74.77-.03 1.1-.05 2.82-.05 3.87l.96.03c0 .32-.02.66-.02.96h-1.89c-.58 0-1.25.02-1.79.02 0-.3 0-.66.02-.96l.88-.05c.03 0 .05-.03.05-.06v-4.53zm9.42 2.53c0-2.16 1.46-3.91 3.67-3.91.91 0 1.58.32 2 .83.5.59.7 1.39.7 2.24-.05.21-.53.72-.69.74-.71.05-2.62.05-3.81.05 0 .74.18 1.25.48 1.58.43.46.91.53 1.47.53.71 0 1.63-.27 2.16-.48.1.3.19.67.24.98-.91.43-2.07.7-2.79.7-2.1 0-3.44-1.22-3.44-3.25v-.01zm3.43-2.91c-.43 0-.75.14-1.01.46-.21.27-.5.71-.51 1.44.77 0 1.84-.02 2.58-.05.11 0 .18-.06.18-.18 0-.45-.14-.93-.32-1.2-.21-.29-.5-.48-.9-.48h-.02zm3.93.36c0-.32 0-.64.02-.94.69-.1 2.54-.42 2.62-.42.02 0 .03.02.03.05.03.53.06 1.31.1 2.1l.1.02c.94-1.84 1.42-2.18 2.16-2.18.37 0 .77.08 1.04.19 0 .51-.35 1.46-.58 1.67-.14-.03-.58-.14-.91-.14-.16 0-.3.05-.5.19-.3.24-.59.64-.96 1.34-.19.37-.26.91-.26 1.41-.02.43-.02.96-.02 1.36l1.42.05c0 .29 0 .64-.02.94h-2.21c-.61 0-1.33.02-1.9.02 0-.3 0-.66.02-.96l.85-.03c.03-.02.06-.03.06-.06v-4.58zM286.84 604c-.4 1.52-.77 2.85-1.12 4.19-.43 1.67-.99 3.59-1.52 5.3-.21.02-.8.02-1.5.02-.7-2.18-1.41-4.47-2.1-6.95h-.08c-.8 2.43-1.68 4.9-2.42 6.93-.24.02-.9.02-1.49.02-.46-1.87-.88-3.65-1.3-5.46-.29-1.3-.58-2.66-.86-3.99 0-.05-.03-.06-.08-.06l-.87-.05c0-.32 0-.67.02-.99h4.37c0 .32-.02.67-.02 1.01l-1.36.03c.1.78.29 2.1.5 3.23.22 1.31.43 2.56.69 4.02h.11c.61-1.87 1.79-5.91 2.37-7.76.19-.03 1.06-.03 1.39-.03.56 2.03 1.49 5.55 2.1 7.83h.13c.29-1.28.54-2.58.77-3.6.19-.96.53-2.61.67-3.59.02-.06 0-.08-.05-.08l-1.25-.05c0-.32 0-.69.02-.99.69 0 1.5-.02 2.24-.02.5 0 1.04 0 1.49-.02 0 .32 0 .69-.02 1.01zm1.34 3.71c-.02-.3 0-.66 0-.96.77-.08 2.79-.42 2.93-.42.02 0 .02.02.02.05 0 1.75-.03 4.29-.03 5.95l1.03.03c0 .32 0 .66-.02.96h-1.95c-.59 0-1.3.02-1.89.02 0-.32 0-.66.02-.96l.98-.05c.05 0 .06-.03.06-.06v-4.51zm1.94-4.8c.74 0 1.06.54 1.06 1.02 0 .66-.5 1.1-1.12 1.1-.58 0-1.09-.46-1.09-1.07 0-.54.43-1.06 1.14-1.06h.01zm2.41.59c0-.32.02-.66.03-.96.77-.08 2.83-.4 2.98-.4.03 0 .05.02.05.06-.02 2.79-.05 7.03-.06 10.13l1.11.03v.96h-2.02c-.62 0-1.34.02-1.94.02 0-.3.02-.66.02-.96l.98-.05c.03 0 .06-.03.06-.06v-8.74zm4.47 0c0-.32.02-.66.03-.96.77-.08 2.83-.4 2.98-.4.03 0 .05.02.05.06-.02 2.79-.05 7.03-.06 10.13l1.1.03v.96h-2.02c-.62 0-1.35.02-1.94.02 0-.3.02-.66.02-.96l.98-.05c.03 0 .06-.03.06-.06v-8.74zm4.72 4.21c-.02-.3 0-.66 0-.96.77-.08 2.79-.42 2.93-.42.02 0 .02.02.02.05 0 1.75-.03 4.29-.03 5.95l1.02.03c0 .32 0 .66-.02.96h-1.95c-.59 0-1.3.02-1.89.02 0-.32 0-.66.02-.96l.98-.05c.05 0 .06-.03.06-.06v-4.51zm1.93-4.8c.74 0 1.06.54 1.06 1.02 0 .66-.5 1.1-1.12 1.1-.58 0-1.09-.46-1.09-1.07 0-.54.43-1.06 1.14-1.06h.01zm7.06 9.87c-1.09.56-1.76.72-2.34.72-.82 0-1.92-.74-1.92-1.7 0-.9 1.01-2.26 3.31-2.26h.98c.05-1.31-.32-1.9-1.18-1.9-.62 0-1.38.46-1.97.99-.22-.26-.46-.54-.67-.83.88-.78 1.91-1.47 3.28-1.47 1.22 0 2.29.91 2.29 2.51 0 .88-.03 2.62-.03 3.3 0 .14.03.21.11.19l.98-.03c0 .29.02.64 0 .94-.24.08-1.23.26-2.19.26-.16-.14-.34-.4-.56-.72zm-2.43-1.15c0 .43.43.74.93.74.45 0 1.03-.21 1.49-.53.03-.03.03-.06.03-.11v-1.26c-.08 0-.34-.02-.66-.02-1.27 0-1.79.54-1.79 1.17zm5.9-3.92c0-.3.02-.64.02-.93.67-.1 2.53-.43 2.64-.43.03 0 .05.02.05.05.05.27.1.58.13.88l.06.02c1.5-.9 1.82-.96 2.4-.96.88 0 1.49.75 1.68 1.06h.06c1.55-.94 1.89-1.02 2.53-1.02.8 0 1.36.53 1.68.98.24.37.4.83.4 1.3 0 1.17-.03 2.54-.05 3.68l.94.03c0 .32-.02.67-.03.98h-1.78c-.59 0-1.22.02-1.71.02 0-.3 0-.67.02-.96l.75-.05c.03-.02.05-.05.05-.08.02-.96.02-2.14.02-2.98 0-.43-.02-.8-.16-1.09-.18-.37-.51-.51-.88-.51-.48 0-1.12.32-1.58.64.02 1.14-.02 2.8-.02 4l.9.03c0 .32 0 .67-.02.98h-1.87c-.53 0-1.12.02-1.55.02 0-.32 0-.66.02-.98l.75-.05c.03 0 .06-.03.06-.06v-3.1c0-.46 0-.78-.16-1.07-.19-.35-.5-.43-.82-.43-.43 0-1.14.3-1.63.69-.02 1.18-.03 2.8-.03 3.99l.93.05c0 .3 0 .66-.02.96h-1.89c-.54 0-1.22.02-1.73.02 0-.32 0-.67.02-.98l.88-.05c.03 0 .05-.03.05-.06v-4.51zm17.25-3.71c0-.34.02-.72.03-1.06h3.31c.77 1.92 1.87 4.96 2.88 7.6h.11c.96-2.53 2.03-5.41 2.9-7.6h3.11c0 .32 0 .7-.02 1.04l-.93.05c-.03 0-.05.03-.05.08 0 2.5.02 5.55.03 8.2l1.01.03c.02.32 0 .69-.02 1.01h-3.86c0-.32.02-.69.02-.99l1.09-.05c.05 0 .06-.03.06-.06-.02-2.11-.03-4.64-.05-6.93h-.11c-1.23 3.33-2.22 5.65-3.06 7.49-.18 0-.59.02-.99.02-.91-2.05-1.91-4.51-3.03-7.63h-.13c-.03 2.34-.06 4.83-.1 7.11l1.3.05c0 .32-.02.69-.02 1.01h-3.57c-.02-.32 0-.69 0-.99l.96-.05c.05-.02.06-.03.06-.06.02-2.51.05-5.73.06-8.21zm17.81 8.78c-1.09.56-1.76.72-2.34.72-.82 0-1.92-.74-1.92-1.7 0-.9 1.01-2.26 3.31-2.26h.98c.05-1.31-.32-1.9-1.18-1.9-.62 0-1.38.46-1.97.99-.22-.26-.46-.54-.67-.83.88-.78 1.91-1.47 3.28-1.47 1.22 0 2.29.91 2.29 2.51 0 .88-.03 2.62-.03 3.3 0 .14.03.21.11.19l.98-.03c0 .29.02.64 0 .94-.24.08-1.23.26-2.19.26-.16-.14-.34-.4-.56-.72zm-2.44-1.15c0 .43.43.74.93.74.45 0 1.03-.21 1.49-.53.03-.03.03-.06.03-.11v-1.26c-.08 0-.34-.02-.66-.02-1.27 0-1.79.54-1.79 1.17zm6.04-1.28c0-2.27 1.68-4.02 4.19-4.02.64 0 1.3.16 1.6.35 0 .35-.4 1.18-.66 1.33-.16-.06-.88-.43-1.52-.43-.51 0-.88.16-1.17.54-.32.42-.56 1.02-.56 1.9 0 .83.19 1.34.54 1.78.34.4.86.5 1.3.5.62 0 1.41-.26 1.92-.45.08.29.18.64.22.94-.95.48-2.05.7-2.72.7-1.71 0-3.15-1.15-3.15-3.14zm6.76 1.95c.05 0 .08-.03.1-.08 1.06-2.74 2.51-6.63 3.55-9.38.22-.02.74-.03 1.44-.03 1.01 2.8 2.34 6.72 3.31 9.49l.91.03c0 .34 0 .67-.02 1.01h-3.98c0-.34 0-.67.02-.99l1.06-.05c.03-.02.06-.05.03-.08-.18-.53-.42-1.26-.61-1.76-.02-.05-.05-.06-.1-.06l-3.47.02c-.19.59-.43 1.31-.61 1.89l1.2.03c0 .34 0 .67-.02 1.01h-3.65c0-.34 0-.67.02-.99zm4.02-7.18c-.46 1.33-.99 2.9-1.44 4.18-.02.06-.02.1.03.1h2.9c-.43-1.28-.96-2.9-1.41-4.27h-.08zm7.42 6.9c.03.08.05.13.13.19.26.18.64.29 1.01.29s.67-.02.95-.19c.22-.13.42-.35.42-.72 0-.64-.35-.75-1.57-1.1-1.36-.4-1.95-.99-1.95-1.94 0-.83.58-1.47 1.17-1.78.48-.26 1.17-.43 2.05-.43.86 0 1.5.16 1.71.26.08.64.14 1.28.19 1.92-.32.05-.7.11-1.07.16l-.24-.94c-.02-.06-.05-.14-.1-.18-.21-.14-.51-.21-.82-.21-.3 0-.62.08-.82.22-.19.13-.35.35-.35.72 0 .51.29.62 1.54.99 1.15.32 2 .72 2 1.97 0 .78-.43 1.44-1.18 1.86-.46.26-1.25.4-2.13.4-.82 0-1.57-.13-2-.29l-.24-1.99c.34-.08.72-.14 1.07-.19zm5.09-8.5c0-.32.02-.66.02-.96.74-.1 2.79-.42 2.93-.42.03 0 .05.02.05.06 0 1.95-.03 4.5-.05 6.93.24 0 .67-.02.94-.05.48-.43.96-.9 1.47-1.49.03-.03 0-.06-.03-.06l-.69-.03c0-.32 0-.69.02-.99h1.86c.45-.02.91-.02 1.34-.02 0 .3 0 .67-.02.98l-.67.05c-.88.8-1.46 1.31-1.99 1.78v.1c.38.3.82.74 1.25 1.58.29.53.5.94.7 1.2.08.11.18.14.27.14l.88.03c0 .32 0 .66-.02.98-.59 0-2.22.02-2.58.03-.26-.42-.58-1.07-.9-1.81-.37-.77-.77-1.38-1.1-1.47-.22 0-.54 0-.75.02 0 .66-.02 1.6-.02 2.24l.83.05c0 .3 0 .64-.02.94h-1.78c-.59 0-1.25.02-1.81.02 0-.3 0-.66.02-.96l.91-.05c.02 0 .05-.03.05-.06v-8.74zm8.72 4.19c-.02-.3 0-.66 0-.96.77-.08 2.79-.42 2.93-.42.02 0 .02.02.02.05 0 1.75-.03 4.29-.03 5.95l1.02.03c0 .32 0 .66-.02.96h-1.95c-.59 0-1.3.02-1.89.02 0-.32 0-.66.02-.96l.98-.05c.05 0 .06-.03.06-.06v-4.51zm1.94-4.8c.74 0 1.06.54 1.06 1.02 0 .66-.5 1.1-1.12 1.1-.58 0-1.09-.46-1.09-1.07 0-.54.43-1.06 1.14-1.06h.01zm2.41.59c0-.32.02-.66.03-.96.77-.08 2.83-.4 2.98-.4.03 0 .05.02.05.06-.02 2.79-.05 7.03-.06 10.13l1.1.03v.96h-2.02c-.62 0-1.34.02-1.94.02 0-.3.02-.66.02-.96l.98-.05c.03 0 .06-.03.06-.06v-8.74zm4.47 0c0-.32.02-.66.03-.96.77-.08 2.83-.4 2.98-.4.03 0 .05.02.05.06-.02 2.79-.05 7.03-.06 10.13l1.1.03v.96h-2.02c-.62 0-1.34.02-1.94.02 0-.3.02-.66.02-.96l.98-.05c.03 0 .06-.03.06-.06v-8.74z" class="st14"/><g class="st14"><path class="st16" d="M195.82 175.18c.11 0 .18-.07.22-.18 2.38-6.16 5.65-14.9 7.99-21.09.5-.04 1.66-.07 3.24-.07 2.27 6.3 5.26 15.12 7.45 21.34l2.05.07c0 .76 0 1.51-.04 2.27h-8.96c0-.76 0-1.51.04-2.23l2.38-.11c.07-.04.14-.11.07-.18-.4-1.19-.94-2.84-1.37-3.96-.04-.11-.11-.14-.22-.14l-7.81.04c-.43 1.33-.97 2.95-1.37 4.25l2.7.07c0 .76 0 1.51-.04 2.27h-8.21c0-.76 0-1.51.04-2.23zm9.04-16.17c-1.04 2.99-2.23 6.52-3.24 9.4-.04.14-.04.22.07.22h6.52c-.97-2.88-2.16-6.52-3.17-9.61h-.18zm12.74 5.84c0-.68.04-1.44.04-2.09 1.58-.18 5.72-.97 5.94-.97.07 0 .07.04.07.11.14.72.32 1.55.43 2.16l.18.04c3.56-2.16 4.36-2.34 5.94-2.34 1.73 0 3.1 1.33 3.81 2.48.58 1.01.72 1.98.72 2.88 0 2.38-.07 5.62-.11 8.13l2.09.07c0 .68 0 1.48-.04 2.16h-4.14c-1.3 0-2.77.04-3.89.04v-2.16l1.84-.11c.07 0 .11-.07.14-.14v-5.79c0-1.55 0-2.7-.4-3.38-.54-1.01-1.26-1.12-2.02-1.12-1.08 0-2.77.79-3.92 1.73-.07 2.48-.11 6.33-.11 8.71l2.16.07c0 .72-.04 1.48-.04 2.16h-4.25c-1.3 0-2.81.04-4.03.04 0-.68 0-1.48.04-2.16l1.98-.11c.07 0 .11-.07.11-.14v-10.19z"/></g><g class="st14"><path class="st16" d="M85.73 193.34c0-.96 0-2.06.05-3.02 1.82 0 4.42.05 6.48.05s4.42-.05 6.24-.05c0 .96 0 2.06-.05 3.02l-3.45.14c-.1 0-.1.05-.1.19l-.14 24.63 3.7.14c.05 1.01 0 2.06-.05 3.07-1.78 0-4.22-.05-6.34-.05-2.02 0-4.37.05-6.34.05 0-1.01 0-2.06.05-3.02l3.22-.14c.1 0 .14-.1.14-.19v-24.67zm15.7 11.28c0-.91.05-1.92.05-2.78 2.11-.24 7.63-1.3 7.92-1.3.1 0 .1.05.1.14.19.96.43 2.06.58 2.88l.24.05c4.75-2.88 5.81-3.12 7.92-3.12 2.3 0 4.13 1.78 5.09 3.31.77 1.34.96 2.64.96 3.84 0 3.17-.1 7.49-.14 10.85l2.78.1c0 .91 0 1.97-.05 2.88h-5.52c-1.73 0-3.7.05-5.18.05v-2.88l2.45-.14c.1 0 .14-.1.19-.19v-7.73c0-2.06 0-3.6-.53-4.51-.72-1.34-1.68-1.49-2.69-1.49-1.44 0-3.7 1.06-5.23 2.3-.1 3.31-.14 8.45-.14 11.62l2.88.1c0 .96-.05 1.97-.05 2.88h-5.66c-1.73 0-3.74.05-5.38.05 0-.91 0-1.97.05-2.88l2.64-.14c.1 0 .14-.1.14-.19v-13.59zM137.52 222c-1.1 0-2.4-.19-3.65-1.34-1.44-1.2-1.49-2.3-1.49-3.74 0-2.54.05-5.71.05-6.67 0-1.25.05-4.99.05-5.86h-3.31c0-1.01 0-2.11.1-3.07 1.01-.05 2.11-.14 3.07-.19.14 0 .34-.14.34-.34.05-1.34.14-2.98.24-4.27 1.73-.96 4.85-2.02 4.99-2.02.05 0 .1.05.1.14 0 1.39-.05 4.75-.1 6.48 2.45 0 5.14-.05 7.49-.05 0 1.06-.1 2.3-.14 3.36-2.16 0-4.9-.05-7.39-.05v4.8c-.05 1.97-.05 4.32-.05 6.62 0 1.73 1.3 2.59 2.74 2.59s3.26-.34 4.85-.72c.19.91.34 1.97.43 2.93-2.69.96-5.76 1.39-8.26 1.39h-.06zm10.42-17.43c0-.96 0-1.92.05-2.83 2.06-.29 7.63-1.25 7.87-1.25.05 0 .1.05.1.14.1 1.58.19 3.94.29 6.29l.29.05c2.83-5.52 4.27-6.53 6.48-6.53 1.1 0 2.3.24 3.12.58 0 1.54-1.06 4.37-1.73 4.99-.43-.1-1.73-.43-2.74-.43-.48 0-.91.14-1.49.58-.91.72-1.78 1.92-2.88 4.03-.58 1.1-.77 2.74-.77 4.22-.05 1.3-.05 2.88-.05 4.08l4.27.14c0 .86 0 1.92-.05 2.83h-6.62c-1.82 0-3.98.05-5.71.05 0-.91 0-1.97.05-2.88l2.54-.1c.1-.05.19-.1.19-.19v-13.73z"/></g><g class="st14"><path class="st16" d="M177.64 222c-2.74 0-5.28-.77-7.01-2.3-2.16-1.87-3.36-4.46-3.36-7.97 0-3.55 1.44-6.77 4.27-8.98 1.97-1.54 4.56-2.26 7.1-2.26 2.4 0 4.46.53 6.24 1.78 2.4 1.73 3.98 4.56 3.98 8.54s-1.92 7.34-4.56 9.26c-1.82 1.3-4.03 1.92-6.62 1.92h-.04zm.48-2.84c1.15 0 2.3-.34 3.17-1.39 1.3-1.49 1.73-3.55 1.73-6.77 0-2.78-.48-4.71-1.49-6-.86-1.2-1.97-1.68-3.31-1.68-1.1 0-2.35.38-3.22 1.44-1.2 1.39-1.82 3.5-1.82 6.43 0 3.26.58 5.18 1.78 6.53.77.96 1.87 1.44 3.12 1.44zm29.62.68c-4.13 2.02-5.18 2.16-6.62 2.16-2.11 0-4.18-.72-5.76-2.3-1.78-1.78-2.83-4.22-2.83-7.34 0-3.36 1.2-6.48 3.41-8.88 1.68-1.87 4.22-2.98 6.91-2.98 1.73 0 3.31.38 4.51.77l.24-.14c0-3.02-.05-5.95-.1-8.98l-3.84-.1c0-.96 0-1.97.05-2.88 2.59-.29 8.69-1.25 9.22-1.25.05 0 .1.05.1.14 0 8.21-.14 20.55-.14 29.62 0 .48.1.77.43.77l2.93-.14v2.83c-.72.29-4.18.86-6.62.86-.62-.43-1.1-1.1-1.58-2.16zm-.24-3.6v-11.33c-1.1-.58-2.45-1.01-3.94-1.01s-2.93.62-3.79 1.87c-.96 1.39-1.49 3.17-1.49 5.95 0 2.21.38 3.74 1.3 5.04.77 1.06 2.02 1.68 3.26 1.68 1.58 0 2.98-.53 4.42-1.44.19-.14.24-.34.24-.72zm26.21 3.26c-4.13 2.35-5.09 2.5-7.01 2.5-3.12 0-6.34-3.55-6.34-6.62 0-3.98.05-7.87.05-11.18l-2.59-.05c0-.96.05-2.02.1-2.98 1.82-.1 7.25-.24 7.82-.29.1 0 .14.14.14.19-.05 3.5-.14 7.54-.14 11.33 0 1.73-.05 3.26.67 4.37.72 1.15 1.63 1.44 2.69 1.44 1.34 0 2.98-.67 4.51-1.82.05-3.65 0-8.88 0-12.19l-2.78-.1c0-1.01.05-2.06.05-3.02 1.78-.05 7.49-.14 8.16-.14.05 0 .05.1.05.19 0 5.23-.1 11.18-.1 16.75 0 .38.1.53.29.53l2.98-.05c0 .91 0 1.92-.05 2.83-.53.24-3.89.82-6.43.82-.58-.48-1.15-1.3-1.82-2.5h-.25zm10.8-6.96c0-6.82 5.04-12.05 12.58-12.05 1.92 0 3.89.48 4.8 1.06 0 1.06-1.2 3.55-1.97 3.98-.48-.19-2.64-1.3-4.56-1.3-1.54 0-2.64.48-3.5 1.63-.96 1.25-1.68 3.07-1.68 5.71 0 2.5.58 4.03 1.63 5.33 1.01 1.2 2.59 1.49 3.89 1.49 1.87 0 4.22-.77 5.76-1.34.24.86.53 1.92.67 2.83-2.83 1.44-6.14 2.11-8.16 2.11-5.14 0-9.46-3.46-9.46-9.41zm28.17 9.46c-1.1 0-2.4-.19-3.65-1.34-1.44-1.2-1.49-2.3-1.49-3.74 0-2.54.05-5.71.05-6.67 0-1.25.05-4.99.05-5.86h-3.31c0-1.01 0-2.11.1-3.07 1.01-.05 2.11-.14 3.07-.19.14 0 .34-.14.34-.34.05-1.34.14-2.98.24-4.27 1.73-.96 4.85-2.02 4.99-2.02.05 0 .1.05.1.14 0 1.39-.05 4.75-.1 6.48 2.45 0 5.14-.05 7.49-.05 0 1.06-.1 2.3-.14 3.36-2.16 0-4.9-.05-7.39-.05v4.8c-.05 1.97-.05 4.32-.05 6.62 0 1.73 1.3 2.59 2.74 2.59s3.26-.34 4.85-.72c.19.91.34 1.97.43 2.93-2.69.96-5.76 1.39-8.26 1.39h-.06zm10.27-17.38c-.05-.91 0-1.97 0-2.88 2.3-.24 8.35-1.25 8.78-1.25.05 0 .05.05.05.14 0 5.23-.1 12.87-.1 17.86l3.07.1c0 .96 0 1.97-.05 2.88h-5.86c-1.78 0-3.89.05-5.67.05 0-.96 0-1.97.05-2.88l2.93-.14c.14 0 .19-.1.19-.19v-13.54zm5.81-14.4c2.21 0 3.17 1.63 3.17 3.07 0 1.97-1.49 3.31-3.36 3.31-1.73 0-3.26-1.39-3.26-3.22 0-1.63 1.29-3.17 3.41-3.17h.04zM307.67 222c-2.74 0-5.28-.77-7.01-2.3-2.16-1.87-3.36-4.46-3.36-7.97 0-3.55 1.44-6.77 4.27-8.98 1.97-1.54 4.56-2.26 7.11-2.26 2.4 0 4.46.53 6.24 1.78 2.4 1.73 3.98 4.56 3.98 8.54s-1.92 7.34-4.56 9.26c-1.82 1.3-4.03 1.92-6.62 1.92h-.05zm.48-2.84c1.15 0 2.3-.34 3.17-1.39 1.3-1.49 1.73-3.55 1.73-6.77 0-2.78-.48-4.71-1.49-6-.86-1.2-1.97-1.68-3.31-1.68-1.1 0-2.35.38-3.22 1.44-1.2 1.39-1.82 3.5-1.82 6.43 0 3.26.58 5.18 1.78 6.53.77.96 1.87 1.44 3.12 1.44zm13.59-14.54c0-.91.05-1.92.05-2.78 2.11-.24 7.63-1.3 7.92-1.3.1 0 .1.05.1.14.19.96.43 2.06.58 2.88l.24.05c4.75-2.88 5.81-3.12 7.92-3.12 2.3 0 4.13 1.78 5.09 3.31.77 1.34.96 2.64.96 3.84 0 3.17-.1 7.49-.14 10.85l2.79.1c0 .91 0 1.97-.05 2.88h-5.52c-1.73 0-3.7.05-5.19.05v-2.88l2.45-.14c.1 0 .14-.1.19-.19v-7.73c0-2.06 0-3.6-.53-4.51-.72-1.34-1.68-1.49-2.69-1.49-1.44 0-3.7 1.06-5.23 2.3-.1 3.31-.14 8.45-.14 11.62l2.88.1c0 .96-.05 1.97-.05 2.88h-5.67c-1.73 0-3.74.05-5.38.05 0-.91 0-1.97.05-2.88l2.64-.14c.1 0 .14-.1.14-.19v-13.59z"/></g><g class="st14"><path class="st16" d="M56.21 271.88c-.83 0-1.8-.14-2.74-1.01-1.08-.9-1.12-1.73-1.12-2.81 0-1.91.04-4.28.04-5 0-.94.04-3.74.04-4.39h-2.48c0-.76 0-1.58.07-2.3.76-.04 1.58-.11 2.3-.14.11 0 .25-.11.25-.25.04-1.01.11-2.23.18-3.2 1.3-.72 3.64-1.51 3.74-1.51.04 0 .07.04.07.11 0 1.04-.04 3.56-.07 4.86 1.84 0 3.85-.04 5.62-.04 0 .79-.07 1.73-.11 2.52-1.62 0-3.67-.04-5.54-.04v3.6c-.04 1.48-.04 3.24-.04 4.97 0 1.3.97 1.94 2.05 1.94s2.45-.25 3.64-.54c.14.68.25 1.48.32 2.2-2.02.72-4.32 1.04-6.19 1.04h-.03zm15.59 0c-2.05 0-3.96-.58-5.26-1.73-1.62-1.4-2.52-3.35-2.52-5.97 0-2.66 1.08-5.08 3.2-6.73 1.48-1.15 3.42-1.69 5.33-1.69 1.8 0 3.35.4 4.68 1.33 1.8 1.3 2.99 3.42 2.99 6.41s-1.44 5.51-3.42 6.95c-1.37.97-3.02 1.44-4.97 1.44h-.03zm.36-2.13c.86 0 1.73-.25 2.38-1.04.97-1.12 1.3-2.66 1.3-5.08 0-2.09-.36-3.53-1.12-4.5-.65-.9-1.48-1.26-2.48-1.26-.83 0-1.76.29-2.41 1.08-.9 1.04-1.37 2.63-1.37 4.82 0 2.45.43 3.89 1.33 4.9.58.72 1.4 1.08 2.34 1.08z"/></g><g class="st14"/><g class="st14"><path class="st16" d="M99.68 258.7c-.05 4.32.67 6.1 1.87 7.63.91 1.1 2.35 2.11 4.94 2.11 2.5 0 3.74-.96 4.75-2.02 1.15-1.2 2.02-3.94 2.02-7.82 0-4.32 0-10.46-.05-14.98 0-.1-.05-.14-.19-.14l-3.74-.14c0-.96.05-2.02.05-2.98h5.95c1.82 0 3.7-.05 5.28-.05 0 .96 0 2.02-.05 3.02l-2.74.14-.1 14.79c-.05 5.47-1.68 8.83-3.46 10.66-1.58 1.63-4.03 3.07-8.21 3.07-3.74 0-6.62-.82-8.79-2.83-2.74-2.59-3.26-6.19-3.26-10.18v-15.26c0-.19-.05-.29-.24-.29l-2.59-.1c0-1.01 0-2.06.05-3.02 1.68 0 3.94.05 5.81.05 2.3 0 4.66-.05 6.67-.05 0 .96 0 2.06-.05 3.02l-3.84.1zm32.07 13.3c-1.1 0-2.4-.19-3.65-1.34-1.44-1.2-1.49-2.3-1.49-3.74 0-2.54.05-5.71.05-6.67 0-1.25.05-4.99.05-5.86h-3.31c0-1.01 0-2.11.1-3.07 1.01-.05 2.11-.14 3.07-.19.14 0 .34-.14.34-.34.05-1.34.14-2.98.24-4.27 1.73-.96 4.85-2.02 4.99-2.02.05 0 .1.05.1.14 0 1.39-.05 4.75-.1 6.48 2.45 0 5.14-.05 7.49-.05 0 1.06-.1 2.3-.14 3.36-2.16 0-4.9-.05-7.39-.05v4.8c-.05 1.97-.05 4.32-.05 6.62 0 1.73 1.3 2.59 2.74 2.59s3.26-.34 4.85-.72c.19.91.34 1.97.43 2.93-2.69.96-5.76 1.39-8.26 1.39h-.06z"/></g><g class="st14"><path class="st16" d="M142.02 254.62c-.05-.91 0-1.97 0-2.88 2.3-.24 8.35-1.25 8.78-1.25.05 0 .05.05.05.14 0 5.23-.1 12.87-.1 17.86l3.07.1c0 .96 0 1.97-.05 2.88h-5.86c-1.78 0-3.89.05-5.66.05 0-.96 0-1.97.05-2.88l2.93-.14c.14 0 .19-.1.19-.19v-13.54zm5.81-14.4c2.21 0 3.17 1.63 3.17 3.07 0 1.97-1.49 3.31-3.36 3.31-1.73 0-3.26-1.39-3.26-3.22 0-1.63 1.3-3.17 3.41-3.17h.04zm7.25 1.77c0-.96.05-1.97.1-2.88 2.3-.24 8.5-1.2 8.93-1.2.1 0 .14.05.14.19-.05 8.35-.14 21.07-.19 30.39l3.31.1v2.88h-6.05c-1.87 0-4.03.05-5.81.05 0-.91.05-1.97.05-2.88l2.93-.14c.1 0 .19-.1.19-.19V242.1zm14.15 12.63c-.05-.91 0-1.97 0-2.88 2.3-.24 8.35-1.25 8.79-1.25.05 0 .05.05.05.14 0 5.23-.1 12.87-.1 17.86l3.07.1c0 .96 0 1.97-.05 2.88h-5.86c-1.78 0-3.89.05-5.66.05 0-.96 0-1.97.05-2.88l2.93-.14c.14 0 .19-.1.19-.19v-13.54zm5.81-14.4c2.21 0 3.17 1.63 3.17 3.07 0 1.97-1.49 3.31-3.36 3.31-1.73 0-3.26-1.39-3.26-3.22 0-1.63 1.3-3.17 3.41-3.17h.04zM191.41 272c-1.1 0-2.4-.19-3.65-1.34-1.44-1.2-1.49-2.3-1.49-3.74 0-2.54.05-5.71.05-6.67 0-1.25.05-4.99.05-5.86h-3.31c0-1.01 0-2.11.1-3.07 1.01-.05 2.11-.14 3.07-.19.14 0 .34-.14.34-.34.05-1.34.14-2.98.24-4.27 1.73-.96 4.85-2.02 4.99-2.02.05 0 .1.05.1.14 0 1.39-.05 4.75-.1 6.48 2.45 0 5.14-.05 7.49-.05 0 1.06-.1 2.3-.14 3.36-2.16 0-4.9-.05-7.39-.05v4.8c-.05 1.97-.05 4.32-.05 6.62 0 1.73 1.3 2.59 2.74 2.59s3.26-.34 4.85-.72c.19.91.34 1.97.43 2.93-2.69.96-5.76 1.39-8.26 1.39h-.06zm23.04-2.16c-3.26 1.68-5.28 2.16-7.01 2.16-2.45 0-5.76-2.21-5.76-5.09 0-2.69 3.02-6.77 9.94-6.77h2.93c.14-3.94-.96-5.71-3.55-5.71-1.87 0-4.13 1.39-5.9 2.98-.67-.77-1.39-1.63-2.02-2.5 2.64-2.35 5.71-4.42 9.84-4.42 3.65 0 6.86 2.74 6.86 7.54 0 2.64-.1 7.87-.1 9.89 0 .43.1.62.34.58l2.93-.1c0 .86.05 1.92 0 2.83-.72.24-3.7.77-6.58.77-.48-.43-1.01-1.2-1.68-2.16zm-7.3-3.46c0 1.3 1.3 2.21 2.78 2.21 1.34 0 3.07-.62 4.46-1.58.1-.1.1-.19.1-.34v-3.79c-.24 0-1.01-.05-1.97-.05-3.79 0-5.38 1.63-5.38 3.5v.05zm17.81-11.81c0-.96 0-1.92.05-2.83 2.06-.29 7.63-1.25 7.87-1.25.05 0 .1.05.1.14.1 1.58.19 3.94.29 6.29l.29.05c2.83-5.52 4.27-6.53 6.48-6.53 1.1 0 2.3.24 3.12.58 0 1.54-1.06 4.37-1.73 4.99-.43-.1-1.73-.43-2.74-.43-.48 0-.91.14-1.49.58-.91.72-1.78 1.92-2.88 4.03-.58 1.1-.77 2.74-.77 4.22-.05 1.3-.05 2.88-.05 4.08l4.27.14c0 .86 0 1.92-.05 2.83h-6.62c-1.82 0-3.98.05-5.71.05 0-.91 0-1.97.05-2.88l2.54-.1c.1-.05.19-.1.19-.19v-13.73zm19.92.05c-.05-.91 0-1.97 0-2.88 2.3-.24 8.35-1.25 8.79-1.25.05 0 .05.05.05.14 0 5.23-.1 12.87-.1 17.86l3.07.1c0 .96 0 1.97-.05 2.88h-5.86c-1.78 0-3.89.05-5.66.05 0-.96 0-1.97.05-2.88l2.93-.14c.14 0 .19-.1.19-.19v-13.54zm5.81-14.4c2.21 0 3.17 1.63 3.17 3.07 0 1.97-1.49 3.31-3.36 3.31-1.73 0-3.26-1.39-3.26-3.22 0-1.63 1.3-3.17 3.41-3.17h.04zm21.17 29.62c-3.26 1.68-5.28 2.16-7.01 2.16-2.45 0-5.76-2.21-5.76-5.09 0-2.69 3.02-6.77 9.94-6.77h2.93c.14-3.94-.96-5.71-3.55-5.71-1.87 0-4.13 1.39-5.9 2.98-.67-.77-1.39-1.63-2.02-2.5 2.64-2.35 5.71-4.42 9.84-4.42 3.65 0 6.87 2.74 6.87 7.54 0 2.64-.1 7.87-.1 9.89 0 .43.1.62.34.58l2.93-.1c0 .86.05 1.92 0 2.83-.72.24-3.7.77-6.58.77-.48-.43-1.01-1.2-1.68-2.16zm-7.3-3.46c0 1.3 1.3 2.21 2.78 2.21 1.34 0 3.07-.62 4.46-1.58.1-.1.1-.19.1-.34v-3.79c-.24 0-1.01-.05-1.97-.05-3.79 0-5.38 1.63-5.38 3.5v.05zm17.62-11.76c0-.91.05-1.92.05-2.78 2.11-.24 7.63-1.3 7.92-1.3.1 0 .1.05.1.14.19.96.43 2.06.58 2.88l.24.05c4.75-2.88 5.81-3.12 7.92-3.12 2.3 0 4.13 1.78 5.09 3.31.77 1.34.96 2.64.96 3.84 0 3.17-.1 7.49-.14 10.85l2.79.1c0 .91 0 1.97-.05 2.88h-5.52c-1.73 0-3.7.05-5.19.05v-2.88l2.45-.14c.1 0 .14-.1.19-.19v-7.73c0-2.06 0-3.6-.53-4.51-.72-1.34-1.68-1.49-2.69-1.49-1.44 0-3.7 1.06-5.23 2.3-.1 3.31-.14 8.45-.14 11.62l2.88.1c0 .96-.05 1.97-.05 2.88h-5.67c-1.73 0-3.74.05-5.38.05 0-.91 0-1.97.05-2.88l2.64-.14c.1 0 .14-.1.14-.19v-13.59zm27.83 0c-.05-.91 0-1.97 0-2.88 2.3-.24 8.35-1.25 8.79-1.25.05 0 .05.05.05.14 0 5.23-.1 12.87-.1 17.86l3.07.1c0 .96 0 1.97-.05 2.88h-5.86c-1.78 0-3.89.05-5.67.05 0-.96 0-1.97.05-2.88l2.93-.14c.14 0 .19-.1.19-.19v-13.54zm5.81-14.4c2.21 0 3.17 1.63 3.17 3.07 0 1.97-1.49 3.31-3.36 3.31-1.73 0-3.26-1.39-3.26-3.22 0-1.63 1.3-3.17 3.41-3.17h.04zm12.34 27.31c.1.24.14.38.38.58.77.53 1.92.86 3.02.86s2.02-.05 2.83-.58c.67-.38 1.25-1.06 1.25-2.16 0-1.92-1.06-2.26-4.7-3.31-4.08-1.2-5.86-2.98-5.86-5.81 0-2.5 1.73-4.42 3.5-5.33 1.44-.77 3.5-1.3 6.14-1.3 2.59 0 4.51.48 5.14.77.24 1.92.43 3.84.58 5.76-.96.14-2.11.34-3.22.48l-.72-2.83c-.05-.19-.14-.43-.29-.53-.62-.43-1.54-.62-2.45-.62s-1.87.24-2.45.67c-.58.38-1.06 1.06-1.06 2.16 0 1.54.86 1.87 4.61 2.98 3.46.96 6 2.16 6 5.91 0 2.35-1.3 4.32-3.55 5.57-1.39.77-3.74 1.2-6.38 1.2-2.45 0-4.71-.38-6-.86-.24-1.97-.48-3.98-.72-5.95 1.01-.24 2.16-.43 3.22-.58zm15.98-12.91c0-.91.05-1.92.05-2.78 2.02-.29 7.59-1.3 7.92-1.3.1 0 .14.05.14.14.14.82.29 1.73.38 2.64l.19.05c4.51-2.69 5.47-2.88 7.2-2.88 2.64 0 4.46 2.26 5.04 3.17h.19c4.66-2.83 5.67-3.07 7.58-3.07 2.4 0 4.08 1.58 5.04 2.93.72 1.1 1.2 2.5 1.2 3.89 0 3.5-.1 7.63-.14 11.04l2.83.1c0 .96-.05 2.02-.1 2.93h-5.33c-1.78 0-3.65.05-5.14.05 0-.91 0-2.02.05-2.88l2.26-.14c.1-.05.14-.14.14-.24.05-2.88.05-6.43.05-8.93 0-1.3-.05-2.4-.48-3.26-.53-1.1-1.54-1.54-2.64-1.54-1.44 0-3.36.96-4.75 1.92.05 3.41-.05 8.4-.05 12l2.69.1c0 .96 0 2.02-.05 2.93h-5.62c-1.58 0-3.36.05-4.66.05 0-.96 0-1.97.05-2.93l2.26-.14c.1 0 .19-.1.19-.19v-9.31c0-1.39 0-2.35-.48-3.22-.58-1.06-1.49-1.3-2.45-1.3-1.3 0-3.41.91-4.9 2.06-.05 3.55-.1 8.4-.1 11.95l2.79.14c0 .91 0 1.97-.05 2.88h-5.66c-1.63 0-3.65.05-5.18.05 0-.96 0-2.02.05-2.93l2.64-.14c.1 0 .14-.1.14-.19v-13.54z"/></g></svg>
