<?xml version="1.0" encoding="UTF-8" standalone="no"?>
<!-- Created with Inkscape (http://www.inkscape.org/) -->

<svg
   version="1.1"
   id="svg2"
   xml:space="preserve"
   width="21.333332"
   height="21.333332"
   viewBox="0 0 21.333332 21.333332"
   sodipodi:docname="favicon.ai"
   xmlns:inkscape="http://www.inkscape.org/namespaces/inkscape"
   xmlns:sodipodi="http://sodipodi.sourceforge.net/DTD/sodipodi-0.dtd"
   xmlns="http://www.w3.org/2000/svg"
   xmlns:svg="http://www.w3.org/2000/svg">
   
  <style>
    * {
      fill: #0b3959;
    }

    @media (prefers-color-scheme: dark) {
      * {
        fill: white;
      }
    }
  </style>

  <defs id="defs6">
    <clipPath clipPathUnits="userSpaceOnUse" id="clipPath16">
      <path d="M 0,16 H 16 V 0 H 0 Z" id="path14" />
    </clipPath>
  </defs>
  <sodipodi:namedview
    id="namedview4"
    pagecolor="#ffffff"
    bordercolor="#666666"
    borderopacity="1.0"
    inkscape:pageshadow="2"
    inkscape:pageopacity="0.0"
    inkscape:pagecheckerboard="0"
  />
  <g
    id="g8"
    inkscape:groupmode="layer"
    inkscape:label="favicon"
    transform="matrix(1.3333333,0,0,-1.3333333,0,21.333333)"
  >
    <g id="g10">
      <g id="g12" clip-path="url(#clipPath16)">
        <g id="g18" transform="translate(15.0088,6.1562)">
          <path
            d="m 0,0 h -3.371 c -0.073,0 -0.127,0.067 -0.111,0.139 l 1.432,6.464 c 0.026,0.114 0.187,0.12 0.22,0.007 L 0.109,0.146 C 0.131,0.073 0.076,0 0,0 m -6.992,8.158 c -0.234,0 -0.424,0.189 -0.424,0.424 0,0.233 0.19,0.423 0.424,0.423 0.234,0 0.424,-0.19 0.424,-0.423 0,-0.235 -0.19,-0.424 -0.424,-0.424 M -10.501,0.139 C -10.485,0.067 -10.54,0 -10.612,0 h -3.372 c -0.076,0 -0.131,0.073 -0.109,0.146 l 1.939,6.464 c 0.034,0.113 0.195,0.107 0.22,-0.007 z M 0.911,0 H 0.659 C 0.608,0 0.564,0.033 0.55,0.081 L -1.696,7.67 C -1.711,7.719 -1.755,7.752 -1.805,7.752 L -6.549,7.749 v 0.123 c 0.237,0.148 0.395,0.41 0.395,0.71 0,0.462 -0.375,0.837 -0.838,0.837 -0.463,0 -0.838,-0.375 -0.838,-0.837 0,-0.3 0.159,-0.562 0.395,-0.71 V 7.749 l -4.743,0.003 c -0.051,0 -0.095,-0.033 -0.11,-0.082 L -14.533,0.081 C -14.548,0.033 -14.592,0 -14.643,0 h -0.251 c -0.098,0 -0.151,-0.116 -0.086,-0.188 0.508,-0.569 1.516,-0.957 2.677,-0.957 1.161,0 2.169,0.388 2.677,0.957 C -9.561,-0.116 -9.614,0 -9.712,0 h -0.254 c -0.054,0 -0.1,0.037 -0.112,0.089 l -1.578,7.121 c -0.015,0.071 0.038,0.139 0.111,0.139 h 4.11 V -3.51 h -1.65 v -0.916 h 2.093 2.094 V -3.51 H -6.549 V 7.349 h 4.111 c 0.072,0 0.126,-0.068 0.11,-0.139 L -3.906,0.089 C -3.918,0.037 -3.964,0 -4.018,0 h -0.253 c -0.098,0 -0.152,-0.116 -0.086,-0.188 0.507,-0.569 1.515,-0.957 2.676,-0.957 1.161,0 2.17,0.388 2.678,0.957 C 1.062,-0.116 1.008,0 0.911,0"
            style="fill-opacity: 1; fill-rule: nonzero; stroke: none"
            id="path20"
          />
        </g>
        <path
          d="m 4.964,0.425 h 6.105 V 1.34 H 4.964 Z"
          style="fill-opacity: 1; fill-rule: nonzero; stroke: none"
          id="path22"
        />
      </g>
    </g>
  </g>
</svg>