<?xml version="1.0" standalone="no"?>
<!DOCTYPE svg PUBLIC "-//W3C//DTD SVG 20010904//EN"
 "http://www.w3.org/TR/2001/REC-SVG-20010904/DTD/svg10.dtd">
<svg version="1.0" xmlns="http://www.w3.org/2000/svg"
 width="512.000000pt" height="512.000000pt" viewBox="0 0 512.000000 512.000000"
 preserveAspectRatio="xMidYMid meet">
<metadata>
Created by potrace 1.14, written by Peter Selinger 2001-2017
</metadata>
<g transform="translate(0.000000,512.000000) scale(0.100000,-0.100000)"
fill="#000000" stroke="none">
<path d="M2455 4761 c-154 -72 -187 -275 -64 -403 35 -37 37 -58 7 -59 -13 0
-307 -1 -654 -1 -348 0 -637 -4 -643 -7 -9 -6 -161 -531 -295 -1021 -23 -82
-182 -650 -288 -1025 -28 -99 -54 -185 -60 -191 -5 -7 -25 -11 -46 -9 -84 6
-93 -30 -25 -97 91 -88 211 -151 367 -193 113 -30 136 -33 264 -41 255 -15
516 53 698 182 57 40 114 97 114 112 -1 23 -23 35 -64 37 -53 2 -72 16 -79 60
-7 39 -36 183 -87 425 -23 107 -44 206 -46 220 -3 14 -25 117 -49 230 -24 113
-46 216 -49 230 -2 14 -22 111 -44 215 -100 468 -133 626 -138 655 -2 14 -7
36 -10 48 -12 53 -26 52 587 52 448 0 569 -3 570 -12 4 -79 0 -3128 -4 -3135
-3 -5 -101 -8 -217 -8 -116 0 -215 -2 -221 -5 -6 -4 -9 -57 -7 -135 l3 -128
563 -1 c310 -1 568 2 574 5 9 6 14 242 4 257 -2 4 -104 7 -225 7 l-221 0 -1
65 c0 83 0 2956 0 3033 l1 57 569 0 c469 0 571 -2 580 -14 8 -10 7 -32 -5 -87
-8 -41 -17 -83 -20 -94 -2 -11 -17 -88 -35 -170 -17 -83 -33 -161 -35 -174 -3
-12 -11 -51 -19 -85 -8 -33 -17 -77 -20 -96 -3 -19 -8 -42 -10 -50 -3 -8 -23
-102 -45 -208 -22 -107 -42 -205 -45 -218 -3 -13 -8 -36 -11 -51 -3 -16 -16
-78 -29 -140 -14 -61 -26 -122 -29 -135 -16 -79 -29 -144 -65 -313 -62 -294
-62 -295 -74 -296 -7 -1 -31 -2 -55 -3 -39 -1 -61 -15 -62 -38 0 -16 67 -82
123 -120 121 -82 263 -136 430 -162 82 -14 319 -14 387 -1 19 3 44 8 55 10
211 35 485 192 485 277 0 15 -3 28 -7 29 -5 1 -27 2 -50 3 -24 1 -47 6 -52 11
-7 8 -141 465 -156 535 -2 8 -26 94 -53 190 -76 267 -362 1288 -378 1345 -7
28 -21 77 -31 110 l-19 60 -662 0 -662 0 0 21 c0 12 10 28 23 37 35 22 76 108
81 165 4 59 -19 135 -54 180 -58 74 -180 102 -265 63z m144 -116 c32 -16 61
-69 61 -112 0 -34 -31 -88 -61 -103 -28 -15 -80 -15 -108 0 -31 16 -61 69 -61
108 0 92 89 149 169 107z m-1420 -672 c5 -10 11 -31 14 -48 8 -44 22 -112 56
-271 17 -77 32 -154 35 -170 7 -34 11 -54 25 -114 5 -25 12 -56 15 -70 13 -65
28 -138 61 -295 20 -93 58 -276 85 -405 27 -129 63 -302 81 -384 27 -130 29
-151 16 -160 -22 -16 -952 -15 -968 1 -9 9 -8 27 5 75 28 99 214 757 231 813
8 28 76 266 150 529 75 264 140 488 146 498 12 23 35 23 48 1z m2803 -73 c14
-47 50 -168 78 -270 29 -102 115 -405 192 -675 77 -269 141 -497 143 -505 6
-24 61 -218 84 -295 25 -83 25 -80 8 -97 -18 -18 -950 -19 -968 -1 -10 10 -2
59 46 288 14 62 26 125 31 151 3 16 9 45 14 64 5 19 11 46 14 60 2 14 14 70
26 125 11 55 27 132 35 170 8 39 21 102 30 140 13 61 34 161 51 245 3 14 19
88 35 165 16 77 32 153 35 168 15 85 66 315 75 335 18 45 42 23 71 -68z"/>
<path d="M1707 635 c-2 -5 -3 -64 -3 -130 l1 -120 840 -3 840 -2 -1 122 c-1
68 -2 128 -3 133 -1 14 -1669 14 -1674 0z"/>
</g>
</svg>
